<svg xmlns="http://www.w3.org/2000/svg" xmlns:xlink="http://www.w3.org/1999/xlink" viewBox="0 0 400 474.64"><defs><style>.cls-1{isolation:isolate;}.cls-2,.cls-8{fill:#dae4e5;}.cls-2,.cls-7{opacity:0.36;}.cls-14,.cls-17,.cls-21,.cls-22,.cls-23,.cls-24,.cls-25,.cls-26,.cls-3,.cls-49{fill:none;}.cls-3{stroke:#63bace;stroke-dasharray:3 2.5;}.cls-17,.cls-21,.cls-22,.cls-23,.cls-24,.cls-3,.cls-49{stroke-linecap:round;stroke-linejoin:round;}.cls-4{fill:#fdd247;}.cls-5{fill:#fff;}.cls-6{fill:#023d5f;}.cls-9{opacity:0.48;}.cls-10,.cls-19{mix-blend-mode:multiply;}.cls-10{opacity:0.2;}.cls-11{fill:#ffb839;}.cls-12{opacity:0.35;}.cls-13{fill:#ff7343;}.cls-14{stroke:#fff;}.cls-14,.cls-25,.cls-26{stroke-miterlimit:10;}.cls-15{opacity:0.21;}.cls-16{fill:#ff5a22;}.cls-17{stroke:#ffe1b0;stroke-width:16px;}.cls-17,.cls-38{mix-blend-mode:screen;}.cls-18{fill:#044666;}.cls-19{fill:#71c9c4;}.cls-19,.cls-37{opacity:0.55;}.cls-20{fill:#c5e6ef;}.cls-21,.cls-22,.cls-23,.cls-24{stroke:#95c6c6;}.cls-21,.cls-22,.cls-23,.cls-24,.cls-25{stroke-width:0.5px;}.cls-22{stroke-dasharray:1.83 2.29;}.cls-23{stroke-dasharray:1.96 2.45;}.cls-24{stroke-dasharray:2.24 2.8;}.cls-25,.cls-26{stroke:#c5e6ef;}.cls-26{stroke-width:0.25px;}.cls-27{fill:#ffc2c1;}.cls-28{fill:#95c6c6;}.cls-29{fill:#1d2035;}.cls-30{fill:url(#linear-gradient);}.cls-31{fill:url(#linear-gradient-2);}.cls-32{fill:url(#linear-gradient-3);}.cls-33{fill:url(#linear-gradient-4);}.cls-34{fill:url(#linear-gradient-5);}.cls-35{fill:url(#linear-gradient-6);}.cls-36{fill:#062f44;}.cls-39{fill:#afd4dd;}.cls-40{fill:#3a3a3a;}.cls-41{fill:url(#linear-gradient-7);}.cls-42{fill:url(#linear-gradient-8);}.cls-43{fill:#282b43;}.cls-44{fill:url(#linear-gradient-9);}.cls-45{fill:url(#linear-gradient-10);}.cls-46{fill:#313445;}.cls-47{fill:url(#linear-gradient-11);}.cls-48{fill:url(#linear-gradient-12);}.cls-49{stroke:#ffc840;stroke-width:2.99px;}</style><linearGradient id="linear-gradient" x1="117.83" y1="419.62" x2="130.37" y2="419.62" gradientUnits="userSpaceOnUse"><stop offset="0" stop-color="#144188"/><stop offset="1" stop-color="#1a7cde"/></linearGradient><linearGradient id="linear-gradient-2" x1="131.36" y1="390.39" x2="149.24" y2="390.39" xlink:href="#linear-gradient"/><linearGradient id="linear-gradient-3" x1="119.98" y1="419.38" x2="159.52" y2="419.38" xlink:href="#linear-gradient"/><linearGradient id="linear-gradient-4" x1="151.35" y1="425.39" x2="159.52" y2="425.39" xlink:href="#linear-gradient"/><linearGradient id="linear-gradient-5" x1="147.82" y1="411.07" x2="167.44" y2="411.07" xlink:href="#linear-gradient"/><linearGradient id="linear-gradient-6" x1="159.72" y1="432.92" x2="183.99" y2="432.92" xlink:href="#linear-gradient"/><linearGradient id="linear-gradient-7" x1="327.64" y1="310.57" x2="339.3" y2="310.57" xlink:href="#linear-gradient"/><linearGradient id="linear-gradient-8" x1="327.64" y1="315.51" x2="337.75" y2="315.51" xlink:href="#linear-gradient"/><linearGradient id="linear-gradient-9" x1="310.08" y1="283.37" x2="326.71" y2="283.37" xlink:href="#linear-gradient"/><linearGradient id="linear-gradient-10" x1="268.23" y1="284.43" x2="313.11" y2="284.43" xlink:href="#linear-gradient"/><linearGradient id="linear-gradient-11" x1="300.51" y1="310.34" x2="337.3" y2="310.34" xlink:href="#linear-gradient"/><linearGradient id="linear-gradient-12" x1="300.51" y1="315.93" x2="308.12" y2="315.93" xlink:href="#linear-gradient"/></defs><g class="cls-1"><g id="Layer_2" data-name="Layer 2"><g id="Layer_1-2" data-name="Layer 1"><ellipse class="cls-2" cx="215.18" cy="386.71" rx="159.03" ry="20.45"/><path class="cls-3" d="M222.29,368.32v45.8a22.94,22.94,0,0,1-22.95,22.95h-8.07"/><path class="cls-4" d="M314.07,113.24C294.38,88.87,265.12,71.59,233.19,71c-18.48-.32-37.94,2.13-54.43,10.93a123,123,0,0,0-37.36,31.28c-17.63,21.83-27.79,50.3-24.74,78.2,2.55,23.29,14.06,44.65,29.27,62.14,14.83,17,36.46,31.12,40.16,55.21,1.06,6.88-1.48,16.39,3.77,21.89,6.25,6.55,16.39,4.26,24.38,4.2q14.25-.11,28.52-.18c6.81,0,17.71,1.86,22.85-4,5.25-5.5,2.71-15,3.77-21.89,2.79-18.14,16.94-32.85,30-44.67,15-13.57,26.8-29.16,33.47-48.43C345.17,180,337.62,142.39,314.07,113.24Z"/><path class="cls-5" d="M221.8,355.67c0-3.09-.06-6-.17-9.12-.27-7.51-.58-15-.85-22.53q-.51-14.34-1.27-28.67c-.5-9.18-1-18.37-1.75-27.54-.76-9.51-1.52-19.08-3.75-28.38a80,80,0,0,0-6.32-18.18,27.66,27.66,0,0,0-8.09-10,12.36,12.36,0,0,0-8.39-2.46,11.6,11.6,0,0,0-8,4.62c-2.46,3.29-2.49,7.71-1,11.4a22.72,22.72,0,0,0,9.49,10.69,26.3,26.3,0,0,0,14.55,3.5,39.22,39.22,0,0,0,15.41-3.26c9.23-4.22,14.94-14.12,17.26-23.64A42.27,42.27,0,0,0,240,197.44a11.32,11.32,0,0,0-5.79-8.4c-3.15-1.85-7.26-2.35-10.38-.14s-4.51,5.74-4.84,9.32a37.32,37.32,0,0,0,.65,9.89,54.88,54.88,0,0,0,3.28,11.31c2.79,6.73,7.43,14.24,15,16.18A20.82,20.82,0,0,0,245,236a33.48,33.48,0,0,0,9.19-2.18,38.93,38.93,0,0,0,13.74-9.22A36.21,36.21,0,0,0,276.29,212c1.63-4.58,1.29-10.16-3.21-13a11.31,11.31,0,0,0-7.59-1.44,15.55,15.55,0,0,0-7.75,4,38.08,38.08,0,0,0-5.84,6.83,59.27,59.27,0,0,0-4.78,8.09c-5.58,11.38-7.53,23.84-8.15,36.38q-1,20.76-1.66,41.53c-.43,13.32-.74,26.65-1.08,40-.17,6.9-.06,13.81-.28,20.71,0,1.2,1.83,1.2,1.87,0,.22-6.86.74-13.71,1-20.56q.3-9.75.61-19.49c.41-12.69.78-25.38,1.27-38.06q.39-10.09.88-20.17a152.58,152.58,0,0,1,1.65-18.62c2-11.46,6.18-23,13.84-31.89,3.27-3.81,8-7.4,13.26-5.54a6.06,6.06,0,0,1,4,4.41,10.84,10.84,0,0,1-.58,5.9c-1.51,4.37-4.53,8.25-7.7,11.54a35.66,35.66,0,0,1-12.9,8.67,30.62,30.62,0,0,1-8.48,2,17.85,17.85,0,0,1-6.35-.37,16,16,0,0,1-7.67-5.48c-4.61-5.56-7.16-13.13-8.4-20.24a34.83,34.83,0,0,1-.51-9.05c0-.14,0-.29.05-.44s0,.21,0-.17.09-.53.15-.79a10.35,10.35,0,0,1,.55-1.74,8.31,8.31,0,0,1,3.5-4.22,6.2,6.2,0,0,1,4-.5,9.93,9.93,0,0,1,4,1.88,9.13,9.13,0,0,1,2.84,3.44,7.64,7.64,0,0,1,.48,1.68c.14,1.11.21,2.22.24,3.33.26,9.33-2.7,19.33-8.88,26.45a24.59,24.59,0,0,1-11.09,7.49,39,39,0,0,1-14.91,1.75A21.74,21.74,0,0,1,190,231.1c-3-2.57-5.7-6.17-6.18-10.16a8.36,8.36,0,0,1,4-8.35,7.75,7.75,0,0,1,3.08-1.17l.21,0c.2,0-.22,0,0,0l.43,0c.32,0,.63,0,.94,0s.6,0,.9.07c-.28,0,.14,0,.22,0l.51.1a10.44,10.44,0,0,1,3.72,1.66,18.45,18.45,0,0,1,3.71,3.43c3.2,3.77,5.3,8.47,6.92,13.1a109.34,109.34,0,0,1,4.5,17.61c.77,4.56,1.19,9.16,1.62,13.76.76,8.17,1.35,16.35,1.89,24.53.63,9.32,1.13,18.64,1.71,28q.77,12.36,1.38,24.74c.25,5.1.45,10.21.8,15.26.05.69.1,1.39.14,2.08a.63.63,0,0,0,1.25,0Z"/><rect class="cls-6" x="194.88" y="334.52" width="64.43" height="6.36"/><path class="cls-6" d="M263,364.08a3.76,3.76,0,0,1,.12-4.78l.4-.42a3.76,3.76,0,0,0,.16-4.73l-.65-.82a3.73,3.73,0,0,1,.29-4.85,3.75,3.75,0,0,0,.35-4.79l-1.72-2.3a3.33,3.33,0,0,0-2.67-1.33h-64a3.32,3.32,0,0,0-2.66,1.33l-1.73,2.3a3.75,3.75,0,0,0,.35,4.79,3.73,3.73,0,0,1,.3,4.85l-.65.82a3.76,3.76,0,0,0,.16,4.73l.4.42a3.74,3.74,0,0,1,.11,4.78l-.51.61a3.74,3.74,0,0,0,.19,4.85l.26.27a6.89,6.89,0,0,0,4.88,2.12h61.84a6.87,6.87,0,0,0,4.87-2.12l.27-.27a3.74,3.74,0,0,0,.18-4.85Z"/><g class="cls-7"><path class="cls-8" d="M259.8,348.08H230a.61.61,0,1,1,0-1.21H259.8a.61.61,0,0,1,0,1.21Z"/></g><g class="cls-7"><path class="cls-8" d="M216.66,348.08H200.12a.61.61,0,1,1,0-1.21h16.54a.61.61,0,0,1,0,1.21Z"/></g><g class="cls-7"><path class="cls-8" d="M239,355.39H195.79a.61.61,0,0,1,0-1.21H239a.61.61,0,0,1,0,1.21Z"/></g><g class="cls-7"><path class="cls-8" d="M259.91,355.39H247.15a.61.61,0,0,1,0-1.21h12.76a.61.61,0,0,1,0,1.21Z"/></g><g class="cls-7"><path class="cls-8" d="M223.26,362.7H200.12a.61.61,0,1,1,0-1.21h23.14a.61.61,0,0,1,0,1.21Z"/></g><g class="cls-9"><path class="cls-8" d="M247.69,362.7h-9.3a.61.61,0,0,1,0-1.21h9.3a.61.61,0,0,1,0,1.21Z"/></g><g class="cls-9"><path class="cls-8" d="M224.16,348.08h-3.35a.61.61,0,1,1,0-1.21h3.35a.61.61,0,0,1,0,1.21Z"/></g><g class="cls-10"><path class="cls-11" d="M314.07,113.24C294.38,88.88,265.12,71.59,233.19,71c-3.64-.06-7.32,0-11,.17,51.13,3.13,95.42,47.57,93.74,101-1.4,45-23.35,77-68.74,96.66-9.5,4.11-16.31,10.39-17.83,21.27-1.39,10.06,1.78,20.24-.3,30.27a8.51,8.51,0,0,1-1.86,4.19,9.11,9.11,0,0,1-3.73,2.09c-11.18,4-23.22,4.4-34.92,2.21a10.5,10.5,0,0,0,1.32,1.76c6.25,6.55,16.39,4.26,24.38,4.2q14.25-.11,28.52-.18c6.81,0,17.71,1.86,22.85-4,5.25-5.5,2.71-15,3.77-21.89,2.79-18.14,16.94-32.85,30-44.67,15-13.57,26.8-29.16,33.47-48.43C345.17,180,337.62,142.39,314.07,113.24Z"/></g><path class="cls-8" d="M396.28,434.46c0,2.11-14.56,3.82-32.51,3.82s-32.5-1.71-32.5-3.82,14.55-3.82,32.5-3.82S396.28,432.35,396.28,434.46Z"/><g class="cls-12"><path class="cls-13" d="M397,423.16c3.16-5.91,4.12-13.12,1.57-19.46a23.86,23.86,0,0,0-6.7-9.81,26.18,26.18,0,0,0-9.27-4.75,23.16,23.16,0,0,0-17.48,1.65,24.72,24.72,0,0,0-9.8,10.95c-2.12,4.34-3.09,9.78-7.53,12.52-1.26.78-3.35,1.07-4,2.57-.77,1.77.52,3.58,1.2,5.15l2.42,5.6c.57,1.34,1.11,3.65,2.7,4.17s3.18-.72,4.62-1.08c3.81-1,7.89.59,11.3,2.17a25,25,0,0,0,12.34,2.56A22.68,22.68,0,0,0,397,423.16Z"/></g><path class="cls-14" d="M344.6,423.75s12.33-5.77,18.22-8.94a26.39,26.39,0,0,0,5.38-3.56c3.59-3.07,3.3-5.44,1.81-6.33-1.87-1.11-3.94,1-4,3.78a7.78,7.78,0,0,0,2.74,5.2c2.42,1.78,6.2,1.42,8.56,0,1.19-.71,1.58-3.74-1.13-3.62-1.89.09-7.3,4-6.14,7.19a7.19,7.19,0,0,0,3.57,3.89,7.65,7.65,0,0,0,4.87.61c2.76-.84-.19-3.61-1.69-4a16.19,16.19,0,0,0-9.91.81c-7.55,2.75-13.39,5.11-20.88,8"/><rect class="cls-6" x="338.6" y="424.07" width="13.79" height="1.36" transform="translate(601.92 -59) rotate(67.05)"/><path class="cls-6" d="M343.53,433.93a.81.81,0,0,1,1-.38l.12.05a.8.8,0,0,0,.94-.37l.11-.19a.8.8,0,0,1,1-.35.79.79,0,0,0,1-.33l.31-.53a.72.72,0,0,0,0-.64l-5.34-12.61a.74.74,0,0,0-.49-.42l-.59-.15a.82.82,0,0,0-.92.47.81.81,0,0,1-.93.47l-.22-.06a.79.79,0,0,0-.91.42l-.05.12a.82.82,0,0,1-.94.42l-.16-.05a.8.8,0,0,0-.94.44l0,.07a1.5,1.5,0,0,0,0,1.14l5.16,12.18a1.48,1.48,0,0,0,.82.79l.08,0a.8.8,0,0,0,1-.37Z"/><path class="cls-8" d="M346.29,432.31a.31.31,0,0,1-.28-.18l-2.49-5.88a.31.31,0,0,1,.16-.4.3.3,0,0,1,.4.16l2.49,5.88a.32.32,0,0,1-.16.4Z"/><path class="cls-8" d="M342.69,423.81a.29.29,0,0,1-.27-.18L341,420.37a.31.31,0,0,1,.16-.4.3.3,0,0,1,.4.16l1.38,3.26a.31.31,0,0,1-.16.4Z"/><path class="cls-8" d="M343.12,428.83a.31.31,0,0,1-.28-.18l-3.61-8.53a.3.3,0,0,1,.56-.23l3.61,8.52a.32.32,0,0,1-.16.4Z"/><path class="cls-8" d="M344.86,432.94a.31.31,0,0,1-.28-.18l-1.06-2.52a.3.3,0,1,1,.55-.23l1.07,2.51a.32.32,0,0,1-.16.4Z"/><path class="cls-8" d="M340.36,426.33a.31.31,0,0,1-.28-.19l-1.93-4.55a.31.31,0,0,1,.16-.4.3.3,0,0,1,.4.16l1.93,4.56a.29.29,0,0,1-.16.39Z"/><path class="cls-8" d="M342.4,431.14a.31.31,0,0,1-.28-.18l-.77-1.83a.29.29,0,0,1,.16-.4.3.3,0,0,1,.39.16l.78,1.83a.31.31,0,0,1-.16.4A.25.25,0,0,1,342.4,431.14Z"/><path class="cls-8" d="M343.32,425.29a.3.3,0,0,1-.28-.19l-.28-.66a.3.3,0,0,1,.56-.23l.28.66a.3.3,0,0,1-.16.39Z"/><g class="cls-15"><path class="cls-16" d="M397,423.16c3.16-5.91,4.12-13.12,1.57-19.46-.29-.72-.61-1.44-1-2.15,3.65,10.33-1.41,22.77-12.09,26.9-9,3.47-17.12,1.82-24.78-5.49a5.68,5.68,0,0,0-5.68-1.73c-2.09.56-3.84,2-6,2.46a1.81,1.81,0,0,1-1,0,2.16,2.16,0,0,1-.72-.56,14.42,14.42,0,0,1-3.35-6.7,2.06,2.06,0,0,0-.23.41c-.77,1.77.52,3.58,1.2,5.15l2.42,5.6c.57,1.34,1.11,3.65,2.7,4.17s3.18-.72,4.62-1.08c3.81-1,7.89.59,11.3,2.17a25,25,0,0,0,12.34,2.56A22.68,22.68,0,0,0,397,423.16Z"/></g><path class="cls-17" d="M153.77,133.55c-9.35,12.52-18.23,28.15-18,56.8"/><path class="cls-17" d="M179.4,107.15a19.66,19.66,0,0,0-4.73,4.4"/><path class="cls-8" d="M200.87,466.79c0,4.33-19.3,7.85-43.11,7.85s-43.12-3.52-43.12-7.85,19.31-7.85,43.12-7.85S200.87,462.45,200.87,466.79Z"/><path class="cls-6" d="M186.21,448.69H148.56l18.78-6.12h38.18l-.14.4-18.15,5.56A3.2,3.2,0,0,1,186.21,448.69Z"/><path class="cls-18" d="M185.71,448.05h-36.8l18.43-5.48h37.33l-17.94,5.32A3.24,3.24,0,0,1,185.71,448.05Z"/><path class="cls-19" d="M182.71,447.13H158.29l12.23-3.64h24.77L183.38,447A2.14,2.14,0,0,1,182.71,447.13Z"/><path class="cls-6" d="M205.52,442.57H167.34l4.82-21.11a1.78,1.78,0,0,1,1.74-1.17h34.42a1.65,1.65,0,0,1,1.72,2.07Z"/><path class="cls-6" d="M204.67,442.57H167.34l4.82-21.11a1.78,1.78,0,0,1,1.74-1.17h33.56a1.65,1.65,0,0,1,1.72,2.07Z"/><path class="cls-20" d="M203,441.25H169.34l4.33-19.64h33.68Z"/><polyline class="cls-21" points="199.4 437.71 199.18 438.68 198.18 438.68"/><line class="cls-22" x1="195.89" y1="438.68" x2="176.46" y2="438.68"/><polyline class="cls-21" points="175.31 438.68 174.31 438.68 174.53 437.71"/><path class="cls-23" d="M175.06,435.31l2.45-11.13h22.65"/><polyline class="cls-21" points="201.38 424.17 202.38 424.17 202.17 425.15"/><line class="cls-24" x1="201.56" y1="427.88" x2="199.7" y2="436.34"/><line class="cls-25" x1="158.29" y1="446.13" x2="188.92" y2="446.13"/><line class="cls-26" x1="163.93" y1="444.56" x2="194.56" y2="444.56"/><path class="cls-27" d="M155.11,444.18c1.28-1.06,3.54-1.31,5.18-1.54a27.61,27.61,0,0,1,5-.07c1,.05.72,1.16-.11,1.3a9.72,9.72,0,0,1-2.85,0,4.53,4.53,0,0,1-2.51,1.67,10.33,10.33,0,0,1-3,.29c-.29,0-.65-.08-.71-.36"/><path class="cls-28" d="M178.83,424.15a1.09,1.09,0,1,1-1.09-1.08A1.08,1.08,0,0,1,178.83,424.15Z"/><path class="cls-28" d="M175.4,438.68a1.09,1.09,0,1,1-1.09-1.08A1.09,1.09,0,0,1,175.4,438.68Z"/><circle class="cls-28" cx="199.01" cy="438.68" r="1.08"/><path class="cls-28" d="M203.17,424.15a1.08,1.08,0,1,1-1.08-1.08A1.08,1.08,0,0,1,203.17,424.15Z"/><path class="cls-29" d="M127.13,446.85c-.76,2.64-.6,4.77-1.1,7.48-.74,4-1,8.67,1.68,11.74a7.91,7.91,0,0,0,6.65,3.1c2.5,0,5-.4,7.49-.47,1.67-.05,6.81.41,8.49.48,7.48.29,11.72-1.36,19.12-2.27A178.71,178.71,0,0,0,188.92,463c19.16-5.25,12.22-13,8-14.21-.92-.27-5.09-1.66-5.09-1.66l-5.6,1.56h-19.6s-8.18-.38-11.68-1.19"/><path class="cls-27" d="M183,436.27a10.63,10.63,0,0,1,1.18.8,14.39,14.39,0,0,0,2.67,1.31l2.68,1.09a1.44,1.44,0,0,1,.53.29,1.58,1.58,0,0,1,.32.8c.56,2.81,1.11,5.73.36,8.7a11.27,11.27,0,0,1-1.57-3.14,3.57,3.57,0,0,0-.74-1.54,4.17,4.17,0,0,0-.86-.54,9.22,9.22,0,0,1-2.37-2.25,1.51,1.51,0,0,1-.39-.71.88.88,0,0,0-.05-.29.64.64,0,0,0-.21-.19l-3.31-2.13"/><path class="cls-30" d="M130.37,446.85c-1.55-1.14-3.23-2.42-4.82-3.75-3.64-3.06-6.89-6.37-7.29-8.79-.89-5.41-.19-21.5.24-29.1,0-.46,0-.89.06-1.29.44-7.18,4.29-10.35,6.22-11.52,1,9.33,3.21,30.39,3.39,31.47C128.41,425.26,130.37,446.85,130.37,446.85Z"/><path class="cls-27" d="M134.06,388.22s1.27-4.3.71-7.47-2.46-8.89-1.74-13.18,6.11-7.86,11.82-7.3,7.39,6,8.34,9.21.79,8,.55,10.63a7.31,7.31,0,0,1-2.62,5.24c-1,.56-4.53-.18-5.16.51s-1.11,4.73-1.11,4.73"/><path class="cls-31" d="M131.36,391.62s.32-2.51,1.27-3.4,7.3-.89,9.21-.65a29.44,29.44,0,0,1,7.22,2.89c.62.47-.6,2.88-.6,2.88Z"/><path class="cls-6" d="M134.3,382.81s7.93.67,9.44,0,3.69-2.14,3.89-4.84-.36-3.53.68-5,1.94-1,2.1.43.22,4,.6,4.2,1.1-1.56.91-4.31a17.21,17.21,0,0,0-1.15-5.84c-.72-1.59-1.1-1.5-1.75-1.78.7-.34,1.45-.38,2.82-2.52,1.59-2.48.71-6.35-3.49-6.33-7.35,0-15.16,1.46-15.32,6.9,0,0-2.58-.4-2.66,4.57s3.09,10.95,3.33,12.5S133.5,382.45,134.3,382.81Z"/><path class="cls-32" d="M156.36,441.13c.29,2.48,2.47,6.33,1,6.87a28.15,28.15,0,0,1-6-.18h-.09l-.14,0c-2.63-.22-5.65-.51-8.17-.7-10.1-.43-15.25,1.58-16.26,1-.49-.29-.5-1.17-.35-2.07a23.44,23.44,0,0,0,.17-6.69c-.25-1.87-.6-4.11-1.08-6.66-1.67-8.85-4.93-22.35-5.42-30.48-.77-12.73,12.86-11.52,12.86-11.52,17.35-1.08,25.5,3.92,26.44,11.37.07.53.12,1.1.16,1.69.44,7.7-1.9,20.11-3,29.38A47.57,47.57,0,0,0,156.36,441.13Z"/><path class="cls-33" d="M156.36,441.13c.29,2.48,2.47,6.33,1,6.87a28.15,28.15,0,0,1-6-.18c2.68.19,3.18-1.86,2.58-3.24a19.55,19.55,0,0,1-1.72-8.21c.12-3.7,1.51-12,2.33-19.9a63.57,63.57,0,0,0,0-13.8c.42.83,1.61,2,5,2.78.07,7.73-2,19.06-3.07,27.68A47.57,47.57,0,0,0,156.36,441.13Z"/><path class="cls-34" d="M147.82,392.4s8-.64,11.46,2.3c2.79,2.35,8.16,32,8.16,32L160,429.8s-8.09-20.29-10.2-20"/><path class="cls-35" d="M159.72,429.06c2.52,8,23.12,11,23.12,11l1.15-3.66s-12.58-9.37-17.12-10.64"/><path class="cls-36" d="M186.31,448.93c.94.05,1.88.12,2.81.19.47,0,.94.07,1.4.12a6,6,0,0,0,1.33.1c.13,0,.1-.21,0-.24a5.37,5.37,0,0,0-1.33-.14l-1.4-.1c-.93-.07-1.87-.12-2.81-.17-.15,0-.15.23,0,.24Z"/><path class="cls-36" d="M181.5,464.41c-6.83-.33-13.58,1.29-20.34,2.29S147.22,468,141,465.21a2.54,2.54,0,0,0-3.37.39,10.13,10.13,0,0,1-3.69,1.79c-1.9.4-2.45-.08-4.37-.4a.89.89,0,0,0-.56,0c-.05,0-.05.08-.08.12a8,8,0,0,0,5.45,2c2.5,0,5-.4,7.49-.47,1.67-.05,6.81.41,8.49.48,7.48.29,11.72-1.36,19.12-2.27,3.07-.38,7.65-1.22,11.91-2.13A.91.91,0,0,0,181.5,464.41Z"/><path class="cls-13" d="M288.81,254.65,257.12,272.9a.87.87,0,0,1-1.2-.32l-2.52-4.37a.88.88,0,0,1,.32-1.2l31.7-18.26a.88.88,0,0,1,1.2.33l2.51,4.36A.89.89,0,0,1,288.81,254.65Z"/><g class="cls-37"><g class="cls-38"><path class="cls-39" d="M284.72,251a.16.16,0,0,1-.21-.06l-.7-1.21.26-.15.7,1.21A.16.16,0,0,1,284.72,251Z"/><path class="cls-39" d="M283.75,250.49a.08.08,0,0,1-.1,0l-.3-.53.13-.07.3.52A.07.07,0,0,1,283.75,250.49Z"/></g><g class="cls-38"><path class="cls-39" d="M283.6,251.59a.15.15,0,0,1-.2-.06l-.7-1.21.26-.15.7,1.21A.15.15,0,0,1,283.6,251.59Z"/><path class="cls-39" d="M282.64,251.13a.09.09,0,0,1-.11,0l-.3-.53.13-.07.3.52A.08.08,0,0,1,282.64,251.13Z"/></g><g class="cls-38"><path class="cls-39" d="M282.49,252.23a.16.16,0,0,1-.21,0l-.7-1.22.27-.15.7,1.21A.16.16,0,0,1,282.49,252.23Z"/><path class="cls-39" d="M281.53,251.77a.09.09,0,0,1-.11,0l-.3-.53.13-.07.3.52A.08.08,0,0,1,281.53,251.77Z"/></g><g class="cls-38"><path class="cls-39" d="M281.38,252.87a.15.15,0,0,1-.21-.06l-.7-1.21.26-.15.7,1.22A.14.14,0,0,1,281.38,252.87Z"/><path class="cls-39" d="M280.41,252.41a.08.08,0,0,1-.1,0l-.3-.53.13-.07.3.52A.07.07,0,0,1,280.41,252.41Z"/></g><g class="cls-38"><path class="cls-39" d="M280.27,253.51a.15.15,0,0,1-.21-.06l-.7-1.21.26-.15.7,1.22A.15.15,0,0,1,280.27,253.51Z"/><path class="cls-39" d="M279.3,253.05a.08.08,0,0,1-.1,0l-.3-.53.13-.07.3.52A.07.07,0,0,1,279.3,253.05Z"/></g><g class="cls-38"><path class="cls-39" d="M279.16,254.15a.15.15,0,0,1-.21-.06l-.7-1.21.26-.15.7,1.21A.16.16,0,0,1,279.16,254.15Z"/><path class="cls-39" d="M278.19,253.69a.07.07,0,0,1-.1,0l-.3-.52.13-.08.3.53A.07.07,0,0,1,278.19,253.69Z"/></g><g class="cls-38"><path class="cls-39" d="M278.05,254.79a.16.16,0,0,1-.21,0l-.7-1.22.26-.15.7,1.21A.17.17,0,0,1,278.05,254.79Z"/><path class="cls-39" d="M277.08,254.33a.07.07,0,0,1-.1,0l-.3-.52.13-.08.3.53A.07.07,0,0,1,277.08,254.33Z"/></g><g class="cls-38"><path class="cls-39" d="M276.93,255.43a.15.15,0,0,1-.2-.05l-.7-1.22.26-.15.7,1.22A.15.15,0,0,1,276.93,255.43Z"/><path class="cls-39" d="M276,255a.08.08,0,0,1-.1,0l-.31-.52.13-.08.31.53S276,255,276,255Z"/></g><g class="cls-38"><path class="cls-39" d="M275.82,256.07a.15.15,0,0,1-.2-.05l-.7-1.22.26-.15.7,1.22A.15.15,0,0,1,275.82,256.07Z"/><path class="cls-39" d="M274.85,255.62a.07.07,0,0,1-.09,0l-.31-.52.13-.08.31.53S274.89,255.59,274.85,255.62Z"/></g><g class="cls-38"><path class="cls-39" d="M274.71,256.71a.15.15,0,0,1-.2,0l-.71-1.22.26-.15.71,1.22A.15.15,0,0,1,274.71,256.71Z"/><path class="cls-39" d="M273.74,256.26a.07.07,0,0,1-.1,0l-.3-.52.13-.08.3.53A.07.07,0,0,1,273.74,256.26Z"/></g><g class="cls-38"><path class="cls-39" d="M273.6,257.35a.16.16,0,0,1-.21-.05l-.7-1.22.26-.15.7,1.22A.14.14,0,0,1,273.6,257.35Z"/><path class="cls-39" d="M272.63,256.9a.07.07,0,0,1-.1,0l-.3-.52.13-.08.3.53A.07.07,0,0,1,272.63,256.9Z"/></g><g class="cls-38"><path class="cls-39" d="M272.48,258a.14.14,0,0,1-.2-.05l-.7-1.22.26-.15.7,1.22A.14.14,0,0,1,272.48,258Z"/><path class="cls-39" d="M271.52,257.54a.07.07,0,0,1-.1,0l-.3-.52.13-.08.3.53A.07.07,0,0,1,271.52,257.54Z"/></g><g class="cls-38"><path class="cls-39" d="M271.37,258.63a.14.14,0,0,1-.2-.05l-.7-1.22.26-.15.7,1.22A.14.14,0,0,1,271.37,258.63Z"/><path class="cls-39" d="M270.41,258.18a.07.07,0,0,1-.1,0l-.3-.52.13-.08.3.53A.07.07,0,0,1,270.41,258.18Z"/></g><g class="cls-38"><path class="cls-39" d="M270.26,259.27a.14.14,0,0,1-.2,0l-.7-1.22.26-.15.7,1.22A.14.14,0,0,1,270.26,259.27Z"/><path class="cls-39" d="M269.3,258.82a.08.08,0,0,1-.11,0l-.3-.52.13-.07.3.52A.08.08,0,0,1,269.3,258.82Z"/></g><g class="cls-38"><path class="cls-39" d="M269.15,259.91a.16.16,0,0,1-.21-.05l-.7-1.22.27-.15.7,1.22A.15.15,0,0,1,269.15,259.91Z"/><path class="cls-39" d="M268.19,259.46a.08.08,0,0,1-.11,0l-.3-.52.13-.07.3.52A.08.08,0,0,1,268.19,259.46Z"/></g><g class="cls-38"><path class="cls-39" d="M268,260.56a.16.16,0,0,1-.21-.06l-.7-1.22.26-.15.7,1.22A.16.16,0,0,1,268,260.56Z"/><path class="cls-39" d="M267.07,260.1a.07.07,0,0,1-.1,0l-.3-.52.13-.07.3.52A.07.07,0,0,1,267.07,260.1Z"/></g><g class="cls-38"><path class="cls-39" d="M266.93,261.2a.16.16,0,0,1-.21-.06l-.7-1.22.26-.15L267,261A.16.16,0,0,1,266.93,261.2Z"/><path class="cls-39" d="M266,260.74a.07.07,0,0,1-.1,0l-.3-.52.13-.07.3.52A.07.07,0,0,1,266,260.74Z"/></g><g class="cls-38"><path class="cls-39" d="M265.82,261.84a.16.16,0,0,1-.21-.06l-.7-1.22.26-.15.7,1.22A.16.16,0,0,1,265.82,261.84Z"/><path class="cls-39" d="M264.85,261.38a.08.08,0,0,1-.1,0l-.31-.53.13-.07.31.52A.08.08,0,0,1,264.85,261.38Z"/></g><g class="cls-38"><path class="cls-39" d="M264.71,262.48a.15.15,0,0,1-.21-.06l-.71-1.21.27-.16.7,1.22A.17.17,0,0,1,264.71,262.48Z"/><path class="cls-39" d="M263.74,262s-.09,0-.1,0l-.31-.53.13-.07.31.52A.09.09,0,0,1,263.74,262Z"/></g><g class="cls-38"><path class="cls-39" d="M263.59,263.12a.15.15,0,0,1-.2-.06l-.71-1.21.26-.15.7,1.21A.15.15,0,0,1,263.59,263.12Z"/><path class="cls-39" d="M262.62,262.66a.08.08,0,0,1-.1,0l-.3-.53.13-.07.3.52A.07.07,0,0,1,262.62,262.66Z"/></g><g class="cls-38"><path class="cls-39" d="M262.48,263.76a.16.16,0,0,1-.21-.06l-.7-1.21.26-.15.7,1.21A.15.15,0,0,1,262.48,263.76Z"/><path class="cls-39" d="M261.51,263.3a.08.08,0,0,1-.1,0l-.3-.53.13-.07.3.52A.07.07,0,0,1,261.51,263.3Z"/></g><g class="cls-38"><path class="cls-39" d="M261.37,264.4a.16.16,0,0,1-.21-.06l-.7-1.21.26-.15.7,1.21A.15.15,0,0,1,261.37,264.4Z"/><path class="cls-39" d="M260.4,263.94a.08.08,0,0,1-.1,0l-.3-.53.13-.07.3.52A.07.07,0,0,1,260.4,263.94Z"/></g><g class="cls-38"><path class="cls-39" d="M260.26,265a.15.15,0,0,1-.21-.06l-.7-1.21.26-.15.7,1.21A.16.16,0,0,1,260.26,265Z"/><path class="cls-39" d="M259.29,264.58a.08.08,0,0,1-.1,0l-.3-.53L259,264l.3.52A.07.07,0,0,1,259.29,264.58Z"/></g><g class="cls-38"><path class="cls-39" d="M259.14,265.68a.14.14,0,0,1-.2-.06l-.7-1.21.26-.15.7,1.22A.15.15,0,0,1,259.14,265.68Z"/><path class="cls-39" d="M258.18,265.22a.08.08,0,0,1-.1,0l-.3-.53.13-.07.3.52A.08.08,0,0,1,258.18,265.22Z"/></g><g class="cls-38"><path class="cls-39" d="M258,266.32a.14.14,0,0,1-.2-.06l-.7-1.21.26-.15.7,1.22A.15.15,0,0,1,258,266.32Z"/><path class="cls-39" d="M257.07,265.86a.08.08,0,0,1-.1,0l-.3-.53.12-.07.31.52A.08.08,0,0,1,257.07,265.86Z"/></g><g class="cls-38"><path class="cls-39" d="M256.92,267a.14.14,0,0,1-.2-.06l-.7-1.21.26-.15.7,1.21A.16.16,0,0,1,256.92,267Z"/><path class="cls-39" d="M256,266.5a.07.07,0,0,1-.1,0l-.3-.52.13-.08.3.53A.06.06,0,0,1,256,266.5Z"/></g></g><path class="cls-8" d="M343.32,443.82c0,2.57-13.87,4.66-31,4.66s-31-2.09-31-4.66,13.87-4.66,31-4.66S343.32,441.24,343.32,443.82Z"/><path class="cls-27" d="M320.34,433.92s.1,4.27.18,5.36,3.54,1.16,4,.6.6-5.56.6-5.56"/><path class="cls-40" d="M325.38,440.84a23.59,23.59,0,0,1-.31,3h-4l-.2-.67a6.22,6.22,0,0,1-2.31.67H315.2c-2.46,0-3.86-.32-3.93-.75-.26-1.81,2.69-1.73,3.46-1.73,2.2,0,4.58-1,5.1-2.15.38-.81.21-1,.67-.86a1.09,1.09,0,0,1,.68.59,2,2,0,0,0,2.08,1.13,2.38,2.38,0,0,0,1.35-.65A1.47,1.47,0,0,1,325.38,440.84Z"/><path class="cls-27" d="M306.33,432.78a32.34,32.34,0,0,0,1.22,3.9c.48,1,3.72-.23,3.89-.9s-1.5-5.39-1.5-5.39"/><path class="cls-40" d="M312.64,436.33c.42,1.05,1,3.09,1,3.09l-3,1.8-.59-.44a6,6,0,0,1-1.59,1.66,13.1,13.1,0,0,1-3,1.24c-2.76.63-4.9.33-5.11-.05-.92-1.59,2.74-2.46,3.46-2.75a4.94,4.94,0,0,0,3.05-4c.05-.89-.18-1,.3-1.05a1.13,1.13,0,0,1,.85.3,2,2,0,0,0,2.35.28,2.34,2.34,0,0,0,1-1.1A1.44,1.44,0,0,1,312.64,436.33Z"/><path class="cls-41" d="M327.64,335.89c1.43-1.05,3-2.24,4.48-3.48,3.38-2.84,6.41-5.93,6.78-8.18.83-5,.18-20-.22-27.07,0-.42,0-.83-.06-1.2-.4-6.68-4-9.63-5.79-10.72-.92,8.68-3,28.27-3.15,29.28C329.46,315.81,327.64,335.89,327.64,335.89Z"/><path class="cls-42" d="M327.64,335.89c1.43-1.05,3-2.24,4.48-3.48.12-5.52,1.77-13.23,4.08-22.88,2.74-12.16,1-14.4,1-14.4l-5.52.84c-.91,8.59-1.91,17.87-2,18.55C329.46,315.81,327.64,335.89,327.64,335.89Z"/><path class="cls-43" d="M314.38,381.59a133.79,133.79,0,0,0,1.71,17c.74,3.76,12.57,4.46,11.05,1.56-2.2-4.22,1.63-17.42,3.51-39.93.27-3.41,1.8-3.8,2.82-10.81s-2.85-13.11-2.85-13.11l-16.42-1.52L314,355.19l-.07,6.91S313.89,371.59,314.38,381.59Z"/><path class="cls-43" d="M325.69,397.48s3.21,3.93,2.76,11.15-3,28.75-3,28.75-3.76.56-5.71-.16c0,0-4.06-39.94-4.07-44.48S325.69,397.48,325.69,397.48Z"/><path class="cls-29" d="M314.38,381.59a127.54,127.54,0,0,1,4.77-13.28,25.62,25.62,0,0,1,4.65-7.2c8.33-8.74,2.61-20.05,2.61-20.05s-6.79,5.62-7.26,6.21-3.16,5.31-5.16,7.92l-.07,6.91S313.89,371.59,314.38,381.59Z"/><path class="cls-29" d="M294.92,378.89s-3.73,12.25-3.13,16.09S306,434.74,306,434.74a13.63,13.63,0,0,0,5.46-1.35s-.29-15.81-3-25.71-5.78-15.95-8.43-16.83S295.66,381,294.92,378.89Z"/><path class="cls-29" d="M307,386.17s-4,6.43-1.55,12.2-4.16,4.81-4.16,4.81-3.33-9.67-2.59-10.93,3.47-5.46,4.36-5.68A36.54,36.54,0,0,1,307,386.17Z"/><path class="cls-29" d="M302.88,335.06s-8.64,40-9.77,50.76c-.47,4.57,4.33,12.11,8.76,8,5.29-4.93,13.85-27.5,16.51-31.49s12.6-7.64,5.81-27.87"/><path class="cls-27" d="M324.2,281.36a18.68,18.68,0,0,1-.66-7c.51-2.95,2.29-8.27,1.62-12.26s-5.68-7.31-11-6.79-6.87,5.61-7.75,8.56-.74,7.46-.52,9.9a6.79,6.79,0,0,0,2.44,4.87c.88.52,4.22-.16,4.8.47s1,4.41,1,4.41"/><path class="cls-44" d="M326.71,284.52s-.29-2.34-1.18-3.16-6.79-.83-8.56-.61a26.9,26.9,0,0,0-6.72,2.69c-.58.43.56,2.67.56,2.67Z"/><path class="cls-27" d="M265,261.34c0-.41.59-.22.73.13a1.88,1.88,0,0,1,.08.3c-.06-.69-.09-1.26-.08-1.39,0-.4.54-.26.72.05a3.81,3.81,0,0,1,0-.57c0-.51.58-.3.72.12a4.4,4.4,0,0,1,.13.7,2.43,2.43,0,0,1,0-.39c0-.41.52-.31.66,0a4.22,4.22,0,0,1,.15.82c.07.42.19.87.25,1.29a9,9,0,0,0,.27,1.2,5.37,5.37,0,0,0,1.94,1.5l1.15-.63a15.16,15.16,0,0,1,.28,2.67c-.08.62-.53,1.4-.48,1.77a8.63,8.63,0,0,0,.48,1.37l-3.18,1.32a8,8,0,0,0-.85-2.34,25.77,25.77,0,0,1-2.17-2.61,13.73,13.73,0,0,1-.48-1.57l-.22-1.19-.1-1.15S265,261.48,265,261.34Z"/><path class="cls-45" d="M268.23,270.92s1.07,6.21,2.13,11.18a48.09,48.09,0,0,0,3.71,11.46s0,.06,0,.09c1.05,2.27,3,5.05,4.33,5.33a39.55,39.55,0,0,0,6,0c2.89.16,10.17-.79,16.35-1.62l.29,0c2.88-.38,5.51-.73,7.32-.93a3.75,3.75,0,0,0,2.23-1,3.39,3.39,0,0,0,1.09-1.87v0c.41-2-.9-3.6-2.61-4.78-.07-.06-.17-.1-.24-.15,2.1-2.1,4.26-4.38,4.26-4.38s-5.94.28-9.26.5c-2.26.16-17.68,4.28-19.53,4.86l-.4.14-.58.1-.36.12a18.9,18.9,0,0,0-2.25-4.22c-3.31-4.65-8.68-15.91-8.68-15.91l-3,.89H269Z"/><path class="cls-46" d="M324,276.32s-7.38.63-8.79,0-3.43-2-3.61-4.5.33-3.29-.63-4.69-1.81-.93-2,.4-.21,3.73-.55,3.91-1-1.45-.85-4a15.64,15.64,0,0,1,1.07-5.43c.66-1.47,1-1.39,1.62-1.66-.64-.31-1.34-.35-2.62-2.34-1.48-2.31-.66-5.9,3.25-5.89,6.84,0,14.1,1.37,14.25,6.42,0,0,2.4-.37,2.48,4.25s-2.88,10.19-3.11,11.63S324.72,276,324,276.32Z"/><path class="cls-47" d="M303.46,330.57c-.27,2.32-2.3,5.89-.92,6.4a26.92,26.92,0,0,0,5.58-.17h.21c2.45-.21,5.25-.48,7.6-.66,9.39-.4,14.18,1.47,15.13.94.45-.27.46-1.08.32-1.92a21.69,21.69,0,0,1-.15-6.23c.23-1.74.55-3.82,1-6.2,1.55-8.23,4.59-20.79,5-28.35.72-11.84-12-10.72-12-10.72-16.14-1-23.73,3.64-24.6,10.58-.07.49-.11,1-.15,1.58-.41,7.15,1.77,18.7,2.81,27.32A44.11,44.11,0,0,1,303.46,330.57Z"/><path class="cls-48" d="M303.46,330.57c-.27,2.32-2.3,5.89-.92,6.4a26.92,26.92,0,0,0,5.58-.17c-2.49.18-3-1.73-2.4-3a18.41,18.41,0,0,0,1.6-7.65c-.12-3.43-1.41-11.18-2.17-18.5a59.78,59.78,0,0,1,0-12.84c-.39.77-1.5,1.86-4.63,2.58-.06,7.19,1.9,17.73,2.86,25.75A44.11,44.11,0,0,1,303.46,330.57Z"/><line class="cls-49" x1="227.41" y1="1.49" x2="227.41" y2="50.67"/><line class="cls-49" x1="288.5" y1="15.59" x2="262.66" y2="57.43"/><line class="cls-49" x1="166.31" y1="15.59" x2="192.15" y2="57.43"/><path class="cls-8" d="M4.84,439.06c0,2.74,18.93,5,42.28,5s42.27-2.22,42.27-5-18.93-5-42.27-5S4.84,436.31,4.84,439.06Z"/><g class="cls-12"><path class="cls-13" d="M3.94,424.35c-4.11-7.68-5.36-17.06-2-25.3,1.92-4.77,4.66-9.49,8.71-12.76a34.22,34.22,0,0,1,12.06-6.18c7.51-2.15,15.91-1.67,22.73,2.14,5.69,3.18,9.91,8.45,12.74,14.25,2.76,5.65,4,12.71,9.79,16.28,1.65,1,4.36,1.4,5.2,3.34,1,2.31-.68,4.66-1.56,6.7q-1.57,3.65-3.14,7.29c-.75,1.74-1.45,4.74-3.51,5.42s-4.14-.94-6-1.41c-4.95-1.26-10.26.78-14.7,2.83a32.5,32.5,0,0,1-16,3.32A29.47,29.47,0,0,1,3.94,424.35Z"/></g><path class="cls-14" d="M72.05,425.12s-16-7.5-23.7-11.63a34.47,34.47,0,0,1-7-4.62c-4.67-4-4.29-7.08-2.36-8.23,2.44-1.45,5.13,1.28,5.17,4.91a10.15,10.15,0,0,1-3.57,6.76c-3.14,2.32-8.06,1.85-11.13,0-1.54-.91-2-4.86,1.47-4.7,2.46.11,9.5,5.16,8,9.36a9.43,9.43,0,0,1-4.64,5.05,10.05,10.05,0,0,1-6.34.8c-3.59-1.09.25-4.69,2.19-5.23,4.31-1.2,8.79-.45,12.9,1.05,9.81,3.58,17.41,6.65,27.15,10.41"/><rect class="cls-6" x="61.93" y="425.54" width="17.93" height="1.77" transform="translate(491.21 527.39) rotate(112.95)"/><path class="cls-6" d="M73.45,438.36a1.06,1.06,0,0,0-1.24-.49l-.15.06a1,1,0,0,1-1.23-.47l-.14-.26a1,1,0,0,0-1.28-.45,1,1,0,0,1-1.26-.43l-.4-.69a.93.93,0,0,1-.06-.83l7-16.41a.92.92,0,0,1,.63-.54l.78-.19a1,1,0,0,1,1.19.61,1,1,0,0,0,1.21.6l.28-.07a1,1,0,0,1,1.19.55l.07.15a1,1,0,0,0,1.21.55l.21-.07a1,1,0,0,1,1.22.57l0,.1a1.9,1.9,0,0,1,0,1.48L76,438a2,2,0,0,1-1.07,1l-.1,0a1,1,0,0,1-1.26-.48Z"/><path class="cls-8" d="M69.85,436.25a.39.39,0,0,0,.36-.24l3.24-7.64a.4.4,0,0,0-.21-.52.39.39,0,0,0-.51.21l-3.24,7.65a.38.38,0,0,0,.21.51Z"/><path class="cls-8" d="M74.53,425.2a.39.39,0,0,0,.36-.24l1.8-4.24a.39.39,0,0,0-.21-.51.4.4,0,0,0-.52.2l-1.79,4.24a.4.4,0,0,0,.21.52Z"/><path class="cls-8" d="M74,431.73a.4.4,0,0,0,.36-.24L79,420.41a.4.4,0,0,0-.21-.52.39.39,0,0,0-.51.21l-4.7,11.08a.4.4,0,0,0,.21.52A.41.41,0,0,0,74,431.73Z"/><path class="cls-8" d="M71.71,437.07a.4.4,0,0,0,.36-.23l1.39-3.27a.4.4,0,0,0-.21-.52.4.4,0,0,0-.52.21l-1.38,3.27a.39.39,0,0,0,.21.51A.27.27,0,0,0,71.71,437.07Z"/><path class="cls-8" d="M77.56,428.48a.41.41,0,0,0,.36-.24l2.51-5.93a.39.39,0,1,0-.72-.31l-2.51,5.93a.38.38,0,0,0,.21.51A.28.28,0,0,0,77.56,428.48Z"/><path class="cls-8" d="M74.91,434.74a.39.39,0,0,0,.36-.24l1-2.39a.39.39,0,1,0-.72-.3l-1,2.38a.4.4,0,0,0,.21.52A.4.4,0,0,0,74.91,434.74Z"/><path class="cls-8" d="M73.72,427.12a.39.39,0,0,0,.36-.24l.36-.86a.39.39,0,1,0-.72-.3l-.36.85a.39.39,0,0,0,.2.52A.45.45,0,0,0,73.72,427.12Z"/><g class="cls-15"><path class="cls-16" d="M3.94,424.35c-4.11-7.68-5.36-17.06-2-25.3.38-.94.79-1.88,1.24-2.8-4.75,13.44,1.83,29.61,15.72,35,11.67,4.52,22.26,2.37,32.22-7.13,2.09-2,4.43-3.05,7.39-2.26,2.73.73,5,2.65,7.79,3.21a2.28,2.28,0,0,0,1.27,0,2.55,2.55,0,0,0,.94-.72,18.78,18.78,0,0,0,4.36-8.71,2.71,2.71,0,0,1,.3.53c1,2.31-.68,4.66-1.56,6.7q-1.57,3.65-3.14,7.29c-.75,1.74-1.45,4.74-3.51,5.42s-4.14-.94-6-1.41c-4.95-1.26-10.26.78-14.7,2.83a32.5,32.5,0,0,1-16,3.32A29.47,29.47,0,0,1,3.94,424.35Z"/></g></g></g></g></svg>