<svg xmlns="http://www.w3.org/2000/svg" xmlns:xlink="http://www.w3.org/1999/xlink" viewBox="0 0 654.28 494.43"><defs><style>.cls-1,.cls-13{fill:#e4e4e8;}.cls-2{isolation:isolate;}.cls-3,.cls-39,.cls-5{fill:#fff;}.cls-3{opacity:0.2;}.cls-4{fill:url(#linear-gradient);}.cls-10,.cls-5,.cls-9{opacity:0.7;}.cls-10,.cls-110,.cls-14,.cls-57,.cls-6,.cls-71{fill:#c4c6d0;}.cls-7{fill:#efeff4;}.cls-8{fill:url(#linear-gradient-2);}.cls-11{clip-path:url(#clip-path);}.cls-104,.cls-12{opacity:0.8;}.cls-101,.cls-105,.cls-106,.cls-109,.cls-128,.cls-13,.cls-71,.cls-85,.cls-88{opacity:0.4;}.cls-105,.cls-106,.cls-107,.cls-109,.cls-110,.cls-112,.cls-115,.cls-118,.cls-121,.cls-124,.cls-127,.cls-128,.cls-129,.cls-130,.cls-132,.cls-14,.cls-16,.cls-20,.cls-24,.cls-27,.cls-30,.cls-32,.cls-34,.cls-35,.cls-49,.cls-52,.cls-57,.cls-59,.cls-62,.cls-65,.cls-68,.cls-70,.cls-73,.cls-76,.cls-79,.cls-81,.cls-85,.cls-88,.cls-90,.cls-93,.cls-96,.cls-99{mix-blend-mode:multiply;}.cls-14{opacity:0.6;}.cls-15,.cls-16{fill:url(#linear-gradient-3);}.cls-17,.cls-18{fill:url(#linear-gradient-5);}.cls-18,.cls-22,.cls-38{mix-blend-mode:screen;}.cls-19,.cls-20{fill:url(#linear-gradient-7);}.cls-21{fill:url(#linear-gradient-9);}.cls-23,.cls-24{fill:url(#linear-gradient-11);}.cls-25{fill:url(#linear-gradient-13);}.cls-26,.cls-27{fill:url(#linear-gradient-15);}.cls-28{fill:url(#linear-gradient-17);}.cls-29,.cls-30{fill:url(#linear-gradient-19);}.cls-31{fill:url(#linear-gradient-21);}.cls-32,.cls-35{opacity:0.13;}.cls-33,.cls-34,.cls-35,.cls-49{fill:#0c3089;}.cls-34{opacity:0.9;}.cls-36{fill:url(#linear-gradient-23);}.cls-37{fill:url(#linear-gradient-24);}.cls-38{fill:url(#linear-gradient-25);}.cls-40{fill:url(#linear-gradient-26);}.cls-41{fill:url(#linear-gradient-27);}.cls-42,.cls-43,.cls-44,.cls-45,.cls-46,.cls-47{fill:none;stroke-miterlimit:10;stroke-width:0.29px;}.cls-42{stroke:url(#linear-gradient-28);}.cls-43{stroke:url(#linear-gradient-29);}.cls-44{stroke:url(#linear-gradient-30);}.cls-45{stroke:url(#linear-gradient-31);}.cls-46{stroke:url(#linear-gradient-32);}.cls-47{stroke:url(#linear-gradient-33);}.cls-48{fill:url(#linear-gradient-34);}.cls-49{opacity:0.14;}.cls-107,.cls-130,.cls-50,.cls-90{opacity:0.3;}.cls-51,.cls-52{fill:url(#linear-gradient-35);}.cls-53{fill:url(#linear-gradient-37);}.cls-54{fill:url(#linear-gradient-39);}.cls-55{fill:url(#linear-gradient-40);}.cls-56{fill:url(#linear-gradient-41);}.cls-129,.cls-132,.cls-57,.cls-70,.cls-73,.cls-76{opacity:0.5;}.cls-58,.cls-59{fill:url(#linear-gradient-42);}.cls-60{fill:url(#linear-gradient-44);}.cls-61,.cls-62{fill:url(#linear-gradient-46);}.cls-63{fill:url(#linear-gradient-48);}.cls-64,.cls-65{fill:url(#linear-gradient-50);}.cls-66{fill:url(#linear-gradient-52);}.cls-67,.cls-68{fill:url(#linear-gradient-54);}.cls-69{fill:url(#linear-gradient-56);}.cls-72,.cls-73{fill:url(#linear-gradient-58);}.cls-74{fill:url(#linear-gradient-60);}.cls-75,.cls-76{fill:url(#linear-gradient-61);}.cls-77{fill:url(#linear-gradient-63);}.cls-127,.cls-78{fill:#ffc2c1;}.cls-127,.cls-79{opacity:0.78;}.cls-79{fill:url(#linear-gradient-64);}.cls-80,.cls-81{fill:url(#linear-gradient-65);}.cls-82{fill:url(#linear-gradient-67);}.cls-105,.cls-83{fill:#ff8e02;}.cls-84{fill:#1d2035;}.cls-85{fill:url(#linear-gradient-69);}.cls-86{fill:url(#linear-gradient-70);}.cls-87{fill:url(#linear-gradient-71);}.cls-88{fill:url(#linear-gradient-72);}.cls-89{fill:#313445;}.cls-90{fill:url(#linear-gradient-73);}.cls-91{fill:url(#linear-gradient-74);}.cls-92,.cls-93{fill:url(#linear-gradient-75);}.cls-94{fill:url(#linear-gradient-77);}.cls-95,.cls-96{fill:url(#linear-gradient-79);}.cls-97{fill:url(#linear-gradient-81);}.cls-98,.cls-99{fill:url(#linear-gradient-83);}.cls-100{fill:url(#linear-gradient-85);}.cls-102{fill:url(#linear-gradient-87);}.cls-103{fill:url(#linear-gradient-88);}.cls-104{fill:url(#linear-gradient-89);}.cls-106{fill:url(#linear-gradient-90);}.cls-107{fill:url(#linear-gradient-91);}.cls-108{fill:url(#linear-gradient-92);}.cls-109{fill:url(#linear-gradient-93);}.cls-111,.cls-112{fill:url(#linear-gradient-94);}.cls-113{fill:url(#linear-gradient-96);}.cls-114,.cls-115{fill:url(#linear-gradient-98);}.cls-116{fill:url(#linear-gradient-100);}.cls-117,.cls-118{fill:url(#linear-gradient-102);}.cls-119{fill:url(#linear-gradient-104);}.cls-120,.cls-121{fill:url(#linear-gradient-106);}.cls-122{fill:url(#linear-gradient-108);}.cls-123,.cls-124{fill:url(#linear-gradient-110);}.cls-125{fill:url(#linear-gradient-112);}.cls-126{fill:url(#linear-gradient-114);}.cls-128{fill:url(#linear-gradient-115);}.cls-129{fill:url(#linear-gradient-116);}.cls-130{fill:url(#linear-gradient-117);}.cls-131{fill:url(#linear-gradient-118);}.cls-132{fill:url(#linear-gradient-119);}.cls-133{fill:url(#linear-gradient-120);}.cls-134{fill:url(#linear-gradient-121);}.cls-135{fill:url(#linear-gradient-122);}.cls-136{fill:url(#linear-gradient-123);}.cls-137{fill:url(#linear-gradient-124);}.cls-138{fill:url(#linear-gradient-125);}.cls-139{fill:url(#linear-gradient-126);}.cls-140{fill:url(#linear-gradient-127);}.cls-141{fill:url(#linear-gradient-128);}</style><linearGradient id="linear-gradient" x1="366.95" y1="251.56" x2="592.36" y2="251.56" gradientUnits="userSpaceOnUse"><stop offset="0.08" stop-color="#0c3089"/><stop offset="0.87" stop-color="#644ff7"/></linearGradient><linearGradient id="linear-gradient-2" x1="410.26" y1="128.41" x2="605.9" y2="502.12" gradientUnits="userSpaceOnUse"><stop offset="0.08" stop-color="#09e6fc"/><stop offset="0.13" stop-color="#0fdcfc"/><stop offset="0.87" stop-color="#644ff7"/></linearGradient><clipPath id="clip-path"><path class="cls-1" d="M560.41,421.19,376.77,358.82a9,9,0,0,1-6.09-8.51v-273a9,9,0,0,1,11.89-8.51l183.64,62.38a9,9,0,0,1,6.09,8.51v273A9,9,0,0,1,560.41,421.19Z"/></clipPath><linearGradient id="linear-gradient-3" x1="516.96" y1="146.16" x2="519.35" y2="170.89" gradientUnits="userSpaceOnUse"><stop offset="0.08" stop-color="#ff8b00"/><stop offset="0.87" stop-color="#ffc200"/></linearGradient><linearGradient id="linear-gradient-5" x1="520.56" y1="145.81" x2="522.94" y2="170.41" xlink:href="#linear-gradient-3"/><linearGradient id="linear-gradient-7" x1="531.91" y1="164.13" x2="552.26" y2="164.13" xlink:href="#linear-gradient-3"/><linearGradient id="linear-gradient-9" x1="531.91" y1="164.13" x2="551.08" y2="164.13" xlink:href="#linear-gradient-3"/><linearGradient id="linear-gradient-11" x1="556.4" y1="172.28" x2="576.75" y2="172.28" xlink:href="#linear-gradient-3"/><linearGradient id="linear-gradient-13" x1="556.4" y1="172.28" x2="575.56" y2="172.28" xlink:href="#linear-gradient-3"/><linearGradient id="linear-gradient-15" x1="580.88" y1="180.42" x2="601.23" y2="180.42" xlink:href="#linear-gradient-3"/><linearGradient id="linear-gradient-17" x1="580.88" y1="180.42" x2="600.05" y2="180.42" xlink:href="#linear-gradient-3"/><linearGradient id="linear-gradient-19" x1="605.37" y1="188.57" x2="625.72" y2="188.57" xlink:href="#linear-gradient-3"/><linearGradient id="linear-gradient-21" x1="605.37" y1="188.57" x2="624.54" y2="188.57" xlink:href="#linear-gradient-3"/><linearGradient id="linear-gradient-23" x1="546.28" y1="420.33" x2="521.15" y2="356.13" xlink:href="#linear-gradient-3"/><linearGradient id="linear-gradient-24" x1="525.53" y1="373.39" x2="553.64" y2="409.48" gradientUnits="userSpaceOnUse"><stop offset="0.24" stop-color="#3ac905"/><stop offset="0.55" stop-color="#35be03"/><stop offset="1" stop-color="#29a500"/></linearGradient><linearGradient id="linear-gradient-25" x1="535.75" y1="376.68" x2="508.45" y2="392.47" xlink:href="#linear-gradient-24"/><linearGradient id="linear-gradient-26" x1="513.18" y1="359.6" x2="520.22" y2="368.64" gradientUnits="userSpaceOnUse"><stop offset="0.08" stop-color="#fc2256"/><stop offset="0.87" stop-color="#ff5a89"/></linearGradient><linearGradient id="linear-gradient-27" x1="541.59" y1="365.11" x2="524.98" y2="322.7" xlink:href="#linear-gradient-2"/><linearGradient id="linear-gradient-28" x1="531.82" y1="334.25" x2="527.71" y2="323.75" gradientUnits="userSpaceOnUse"><stop offset="0" stop-color="#09e6fc"/><stop offset="0.05" stop-color="#20e8fc"/><stop offset="0.17" stop-color="#5aeefd"/><stop offset="0.3" stop-color="#8cf3fe"/><stop offset="0.43" stop-color="#b6f8fe"/><stop offset="0.55" stop-color="#d6fbfe"/><stop offset="0.67" stop-color="#edfdff"/><stop offset="0.78" stop-color="#faffff"/><stop offset="0.87" stop-color="#fff"/></linearGradient><linearGradient id="linear-gradient-29" x1="531.82" y1="336.96" x2="527.71" y2="326.46" xlink:href="#linear-gradient-28"/><linearGradient id="linear-gradient-30" x1="531.82" y1="339.67" x2="527.71" y2="329.18" xlink:href="#linear-gradient-28"/><linearGradient id="linear-gradient-31" x1="531.82" y1="342.39" x2="527.71" y2="331.89" xlink:href="#linear-gradient-28"/><linearGradient id="linear-gradient-32" x1="531.82" y1="345.1" x2="527.71" y2="334.6" xlink:href="#linear-gradient-28"/><linearGradient id="linear-gradient-33" x1="531.82" y1="347.82" x2="527.71" y2="337.32" xlink:href="#linear-gradient-28"/><linearGradient id="linear-gradient-34" x1="510.93" y1="314.76" x2="517.97" y2="323.81" xlink:href="#linear-gradient-26"/><linearGradient id="linear-gradient-35" x1="413.22" y1="234.41" x2="415.97" y2="262.82" xlink:href="#linear-gradient-3"/><linearGradient id="linear-gradient-37" x1="412.55" y1="234.47" x2="415.28" y2="262.73" xlink:href="#linear-gradient-3"/><linearGradient id="linear-gradient-39" x1="493.83" y1="262.46" x2="514.05" y2="299.63" xlink:href="#linear-gradient-2"/><linearGradient id="linear-gradient-40" x1="463.62" y1="252.01" x2="484.26" y2="289.93" gradientUnits="userSpaceOnUse"><stop offset="0.08" stop-color="#915fff"/><stop offset="0.87" stop-color="#644ff7"/></linearGradient><linearGradient id="linear-gradient-41" x1="435.17" y1="243.57" x2="455.81" y2="281.5" xlink:href="#linear-gradient-26"/><linearGradient id="linear-gradient-42" x1="4706.71" y1="-92.56" x2="4709.69" y2="-61.76" gradientTransform="matrix(-0.99, 0.12, 0.12, 0.99, 4888.45, -301.91)" xlink:href="#linear-gradient-3"/><linearGradient id="linear-gradient-44" x1="4705.98" y1="-92.5" x2="4708.94" y2="-61.86" gradientTransform="matrix(-0.99, 0.12, 0.12, 0.99, 4888.45, -301.91)" xlink:href="#linear-gradient-3"/><linearGradient id="linear-gradient-46" x1="4673.56" y1="-104.15" x2="4676.54" y2="-73.35" gradientTransform="matrix(-0.99, 0.12, 0.12, 0.99, 4888.45, -301.91)" xlink:href="#linear-gradient-3"/><linearGradient id="linear-gradient-48" x1="4672.83" y1="-104.08" x2="4675.79" y2="-73.44" gradientTransform="matrix(-0.99, 0.12, 0.12, 0.99, 4888.45, -301.91)" xlink:href="#linear-gradient-3"/><linearGradient id="linear-gradient-50" x1="4737.22" y1="-82.42" x2="4740.19" y2="-51.61" gradientTransform="matrix(-0.99, 0.12, 0.12, 0.99, 4888.45, -301.91)" xlink:href="#linear-gradient-3"/><linearGradient id="linear-gradient-52" x1="4736.49" y1="-82.35" x2="4739.45" y2="-51.71" gradientTransform="matrix(-0.99, 0.12, 0.12, 0.99, 4888.45, -301.91)" xlink:href="#linear-gradient-3"/><linearGradient id="linear-gradient-54" x1="4767.72" y1="-72.27" x2="4770.7" y2="-41.47" gradientTransform="matrix(-0.99, 0.12, 0.12, 0.99, 4888.45, -301.91)" xlink:href="#linear-gradient-3"/><linearGradient id="linear-gradient-56" x1="4766.99" y1="-72.21" x2="4769.95" y2="-41.57" gradientTransform="matrix(-0.99, 0.12, 0.12, 0.99, 4888.45, -301.91)" xlink:href="#linear-gradient-3"/><linearGradient id="linear-gradient-58" x1="197.95" y1="275.25" x2="215" y2="275.25" xlink:href="#linear-gradient-3"/><linearGradient id="linear-gradient-60" x1="199.45" y1="275.25" x2="216.5" y2="275.25" xlink:href="#linear-gradient-3"/><linearGradient id="linear-gradient-61" x1="177.64" y1="287.26" x2="194.69" y2="287.26" xlink:href="#linear-gradient-3"/><linearGradient id="linear-gradient-63" x1="179.13" y1="287.26" x2="196.18" y2="287.26" xlink:href="#linear-gradient-3"/><linearGradient id="linear-gradient-64" x1="6582.06" y1="878.36" x2="6588.56" y2="873.34" gradientTransform="matrix(-1.02, -0.22, -0.21, 0.98, 7185.5, 828.08)" gradientUnits="userSpaceOnUse"><stop offset="0" stop-color="#fe6222"/><stop offset="0.04" stop-color="#fe6628"/><stop offset="0.5" stop-color="#fb9c6e"/><stop offset="0.83" stop-color="#fabd99"/><stop offset="1" stop-color="#f9caaa"/></linearGradient><linearGradient id="linear-gradient-65" x1="4492.41" y1="-132.64" x2="4499.99" y2="-54.17" gradientTransform="matrix(-0.99, 0.15, 0.15, 0.99, 4723.65, -348.59)" xlink:href="#linear-gradient-3"/><linearGradient id="linear-gradient-67" x1="4490.54" y1="-132.47" x2="4498.09" y2="-54.42" gradientTransform="matrix(-0.99, 0.15, 0.15, 0.99, 4723.65, -348.59)" xlink:href="#linear-gradient-3"/><linearGradient id="linear-gradient-69" x1="5325.11" y1="224.92" x2="5366.41" y2="224.92" gradientTransform="matrix(-1, 0.03, 0.03, 1, 5618.02, -69.41)" gradientUnits="userSpaceOnUse"><stop offset="0.08" stop-color="#915fff"/><stop offset="0.09" stop-color="#9362ff"/><stop offset="0.23" stop-color="#b492ff"/><stop offset="0.37" stop-color="#cfb9ff"/><stop offset="0.5" stop-color="#e4d8ff"/><stop offset="0.63" stop-color="#f3edff"/><stop offset="0.76" stop-color="#fcfbff"/><stop offset="0.87" stop-color="#fff"/></linearGradient><linearGradient id="linear-gradient-70" x1="5359.98" y1="151.16" x2="5325.01" y2="216.12" gradientTransform="matrix(-1, 0.03, 0.03, 1, 5618.02, -69.41)" gradientUnits="userSpaceOnUse"><stop offset="0" stop-color="#144188"/><stop offset="1" stop-color="#1a7cde"/></linearGradient><linearGradient id="linear-gradient-71" x1="414.35" y1="171.12" x2="414.28" y2="171.25" gradientTransform="translate(-155.39 76.86) rotate(-1.45)" xlink:href="#linear-gradient-2"/><linearGradient id="linear-gradient-72" x1="437.21" y1="237.69" x2="420.96" y2="280.77" gradientTransform="translate(-155.39 76.86) rotate(-1.45)" xlink:href="#linear-gradient-69"/><linearGradient id="linear-gradient-73" x1="421.7" y1="88.54" x2="442.38" y2="154.85" gradientTransform="translate(-155.39 76.86) rotate(-1.45)" gradientUnits="userSpaceOnUse"><stop offset="0.08" stop-color="#ff8b00"/><stop offset="0.11" stop-color="#f88700"/><stop offset="0.27" stop-color="#d07000"/><stop offset="0.43" stop-color="#b15e00"/><stop offset="0.59" stop-color="#9b5100"/><stop offset="0.74" stop-color="#8e4a00"/><stop offset="0.87" stop-color="#894700"/></linearGradient><linearGradient id="linear-gradient-74" x1="125.44" y1="75.1" x2="-26.9" y2="221.06" xlink:href="#linear-gradient-28"/><linearGradient id="linear-gradient-75" x1="4714.61" y1="-150.14" x2="4716.11" y2="-134.65" gradientTransform="matrix(-0.99, 0.11, 0.11, 0.99, 4781.52, -272.97)" xlink:href="#linear-gradient-3"/><linearGradient id="linear-gradient-77" x1="4714.25" y1="-150.1" x2="4715.74" y2="-134.7" gradientTransform="matrix(-0.99, 0.11, 0.11, 0.99, 4781.52, -272.97)" xlink:href="#linear-gradient-3"/><linearGradient id="linear-gradient-79" x1="4729.95" y1="-145.04" x2="4731.44" y2="-129.55" gradientTransform="matrix(-0.99, 0.11, 0.11, 0.99, 4781.52, -272.97)" xlink:href="#linear-gradient-3"/><linearGradient id="linear-gradient-81" x1="4729.58" y1="-145" x2="4731.07" y2="-129.6" gradientTransform="matrix(-0.99, 0.11, 0.11, 0.99, 4781.52, -272.97)" xlink:href="#linear-gradient-3"/><linearGradient id="linear-gradient-83" x1="4745.28" y1="-139.94" x2="4746.78" y2="-124.45" gradientTransform="matrix(-0.99, 0.11, 0.11, 0.99, 4781.52, -272.97)" xlink:href="#linear-gradient-3"/><linearGradient id="linear-gradient-85" x1="4744.91" y1="-139.9" x2="4746.4" y2="-124.5" gradientTransform="matrix(-0.99, 0.11, 0.11, 0.99, 4781.52, -272.97)" xlink:href="#linear-gradient-3"/><linearGradient id="linear-gradient-87" x1="4579.36" y1="106.2" x2="4588.21" y2="119.6" gradientTransform="matrix(-1, 0.04, 0.04, 1, 4666.12, -87.75)" xlink:href="#linear-gradient-70"/><linearGradient id="linear-gradient-88" x1="2945.61" y1="-167.81" x2="2958.05" y2="-182.72" gradientTransform="matrix(-0.95, 0.3, 0.3, 0.95, 2919.86, -501.24)" xlink:href="#linear-gradient-28"/><linearGradient id="linear-gradient-89" x1="2952.14" y1="-200.38" x2="2962.29" y2="-174.09" gradientTransform="matrix(-0.95, 0.3, 0.3, 0.95, 2919.86, -501.24)" gradientUnits="userSpaceOnUse"><stop offset="0.08" stop-color="#09e6fc"/><stop offset="0.12" stop-color="#0fdcfc"/><stop offset="0.7" stop-color="#644ff7"/></linearGradient><linearGradient id="linear-gradient-90" x1="4571.06" y1="208.78" x2="4616.48" y2="208.78" gradientTransform="matrix(-1, 0.04, 0.04, 1, 4666.12, -87.75)" xlink:href="#linear-gradient-2"/><linearGradient id="linear-gradient-91" x1="4594.08" y1="75.96" x2="4572.06" y2="110.72" gradientTransform="matrix(-1, 0.04, 0.04, 1, 4666.12, -87.75)" xlink:href="#linear-gradient-73"/><linearGradient id="linear-gradient-92" x1="4557.02" y1="111.99" x2="4598.87" y2="175.32" gradientTransform="matrix(-1, 0.04, 0.04, 1, 4666.12, -87.75)" xlink:href="#linear-gradient-70"/><linearGradient id="linear-gradient-93" x1="4587.37" y1="239.41" x2="4594.99" y2="239.41" gradientTransform="matrix(-1, 0.04, 0.04, 1, 4666.12, -87.75)" xlink:href="#linear-gradient-2"/><linearGradient id="linear-gradient-94" x1="288.41" y1="78.02" x2="289.58" y2="90.23" xlink:href="#linear-gradient-3"/><linearGradient id="linear-gradient-96" x1="288.12" y1="78.05" x2="289.29" y2="90.19" xlink:href="#linear-gradient-3"/><linearGradient id="linear-gradient-98" x1="300.49" y1="82.04" x2="301.67" y2="94.25" xlink:href="#linear-gradient-3"/><linearGradient id="linear-gradient-100" x1="300.2" y1="82.07" x2="301.38" y2="94.21" xlink:href="#linear-gradient-3"/><linearGradient id="linear-gradient-102" x1="312.58" y1="86.06" x2="313.76" y2="98.27" xlink:href="#linear-gradient-3"/><linearGradient id="linear-gradient-104" x1="312.29" y1="86.09" x2="313.47" y2="98.23" xlink:href="#linear-gradient-3"/><linearGradient id="linear-gradient-106" x1="324.67" y1="90.08" x2="325.85" y2="102.29" xlink:href="#linear-gradient-3"/><linearGradient id="linear-gradient-108" x1="324.38" y1="90.11" x2="325.55" y2="102.25" xlink:href="#linear-gradient-3"/><linearGradient id="linear-gradient-110" x1="336.76" y1="94.1" x2="337.94" y2="106.31" xlink:href="#linear-gradient-3"/><linearGradient id="linear-gradient-112" x1="336.47" y1="94.13" x2="337.64" y2="106.27" xlink:href="#linear-gradient-3"/><linearGradient id="linear-gradient-114" x1="130.01" y1="427.8" x2="152.59" y2="400.74" gradientTransform="translate(258.27 -119.98) rotate(2.34)" xlink:href="#linear-gradient-28"/><linearGradient id="linear-gradient-115" x1="164.9" y1="585.69" x2="140.11" y2="595.36" gradientTransform="translate(258.27 -119.98) rotate(2.34)" xlink:href="#linear-gradient-2"/><linearGradient id="linear-gradient-116" x1="106.11" y1="480.48" x2="151.23" y2="480.48" gradientTransform="translate(258.27 -119.98) rotate(2.34)" xlink:href="#linear-gradient-3"/><linearGradient id="linear-gradient-117" x1="129.41" y1="348.49" x2="107.52" y2="383.03" gradientTransform="translate(258.27 -119.98) rotate(2.34)" xlink:href="#linear-gradient-73"/><linearGradient id="linear-gradient-118" x1="148.35" y1="393.57" x2="108.31" y2="467.94" gradientTransform="translate(258.27 -119.98) rotate(2.34)" xlink:href="#linear-gradient-70"/><linearGradient id="linear-gradient-119" x1="122.31" y1="510.92" x2="129.88" y2="510.92" gradientTransform="translate(258.27 -119.98) rotate(2.34)" xlink:href="#linear-gradient-3"/><linearGradient id="linear-gradient-120" x1="189.64" y1="123.43" x2="222.14" y2="123.43" xlink:href="#linear-gradient-28"/><linearGradient id="linear-gradient-121" x1="178.46" y1="139.74" x2="192.24" y2="139.74" xlink:href="#linear-gradient-28"/><linearGradient id="linear-gradient-122" x1="400.95" y1="4.33" x2="398.74" y2="0.02" xlink:href="#linear-gradient-3"/><linearGradient id="linear-gradient-123" x1="167.88" y1="81.37" x2="164.87" y2="75.49" xlink:href="#linear-gradient-26"/><linearGradient id="linear-gradient-124" x1="225.33" y1="343.8" x2="223.23" y2="339.71" xlink:href="#linear-gradient-3"/><linearGradient id="linear-gradient-125" x1="4.79" y1="295.64" x2="1.78" y2="289.76" xlink:href="#linear-gradient-24"/><linearGradient id="linear-gradient-126" x1="3584.49" y1="-755.82" x2="3581.48" y2="-761.71" gradientTransform="matrix(-0.92, 0.38, 0.38, 0.92, 4168.96, -622.9)" xlink:href="#linear-gradient-26"/><linearGradient id="linear-gradient-127" x1="3641.94" y1="-493.39" x2="3639.84" y2="-497.48" gradientTransform="matrix(-0.92, 0.38, 0.38, 0.92, 4168.96, -622.9)" xlink:href="#linear-gradient-3"/><linearGradient id="linear-gradient-128" x1="3558.96" y1="-598.23" x2="3555.95" y2="-604.11" gradientTransform="matrix(-0.92, 0.38, 0.38, 0.92, 4168.96, -622.9)" xlink:href="#linear-gradient-24"/></defs><g class="cls-2"><g id="Layer_2" data-name="Layer 2"><g id="Layer_1-2" data-name="Layer 1"><path class="cls-3" d="M471.24,287.26v.61c.2.88,1.79,1.56,3.73,1.56s3.75-.78,3.75-1.73v-.18c0-4.39-3.71-8.9-3.72-8.91S471.24,283.67,471.24,287.26Z"/><path class="cls-4" d="M585.7,110.72,385,42.54a9.7,9.7,0,0,0-5.9-.14h0a10,10,0,0,0-2.7,1.27L367,48.13l5,10V378.83a9.82,9.82,0,0,0,6.66,9.3l193.18,65.62,3.71,7.36,9.88-4.72a9.79,9.79,0,0,0,2.53-1.2h0a9.76,9.76,0,0,0,4.38-8.16V120A9.82,9.82,0,0,0,585.7,110.72Z"/><path class="cls-5" d="M585.7,110.72,385,42.54a9.7,9.7,0,0,0-5.9-.14h0a10,10,0,0,0-2.7,1.27L367,48.13l5,10V378.83a9.82,9.82,0,0,0,6.66,9.3l193.18,65.62,3.71,7.36,9.88-4.72a9.79,9.79,0,0,0,2.53-1.2h0a9.76,9.76,0,0,0,4.38-8.16V120A9.82,9.82,0,0,0,585.7,110.72Z"/><path class="cls-6" d="M585.7,110.72,385,42.54a9.7,9.7,0,0,0-5.9-.14h0a10,10,0,0,0-2.7,1.27l-8.52,4L372,58.1V378.83a9.82,9.82,0,0,0,6.66,9.3l193.18,65.62,3.71,7.36,9.88-4.72a9.79,9.79,0,0,0,2.53-1.2h0a9.76,9.76,0,0,0,4.38-8.16V120A9.82,9.82,0,0,0,585.7,110.72Z"/><path class="cls-7" d="M569.6,461,368.88,392.8a9.82,9.82,0,0,1-6.66-9.3v-327a9.83,9.83,0,0,1,13-9.3l200.72,68.18a9.82,9.82,0,0,1,6.66,9.3v327A9.83,9.83,0,0,1,569.6,461Z"/><path class="cls-8" d="M560.41,421.54,376.77,359.16a9,9,0,0,1-6.09-8.5V77.7a9,9,0,0,1,11.89-8.51l183.64,62.37a9,9,0,0,1,6.09,8.51V413A9,9,0,0,1,560.41,421.54Z"/><path class="cls-6" d="M468.81,414.94,445.5,407.1a2.72,2.72,0,0,1-1.86-2.58v-13a2.73,2.73,0,0,1,3.6-2.58l23.31,7.84a2.72,2.72,0,0,1,1.86,2.58v13A2.73,2.73,0,0,1,468.81,414.94Z"/><g class="cls-9"><path class="cls-6" d="M481.23,94.58a1.87,1.87,0,0,1-.56-.09l-24.33-8.37a1.73,1.73,0,0,1,1.11-3.27l24.33,8.38a1.72,1.72,0,0,1-.55,3.35Z"/></g><path class="cls-10" d="M489.64,95.27a1.83,1.83,0,1,1-1.83-1.83A1.83,1.83,0,0,1,489.64,95.27Z"/><path class="cls-1" d="M560.41,421.19,376.77,358.82a9,9,0,0,1-6.09-8.51v-273a9,9,0,0,1,11.89-8.51l183.64,62.38a9,9,0,0,1,6.09,8.51v273A9,9,0,0,1,560.41,421.19Z"/><g class="cls-11"><g class="cls-12"><rect class="cls-13" x="390.08" y="33.93" width="28.62" height="367.59" transform="translate(97.51 -123.98) rotate(19.78)"/><rect class="cls-13" x="476.97" y="70.15" width="56.37" height="367.59" transform="translate(115.7 -155.92) rotate(19.77)"/><rect class="cls-13" x="424.56" y="43.75" width="14.31" height="367.59" transform="translate(102.42 -132.62) rotate(19.77)"/><rect class="cls-13" x="532.2" y="135.26" width="14.31" height="367.59" transform="translate(139.72 -163.64) rotate(19.77)"/></g></g><path class="cls-6" d="M629.89,169.45l-118.1-40.12a5.75,5.75,0,0,0-4.65.41h0a6,6,0,0,0-1.71,1.44l-1.6,1.36.64.39a5.79,5.79,0,0,0-.32,1.88v28.25a5.78,5.78,0,0,0,3.92,5.47l118.1,40.12a5.72,5.72,0,0,0,1.55.29l1.49.92,1.7-1.68a5.75,5.75,0,0,0,2.9-5V174.92A5.78,5.78,0,0,0,629.89,169.45Z"/><path class="cls-14" d="M629.89,169.45l-118.1-40.12a5.75,5.75,0,0,0-4.65.41h0a6,6,0,0,0-1.71,1.44l-1.6,1.36.64.39a5.79,5.79,0,0,0-.32,1.88v28.25a5.78,5.78,0,0,0,3.92,5.47l118.1,40.12a5.72,5.72,0,0,0,1.55.29l1.49.92,1.7-1.68a5.75,5.75,0,0,0,2.9-5V174.92A5.78,5.78,0,0,0,629.89,169.45Z"/><path class="cls-7" d="M623.82,210.77,505.71,170.65a5.78,5.78,0,0,1-3.91-5.47V136.93a5.78,5.78,0,0,1,7.64-5.48l118.1,40.12a5.79,5.79,0,0,1,3.92,5.47v28.25A5.78,5.78,0,0,1,623.82,210.77Z"/><path class="cls-15" d="M527.77,156l-6.62-3.26c-1.18-2.88-1.78-4.31-3-7.18H517l-2.14,5.08-6.26-1.21h-1.19l5,5.09c.23.32.49.66.76,1l-2.09,6.67h1.19l5.85-1.12,4.81,5.24h1.18c-.45-2.87-.68-4.3-1.13-7.17Z"/><path class="cls-16" d="M527.77,156l-6.62-3.26c-1.18-2.88-1.78-4.31-3-7.18H517l-2.14,5.08-6.26-1.21h-1.19l5,5.09c.23.32.49.66.76,1l-2.09,6.67h1.19l5.85-1.12,4.81,5.24h1.18c-.45-2.87-.68-4.3-1.13-7.17Z"/><path class="cls-6" d="M517,145.6l3,7.18,6.62,3.26-4.79,3.16c.45,2.87.68,4.3,1.13,7.17L517,161.12l-5.93,1.13c.46-2.54.68-3.81,1.13-6.36-1.91-2.57-2.87-3.86-4.79-6.42l6.62,1.28Z"/><path class="cls-17" d="M526.59,156,520,152.78l-3-7.18h0v15.52h0l5.92,5.25c-.45-2.87-.68-4.3-1.13-7.17Z"/><path class="cls-18" d="M526.59,156,520,152.78l-3-7.18h0v15.52h0l5.92,5.25c-.45-2.87-.68-4.3-1.13-7.17Z"/><path class="cls-19" d="M552.26,164.18l-6.62-3.26c-1.19-2.87-1.78-4.31-3-7.17h-1.19l-2.14,5.07-6.26-1.21h-1.18l5,5.09.76,1-2.08,6.68h1.18l5.86-1.13,4.81,5.25h1.18c-.45-2.87-.68-4.31-1.13-7.18Z"/><path class="cls-20" d="M552.26,164.18l-6.62-3.26c-1.19-2.87-1.78-4.31-3-7.17h-1.19l-2.14,5.07-6.26-1.21h-1.18l5,5.09.76,1-2.08,6.68h1.18l5.86-1.13,4.81,5.25h1.18c-.45-2.87-.68-4.31-1.13-7.18Z"/><path class="cls-21" d="M541.49,153.75c1.19,2.86,1.78,4.3,3,7.17l6.63,3.26-4.8,3.16c.46,2.87.68,4.31,1.14,7.18l-5.93-5.26-5.92,1.14c.45-2.55.68-3.82,1.13-6.36l-4.79-6.43,6.62,1.28C539.72,156.84,540.31,155.81,541.49,153.75Z"/><g class="cls-22"><path class="cls-21" d="M541.49,153.75c1.19,2.86,1.78,4.3,3,7.17l6.63,3.26-4.8,3.16c.46,2.87.68,4.31,1.14,7.18l-5.93-5.26-5.92,1.14c.45-2.55.68-3.82,1.13-6.36l-4.79-6.43,6.62,1.28C539.72,156.84,540.31,155.81,541.49,153.75Z"/></g><path class="cls-23" d="M576.75,172.32l-6.63-3.26c-1.18-2.87-1.77-4.3-3-7.17H566L563.84,167l-6.26-1.22H556.4l5,5.1.76,1-2.08,6.67h1.18l5.86-1.12,4.8,5.24h1.19c-.46-2.87-.68-4.31-1.13-7.17Z"/><path class="cls-24" d="M576.75,172.32l-6.63-3.26c-1.18-2.87-1.77-4.3-3-7.17H566L563.84,167l-6.26-1.22H556.4l5,5.1.76,1-2.08,6.67h1.18l5.86-1.12,4.8,5.24h1.19c-.46-2.87-.68-4.31-1.13-7.17Z"/><path class="cls-25" d="M566,161.89c1.18,2.87,1.78,4.3,3,7.17l6.62,3.26-4.79,3.17c.45,2.86.68,4.3,1.13,7.17L566,177.41l-5.92,1.13c.45-2.54.68-3.81,1.13-6.36l-4.79-6.43L563,167C564.2,165,564.79,164,566,161.89Z"/><g class="cls-22"><path class="cls-25" d="M566,161.89c1.18,2.87,1.78,4.3,3,7.17l6.62,3.26-4.79,3.17c.45,2.86.68,4.3,1.13,7.17L566,177.41l-5.92,1.13c.45-2.54.68-3.81,1.13-6.36l-4.79-6.43L563,167C564.2,165,564.79,164,566,161.89Z"/></g><path class="cls-26" d="M601.23,180.47l-6.62-3.26c-1.18-2.87-1.77-4.31-3-7.17h-1.18l-2.14,5.07-6.26-1.21h-1.19l5,5.09c.23.32.49.66.76,1l-2.09,6.68h1.19l5.85-1.13,4.81,5.25h1.18c-.45-2.88-.68-4.31-1.13-7.18Z"/><path class="cls-27" d="M601.23,180.47l-6.62-3.26c-1.18-2.87-1.77-4.31-3-7.17h-1.18l-2.14,5.07-6.26-1.21h-1.19l5,5.09c.23.32.49.66.76,1l-2.09,6.68h1.19l5.85-1.13,4.81,5.25h1.18c-.45-2.88-.68-4.31-1.13-7.18Z"/><path class="cls-28" d="M590.47,170c1.18,2.86,1.77,4.3,3,7.17l6.62,3.26-4.79,3.16c.45,2.87.68,4.3,1.13,7.18l-5.92-5.26-5.93,1.14c.46-2.55.68-3.82,1.13-6.37-1.91-2.57-2.87-3.86-4.79-6.42l6.62,1.28Z"/><g class="cls-22"><path class="cls-28" d="M590.47,170c1.18,2.86,1.77,4.3,3,7.17l6.62,3.26-4.79,3.16c.45,2.87.68,4.3,1.13,7.18l-5.92-5.26-5.93,1.14c.46-2.55.68-3.82,1.13-6.37-1.91-2.57-2.87-3.86-4.79-6.42l6.62,1.28Z"/></g><path class="cls-29" d="M625.72,188.61l-6.62-3.26c-1.19-2.87-1.78-4.3-3-7.17H615l-2.14,5.07L606.55,182h-1.18l5,5.1c.24.31.49.65.76,1L609,194.83h1.18l5.86-1.12,4.81,5.24h1.18c-.45-2.87-.68-4.31-1.13-7.18Z"/><path class="cls-30" d="M625.72,188.61l-6.62-3.26c-1.19-2.87-1.78-4.3-3-7.17H615l-2.14,5.07L606.55,182h-1.18l5,5.1c.24.31.49.65.76,1L609,194.83h1.18l5.86-1.12,4.81,5.24h1.18c-.45-2.87-.68-4.31-1.13-7.18Z"/><path class="cls-31" d="M615,178.18c1.19,2.87,1.78,4.3,3,7.17l6.63,3.26-4.79,3.16c.45,2.87.67,4.31,1.13,7.18L615,193.69,609,194.83l1.13-6.36L605.37,182l6.62,1.29C613.18,181.27,613.77,180.24,615,178.18Z"/><g class="cls-22"><path class="cls-31" d="M615,178.18c1.19,2.87,1.78,4.3,3,7.17l6.63,3.26-4.79,3.16c.45,2.87.67,4.31,1.13,7.18L615,193.69,609,194.83l1.13-6.36L605.37,182l6.62,1.29C613.18,181.27,613.77,180.24,615,178.18Z"/></g><g class="cls-32"><path class="cls-33" d="M523.83,257.9l-118.1-40.11a5.71,5.71,0,0,0-4.65.41h0a5.64,5.64,0,0,0-1.71,1.44L397.76,221l.64.4a5.73,5.73,0,0,0-.32,1.87v28.26A5.79,5.79,0,0,0,402,257L520.1,297.1a5.74,5.74,0,0,0,1.56.3l1.48.92,1.7-1.68a5.73,5.73,0,0,0,2.9-5V263.38A5.78,5.78,0,0,0,523.83,257.9Z"/><path class="cls-34" d="M523.83,257.9l-118.1-40.11a5.71,5.71,0,0,0-4.65.41h0a5.64,5.64,0,0,0-1.71,1.44L397.76,221l.64.4a5.73,5.73,0,0,0-.32,1.87v28.26A5.79,5.79,0,0,0,402,257L520.1,297.1a5.74,5.74,0,0,0,1.56.3l1.48.92,1.7-1.68a5.73,5.73,0,0,0,2.9-5V263.38A5.78,5.78,0,0,0,523.83,257.9Z"/></g><path class="cls-7" d="M517.75,299.22l-118.1-40.11a5.78,5.78,0,0,1-3.92-5.47V225.38a5.78,5.78,0,0,1,7.64-5.47L521.47,260a5.78,5.78,0,0,1,3.92,5.48v28.25A5.78,5.78,0,0,1,517.75,299.22Z"/><path class="cls-35" d="M549.88,322.33,519.55,312a3.47,3.47,0,0,0-4.58,3.28v27.8a3.46,3.46,0,0,0,2.35,3.28l30.33,10.35a3.47,3.47,0,0,0,4.58-3.28v-27.8A3.48,3.48,0,0,0,549.88,322.33Z"/><path class="cls-35" d="M549.88,366.19l-30.33-10.35a3.46,3.46,0,0,0-4.58,3.28v27.8a3.45,3.45,0,0,0,2.35,3.27l30.33,10.35a3.46,3.46,0,0,0,4.58-3.27v-27.8A3.48,3.48,0,0,0,549.88,366.19Z"/><path class="cls-7" d="M546.59,324.31,516.26,314a3.46,3.46,0,0,0-4.58,3.27V345a3.46,3.46,0,0,0,2.35,3.28l30.33,10.35a3.46,3.46,0,0,0,4.58-3.28v-27.8A3.45,3.45,0,0,0,546.59,324.31Z"/><path class="cls-36" d="M546.59,367.52l-30.33-10.35a3.46,3.46,0,0,0-4.58,3.28v27.8a3.44,3.44,0,0,0,2.35,3.27l30.33,10.36a3.47,3.47,0,0,0,4.58-3.28V370.8A3.46,3.46,0,0,0,546.59,367.52Z"/><path class="cls-37" d="M546.59,367.52l-30.33-10.35a3.46,3.46,0,0,0-4.58,3.28v27.8a3.44,3.44,0,0,0,2.35,3.27l30.33,10.36a3.47,3.47,0,0,0,4.58-3.28V370.8A3.46,3.46,0,0,0,546.59,367.52Z"/><path class="cls-38" d="M540.41,379.89c0,6.48-4.57,11.73-10.21,11.73S520,386.37,520,379.89s4.57-11.73,10.21-11.73S540.41,373.41,540.41,379.89Z"/><path class="cls-39" d="M525.83,387.19c.54.37,4.29-.42,7.32-3.57s4.09-7.36,3.82-8-2-3.52-2.64-3.36-2.5,2.08-2.49,2.59,1.63,2,1.91,2.46-1,3-2.19,4.3-3.59,2.44-3.95,2.08-1.5-2.36-1.94-2.42-2.28,1.9-2.49,2.58S525.29,386.82,525.83,387.19Z"/><path class="cls-40" d="M520.62,361.14c0,4.07-2.79,7.38-6.24,7.38s-6.25-3.31-6.25-7.38,2.8-7.38,6.25-7.38S520.62,357.06,520.62,361.14Z"/><path class="cls-39" d="M513.86,358.68h0l-1.48.8-.22-.88,1.86-1h1v8.52h-1.11Z"/><path class="cls-41" d="M542.46,352.66l-1.22-6.58V331.19a2,2,0,0,0-1.38-1.92l-17.79-6.07a2,2,0,0,0-2.69,1.92v16.31a2,2,0,0,0,1.38,1.92l12.84,4.38Z"/><line class="cls-42" x1="521.54" y1="326.28" x2="537.99" y2="331.71"/><line class="cls-43" x1="521.54" y1="328.99" x2="537.99" y2="334.42"/><line class="cls-44" x1="521.54" y1="331.71" x2="537.99" y2="337.14"/><line class="cls-45" x1="521.54" y1="334.42" x2="537.99" y2="339.85"/><line class="cls-46" x1="521.54" y1="337.14" x2="537.99" y2="342.57"/><line class="cls-47" x1="521.54" y1="339.85" x2="537.99" y2="345.28"/><path class="cls-48" d="M518.37,316.3c0,4.08-2.79,7.38-6.24,7.38s-6.25-3.3-6.25-7.38,2.8-7.38,6.25-7.38S518.37,312.23,518.37,316.3Z"/><path class="cls-39" d="M509.67,313.15v4.41a1.14,1.14,0,0,0-.85,0,1.08,1.08,0,0,0-.71,1.31,1,1,0,0,0,1.37.52,1.15,1.15,0,0,0,.75-.91h0v-3.53l3.74,1.28v2.34a1.13,1.13,0,0,0-.85,0,1.07,1.07,0,0,0-.71,1.31,1,1,0,0,0,1.37.52,1.17,1.17,0,0,0,.73-.82h0v-4.82Z"/><path class="cls-7" d="M448.5,186.51l-59.05-20.44a5,5,0,0,1-3.35-4.68V137.28a4.94,4.94,0,0,1,6.53-4.67l59.05,20.44a4.93,4.93,0,0,1,3.34,4.67v24.12A4.93,4.93,0,0,1,448.5,186.51Z"/><path class="cls-7" d="M429.72,206.35l-41.07-14.21a3.43,3.43,0,0,1-2.33-3.25V172.11a3.44,3.44,0,0,1,4.54-3.25l41.07,14.22a3.43,3.43,0,0,1,2.32,3.25v16.78A3.42,3.42,0,0,1,429.72,206.35Z"/><path class="cls-49" d="M471.8,165.11l-82.14-28.44a6.86,6.86,0,0,1-4.65-6.49V96.63a6.87,6.87,0,0,1,9.08-6.5l82.14,28.44a6.87,6.87,0,0,1,4.65,6.5v33.54A6.86,6.86,0,0,1,471.8,165.11Z"/><path class="cls-7" d="M465.94,168.63,383.8,140.19a6.86,6.86,0,0,1-4.65-6.49V100.15a6.86,6.86,0,0,1,9.07-6.5l82.14,28.44a6.87,6.87,0,0,1,4.65,6.5v33.54A6.86,6.86,0,0,1,465.94,168.63Z"/><g class="cls-50"><rect class="cls-6" x="424.19" y="76.79" width="1.27" height="81.94" transform="translate(174.77 480.82) rotate(-70.94)"/></g><g class="cls-50"><rect class="cls-6" x="424.19" y="85.41" width="1.27" height="81.94" transform="translate(166.62 486.63) rotate(-70.94)"/></g><g class="cls-50"><rect class="cls-6" x="424.19" y="94.04" width="1.27" height="81.94" transform="translate(158.46 492.44) rotate(-70.94)"/></g><g class="cls-50"><rect class="cls-6" x="424.19" y="102.67" width="1.27" height="81.94" transform="translate(150.31 498.25) rotate(-70.94)"/></g><path class="cls-51" d="M425.64,245.75,418,242l-3.4-8.24h-1.36l-2.46,5.83-7.19-1.4h-1.36l5.73,5.86.87,1.17-2.39,7.67h1.36l6.73-1.3,5.52,6h1.36l-1.3-8.25C422.34,247.94,423.44,247.21,425.64,245.75Z"/><path class="cls-52" d="M425.64,245.75,418,242l-3.4-8.24h-1.36l-2.46,5.83-7.19-1.4h-1.36l5.73,5.86.87,1.17-2.39,7.67h1.36l6.73-1.3,5.52,6h1.36l-1.3-8.25C422.34,247.94,423.44,247.21,425.64,245.75Z"/><path class="cls-53" d="M413.27,233.77l3.4,8.24,7.61,3.74c-2.2,1.46-3.3,2.19-5.5,3.63l1.3,8.25-6.81-6-6.8,1.31,1.3-7.31-5.51-7.39,7.61,1.48Z"/><g class="cls-22"><path class="cls-53" d="M413.27,233.77l3.4,8.24,7.61,3.74c-2.2,1.46-3.3,2.19-5.5,3.63l1.3,8.25-6.81-6-6.8,1.31,1.3-7.31-5.51-7.39,7.61,1.48Z"/></g><path class="cls-54" d="M501.22,261.56c14.22,4.6,11.85,25.89-2.76,22.68C482.15,279.43,486.78,256.54,501.22,261.56Z"/><path class="cls-39" d="M499.69,270.39c0,1.05.49,1.89,1.1,1.89s1.11-.84,1.11-1.89-.49-1.88-1.11-1.88S499.69,269.35,499.69,270.39Z"/><path class="cls-39" d="M492.81,268c0,1,.49,1.89,1.11,1.89S495,269,495,268s-.49-1.89-1.1-1.89S492.81,266.92,492.81,268Z"/><path class="cls-39" d="M492.17,272.68,502.74,278s-2.37,4.34-6,2.69S492.17,272.68,492.17,272.68Z"/><path class="cls-55" d="M471,251.15c14.1,4.17,12.28,26.29-2.33,23.07C452.37,269.41,455.35,246.43,471,251.15Z"/><path class="cls-39" d="M469.91,260.38c0,1,.5,1.89,1.11,1.89s1.11-.85,1.11-1.89-.5-1.88-1.11-1.88S469.91,259.34,469.91,260.38Z"/><path class="cls-39" d="M463,258c0,1,.49,1.89,1.1,1.89s1.11-.85,1.11-1.89-.5-1.89-1.11-1.89S463,256.91,463,258Z"/><path class="cls-39" d="M461.41,264.74c3.64-1.76,8,.61,9.79,4a12.22,12.22,0,0,1,.63,1.5c-.4-.37-.75-.77-1.11-1.14-2.48-2.6-5.53-4.42-9.31-4.33Z"/><path class="cls-56" d="M442.58,242.72c14.09,4.17,12.27,26.28-2.34,23.07C423.93,261,426.9,238,442.58,242.72Z"/><path class="cls-39" d="M445,251.53c-1.15-3.55-5-.4-5-.4s-3.33-3.71-5-.39c-2.65,5.24,4.19,10.85,4.19,10.85S446.79,257.12,445,251.53Z"/><path class="cls-35" d="M484.65,371.42,385,336.92a8.33,8.33,0,0,1-5.65-7.88v-40.7a8.32,8.32,0,0,1,11-7.88L490,315a8.33,8.33,0,0,1,5.65,7.88v40.7A8.32,8.32,0,0,1,484.65,371.42Z"/><path class="cls-7" d="M478.34,377.53,378.69,343a8.33,8.33,0,0,1-5.64-7.88v-40.7a8.32,8.32,0,0,1,11-7.88l99.65,34.5a8.33,8.33,0,0,1,5.64,7.88v40.7A8.32,8.32,0,0,1,478.34,377.53Z"/><g class="cls-50"><rect class="cls-6" x="430.38" y="265.78" width="1.64" height="105.42" transform="translate(-10.67 622.01) rotate(-70.94)"/></g><g class="cls-50"><rect class="cls-6" x="430.38" y="276.88" width="1.64" height="105.42" transform="translate(-21.15 629.49) rotate(-70.94)"/></g><g class="cls-50"><rect class="cls-6" x="430.38" y="287.98" width="1.64" height="105.42" transform="translate(-31.65 636.96) rotate(-70.94)"/></g><g class="cls-50"><rect class="cls-6" x="430.38" y="299.07" width="1.64" height="105.42" transform="translate(-42.14 644.43) rotate(-70.94)"/></g><path class="cls-6" d="M131.49,207l139.92-69.48a7.15,7.15,0,0,1,5.79.51h0a7.19,7.19,0,0,1,2.13,1.79l2,1.69-.79.49a7.18,7.18,0,0,1,.39,2.34v35.19a7.19,7.19,0,0,1-4.88,6.82L136.14,255.78a7.07,7.07,0,0,1-1.94.37l-1.86,1.14-2.11-2.08a7.19,7.19,0,0,1-3.62-6.25V213.77A7.21,7.21,0,0,1,131.49,207Z"/><path class="cls-57" d="M131.49,207l139.92-69.48a7.15,7.15,0,0,1,5.79.51h0a7.19,7.19,0,0,1,2.13,1.79l2,1.69-.79.49a7.18,7.18,0,0,1,.39,2.34v35.19a7.19,7.19,0,0,1-4.88,6.82L136.14,255.78a7.07,7.07,0,0,1-1.94.37l-1.86,1.14-2.11-2.08a7.19,7.19,0,0,1-3.62-6.25V213.77A7.21,7.21,0,0,1,131.49,207Z"/><path class="cls-7" d="M139.07,258.42,279,188.94a7.19,7.19,0,0,0,4.88-6.82V146.93a7.2,7.2,0,0,0-9.52-6.82L134.42,209.59a7.21,7.21,0,0,0-4.88,6.82v35.2A7.2,7.2,0,0,0,139.07,258.42Z"/><path class="cls-58" d="M194.26,199.49l7.69-5.05c1-3.73,1.54-5.6,2.56-9.32l1.47-.18,3.42,5.94,7.55-2.46,1.47-.18L213,195.3l-.79,1.38,3.6,7.93-1.46.19-7.42-.49-5.13,7.21-1.47.19.3-9.05Z"/><path class="cls-59" d="M194.26,199.49l7.69-5.05c1-3.73,1.54-5.6,2.56-9.32l1.47-.18,3.42,5.94,7.55-2.46,1.47-.18L213,195.3l-.79,1.38,3.6,7.93-1.46.19-7.42-.49-5.13,7.21-1.47.19.3-9.05Z"/><path class="cls-60" d="M206,184.94c-1,3.72-1.54,5.59-2.57,9.32l-7.68,5,6.41,3.18-.3,9,6.51-7.4,7.5.49c-.95-3.07-1.42-4.61-2.37-7.69l4.94-8.68-8,2.6Z"/><g class="cls-22"><path class="cls-60" d="M206,184.94c-1,3.72-1.54,5.59-2.57,9.32l-7.68,5,6.41,3.18-.3,9,6.51-7.4,7.5.49c-.95-3.07-1.42-4.61-2.37-7.69l4.94-8.68-8,2.6Z"/></g><path class="cls-61" d="M225.73,183.91l7.69-5c1-3.73,1.54-5.6,2.56-9.32l1.47-.18,3.42,5.94,7.55-2.46,1.47-.18-5.38,7.06-.79,1.38,3.6,7.93-1.46.19-7.42-.49-5.13,7.21-1.47.19.3-9Z"/><path class="cls-62" d="M225.73,183.91l7.69-5c1-3.73,1.54-5.6,2.56-9.32l1.47-.18,3.42,5.94,7.55-2.46,1.47-.18-5.38,7.06-.79,1.38,3.6,7.93-1.46.19-7.42-.49-5.13,7.21-1.47.19.3-9Z"/><path class="cls-63" d="M237.45,169.36c-1,3.72-1.54,5.59-2.57,9.32l-7.68,5,6.41,3.18-.3,9,6.52-7.4,7.49.49c-.95-3.07-1.42-4.61-2.37-7.69l4.94-8.68-8,2.6Z"/><g class="cls-22"><path class="cls-63" d="M237.45,169.36c-1,3.72-1.54,5.59-2.57,9.32l-7.68,5,6.41,3.18-.3,9,6.52-7.4,7.49.49c-.95-3.07-1.42-4.61-2.37-7.69l4.94-8.68-8,2.6Z"/></g><path class="cls-64" d="M165.24,213.31l7.69-5.05c1-3.73,1.53-5.59,2.56-9.32l1.46-.18,3.43,6,7.55-2.46,1.46-.18L184,209.13c-.24.43-.5.89-.78,1.37l3.6,7.94-1.47.18-7.41-.49-5.14,7.22-1.46.18.3-9.05Z"/><path class="cls-65" d="M165.24,213.31l7.69-5.05c1-3.73,1.53-5.59,2.56-9.32l1.46-.18,3.43,6,7.55-2.46,1.46-.18L184,209.13c-.24.43-.5.89-.78,1.37l3.6,7.94-1.47.18-7.41-.49-5.14,7.22-1.46.18.3-9.05Z"/><path class="cls-66" d="M177,198.76c-1,3.73-1.53,5.59-2.56,9.32l-7.69,5,6.41,3.17-.3,9,6.52-7.41,7.5.5c-1-3.08-1.43-4.62-2.38-7.69l4.94-8.68-8,2.6Z"/><g class="cls-22"><path class="cls-66" d="M177,198.76c-1,3.73-1.53,5.59-2.56,9.32l-7.69,5,6.41,3.17-.3,9,6.52-7.41,7.5.5c-1-3.08-1.43-4.62-2.38-7.69l4.94-8.68-8,2.6Z"/></g><path class="cls-67" d="M136.22,227.13l7.68-5,2.56-9.32,1.47-.19,3.42,5.95,7.55-2.46,1.47-.18L155,223q-.37.65-.78,1.38l3.59,7.93-1.46.18-7.41-.49-5.14,7.22-1.46.18.3-9Z"/><path class="cls-68" d="M136.22,227.13l7.68-5,2.56-9.32,1.47-.19,3.42,5.95,7.55-2.46,1.47-.18L155,223q-.37.65-.78,1.38l3.59,7.93-1.46.18-7.41-.49-5.14,7.22-1.46.18.3-9Z"/><path class="cls-69" d="M147.93,212.58c-1,3.73-1.54,5.59-2.56,9.33l-7.69,5,6.41,3.17-.3,9,6.52-7.41,7.49.5c-.94-3.07-1.42-4.61-2.37-7.69,2-3.48,3-5.21,4.94-8.68l-8,2.6Z"/><g class="cls-22"><path class="cls-69" d="M147.93,212.58c-1,3.73-1.54,5.59-2.56,9.33l-7.69,5,6.41,3.17-.3,9,6.52-7.41,7.49.5c-.94-3.07-1.42-4.61-2.37-7.69,2-3.48,3-5.21,4.94-8.68l-8,2.6Z"/></g><g class="cls-70"><path class="cls-6" d="M173,270.37l36.49-20a5.34,5.34,0,0,1,4.34.38h0a5.39,5.39,0,0,1,1.59,1.34l1.5,1.26-.6.37a5.31,5.31,0,0,1,.3,1.75v26.34a5.4,5.4,0,0,1-3.65,5.1l-36.5,20a5.31,5.31,0,0,1-1.45.28l-1.39.85-1.58-1.56a5.34,5.34,0,0,1-2.7-4.67V275.47A5.39,5.39,0,0,1,173,270.37Z"/><path class="cls-71" d="M173,270.37l36.49-20a5.34,5.34,0,0,1,4.34.38h0a5.39,5.39,0,0,1,1.59,1.34l1.5,1.26-.6.37a5.31,5.31,0,0,1,.3,1.75v26.34a5.4,5.4,0,0,1-3.65,5.1l-36.5,20a5.31,5.31,0,0,1-1.45.28l-1.39.85-1.58-1.56a5.34,5.34,0,0,1-2.7-4.67V275.47A5.39,5.39,0,0,1,173,270.37Z"/></g><path class="cls-7" d="M178.7,308.89l36.5-20a5.38,5.38,0,0,0,3.65-5.1V257.47a5.39,5.39,0,0,0-7.12-5.11l-36.5,20a5.38,5.38,0,0,0-3.65,5.1v26.34A5.39,5.39,0,0,0,178.7,308.89Z"/><path class="cls-72" d="M205.59,266.41c-12,6.6-8.7,22.49,1.9,18C219.28,278.38,216.08,260.8,205.59,266.41Z"/><path class="cls-73" d="M205.59,266.41c-12,6.6-8.7,22.49,1.9,18C219.28,278.38,216.08,260.8,205.59,266.41Z"/><path class="cls-74" d="M207.08,266.41c-12,6.6-8.69,22.49,1.9,18C220.78,278.38,217.58,260.8,207.08,266.41Z"/><path class="cls-39" d="M208,273.05c0,.85-.41,1.55-.91,1.55s-.91-.7-.91-1.55.41-1.55.91-1.55S208,272.19,208,273.05Z"/><path class="cls-39" d="M213.62,271.05c0,.86-.41,1.55-.91,1.55s-.91-.69-.91-1.55.41-1.54.91-1.54S213.62,270.2,213.62,271.05Z"/><path class="cls-39" d="M214.14,274.92l-8.67,4.34s1.95,3.55,5,2.2S214.14,274.92,214.14,274.92Z"/><path class="cls-75" d="M185.27,278.42c-12,6.6-8.69,22.49,1.9,18C199,290.39,195.77,272.8,185.27,278.42Z"/><path class="cls-76" d="M185.27,278.42c-12,6.6-8.69,22.49,1.9,18C199,290.39,195.77,272.8,185.27,278.42Z"/><path class="cls-77" d="M186.76,278.42c-12,6.6-8.69,22.49,1.9,18C200.46,290.39,197.26,272.8,186.76,278.42Z"/><path class="cls-39" d="M187.66,285.06c0,.85-.41,1.54-.91,1.54s-.91-.69-.91-1.54.41-1.55.91-1.55S187.66,284.2,187.66,285.06Z"/><path class="cls-39" d="M193.3,283.06c0,.86-.41,1.55-.91,1.55s-.91-.69-.91-1.55.41-1.55.91-1.55S193.3,282.21,193.3,283.06Z"/><path class="cls-39" d="M193.82,286.93l-8.66,4.33s1.94,3.56,5,2.21S193.82,286.93,193.82,286.93Z"/><path class="cls-78" d="M266.9,202.62l-9.67,3.91c-3.57-5.79-16.2-12.36-18.31-15.22a30.54,30.54,0,0,1-2.87-7.73c-.17-1.54-3-7.21-5.14-6.78-3.12.64-2.75,5.45-2.65,9.43s.88,4.84.88,4.84-2.53-2.88-3.53-1.81,3.64,6.84,6.83,7.81h0a6.14,6.14,0,0,0,2.58.4c3.71,3.22,12.64,20,17.05,21s13.71-3.2,13.71-3.2S269.47,207.19,266.9,202.62Z"/><path class="cls-79" d="M259.84,205.47l7.06-2.85c2.57,4.57-1.08,12.63-1.08,12.63s-7.94,3.54-12.62,3.32C258.45,216.89,260.4,211.09,259.84,205.47Z"/><path class="cls-80" d="M231.71,222.06,251,208.72c2.36-9.57,3.55-14.35,5.92-23.9l3.72-.56,9.1,14.92,19.07-6.75,3.72-.56L279.24,210.2c-.59,1.12-1.23,2.3-1.9,3.56l9.67,20-3.71.56-18.91-.77-12.62,18.71-3.71.56c.07-9.23.1-13.84.17-23.06C241.62,226.68,238.32,225.14,231.71,222.06Z"/><path class="cls-81" d="M231.71,222.06,251,208.72c2.36-9.57,3.55-14.35,5.92-23.9l3.72-.56,9.1,14.92,19.07-6.75,3.72-.56L279.24,210.2c-.59,1.12-1.23,2.3-1.9,3.56l9.67,20-3.71.56-18.91-.77-12.62,18.71-3.71.56c.07-9.23.1-13.84.17-23.06C241.62,226.68,238.32,225.14,231.71,222.06Z"/><path class="cls-82" d="M260.6,184.26c-2.37,9.55-3.56,14.33-5.93,23.9l-19.25,13.35c6.61,3.08,9.92,4.61,16.53,7.67-.07,9.22-.11,13.83-.18,23,6.45-7.72,9.67-11.58,16.12-19.28,7.65.32,11.48.48,19.12.78-2.61-7.77-3.92-11.65-6.54-19.43,4.81-9,7.21-13.47,12-22.43L272.31,199C267.63,193.12,265.28,190.17,260.6,184.26Z"/><g class="cls-22"><path class="cls-82" d="M260.6,184.26c-2.37,9.55-3.56,14.33-5.93,23.9l-19.25,13.35c6.61,3.08,9.92,4.61,16.53,7.67-.07,9.22-.11,13.83-.18,23,6.45-7.72,9.67-11.58,16.12-19.28,7.65.32,11.48.48,19.12.78-2.61-7.77-3.92-11.65-6.54-19.43,4.81-9,7.21-13.47,12-22.43L272.31,199C267.63,193.12,265.28,190.17,260.6,184.26Z"/></g><path class="cls-78" d="M248.81,229.2s-11.19,6.22-9.69,11.34,9.4,4.24,15.33.65S248.81,229.2,248.81,229.2Z"/><path class="cls-78" d="M270.62,398.61a17,17,0,0,0-1.13-5.19l-7.31.18c-.24,1.8-4.35,4.52-8.39,6.68C259.61,401.73,264.6,400.3,270.62,398.61Z"/><path class="cls-83" d="M253.79,400.28a42.52,42.52,0,0,1-7.61,3.37c-2.23.4-2,4.17,3,4.39s17-2.49,19.37-2.9c1.56-.26,2.24-3.25,2-6.53C264.6,400.3,259.61,401.73,253.79,400.28Z"/><path class="cls-78" d="M293,386.55a16.61,16.61,0,0,0-.78-5.25l-7.3-.3c-.36,1.78-4.65,4.23-8.82,6.11C281.82,389,286.89,387.85,293,386.55Z"/><path class="cls-83" d="M276.1,387.11a42,42,0,0,1-7.81,2.86c-2.25.25-2.23,4,2.74,4.58s17.09-1.37,19.51-1.61c1.57-.16,2.46-3.1,2.46-6.39C286.89,387.85,281.82,389,276.1,387.11Z"/><path class="cls-84" d="M257.71,319.8A337.44,337.44,0,0,1,260.12,283l13.49-.35-.72-3,24.34-4.29S300.92,286,300.14,295s-6,27.24-6.15,33.25,2.82,7.31,3.29,16S293.39,383,293.39,383c-8.28,2.88-10.4-1.07-10.4-1.07L279.1,316.3c-2,5.57-3.86,10.62-5,13.43-2.35,6.07,1,16.81.89,24.49s-4.49,40.21-4.49,40.21c-7.3,1.85-9-.33-9-.33S257.29,342.51,257.71,319.8Z"/><path class="cls-85" d="M265,295c-1.43,1.5-3.94.92-6.05-1,.58-7,1.13-11,1.13-11l13.49-.35-.72-3,24.34-4.29S300.92,286,300.14,295c-.24,2.84-.7,6.35-1.21,10C293.68,293.7,277.14,292.93,265,295Z"/><path class="cls-78" d="M272.66,178.65s-1.65,2.85-2.12,9.18c-.45,6-1.52,12.15,1.31,15.33s6.53.13,7.13.7,1.37,4.72-.43,6.1a45.52,45.52,0,0,1-5.84,3.32s4.44,4.06,14.42,2.64,8.21-11.72,8.21-11.72S291.72,206,290,204s-2.6-17-2.6-17Z"/><path class="cls-86" d="M275,212.13c-4.6,1.12-22.94,11.71-27.05,15.28-4.09,9.23,6.44,16.52,6.44,16.52l8.69-6.36c-3.83,2.81,6.86,16.64-.82,32.5a151.3,151.3,0,0,0-3.44,16.43s-3.22,3.65,14.35,4.54S301,284.23,301,284.23s-11.54-21.39-2.5-42.56c3.71-5.37,7.28-26.08,5.81-31.33s-8.93-6.14-8.93-6.14-4.81,8-11.9,9.48S275,212.13,275,212.13Z"/><path class="cls-87" d="M263.06,237.57h0l.14-.11Z"/><path class="cls-88" d="M279.1,316.3l6.55-15.14s-5.33,26.55-5.13,34.62Z"/><path class="cls-89" d="M301.54,191.21c.25-8.32,0-12.09-6.14-17.74a10.08,10.08,0,0,0-2.36-2.05h0c-2.74-1.71-6.17-1.94-9.91-1.29-8,1.37-13.37,2.18-12.79,9,.21,2.51,6.46,4.68,8,7.47s-1.79,8.27.28,11c0,0,2-4.91,4.27-4.47s1.4,4.14-.56,5.86c-4.31,3.55-5.78,15.17-5.35,25.59s10.63,19.09,17.84,18.3,8-8.63,10-17.71S301.25,200.51,301.54,191.21Z"/><path class="cls-90" d="M305,215.48l0,1.68c-3.92,8.36-14.34,4.49-18.62-1.59-3.21-7.48.21-15.12.55-22.69a11.17,11.17,0,0,0-8.53-11.43c-.63-.15-1.27-.28-1.9-.38a6.5,6.5,0,0,1-5.57-5.92v-.08a7.41,7.41,0,0,0-.62,4.06c.21,2.51,6.46,4.68,8,7.47s-1.79,8.27.28,11c0,0,2-4.91,4.27-4.47s1.4,4.14-.56,5.86c-4.31,3.55-5.78,15.17-5.35,25.59s10.63,19.09,17.84,18.3,8-8.63,10-17.71A30.42,30.42,0,0,0,305,215.48Z"/><path class="cls-91" d="M123.33,85.64,116.72,79a8.14,8.14,0,0,0-9.63-1.9L8.22,125.28a8.19,8.19,0,0,0-4.61,7.36v56.23a8.06,8.06,0,0,0,2,5.34h0l0,0c.2.22.4.42.61.62L13.32,202l12.23-10.75L114.21,148a8.19,8.19,0,0,0,4.61-7.36v-51Z"/><path class="cls-6" d="M123.33,85.64,116.72,79a8.14,8.14,0,0,0-9.63-1.9L8.22,125.28a8.19,8.19,0,0,0-4.61,7.36v56.23a8.06,8.06,0,0,0,2,5.34h0l0,0c.2.22.4.42.61.62L13.32,202l12.23-10.75L114.21,148a8.19,8.19,0,0,0,4.61-7.36v-51Z"/><path class="cls-6" d="M3.61,132.64v56.23a8.06,8.06,0,0,0,2,5.34h0l0,0c.2.22.4.42.61.62L13.32,202l12.23-10.75,44.09-21.35c-22.57-12.58-45.39-24.82-64.51-42A8.17,8.17,0,0,0,3.61,132.64Z"/><path class="cls-7" d="M118.16,155.69a14.82,14.82,0,0,0,7.57-12.92V91.42A8.17,8.17,0,0,0,114,84.07L15.13,132.29a8.17,8.17,0,0,0-4.61,7.35v56.23a8.18,8.18,0,0,0,11.73,7.36l85.94-42h0Z"/><path class="cls-35" d="M45.56,162.56c0,11.69-5.47,21.17-12.22,21.17s-12.22-9.48-12.22-21.17,5.47-21.16,12.22-21.16S45.56,150.87,45.56,162.56Z"/><path class="cls-7" d="M36.62,151.8c0,2.53-1.61,4.58-3.61,4.58s-3.62-2-3.62-4.58S31,147.22,33,147.22,36.62,149.27,36.62,151.8Z"/><path class="cls-6" d="M109.72,100c-.54,1.87-.8,2.8-1.34,4.67l-3.88,2.5,3.2,1.63c-.08,1.82-.11,2.73-.19,4.54l3.31-3.69,3.77.29c-.47-1.55-.7-2.33-1.16-3.88l2.52-4.34-4,1.27Z"/><path class="cls-6" d="M96.05,106.62c-.53,1.87-.8,2.8-1.33,4.68l-3.89,2.49L94,115.42c-.08,1.82-.12,2.73-.19,4.55l3.31-3.7,3.76.29-1.15-3.88,2.52-4.34-4,1.27Z"/><path class="cls-92" d="M74.45,120.83l3.89-2.5,1.33-4.67.74-.09,1.69,3,3.81-1.2.73-.09-2.73,3.53c-.13.21-.26.44-.4.68l1.77,4-.74.08-3.72-.28-2.62,3.61-.73.08c.07-1.82.11-2.73.19-4.55Z"/><path class="cls-93" d="M74.45,120.83l3.89-2.5,1.33-4.67.74-.09,1.69,3,3.81-1.2.73-.09-2.73,3.53c-.13.21-.26.44-.4.68l1.77,4-.74.08-3.72-.28-2.62,3.61-.73.08c.07-1.82.11-2.73.19-4.55Z"/><path class="cls-94" d="M80.41,113.57c-.54,1.87-.8,2.8-1.33,4.68l-3.89,2.49,3.2,1.63c-.07,1.82-.11,2.73-.19,4.55l3.31-3.7,3.77.29c-.46-1.55-.7-2.33-1.16-3.88l2.52-4.34-4,1.27C81.73,115.37,81.29,114.77,80.41,113.57Z"/><g class="cls-22"><path class="cls-94" d="M80.41,113.57c-.54,1.87-.8,2.8-1.33,4.68l-3.89,2.49,3.2,1.63c-.07,1.82-.11,2.73-.19,4.55l3.31-3.7,3.77.29c-.46-1.55-.7-2.33-1.16-3.88l2.52-4.34-4,1.27C81.73,115.37,81.29,114.77,80.41,113.57Z"/></g><path class="cls-95" d="M59.8,127.64l3.88-2.5c.54-1.87.8-2.81,1.34-4.67l.73-.09,1.7,3,3.8-1.2.74-.09-2.74,3.53-.4.68,1.77,4-.73.08-3.73-.28-2.61,3.61-.74.08c.08-1.82.12-2.73.19-4.55Z"/><path class="cls-96" d="M59.8,127.64l3.88-2.5c.54-1.87.8-2.81,1.34-4.67l.73-.09,1.7,3,3.8-1.2.74-.09-2.74,3.53-.4.68,1.77,4-.73.08-3.73-.28-2.61,3.61-.74.08c.08-1.82.12-2.73.19-4.55Z"/><path class="cls-97" d="M65.75,120.38c-.53,1.87-.8,2.8-1.33,4.68l-3.89,2.49,3.21,1.63c-.08,1.82-.12,2.73-.19,4.55l3.31-3.7,3.76.29-1.15-3.88L72,122.1l-4,1.27Z"/><g class="cls-22"><path class="cls-97" d="M65.75,120.38c-.53,1.87-.8,2.8-1.33,4.68l-3.89,2.49,3.21,1.63c-.08,1.82-.12,2.73-.19,4.55l3.31-3.7,3.76.29-1.15-3.88L72,122.1l-4,1.27Z"/></g><path class="cls-98" d="M45.14,134.45,49,132l1.33-4.67.74-.09,1.69,3L56.6,129l.74-.09-2.74,3.53c-.13.21-.26.44-.4.69l1.77,4-.74.08-3.72-.28-2.62,3.61-.73.08c.07-1.82.11-2.73.19-4.54Z"/><path class="cls-99" d="M45.14,134.45,49,132l1.33-4.67.74-.09,1.69,3L56.6,129l.74-.09-2.74,3.53c-.13.21-.26.44-.4.69l1.77,4-.74.08-3.72-.28-2.62,3.61-.73.08c.07-1.82.11-2.73.19-4.54Z"/><path class="cls-100" d="M51.1,127.19c-.53,1.87-.8,2.8-1.33,4.68l-3.89,2.5L49.09,136l-.2,4.55,3.31-3.69,3.77.28c-.46-1.55-.69-2.33-1.16-3.88l2.53-4.34-4,1.27C52.42,129,52,128.39,51.1,127.19Z"/><g class="cls-22"><path class="cls-100" d="M51.1,127.19c-.53,1.87-.8,2.8-1.33,4.68l-3.89,2.5L49.09,136l-.2,4.55,3.31-3.69,3.77.28c-.46-1.55-.69-2.33-1.16-3.88l2.53-4.34-4,1.27C52.42,129,52,128.39,51.1,127.19Z"/></g><g class="cls-101"><rect class="cls-1" x="47.14" y="133.79" width="73.21" height="1.38" transform="translate(-50.91 51.01) rotate(-26.3)"/></g><g class="cls-101"><rect class="cls-1" x="47.14" y="142.96" width="73.21" height="1.38" transform="translate(-54.97 51.96) rotate(-26.3)"/></g><g class="cls-101"><rect class="cls-1" x="47.14" y="152.12" width="73.21" height="1.38" transform="translate(-59.03 52.91) rotate(-26.3)"/></g><path class="cls-7" d="M34.68,157.65c-4.51,0-8.17,4.64-8.17,10.35A12.3,12.3,0,0,0,28,173.92l14.8-7.22C42.27,161.6,38.84,157.65,34.68,157.65Z"/><path class="cls-78" d="M24.28,165.41c.82-.5,2.81,2.21,3.58,2.65s.09-2.83-.49-4.11-1.81-6.14.33-6.79,6.62,5,8.34,8.09a31.58,31.58,0,0,1,2.63,7s21,22.92,24.68,26.54c4.1,4.09,19.85,14,19.85,14l-8.45,11.51s-12.67-9-19.84-16.82-21.36-31-21.36-31c-2.49-.36-6.54-4-7.35-5.6S23.47,165.92,24.28,165.41Z"/><path class="cls-102" d="M109.67,229c-1.72-3.76-29.6-18.31-29.6-18.31a22,22,0,0,0-9.14,12c2.18,2.13,18,17.67,18,17.67Z"/><path class="cls-103" d="M42,233.62l12.21-7.87a1.13,1.13,0,0,0,.47-1.31l-7-22.08a1.14,1.14,0,0,0-1.72-.62l-12.2,7.87a1.15,1.15,0,0,0-.48,1.31l7,22.08A1.15,1.15,0,0,0,42,233.62Z"/><path class="cls-104" d="M42.31,231.77,53,224.91a1.15,1.15,0,0,0,.47-1.31l-6.14-19.39a1.15,1.15,0,0,0-1.72-.62l-10.64,6.86a1.15,1.15,0,0,0-.48,1.31l6.15,19.39A1.15,1.15,0,0,0,42.31,231.77Z"/><path class="cls-78" d="M65.13,262.6s-14.41,10-20.1,11c-8.24,1.39-9.22-4.16-8-11.85s3.25-21.63,3.17-23.49-4.75-9.91-5.14-11.55,1-7,1-7l2.44,6.89s.24-4.16,1.48-4.06,0,4.1.28,4.71,6.07,4.69,5.76,7.42-.75,3.28-.75,3.28,3.41,16.61,1.69,21.64l9-7.3Z"/><path class="cls-83" d="M59.74,433.08c-1.26,3-10.61,4.76-13.87,4.95-4.38.26-8.29,4.92-5,9.91.55.85,25-.77,27.82-2.25.94-.49,2.75-3.33,1.59-13.07S59.74,433.08,59.74,433.08Z"/><path class="cls-105" d="M52.56,436.87c3.39-.76,6.54-2.28,7.18-3.79,0,0,9.35-10.2,10.5-.46a29.31,29.31,0,0,1,.17,6.35C64.73,439.56,58.19,440.91,52.56,436.87Z"/><path class="cls-83" d="M101.9,419.68s3.31,9.3-.73,11.26c-3.6,1.73-19.29,2-24.43,2a3.29,3.29,0,0,1-2.84-1.61c-1.27-2.16-2.32-5.95,4-8.19,5.66-2,15.09-4.46,15.09-4.46Z"/><path class="cls-83" d="M87.71,420.16c3-.85,5.3-1.45,5.3-1.45l8.89,1s3.31,9.3-.73,11.26C102.6,426,88.22,428.09,87.71,420.16Z"/><path class="cls-84" d="M62.09,352.18C63,327.23,64,311.7,64,311.7l14.82-.64L78,307.79l26.67-5.19s4.27,11.56,3.6,21.51-4.27,32.51-4.35,39.12,1.32,8.39,2,17.89-2.58,40.94-2.58,40.94C93,423.65,90.13,419.8,90.13,419.8l-4.6-71.89c-2.08,6.17-3.74,16.71-4.88,19.81C78.18,374.44,79,381.83,79,390.28s-7.68,46.23-7.68,46.23c-9,3.95-14.49-2.12-14.49-2.12S61.16,377.24,62.09,352.18Z"/><path class="cls-106" d="M69.65,324.74c-1.54,1.68-4.31,1.1-6.68-.95.51-7.74,1-12.09,1-12.09l14.82-.64L78,307.79l26.67-5.19s4.27,11.56,3.6,21.51c-.21,3.13-.64,7-1.14,11C101.11,322.78,82.91,322.26,69.65,324.74Z"/><path class="cls-78" d="M76.07,196.38s-2.79,2.93-2.4,9.89-.8,14.54,2.38,18,7.46.87,8.13,1.48,1,3.7-.93,5.26a50.68,50.68,0,0,1-6.36,3.76s5,4.38,15.9,2.62,8.8-13,8.8-13-4,2-5.88-.12-3.19-18.59-3.19-18.59Z"/><path class="cls-89" d="M105.4,201.94c-1.38-10.09-5.61-14.22-11.18-15.08h0c-15.15-4.79-25.77,5.71-27.88,3.18-.06,5.22,5.34,8,9,9.57h0c2.23,1.81,6,3.57,7.29,5.72,1.79,3-1.81,9.12.53,12.12,0,0,2-5.44,4.6-5s1.62,4.52-.5,6.45-1.29,6.3,1.13,8.21,7,1,10-1.92C101.58,222.11,107.28,215.82,105.4,201.94Z"/><path class="cls-107" d="M96.54,187.43c4.41,1.59,7.68,5.87,8.86,14.51,1.88,13.88-3.82,20.17-7.05,23.24-3,2.9-7.57,3.84-10,1.92a6.61,6.61,0,0,1-2.3-4.64C99.32,220.92,109.72,195.7,96.54,187.43Z"/><path class="cls-108" d="M76.89,234.76c-11.64,1-21.27,14.74-25.53,17.53-2.6,12.55,8,18.8,8,18.8l8.24-5.67s-4.41,21.33-5.33,33.49c-1,13.1-.36,19.43-.36,19.43s.17,1.57,16.95,1.9a110,110,0,0,0,28.22-2.94,4.7,4.7,0,0,0,3.31-5.93c-2.66-8.68-7.64-27.85-3.84-39.7,3.33-10.39,6.73-32.07,5.38-37.91-1.88-8.1-10.39-9.43-10.39-9.43s1.94,9-12.9,10.65C80.77,235.88,76.89,234.76,76.89,234.76Z"/><path class="cls-109" d="M85.53,347.91l6.9-16.77s-5.34,29.29-5,38.16Z"/><path class="cls-6" d="M346.2,85.69,256.73,54.9a7,7,0,0,0-5.66.5h0A7.14,7.14,0,0,0,249,57.15l-2,1.65.78.48a7.08,7.08,0,0,0-.38,2.28V96a7,7,0,0,0,4.76,6.66l89.48,30.79a7.49,7.49,0,0,0,1.9.36l1.8,1.11.23-.22,2.51,17.45,2.86-2.67V92.35A7,7,0,0,0,346.2,85.69Z"/><path class="cls-110" d="M346.2,85.69,256.73,54.9a7,7,0,0,0-5.66.5h0A7.14,7.14,0,0,0,249,57.15l-2,1.65.78.48a7.08,7.08,0,0,0-.38,2.28V96a7,7,0,0,0,4.76,6.66l89.48,30.79a7.49,7.49,0,0,0,1.9.36l1.8,1.11.23-.22,2.51,17.45,2.86-2.67V92.35A7,7,0,0,0,346.2,85.69Z"/><path class="cls-7" d="M343.34,88.27,253.87,57.48a7,7,0,0,0-9.31,6.66V98.53a7,7,0,0,0,4.77,6.66l83.16,28.61h0l15.62,18.3V94.93A7,7,0,0,0,343.34,88.27Z"/><path class="cls-35" d="M275.88,85.78c0,9.93-5.45,18-12.17,18s-12.18-8.05-12.18-18,5.45-18,12.18-18S275.88,75.86,275.88,85.78Z"/><path class="cls-111" d="M293.74,82.89l-3.27-1.61c-.58-1.41-.87-2.12-1.46-3.54h-.58l-1.06,2.51-3.09-.6h-.58l2.46,2.51.37.51-1,3.29h.59l2.89-.55L291.35,88h.59c-.23-1.42-.34-2.13-.56-3.55Z"/><path class="cls-112" d="M293.74,82.89l-3.27-1.61c-.58-1.41-.87-2.12-1.46-3.54h-.58l-1.06,2.51-3.09-.6h-.58l2.46,2.51.37.51-1,3.29h.59l2.89-.55L291.35,88h.59c-.23-1.42-.34-2.13-.56-3.55Z"/><path class="cls-113" d="M288.43,77.74c.58,1.42.87,2.13,1.46,3.54l3.27,1.61-2.37,1.56c.23,1.42.34,2.13.56,3.55l-2.92-2.6L285.5,86c.23-1.25.34-1.88.56-3.14l-2.36-3.17,3.27.63Z"/><g class="cls-22"><path class="cls-113" d="M288.43,77.74c.58,1.42.87,2.13,1.46,3.54l3.27,1.61-2.37,1.56c.23,1.42.34,2.13.56,3.55l-2.92-2.6L285.5,86c.23-1.25.34-1.88.56-3.14l-2.36-3.17,3.27.63Z"/></g><path class="cls-114" d="M305.83,86.91l-3.27-1.61c-.58-1.41-.88-2.12-1.46-3.54h-.58l-1.06,2.51-3.09-.6h-.59l2.46,2.51.38.51-1,3.29h.59l2.89-.55L303.44,92H304l-.55-3.55Z"/><path class="cls-115" d="M305.83,86.91l-3.27-1.61c-.58-1.41-.88-2.12-1.46-3.54h-.58l-1.06,2.51-3.09-.6h-.59l2.46,2.51.38.51-1,3.29h.59l2.89-.55L303.44,92H304l-.55-3.55Z"/><path class="cls-116" d="M300.52,81.76c.58,1.42.87,2.13,1.46,3.54l3.27,1.61-2.37,1.56c.22,1.42.34,2.13.56,3.55l-2.92-2.6-2.93.56c.22-1.25.34-1.88.56-3.14l-2.37-3.17,3.27.63Z"/><g class="cls-22"><path class="cls-116" d="M300.52,81.76c.58,1.42.87,2.13,1.46,3.54l3.27,1.61-2.37,1.56c.22,1.42.34,2.13.56,3.55l-2.92-2.6-2.93.56c.22-1.25.34-1.88.56-3.14l-2.37-3.17,3.27.63Z"/></g><path class="cls-117" d="M317.92,90.93l-3.27-1.61c-.58-1.41-.88-2.12-1.46-3.54h-.59l-1.05,2.51-3.09-.6h-.59l2.46,2.51.38.51-1,3.29h.58l2.9-.55L315.53,96h.58c-.22-1.42-.33-2.13-.56-3.55Z"/><path class="cls-118" d="M317.92,90.93l-3.27-1.61c-.58-1.41-.88-2.12-1.46-3.54h-.59l-1.05,2.51-3.09-.6h-.59l2.46,2.51.38.51-1,3.29h.58l2.9-.55L315.53,96h.58c-.22-1.42-.33-2.13-.56-3.55Z"/><path class="cls-119" d="M312.6,85.78c.59,1.42.88,2.13,1.47,3.54l3.26,1.61L315,92.49c.22,1.42.33,2.13.56,3.55l-2.93-2.6-2.92.56c.22-1.25.34-1.88.56-3.14l-2.37-3.17,3.27.63C311.73,87.31,312,86.8,312.6,85.78Z"/><g class="cls-22"><path class="cls-119" d="M312.6,85.78c.59,1.42.88,2.13,1.47,3.54l3.26,1.61L315,92.49c.22,1.42.33,2.13.56,3.55l-2.93-2.6-2.92.56c.22-1.25.34-1.88.56-3.14l-2.37-3.17,3.27.63C311.73,87.31,312,86.8,312.6,85.78Z"/></g><path class="cls-120" d="M330,95l-3.27-1.6c-.59-1.42-.88-2.13-1.46-3.55h-.59l-1.05,2.51-3.09-.6H320l2.46,2.52.38.5-1,3.29h.58l2.89-.55,2.38,2.59h.58c-.22-1.42-.33-2.13-.56-3.55Z"/><path class="cls-121" d="M330,95l-3.27-1.6c-.59-1.42-.88-2.13-1.46-3.55h-.59l-1.05,2.51-3.09-.6H320l2.46,2.52.38.5-1,3.29h.58l2.89-.55,2.38,2.59h.58c-.22-1.42-.33-2.13-.56-3.55Z"/><path class="cls-122" d="M324.69,89.8c.59,1.42.88,2.13,1.46,3.55l3.27,1.6-2.36,1.56c.22,1.42.33,2.13.56,3.55l-2.93-2.6-2.92.56c.22-1.25.33-1.88.56-3.14L320,91.71l3.27.63C323.81,91.33,324.11,90.82,324.69,89.8Z"/><g class="cls-22"><path class="cls-122" d="M324.69,89.8c.59,1.42.88,2.13,1.46,3.55l3.27,1.6-2.36,1.56c.22,1.42.33,2.13.56,3.55l-2.93-2.6-2.92.56c.22-1.25.33-1.88.56-3.14L320,91.71l3.27.63C323.81,91.33,324.11,90.82,324.69,89.8Z"/></g><path class="cls-123" d="M342.1,99l-3.27-1.6c-.59-1.42-.88-2.13-1.46-3.55h-.59l-1.06,2.51-3.09-.6h-.58l2.46,2.52c.12.15.24.32.37.5l-1,3.29h.58l2.89-.55,2.37,2.59h.59c-.22-1.42-.34-2.13-.56-3.54Z"/><path class="cls-124" d="M342.1,99l-3.27-1.6c-.59-1.42-.88-2.13-1.46-3.55h-.59l-1.06,2.51-3.09-.6h-.58l2.46,2.52c.12.15.24.32.37.5l-1,3.29h.58l2.89-.55,2.37,2.59h.59c-.22-1.42-.34-2.13-.56-3.54Z"/><path class="cls-125" d="M336.78,93.82c.59,1.42.88,2.13,1.46,3.55l3.27,1.6-2.36,1.57.55,3.54-2.92-2.6-2.92.56c.22-1.25.33-1.88.56-3.14l-2.37-3.17,3.27.63C335.9,95.35,336.2,94.84,336.78,93.82Z"/><g class="cls-22"><path class="cls-125" d="M336.78,93.82c.59,1.42.88,2.13,1.46,3.55l3.27,1.6-2.36,1.57.55,3.54-2.92-2.6-2.92.56c.22-1.25.33-1.88.56-3.14l-2.37-3.17,3.27.63C335.9,95.35,336.2,94.84,336.78,93.82Z"/></g><path class="cls-126" d="M406.61,312.36l-25.15-8a2.09,2.09,0,0,1-1.45-2.08l1.72-42a2.08,2.08,0,0,1,2.71-1.91l25.15,8a2.1,2.1,0,0,1,1.46,2.08l-1.72,42A2.1,2.1,0,0,1,406.61,312.36Z"/><path class="cls-13" d="M405.1,309.29l-21.92-6.94a2.1,2.1,0,0,1-1.45-2.08l1.51-36.9a2.09,2.09,0,0,1,2.72-1.91l21.91,6.94a2.11,2.11,0,0,1,1.46,2.08l-1.52,36.9A2.08,2.08,0,0,1,405.1,309.29Z"/><path class="cls-78" d="M379,275.65c.52-1.59,1-5.93,2.31-5.22s.44,4.77.29,6.08,2.07,7.61,0,9.79S361.19,308,360.36,308s-4.54-19.78-4.54-19.78,20.08-5.54,21.4-6.81S378.14,278.29,379,275.65Z"/><path class="cls-78" d="M400.88,290.06l10.49,4.44c4-6.27,17.91-13.23,20.26-16.32s4.13-6.73,5.85-8.39,9-6.61,10.33-5.47S441,270,441,270a7,7,0,0,1,4.75,4.29c1.16,3.48-.45,6.86-2.6,7.51s-3.19,3.48-7.35,3.23c-4.11,3.45-14.16,21.64-19,22.62s-14.93-3.73-14.93-3.73S398,295,400.88,290.06Z"/><path class="cls-127" d="M408.54,293.3l-7.66-3.24c-2.89,4.95.95,13.82.95,13.82s8.62,4,13.74,3.85C409.86,305.8,407.82,299.43,408.54,293.3Z"/><path class="cls-83" d="M384.11,477.57c1.26,3,12.33,4,15.46,4.89s8,4.23,4.82,9.2c-.55.84-23.47.12-26.33-1.22s-5.52-3.62-4.39-13.3S384.11,477.57,384.11,477.57Z"/><path class="cls-128" d="M391.27,480.83c-3.36-.75-6.52-1.76-7.16-3.26,0,0-9.31-10.12-10.44-.43a29.39,29.39,0,0,0-.15,6.31C379.16,484,385.68,484.86,391.27,480.83Z"/><path class="cls-83" d="M349.3,466.41s.94,7.37,5.11,9c4.46,1.69,26.84-4.41,26.84-4.41s-.33-8.31-6.26-9-15.57.73-15.57.73Z"/><path class="cls-84" d="M390.67,397.71c.09-24.81-1.74-40.23-1.74-40.23l-14.72-.7.86-3.25-26.48-5.27s-4.29,11.48-3.67,21.36,3.45,27.18,3.5,33.75-2.67,10.09-3.38,19.53,2.83,45.78,2.83,45.78A11.4,11.4,0,0,0,361.55,465l5.84-71.58c2,6.14,4,11.7,5.08,14.79,2.42,6.69-3.22,17.73-3.25,26.13s2.58,45.38,2.58,45.38c8.51,4.4,14.94.71,14.94.71S390.58,422.53,390.67,397.71Z"/><path class="cls-129" d="M383,370.3c1.53,1.67,4.28,1.08,6.62-1-.51-7.69-1.05-12-1.05-12l-14.73-.6.84-3.25-26.51-5.1s-4.22,11.5-3.53,21.38c.22,3.11.66,6.95,1.16,10.95C351.7,368.42,369.79,367.87,383,370.3Z"/><path class="cls-78" d="M375.88,243.51s2.9,2.86,2.52,9.77,1,14.55-2.19,18-6.24-1.35-6.91-.74-1.58,5.13.37,6.67a49.52,49.52,0,0,0,6.32,3.73s-4.92,4.36-15.8,2.64-8.77-12.95-8.77-12.95,3.93,2,5.84-.13S360.39,252,360.39,252Z"/><path class="cls-89" d="M379.16,243.65c-.27,2.73-7.14,5-8.9,8s1.82,9.06-.5,12.05c0,0-2.05-5.4-4.58-5s-1.6,4.5.51,6.41,1.3,6.26-1.11,8.17-6.9,1-9.94-1.89c-3.22-3-8.9-9.29-7.05-23.08s9.06-16.41,17.75-14.78S379.92,236.2,379.16,243.65Z"/><path class="cls-130" d="M356.35,233.93c-4.38,1.59-7.62,5.85-8.76,14.44-1.85,13.79,3.83,20,7.05,23.08,3,2.87,7.54,3.79,9.94,1.89a6.64,6.64,0,0,0,2.28-4.62C353.67,267.21,343.27,242.18,356.35,233.93Z"/><path class="cls-131" d="M376,280.92c5.51-.87,19.59,5.8,29,7.39,3.59,9.52-2.07,21.85-2.07,21.85l-14.31-3.5s-2.25,24.31.55,36.1a135.26,135.26,0,0,1,3.29,17.65s.95,4.78-18.26,5.46S343.29,350,343.29,350s7.72-29.25,4.08-38.52-7.51-28.61-5.81-34.32,9.86-6.56,9.86-6.56,5.12,8.78,12.84,10.56S376,280.92,376,280.92Z"/><path class="cls-132" d="M367.25,393.36l-6.9-16.65s5.38,29.1,5,37.91Z"/><path class="cls-133" d="M218.1,110.32l4-2.89-6.12-.78-.15,0-.34,0h0A2.68,2.68,0,0,0,214,107l-3.35,2.12-.9-9.8-4.77-.55c-1-.39-2.53,0-4.31,1.78-3.05,3.05-2.37,7-3.3,10.67-1.88,7.38-7.68,13-7.68,13v24s19.09-10.2,22.14-12.1,4.15-3.76,3.62-6c-.37-1.6-2.38-1.49-2.38-1.49a5.6,5.6,0,0,0,3.33-6.1c-.27-2-2.48-1.78-3.19-1.66a4.3,4.3,0,0,0,3.38-3.2c.77-3-1.33-3.81-1.33-3.81A5,5,0,0,0,218.1,110.32Z"/><path class="cls-6" d="M218.1,110.32l4-2.89-6.12-.78-.15,0-.34,0h0A2.68,2.68,0,0,0,214,107l-3.35,2.12-.9-9.8-4.77-.55c-1-.39-2.53,0-4.31,1.78-3.05,3.05-2.37,7-3.3,10.67-1.88,7.38-7.68,13-7.68,13v24s19.09-10.2,22.14-12.1,4.15-3.76,3.62-6c-.37-1.6-2.38-1.49-2.38-1.49a5.6,5.6,0,0,0,3.33-6.1c-.27-2-2.48-1.78-3.19-1.66a4.3,4.3,0,0,0,3.38-3.2c.77-3-1.33-3.81-1.33-3.81A5,5,0,0,0,218.1,110.32Z"/><polygon class="cls-57" points="189.64 124.19 189.64 148.21 195.43 148.88 195.43 124.87 189.64 124.19"/><polygon class="cls-7" points="184.25 129.76 184.25 154.12 192.24 150.03 192.24 126.04 184.25 129.76"/><path class="cls-7" d="M195.43,124.87s5.8-5.57,7.68-13c.93-3.66.25-7.62,3.3-10.67s5.34-2,5.59,0,0,11.36,0,11.36l7.74-4.92a2.74,2.74,0,0,1,4.2,2.06,1,1,0,0,1,0,.17,4.8,4.8,0,0,1-2.95,4.57s2.1.86,1.33,3.81a4.36,4.36,0,0,1-3.62,3.24s3.11-.75,3.43,1.62a5.6,5.6,0,0,1-3.33,6.1s2-.11,2.38,1.49c.53,2.28-.57,4.13-3.62,6s-22.14,12.1-22.14,12.1Z"/><polygon class="cls-134" points="192.24 126.04 186.45 125.36 178.46 129.08 178.46 153.44 184.25 154.12 184.25 129.76 192.24 126.04"/><polygon class="cls-6" points="192.24 126.04 186.45 125.36 178.46 129.08 178.46 153.44 184.25 154.12 184.25 129.76 192.24 126.04"/><path class="cls-135" d="M402.73,2.64A2.65,2.65,0,1,1,400.09,0,2.64,2.64,0,0,1,402.73,2.64Z"/><path class="cls-136" d="M170.31,79.07a3.61,3.61,0,1,1-3.61-3.61A3.61,3.61,0,0,1,170.31,79.07Z"/><path class="cls-137" d="M227,342.2a2.51,2.51,0,1,1-2.51-2.51A2.51,2.51,0,0,1,227,342.2Z"/><path class="cls-138" d="M7.22,293.34a3.61,3.61,0,1,1-3.61-3.61A3.61,3.61,0,0,1,7.22,293.34Z"/><path class="cls-139" d="M563.69,42.57a3.61,3.61,0,1,0,2-4.71A3.62,3.62,0,0,0,563.69,42.57Z"/><path class="cls-140" d="M611.51,307.46a2.51,2.51,0,1,0,1.36-3.27A2.5,2.5,0,0,0,611.51,307.46Z"/><path class="cls-141" d="M647.34,178.56a3.61,3.61,0,1,0,2-4.71A3.61,3.61,0,0,0,647.34,178.56Z"/></g></g></g></svg>