<svg xmlns="http://www.w3.org/2000/svg" viewBox="0 0 1200 856.77"><defs><style>.cls-1{fill:#c4c6d0;}.cls-2{fill:#efeff4;}.cls-3,.cls-35,.cls-4{fill:#fff;}.cls-4{opacity:0.3;}.cls-5{fill:#072756;}.cls-6{fill:#001a46;}.cls-7{fill:#022652;}.cls-8{fill:#a8cff0;}.cls-9{fill:#d8dee8;}.cls-10{fill:#e6e6e8;}.cls-11{fill:#2672ab;}.cls-12{fill:#ced2d8;}.cls-13{fill:#72b5e8;}.cls-14{fill:#d1ebff;}.cls-15{fill:#084c94;}.cls-16{fill:#03336e;}.cls-17{fill:#ffd70f;}.cls-18{fill:#eb4680;}.cls-19{fill:#0fbab8;}.cls-20{fill:#fc0;}.cls-21{fill:#ffde17;}.cls-22{fill:#d62d69;}.cls-23{fill:#f76195;}.cls-24{fill:#0ba19f;}.cls-25{fill:#3ecfcd;}.cls-26{fill:#eab50c;}.cls-27{fill:#ffc802;}.cls-28{fill:#f9a728;}.cls-29{fill:#2499e0;}.cls-30{fill:#259ff9;}.cls-31{fill:#1d93db;}.cls-32{fill:#f95f35;}.cls-33{fill:#ff7343;}.cls-34{fill:#e25333;}.cls-35{opacity:0.7;}</style></defs><g id="Layer_2" data-name="Layer 2"><g id="Layer_1-2" data-name="Layer 1"><path class="cls-1" d="M927.68,804.46,614.5,623.65c-5.51-3.18-8.26-7.42-8.34-11.88,0-.14,0-15.37,0-15.51.09-5.42,4.09,4,11.81-.47L795.7,493.17c14.28-8.24,35.89-9.14,48.25-2L1157.13,672c4.13,2.38,7.13-7.73,8.2-4.52.35,1.07.13,15.27.15,16.38.12,5.54-3.89,11.42-11.81,16L975.93,802.46C961.65,810.71,940.05,811.6,927.68,804.46Z"/><path class="cls-2" d="M927.68,789.24,614.5,608.42c-12.36-7.14-10.81-19.61,3.47-27.86L795.7,478c14.28-8.25,35.89-9.14,48.25-2l313.18,180.81c12.37,7.14,10.82,19.61-3.46,27.86L975.93,787.24C961.65,795.48,940.05,796.38,927.68,789.24Z"/><path class="cls-1" d="M927.68,804.46c12.37,7.14,34,6.25,48.25-2V787.24c-14.28,8.24-35.88,9.14-48.25,2Z"/><path class="cls-1" d="M927.68,789.24,614.5,608.42c-6-3.45-8.67-8.15-8.28-13a5.17,5.17,0,0,0-.06.86c0,.14,0,15.37,0,15.51.08,4.46,2.83,8.7,8.34,11.88L927.68,804.46Z"/><path class="cls-3" d="M1153.67,682,975.93,784.65c-14.28,8.24-35.88,9.14-48.25,2L614.5,605.84c-5.13-3-7.83-6.85-8.25-11-.64,5.06,2.06,10,8.25,13.55L927.68,789.24c12.37,7.14,34,6.24,48.25-2l177.74-102.62c8.36-4.82,12.32-11.09,11.72-16.9C1164.75,672.75,1160.79,677.92,1153.67,682Z"/><path class="cls-4" d="M856.39,726.07,744.93,661.72c-2.23-1.29-1.95-3.54.63-5l41.85-24.16c2.57-1.49,6.47-1.65,8.7-.36l111.46,64.35c2.23,1.29,1.95,3.54-.62,5L865.1,725.71C862.52,727.2,858.62,727.36,856.39,726.07Z"/><path class="cls-1" d="M745.56,659.33l41.85-24.16c2.57-1.48,6.47-1.64,8.7-.36l111.46,64.35a3.44,3.44,0,0,1,1,.91c.84-1.26.54-2.64-1-3.55L796.11,632.17c-2.23-1.29-6.13-1.13-8.7.36l-41.85,24.16c-2,1.19-2.62,2.85-1.66,4.13A5,5,0,0,1,745.56,659.33Z"/><path class="cls-5" d="M823.57,499.18l19.2,11.09a9.76,9.76,0,0,0,8.82,0c2.43-1.4,2.42-3.68,0-5.09l-19.21-11.09a9.76,9.76,0,0,0-8.82,0C821.11,495.49,821.12,497.77,823.57,499.18Zm32.88,19,9.1,5.26a9.75,9.75,0,0,0,8.82,0c2.43-1.4,2.42-3.68,0-5.09l-9.09-5.25a9.76,9.76,0,0,0-8.82,0C854,514.48,854,516.76,856.45,518.17Zm22.78,13.15,9.1,5.26a9.75,9.75,0,0,0,8.82,0c2.43-1.4,2.42-3.68,0-5.09l-9.1-5.25a9.73,9.73,0,0,0-8.81,0C876.78,527.63,876.79,529.91,879.23,531.32ZM902,544.48l9.1,5.25a9.72,9.72,0,0,0,8.82,0c2.43-1.4,2.41-3.68,0-5.09l-9.1-5.25a9.76,9.76,0,0,0-8.82,0C899.56,540.79,899.57,543.06,902,544.48Zm22.78,13.15,9.1,5.25a9.76,9.76,0,0,0,8.82,0c2.43-1.41,2.41-3.69,0-5.1l-9.1-5.25a9.72,9.72,0,0,0-8.82,0C922.34,553.94,922.35,556.22,924.79,557.63Zm22.78,13.15,9.1,5.25a9.76,9.76,0,0,0,8.82,0c2.42-1.4,2.41-3.68,0-5.09l-9.1-5.26a9.72,9.72,0,0,0-8.82,0C945.11,567.09,945.13,569.37,947.57,570.78Zm22.78,13.15,9.1,5.25a9.76,9.76,0,0,0,8.82,0c2.42-1.4,2.41-3.68,0-5.09l-9.1-5.26a9.75,9.75,0,0,0-8.82,0C967.89,580.24,967.91,582.52,970.35,583.93Zm22.78,13.15,9.1,5.25a9.73,9.73,0,0,0,8.81,0c2.43-1.4,2.42-3.68,0-5.09l-9.1-5.26a9.75,9.75,0,0,0-8.82,0C990.67,593.39,990.68,595.67,993.13,597.08Zm22.78,13.15,9.09,5.25a9.72,9.72,0,0,0,8.82,0c2.43-1.4,2.42-3.68,0-5.09l-9.09-5.25a9.76,9.76,0,0,0-8.82,0C1013.45,606.54,1013.46,608.82,1015.91,610.23Zm22.77,13.15,9.1,5.26a9.75,9.75,0,0,0,8.82,0c2.43-1.4,2.42-3.68,0-5.09l-9.1-5.25a9.73,9.73,0,0,0-8.81,0C1036.23,619.69,1036.24,622,1038.68,623.38Zm22.78,13.15,9.1,5.26a9.75,9.75,0,0,0,8.82,0c2.43-1.4,2.42-3.68,0-5.09l-9.1-5.25a9.73,9.73,0,0,0-8.81,0C1059,632.84,1059,635.12,1061.46,636.53Zm22.78,13.16,9.1,5.25a9.72,9.72,0,0,0,8.82,0c2.43-1.4,2.41-3.68,0-5.09l-9.1-5.25a9.76,9.76,0,0,0-8.82,0C1081.79,646,1081.8,648.28,1084.24,649.69Zm23.25,13.42,9.1,5.25a9.76,9.76,0,0,0,8.82,0c2.43-1.4,2.42-3.68,0-5.09l-9.09-5.25a9.72,9.72,0,0,0-8.82,0C1105,659.42,1105.05,661.7,1107.49,663.11ZM803.08,511.72l7.88,4.55a11.08,11.08,0,0,0,10,0l7.83-4.52c2.76-1.59,2.75-4.18,0-5.79l-7.88-4.55a11.11,11.11,0,0,0-10,0l-7.83,4.52C800.28,507.52,800.3,510.11,803.08,511.72Zm40.69,17.72,7.83-4.52c2.76-1.6,2.75-4.19,0-5.8l-7.88-4.55a11.1,11.1,0,0,0-10,0l-7.82,4.51c-2.77,1.6-2.75,4.19,0,5.8l7.87,4.55A11.13,11.13,0,0,0,843.77,529.44Zm4.87,8.58,7.87,4.55a11.13,11.13,0,0,0,10,0l7.83-4.52c2.76-1.6,2.75-4.19,0-5.8l-7.88-4.55a11.1,11.1,0,0,0-10,0l-7.83,4.52C845.84,533.82,845.86,536.42,848.64,538Zm22.77,13.15,7.88,4.55a11.1,11.1,0,0,0,10,0l7.83-4.52c2.76-1.6,2.74-4.19,0-5.8l-7.87-4.54a11.07,11.07,0,0,0-10,0l-7.83,4.52C868.62,547,868.63,549.57,871.41,551.17Zm48.49,7.41L912,554a11.07,11.07,0,0,0-10,0l-7.83,4.52c-2.76,1.59-2.75,4.19,0,5.79l7.88,4.55a11.1,11.1,0,0,0,10,0l7.82-4.52C922.7,562.77,922.68,560.18,919.9,558.58Zm22.78,13.15-7.87-4.55a11.1,11.1,0,0,0-10,0l-7.83,4.52c-2.76,1.6-2.75,4.19,0,5.79l7.88,4.55a11.07,11.07,0,0,0,10,0l7.82-4.52C945.48,575.93,945.46,573.33,942.68,571.73Zm22.78,13.15-7.88-4.55a11.08,11.08,0,0,0-10,0l-7.83,4.52c-2.76,1.6-2.75,4.19,0,5.8l7.88,4.54a11,11,0,0,0,10,0l7.83-4.52C968.26,589.08,968.24,586.48,965.46,584.88ZM988.24,598l-7.88-4.55a11.11,11.11,0,0,0-10,0L962.5,598c-2.76,1.6-2.75,4.19,0,5.8l7.88,4.55a11.08,11.08,0,0,0,10,0l7.83-4.52C991,602.23,991,599.63,988.24,598ZM1011,611.18l-7.88-4.55a11.13,11.13,0,0,0-10,0l-7.82,4.52c-2.77,1.6-2.75,4.19,0,5.8l7.88,4.55a11.08,11.08,0,0,0,10,0l7.83-4.52C1013.81,615.38,1013.8,612.79,1011,611.18Zm22.78,13.15-7.88-4.55a11.1,11.1,0,0,0-10,0l-7.82,4.52c-2.77,1.59-2.75,4.18,0,5.79l7.87,4.55a11.13,11.13,0,0,0,10,0l7.83-4.52C1036.59,628.53,1036.58,625.94,1033.8,624.33Zm-2.93,18.9,7.87,4.55a11.13,11.13,0,0,0,10,0l7.83-4.52c2.76-1.6,2.75-4.19,0-5.8l-7.88-4.54a11.07,11.07,0,0,0-10,0l-7.83,4.52C1028.07,639,1028.09,641.63,1030.87,643.23Zm48.48,7.4-7.87-4.54a11.07,11.07,0,0,0-10,0l-7.83,4.52c-2.76,1.59-2.75,4.19,0,5.79l7.88,4.55a11.1,11.1,0,0,0,10,0l7.83-4.52C1082.15,654.83,1082.13,652.24,1079.35,650.63Zm33.37,19.27-18-10.39a11.13,11.13,0,0,0-10,0l-7.82,4.52c-2.77,1.6-2.75,4.19,0,5.8l18,10.38a11.07,11.07,0,0,0,10,0l7.83-4.52C1115.51,674.1,1115.5,671.5,1112.72,669.9ZM782,523.9l18,10.38a11,11,0,0,0,10,0l7.83-4.52c2.76-1.59,2.75-4.19,0-5.79l-18-10.39a11.08,11.08,0,0,0-10,0L782,518.1C779.19,519.7,779.2,522.29,782,523.9Zm32.89,19,7.88,4.55a11.08,11.08,0,0,0,10,0l7.83-4.52c2.76-1.59,2.75-4.19,0-5.79l-7.88-4.55a11.11,11.11,0,0,0-10,0l-7.83,4.52C812.07,538.69,812.09,541.28,814.87,542.89Zm30.65,17.7a11.1,11.1,0,0,0,10,0l7.83-4.51c2.76-1.6,2.75-4.19,0-5.8l-7.88-4.55a11.13,11.13,0,0,0-10,0l-7.82,4.52c-2.77,1.6-2.75,4.19,0,5.8Zm22.78,13.15a11.13,11.13,0,0,0,10,0l7.83-4.52c2.76-1.6,2.75-4.19,0-5.8l-7.88-4.55a11.1,11.1,0,0,0-10,0l-7.83,4.52c-2.76,1.59-2.74,4.18,0,5.79ZM891,572l-7.83,4.52c-2.76,1.59-2.75,4.19,0,5.79l7.88,4.55a11.13,11.13,0,0,0,10,0l7.83-4.52c2.76-1.6,2.75-4.19,0-5.8L901,572.05A11.07,11.07,0,0,0,891,572Zm23.26,12.87L905.47,590c-2.5,1.44-2.48,3.78,0,5.23l8.85,5.11a10,10,0,0,0,9.07,0l8.79-5.08c2.49-1.44,2.48-3.79,0-5.24l-8.85-5.1A10,10,0,0,0,914.26,584.9ZM937,598.05l-8.79,5.08c-2.5,1.44-2.48,3.78,0,5.23l8.84,5.11a10,10,0,0,0,9.07,0l8.8-5.08c2.49-1.44,2.48-3.78,0-5.23l-8.85-5.11A10,10,0,0,0,937,598.05Zm22.78,13.15L951,616.28c-2.5,1.44-2.49,3.78,0,5.24l8.84,5.1a10,10,0,0,0,9.07,0l8.79-5.08c2.5-1.44,2.49-3.78,0-5.23l-8.85-5.11A10,10,0,0,0,959.82,611.2Zm22.78,13.15-8.79,5.08c-2.5,1.44-2.49,3.79,0,5.24l8.84,5.1a10,10,0,0,0,9.07,0l8.79-5.07c2.5-1.45,2.49-3.79,0-5.24l-8.84-5.11A10,10,0,0,0,982.6,624.35Zm22.78,13.16-8.79,5.07c-2.5,1.44-2.49,3.79,0,5.24l8.85,5.11a10,10,0,0,0,9.07,0l8.79-5.07c2.5-1.45,2.49-3.79,0-5.24l-8.84-5.11A10,10,0,0,0,1005.38,637.51Zm31.93,28.58,8.79-5.07c2.5-1.44,2.48-3.79,0-5.24l-8.84-5.11a10,10,0,0,0-9.07,0l-8.8,5.07c-2.49,1.44-2.48,3.79,0,5.24l8.85,5.11A10,10,0,0,0,1037.31,666.09Zm22.78,13.15,8.79-5.07c2.5-1.44,2.48-3.79,0-5.24l-8.85-5.11a10,10,0,0,0-9.07,0l-8.79,5.07c-2.49,1.45-2.48,3.79,0,5.24l8.85,5.11A10,10,0,0,0,1060.09,679.24Zm32,3.12-8.84-5.11a10,10,0,0,0-9.07,0l-8.79,5.08c-2.5,1.44-2.49,3.78,0,5.24l8.85,5.1a10,10,0,0,0,9.07,0l8.79-5.08C1094.63,686.15,1094.62,683.81,1092.1,682.36ZM760.4,535.8,789,552.29a10,10,0,0,0,9.07,0l8.79-5.08c2.5-1.44,2.48-3.79,0-5.24L778.23,525.5a10,10,0,0,0-9.07,0l-8.79,5.07C757.87,532,757.88,534.35,760.4,535.8Zm42.49,24.53,8.85,5.11a10,10,0,0,0,9.07,0l8.79-5.08c2.49-1.44,2.48-3.78,0-5.23L820.72,550a10,10,0,0,0-9.07,0l-8.79,5.08C800.37,556.54,800.38,558.88,802.89,560.33Zm22.78,13.15,8.85,5.11a10,10,0,0,0,9.07,0l8.79-5.08c2.49-1.44,2.48-3.78,0-5.23l-8.85-5.11a10,10,0,0,0-9.07,0l-8.79,5.08C823.14,569.69,823.16,572,825.67,573.48Zm22.78,13.16,8.84,5.1a10,10,0,0,0,9.07,0l8.8-5.08c2.49-1.44,2.48-3.78,0-5.23l-8.85-5.11a10,10,0,0,0-9.07,0l-8.79,5.08C845.92,582.84,845.94,585.19,848.45,586.64Zm40.69,18.27,8.79-5.07c2.5-1.45,2.49-3.79,0-5.24l-8.85-5.11a10,10,0,0,0-9.07,0l-8.79,5.07c-2.5,1.44-2.49,3.79,0,5.24l8.84,5.1A10,10,0,0,0,889.14,604.91Zm22.78,13.15,8.79-5.07c2.5-1.44,2.49-3.79,0-5.24l-8.84-5.11a10,10,0,0,0-9.07,0L894,607.7c-2.5,1.44-2.49,3.79,0,5.24l8.84,5.11A10,10,0,0,0,911.92,618.06Zm22.78,13.15,8.79-5.07c2.5-1.44,2.49-3.79,0-5.24l-8.84-5.11a10,10,0,0,0-9.07,0l-8.79,5.07c-2.5,1.44-2.49,3.79,0,5.24l8.85,5.11A10,10,0,0,0,934.7,631.21Zm22.78,13.16,8.79-5.08c2.5-1.44,2.48-3.79,0-5.24L957.4,629a10,10,0,0,0-9.07,0l-8.8,5.07c-2.49,1.45-2.48,3.79,0,5.24l8.85,5.11A10,10,0,0,0,957.48,644.37Zm22.78,13.15,8.79-5.08c2.5-1.44,2.48-3.79,0-5.24l-8.85-5.1a10,10,0,0,0-9.07,0l-8.79,5.08c-2.49,1.44-2.48,3.78,0,5.23l8.85,5.11A10,10,0,0,0,980.26,657.52ZM1003,670.67l8.79-5.08c2.49-1.44,2.48-3.78,0-5.23l-8.85-5.11a10,10,0,0,0-9.07,0l-8.79,5.08c-2.5,1.44-2.48,3.78,0,5.23l8.85,5.11A10,10,0,0,0,1003,670.67Zm4.86,8,8.85,5.1a10,10,0,0,0,9.07,0l8.79-5.08c2.49-1.44,2.48-3.78,0-5.23l-8.85-5.11a10,10,0,0,0-9.07,0l-8.79,5.08C1005.37,674.9,1005.39,677.24,1007.9,678.7Zm63.1,15.84-22.49-13a10,10,0,0,0-9.07,0l-8.79,5.08c-2.5,1.44-2.48,3.79,0,5.24l22.49,13a10,10,0,0,0,9.07,0l8.79-5.08C1073.53,698.33,1073.52,696,1071,694.54ZM739.39,548.61,779.91,572a11.32,11.32,0,0,0,10.25,0l7.62-4.4c2.82-1.63,2.8-4.28,0-5.92l-40.52-23.39a11.32,11.32,0,0,0-10.25,0l-7.62,4.4C736.53,544.32,736.55,547,739.39,548.61ZM795,580.73l7.67,4.43a11.32,11.32,0,0,0,10.25,0l7.61-4.4c2.82-1.63,2.81-4.28,0-5.92l-7.66-4.42a11.32,11.32,0,0,0-10.25,0l-7.62,4.4C792.17,576.45,792.18,579.09,795,580.73Zm22.78,13.15,7.67,4.43a11.3,11.3,0,0,0,10.24,0l7.62-4.4c2.82-1.63,2.81-4.28,0-5.92l-7.67-4.42a11.3,11.3,0,0,0-10.24,0l-7.62,4.4C815,589.6,815,592.25,817.8,593.88ZM840.58,607l7.67,4.42a11.3,11.3,0,0,0,10.24,0l7.62-4.4c2.82-1.63,2.81-4.28,0-5.91l-7.67-4.43a11.3,11.3,0,0,0-10.24,0l-7.62,4.4C837.73,602.75,837.74,605.4,840.58,607Zm22.78,13.15,7.67,4.42a11.3,11.3,0,0,0,10.24,0l7.62-4.4c2.82-1.63,2.81-4.27,0-5.91l-7.67-4.43a11.3,11.3,0,0,0-10.24,0l-7.62,4.4C860.51,615.9,860.52,618.55,863.36,620.19Zm22.78,13.15,7.66,4.42a11.32,11.32,0,0,0,10.25,0l7.62-4.4c2.82-1.62,2.81-4.27,0-5.91L904,623a11.35,11.35,0,0,0-10.25,0l-7.61,4.4C883.28,629.05,883.3,631.7,886.14,633.34Zm22.78,13.15,7.66,4.43a11.35,11.35,0,0,0,10.25,0l7.62-4.39c2.82-1.63,2.8-4.28,0-5.92l-7.67-4.43a11.32,11.32,0,0,0-10.25,0l-7.62,4.39C906.06,642.2,906.08,644.85,908.92,646.49Zm22.78,13.15,7.66,4.43a11.35,11.35,0,0,0,10.25,0l7.62-4.4c2.82-1.63,2.8-4.28,0-5.92l-7.66-4.43a11.35,11.35,0,0,0-10.25,0l-7.62,4.4C928.84,655.35,928.86,658,931.7,659.64Zm22.77,13.15,7.67,4.43a11.32,11.32,0,0,0,10.25,0l7.62-4.4c2.82-1.63,2.8-4.28,0-5.92l-7.66-4.42a11.32,11.32,0,0,0-10.25,0l-7.62,4.4C951.62,668.51,951.64,671.15,954.47,672.79Zm22.78,13.15,7.67,4.43a11.32,11.32,0,0,0,10.25,0l7.61-4.4c2.82-1.63,2.81-4.28,0-5.92l-7.66-4.42a11.32,11.32,0,0,0-10.25,0l-7.62,4.4C974.4,681.66,974.41,684.3,977.25,685.94ZM1000,699.09l7.67,4.43a11.3,11.3,0,0,0,10.24,0l7.62-4.4c2.82-1.63,2.81-4.28,0-5.91l-7.67-4.43a11.3,11.3,0,0,0-10.24,0l-7.62,4.4C997.18,694.81,997.19,697.46,1000,699.09Zm48.79,7.58-7.67-4.43a11.35,11.35,0,0,0-10.25,0l-7.62,4.4c-2.82,1.63-2.8,4.28,0,5.92L1031,717a11.32,11.32,0,0,0,10.25,0l7.62-4.4C1051.67,711,1051.65,708.31,1048.82,706.67ZM753.9,560.76,736.12,550.5a11.3,11.3,0,0,0-10.24,0l-7.62,4.4c-2.82,1.63-2.81,4.27,0,5.91l17.78,10.27a11.33,11.33,0,0,0,10.24,0l7.62-4.39C756.75,565.05,756.74,562.4,753.9,560.76Zm22.78,13.15L769,569.49a11.32,11.32,0,0,0-10.25,0l-7.61,4.4c-2.83,1.62-2.81,4.27,0,5.91l7.66,4.43a11.35,11.35,0,0,0,10.25,0l7.62-4.4C779.53,578.2,779.52,575.55,776.68,573.91Zm22.78,13.15-7.67-4.42a11.32,11.32,0,0,0-10.25,0l-7.62,4.4c-2.82,1.63-2.8,4.27,0,5.91l7.66,4.43a11.32,11.32,0,0,0,10.25,0l7.62-4.4C802.31,591.35,802.29,588.7,799.46,587.06Zm159.45,92.06L814.57,595.79a11.32,11.32,0,0,0-10.25,0l-7.62,4.4c-2.82,1.63-2.8,4.27,0,5.91l144.34,83.34a11.35,11.35,0,0,0,10.25,0l7.62-4.4C961.76,683.41,961.74,680.76,958.91,679.12Zm22.78,13.15L974,687.85a11.32,11.32,0,0,0-10.25,0l-7.62,4.4c-2.82,1.63-2.8,4.27,0,5.91l7.66,4.43a11.32,11.32,0,0,0,10.25,0l7.62-4.4C984.54,696.56,984.52,693.91,981.69,692.27Zm22.77,13.15L996.8,701a11.32,11.32,0,0,0-10.25,0l-7.62,4.4c-2.82,1.63-2.8,4.28,0,5.91l7.67,4.43a11.32,11.32,0,0,0,10.25,0l7.62-4.4C1007.32,709.71,1007.3,707.06,1004.46,705.42Zm23.26,13.43-7.67-4.43a11.35,11.35,0,0,0-10.25,0l-7.61,4.4c-2.83,1.63-2.81,4.28,0,5.92l7.66,4.43a11.35,11.35,0,0,0,10.25,0l7.62-4.39C1030.57,723.14,1030.56,720.49,1027.72,718.85Z"/><path class="cls-6" d="M823.57,497.06l19.2,11.09a9.76,9.76,0,0,0,8.82,0c2.43-1.4,2.42-3.68,0-5.09L832.36,492a9.76,9.76,0,0,0-8.82,0C821.11,493.37,821.12,495.65,823.57,497.06Zm32.88,19,9.1,5.25a9.76,9.76,0,0,0,8.82,0c2.43-1.4,2.42-3.68,0-5.09L865.25,511a9.76,9.76,0,0,0-8.82,0C854,512.36,854,514.64,856.45,516.05Zm22.78,13.15,9.1,5.26a9.75,9.75,0,0,0,8.82,0c2.43-1.4,2.42-3.68,0-5.09l-9.1-5.25a9.73,9.73,0,0,0-8.81,0C876.78,525.51,876.79,527.79,879.23,529.2ZM902,542.35l9.1,5.26a9.75,9.75,0,0,0,8.82,0c2.43-1.4,2.41-3.68,0-5.09l-9.1-5.25a9.76,9.76,0,0,0-8.82,0C899.56,538.66,899.57,540.94,902,542.35Zm22.78,13.15,9.1,5.26a9.72,9.72,0,0,0,8.82,0c2.43-1.4,2.41-3.68,0-5.09l-9.1-5.25a9.76,9.76,0,0,0-8.82,0C922.34,551.82,922.35,554.09,924.79,555.5Zm22.78,13.16,9.1,5.25a9.76,9.76,0,0,0,8.82,0c2.42-1.41,2.41-3.69,0-5.1l-9.1-5.25a9.76,9.76,0,0,0-8.82,0C945.11,565,945.13,567.25,947.57,568.66Zm22.78,13.15,9.1,5.25a9.76,9.76,0,0,0,8.82,0c2.42-1.4,2.41-3.68,0-5.09l-9.1-5.26a9.72,9.72,0,0,0-8.82,0C967.89,578.12,967.91,580.4,970.35,581.81ZM993.13,595l9.1,5.25a9.73,9.73,0,0,0,8.81,0c2.43-1.4,2.42-3.68,0-5.09l-9.1-5.26a9.75,9.75,0,0,0-8.82,0C990.67,591.27,990.68,593.55,993.13,595Zm22.78,13.15,9.09,5.25a9.76,9.76,0,0,0,8.82,0c2.43-1.4,2.42-3.68,0-5.09L1024.7,603a9.75,9.75,0,0,0-8.82,0C1013.45,604.42,1013.46,606.7,1015.91,608.11Zm22.77,13.15,9.1,5.25a9.76,9.76,0,0,0,8.82,0c2.43-1.4,2.42-3.68,0-5.09l-9.1-5.25a9.73,9.73,0,0,0-8.81,0C1036.23,617.57,1036.24,619.85,1038.68,621.26Zm22.78,13.15,9.1,5.26a9.75,9.75,0,0,0,8.82,0c2.43-1.4,2.42-3.68,0-5.09l-9.1-5.25a9.73,9.73,0,0,0-8.81,0C1059,630.72,1059,633,1061.46,634.41Zm22.78,13.15,9.1,5.26a9.75,9.75,0,0,0,8.82,0c2.43-1.4,2.41-3.68,0-5.09l-9.1-5.25a9.76,9.76,0,0,0-8.82,0C1081.79,643.87,1081.8,646.15,1084.24,647.56ZM1107.49,661l9.1,5.25a9.76,9.76,0,0,0,8.82,0c2.43-1.4,2.42-3.68,0-5.09l-9.09-5.26a9.75,9.75,0,0,0-8.82,0C1105,657.3,1105.05,659.58,1107.49,661ZM803.08,509.6l7.88,4.54a11,11,0,0,0,10,0l7.83-4.52c2.76-1.59,2.75-4.19,0-5.79l-7.88-4.55a11.11,11.11,0,0,0-10,0l-7.83,4.52C800.28,505.4,800.3,508,803.08,509.6Zm40.69,17.71,7.83-4.52c2.76-1.59,2.75-4.19,0-5.79l-7.88-4.55a11.13,11.13,0,0,0-10,0L825.83,517c-2.77,1.6-2.75,4.19,0,5.8l7.87,4.55A11.1,11.1,0,0,0,843.77,527.31Zm4.87,8.59,7.87,4.55a11.1,11.1,0,0,0,10,0l7.83-4.51c2.76-1.6,2.75-4.19,0-5.8l-7.88-4.55a11.13,11.13,0,0,0-10,0l-7.83,4.52C845.84,531.7,845.86,534.29,848.64,535.9Zm22.77,13.15,7.88,4.55a11.13,11.13,0,0,0,10,0l7.83-4.52c2.76-1.6,2.74-4.19,0-5.8l-7.87-4.55a11.1,11.1,0,0,0-10,0l-7.83,4.52C868.62,544.85,868.63,547.45,871.41,549.05Zm48.49,7.4L912,551.91a11.07,11.07,0,0,0-10,0l-7.83,4.52c-2.76,1.59-2.75,4.19,0,5.79l7.88,4.55a11.13,11.13,0,0,0,10,0l7.82-4.52C922.7,560.65,922.68,558.06,919.9,556.45Zm22.78,13.15-7.87-4.54a11.07,11.07,0,0,0-10,0l-7.83,4.52c-2.76,1.59-2.75,4.19,0,5.79l7.88,4.55a11.1,11.1,0,0,0,10,0l7.82-4.52C945.48,573.8,945.46,571.21,942.68,569.6Zm22.78,13.16-7.88-4.55a11,11,0,0,0-10,0l-7.83,4.52c-2.76,1.59-2.75,4.19,0,5.79l7.88,4.55a11,11,0,0,0,10,0l7.83-4.52C968.26,587,968.24,584.36,965.46,582.76Zm22.78,13.15-7.88-4.55a11.08,11.08,0,0,0-10,0l-7.83,4.52c-2.76,1.6-2.75,4.19,0,5.8l7.88,4.54a11,11,0,0,0,10,0l7.83-4.52C991,600.11,991,597.51,988.24,595.91ZM1011,609.06l-7.88-4.55a11.13,11.13,0,0,0-10,0L985.28,609c-2.77,1.6-2.75,4.19,0,5.8l7.88,4.54a11,11,0,0,0,10,0l7.83-4.52C1013.81,613.26,1013.8,610.66,1011,609.06Zm22.78,13.15-7.88-4.55a11.13,11.13,0,0,0-10,0l-7.82,4.52c-2.77,1.6-2.75,4.19,0,5.8l7.87,4.55a11.1,11.1,0,0,0,10,0l7.83-4.52C1036.59,626.41,1036.58,623.82,1033.8,622.21Zm-2.93,18.9,7.87,4.55a11.13,11.13,0,0,0,10,0l7.83-4.52c2.76-1.6,2.75-4.19,0-5.8l-7.88-4.55a11.1,11.1,0,0,0-10,0l-7.83,4.51C1028.07,636.91,1028.09,639.5,1030.87,641.11Zm48.48,7.4-7.87-4.55a11.1,11.1,0,0,0-10,0l-7.83,4.52c-2.76,1.59-2.75,4.19,0,5.79l7.88,4.55a11.13,11.13,0,0,0,10,0l7.83-4.52C1082.15,652.71,1082.13,650.12,1079.35,648.51Zm33.37,19.26-18-10.38a11.1,11.1,0,0,0-10,0l-7.82,4.52c-2.77,1.6-2.75,4.19,0,5.8l18,10.38a11.1,11.1,0,0,0,10,0l7.83-4.52C1115.51,672,1115.5,669.38,1112.72,667.77ZM782,521.78l18,10.38a11,11,0,0,0,10,0l7.83-4.52c2.76-1.59,2.75-4.19,0-5.79l-18-10.39a11.11,11.11,0,0,0-10,0L782,516C779.19,517.58,779.2,520.17,782,521.78Zm32.89,19,7.88,4.54a11,11,0,0,0,10,0l7.83-4.52c2.76-1.59,2.75-4.19,0-5.79l-7.88-4.55a11.08,11.08,0,0,0-10,0L814.84,535C812.07,536.57,812.09,539.16,814.87,540.77Zm30.65,17.69a11.07,11.07,0,0,0,10,0l7.83-4.52c2.76-1.59,2.75-4.19,0-5.79l-7.88-4.55a11.13,11.13,0,0,0-10,0l-7.82,4.52c-2.77,1.6-2.75,4.19,0,5.8Zm22.78,13.16a11.1,11.1,0,0,0,10,0l7.83-4.52c2.76-1.59,2.75-4.18,0-5.79l-7.88-4.55a11.13,11.13,0,0,0-10,0l-7.83,4.52c-2.76,1.6-2.74,4.19,0,5.8Zm22.7-1.71-7.83,4.51c-2.76,1.6-2.75,4.19,0,5.8l7.88,4.55a11.13,11.13,0,0,0,10,0l7.83-4.52c2.76-1.6,2.75-4.19,0-5.8L901,569.92A11.1,11.1,0,0,0,891,569.91Zm23.26,12.87-8.79,5.07c-2.5,1.45-2.48,3.79,0,5.24l8.85,5.11a10,10,0,0,0,9.07,0l8.79-5.07c2.49-1.44,2.48-3.79,0-5.24l-8.85-5.1A10,10,0,0,0,914.26,582.78ZM937,595.93,928.25,601c-2.5,1.44-2.48,3.78,0,5.23l8.84,5.11a10,10,0,0,0,9.07,0l8.8-5.08c2.49-1.44,2.48-3.79,0-5.24l-8.85-5.1A10,10,0,0,0,937,595.93Zm22.78,13.15L951,614.16c-2.5,1.44-2.49,3.78,0,5.23l8.84,5.11a10,10,0,0,0,9.07,0l8.79-5.08c2.5-1.44,2.49-3.78,0-5.23l-8.85-5.11A10,10,0,0,0,959.82,609.08Zm22.78,13.15-8.79,5.08c-2.5,1.44-2.49,3.78,0,5.24l8.84,5.1a10,10,0,0,0,9.07,0l8.79-5.08c2.5-1.44,2.49-3.78,0-5.23l-8.84-5.11A10,10,0,0,0,982.6,622.23Zm22.78,13.15-8.79,5.08c-2.5,1.44-2.49,3.79,0,5.24l8.85,5.1a10,10,0,0,0,9.07,0l8.79-5.08c2.5-1.44,2.49-3.78,0-5.23l-8.84-5.11A10,10,0,0,0,1005.38,635.38ZM1037.31,664l8.79-5.07c2.5-1.45,2.48-3.79,0-5.24l-8.84-5.11a10,10,0,0,0-9.07,0l-8.8,5.07c-2.49,1.44-2.48,3.79,0,5.24l8.85,5.11A10,10,0,0,0,1037.31,664Zm22.78,13.15,8.79-5.07c2.5-1.44,2.48-3.79,0-5.24L1060,661.7a10,10,0,0,0-9.07,0l-8.79,5.07c-2.49,1.44-2.48,3.79,0,5.24l8.85,5.11A10,10,0,0,0,1060.09,677.12Zm32,3.12-8.84-5.11a10,10,0,0,0-9.07,0l-8.79,5.08c-2.5,1.44-2.49,3.78,0,5.23l8.85,5.11a10,10,0,0,0,9.07,0l8.79-5.08C1094.63,684,1094.62,681.69,1092.1,680.24ZM760.4,533.68,789,550.17a10,10,0,0,0,9.07,0l8.79-5.07c2.5-1.44,2.48-3.79,0-5.24l-28.56-16.49a10,10,0,0,0-9.07,0l-8.79,5.07C757.87,529.88,757.88,532.23,760.4,533.68Zm42.49,24.53,8.85,5.11a10,10,0,0,0,9.07,0l8.79-5.08c2.49-1.44,2.48-3.79,0-5.24l-8.85-5.1a10,10,0,0,0-9.07,0L802.86,553C800.37,554.42,800.38,556.76,802.89,558.21Zm22.78,13.15,8.85,5.11a10,10,0,0,0,9.07,0l8.79-5.08c2.49-1.44,2.48-3.78,0-5.24l-8.85-5.1a10,10,0,0,0-9.07,0l-8.79,5.08C823.14,567.57,823.16,569.91,825.67,571.36Zm22.78,13.15,8.84,5.11a10,10,0,0,0,9.07,0l8.8-5.08c2.49-1.44,2.48-3.78,0-5.23l-8.85-5.11a10,10,0,0,0-9.07,0l-8.79,5.08C845.92,580.72,845.94,583.06,848.45,584.51Zm40.69,18.28,8.79-5.08c2.5-1.44,2.49-3.78,0-5.23l-8.85-5.11a10,10,0,0,0-9.07,0l-8.79,5.08c-2.5,1.44-2.49,3.79,0,5.24l8.84,5.1A10,10,0,0,0,889.14,602.79Zm22.78,13.15,8.79-5.07c2.5-1.45,2.49-3.79,0-5.24l-8.84-5.11a10,10,0,0,0-9.07,0L894,605.58c-2.5,1.44-2.49,3.79,0,5.24l8.84,5.1A10,10,0,0,0,911.92,615.94Zm22.78,13.15,8.79-5.07c2.5-1.45,2.49-3.79,0-5.24l-8.84-5.11a10,10,0,0,0-9.07,0l-8.79,5.07c-2.5,1.44-2.49,3.79,0,5.24l8.85,5.11A10,10,0,0,0,934.7,629.09Zm22.78,13.15,8.79-5.07c2.5-1.44,2.48-3.79,0-5.24l-8.84-5.11a10,10,0,0,0-9.07,0l-8.8,5.07c-2.49,1.44-2.48,3.79,0,5.24l8.85,5.11A10,10,0,0,0,957.48,642.24Zm22.78,13.15,8.79-5.07c2.5-1.44,2.48-3.79,0-5.24l-8.85-5.1a10,10,0,0,0-9.07,0L962.31,645c-2.49,1.45-2.48,3.79,0,5.24l8.85,5.11A10,10,0,0,0,980.26,655.39ZM1003,668.55l8.79-5.08c2.49-1.44,2.48-3.79,0-5.24l-8.85-5.1a10,10,0,0,0-9.07,0l-8.79,5.08c-2.5,1.44-2.48,3.78,0,5.23l8.85,5.11A10,10,0,0,0,1003,668.55Zm4.86,8,8.85,5.11a10,10,0,0,0,9.07,0l8.79-5.08c2.49-1.44,2.48-3.78,0-5.23l-8.85-5.11a10,10,0,0,0-9.07,0l-8.79,5.08C1005.37,672.78,1005.39,675.12,1007.9,676.57Zm63.1,15.85-22.49-13a10,10,0,0,0-9.07,0l-8.79,5.08c-2.5,1.44-2.48,3.78,0,5.24l22.49,13a10,10,0,0,0,9.07,0l8.79-5.08C1073.53,696.21,1073.52,693.87,1071,692.42ZM739.39,546.49l40.52,23.4a11.35,11.35,0,0,0,10.25,0l7.62-4.4c2.82-1.63,2.8-4.28,0-5.92l-40.52-23.4a11.35,11.35,0,0,0-10.25,0l-7.62,4.39C736.53,542.2,736.55,544.85,739.39,546.49ZM795,578.61l7.67,4.43a11.35,11.35,0,0,0,10.25,0l7.61-4.4c2.82-1.63,2.81-4.28,0-5.92l-7.66-4.42a11.32,11.32,0,0,0-10.25,0L795,572.7C792.17,574.32,792.18,577,795,578.61Zm22.78,13.15,7.67,4.43a11.3,11.3,0,0,0,10.24,0l7.62-4.4c2.82-1.63,2.81-4.28,0-5.92l-7.67-4.42a11.3,11.3,0,0,0-10.24,0l-7.62,4.4C815,587.48,815,590.12,817.8,591.76Zm22.78,13.15,7.67,4.43a11.3,11.3,0,0,0,10.24,0l7.62-4.4c2.82-1.63,2.81-4.28,0-5.92l-7.67-4.42a11.3,11.3,0,0,0-10.24,0l-7.62,4.4C837.73,600.63,837.74,603.28,840.58,604.91Zm22.78,13.16,7.67,4.42a11.3,11.3,0,0,0,10.24,0l7.62-4.4c2.82-1.63,2.81-4.28,0-5.91l-7.67-4.43a11.3,11.3,0,0,0-10.24,0l-7.62,4.4C860.51,613.78,860.52,616.43,863.36,618.07Zm22.78,13.15,7.66,4.42a11.32,11.32,0,0,0,10.25,0l7.62-4.4c2.82-1.63,2.81-4.27,0-5.91L904,620.92a11.32,11.32,0,0,0-10.25,0l-7.61,4.4C883.28,626.93,883.3,629.58,886.14,631.22Zm22.78,13.15,7.66,4.42a11.32,11.32,0,0,0,10.25,0l7.62-4.4c2.82-1.62,2.8-4.27,0-5.91l-7.67-4.43a11.35,11.35,0,0,0-10.25,0l-7.62,4.4C906.06,640.08,906.08,642.73,908.92,644.37Zm22.78,13.15,7.66,4.43a11.35,11.35,0,0,0,10.25,0l7.62-4.39c2.82-1.63,2.8-4.28,0-5.92l-7.66-4.43a11.35,11.35,0,0,0-10.25,0l-7.62,4.4C928.84,653.23,928.86,655.88,931.7,657.52Zm22.77,13.15,7.67,4.43a11.35,11.35,0,0,0,10.25,0l7.62-4.4c2.82-1.63,2.8-4.28,0-5.92l-7.66-4.43a11.35,11.35,0,0,0-10.25,0l-7.62,4.39C951.62,666.38,951.64,669,954.47,670.67Zm22.78,13.15,7.67,4.43a11.32,11.32,0,0,0,10.25,0l7.61-4.4c2.82-1.63,2.81-4.28,0-5.92l-7.66-4.42a11.32,11.32,0,0,0-10.25,0l-7.62,4.4C974.4,679.53,974.41,682.18,977.25,683.82ZM1000,697l7.67,4.43a11.3,11.3,0,0,0,10.24,0l7.62-4.4c2.82-1.63,2.81-4.28,0-5.92l-7.67-4.42a11.3,11.3,0,0,0-10.24,0l-7.62,4.4C997.18,692.69,997.19,695.33,1000,697Zm48.79,7.58-7.67-4.43a11.32,11.32,0,0,0-10.25,0l-7.62,4.4c-2.82,1.63-2.8,4.28,0,5.92l7.66,4.42a11.32,11.32,0,0,0,10.25,0l7.62-4.4C1051.67,708.83,1051.65,706.19,1048.82,704.55ZM753.9,558.64l-17.78-10.26a11.3,11.3,0,0,0-10.24,0l-7.62,4.4c-2.82,1.62-2.81,4.27,0,5.91l17.78,10.26a11.3,11.3,0,0,0,10.24,0l7.62-4.4C756.75,562.93,756.74,560.28,753.9,558.64Zm22.78,13.15L769,567.36a11.35,11.35,0,0,0-10.25,0l-7.61,4.4c-2.83,1.63-2.81,4.28,0,5.92l7.66,4.43a11.35,11.35,0,0,0,10.25,0l7.62-4.39C779.53,576.08,779.52,573.43,776.68,571.79Zm22.78,13.15-7.67-4.43a11.35,11.35,0,0,0-10.25,0l-7.62,4.39c-2.82,1.63-2.8,4.28,0,5.92l7.66,4.43a11.35,11.35,0,0,0,10.25,0l7.62-4.4C802.31,589.23,802.29,586.58,799.46,584.94ZM958.91,677,814.57,593.67a11.32,11.32,0,0,0-10.25,0l-7.62,4.4c-2.82,1.62-2.8,4.27,0,5.91L941.07,687.3a11.35,11.35,0,0,0,10.25,0l7.62-4.39C961.76,681.29,961.74,678.64,958.91,677Zm22.78,13.15L974,685.73a11.32,11.32,0,0,0-10.25,0l-7.62,4.4c-2.82,1.62-2.8,4.27,0,5.91l7.66,4.43a11.35,11.35,0,0,0,10.25,0l7.62-4.4C984.54,694.44,984.52,691.79,981.69,690.15Zm22.77,13.15-7.66-4.42a11.32,11.32,0,0,0-10.25,0l-7.62,4.4c-2.82,1.63-2.8,4.27,0,5.91l7.67,4.43a11.32,11.32,0,0,0,10.25,0l7.62-4.4C1007.32,707.59,1007.3,704.94,1004.46,703.3Zm23.26,13.43-7.67-4.43a11.32,11.32,0,0,0-10.25,0l-7.61,4.4c-2.83,1.63-2.81,4.28,0,5.92l7.66,4.42a11.32,11.32,0,0,0,10.25,0l7.62-4.4C1030.57,721,1030.56,718.37,1027.72,716.73Z"/><path class="cls-2" d="M1152.17,654.36,850.42,480c-11.68-6.74-21.15-24.84-21.15-40.41V202.91c0-15.58,9.47-22.74,21.15-16l301.75,174.32c11.68,6.74,21.15,24.84,21.15,40.41V638.37C1173.32,654,1163.85,661.11,1152.17,654.36Z"/><path class="cls-3" d="M1154.89,642.19,856.36,469.76c-9.4-6-15.21-17.92-15.21-30.13V201.76a3.75,3.75,0,0,1,5.64-3.23l.67.39,298.77,172.6c11.19,6.45,15.21,17.92,15.21,30.13V639a4,4,0,0,1-6,3.52Z"/><path class="cls-7" d="M1146.23,371.52,847.46,198.92l-.67-.39a3.75,3.75,0,0,0-5.64,3.23V439.63c0,12.21,5.81,24.15,15.21,30.13l298.53,172.43.5.29a4,4,0,0,0,6-3.52V401.65C1161.44,389.44,1157.42,378,1146.23,371.52ZM1159.07,639a1.68,1.68,0,0,1-1.68,1.68,1.64,1.64,0,0,1-.82-.23l-299-172.71c-8.49-5.4-14-16.44-14-28.08V201.76a1.38,1.38,0,0,1,1.39-1.37,1.32,1.32,0,0,1,.68.19l299.45,173c11.59,6.68,14,18.95,14,28.07Z"/><path class="cls-1" d="M1158.17,358.05,856.41,183.73c-4.62-2.67-8.89-3.16-12.37-1.81-.45.17-6.34,3.3-6.76,3.53h0c3.61-1.75,8.18-1.42,13.16,1.46l301.75,174.32c11.68,6.74,21.15,24.84,21.15,40.41V638.37c0,9.72-3.69,16.16-9.3,18a3.42,3.42,0,0,0,1.85-.63c.27-.15,6.67-3.76,6.93-3.94,4-2.82,6.52-8.6,6.52-16.61V398.47C1179.32,382.89,1169.85,364.8,1158.17,358.05Z"/><path class="cls-1" d="M1158.17,358.05,856.41,183.73c-4.62-2.67-8.89-3.16-12.37-1.81-.45.17-6.34,3.3-6.76,3.53h0c3.61-1.75,8.18-1.42,13.16,1.46l301.75,174.32Z"/><path class="cls-2" d="M1153.19,360.73,851.43,186.41c-4.79-2.77-9.19-3.16-12.74-1.63,3-.48,6.51.25,10.21,2.39l301.75,174.32c11.68,6.74,21.15,24.84,21.15,40.42V638.62c0,9.19-3.31,15.42-8.41,17.62,6.52-1,10.95-7.74,10.95-18.38V401.14C1174.34,385.57,1164.87,367.47,1153.19,360.73Z"/><polygon class="cls-8" points="471.74 562.49 471.74 586.08 304.35 489.15 304.35 465.56 471.74 562.49"/><polygon class="cls-9" points="471.67 562.49 471.67 586.08 585.58 519.67 585.58 496.15 471.67 562.49"/><polygon class="cls-10" points="585.58 496.15 471.67 562.49 304.35 465.56 470.25 429.66 585.58 496.15"/><polygon class="cls-11" points="471.69 521.25 471.69 558.79 310.42 465.39 310.42 427.85 471.69 521.25"/><polygon class="cls-12" points="471.63 521.25 471.63 558.79 579.51 495.9 579.51 458.43 471.63 521.25"/><polygon class="cls-8" points="471.74 462.94 471.74 551.04 304.35 454.12 304.35 366.02 471.74 462.94"/><polygon class="cls-13" points="471.67 462.94 471.67 551.04 585.58 484.64 585.58 396.61 471.67 462.94"/><polygon class="cls-14" points="585.58 396.61 471.67 462.94 304.35 366.02 418.38 299.61 585.58 396.61"/><polygon class="cls-11" points="471.69 421.71 471.69 459.25 310.42 365.84 310.42 328.3 471.69 421.71"/><polygon class="cls-15" points="471.63 421.71 471.63 459.25 579.51 396.36 579.51 358.88 471.63 421.71"/><polygon class="cls-9" points="471.74 462.8 471.74 550.9 304.35 453.98 304.35 365.88 471.74 462.8"/><polygon class="cls-9" points="471.67 462.8 471.67 550.9 585.58 484.5 585.58 396.47 471.67 462.8"/><polygon class="cls-10" points="585.58 396.47 471.67 462.8 304.35 365.88 418.38 299.47 585.58 396.47"/><polygon class="cls-11" points="471.69 421.57 471.69 459.11 310.42 365.7 310.42 328.16 471.69 421.57"/><polygon class="cls-12" points="471.63 421.57 471.63 459.11 579.51 396.22 579.51 358.74 471.63 421.57"/><polygon class="cls-2" points="479.22 471.87 479.22 532.02 578.48 474.16 578.48 414.07 479.22 471.87"/><polygon class="cls-3" points="480.27 472.71 480.27 532.86 579.53 475 579.53 414.91 480.27 472.71"/><polygon class="cls-2" points="576.33 473.15 576.33 420.49 483.48 474.56 483.48 527.28 576.33 473.15"/><polygon class="cls-16" points="570.05 452.59 570.05 432.75 490.27 478.56 490.27 498.44 570.05 452.59"/><polygon class="cls-6" points="567.52 434.2 567.52 451.12 490.27 495.52 490.27 498.44 570.05 452.59 570.05 432.75 567.52 434.2"/><polygon class="cls-17" points="502.82 484.7 497.4 487.82 497.4 481.61 502.82 478.49 502.82 484.7"/><polygon class="cls-17" points="512.99 478.82 507.58 481.95 507.58 475.74 512.99 472.61 512.99 478.82"/><polygon class="cls-17" points="523.16 472.95 517.75 476.08 517.75 469.87 523.16 466.74 523.16 472.95"/><polygon class="cls-18" points="533.33 467.08 527.92 470.21 527.92 463.99 533.33 460.87 533.33 467.08"/><polygon class="cls-18" points="543.5 461.21 538.09 464.33 538.09 458.12 543.5 455 543.5 461.21"/><polygon class="cls-19" points="553.67 455.34 548.26 458.46 548.26 452.25 553.67 449.12 553.67 455.34"/><polygon class="cls-19" points="563.85 449.46 558.43 452.59 558.43 446.38 563.85 443.25 563.85 449.46"/><polygon class="cls-8" points="471.74 363.17 471.74 451.27 304.35 354.34 304.35 266.24 471.74 363.17"/><polygon class="cls-13" points="471.67 363.17 471.67 451.27 585.58 384.86 585.58 296.83 471.67 363.17"/><polygon class="cls-14" points="585.58 296.83 471.67 363.17 304.35 266.24 418.38 199.84 585.58 296.83"/><polygon class="cls-11" points="471.69 321.93 471.69 359.47 310.42 266.06 310.42 228.52 471.69 321.93"/><polygon class="cls-15" points="471.63 321.93 471.63 359.47 579.51 296.58 579.51 259.11 471.63 321.93"/><polygon class="cls-2" points="471.74 362.89 471.74 450.99 304.35 354.06 304.35 265.96 471.74 362.89"/><polygon class="cls-9" points="471.67 362.89 471.67 450.99 585.58 384.58 585.58 296.55 471.67 362.89"/><polygon class="cls-10" points="585.58 296.55 471.67 362.89 304.35 265.96 418.38 199.55 585.58 296.55"/><polygon class="cls-11" points="471.69 321.65 471.69 359.19 310.42 265.78 310.42 228.24 471.69 321.65"/><polygon class="cls-12" points="471.63 321.65 471.63 359.19 579.51 296.3 579.51 258.83 471.63 321.65"/><polygon class="cls-2" points="471.74 263.11 471.74 351.21 304.35 254.28 304.35 166.18 471.74 263.11"/><polygon class="cls-9" points="471.67 263.11 471.67 351.21 585.58 284.8 585.58 196.77 471.67 263.11"/><polygon class="cls-10" points="585.58 196.77 471.67 263.11 304.35 166.18 418.38 99.78 585.58 196.77"/><polygon class="cls-9" points="471.69 221.87 471.69 259.41 310.42 166 310.42 128.46 471.69 221.87"/><polygon class="cls-12" points="471.63 221.87 471.63 259.41 579.51 196.52 579.51 159.05 471.63 221.87"/><polygon class="cls-2" points="479.22 272.18 479.22 332.33 578.48 274.46 578.48 214.37 479.22 272.18"/><polygon class="cls-3" points="480.27 273.02 480.27 333.17 579.53 275.3 579.53 215.21 480.27 273.02"/><polygon class="cls-2" points="576.33 273.46 576.33 220.8 483.48 274.87 483.48 327.58 576.33 273.46"/><polygon class="cls-16" points="570.05 252.9 570.05 233.06 490.27 278.86 490.27 298.75 570.05 252.9"/><polygon class="cls-6" points="567.52 234.5 567.52 251.43 490.27 295.83 490.27 298.75 570.05 252.9 570.05 233.06 567.52 234.5"/><polygon class="cls-17" points="502.82 285 497.4 288.13 497.4 281.92 502.82 278.79 502.82 285"/><polygon class="cls-17" points="512.99 279.13 507.58 282.26 507.58 276.04 512.99 272.92 512.99 279.13"/><polygon class="cls-17" points="523.16 273.26 517.75 276.38 517.75 270.17 523.16 267.05 523.16 273.26"/><polygon class="cls-18" points="533.33 267.39 527.92 270.51 527.92 264.3 533.33 261.17 533.33 267.39"/><polygon class="cls-18" points="543.5 261.51 538.09 264.64 538.09 258.43 543.5 255.3 543.5 261.51"/><polygon class="cls-19" points="553.67 255.64 548.26 258.77 548.26 252.56 553.67 249.43 553.67 255.64"/><polygon class="cls-19" points="563.85 249.77 558.43 252.9 558.43 246.68 563.85 243.56 563.85 249.77"/><polygon class="cls-2" points="479.22 372.23 479.22 432.39 578.48 374.52 578.48 314.43 479.22 372.23"/><polygon class="cls-3" points="480.27 373.07 480.27 433.23 579.53 375.36 579.53 315.27 480.27 373.07"/><polygon class="cls-2" points="576.33 373.52 576.33 320.85 483.48 374.92 483.48 427.64 576.33 373.52"/><polygon class="cls-16" points="570.05 352.96 570.05 333.11 490.27 378.92 490.27 398.81 570.05 352.96"/><polygon class="cls-6" points="567.52 334.56 567.52 351.49 490.27 395.88 490.27 398.81 570.05 352.96 570.05 333.11 567.52 334.56"/><polygon class="cls-17" points="502.82 385.06 497.4 388.19 497.4 381.97 502.82 378.85 502.82 385.06"/><polygon class="cls-17" points="512.99 379.19 507.58 382.31 507.58 376.1 512.99 372.98 512.99 379.19"/><polygon class="cls-17" points="523.16 373.32 517.75 376.44 517.75 370.23 523.16 367.1 523.16 373.32"/><polygon class="cls-18" points="533.33 367.44 527.92 370.57 527.92 364.36 533.33 361.23 533.33 367.44"/><polygon class="cls-18" points="543.5 361.57 538.09 364.7 538.09 358.49 543.5 355.36 543.5 361.57"/><polygon class="cls-19" points="553.67 355.7 548.26 358.83 548.26 352.61 553.67 349.49 553.67 355.7"/><polygon class="cls-19" points="563.85 349.83 558.43 352.95 558.43 346.74 563.85 343.62 563.85 349.83"/><polygon class="cls-2" points="471.74 163.33 471.74 251.43 304.35 154.51 304.35 66.41 471.74 163.33"/><polygon class="cls-9" points="471.67 163.33 471.67 251.43 585.58 185.03 585.58 97 471.67 163.33"/><polygon class="cls-3" points="585.58 97 471.67 163.33 304.35 66.41 418.38 0 585.58 97"/><polygon class="cls-3" points="585.58 97 471.67 163.33 304.35 66.41 471.77 160.88 585.58 97"/><polygon class="cls-2" points="479.01 172.19 479.01 232.34 578.27 174.47 578.27 114.39 479.01 172.19"/><polygon class="cls-3" points="480.27 173.24 480.27 233.39 579.53 175.53 579.53 115.44 480.27 173.24"/><polygon class="cls-2" points="576.33 173.68 576.33 121.02 483.48 175.09 483.48 227.81 576.33 173.68"/><polygon class="cls-16" points="570.05 153.12 570.05 133.28 490.27 179.09 490.27 198.97 570.05 153.12"/><polygon class="cls-6" points="567.74 134.6 567.74 151.86 490.27 196.38 490.27 198.97 570.05 153.12 570.05 133.28 567.74 134.6"/><polygon class="cls-17" points="502.82 185.23 497.4 188.35 497.4 182.14 502.82 179.01 502.82 185.23"/><polygon class="cls-18" points="512.99 179.35 507.58 182.48 507.58 176.27 512.99 173.14 512.99 179.35"/><polygon class="cls-18" points="523.16 173.48 517.75 176.61 517.75 170.4 523.16 167.27 523.16 173.48"/><polygon class="cls-18" points="533.33 167.61 527.92 170.74 527.92 164.52 533.33 161.4 533.33 167.61"/><polygon class="cls-19" points="543.5 161.74 538.09 164.86 538.09 158.65 543.5 155.52 543.5 161.74"/><polygon class="cls-19" points="553.67 155.87 548.26 158.99 548.26 152.78 553.67 149.65 553.67 155.87"/><polygon class="cls-19" points="563.85 149.99 558.43 153.12 558.43 146.91 563.85 143.78 563.85 149.99"/><polygon class="cls-2" points="332.16 643.21 332.16 666.8 164.77 569.87 164.77 546.28 332.16 643.21"/><polygon class="cls-9" points="332.1 643.21 332.1 666.8 446.01 600.39 446.01 576.87 332.1 643.21"/><polygon class="cls-10" points="446.01 576.87 332.1 643.21 164.77 546.28 330.67 510.38 446.01 576.87"/><polygon class="cls-9" points="332.12 601.97 332.12 639.51 170.85 546.11 170.85 508.56 332.12 601.97"/><polygon class="cls-12" points="332.06 601.97 332.06 639.51 439.93 576.62 439.93 539.15 332.06 601.97"/><polygon class="cls-2" points="332.16 543.66 332.16 631.76 164.77 534.84 164.77 446.74 332.16 543.66"/><polygon class="cls-9" points="332.1 543.66 332.1 631.76 446.01 565.36 446.01 477.33 332.1 543.66"/><polygon class="cls-10" points="446.01 477.33 332.1 543.66 164.77 446.74 278.81 380.33 446.01 477.33"/><polygon class="cls-9" points="332.12 502.43 332.12 539.97 170.85 446.56 170.85 409.02 332.12 502.43"/><polygon class="cls-12" points="332.06 502.43 332.06 539.97 439.93 477.08 439.93 439.6 332.06 502.43"/><polygon class="cls-9" points="344.44 549.19 344.44 606.69 432.87 556.68 432.87 499.24 344.44 549.19"/><path class="cls-3" d="M343.23,548.49l90.84-51.32v60.22l-90.84,51.36Zm88.43-47.19-86,48.6v54.73l86-48.65Z"/><polygon class="cls-8" points="543.38 587.45 543.38 634.93 370.11 536.68 412.24 512.92 543.38 587.45"/><polygon class="cls-14" points="548.19 584.65 543.31 587.45 412.24 512.92 417.25 510.04 548.19 584.65"/><path class="cls-20" d="M393.72,527.73V533L429,512.62a1.87,1.87,0,0,1,2.8,1.62v55.54l-67.34,39.14a5,5,0,0,1-5.09-.07L358,608a4.51,4.51,0,0,1-2.13-3.83V549.32a5.09,5.09,0,0,1,2.55-4.41l32.54-18.8A1.88,1.88,0,0,1,393.72,527.73Z"/><path class="cls-21" d="M429.79,513.26l-35.3,20.38v-1.09L429,512.62a1.86,1.86,0,0,1,2.47.57A1.8,1.8,0,0,0,429.79,513.26Z"/><path class="cls-21" d="M358.37,544.91l32.54-18.8a1.88,1.88,0,0,1,2.48.58,1.8,1.8,0,0,0-1.7.07l-32.55,18.79a5.09,5.09,0,0,0-2.55,4.41v54.82a4.52,4.52,0,0,0,1.24,3.09,4.49,4.49,0,0,1-2-3.74V549.32A5.09,5.09,0,0,1,358.37,544.91Z"/><polygon class="cls-3" points="435.29 564 359.29 607.88 359.29 559.59 435.29 515.71 435.29 564"/><path class="cls-20" d="M434.7,568.26l-70.35,40.62a4.91,4.91,0,0,1-4.76.07l-.46-.25.48.18a1.75,1.75,0,0,0,2.38-1.64v-38.9a5.09,5.09,0,0,1,2.55-4.41l70.65-40.79a1.87,1.87,0,0,1,2.8,1.62v37.8A6.58,6.58,0,0,1,434.7,568.26Z"/><path class="cls-21" d="M359.61,608.88a1.75,1.75,0,0,0,2.38-1.64v-38.9a5.09,5.09,0,0,1,2.55-4.41l70.65-40.79a1.87,1.87,0,0,1,2.33.39,1.88,1.88,0,0,0-1.66.09l-70.65,40.79a5.11,5.11,0,0,0-2.54,4.41v38.91a1.75,1.75,0,0,1-1.51,1.73,5,5,0,0,1-1.57-.51l-.46-.25Z"/><path class="cls-20" d="M408.79,536.74V542l35.3-20.38a1.87,1.87,0,0,1,2.8,1.62v55.54l-67.34,39.15a5,5,0,0,1-5.09-.08L373,617a4.51,4.51,0,0,1-2.13-3.83V558.32a5.09,5.09,0,0,1,2.55-4.41L406,535.12A1.87,1.87,0,0,1,408.79,536.74Z"/><path class="cls-21" d="M444.86,522.26l-35.3,20.38v-1.09l34.53-19.93a1.86,1.86,0,0,1,2.47.57A1.86,1.86,0,0,0,444.86,522.26Z"/><path class="cls-21" d="M373.44,553.91,406,535.12a1.86,1.86,0,0,1,2.47.57,1.83,1.83,0,0,0-1.7.07l-32.55,18.79a5.1,5.1,0,0,0-2.54,4.41v54.82a4.49,4.49,0,0,0,1.23,3.09,4.49,4.49,0,0,1-2-3.74V558.32A5.09,5.09,0,0,1,373.44,553.91Z"/><polygon class="cls-3" points="450.36 573 374.36 616.88 374.36 568.6 450.36 524.72 450.36 573"/><path class="cls-20" d="M449.77,577.26l-70.35,40.62a4.89,4.89,0,0,1-4.76.07l-.46-.25.48.19a1.76,1.76,0,0,0,2.38-1.64v-38.9a5.07,5.07,0,0,1,2.55-4.41l70.65-40.79a1.87,1.87,0,0,1,2.8,1.62v37.79A6.57,6.57,0,0,1,449.77,577.26Z"/><path class="cls-21" d="M374.68,617.89a1.76,1.76,0,0,0,2.38-1.64v-38.9a5.07,5.07,0,0,1,2.55-4.41l70.65-40.79a1.85,1.85,0,0,1,2.33.39,1.81,1.81,0,0,0-1.66.09l-70.65,40.79a5.1,5.1,0,0,0-2.54,4.41v38.9a1.76,1.76,0,0,1-1.51,1.74,5,5,0,0,1-1.57-.52l-.46-.25Z"/><path class="cls-22" d="M424.06,545.55v5.26l35.29-20.38a1.87,1.87,0,0,1,2.81,1.62v55.54l-67.34,39.14a5,5,0,0,1-5.09-.07l-1.44-.89a4.51,4.51,0,0,1-2.13-3.83V567.13a5.09,5.09,0,0,1,2.55-4.41l32.54-18.79A1.87,1.87,0,0,1,424.06,545.55Z"/><path class="cls-23" d="M460.13,531.07l-35.3,20.38v-1.09l34.52-19.93a1.87,1.87,0,0,1,2.48.57A1.8,1.8,0,0,0,460.13,531.07Z"/><path class="cls-23" d="M388.71,562.72l32.54-18.79a1.87,1.87,0,0,1,2.48.57,1.83,1.83,0,0,0-1.71.07l-32.54,18.79a5.09,5.09,0,0,0-2.55,4.41v54.82a4.51,4.51,0,0,0,1.23,3.09,4.51,4.51,0,0,1-2-3.74V567.13A5.09,5.09,0,0,1,388.71,562.72Z"/><polygon class="cls-3" points="465.63 581.81 389.63 625.69 389.63 577.4 465.63 533.52 465.63 581.81"/><path class="cls-22" d="M465,586.07l-70.35,40.62a4.91,4.91,0,0,1-4.76.07l-.46-.25.48.18a1.75,1.75,0,0,0,2.38-1.64v-38.9a5.09,5.09,0,0,1,2.55-4.41L465.53,541a1.87,1.87,0,0,1,2.8,1.62v37.8A6.58,6.58,0,0,1,465,586.07Z"/><path class="cls-23" d="M390,626.69a1.75,1.75,0,0,0,2.38-1.64v-38.9a5.09,5.09,0,0,1,2.55-4.41L465.53,541a1.86,1.86,0,0,1,2.33.4,1.81,1.81,0,0,0-1.66.09l-70.65,40.79a5.09,5.09,0,0,0-2.55,4.41v38.9a1.74,1.74,0,0,1-1.51,1.73,4.85,4.85,0,0,1-1.56-.51l-.46-.25Z"/><path class="cls-22" d="M439.13,554.55v5.26l35.3-20.38a1.87,1.87,0,0,1,2.8,1.62v55.54l-67.34,39.15a5,5,0,0,1-5.09-.07l-1.44-.9a4.5,4.5,0,0,1-2.13-3.82V576.13a5.09,5.09,0,0,1,2.55-4.41l32.54-18.79A1.87,1.87,0,0,1,439.13,554.55Z"/><path class="cls-23" d="M475.2,540.07l-35.3,20.38v-1.09l34.53-19.93a1.86,1.86,0,0,1,2.47.57A1.86,1.86,0,0,0,475.2,540.07Z"/><path class="cls-23" d="M403.78,571.72l32.54-18.79a1.87,1.87,0,0,1,2.48.57,1.85,1.85,0,0,0-1.71.07l-32.54,18.79a5.09,5.09,0,0,0-2.55,4.41v54.82a4.49,4.49,0,0,0,1.23,3.09,4.5,4.5,0,0,1-2-3.73V576.13A5.09,5.09,0,0,1,403.78,571.72Z"/><polygon class="cls-3" points="480.7 590.81 404.7 634.69 404.7 586.41 480.7 542.53 480.7 590.81"/><path class="cls-22" d="M480.11,595.07l-70.35,40.62a4.89,4.89,0,0,1-4.76.07l-.46-.25.48.19a1.75,1.75,0,0,0,2.38-1.64v-38.9a5.09,5.09,0,0,1,2.55-4.41L480.6,550a1.87,1.87,0,0,1,2.8,1.62v37.79A6.57,6.57,0,0,1,480.11,595.07Z"/><path class="cls-23" d="M405,635.7a1.75,1.75,0,0,0,2.38-1.64v-38.9a5.09,5.09,0,0,1,2.55-4.41L480.6,550a1.85,1.85,0,0,1,2.33.39,1.81,1.81,0,0,0-1.66.09l-70.65,40.79a5.1,5.1,0,0,0-2.54,4.41v38.9a1.76,1.76,0,0,1-1.52,1.74,5,5,0,0,1-1.56-.52l-.46-.25Z"/><path class="cls-22" d="M454.2,563.55v5.26l35.3-20.38a1.87,1.87,0,0,1,2.8,1.62V605.6L425,644.74a5,5,0,0,1-5.09-.07l-1.44-.89A4.51,4.51,0,0,1,416.3,640V585.13a5.09,5.09,0,0,1,2.55-4.41l32.54-18.79A1.87,1.87,0,0,1,454.2,563.55Z"/><path class="cls-23" d="M490.27,549.08,455,569.45v-1.08l34.53-19.94A1.85,1.85,0,0,1,492,549,1.8,1.8,0,0,0,490.27,549.08Z"/><path class="cls-23" d="M418.85,580.72l32.54-18.79a1.87,1.87,0,0,1,2.48.57,1.86,1.86,0,0,0-1.71.08l-32.54,18.79a5.09,5.09,0,0,0-2.55,4.41v54.81a4.48,4.48,0,0,0,1.24,3.1,4.5,4.5,0,0,1-2-3.74V585.13A5.09,5.09,0,0,1,418.85,580.72Z"/><polygon class="cls-3" points="495.77 599.81 419.77 643.69 419.77 595.41 495.77 551.53 495.77 599.81"/><path class="cls-22" d="M495.18,604.08l-70.35,40.61a4.86,4.86,0,0,1-4.76.07l-.46-.24.48.18a1.75,1.75,0,0,0,2.38-1.64v-38.9a5.09,5.09,0,0,1,2.55-4.41L495.67,559a1.87,1.87,0,0,1,2.8,1.62v37.79A6.58,6.58,0,0,1,495.18,604.08Z"/><path class="cls-23" d="M420.09,644.7a1.75,1.75,0,0,0,2.38-1.64v-38.9a5.09,5.09,0,0,1,2.55-4.41L495.67,559a1.85,1.85,0,0,1,2.33.39,1.88,1.88,0,0,0-1.66.09l-70.65,40.79a5.1,5.1,0,0,0-2.54,4.41v38.9a1.76,1.76,0,0,1-1.52,1.74,4.79,4.79,0,0,1-1.56-.52l-.46-.24Z"/><path class="cls-24" d="M469.47,572.36v5.26l35.29-20.38a1.87,1.87,0,0,1,2.81,1.62v52.41l-67.35,39.15a4.93,4.93,0,0,1-5.08-.08l-1.44-.89a4.49,4.49,0,0,1-2.13-3.82V593.94a5.1,5.1,0,0,1,2.54-4.41l32.55-18.79A1.87,1.87,0,0,1,469.47,572.36Z"/><path class="cls-25" d="M505.53,557.88l-35.29,20.38v-1.09l34.52-19.93a1.87,1.87,0,0,1,2.48.57A1.88,1.88,0,0,0,505.53,557.88Z"/><path class="cls-25" d="M434.11,589.53l32.55-18.79a1.86,1.86,0,0,1,2.47.57,1.86,1.86,0,0,0-1.7.07l-32.54,18.79a5.09,5.09,0,0,0-2.55,4.41v51.69a4.49,4.49,0,0,0,1.23,3.09,4.48,4.48,0,0,1-2-3.73V593.94A5.1,5.1,0,0,1,434.11,589.53Z"/><polygon class="cls-3" points="511.04 605.49 435.04 649.37 435.04 604.22 511.04 560.34 511.04 605.49"/><path class="cls-24" d="M510.45,609.75,440.1,650.37a4.89,4.89,0,0,1-4.76.07l-.46-.25.48.19a1.76,1.76,0,0,0,2.38-1.64V613a5.1,5.1,0,0,1,2.54-4.41l70.65-40.79a1.87,1.87,0,0,1,2.81,1.62v34.66A6.59,6.59,0,0,1,510.45,609.75Z"/><path class="cls-25" d="M435.36,650.38a1.76,1.76,0,0,0,2.38-1.64V613a5.1,5.1,0,0,1,2.54-4.41l70.65-40.79a1.86,1.86,0,0,1,2.34.39,1.81,1.81,0,0,0-1.66.09L441,609a5.09,5.09,0,0,0-2.55,4.41v35.77A1.75,1.75,0,0,1,436.9,651a4.87,4.87,0,0,1-1.56-.52l-.46-.25Z"/><path class="cls-24" d="M484.54,581.36v5.26l35.29-20.38a1.87,1.87,0,0,1,2.81,1.62v52.42l-67.35,39.14a4.93,4.93,0,0,1-5.08-.07l-1.44-.89a4.49,4.49,0,0,1-2.13-3.83V602.94a5.1,5.1,0,0,1,2.54-4.41l32.55-18.79A1.87,1.87,0,0,1,484.54,581.36Z"/><path class="cls-25" d="M520.61,566.89l-35.3,20.38v-1.09l34.52-19.94a1.87,1.87,0,0,1,2.48.58A1.8,1.8,0,0,0,520.61,566.89Z"/><path class="cls-25" d="M449.18,598.53l32.55-18.79a1.86,1.86,0,0,1,2.48.58,1.83,1.83,0,0,0-1.71.07L450,599.18a5.09,5.09,0,0,0-2.55,4.41v51.68a4.52,4.52,0,0,0,1.23,3.1,4.53,4.53,0,0,1-2-3.74V602.94A5.1,5.1,0,0,1,449.18,598.53Z"/><polygon class="cls-3" points="526.11 614.49 450.11 658.37 450.11 613.22 526.11 569.34 526.11 614.49"/><path class="cls-24" d="M525.52,618.76l-70.35,40.61a4.86,4.86,0,0,1-4.76.07l-.46-.24.48.18a1.75,1.75,0,0,0,2.38-1.64V622a5.1,5.1,0,0,1,2.54-4.41L526,576.77a1.87,1.87,0,0,1,2.81,1.62v34.66A6.61,6.61,0,0,1,525.52,618.76Z"/><path class="cls-25" d="M450.43,659.38a1.75,1.75,0,0,0,2.38-1.64V622a5.1,5.1,0,0,1,2.54-4.41L526,576.77a1.86,1.86,0,0,1,2.34.39,1.88,1.88,0,0,0-1.66.09L456,618a5.09,5.09,0,0,0-2.55,4.41v35.77A1.75,1.75,0,0,1,452,660a4.63,4.63,0,0,1-1.56-.52l-.46-.24Z"/><polygon class="cls-2" points="464.35 635.83 464.35 671.53 345.77 604.04 345.77 568.33 464.35 635.83"/><polygon class="cls-10" points="469.17 633.03 464.28 635.83 345.77 568.33 345.77 562.45 469.17 633.03"/><polygon class="cls-2" points="463.23 624.48 463.23 684.63 457.78 681.52 457.78 621.37 463.23 624.48"/><polygon class="cls-3" points="463.18 624.48 463.18 684.63 562.44 626.77 562.44 566.67 463.18 624.48"/><polygon class="cls-2" points="559.23 624.92 559.23 572.26 466.39 626.33 466.39 679.04 559.23 624.92"/><polygon class="cls-10" points="562.44 566.67 463.18 624.48 457.78 621.37 557.14 563.5 562.44 566.67"/><polygon class="cls-3" points="561.64 566.27 561.64 567.84 463.68 624.88 463.68 683.47 462.38 684.23 462.38 624.08 561.64 566.27"/><polygon class="cls-16" points="552.67 604.92 552.67 585.08 472.89 630.88 472.89 650.77 552.67 604.92"/><polygon class="cls-6" points="549.94 586.65 549.94 604.08 472.89 648.36 472.89 650.77 552.67 604.92 552.67 585.08 549.94 586.65"/><polygon class="cls-17" points="485.44 637.03 480.03 640.15 480.03 633.94 485.44 630.81 485.44 637.03"/><polygon class="cls-17" points="495.61 631.15 490.2 634.28 490.2 628.07 495.61 624.94 495.61 631.15"/><polygon class="cls-18" points="505.78 625.28 500.37 628.41 500.37 622.2 505.78 619.07 505.78 625.28"/><polygon class="cls-18" points="515.96 619.41 510.54 622.53 510.54 616.32 515.96 613.2 515.96 619.41"/><polygon class="cls-18" points="526.13 613.54 520.71 616.66 520.71 610.45 526.13 607.33 526.13 613.54"/><polygon class="cls-19" points="536.3 607.66 530.88 610.79 530.88 604.58 536.3 601.45 536.3 607.66"/><polygon class="cls-19" points="546.47 601.79 541.05 604.92 541.05 598.71 546.47 595.58 546.47 601.79"/><polygon class="cls-2" points="332.16 443.61 332.16 531.71 164.77 434.78 164.77 346.68 332.16 443.61"/><polygon class="cls-9" points="332.1 443.61 332.1 531.71 446.01 465.3 446.01 377.27 332.1 443.61"/><polygon class="cls-10" points="446.01 377.27 332.1 443.61 164.77 346.68 278.81 280.27 446.01 377.27"/><polygon class="cls-9" points="332.12 402.37 332.12 439.91 170.85 346.5 170.85 308.96 332.12 402.37"/><polygon class="cls-12" points="332.06 402.37 332.06 439.91 439.93 377.02 439.93 339.55 332.06 402.37"/><polygon class="cls-9" points="344.44 449.14 344.44 506.63 432.87 456.63 432.87 399.18 344.44 449.14"/><path class="cls-3" d="M343.23,448.43l90.84-51.31v60.21L343.23,508.7Zm88.43-47.19-86,48.6v54.73l86-48.65Z"/><polygon class="cls-8" points="497.81 463.5 497.81 510.98 370.11 436.62 412.24 412.86 497.81 463.5"/><polygon class="cls-14" points="502.63 460.7 497.74 463.5 412.24 412.86 417.25 409.98 502.63 460.7"/><path class="cls-22" d="M395.73,431.4v5.26L431,416.28a1.87,1.87,0,0,1,2.81,1.62v55.54l-67.35,39.15a4.93,4.93,0,0,1-5.08-.07l-1.44-.89a4.5,4.5,0,0,1-2.13-3.83V453a5.1,5.1,0,0,1,2.54-4.41l32.55-18.79A1.87,1.87,0,0,1,395.73,431.4Z"/><path class="cls-23" d="M431.8,416.92,396.5,437.3v-1.09L431,416.28a1.87,1.87,0,0,1,2.48.57A1.86,1.86,0,0,0,431.8,416.92Z"/><path class="cls-23" d="M360.37,448.57l32.55-18.79a1.87,1.87,0,0,1,2.48.57,1.88,1.88,0,0,0-1.71.07l-32.54,18.79a5.1,5.1,0,0,0-2.55,4.41v54.82a4.48,4.48,0,0,0,1.23,3.09,4.5,4.5,0,0,1-2-3.73V453A5.1,5.1,0,0,1,360.37,448.57Z"/><polygon class="cls-3" points="437.3 467.66 361.3 511.54 361.3 463.26 437.3 419.38 437.3 467.66"/><path class="cls-22" d="M436.71,471.93l-70.35,40.61a4.86,4.86,0,0,1-4.76.07l-.46-.25.48.19a1.75,1.75,0,0,0,2.38-1.64V472a5.1,5.1,0,0,1,2.54-4.41l70.65-40.79a1.87,1.87,0,0,1,2.81,1.62v37.79A6.58,6.58,0,0,1,436.71,471.93Z"/><path class="cls-23" d="M361.62,512.55a1.75,1.75,0,0,0,2.38-1.64V472a5.1,5.1,0,0,1,2.54-4.41l70.65-40.79a1.86,1.86,0,0,1,2.34.39,1.81,1.81,0,0,0-1.66.09l-70.65,40.79a5.09,5.09,0,0,0-2.55,4.41v38.9a1.75,1.75,0,0,1-1.51,1.74,4.87,4.87,0,0,1-1.56-.52l-.46-.25Z"/><path class="cls-22" d="M411,440.21v5.26l35.3-20.38a1.87,1.87,0,0,1,2.81,1.62v55.54L381.75,521.4a5,5,0,0,1-5.09-.08l-1.43-.89a4.5,4.5,0,0,1-2.14-3.83V461.79a5.11,5.11,0,0,1,2.55-4.41l32.55-18.79A1.87,1.87,0,0,1,411,440.21Z"/><path class="cls-23" d="M447.06,425.73l-35.3,20.38V445l34.53-19.93a1.87,1.87,0,0,1,2.48.57A1.85,1.85,0,0,0,447.06,425.73Z"/><path class="cls-23" d="M375.64,457.38l32.55-18.79a1.86,1.86,0,0,1,2.47.57,1.83,1.83,0,0,0-1.7.07L376.41,458a5.1,5.1,0,0,0-2.54,4.41v54.82a4.49,4.49,0,0,0,1.23,3.09,4.49,4.49,0,0,1-2-3.74V461.79A5.11,5.11,0,0,1,375.64,457.38Z"/><polygon class="cls-3" points="452.56 476.47 376.56 520.35 376.56 472.06 452.56 428.19 452.56 476.47"/><path class="cls-22" d="M452,480.73l-70.34,40.62a4.89,4.89,0,0,1-4.76.07l-.46-.25.47.18a1.75,1.75,0,0,0,2.38-1.63v-38.9a5.12,5.12,0,0,1,2.55-4.42l70.65-40.78a1.87,1.87,0,0,1,2.81,1.61V475A6.58,6.58,0,0,1,452,480.73Z"/><path class="cls-23" d="M376.88,521.35a1.75,1.75,0,0,0,2.38-1.63V480.81a5.12,5.12,0,0,1,2.55-4.41l70.65-40.78a1.85,1.85,0,0,1,2.33.39,1.79,1.79,0,0,0-1.65.09l-70.65,40.79a5.09,5.09,0,0,0-2.55,4.41v38.9a1.76,1.76,0,0,1-1.51,1.74,4.87,4.87,0,0,1-1.56-.52l-.46-.25Z"/><path class="cls-22" d="M426.06,449.21v5.26l35.3-20.38a1.87,1.87,0,0,1,2.81,1.62v55.55L396.82,530.4a5,5,0,0,1-5.09-.07l-1.43-.89a4.49,4.49,0,0,1-2.13-3.83V470.79a5.1,5.1,0,0,1,2.54-4.41l32.55-18.79A1.87,1.87,0,0,1,426.06,449.21Z"/><path class="cls-23" d="M462.13,434.74l-35.29,20.37V454l34.52-19.93a1.87,1.87,0,0,1,2.48.57A1.86,1.86,0,0,0,462.13,434.74Z"/><path class="cls-23" d="M390.71,466.38l32.55-18.79a1.86,1.86,0,0,1,2.47.57,1.86,1.86,0,0,0-1.7.07L391.48,467a5.09,5.09,0,0,0-2.54,4.41v54.81a4.52,4.52,0,0,0,1.23,3.1,4.51,4.51,0,0,1-2-3.74V470.79A5.1,5.1,0,0,1,390.71,466.38Z"/><polygon class="cls-3" points="467.64 485.47 391.63 529.35 391.63 481.07 467.64 437.19 467.64 485.47"/><path class="cls-22" d="M467,489.74,396.7,530.35a4.86,4.86,0,0,1-4.76.07l-.46-.24.47.18a1.76,1.76,0,0,0,2.39-1.64v-38.9a5.1,5.1,0,0,1,2.54-4.41l70.65-40.79a1.87,1.87,0,0,1,2.81,1.62V484A6.59,6.59,0,0,1,467,489.74Z"/><path class="cls-23" d="M392,530.36a1.76,1.76,0,0,0,2.39-1.64v-38.9a5.1,5.1,0,0,1,2.54-4.41l70.65-40.79a1.84,1.84,0,0,1,2.33.39,1.82,1.82,0,0,0-1.65.09l-70.65,40.79A5.09,5.09,0,0,0,395,490.3v38.9a1.76,1.76,0,0,1-1.51,1.74,4.63,4.63,0,0,1-1.56-.52l-.46-.24Z"/><path class="cls-24" d="M441.13,458.21v5.26l35.3-20.37a1.87,1.87,0,0,1,2.81,1.62v55.54L411.89,539.4a4.93,4.93,0,0,1-5.08-.07l-1.44-.89a4.49,4.49,0,0,1-2.13-3.83V479.8a5.11,5.11,0,0,1,2.54-4.42l32.55-18.79A1.87,1.87,0,0,1,441.13,458.21Z"/><path class="cls-25" d="M477.2,443.74l-35.29,20.38V463l34.52-19.93a1.87,1.87,0,0,1,2.48.57A1.83,1.83,0,0,0,477.2,443.74Z"/><path class="cls-25" d="M405.78,475.38l32.55-18.79a1.87,1.87,0,0,1,2.47.58,1.81,1.81,0,0,0-1.7.07L406.55,476a5.1,5.1,0,0,0-2.54,4.41v54.81a4.52,4.52,0,0,0,1.23,3.1,4.48,4.48,0,0,1-2-3.74V479.8A5.11,5.11,0,0,1,405.78,475.38Z"/><polygon class="cls-3" points="482.71 494.48 406.7 538.36 406.7 490.07 482.71 446.19 482.71 494.48"/><path class="cls-24" d="M482.12,498.74l-70.35,40.62a4.91,4.91,0,0,1-4.76.07l-.46-.25.48.18a1.76,1.76,0,0,0,2.38-1.64v-38.9a5.1,5.1,0,0,1,2.54-4.41l70.65-40.79a1.87,1.87,0,0,1,2.81,1.62V493A6.6,6.6,0,0,1,482.12,498.74Z"/><path class="cls-25" d="M407,539.36a1.76,1.76,0,0,0,2.38-1.64v-38.9a5.1,5.1,0,0,1,2.54-4.41l70.65-40.79a1.87,1.87,0,0,1,2.33.39,1.85,1.85,0,0,0-1.65.09l-70.65,40.79a5.09,5.09,0,0,0-2.55,4.41v38.91a1.74,1.74,0,0,1-1.51,1.73,4.85,4.85,0,0,1-1.56-.51l-.46-.25Z"/><polygon class="cls-2" points="428.86 517.71 428.86 553.41 345.77 503.98 345.77 468.27 428.86 517.71"/><polygon class="cls-10" points="455.48 527.69 450.6 530.49 345.15 468.27 345.15 462.39 455.48 527.69"/><polygon class="cls-2" points="419.62 502.61 419.62 562.76 414.16 559.64 414.16 499.49 419.62 502.61"/><polygon class="cls-3" points="419.56 502.61 419.56 562.76 518.82 504.89 518.82 444.8 419.56 502.61"/><polygon class="cls-2" points="515.61 503.05 515.61 450.38 422.77 504.45 422.77 557.17 515.61 503.05"/><polygon class="cls-10" points="518.82 444.8 419.56 502.61 414.16 499.49 513.53 441.63 518.82 444.8"/><polygon class="cls-3" points="518.02 444.4 518.02 445.96 420.06 503.01 420.06 561.6 418.76 562.36 418.76 502.2 518.02 444.4"/><polygon class="cls-16" points="509.34 482.49 509.34 462.64 429.56 508.45 429.56 528.34 509.34 482.49"/><polygon class="cls-6" points="507.02 463.97 507.02 481.44 429.56 525.96 429.56 528.34 509.34 482.49 509.34 462.64 507.02 463.97"/><polygon class="cls-17" points="442.11 514.59 436.69 517.72 436.69 511.5 442.11 508.38 442.11 514.59"/><polygon class="cls-17" points="452.28 508.72 446.87 511.85 446.87 505.63 452.28 502.51 452.28 508.72"/><polygon class="cls-17" points="462.45 502.85 457.04 505.97 457.04 499.76 462.45 496.63 462.45 502.85"/><polygon class="cls-18" points="472.62 496.98 467.21 500.1 467.21 493.89 472.62 490.76 472.62 496.98"/><polygon class="cls-18" points="482.79 491.1 477.38 494.23 477.38 488.02 482.79 484.89 482.79 491.1"/><polygon class="cls-18" points="492.96 485.23 487.55 488.36 487.55 482.14 492.96 479.02 492.96 485.23"/><polygon class="cls-19" points="503.13 479.36 497.72 482.48 497.72 476.27 503.13 473.15 503.13 479.36"/><polygon class="cls-2" points="332.16 343.83 332.16 431.93 164.77 335 164.77 246.9 332.16 343.83"/><polygon class="cls-9" points="332.1 343.83 332.1 431.93 446.01 365.52 446.01 277.49 332.1 343.83"/><polygon class="cls-10" points="452.01 280.49 338.1 346.83 170.77 249.9 284.81 183.5 452.01 280.49"/><polygon class="cls-9" points="332.12 302.59 332.12 340.13 170.85 246.72 170.85 209.18 332.12 302.59"/><polygon class="cls-12" points="332.06 302.59 332.06 340.13 439.93 277.24 439.93 239.77 332.06 302.59"/><polygon class="cls-2" points="332.16 244.05 332.16 332.15 164.77 235.22 164.77 147.13 332.16 244.05"/><polygon class="cls-9" points="332.1 244.05 332.1 332.15 446.01 265.74 446.01 177.72 332.1 244.05"/><polygon class="cls-3" points="446.01 177.72 332.1 244.05 164.77 147.13 278.81 80.72 446.01 177.72"/><polygon class="cls-3" points="446.01 177.72 332.1 244.05 164.77 147.13 332.2 241.59 446.01 177.72"/><polygon class="cls-2" points="339.44 252.91 339.44 313.06 438.7 255.19 438.7 195.1 339.44 252.91"/><polygon class="cls-3" points="340.7 253.96 340.7 314.11 439.96 256.25 439.96 196.16 340.7 253.96"/><polygon class="cls-2" points="436.75 254.4 436.75 201.74 343.91 255.81 343.91 308.52 436.75 254.4"/><polygon class="cls-16" points="430.47 233.84 430.47 214 350.69 259.8 350.69 279.69 430.47 233.84"/><polygon class="cls-6" points="428.16 215.32 428.16 232.58 350.69 277.1 350.69 279.69 430.47 233.84 430.47 214 428.16 215.32"/><polygon class="cls-17" points="363.24 265.94 357.83 269.07 357.83 262.86 363.24 259.73 363.24 265.94"/><polygon class="cls-18" points="373.41 260.07 368 263.2 368 256.99 373.41 253.86 373.41 260.07"/><polygon class="cls-18" points="383.58 254.2 378.17 257.33 378.17 251.11 383.58 247.99 383.58 254.2"/><polygon class="cls-18" points="393.76 248.33 388.34 251.45 388.34 245.24 393.76 242.12 393.76 248.33"/><polygon class="cls-19" points="403.93 242.46 398.51 245.58 398.51 239.37 403.93 236.24 403.93 242.46"/><polygon class="cls-19" points="414.1 236.58 408.68 239.71 408.68 233.5 414.1 230.37 414.1 236.58"/><polygon class="cls-19" points="424.27 230.71 418.85 233.84 418.85 227.62 424.27 224.5 424.27 230.71"/><polygon class="cls-9" points="344.44 349.36 344.44 406.86 432.87 356.85 432.87 299.4 344.44 349.36"/><path class="cls-3" d="M343.23,348.66l90.84-51.32v60.21l-90.84,51.37Zm88.43-47.2-86,48.6v54.73l86-48.64Z"/><polygon class="cls-8" points="464.84 342.73 464.84 390.21 370.11 336.84 412.24 313.08 464.84 342.73"/><polygon class="cls-14" points="469.66 339.93 464.77 342.73 412.24 313.08 417.25 310.2 469.66 339.93"/><path class="cls-22" d="M393.09,328.44v5.26l35.3-20.38a1.87,1.87,0,0,1,2.81,1.62v55.54l-67.35,39.15a5,5,0,0,1-5.09-.07l-1.43-.9a4.49,4.49,0,0,1-2.13-3.82V350a5.1,5.1,0,0,1,2.54-4.41l32.55-18.79A1.87,1.87,0,0,1,393.09,328.44Z"/><path class="cls-23" d="M429.16,314l-35.29,20.38v-1.09l34.52-19.93a1.87,1.87,0,0,1,2.48.57A1.88,1.88,0,0,0,429.16,314Z"/><path class="cls-23" d="M357.74,345.61l32.55-18.79a1.86,1.86,0,0,1,2.47.57,1.83,1.83,0,0,0-1.7.07l-32.55,18.79a5.1,5.1,0,0,0-2.54,4.41v54.82a4.49,4.49,0,0,0,1.23,3.09,4.48,4.48,0,0,1-2-3.73V350A5.1,5.1,0,0,1,357.74,345.61Z"/><polygon class="cls-3" points="434.67 364.7 358.66 408.58 358.66 360.3 434.67 316.42 434.67 364.7"/><path class="cls-22" d="M434.07,369l-70.34,40.62a4.89,4.89,0,0,1-4.76.07l-.46-.25.47.19a1.76,1.76,0,0,0,2.39-1.64v-38.9a5.1,5.1,0,0,1,2.54-4.41l70.65-40.79a1.87,1.87,0,0,1,2.81,1.62v37.79A6.58,6.58,0,0,1,434.07,369Z"/><path class="cls-23" d="M359,409.59a1.76,1.76,0,0,0,2.39-1.64v-38.9a5.1,5.1,0,0,1,2.54-4.41l70.65-40.79a1.84,1.84,0,0,1,2.33.39,1.79,1.79,0,0,0-1.65.09l-70.65,40.79a5.09,5.09,0,0,0-2.55,4.41v38.9a1.76,1.76,0,0,1-1.51,1.74,4.87,4.87,0,0,1-1.56-.52l-.46-.25Z"/><path class="cls-24" d="M408.16,337.44v5.26l35.3-20.38a1.87,1.87,0,0,1,2.81,1.62v55.55l-67.35,39.14a4.93,4.93,0,0,1-5.08-.07l-1.44-.89a4.49,4.49,0,0,1-2.13-3.83V359a5.1,5.1,0,0,1,2.54-4.41l32.55-18.79A1.87,1.87,0,0,1,408.16,337.44Z"/><path class="cls-25" d="M444.23,323l-35.29,20.37v-1.08l34.52-19.94a1.86,1.86,0,0,1,2.48.58A1.83,1.83,0,0,0,444.23,323Z"/><path class="cls-25" d="M372.81,354.61l32.55-18.79a1.86,1.86,0,0,1,2.47.57,1.83,1.83,0,0,0-1.7.08l-32.55,18.79a5.1,5.1,0,0,0-2.54,4.41v54.81a4.52,4.52,0,0,0,1.23,3.1,4.49,4.49,0,0,1-2-3.74V359A5.1,5.1,0,0,1,372.81,354.61Z"/><polygon class="cls-3" points="449.74 373.7 373.73 417.58 373.73 369.3 449.74 325.42 449.74 373.7"/><path class="cls-24" d="M449.15,378,378.8,418.58a4.86,4.86,0,0,1-4.76.07l-.46-.24.48.18a1.76,1.76,0,0,0,2.38-1.64v-38.9a5.1,5.1,0,0,1,2.54-4.41l70.65-40.79a1.87,1.87,0,0,1,2.81,1.62v37.79A6.61,6.61,0,0,1,449.15,378Z"/><path class="cls-25" d="M374.06,418.59a1.76,1.76,0,0,0,2.38-1.64v-38.9a5.1,5.1,0,0,1,2.54-4.41l70.65-40.79a1.84,1.84,0,0,1,2.33.39,1.85,1.85,0,0,0-1.65.09l-70.65,40.79a5.09,5.09,0,0,0-2.55,4.41v38.9a1.76,1.76,0,0,1-1.51,1.74,4.63,4.63,0,0,1-1.56-.52l-.46-.24Z"/><polygon class="cls-2" points="395.89 396.94 395.89 432.64 345.77 404.2 345.77 368.5 395.89 396.94"/><polygon class="cls-10" points="423.13 406.92 418.25 409.72 345.77 368.5 345.77 362.62 423.13 406.92"/><polygon class="cls-2" points="386.65 381.83 386.65 441.99 381.19 438.87 381.19 378.72 386.65 381.83"/><polygon class="cls-3" points="386.59 381.83 386.59 441.99 485.85 384.12 485.85 324.03 386.59 381.83"/><polygon class="cls-2" points="482.64 382.28 482.64 329.61 389.8 383.68 389.8 436.4 482.64 382.28"/><polygon class="cls-10" points="485.85 324.03 386.59 381.83 381.19 378.72 480.56 320.85 485.85 324.03"/><polygon class="cls-3" points="485.05 323.63 485.05 325.19 387.1 382.24 387.1 440.82 385.79 441.58 385.79 381.43 485.05 323.63"/><polygon class="cls-16" points="476.37 361.71 476.37 341.87 396.59 387.68 396.59 407.56 476.37 361.71"/><polygon class="cls-6" points="474.05 343.2 474.05 360.66 396.59 405.19 396.59 407.56 476.37 361.71 476.37 341.87 474.05 343.2"/><polygon class="cls-17" points="409.14 393.82 403.72 396.94 403.72 390.73 409.14 387.61 409.14 393.82"/><polygon class="cls-17" points="419.31 387.95 413.89 391.07 413.89 384.86 419.31 381.73 419.31 387.95"/><polygon class="cls-17" points="429.48 382.07 424.07 385.2 424.07 378.99 429.48 375.86 429.48 382.07"/><polygon class="cls-18" points="439.65 376.2 434.24 379.33 434.24 373.12 439.65 369.99 439.65 376.2"/><polygon class="cls-18" points="449.82 370.33 444.41 373.46 444.41 367.24 449.82 364.12 449.82 370.33"/><polygon class="cls-18" points="459.99 364.46 454.58 367.58 454.58 361.37 459.99 358.25 459.99 364.46"/><polygon class="cls-19" points="470.16 358.59 464.75 361.71 464.75 355.5 470.16 352.37 470.16 358.59"/><polygon class="cls-2" points="190.9 725.61 190.9 749.2 23.52 652.27 23.52 628.68 190.9 725.61"/><polygon class="cls-9" points="190.84 725.61 190.84 749.2 304.75 682.79 304.75 659.27 190.84 725.61"/><polygon class="cls-10" points="304.75 659.27 190.84 725.61 23.52 628.68 189.41 592.78 304.75 659.27"/><polygon class="cls-9" points="190.86 684.37 190.86 721.91 29.59 628.5 29.59 590.96 190.86 684.37"/><polygon class="cls-12" points="190.8 684.37 190.8 721.91 298.68 659.02 298.68 621.55 190.8 684.37"/><polygon class="cls-8" points="190.9 626.06 190.9 714.16 23.52 617.24 23.52 529.14 190.9 626.06"/><polygon class="cls-13" points="190.84 626.06 190.84 714.16 304.75 647.76 304.75 559.73 190.84 626.06"/><polygon class="cls-14" points="304.75 559.73 190.84 626.06 23.52 529.14 137.55 462.73 304.75 559.73"/><polygon class="cls-11" points="190.86 584.83 190.86 622.37 29.59 528.96 29.59 491.42 190.86 584.83"/><polygon class="cls-15" points="190.8 584.83 190.8 622.37 298.68 559.48 298.68 522 190.8 584.83"/><polygon class="cls-2" points="190.9 625.92 190.9 714.02 23.52 617.1 23.52 529 190.9 625.92"/><polygon class="cls-9" points="190.84 625.92 190.84 714.02 304.75 647.62 304.75 559.59 190.84 625.92"/><polygon class="cls-10" points="304.75 559.59 190.84 625.92 23.52 529 137.55 462.59 304.75 559.59"/><polygon class="cls-9" points="190.86 584.68 190.86 622.23 29.59 528.82 29.59 491.28 190.86 584.68"/><polygon class="cls-12" points="190.8 584.68 190.8 622.23 298.68 559.34 298.68 521.86 190.8 584.68"/><polygon class="cls-2" points="198.39 634.99 198.39 695.14 297.65 637.28 297.65 577.19 198.39 634.99"/><polygon class="cls-3" points="199.44 635.83 199.44 695.98 298.7 638.12 298.7 578.03 199.44 635.83"/><polygon class="cls-2" points="295.49 636.27 295.49 583.61 202.65 637.68 202.65 690.4 295.49 636.27"/><polygon class="cls-16" points="289.21 615.71 289.21 595.87 209.44 641.67 209.44 661.56 289.21 615.71"/><polygon class="cls-6" points="286.69 597.32 286.69 614.24 209.44 658.64 209.44 661.56 289.21 615.71 289.21 595.87 286.69 597.32"/><polygon class="cls-17" points="221.99 647.82 216.57 650.94 216.57 644.73 221.99 641.6 221.99 647.82"/><polygon class="cls-17" points="232.16 641.94 226.74 645.07 226.74 638.86 232.16 635.73 232.16 641.94"/><polygon class="cls-17" points="242.33 636.07 236.91 639.2 236.91 632.99 242.33 629.86 242.33 636.07"/><polygon class="cls-18" points="252.5 630.2 247.08 633.33 247.08 627.11 252.5 623.99 252.5 630.2"/><polygon class="cls-18" points="262.67 624.33 257.25 627.45 257.25 621.24 262.67 618.12 262.67 624.33"/><polygon class="cls-19" points="272.84 618.46 267.43 621.58 267.43 615.37 272.84 612.24 272.84 618.46"/><polygon class="cls-19" points="283.01 612.58 277.6 615.71 277.6 609.5 283.01 606.37 283.01 612.58"/><polygon class="cls-8" points="190.9 526.29 190.9 614.38 23.52 517.46 23.52 429.36 190.9 526.29"/><polygon class="cls-13" points="190.84 526.29 190.84 614.38 304.75 547.98 304.75 459.95 190.84 526.29"/><polygon class="cls-14" points="304.75 459.95 190.84 526.29 23.52 429.36 137.55 362.95 304.75 459.95"/><polygon class="cls-11" points="190.86 485.05 190.86 522.59 29.59 429.18 29.59 391.64 190.86 485.05"/><polygon class="cls-15" points="190.8 485.05 190.8 522.59 298.68 459.7 298.68 422.23 190.8 485.05"/><polygon class="cls-2" points="190.9 526.01 190.9 614.11 23.52 517.18 23.52 429.08 190.9 526.01"/><polygon class="cls-9" points="190.84 526.01 190.84 614.11 304.75 547.7 304.75 459.67 190.84 526.01"/><polygon class="cls-10" points="304.75 459.67 190.84 526.01 23.52 429.08 137.55 362.67 304.75 459.67"/><polygon class="cls-9" points="190.86 484.77 190.86 522.31 29.59 428.9 29.59 391.36 190.86 484.77"/><polygon class="cls-12" points="190.8 484.77 190.8 522.31 298.68 459.42 298.68 421.94 190.8 484.77"/><polygon class="cls-2" points="190.9 426.23 190.9 514.33 23.52 417.4 23.52 329.3 190.9 426.23"/><polygon class="cls-9" points="190.84 426.23 190.84 514.33 304.75 447.92 304.75 359.89 190.84 426.23"/><polygon class="cls-10" points="304.75 359.89 190.84 426.23 23.52 329.3 137.55 262.9 304.75 359.89"/><polygon class="cls-9" points="190.86 384.99 190.86 422.53 29.59 329.12 29.59 291.58 190.86 384.99"/><polygon class="cls-12" points="190.8 384.99 190.8 422.53 298.68 359.64 298.68 322.17 190.8 384.99"/><polygon class="cls-2" points="198.39 435.3 198.39 495.45 297.65 437.58 297.65 377.49 198.39 435.3"/><polygon class="cls-3" points="199.44 436.14 199.44 496.29 298.7 438.42 298.7 378.33 199.44 436.14"/><polygon class="cls-2" points="295.49 436.58 295.49 383.92 202.65 437.98 202.65 490.7 295.49 436.58"/><polygon class="cls-16" points="289.21 416.02 289.21 396.17 209.44 441.98 209.44 461.87 289.21 416.02"/><polygon class="cls-6" points="286.69 397.62 286.69 414.55 209.44 458.95 209.44 461.87 289.21 416.02 289.21 396.17 286.69 397.62"/><polygon class="cls-17" points="221.99 448.12 216.57 451.25 216.57 445.04 221.99 441.91 221.99 448.12"/><polygon class="cls-17" points="232.16 442.25 226.74 445.38 226.74 439.16 232.16 436.04 232.16 442.25"/><polygon class="cls-17" points="242.33 436.38 236.91 439.5 236.91 433.29 242.33 430.17 242.33 436.38"/><polygon class="cls-18" points="252.5 430.5 247.08 433.63 247.08 427.42 252.5 424.29 252.5 430.5"/><polygon class="cls-18" points="262.67 424.63 257.25 427.76 257.25 421.55 262.67 418.42 262.67 424.63"/><polygon class="cls-19" points="272.84 418.76 267.43 421.89 267.43 415.67 272.84 412.55 272.84 418.76"/><polygon class="cls-19" points="283.01 412.89 277.6 416.01 277.6 409.8 283.01 406.68 283.01 412.89"/><polygon class="cls-2" points="198.39 535.35 198.39 595.5 297.65 537.64 297.65 477.55 198.39 535.35"/><polygon class="cls-3" points="199.44 536.19 199.44 596.35 298.7 538.48 298.7 478.39 199.44 536.19"/><polygon class="cls-2" points="295.49 536.64 295.49 483.97 202.65 538.04 202.65 590.76 295.49 536.64"/><polygon class="cls-16" points="289.21 516.08 289.21 496.23 209.44 542.04 209.44 561.92 289.21 516.08"/><polygon class="cls-6" points="286.69 497.68 286.69 514.6 209.44 559 209.44 561.92 289.21 516.08 289.21 496.23 286.69 497.68"/><polygon class="cls-17" points="221.99 548.18 216.57 551.3 216.57 545.09 221.99 541.97 221.99 548.18"/><polygon class="cls-17" points="232.16 542.31 226.74 545.43 226.74 539.22 232.16 536.09 232.16 542.31"/><polygon class="cls-17" points="242.33 536.43 236.91 539.56 236.91 533.35 242.33 530.22 242.33 536.43"/><polygon class="cls-18" points="252.5 530.56 247.08 533.69 247.08 527.48 252.5 524.35 252.5 530.56"/><polygon class="cls-18" points="262.67 524.69 257.25 527.82 257.25 521.6 262.67 518.48 262.67 524.69"/><polygon class="cls-19" points="272.84 518.82 267.43 521.94 267.43 515.73 272.84 512.61 272.84 518.82"/><polygon class="cls-19" points="283.01 512.95 277.6 516.07 277.6 509.86 283.01 506.73 283.01 512.95"/><polygon class="cls-2" points="190.9 326.45 190.9 414.55 23.52 317.62 23.52 229.53 190.9 326.45"/><polygon class="cls-9" points="190.84 326.45 190.84 414.55 304.75 348.14 304.75 260.12 190.84 326.45"/><polygon class="cls-3" points="304.75 260.12 190.84 326.45 23.52 229.53 137.55 163.12 304.75 260.12"/><polygon class="cls-3" points="304.75 260.12 190.84 326.45 23.52 229.53 190.94 324 304.75 260.12"/><polygon class="cls-2" points="198.18 335.31 198.18 395.46 297.44 337.59 297.44 277.5 198.18 335.31"/><polygon class="cls-3" points="199.44 336.36 199.44 396.51 298.7 338.64 298.7 278.56 199.44 336.36"/><polygon class="cls-2" points="295.49 336.8 295.49 284.14 202.65 338.21 202.65 390.92 295.49 336.8"/><polygon class="cls-16" points="289.21 316.24 289.21 296.4 209.44 342.2 209.44 362.09 289.21 316.24"/><polygon class="cls-6" points="286.9 297.72 286.9 314.98 209.44 359.5 209.44 362.09 289.21 316.24 289.21 296.4 286.9 297.72"/><polygon class="cls-17" points="221.99 348.35 216.57 351.47 216.57 345.26 221.99 342.13 221.99 348.35"/><polygon class="cls-18" points="232.16 342.47 226.74 345.6 226.74 339.38 232.16 336.26 232.16 342.47"/><polygon class="cls-18" points="242.33 336.6 236.91 339.73 236.91 333.51 242.33 330.39 242.33 336.6"/><polygon class="cls-18" points="252.5 330.73 247.08 333.85 247.08 327.64 252.5 324.51 252.5 330.73"/><polygon class="cls-19" points="262.67 324.86 257.25 327.98 257.25 321.77 262.67 318.64 262.67 324.86"/><polygon class="cls-19" points="272.84 318.98 267.43 322.11 267.43 315.9 272.84 312.77 272.84 318.98"/><polygon class="cls-19" points="283.01 313.11 277.6 316.24 277.6 310.02 283.01 306.9 283.01 313.11"/><path class="cls-1" d="M949.89,831.4c-9.08,0-17.42-1.93-23.48-5.43L588.06,630.62c-6.36-3.67-9.86-8.83-9.86-14.52,0-6.76,5-13.5,13.6-18.49l192-110.86c8.36-4.83,19.42-7.6,30.33-7.6,9.07,0,17.41,1.94,23.48,5.44L1176,679.94c6.36,3.67,9.86,8.83,9.86,14.52,0,6.76-5,13.49-13.6,18.48l-192,110.87C971.86,828.63,960.8,831.4,949.89,831.4ZM814.15,482.52c-10.34,0-20.78,2.6-28.65,7.14l-192,110.87c-7.57,4.37-11.92,10.05-11.92,15.57,0,4.44,2.9,8.56,8.18,11.61L928.09,823.06c5.56,3.21,13.31,5,21.8,5,10.34,0,20.78-2.61,28.65-7.15l192-110.86c7.58-4.37,11.92-10,11.92-15.57,0-4.44-2.91-8.57-8.18-11.61L836,487.5C830.38,484.29,822.64,482.52,814.15,482.52Z"/><path class="cls-1" d="M193.23,762.59h0c-9,0-18.07-2.28-24.95-6.26l-157-90.64C4.11,661.55,0,656,0,650.31c0-4.77,2.92-9.08,8.22-12.14L401.51,409c5-2.89,11.89-4.49,19.36-4.49,9,0,18.07,2.28,24.95,6.26l157,90.64c7.17,4.14,11.28,9.74,11.28,15.38,0,4.77-2.92,9.08-8.21,12.14L212.59,758.1C207.58,761,200.7,762.59,193.23,762.59ZM420.87,407.88c-6.89,0-13.17,1.43-17.67,4L9.9,641.07c-4.22,2.44-6.54,5.72-6.54,9.24,0,4.4,3.5,9,9.6,12.47l157,90.64a47.86,47.86,0,0,0,23.27,5.8c6.89,0,13.17-1.43,17.67-4L604.2,526c4.22-2.43,6.54-5.71,6.54-9.23,0-4.4-3.5-8.95-9.6-12.47l-157-90.64A47.86,47.86,0,0,0,420.87,407.88Z"/><path class="cls-1" d="M684.09,777.7a1.69,1.69,0,0,1-.83-3.15L761.86,730a1.68,1.68,0,1,1,1.66,2.92l-78.6,44.57A1.66,1.66,0,0,1,684.09,777.7Z"/><path class="cls-1" d="M545.05,856.77,454.91,804a1.68,1.68,0,0,1,1.7-2.9l88.47,51.8,80.2-45.47a1.69,1.69,0,0,1,1.67,2.93Z"/><path class="cls-1" d="M356.6,746.15a1.65,1.65,0,0,1-.85-.23l-60.42-35.38a1.68,1.68,0,1,1,1.71-2.9L357.45,743a1.68,1.68,0,0,1-.85,3.13Z"/><path class="cls-1" d="M700.52,850.45a20.55,20.55,0,0,1-10.1-2.36L552,768.17c-2.93-1.68-4.53-4.1-4.53-6.8,0-3.13,2.21-6.2,6.06-8.42L587,733.72c6.54-3.78,17.23-4.22,23-.88l138.42,79.92c2.93,1.68,4.53,4.1,4.53,6.8,0,3.13-2.2,6.2-6.06,8.42l-33.44,19.23A26.51,26.51,0,0,1,700.52,850.45ZM599.86,733.84a23.11,23.11,0,0,0-11.22,2.79L555.2,755.86c-2.78,1.61-4.38,3.61-4.38,5.51s1.55,3.14,2.85,3.89L692.1,845.18c4.75,2.74,14.08,2.33,19.64-.88l33.45-19.23c2.77-1.61,4.37-3.62,4.37-5.51s-1.55-3.14-2.85-3.89L608.28,735.75A17.19,17.19,0,0,0,599.86,733.84Z"/><path class="cls-1" d="M398.2,821.5c-39.1,0-70.92-18.85-70.92-42s31.82-42,70.92-42,70.92,18.85,70.92,42S437.31,821.5,398.2,821.5Zm0-80.64c-37.25,0-67.55,17.33-67.55,38.63s30.3,38.64,67.55,38.64,67.56-17.33,67.56-38.64S435.46,740.86,398.2,740.86Z"/><polygon class="cls-26" points="600.83 682.66 570.25 700.33 600.83 717.99 631.4 700.32 600.83 682.66"/><polygon class="cls-27" points="570.23 766.45 600.82 784.11 600.82 717.98 570.23 700.32 570.23 766.45"/><polygon class="cls-28" points="600.81 784.11 631.4 766.45 631.4 700.32 600.81 717.98 600.81 784.11"/><polygon class="cls-3" points="600.83 716.32 570.25 700.33 600.83 717.99 631.4 700.32 600.83 716.32"/><polygon class="cls-29" points="651.17 658.9 620.6 676.58 651.17 694.24 681.74 676.56 651.17 658.9"/><polygon class="cls-30" points="620.57 793.27 651.16 810.93 651.16 694.22 620.57 676.56 620.57 793.27"/><polygon class="cls-31" points="651.15 810.93 681.74 793.27 681.74 676.56 651.15 694.22 651.15 810.93"/><polygon class="cls-32" points="701.43 640.51 670.86 658.18 701.43 675.84 732 658.17 701.43 640.51"/><polygon class="cls-3" points="651.17 692.57 620.6 676.58 651.17 694.24 681.74 676.56 651.17 692.57"/><polygon class="cls-3" points="701.43 674.18 670.86 658.18 701.43 675.84 732 658.17 701.43 674.18"/><polygon class="cls-33" points="670.83 820.87 701.42 838.53 701.42 675.83 670.83 658.17 670.83 820.87"/><polygon class="cls-34" points="701.42 838.53 732 820.87 732 658.17 701.42 675.83 701.42 838.53"/><path class="cls-33" d="M398.09,731.72,339,731.61c-.1-18.84,26.27-34.07,58.9-34s59.18,15.38,59.28,34.23Q457.26,746,440,755.92Z"/><polygon class="cls-32" points="339 731.61 339 776.01 398.09 776.01 398.09 731.72 339 731.61"/><polygon class="cls-34" points="440 755.92 440 800.32 398.09 776.01 398.09 731.72 440 755.92"/><path class="cls-32" d="M440,755.92v44.4q17.26-10,17.18-24.09v-44.4Q457.26,746,440,755.92Z"/><path class="cls-3" d="M456.82,728.73a20.8,20.8,0,0,1,.22,2.74q.07,14.13-17.18,24.1L398,731.37,339,731.26c0,.31,0,.61,0,.92l59.09.1L440,756.48q17.26-10,17.18-24.09A20.27,20.27,0,0,0,456.82,728.73Z"/><path class="cls-31" d="M413.23,790.5,398.09,760l.18,50.26q24.48,0,41.73-9.92V784.14Z"/><path class="cls-30" d="M398.09,759.94,440,784.14q-17.25,10-41.73,9.92Z"/><path class="cls-35" d="M398.27,793.77l-.18-33.26h0l.18,34.12q24.48,0,41.73-9.92l-.75-.43Q422.23,793.81,398.27,793.77Z"/><path class="cls-28" d="M398.16,781.57l-.07-12.22-21.17,0L339,747.42V776c.1,18.85,26.64,34.17,59.27,34.23v-28.6Z"/><path class="cls-27" d="M398.09,747.52l.18,34.12c-32.63-.06-59.17-15.38-59.27-34.22h0Z"/><path class="cls-35" d="M398.09,748.09h-.28l.18,33.13c-29.17-.06-53.45-12.31-58.36-28.36,4.19,16.54,28.88,29.29,58.64,29.34Z"/><path class="cls-19" d="M1093.9,446.44a13.12,13.12,0,0,0,6,10.28c3.29,1.9,6,.38,6-3.4a13.15,13.15,0,0,0-6-10.28C1096.57,441.14,1093.9,442.66,1093.9,446.44Z"/><path class="cls-19" d="M1041.21,426.82a13.12,13.12,0,0,0,6,10.28c3.29,1.91,6,.38,6-3.39a13.15,13.15,0,0,0-6-10.29C1043.88,421.52,1041.21,423,1041.21,426.82Z"/><path class="cls-19" d="M1074.15,419.11a13.12,13.12,0,0,0,6,10.29c3.29,1.9,6,.38,6-3.4a13.17,13.17,0,0,0-6-10.29C1076.81,413.81,1074.15,415.33,1074.15,419.11Z"/><path class="cls-19" d="M1047.66,404.82a13.13,13.13,0,0,0,6,10.28c3.29,1.9,6,.38,6-3.4a13.15,13.15,0,0,0-6-10.28C1050.33,399.52,1047.66,401,1047.66,404.82Z"/><path class="cls-19" d="M923.22,314.85a13.17,13.17,0,0,0,6,10.29c3.29,1.9,6,.37,6-3.4a13.15,13.15,0,0,0-6-10.29C925.89,309.55,923.22,311.07,923.22,314.85Z"/><path class="cls-19" d="M1111.14,488.06a13.13,13.13,0,0,0,6,10.28c3.3,1.91,6,.38,6-3.4a13.13,13.13,0,0,0-6-10.28C1113.81,482.76,1111.14,484.28,1111.14,488.06Z"/><path class="cls-19" d="M1017.81,372a13.13,13.13,0,0,0,6,10.28c3.3,1.9,6,.38,6-3.4a13.11,13.11,0,0,0-6-10.28C1020.48,366.73,1017.81,368.25,1017.81,372Z"/><path class="cls-19" d="M989.22,368.66a13.15,13.15,0,0,0,6,10.29c3.3,1.9,6,.38,6-3.4a13.12,13.12,0,0,0-6-10.28C991.89,363.36,989.22,364.89,989.22,368.66Z"/><path class="cls-19" d="M983.76,395.15a13.13,13.13,0,0,0,6,10.28c3.29,1.9,6,.38,6-3.4a13.15,13.15,0,0,0-6-10.28C986.43,389.85,983.76,391.37,983.76,395.15Z"/><path class="cls-19" d="M946.34,330.55a13.13,13.13,0,0,0,6,10.28c3.3,1.9,6,.38,6-3.4a13.11,13.11,0,0,0-6-10.28C949,325.25,946.34,326.77,946.34,330.55Z"/><path class="cls-19" d="M1022.58,399.49a13.12,13.12,0,0,0,6,10.29c3.29,1.9,6,.38,6-3.4a13.13,13.13,0,0,0-6-10.28C1025.24,394.19,1022.58,395.72,1022.58,399.49Z"/><path class="cls-19" d="M1045,372a13.13,13.13,0,0,0,6,10.28c3.29,1.9,6,.38,6-3.4a13.13,13.13,0,0,0-6-10.28C1047.67,366.73,1045,368.25,1045,372Z"/><path class="cls-19" d="M1070.78,455.55a13.13,13.13,0,0,0,6,10.28c3.3,1.9,6,.38,6-3.4a13.12,13.12,0,0,0-6-10.28C1073.45,450.25,1070.78,451.77,1070.78,455.55Z"/><path class="cls-19" d="M967.08,353a13.13,13.13,0,0,0,6,10.28c3.3,1.9,6,.38,6-3.4a13.13,13.13,0,0,0-6-10.28C969.75,347.67,967.08,349.19,967.08,353Z"/><path class="cls-19" d="M945.08,359a13.15,13.15,0,0,0,6,10.29c3.29,1.9,6,.38,6-3.4a13.13,13.13,0,0,0-6-10.28C947.75,353.69,945.08,355.22,945.08,359Z"/><path class="cls-19" d="M988,342.6a13.13,13.13,0,0,0,6,10.28c3.3,1.9,6,.38,6-3.4a13.12,13.12,0,0,0-6-10.28C990.63,337.3,988,338.82,988,342.6Z"/><path class="cls-2" d="M1177.78,687.22l-247-142.68c-9.56-5.52-17.31-20.33-17.31-33.08V317.71c0-12.75,7.75-18.61,17.31-13.09l247,142.68c9.56,5.52,17.31,20.33,17.31,33.08V674.13C1195.09,686.88,1187.34,692.74,1177.78,687.22Z"/><path class="cls-1" d="M1182.69,444.69,935.71,302c-3.78-2.18-7.28-2.58-10.13-1.48-.36.14-5.19,2.7-5.53,2.89h0c3-1.43,6.69-1.16,10.77,1.19l247,142.68c9.56,5.52,17.31,20.33,17.31,33.08V674.13c0,8-3,13.23-7.61,14.72a2.9,2.9,0,0,0,1.52-.51c.22-.13,5.45-3.08,5.66-3.23,3.29-2.3,5.34-7,5.34-13.59V477.77C1200,465,1192.25,450.21,1182.69,444.69Z"/><path class="cls-1" d="M1178.61,446.88l-247-142.67c-3.92-2.27-7.52-2.59-10.42-1.34a12.81,12.81,0,0,1,8.35,2l247,142.68c9.57,5.52,17.32,20.33,17.32,33.08V674.33c0,7.53-2.71,12.62-6.89,14.43,5.34-.85,9-6.34,9-15V480C1195.92,467.21,1188.17,452.4,1178.61,446.88Z"/><path class="cls-2" d="M919.52,320.45V512.17c0,10.25,4.88,20.28,12.77,25.3L1183,682.26l.42.24a3.4,3.4,0,0,0,5.08-3V480.28a40.62,40.62,0,0,0-.29-4.7Z"/><path class="cls-1" d="M1186.14,681.72l-.42-.24L935.05,536.68c-7.9-5-12.78-15-12.78-25.3V322l-2.75-1.59V512.17c0,10.25,4.88,20.28,12.77,25.3L1183,682.26l.42.24a3.36,3.36,0,0,0,3.9-.4A3.32,3.32,0,0,1,1186.14,681.72Z"/><polygon class="cls-17" points="1042.56 433.87 1029.48 426.32 1029.48 573.74 1042.56 581.29 1042.56 433.87"/><polygon class="cls-17" points="1061.4 426.48 1048.32 418.93 1048.32 584.45 1061.4 592 1061.4 426.48"/><polygon class="cls-17" points="1080.79 459.78 1067.71 452.23 1067.71 595.53 1080.79 603.09 1080.79 459.78"/><polygon class="cls-17" points="990.69 470.17 990.69 550.93 1003.77 558.48 1003.77 477.72 990.69 470.17"/><polygon class="cls-17" points="1023.17 447.72 1010.09 440.16 1010.09 562.01 1023.17 569.56 1023.17 447.72"/><polygon class="cls-17" points="1099.82 500.71 1086.74 493.16 1086.74 606.62 1099.82 614.17 1099.82 500.71"/><polygon class="cls-17" points="1118.47 521.17 1105.39 513.62 1105.39 617.51 1118.47 625.07 1118.47 521.17"/><polygon class="cls-17" points="984.38 456.17 971.29 448.61 971.29 539.23 984.38 546.79 984.38 456.17"/><polygon class="cls-17" points="932.51 461.52 932.51 516.42 945.59 523.98 945.59 469.07 932.51 461.52"/><polygon class="cls-17" points="964.98 439.98 951.9 432.43 951.9 527.51 964.98 535.06 964.98 439.98"/><polygon class="cls-33" points="1042.56 491.74 1029.48 484.19 1029.48 573.74 1042.56 581.29 1042.56 491.74"/><polygon class="cls-33" points="1061.4 451.02 1048.32 443.47 1048.32 584.45 1061.4 592 1061.4 451.02"/><polygon class="cls-33" points="1080.79 485.95 1067.71 478.4 1067.71 595.53 1080.79 603.09 1080.79 485.95"/><polygon class="cls-33" points="990.69 489.79 990.69 550.93 1003.77 558.48 1003.77 497.34 990.69 489.79"/><polygon class="cls-33" points="1023.17 487.39 1010.09 479.84 1010.09 562.01 1023.17 569.56 1023.17 487.39"/><polygon class="cls-18" points="984.38 463.58 971.29 456.03 971.29 539.23 984.38 546.79 984.38 463.58"/><polygon class="cls-18" points="932.51 500.52 932.51 516.42 945.59 523.98 945.59 508.07 932.51 500.52"/><polygon class="cls-18" points="964.98 500.55 951.9 493 951.9 527.51 964.98 535.06 964.98 500.55"/><polygon class="cls-33" points="1099.82 521.83 1086.74 514.27 1086.74 606.62 1099.82 614.17 1099.82 521.83"/><polygon class="cls-33" points="1118.47 559 1105.39 551.45 1105.39 617.51 1118.47 625.07 1118.47 559"/><polygon class="cls-17" points="1136.89 513.14 1123.81 505.59 1123.81 628.05 1136.89 635.6 1136.89 513.14"/><polygon class="cls-17" points="1155.73 483.94 1142.64 476.39 1142.64 638.76 1155.73 646.31 1155.73 483.94"/><polygon class="cls-17" points="1175.12 514.09 1162.04 506.54 1162.04 649.84 1175.12 657.39 1175.12 514.09"/><polygon class="cls-33" points="1136.89 546.05 1123.81 538.49 1123.81 628.05 1136.89 635.6 1136.89 546.05"/><polygon class="cls-33" points="1155.73 505.33 1142.64 497.78 1142.64 638.76 1155.73 646.31 1155.73 505.33"/><polygon class="cls-18" points="1175.12 540.26 1162.04 532.71 1162.04 649.84 1175.12 657.39 1175.12 540.26"/><polygon class="cls-33" points="1175.12 540.26 1162.04 532.71 1162.04 649.84 1175.12 657.39 1175.12 540.26"/><path class="cls-2" d="M960.71,620.42l-247-142.68c-9.56-5.52-17.31-20.33-17.31-33.08V250.91c0-12.75,7.75-18.61,17.31-13.09l247,142.68C970.27,386,978,400.83,978,413.58V607.33C978,620.08,970.27,625.94,960.71,620.42Z"/><path class="cls-1" d="M965.62,377.89l-247-142.68c-3.79-2.18-7.28-2.58-10.13-1.48-.37.14-5.19,2.7-5.53,2.89h0c2.95-1.43,6.69-1.16,10.77,1.19l247,142.68C970.27,386,978,400.83,978,413.58V607.33c0,7.95-3,13.22-7.61,14.72a2.9,2.9,0,0,0,1.52-.51c.21-.13,5.45-3.09,5.66-3.23,3.29-2.3,5.34-7,5.34-13.59V411C982.93,398.22,975.18,383.41,965.62,377.89Z"/><path class="cls-1" d="M961.54,380.08l-247-142.67c-3.92-2.27-7.52-2.59-10.43-1.34a12.79,12.79,0,0,1,8.35,2l247,142.68c9.56,5.52,17.32,20.33,17.32,33.08V607.53c0,7.53-2.71,12.62-6.89,14.43,5.34-.85,9-6.34,9-15.05V413.16C978.85,400.41,971.1,385.6,961.54,380.08Z"/><path class="cls-2" d="M702.44,253.65V445.37c0,10.25,4.89,20.28,12.78,25.3L965.9,615.46l.42.24a3.4,3.4,0,0,0,5.08-3V413.48a43,43,0,0,0-.29-4.7Z"/><path class="cls-1" d="M969.07,614.92l-.42-.24L718,469.88c-7.89-5-12.77-15-12.77-25.3V255.24l-2.76-1.59V445.37c0,10.25,4.89,20.28,12.78,25.3L965.9,615.46l.42.24a3.36,3.36,0,0,0,3.9-.4A3.32,3.32,0,0,1,969.07,614.92Z"/><path class="cls-33" d="M965.48,535.83a3.35,3.35,0,0,1-3.05-1.94c-6.27-13.46-12.19-26.17-22.42-32.23a62.5,62.5,0,0,0-25.69-8.9c-6.61-1-12.3-1.82-19.13-8.43-.53-.51-1-1-1.47-1.37-4-3.66-5.48-5.56-6.82-17.9-.32-2.92-.6-5.88-.88-8.86-1.93-20.8-3.76-40.46-19.31-43.61-13.49-2.74-16.85-12.37-20.74-23.53a133.74,133.74,0,0,0-5.18-13.24c-6.74-14.38-16.27-26.59-23.7-30.38-10.65-5.42-24.12,3-30,14.33-6,11.46-13.43,25.73-27.36,27.41-22.29,2.64-31.84-10.31-39.56-20.72-4.13-5.58-7.69-10.38-12.26-11.49a3.36,3.36,0,0,1,1.57-6.54c6.95,1.68,11.39,7.67,16.09,14,7.38,9.95,15,20.25,33.35,18.05,10.41-1.26,16.68-13.25,22.2-23.84,7.37-14.1,24.4-24.7,39-17.21,10.7,5.45,21.09,21.46,26.74,33.52a139.07,139.07,0,0,1,5.44,13.88c3.74,10.71,6,17.17,15.73,19.14,20.44,4.16,22.59,27.25,24.67,49.59.28,2.94.55,5.87.86,8.75,1.14,10.44,2,11.19,4.68,13.67.49.44,1,.93,1.61,1.5,5.27,5.1,9.09,5.67,15.42,6.6a68.55,68.55,0,0,1,28.15,9.78c12,7.11,18.37,20.74,25.08,35.17a3.36,3.36,0,0,1-1.62,4.47A3.43,3.43,0,0,1,965.48,535.83Z"/><path class="cls-9" d="M894.61,564.93a1.34,1.34,0,0,1-1.34-1.35v-3.36a1.35,1.35,0,1,1,2.69,0v3.36A1.35,1.35,0,0,1,894.61,564.93Zm0-10.09a1.34,1.34,0,0,1-1.34-1.35v-3.36a1.35,1.35,0,0,1,2.69,0v3.36A1.35,1.35,0,0,1,894.61,554.84Zm0-10.09a1.34,1.34,0,0,1-1.34-1.34V540a1.35,1.35,0,0,1,2.69,0v3.37A1.35,1.35,0,0,1,894.61,544.75Zm0-10.09a1.34,1.34,0,0,1-1.34-1.34V530a1.35,1.35,0,0,1,2.69,0v3.37A1.35,1.35,0,0,1,894.61,534.66Zm0-10.09a1.34,1.34,0,0,1-1.34-1.34v-3.37a1.35,1.35,0,0,1,2.69,0v3.37A1.35,1.35,0,0,1,894.61,524.57Zm0-10.09a1.34,1.34,0,0,1-1.34-1.34v-3.37a1.35,1.35,0,0,1,2.69,0v3.37A1.35,1.35,0,0,1,894.61,514.48Zm0-10.09a1.34,1.34,0,0,1-1.34-1.34v-3.37a1.35,1.35,0,0,1,2.69,0v3.37A1.35,1.35,0,0,1,894.61,504.39Zm0-10.09a1.34,1.34,0,0,1-1.34-1.34v-.85a1.35,1.35,0,0,1,2.69,0V493A1.35,1.35,0,0,1,894.61,494.3Z"/><path class="cls-9" d="M933.87,586.76a1.35,1.35,0,0,1-1.34-1.35v-3.36a1.35,1.35,0,1,1,2.69,0v3.36A1.35,1.35,0,0,1,933.87,586.76Zm0-10.09a1.35,1.35,0,0,1-1.34-1.35V572a1.35,1.35,0,1,1,2.69,0v3.36A1.35,1.35,0,0,1,933.87,576.67Zm0-10.09a1.35,1.35,0,0,1-1.34-1.35v-3.36a1.35,1.35,0,1,1,2.69,0v3.36A1.35,1.35,0,0,1,933.87,566.58Zm0-10.09a1.35,1.35,0,0,1-1.34-1.35v-3.36a1.35,1.35,0,1,1,2.69,0v3.36A1.35,1.35,0,0,1,933.87,556.49Zm0-10.09a1.35,1.35,0,0,1-1.34-1.35v-3.36a1.35,1.35,0,1,1,2.69,0v3.36A1.35,1.35,0,0,1,933.87,546.4Zm0-10.09a1.35,1.35,0,0,1-1.34-1.35V531.6a1.35,1.35,0,1,1,2.69,0V535A1.35,1.35,0,0,1,933.87,536.31Zm0-10.09a1.35,1.35,0,0,1-1.34-1.35v-3.36a1.35,1.35,0,1,1,2.69,0v3.36A1.35,1.35,0,0,1,933.87,526.22Zm0-10.09a1.35,1.35,0,0,1-1.34-1.35v-3.36a1.35,1.35,0,1,1,2.69,0v3.36A1.35,1.35,0,0,1,933.87,516.13Z"/><path class="cls-9" d="M855.59,542.74a1.34,1.34,0,0,1-1.35-1.35V538a1.35,1.35,0,0,1,2.69,0v3.36A1.34,1.34,0,0,1,855.59,542.74Zm0-10.09a1.34,1.34,0,0,1-1.35-1.34v-3.37a1.35,1.35,0,0,1,2.69,0v3.37A1.34,1.34,0,0,1,855.59,532.65Zm0-10.09a1.34,1.34,0,0,1-1.35-1.34v-3.37a1.35,1.35,0,0,1,2.69,0v3.37A1.34,1.34,0,0,1,855.59,522.56Zm0-10.09a1.34,1.34,0,0,1-1.35-1.34v-3.37a1.35,1.35,0,0,1,2.69,0v3.37A1.34,1.34,0,0,1,855.59,512.47Zm0-10.09a1.34,1.34,0,0,1-1.35-1.34v-3.37a1.35,1.35,0,0,1,2.69,0V501A1.34,1.34,0,0,1,855.59,502.38Zm0-10.09a1.34,1.34,0,0,1-1.35-1.34v-3.37a1.35,1.35,0,0,1,2.69,0V491A1.34,1.34,0,0,1,855.59,492.29Zm0-10.09a1.34,1.34,0,0,1-1.35-1.34v-3.37a1.35,1.35,0,0,1,2.69,0v3.37A1.34,1.34,0,0,1,855.59,482.2Zm0-10.09a1.34,1.34,0,0,1-1.35-1.34V467.4a1.35,1.35,0,0,1,2.69,0v3.37A1.34,1.34,0,0,1,855.59,472.11Zm0-10.09a1.34,1.34,0,0,1-1.35-1.34v-3.37a1.35,1.35,0,0,1,2.69,0v3.37A1.34,1.34,0,0,1,855.59,462Zm0-10.09a1.34,1.34,0,0,1-1.35-1.34v-3.37a1.35,1.35,0,0,1,2.69,0v3.37A1.34,1.34,0,0,1,855.59,451.93Zm0-10.09a1.34,1.34,0,0,1-1.35-1.34v-3.37a1.35,1.35,0,0,1,2.69,0v3.37A1.34,1.34,0,0,1,855.59,441.84Zm0-10.09a1.34,1.34,0,0,1-1.35-1.34V427a1.35,1.35,0,0,1,2.69,0v3.37A1.34,1.34,0,0,1,855.59,431.75Zm0-10.09a1.34,1.34,0,0,1-1.35-1.34V417a1.35,1.35,0,0,1,2.69,0v3.37A1.34,1.34,0,0,1,855.59,421.66Z"/><path class="cls-9" d="M816.56,520.12a1.35,1.35,0,0,1-1.35-1.34v-3.37a1.35,1.35,0,0,1,2.7,0v3.37A1.35,1.35,0,0,1,816.56,520.12Zm0-10.08a1.36,1.36,0,0,1-1.35-1.35v-3.36a1.35,1.35,0,0,1,2.7,0v3.36A1.36,1.36,0,0,1,816.56,510Zm0-10.09a1.36,1.36,0,0,1-1.35-1.35v-3.36a1.35,1.35,0,0,1,2.7,0v3.36A1.36,1.36,0,0,1,816.56,500Zm0-10.09a1.36,1.36,0,0,1-1.35-1.35v-3.36a1.35,1.35,0,0,1,2.7,0v3.36A1.36,1.36,0,0,1,816.56,489.86Zm0-10.09a1.36,1.36,0,0,1-1.35-1.35v-3.36a1.35,1.35,0,0,1,2.7,0v3.36A1.36,1.36,0,0,1,816.56,479.77Zm0-10.09a1.36,1.36,0,0,1-1.35-1.35V465a1.35,1.35,0,0,1,2.7,0v3.36A1.36,1.36,0,0,1,816.56,469.68Zm0-10.09a1.36,1.36,0,0,1-1.35-1.35v-3.36a1.35,1.35,0,0,1,2.7,0v3.36A1.36,1.36,0,0,1,816.56,459.59Zm0-10.09a1.36,1.36,0,0,1-1.35-1.35v-3.36a1.35,1.35,0,0,1,2.7,0v3.36A1.36,1.36,0,0,1,816.56,449.5Zm0-10.09a1.36,1.36,0,0,1-1.35-1.35V434.7a1.35,1.35,0,0,1,2.7,0v3.36A1.36,1.36,0,0,1,816.56,439.41Zm0-10.09a1.36,1.36,0,0,1-1.35-1.35v-3.36a1.35,1.35,0,0,1,2.7,0V428A1.36,1.36,0,0,1,816.56,429.32Zm0-10.09a1.36,1.36,0,0,1-1.35-1.35v-3.36a1.35,1.35,0,0,1,2.7,0v3.36A1.36,1.36,0,0,1,816.56,419.23Zm0-10.09a1.36,1.36,0,0,1-1.35-1.35v-3.36a1.35,1.35,0,0,1,2.7,0v3.36A1.36,1.36,0,0,1,816.56,409.14Zm0-10.09a1.36,1.36,0,0,1-1.35-1.35v-3.36a1.35,1.35,0,0,1,2.7,0v3.36A1.36,1.36,0,0,1,816.56,399.05Zm0-10.09a1.36,1.36,0,0,1-1.35-1.35v-3.36a1.35,1.35,0,0,1,2.7,0v3.36A1.36,1.36,0,0,1,816.56,389Zm0-10.09a1.36,1.36,0,0,1-1.35-1.35v-3.36a1.35,1.35,0,0,1,2.7,0v3.36A1.36,1.36,0,0,1,816.56,378.87Zm0-10.09a1.36,1.36,0,0,1-1.35-1.35v-3.36a1.35,1.35,0,0,1,2.7,0v3.36A1.36,1.36,0,0,1,816.56,368.78Z"/><path class="cls-9" d="M777.54,496.54a1.36,1.36,0,0,1-1.35-1.35v-3.36a1.35,1.35,0,1,1,2.69,0v3.36A1.35,1.35,0,0,1,777.54,496.54Zm0-10.09a1.36,1.36,0,0,1-1.35-1.35v-3.36a1.35,1.35,0,1,1,2.69,0v3.36A1.35,1.35,0,0,1,777.54,486.45Zm0-10.09a1.36,1.36,0,0,1-1.35-1.35v-3.36a1.35,1.35,0,1,1,2.69,0V475A1.35,1.35,0,0,1,777.54,476.36Zm0-10.09a1.36,1.36,0,0,1-1.35-1.35v-3.36a1.35,1.35,0,1,1,2.69,0v3.36A1.35,1.35,0,0,1,777.54,466.27Zm0-10.09a1.36,1.36,0,0,1-1.35-1.35v-3.36a1.35,1.35,0,1,1,2.69,0v3.36A1.35,1.35,0,0,1,777.54,456.18Zm0-10.09a1.36,1.36,0,0,1-1.35-1.35v-3.36a1.35,1.35,0,1,1,2.69,0v3.36A1.35,1.35,0,0,1,777.54,446.09Zm0-10.09a1.36,1.36,0,0,1-1.35-1.35v-3.36a1.35,1.35,0,1,1,2.69,0v3.36A1.35,1.35,0,0,1,777.54,436Zm0-10.09a1.36,1.36,0,0,1-1.35-1.35V421.2a1.35,1.35,0,1,1,2.69,0v3.36A1.35,1.35,0,0,1,777.54,425.91Zm0-10.09a1.36,1.36,0,0,1-1.35-1.35v-3.36a1.35,1.35,0,1,1,2.69,0v3.36A1.35,1.35,0,0,1,777.54,415.82Zm0-10.09a1.36,1.36,0,0,1-1.35-1.35V401a1.35,1.35,0,1,1,2.69,0v3.36A1.35,1.35,0,0,1,777.54,405.73Zm0-10.09a1.36,1.36,0,0,1-1.35-1.35v-3.36a1.35,1.35,0,1,1,2.69,0v3.36A1.35,1.35,0,0,1,777.54,395.64Z"/><path class="cls-9" d="M738.51,474.36a1.34,1.34,0,0,1-1.34-1.35v-3.36a1.35,1.35,0,1,1,2.69,0V473A1.35,1.35,0,0,1,738.51,474.36Zm0-10.09a1.34,1.34,0,0,1-1.34-1.35v-3.36a1.35,1.35,0,1,1,2.69,0v3.36A1.35,1.35,0,0,1,738.51,464.27Zm0-10.09a1.34,1.34,0,0,1-1.34-1.35v-3.36a1.35,1.35,0,1,1,2.69,0v3.36A1.35,1.35,0,0,1,738.51,454.18Zm0-10.09a1.34,1.34,0,0,1-1.34-1.35v-3.36a1.35,1.35,0,1,1,2.69,0v3.36A1.35,1.35,0,0,1,738.51,444.09Zm0-10.09a1.34,1.34,0,0,1-1.34-1.35v-3.36a1.35,1.35,0,1,1,2.69,0v3.36A1.35,1.35,0,0,1,738.51,434Zm0-10.09a1.34,1.34,0,0,1-1.34-1.35V419.2a1.35,1.35,0,1,1,2.69,0v3.36A1.35,1.35,0,0,1,738.51,423.91Zm0-10.09a1.34,1.34,0,0,1-1.34-1.35v-3.36a1.35,1.35,0,1,1,2.69,0v3.36A1.35,1.35,0,0,1,738.51,413.82Zm0-10.09a1.34,1.34,0,0,1-1.34-1.35V399a1.35,1.35,0,0,1,2.69,0v3.36A1.35,1.35,0,0,1,738.51,403.73Zm0-10.09a1.34,1.34,0,0,1-1.34-1.35v-3.18a1.35,1.35,0,0,1,2.69,0v3.18A1.35,1.35,0,0,1,738.51,393.64Z"/><path class="cls-14" d="M809.41,339.77c0,5.33,3.77,11.83,8.41,14.51s8.42.53,8.42-4.8-3.77-11.83-8.42-14.51S809.41,334.43,809.41,339.77Z"/><path class="cls-11" d="M821.6,357.12h0a9.35,9.35,0,0,1-4.62-1.38c-5.19-3-9.25-10-9.25-16,0-4.57,2.54-7.64,6.32-7.64a9.35,9.35,0,0,1,4.62,1.38c5.18,3,9.25,10,9.25,16a8.59,8.59,0,0,1-1.66,5.45A5.85,5.85,0,0,1,821.6,357.12Zm-7.55-21.62c-2.67,0-3,3-3,4.27,0,4.7,3.47,10.68,7.58,13.05,2.09,1.22,4,1.24,5,0a5.34,5.34,0,0,0,.92-3.34c0-4.71-3.47-10.68-7.58-13.05A6.06,6.06,0,0,0,814.05,335.5Z"/><path class="cls-27" d="M962.68,494.21a3.36,3.36,0,0,1-2.69-1.33l-14.41-19a28.33,28.33,0,0,0-20.28-11.1l-48.38-3.88a35.07,35.07,0,0,1-25.29-14l-20.46-27.45a28.48,28.48,0,0,0-34.41-8.86,34.86,34.86,0,0,1-30.16-.55l-1.9-1a28.4,28.4,0,0,0-23-1l-31.16,12.23a3.36,3.36,0,0,1-2.45-6.26l31.16-12.23a35.08,35.08,0,0,1,28.46,1.28l1.91.95a28.18,28.18,0,0,0,24.37.45,35.23,35.23,0,0,1,42.59,11L857,440.91a28.32,28.32,0,0,0,20.44,11.3l48.38,3.88a35.05,35.05,0,0,1,25.1,13.74l14.41,19a3.35,3.35,0,0,1-2.67,5.39Z"/><path class="cls-30" d="M963.23,564.84a3.36,3.36,0,0,1-1.34-.28l-33.76-14.73A141.25,141.25,0,0,1,878.93,514l-10.83-12.3a14.76,14.76,0,0,0-19.31-2.46A21.45,21.45,0,0,1,815.62,485l-7.9-46.35a14.73,14.73,0,0,0-19.47-11.39c-50,17.95-75.86,27.2-76.76,27.5a3.36,3.36,0,0,1-2.13-6.38c.7-.23,14.56-5.19,76.62-27.45a21.43,21.43,0,0,1,28.36,16.59l7.91,46.35A14.73,14.73,0,0,0,845,493.63a21.48,21.48,0,0,1,28.12,3.58L884,509.51a134.57,134.57,0,0,0,46.85,34.15l33.76,14.74a3.36,3.36,0,0,1-1.35,6.44Z"/><polygon class="cls-20" points="751.44 270.8 808.09 304.32 818.5 330.44 822.36 328.94 822.36 272.24 751.44 230.47 747.42 232.16 751.44 270.8"/><polygon class="cls-3" points="817.68 274.42 749.39 234.18 748.52 231.45 819.44 273.22 819.44 329.92 817.68 325.06 817.68 274.42"/><polygon class="cls-21" points="747.42 272.21 804.07 305.74 818.34 330.36 818.34 273.65 747.42 231.89 747.42 272.21"/><polygon class="cls-3" points="754.79 268.76 754.79 244.06 811.19 276.91 811.19 301.64 754.79 268.76"/></g></g></svg>