<svg xmlns="http://www.w3.org/2000/svg" xmlns:xlink="http://www.w3.org/1999/xlink" viewBox="0 0 400 390.93"><defs><style>.cls-1{isolation:isolate;}.cls-2{fill:url(#linear-gradient);}.cls-3{fill:#ffc2c1;}.cls-4{fill:url(#linear-gradient-2);}.cls-5{fill:url(#linear-gradient-3);}.cls-6{fill:url(#linear-gradient-4);}.cls-7{fill:url(#linear-gradient-5);}.cls-8{fill:#ff5a22;}.cls-9{fill:#ff7343;}.cls-10,.cls-15,.cls-18,.cls-32{mix-blend-mode:multiply;}.cls-10{opacity:0.54;fill:url(#linear-gradient-6);}.cls-11{fill:url(#linear-gradient-7);}.cls-12{fill:#e4e4e8;}.cls-13{opacity:0.53;}.cls-14,.cls-20{fill:#fff;}.cls-15,.cls-18,.cls-32{opacity:0.3;}.cls-15{fill:url(#linear-gradient-8);}.cls-16,.cls-21{opacity:0.19;}.cls-16{fill:url(#linear-gradient-9);}.cls-17,.cls-20{mix-blend-mode:soft-light;}.cls-18{fill:url(#linear-gradient-10);}.cls-19{fill:url(#linear-gradient-11);}.cls-22{fill:url(#linear-gradient-12);}.cls-23{fill:url(#linear-gradient-13);}.cls-24{fill:url(#linear-gradient-14);}.cls-25{fill:url(#linear-gradient-15);}.cls-26{fill:url(#linear-gradient-16);}.cls-27{fill:url(#linear-gradient-17);}.cls-28{fill:url(#linear-gradient-18);}.cls-29{fill:url(#linear-gradient-19);}.cls-30{fill:url(#linear-gradient-20);}.cls-31{fill:url(#linear-gradient-21);}.cls-32{fill:url(#linear-gradient-22);}.cls-33{fill:url(#linear-gradient-23);}.cls-34{fill:#d8dee8;opacity:0.5;}.cls-35{fill:#1d2035;}.cls-36{fill:url(#linear-gradient-24);}.cls-37{fill:url(#linear-gradient-25);}.cls-38{fill:#313445;}</style><linearGradient id="linear-gradient" x1="6050.07" y1="327.87" x2="6039.7" y2="293.66" gradientTransform="matrix(-1, 0.01, 0.01, 1, 6339.2, -10.97)" gradientUnits="userSpaceOnUse"><stop offset="0" stop-color="#444b8c"/><stop offset="1" stop-color="#26264f"/></linearGradient><linearGradient id="linear-gradient-2" x1="6064.31" y1="321.23" x2="6053.94" y2="287.03" xlink:href="#linear-gradient"/><linearGradient id="linear-gradient-3" x1="38.87" y1="94.49" x2="103.38" y2="94.49" gradientUnits="userSpaceOnUse"><stop offset="0" stop-color="#144188"/><stop offset="1" stop-color="#1a7cde"/></linearGradient><linearGradient id="linear-gradient-4" x1="57.35" y1="99.87" x2="105.28" y2="99.87" xlink:href="#linear-gradient-3"/><linearGradient id="linear-gradient-5" x1="224.42" y1="1261.33" x2="131.02" y2="1143.03" gradientTransform="matrix(0.96, 0.27, -0.27, 0.96, 207.77, -1142.46)" xlink:href="#linear-gradient-3"/><linearGradient id="linear-gradient-6" x1="235" y1="214.58" x2="109.84" y2="251.67" gradientUnits="userSpaceOnUse"><stop offset="0" stop-color="#d8dee8"/><stop offset="1" stop-color="#a2a7ae"/></linearGradient><linearGradient id="linear-gradient-7" x1="320.11" y1="18.95" x2="66.96" y2="414.5" gradientUnits="userSpaceOnUse"><stop offset="0" stop-color="#fff"/><stop offset="1" stop-color="#ebeff2"/></linearGradient><linearGradient id="linear-gradient-8" x1="193.79" y1="230.87" x2="225.58" y2="456.83" gradientTransform="matrix(1, 0, 0, 1, 0, 0)" xlink:href="#linear-gradient"/><linearGradient id="linear-gradient-9" x1="220.12" y1="214.79" x2="243.53" y2="381.19" xlink:href="#linear-gradient-7"/><linearGradient id="linear-gradient-10" x1="83.13" y1="250.36" x2="55.66" y2="317.93" gradientTransform="matrix(1, 0, 0, 1, 0, 0)" xlink:href="#linear-gradient"/><linearGradient id="linear-gradient-11" x1="102.28" y1="227.84" x2="69.13" y2="309.39" gradientUnits="userSpaceOnUse"><stop offset="0" stop-color="#ff9085"/><stop offset="1" stop-color="#fb6fbb"/></linearGradient><linearGradient id="linear-gradient-12" x1="37.91" y1="291.79" x2="45.9" y2="291.79" xlink:href="#linear-gradient-7"/><linearGradient id="linear-gradient-13" x1="48.57" y1="299.02" x2="55.26" y2="299.02" xlink:href="#linear-gradient-7"/><linearGradient id="linear-gradient-14" x1="56.07" y1="290.61" x2="64.55" y2="290.61" xlink:href="#linear-gradient-7"/><linearGradient id="linear-gradient-15" x1="65.66" y1="292.98" x2="73.76" y2="292.98" xlink:href="#linear-gradient-7"/><linearGradient id="linear-gradient-16" x1="76.93" y1="302.75" x2="82.88" y2="302.75" xlink:href="#linear-gradient-7"/><linearGradient id="linear-gradient-17" x1="84.83" y1="297.98" x2="91.94" y2="297.98" xlink:href="#linear-gradient-7"/><linearGradient id="linear-gradient-18" x1="92.85" y1="294.4" x2="100.91" y2="294.4" xlink:href="#linear-gradient-7"/><linearGradient id="linear-gradient-19" x1="102.52" y1="297.67" x2="109.81" y2="297.67" xlink:href="#linear-gradient-7"/><linearGradient id="linear-gradient-20" x1="110.01" y1="293" x2="118.64" y2="293" xlink:href="#linear-gradient-7"/><linearGradient id="linear-gradient-21" x1="118.27" y1="291.61" x2="127.39" y2="291.61" xlink:href="#linear-gradient-7"/><linearGradient id="linear-gradient-22" x1="65.23" y1="146.01" x2="108.02" y2="248.1" gradientTransform="matrix(1, 0, 0, 1, 0, 0)" xlink:href="#linear-gradient"/><linearGradient id="linear-gradient-23" x1="328.07" y1="180.82" x2="384.45" y2="156.76" gradientUnits="userSpaceOnUse"><stop offset="0" stop-color="#e38ddd"/><stop offset="1" stop-color="#9571f6"/></linearGradient><linearGradient id="linear-gradient-24" x1="202.93" y1="242.29" x2="369.77" y2="242.29" xlink:href="#linear-gradient-3"/><linearGradient id="linear-gradient-25" x1="-1965.62" y1="-818.21" x2="-1975.42" y2="-802.35" gradientTransform="translate(2140.98 -834.26) rotate(-51.2)" gradientUnits="userSpaceOnUse"><stop offset="0" stop-color="#ffc444"/><stop offset="1" stop-color="#f36f56"/></linearGradient></defs><g class="cls-1"><g id="Layer_2" data-name="Layer 2"><g id="Layer_1-2" data-name="Layer 1"><path class="cls-2" d="M304.14,383.65c1.06,2.16.76,3.09.5,3.5-.78,1.2-2.64.07-7.51.64a8.11,8.11,0,0,1-3-.1c-1.17-.28-2.54-.9-2.49-1.21,0-.11.23-.16.31-.17,1.35-.29,9.81-2.89,9.81-2.89Z"/><path class="cls-3" d="M304.79,378.88l-.76,4.85s-2.08,1.47-2.62-.32a24.64,24.64,0,0,1-.39-4.74Z"/><polygon class="cls-3" points="281.08 379.22 283.12 384.79 286.09 384.32 285.4 379.16 281.08 379.22"/><path class="cls-4" d="M284,387.86c1.44-1.7,2.72-1.55,3-2.72a2.41,2.41,0,0,0-1.21-2.48c-1.19-.6-2.64.34-3,.55-2.22,1.45-1.61,3.71-3.71,4.68a5.65,5.65,0,0,0-1.79,1.07c-.3.28-1,1-.87,1.45s1.52.54,2.78.52c1.5,0,2.26,0,3-.49C283.24,389.82,282.94,389.18,284,387.86Z"/><path class="cls-5" d="M87.46,116.34a5.39,5.39,0,0,0,7.23-8l-.33-.26a30.19,30.19,0,0,0,2.16-4c.13,0,.27.07.41.09a5.62,5.62,0,0,0,6.28-4.2,4.75,4.75,0,0,0-3.69-6,3,3,0,0,0-.43-.06,29.09,29.09,0,0,0,0-4.38l.43-.13a5.61,5.61,0,0,0,3.59-6.64,4.75,4.75,0,0,0-6.33-3.11l-.41.17a24.38,24.38,0,0,0-2.22-3.6l.33-.33c2-2.19,4.45-4.51,2.4-6.32-4.76-4.19-7.74-2.54-9.74-.35-.1.11-.2.23-.29.35A25.63,25.63,0,0,0,83,67.76c0-.14.09-.28.13-.42.71-2.82,2-4.11-.72-4.91-5.85-1.73-8.54.28-9.25,3.1a3.43,3.43,0,0,0-.09.44,27.91,27.91,0,0,0-4.36.38c0-.14-.06-.28-.1-.42a4.75,4.75,0,0,0-6.33-3.11,5.64,5.64,0,0,0-3.6,6.65c0,.14.09.27.14.4a30.83,30.83,0,0,0-3.76,2.52c-.1-.1-.19-.2-.3-.3a5.39,5.39,0,0,0-7.23,8l.33.26a30.84,30.84,0,0,0-2.16,4,2.73,2.73,0,0,0-.41-.1A5.62,5.62,0,0,0,39,88.39a4.76,4.76,0,0,0,3.69,6,3.18,3.18,0,0,0,.43.06,29.09,29.09,0,0,0,0,4.38l-.43.13a5.61,5.61,0,0,0-3.59,6.65c.75,2.69,5.07,5,7.81,4,.14,0-1.2-1.06-1.07-1.12a23.87,23.87,0,0,0,2.22,3.6c-.11.11-.22.21-.33.33a5,5,0,1,0,7.34,6.67c.1-.11.2-.23.29-.35a25.26,25.26,0,0,0,3.8,1.87,3.38,3.38,0,0,0-.13.42,4.75,4.75,0,0,0,3.68,6,5.61,5.61,0,0,0,6.28-4.2,3.43,3.43,0,0,0,.09-.44,27.91,27.91,0,0,0,4.36-.38c0,.14.06.28.1.42a4.75,4.75,0,0,0,6.33,3.11,5.63,5.63,0,0,0,3.6-6.65c0-.13-.09-.27-.14-.4A30.83,30.83,0,0,0,87.16,116ZM58,108.64c-7.35-6.7-7.44-18.58-.19-26.54s19.08-9,26.44-2.3,7.44,18.57.19,26.53S65.36,115.33,58,108.64Z"/><path class="cls-6" d="M96.93,104.24a5.62,5.62,0,0,0,6.28-4.2,4.75,4.75,0,0,0-3.69-6c-.14,0-.28,0-.43-.06a29.09,29.09,0,0,0,0-4.38l.43-.13c2.74-1,6.65-4.08,5.63-6.69-2-4.93-5.63-4-8.37-3.06l-.41.17a24.38,24.38,0,0,0-2.22-3.6l.33-.33a5.54,5.54,0,0,0,1.46-4.13q-4.95,5-9.8,10c5.44,6.87,4.91,17.32-1.67,24.54-5.57,6.12-13.85,8.14-20.72,5.71-.54.73-1.07,1.46-1.62,2.17-1.51,1.93-3.13,3.78-4.75,5.63.61.3,1.24.58,1.88.83a3.38,3.38,0,0,0-.13.42c-.72,2.82.33,5.68,5.27,6.76,2.73.59,4-2.13,4.69-4.95a3.43,3.43,0,0,0,.09-.44,27.91,27.91,0,0,0,4.36-.38c0,.14.06.28.1.42.76,2.7,5.32,5,8.06,4s2.62-4.87,1.87-7.57c0-.13-.09-.27-.14-.4A30.83,30.83,0,0,0,87.16,116l.3.3a5.39,5.39,0,0,0,7.23-8l-.33-.26a30.19,30.19,0,0,0,2.16-4C96.65,104.18,96.79,104.22,96.93,104.24Z"/><path class="cls-7" d="M89.91,117.32a5.39,5.39,0,0,0,7.23-7.94c-.1-.1-.22-.18-.33-.27a30.19,30.19,0,0,0,2.16-4l.41.1a5.61,5.61,0,0,0,6.28-4.21A4.75,4.75,0,0,0,102,95l-.44-.05a26.67,26.67,0,0,0,0-4.38l.43-.13a5.64,5.64,0,0,0,3.6-6.65,4.78,4.78,0,0,0-6.34-3.11l-.41.17a25.76,25.76,0,0,0-2.21-3.6l.32-.32a5,5,0,1,0-7.34-6.68c-.1.12-.19.24-.29.35a25.1,25.1,0,0,0-3.79-1.86c0-.14.09-.28.13-.43a4.76,4.76,0,0,0-3.69-6,5.62,5.62,0,0,0-6.28,4.21c0,.14-.06.29-.09.44a27.91,27.91,0,0,0-4.36.38c0-.15-.06-.29-.1-.43a4.75,4.75,0,0,0-6.33-3.1,5.6,5.6,0,0,0-3.59,6.64c0,.14.08.27.13.4a30.54,30.54,0,0,0-3.76,2.53,4.11,4.11,0,0,0-.29-.3A5.39,5.39,0,0,0,50,81a4.15,4.15,0,0,0,.32.27,32.72,32.72,0,0,0-2.16,4l-.41-.1a5.63,5.63,0,0,0-6.28,4.21,4.76,4.76,0,0,0,3.69,6,3.34,3.34,0,0,0,.43,0,27.82,27.82,0,0,0,0,4.38l-.43.13a5.62,5.62,0,0,0-3.6,6.65A4.77,4.77,0,0,0,48,109.71l.41-.17a26.81,26.81,0,0,0,2.22,3.6c-.11.1-.22.21-.32.32a5,5,0,1,0,7.33,6.68,4.47,4.47,0,0,0,.29-.35,25.2,25.2,0,0,0,3.8,1.86c0,.14-.09.28-.13.43a4.75,4.75,0,0,0,3.69,6,5.62,5.62,0,0,0,6.28-4.2c0-.15.06-.3.08-.45a27.93,27.93,0,0,0,4.37-.38,3,3,0,0,0,.09.43,4.76,4.76,0,0,0,6.34,3.1A5.6,5.6,0,0,0,86,120c0-.14-.09-.27-.13-.4A31.32,31.32,0,0,0,89.62,117,2.76,2.76,0,0,0,89.91,117.32Zm-29.45-7.7c-7.36-6.69-7.44-18.57-.2-26.54s19.08-9,26.44-2.3,7.44,18.57.2,26.54S67.81,116.31,60.46,109.62Z"/><path class="cls-8" d="M210.48,117.49c4.36,4,11.39,3.36,15.68-1.36s4.25-11.78-.11-15.75c-.23-.2-.47-.39-.7-.57A68,68,0,0,0,230,91.23a8.67,8.67,0,0,0,.88.21c5.93,1.08,12-3,13.53-9s-2-11.88-7.94-13c-.31-.06-.62-.09-.93-.12a63.25,63.25,0,0,0-.07-9.44c.3-.08.61-.17.92-.28a12.08,12.08,0,0,0,7.74-14.31c-1.63-5.81-7.73-8.8-13.64-6.69-.3.1-.59.23-.88.36a55,55,0,0,0-4.77-7.76c.23-.22.47-.45.69-.69,4.3-4.73,9.59-9.72,5.17-13.62-10.24-9-16.67-5.48-21-.76-.22.24-.43.5-.63.76a53.35,53.35,0,0,0-8.17-4c.1-.3.2-.61.28-.92,1.54-6.07,4.23-8.85-1.54-10.56-12.6-3.73-18.39.59-19.93,6.67-.08.31-.14.63-.19.94a62.15,62.15,0,0,0-9.4.82c-.06-.3-.12-.61-.2-.91-1.63-5.8-7.74-8.8-13.65-6.69s-9.37,8.52-7.74,14.32c.09.29.19.58.3.86a66.75,66.75,0,0,0-8.11,5.44c-.2-.22-.41-.44-.63-.65-4.37-4-11.39-3.36-15.69,1.37s-4.25,11.77.12,15.74a7.57,7.57,0,0,0,.7.57,66.79,66.79,0,0,0-4.65,8.58c-.29-.08-.58-.15-.89-.21-5.93-1.07-12,3-13.52,9.06s2,11.87,7.94,13q.47.07.93.12a60.55,60.55,0,0,0,.07,9.43c-.31.08-.62.17-.93.28-5.9,2.11-9.37,8.52-7.74,14.32s10.92,10.84,16.83,8.74c.3-.11-2.59-2.29-2.3-2.42a53.53,53.53,0,0,0,4.77,7.76c-.24.23-.47.45-.69.7-4.3,4.72-4.25,11.77.11,15.74s11.39,3.36,15.69-1.37c.22-.24.42-.5.62-.75a53.91,53.91,0,0,0,8.18,4c-.11.3-.2.6-.28.91-1.55,6.08,2,11.88,7.94,13s12-3,13.52-9.05c.08-.32.14-.63.2-.95a60.65,60.65,0,0,0,9.39-.82c.06.31.13.61.21.92,1.63,5.8,7.74,8.79,13.64,6.68A12.08,12.08,0,0,0,202,123.15a8.87,8.87,0,0,0-.29-.87,66.56,66.56,0,0,0,8.1-5.43C210.05,117.07,210.25,117.29,210.48,117.49ZM147,100.9c-15.85-14.41-16-40-.43-57.16s41.11-19.37,56.95-5,16,40,.42,57.16S162.88,115.32,147,100.9Z"/><path class="cls-8" d="M230.88,91.44c5.93,1.08,12-3,13.53-9s-2-11.88-7.94-13c-.31-.06-.62-.09-.93-.12a61.94,61.94,0,0,0-.07-9.44c.3-.08.61-.17.92-.28,5.91-2.1,14.34-8.8,12.12-14.4-4.2-10.64-12.11-8.71-18-6.6-.3.1-.59.23-.88.36a55,55,0,0,0-4.77-7.76c.23-.22.47-.45.69-.69a12,12,0,0,0,3.15-8.91Q218,32.25,207.57,43.08c11.73,14.8,10.57,37.3-3.59,52.86-12,13.19-29.83,17.54-44.64,12.31-1.15,1.56-2.29,3.13-3.49,4.66-3.25,4.16-6.74,8.15-10.23,12.13,1.33.65,2.68,1.24,4,1.78-.11.3-.2.6-.28.91-1.55,6.08.71,12.22,11.35,14.55,5.89,1.29,8.57-4.57,10.11-10.65.08-.32.14-.63.2-.95a60.65,60.65,0,0,0,9.39-.82c.06.31.13.61.21.92,1.63,5.8,11.45,10.77,17.35,8.67s5.66-10.5,4-16.3a8.87,8.87,0,0,0-.29-.87,66.56,66.56,0,0,0,8.1-5.43c.21.22.41.44.64.64,4.36,4,11.39,3.36,15.68-1.36s4.25-11.78-.11-15.75c-.23-.2-.47-.39-.7-.57A68,68,0,0,0,230,91.23,8.67,8.67,0,0,0,230.88,91.44Z"/><path class="cls-9" d="M215.76,119.61c4.37,4,11.39,3.36,15.69-1.36s4.25-11.78-.12-15.75c-.22-.2-.46-.39-.7-.57a66.79,66.79,0,0,0,4.65-8.58,8.25,8.25,0,0,0,.89.21c5.93,1.08,12-3,13.52-9s-2-11.88-7.94-13c-.31-.06-.62-.09-.93-.12a60.68,60.68,0,0,0-.07-9.44c.31-.08.62-.17.93-.28,5.9-2.1,9.37-8.51,7.74-14.31s-7.74-8.8-13.64-6.69c-.31.11-.6.23-.89.36a54.08,54.08,0,0,0-4.77-7.76c.24-.22.47-.45.7-.69,4.29-4.73,4.24-11.77-.12-15.74S219.31,13.53,215,18.25c-.22.25-.42.5-.62.76a54.27,54.27,0,0,0-8.17-4c.1-.3.2-.61.27-.92C208,8,204.48,2.2,198.55,1.12s-12,3-13.52,9.06c-.08.31-.14.63-.2,1a60.64,60.64,0,0,0-9.39.81c-.06-.3-.12-.61-.21-.91-1.63-5.8-7.74-8.8-13.64-6.69s-9.37,8.52-7.74,14.32a8.69,8.69,0,0,0,.29.86A66.65,66.65,0,0,0,146,25c-.21-.22-.41-.44-.64-.65C141,20.34,134,21,129.72,25.68s-4.25,11.77.11,15.74c.23.21.47.39.71.57a66.87,66.87,0,0,0-4.66,8.58c-.29-.08-.58-.15-.88-.21a12.11,12.11,0,0,0-13.53,9.06c-1.54,6.08,2,11.87,8,13,.31.06.62.09.93.12a61.81,61.81,0,0,0,.06,9.43c-.3.08-.61.17-.92.28-5.91,2.11-9.37,8.52-7.74,14.32s7.73,8.79,13.64,6.69c.3-.11.59-.24.88-.37A54.43,54.43,0,0,0,131,110.6c-.23.23-.47.45-.69.7-4.3,4.72-4.25,11.77.12,15.74s11.38,3.36,15.68-1.36c.22-.25.43-.5.63-.76a53.35,53.35,0,0,0,8.17,4c-.1.3-.2.6-.28.91-1.54,6.08,2,11.88,7.94,13s12-3,13.53-9.05c.08-.32.14-.63.19-.95a60.89,60.89,0,0,0,9.4-.82c.06.31.12.61.2.92,1.63,5.8,7.74,8.79,13.65,6.69s9.37-8.52,7.74-14.32c-.09-.3-.19-.58-.3-.87a65.53,65.53,0,0,0,8.11-5.43C215.33,119.19,215.54,119.41,215.76,119.61ZM152.32,103c-15.84-14.41-16-40-.42-57.16s41.1-19.37,56.94-5,16,40,.43,57.16S168.16,117.44,152.32,103Z"/><path class="cls-10" d="M14.31,380.05c-7.87.51-14.31-5-14.31-12.21V114.64c0-7.25,6.44-12.89,14.31-12.59L351.77,120.3c6,.23,12.38.42,12.38,6.69v219c0,6.27-4.84,11.68-10.81,12.07Z"/><path class="cls-11" d="M17.06,380.05c-7.87.51-14.31-5-14.31-12.21V114.64c0-7.25,6.44-12.89,14.31-12.59l339,13.16c6,.23,10.81,5.51,10.81,11.78v219c0,6.27-4.84,11.68-10.81,12.07Z"/><path class="cls-12" d="M356.09,122.76l-339-12.06A4.45,4.45,0,0,0,12.24,115V367.27a4.32,4.32,0,0,0,4.82,4.13l339-20.94a4.07,4.07,0,0,0,3.67-4.09V126.75A3.93,3.93,0,0,0,356.09,122.76Z"/><g class="cls-13"><path class="cls-14" d="M136.61,346.23a2.13,2.13,0,0,1-2.13-2.13V134.86a2.13,2.13,0,1,1,4.26,0V344.1A2.13,2.13,0,0,1,136.61,346.23Z"/><path class="cls-14" d="M256.57,339.76a2.14,2.14,0,0,1-2.13-2.13V138.2a2.13,2.13,0,0,1,4.26,0V337.63A2.13,2.13,0,0,1,256.57,339.76Z"/></g><path class="cls-15" d="M149.5,151.87v98.9a3.85,3.85,0,0,0,4.31,3.83l84.22-10a4.66,4.66,0,0,0,4-5.8c-2.34-9.06-6.84-28.13-6.86-41.41a.94.94,0,0,0-.49-.83L150.91,151A1,1,0,0,0,149.5,151.87Z"/><path class="cls-9" d="M151.16,150.1l101.73-10.43a1.5,1.5,0,0,1,1.64,1.27c1.35,8.42,9.11,52.71,27.16,81.07a1.5,1.5,0,0,1-1,2.28l-91,19.51a1.53,1.53,0,0,1-1.3-.32c-3.79-3.21-25-23.7-38.58-91.58A1.51,1.51,0,0,1,151.16,150.1Z"/><path class="cls-16" d="M249.24,195.73c-11.48-2.87-14.44-14.84-25-14.75s-12.65,11.83-21.92,11.28c-10.55-.63-12.6-16.13-26.26-19.75a24.26,24.26,0,0,0-13.22.49c7.67,36,25.32,61,25.32,61l83.53-17.18a121.86,121.86,0,0,1-10.39-21.63A22.09,22.09,0,0,1,249.24,195.73Z"/><g class="cls-17"><path class="cls-14" d="M160.48,160.75a2.13,2.13,0,0,1-.2-4.25l86.37-8.35a2.13,2.13,0,1,1,.41,4.24l-86.37,8.35Z"/></g><g class="cls-17"><path class="cls-14" d="M193.05,166a2.13,2.13,0,0,1-.23-4.24l55.32-6.08a2.13,2.13,0,0,1,.47,4.23L193.28,166Z"/></g><path class="cls-18" d="M22.34,237.91v83.18a5.11,5.11,0,0,0,5.11,5.11h87.26a5.11,5.11,0,0,0,5.11-5.11V268.24Z"/><path class="cls-19" d="M141,319.19H33.46c-7.08-15.36-12.57-46.53-11.12-81.28L130.86,243C128.5,275.44,132.66,305.8,141,319.19Z"/><path class="cls-20" d="M125.13,253.44a2.51,2.51,0,0,0-2.41-2.34l-92.95-4.17a2.53,2.53,0,0,0-2.64,2.53V250a2.54,2.54,0,0,0,2.43,2.53l93,3.62A2.53,2.53,0,0,0,125.13,253.44Z"/><path class="cls-20" d="M83.26,259.24l-53.35-1.81a2.68,2.68,0,0,0-2.78,2.68v.31a2.69,2.69,0,0,0,2.61,2.69L83.1,264.6a2.68,2.68,0,0,0,.16-5.36Z"/><g class="cls-21"><polygon class="cls-22" points="45.9 306.28 40.59 306.26 37.91 277.3 43.13 277.38 45.9 306.28"/><polygon class="cls-23" points="55.26 306.3 50 306.29 48.57 291.74 53.79 291.78 55.26 306.3"/><polygon class="cls-24" points="64.55 306.32 59.34 306.31 56.07 274.91 61.2 275 64.55 306.32"/><polygon class="cls-25" points="73.76 306.34 68.59 306.33 65.66 279.63 70.76 279.7 73.76 306.34"/><polygon class="cls-26" points="82.89 306.36 77.76 306.35 76.93 299.13 82.03 299.16 82.89 306.36"/><polygon class="cls-27" points="91.94 306.38 86.85 306.37 84.83 289.58 89.87 289.63 91.94 306.38"/><polygon class="cls-28" points="100.91 306.4 95.87 306.39 92.85 282.4 97.83 282.47 100.91 306.4"/><polygon class="cls-29" points="109.81 306.42 104.81 306.41 102.52 288.92 107.47 288.97 109.81 306.42"/><polygon class="cls-30" points="118.64 306.44 113.68 306.43 110.01 279.57 114.9 279.64 118.64 306.44"/><polygon class="cls-31" points="127.39 306.46 122.48 306.45 118.27 276.77 123.1 276.85 127.39 306.46"/></g><polygon class="cls-20" points="128.06 311.09 41.04 311.09 40.75 307.93 127.62 308.06 128.06 311.09"/><path class="cls-32" d="M29.94,140.85v48.43a81.52,81.52,0,0,0,2.87,21.41l.72,2.67a2.28,2.28,0,0,0,2.2,1.68H128a2,2,0,0,0,1.91-2.38c-1.11-4.94-3.5-16.36-3.5-23l-5.3-41.91c0-2,3.68-6.41,1.63-6.47l-90.47-2.72A2.28,2.28,0,0,0,29.94,140.85Z"/><path class="cls-12" d="M29.94,131.41v48.43a81.52,81.52,0,0,0,2.87,21.41l.72,2.67a2.28,2.28,0,0,0,2.2,1.68H128a2,2,0,0,0,1.91-2.38c-1.11-4.94-3.5-16.36-3.5-23v-44.6a3.78,3.78,0,0,0-3.67-3.78l-90.47-2.72A2.28,2.28,0,0,0,29.94,131.41Z"/><path class="cls-20" d="M117.92,147.28h0l-79.29-2a1.38,1.38,0,1,1,.07-2.75l79.29,2a1.38,1.38,0,0,1,0,2.75Z"/><polygon class="cls-14" points="72.73 159.88 62.89 159.59 62.89 152.77 72.73 153.12 72.73 159.88"/><polygon class="cls-14" points="84.65 160.23 75.04 159.95 75.04 153.2 84.65 153.54 84.65 160.23"/><polygon class="cls-14" points="96.31 160.57 86.91 160.29 86.91 153.63 96.31 153.96 96.31 160.57"/><polygon class="cls-14" points="107.7 160.9 98.52 160.63 98.52 154.04 107.7 154.37 107.7 160.9"/><polygon class="cls-14" points="118.84 161.23 109.86 160.96 109.86 154.44 118.84 154.77 118.84 161.23"/><polygon class="cls-14" points="48.03 169.51 37.72 169.31 37.72 162.32 48.03 162.59 48.03 169.51"/><polygon class="cls-14" points="60.52 169.76 50.45 169.56 50.45 162.66 60.52 162.92 60.52 169.76"/><polygon class="cls-14" points="72.73 169.99 62.89 169.8 62.89 162.98 72.73 163.23 72.73 169.99"/><polygon class="cls-14" points="84.65 170.23 75.04 170.04 75.04 163.29 84.65 163.54 84.65 170.23"/><polygon class="cls-14" points="96.31 170.45 86.91 170.27 86.91 163.6 96.31 163.85 96.31 170.45"/><polygon class="cls-14" points="107.7 170.68 98.52 170.5 98.52 163.9 107.7 164.14 107.7 170.68"/><polygon class="cls-14" points="118.84 170.89 109.86 170.72 109.86 164.2 118.84 164.43 118.84 170.89"/><polygon class="cls-14" points="48.03 179.87 37.72 179.77 37.72 172.78 48.03 172.95 48.03 179.87"/><polygon class="cls-14" points="60.52 179.99 50.45 179.89 50.45 172.99 60.52 173.15 60.52 179.99"/><polygon class="cls-14" points="72.73 180.11 62.89 180.01 62.89 173.19 72.73 173.35 72.73 180.11"/><polygon class="cls-14" points="84.65 180.22 75.04 180.13 75.04 173.39 84.65 173.54 84.65 180.22"/><polygon class="cls-14" points="96.31 180.34 86.91 180.25 86.91 173.58 96.31 173.73 96.31 180.34"/><polygon class="cls-14" points="107.7 180.45 98.52 180.36 98.52 173.77 107.7 173.92 107.7 180.45"/><polygon class="cls-14" points="118.84 180.56 109.86 180.47 109.86 173.95 118.84 174.1 118.84 180.56"/><polygon class="cls-14" points="48.03 190.22 37.72 190.22 37.72 183.24 48.03 183.3 48.03 190.22"/><polygon class="cls-14" points="60.52 190.22 50.45 190.22 50.45 183.32 60.52 183.38 60.52 190.22"/><polygon class="cls-14" points="72.73 190.22 62.89 190.22 62.89 183.4 72.73 183.46 72.73 190.22"/><polygon class="cls-14" points="84.65 190.22 75.04 190.22 75.04 183.48 84.65 183.54 84.65 190.22"/><polygon class="cls-14" points="96.31 190.22 86.91 190.22 86.91 183.56 96.31 183.62 96.31 190.22"/><path class="cls-33" d="M270.44,153.77c.17,30.24,1.7,57.36,11.9,64.54l80.2-.54c-5.38-19.3-12.11-39.58-10.72-61.45Z"/><path class="cls-3" d="M229.79,196.49a10.82,10.82,0,0,1-3.71-3.18c-1.28-2-.61-4.91,1.18-7s2.63-7.24,2.63-7.24,2.13,4.64,1.2,6.5-2.72,5.63-2.72,5.63l3,3.23Z"/><path class="cls-14" d="M229.89,191.69l-2.63,3.87s6.6,19.48,27.8,26.2,29.28-10.56,29.28-10.56S253.55,209.36,229.89,191.69Z"/><path class="cls-34" d="M232,196.28a17.6,17.6,0,0,0-4.76-.72s6.6,19.48,27.8,26.2,29.28-10.56,29.28-10.56A64,64,0,0,0,266,208.07c-11.21-.24-14,2.72-19.31-.08C240.67,204.81,239.8,198.57,232,196.28Z"/><path class="cls-14" d="M188.2,171.5l15,39.66a5.22,5.22,0,0,0,9.37.81l33.54-56.64a5.22,5.22,0,0,0-1.67-7.05l-2-1.28a5.21,5.21,0,0,0-7.29,1.71l-25.1,41.89a1.72,1.72,0,0,1-3.07-.24l-9.07-22.65a5.21,5.21,0,0,0-7.61-2.48h0A5.22,5.22,0,0,0,188.2,171.5Z"/><path class="cls-3" d="M207.57,202.28s-2,.54-3-3.33c-.74-3-1.5-3.85-2-3.06s.15,2.47.15,2.47a14.51,14.51,0,0,1-5.51-3.35c-2.17-2.3-1.84.28-1.47,1.74s3.83,5,5.1,5.39,4.13,3.3,4.13,3.3Z"/><path class="cls-35" d="M320.66,263.08a160.3,160.3,0,0,1-4,28.71c-2,8.43-3.05,9.87-3.74,15.72-1.48,12.71,2.58,14.63,3,29a87.63,87.63,0,0,1-5.78,33.26,89.17,89.17,0,0,1-4.33,9.9c-1.48,1.24-3.7.7-6,.17-.56-14.44-1.35-28-1.91-42.48q-3.48-32.64-7-65.29Z"/><path class="cls-35" d="M299.81,379.88c-.56-14.44-1.35-28-1.91-42.48q-3.48-32.64-7-65.29l29.74-9c0,.75-.09,1.47-.13,2.2-14.07,11.69-17,21.14-17,27.62,0,7.87,4.21,11.85,3.12,23.23-.77,8.14-3.25,9.52-3.41,16.88-.2,9.46,3.75,14.87,5.61,20.39,1.8,5.33,2.32,12.83-1.6,23.41-.51,1.09-1,2.06-1.42,2.9C304.37,381,302.15,380.41,299.81,379.88Z"/><path class="cls-35" d="M303.85,271.5a111.39,111.39,0,0,0-17,28.29c-3.53,8.61-6.09,15.06-5.29,23.41.88,9.2,5.05,12.5,7.82,20.35,2.69,7.6,4,19.3-3,36.71l-5.29,1.83c-1.17-4.7-3.07-11.74-5.9-20.12A273.64,273.64,0,0,0,262.5,331c-5.33-11.95-5.87-33.29,16.32-74.47Z"/><path class="cls-36" d="M202.93,205.41c1.51-2.44,3-4.87,4.54-7.3,9.51,15,18.19,18.82,24.44,19.43,11.44,1.12,27.08-8.56,46.43-20.22,2.71-1.63,8.06-4.92,14.26-3.78,1.49.28,6.3,1.41,12,8.58,10.6,13.42,4.2,22.67,13.05,32.3,6.38,6.94,10.47,3,19.73,12.05,6.84,6.73,6.5,10.77,12.61,13.55,7.45,3.4,12.59-.51,16.75,3.57,3.36,3.29,4.13,9.88,1.46,13.12-3.31,4-9.77.29-20.3.53-17.76.4-20.37,11.45-41.18,13.55-6.95.7-15.5,1.43-21.36-3.82-2.93-2.62-4-5.68-6.79-18.65-5.45-25.7-5.51-27.49-7.92-29.53-8.12-6.89-19.88,4-35.09.9C226.62,237.85,214.46,230.77,202.93,205.41Z"/><path class="cls-3" d="M276.6,184a31.55,31.55,0,0,0,4.75,7.92c2.53,2.82,10.46,2.35,12.18,2.58s-1.71,3.85-5.77,5.76-16.43,5.21-19.16,4.38,1.22-2.1,3.84-4.26,2.28-8.66.8-11.14S276.6,184,276.6,184Z"/><path class="cls-3" d="M270.05,192a8.94,8.94,0,0,1-.68-6.46c.69-2.79.95-3.21,1.47-3.8l.74-.77.09-.06a10.46,10.46,0,0,1,2.83-.92c1.31-.06,3.95,4.67,5.42,11.93.24.52.48,1.05.73,1.57,2.55-1.33,3.42-1.35,3.69-1,.58.67.34,5.9-1.9,7.71-2.81,2.27-7.38-4.75-7.4-5.46C274.47,194.6,271.21,194,270.05,192Z"/><path class="cls-37" d="M272.87,188.38c.35-.89,1.49-.44,1.75.53a1.84,1.84,0,0,1-1.38,2.26C272.28,191.21,272.4,189.57,272.87,188.38Z"/><path class="cls-38" d="M391.91,157.74c-11.63-8.65-31.78,1.12-34.86,2.61-8.71,4.22-11.35,8.55-20.05,9.59-7.84.93-8.29-2.27-15.7-1.74-15,1.07-19.57,14.72-29.63,12.2-2.52-.63-5.52-2.3-12.46-4-1.74-.42-4.48-1-7,.35-.56.3-2.45,1.32-2.72,3.26a4.89,4.89,0,0,0,1.83,4.16c.67.53.93.44,1.23.9.85,1.27-.95,3.49-.36,4,.42.37,1.45-.67,2.06-.27s-.18,1.91.43,3.83c-.49,1.46.17,3.64,1.68,6.07a26.2,26.2,0,0,0,6.83,7.57c8.15,6.62,6.05,13.84,11.94,15.94,4.2,1.51,6.08-1.87,14.41-3.27,7.47-1.26,13.38.21,18.72,1.53,14.39,3.57,14.4,9.29,24.41,11.33,11.82,2.42,27.09-2.43,33.12-12.2,4.27-6.92.18-10.27,5.23-22.67,4-9.87,7.7-10.39,8.72-17.43S398.59,162.7,391.91,157.74Z"/></g></g></g></svg>