<svg xmlns="http://www.w3.org/2000/svg" xmlns:xlink="http://www.w3.org/1999/xlink" viewBox="0 0 2768.52 2565.6"><defs><style>.cls-1{isolation:isolate;}.cls-2{fill:#d8dee8;}.cls-3{fill:url(#linear-gradient);}.cls-4{fill:url(#linear-gradient-2);}.cls-5{fill:url(#linear-gradient-3);}.cls-6{fill:url(#linear-gradient-4);}.cls-7{fill:url(#linear-gradient-5);}.cls-42,.cls-46,.cls-8{mix-blend-mode:multiply;}.cls-42,.cls-8{opacity:0.3;}.cls-9{fill:url(#linear-gradient-6);}.cls-10{fill:url(#linear-gradient-7);}.cls-11{fill:url(#linear-gradient-8);}.cls-12{fill:url(#linear-gradient-9);}.cls-13{fill:url(#linear-gradient-10);}.cls-14{fill:url(#linear-gradient-11);}.cls-15{fill:url(#linear-gradient-12);}.cls-16{fill:url(#linear-gradient-13);}.cls-17{fill:url(#linear-gradient-14);}.cls-18{fill:url(#linear-gradient-15);}.cls-19{fill:url(#linear-gradient-16);}.cls-20{fill:url(#linear-gradient-17);}.cls-21{fill:url(#linear-gradient-18);}.cls-22{fill:url(#linear-gradient-19);}.cls-23,.cls-29{fill:#c4c6d0;}.cls-24,.cls-25{fill:#fff;}.cls-25{mix-blend-mode:soft-light;opacity:0.48;}.cls-26{fill:#efeff4;}.cls-27{opacity:0.9;}.cls-28,.cls-29{opacity:0.46;}.cls-30{fill:url(#linear-gradient-20);}.cls-31{fill:#233862;}.cls-32{fill:#ffc2c1;}.cls-33{fill:#282b43;}.cls-34{fill:#1d2035;}.cls-35{fill:url(#linear-gradient-21);}.cls-36{fill:url(#linear-gradient-22);}.cls-37{fill:url(#linear-gradient-23);}.cls-38{fill:url(#linear-gradient-24);}.cls-39{fill:url(#linear-gradient-25);}.cls-40{fill:url(#linear-gradient-26);}.cls-41{fill:url(#linear-gradient-27);}.cls-42{fill:url(#linear-gradient-28);}.cls-43{fill:#313445;}.cls-44{fill:url(#linear-gradient-29);}.cls-45{fill:url(#linear-gradient-30);}.cls-46{opacity:0.2;fill:url(#linear-gradient-31);}.cls-47{fill:url(#linear-gradient-32);}</style><linearGradient id="linear-gradient" x1="7899.48" y1="4031.86" x2="8168.77" y2="4450.76" gradientTransform="matrix(0.98, 0.19, 0.19, -0.98, -7435.29, 3318.65)" gradientUnits="userSpaceOnUse"><stop offset="0" stop-color="#fff"/><stop offset="1" stop-color="#f4f7fa"/></linearGradient><linearGradient id="linear-gradient-2" x1="9508.14" y1="3068.83" x2="9734.71" y2="4207.65" gradientTransform="matrix(1, 0, 0, -1, -8165.02, 3575.22)" gradientUnits="userSpaceOnUse"><stop offset="0" stop-color="#ffc444"/><stop offset="1" stop-color="#f36f56"/></linearGradient><linearGradient id="linear-gradient-3" x1="9436.94" y1="2986.56" x2="9663.51" y2="4125.37" gradientTransform="matrix(1, 0, 0, -1, -8241.45, 4115.51)" xlink:href="#linear-gradient-2"/><linearGradient id="linear-gradient-4" x1="9383.78" y1="2994.91" x2="9610.35" y2="4133.72" gradientTransform="matrix(1, 0, 0, -1, -8317.87, 4655.81)" xlink:href="#linear-gradient-2"/><linearGradient id="linear-gradient-5" x1="9346.36" y1="3082.38" x2="9572.93" y2="4221.19" gradientTransform="matrix(1, 0, 0, -1, -8394.3, 5196.1)" xlink:href="#linear-gradient-2"/><linearGradient id="linear-gradient-6" x1="8406.18" y1="3563" x2="8089.87" y2="4336.66" gradientTransform="matrix(-0.89, -0.46, -0.46, 0.89, 10294.97, 676.94)" xlink:href="#linear-gradient-2"/><linearGradient id="linear-gradient-7" x1="8552.17" y1="3755.06" x2="8154.66" y2="4475.29" gradientTransform="matrix(0.77, 0.64, 0.64, -0.77, -8099.86, -1222.93)" xlink:href="#linear-gradient"/><linearGradient id="linear-gradient-8" x1="13720.09" y1="642.11" x2="13898.66" y2="1600.76" gradientTransform="matrix(1, 0, 0, -1, -12874.62, 1094.96)" gradientUnits="userSpaceOnUse"><stop offset="0" stop-color="#e38ddd"/><stop offset="1" stop-color="#9571f6"/></linearGradient><linearGradient id="linear-gradient-9" x1="13670.49" y1="651.35" x2="13849.06" y2="1610" gradientTransform="matrix(1, 0, 0, -1, -12813.84, 1639.28)" xlink:href="#linear-gradient-8"/><linearGradient id="linear-gradient-10" x1="13620.89" y1="660.6" x2="13799.46" y2="1619.25" gradientTransform="matrix(1, 0, 0, -1, -12753.06, 2183.6)" xlink:href="#linear-gradient-8"/><linearGradient id="linear-gradient-11" x1="13538.57" y1="494.19" x2="13717.15" y2="1452.84" gradientTransform="matrix(1, 0, 0, -1, -12692.28, 2727.92)" xlink:href="#linear-gradient-8"/><linearGradient id="linear-gradient-12" x1="8637.02" y1="3801.88" x2="8239.5" y2="4522.11" gradientTransform="matrix(-0.89, -0.46, -0.46, 0.89, 10294.97, 676.94)" xlink:href="#linear-gradient-8"/><linearGradient id="linear-gradient-13" x1="8363.93" y1="4377.99" x2="8487.9" y2="4835.4" gradientTransform="matrix(0.36, 0.93, 0.93, -0.36, -6556.95, -5333.49)" xlink:href="#linear-gradient"/><linearGradient id="linear-gradient-14" x1="16261.78" y1="-3426.27" x2="16440.35" y2="-2467.61" gradientTransform="matrix(1, 0, 0, -1, -15880.63, -2911.03)" gradientUnits="userSpaceOnUse"><stop offset="0" stop-color="#ff9085"/><stop offset="1" stop-color="#fb6fbb"/></linearGradient><linearGradient id="linear-gradient-15" x1="16201.24" y1="-3475.75" x2="16379.82" y2="-2517.09" gradientTransform="matrix(1, 0, 0, -1, -15697.72, -2429.38)" xlink:href="#linear-gradient-14"/><linearGradient id="linear-gradient-16" x1="16145.26" y1="-3500.83" x2="16323.83" y2="-2542.16" gradientTransform="matrix(1, 0, 0, -1, -15514.82, -1947.73)" xlink:href="#linear-gradient-14"/><linearGradient id="linear-gradient-17" x1="16084.83" y1="-3549.77" x2="16263.4" y2="-2591.1" gradientTransform="matrix(1, 0, 0, -1, -15331.92, -1466.08)" xlink:href="#linear-gradient-14"/><linearGradient id="linear-gradient-18" x1="8883.36" y1="4023.88" x2="8515.76" y2="4605.21" gradientTransform="matrix(-0.89, -0.46, -0.46, 0.89, 10294.97, 676.94)" xlink:href="#linear-gradient-14"/><linearGradient id="linear-gradient-19" x1="9472.32" y1="4432.82" x2="9581.96" y2="4432.82" gradientTransform="matrix(-0.96, -0.28, -0.28, 0.96, 11504.45, -301.59)" xlink:href="#linear-gradient-8"/><linearGradient id="linear-gradient-20" x1="13364.86" y1="1115.11" x2="13095.9" y2="2404.61" gradientTransform="matrix(-1, 0, 0, 1, 15534.09, 0)" gradientUnits="userSpaceOnUse"><stop offset="0" stop-color="#144188"/><stop offset="1" stop-color="#1a7cde"/></linearGradient><linearGradient id="linear-gradient-21" x1="13271.73" y1="1095.69" x2="13002.78" y2="2385.18" xlink:href="#linear-gradient-20"/><linearGradient id="linear-gradient-22" x1="13040.43" y1="2198.51" x2="13142.51" y2="1713.66" xlink:href="#linear-gradient-20"/><linearGradient id="linear-gradient-23" x1="13087.49" y1="1057.26" x2="12818.53" y2="2346.76" xlink:href="#linear-gradient-20"/><linearGradient id="linear-gradient-24" x1="13316.78" y1="1777.18" x2="13273.26" y2="1653.87" gradientTransform="matrix(-1, 0, 0, 1, 15534.09, 0)" gradientUnits="userSpaceOnUse"><stop offset="0" stop-color="#444b8c"/><stop offset="1" stop-color="#26264f"/></linearGradient><linearGradient id="linear-gradient-25" x1="13126.66" y1="1598.52" x2="13142.62" y2="1708.78" xlink:href="#linear-gradient-24"/><linearGradient id="linear-gradient-26" x1="13442.86" y1="1608.18" x2="13358.01" y2="1487.69" xlink:href="#linear-gradient-24"/><linearGradient id="linear-gradient-27" x1="13280.1" y1="1807.59" x2="13465.79" y2="1430.4" xlink:href="#linear-gradient-24"/><linearGradient id="linear-gradient-28" x1="13189.39" y1="1565.49" x2="13597.33" y2="1565.49" xlink:href="#linear-gradient-24"/><linearGradient id="linear-gradient-29" x1="12475.47" y1="1695.57" x2="12562.3" y2="1348.26" gradientTransform="matrix(-1, 0, 0, 1, 12714.92, 0)" xlink:href="#linear-gradient-20"/><linearGradient id="linear-gradient-30" x1="629.78" y1="1784.07" x2="-49.36" y2="1311.76" gradientTransform="matrix(1, 0, 0, 1, 0, 0)" xlink:href="#linear-gradient-20"/><linearGradient id="linear-gradient-31" x1="188.56" y1="1684.34" x2="497.63" y2="1684.34" gradientTransform="matrix(1, 0, 0, 1, 0, 0)" xlink:href="#linear-gradient-14"/><linearGradient id="linear-gradient-32" x1="12659.66" y1="1821.66" x2="12010.62" y2="1370.28" gradientTransform="matrix(-1, 0, 0, 1, 12714.92, 0)" xlink:href="#linear-gradient-20"/></defs><g class="cls-1"><g id="Layer_2" data-name="Layer 2"><g id="Layer_1-2" data-name="Layer 1"><path class="cls-2" d="M2438,652.65l-62.68-7a452,452,0,0,0-15.19-79.22l56.58-24.22a28,28,0,0,0,14.4-38.53L2386,412.32c-7.15-14.48-25.12-20.89-40.13-14.35l-55.72,24.28a457.91,457.91,0,0,0-52-60.28l34.74-47.33c9.35-12.75,6.06-30.37-7.33-39.34l-82.9-55.51c-13.12-8.79-31.22-5.7-40.46,6.88l-34.24,46.61a462.34,462.34,0,0,0-73.54-26.17L2040,191c1.53-15.11-9.91-28.35-25.51-29.59l-96.77-7.65c-15.35-1.22-29.08,9.89-30.7,24.83l-5.94,54.85a448.18,448.18,0,0,0-75.5,13l-22.39-49.6c-6.09-13.49-22.27-19.25-36.13-12.91l-86.3,39.45c-13.74,6.28-20.1,22.26-14.21,35.74l21.5,49.16A440,440,0,0,0,1609,355.76l-43-31.22c-11.84-8.61-28.65-5.74-37.57,6.38l-55.82,75.83c-8.93,12.13-6.69,29.06,5,37.82L1520,476.23A446.79,446.79,0,0,0,1491.7,547l-52.63-5.88c-14.62-1.63-28,9.21-30,24.23L1397,659.72c-2,15.18,8.36,29,23.06,30.77l52.52,6.48a449.08,449.08,0,0,0,10.2,77l-49.33,21.49c-13.8,6-20.36,22.5-14.65,36.86l36.06,90.57c5.81,14.6,21.88,21.62,35.88,15.62l50-21.41A458.41,458.41,0,0,0,1588.16,981l-33,44.91c-9.28,12.64-6.85,31,5.46,40.92l77.75,63c12.56,10.16,30.4,8,39.8-4.78l33.67-45.89a462.69,462.69,0,0,0,74.08,32.41l-6.35,58.6c-1.78,16.38,9.7,31.71,25.67,34.24L1906,1220.25c16.25,2.57,30.81-8.81,32.49-25.4l6-59.63a447.49,447.49,0,0,0,80.87-9.88l24.83,56.78c6.88,15.73,24.76,23.54,40,17.4l95.42-38.64c15.34-6.21,22-24.06,14.88-39.83l-25.88-57.33a439.67,439.67,0,0,0,64.17-50.15l50.89,38c14,10.46,33.27,8.16,43-5.17l61-83.3c9.74-13.31,6.16-32.46-8-42.73l-51.89-37.72A447.21,447.21,0,0,0,2362,806.64l63,7.77c17.1,2.11,32.05-9.59,33.36-26.09l8.15-102.68C2467.78,669.31,2455,654.55,2438,652.65ZM2031.69,944.76c-149.47,62.38-320.64-10.6-382.73-159-60.61-144.81,4.72-310.27,146.26-373.37,143.38-63.92,315.3-1,383.82,144.47C2249.27,706,2183.18,881.53,2031.69,944.76Z"/><rect class="cls-3" x="985.23" y="44.04" width="515.53" height="1399.43" transform="translate(2230.93 1803.09) rotate(-163.9)"/><rect class="cls-4" x="1201.09" y="127.89" width="388.84" height="235.44" transform="translate(2668.15 868.66) rotate(-163.9)"/><rect class="cls-5" x="1124.66" y="392.64" width="388.84" height="235.44" transform="translate(2444.86 1366.56) rotate(-163.9)"/><rect class="cls-6" x="1048.24" y="657.38" width="388.84" height="235.44" transform="translate(2221.58 1864.45) rotate(-163.9)"/><rect class="cls-7" x="971.81" y="922.12" width="388.84" height="235.44" transform="translate(1998.29 2362.35) rotate(-163.9)"/><g class="cls-8"><path class="cls-9" d="M1189.42,0l263.3,76c-42.77,36.43-82.67,83.48-107.8,143.9-47.8,115-8.25,197-18.89,358.19-11.1,168.27-64.93,242-116.84,394.22-37.87,111-75,264.8-81,466.57l-326.87-94.37Z"/></g><rect class="cls-10" x="733.72" y="54.27" width="515.53" height="1399.43" transform="translate(2124.85 1270.72) rotate(167.26)"/><rect class="cls-11" x="690.33" y="126.35" width="388.84" height="235.44" transform="translate(1801.55 286.98) rotate(167.26)"/><rect class="cls-12" x="751.11" y="395.12" width="388.84" height="235.44" transform="translate(1980.89 804.49) rotate(167.26)"/><rect class="cls-13" x="811.89" y="663.88" width="388.84" height="235.44" transform="translate(2160.23 1322) rotate(167.26)"/><rect class="cls-14" x="872.67" y="932.65" width="388.84" height="235.44" transform="translate(2339.57 1839.5) rotate(167.26)"/><g class="cls-8"><path class="cls-15" d="M585.73,128.36,916.9,53.47C879.38,136.93,877.06,202.1,884,249.62c19.54,133.52,117.93,167.41,169.3,329,48.17,151.56,2.24,249.49-4.74,372.71-6.64,117.23,21,274.66,156,471.81L894.4,1493.32Z"/></g><rect class="cls-16" x="470.03" y="171.72" width="515.53" height="1399.43" transform="translate(1850.57 1040.13) rotate(138.41)"/><rect class="cls-17" x="193.87" y="358.56" width="388.84" height="235.44" transform="translate(994.86 574.77) rotate(138.41)"/><rect class="cls-18" x="376.78" y="564.66" width="388.84" height="235.44" transform="translate(1451.36 813.61) rotate(138.41)"/><rect class="cls-19" x="559.68" y="770.75" width="388.84" height="235.44" transform="translate(1907.87 1052.44) rotate(138.41)"/><rect class="cls-20" x="742.58" y="976.85" width="388.84" height="235.44" transform="translate(2364.37 1291.28) rotate(138.41)"/><g class="cls-8"><path class="cls-21" d="M70.55,519.19,318,299.58c-4.35,126.25,30.26,201.44,64.6,247.83,80.29,108.46,183,91.85,304.66,210C801.32,868.28,807.1,976.29,859.16,1088.19c46.15,99.2,135,215.12,318.59,319.45l-178.3,158.23Z"/></g><circle class="cls-22" cx="1121.12" cy="1314.63" r="54.82"/><path class="cls-23" d="M2768.52,2227.34,65.42,2204v69.13c0,18.77,11.79,34.72,27.76,37.57l764.36,136.13a105.49,105.49,0,0,0,27.42,1.28l1854.19-155.22c16.55-1.38,29.37-17.39,29.37-36.67Z"/><path class="cls-23" d="M1773.78,2116.55,55.74,2243C25,2245.29,0,2221.24,0,2189.31V909.93C0,878,25,852.11,55.74,852.11l60.78,35,1657.26-35c25.32,0,45.8,23.41,45.8,52.27V2060.91C1819.58,2089.78,1799.1,2114.69,1773.78,2116.55Z"/><path class="cls-24" d="M1801.17,2116.55,83.13,2243c-30.74,2.26-55.74-21.79-55.74-53.72V909.93c0-31.93,25-57.82,55.74-57.82h1718c25.33,0,45.81,23.41,45.81,52.27V2060.91C1847,2089.78,1826.5,2114.69,1801.17,2116.55Z"/><path class="cls-2" d="M1747.65,2035,147.48,2144.87c-25,1.72-45.35-18-45.35-44.09V980.69c0-26.07,20.33-47.29,45.35-47.4l1600.17-6.9c20.89-.09,37.79,19.09,37.79,42.84v1020.2C1785.44,2013.17,1768.54,2033.58,1747.65,2035Z"/><path class="cls-24" d="M1002.83,887.11c0,11.89-8.84,21.55-19.76,21.58s-19.81-9.59-19.81-21.51,8.87-21.57,19.81-21.58S1002.83,875.22,1002.83,887.11Z"/><path class="cls-25" d="M83.13,2243l1709.34-125.84,8.7-.64c11.62-.85,22.19-6.6,30.26-15.31-123-6.73-199.41-50.38-248.69-95.49-99-90.58-81.81-179.9-188.54-239.46-133.12-74.28-237.8,19.84-338.82-73-61.24-56.31-31.17-98.29-106.53-182.43C865.38,1417.65,811,1449,727.16,1365.1c-106.06-106-53-188.56-144.38-264.7C472,1008,352.42,1093.53,246.92,1004.94c-45.51-38.21-70.48-93.75-83.51-152.83H83.13c-30.74,0-55.74,25.89-55.74,57.82V2189.31C27.39,2221.24,52.39,2245.28,83.13,2243Z"/><path class="cls-26" d="M1882.12,2109.54,65.42,2242.66l792.12,141.08A105.49,105.49,0,0,0,885,2385l1883.56-157.68L1911,2110.44A139,139,0,0,0,1882.12,2109.54Z"/><polygon class="cls-2" points="330.51 2243.81 1842.96 2131.33 2311.05 2194.63 811.63 2314.86 330.51 2243.81"/><path class="cls-24" d="M850.78,1721.84V1344.05c0-24.25,20.53-39.39,38.27-28.26l316.38,198.6c19.73,12.39,19.73,47.47,0,58.66L889.05,1752.42C871.31,1762.48,850.78,1746.09,850.78,1721.84Z"/><path class="cls-26" d="M1891.69,1911.49c0,39.13-29,72.5-64.88,74.56L258.58,2075.73c-42.64,2.44-77.34-30.34-77.34-73.22V740.5A76.11,76.11,0,0,1,258.58,664l1568.23,24.13c35.89.55,64.88,32.71,64.88,71.84Z"/><path class="cls-2" d="M1849.45,1880.09c0,37-27,68.44-60.93,70.31L310.4,2031.8c-40,2.2-72.85-28.68-72.85-69V781.89a72.14,72.14,0,0,1,73.08-72l1477.6,19.31c34,.44,61.22,30.77,61.22,67.73Z"/><path class="cls-26" d="M1891.69,763v57.78L181.24,807.05V743.73c0-42.89,36.9-80.31,79.53-79.66l1567.9,24.12C1864.55,688.75,1891.69,723.83,1891.69,763Z"/><path class="cls-24" d="M301.65,738.84a29.52,29.52,0,0,1-29.81,29.65,30.34,30.34,0,0,1-29.9-30.34,29.5,29.5,0,0,1,29.9-29.65A30.35,30.35,0,0,1,301.65,738.84Z"/><path class="cls-24" d="M392.08,739.88a29.31,29.31,0,0,1-29.53,29.52,30.14,30.14,0,0,1-29.62-30.2,29.3,29.3,0,0,1,29.62-29.51A30.13,30.13,0,0,1,392.08,739.88Z"/><path class="cls-24" d="M481.68,740.92a29.11,29.11,0,0,1-29.26,29.38,29.93,29.93,0,0,1-29.35-30.06,29.09,29.09,0,0,1,29.35-29.37A29.92,29.92,0,0,1,481.68,740.92Z"/><g class="cls-27"><polygon class="cls-24" points="719.71 1933.25 293.86 1955.03 293.86 885.78 719.71 887.48 719.71 1933.25"/><polygon class="cls-24" points="1814.26 1193.94 754.91 1207.51 754.91 887.62 1814.26 891.87 1814.26 1193.94"/><polygon class="cls-24" points="1187.8 1561.43 754.91 1575.39 754.91 1255.49 1187.8 1248.84 1187.8 1561.43"/><polygon class="cls-24" points="1187.8 1909.19 754.91 1931.27 754.91 1611.37 1187.8 1596.6 1187.8 1909.19"/><polygon class="cls-24" points="1814.26 1877.37 1237.07 1906.73 1237.07 1248.1 1814.26 1239.25 1814.26 1877.37"/></g><g class="cls-28"><path class="cls-23" d="M1705.42,1651.43l-87.53-128.59a4.69,4.69,0,0,0-3.94-2A4.81,4.81,0,0,0,1610,1523l-49.54,75.78-82.65-121.49a4.74,4.74,0,0,0-4-2,4.85,4.85,0,0,0-4,2.16L1350,1658.65a5.84,5.84,0,0,0-.22,5.46c.84,1.51,2.47,3,4.24,3l164.77-3.39,83.9-1.73,98.86-2c1.73,0,3.31-1.61,4.12-3.14A5.81,5.81,0,0,0,1705.42,1651.43Z"/><path class="cls-23" d="M1640.23,1441.15c.15,21.87-16.4,39.86-37,40.17s-37.47-17.24-37.58-39.16,16.5-39.83,37.09-40.09S1640.07,1419.3,1640.23,1441.15Z"/></g><path class="cls-29" d="M670.44,991.86c0,22.13-19.05,40.12-40.69,40.19l-243,.88c-22.25.08-40.1-18.09-40.1-40.59v-.23c0-22.5,17.08-40.74,39.33-40.72l244.27.15c21.64,0,40.19,18,40.19,40.1Z"/><path class="cls-29" d="M1163.37,1513.36a9.9,9.9,0,0,1-9.29,10.06l-97.22,2.94a9.3,9.3,0,0,1-9.41-9.56h0a10,10,0,0,1,9.41-10.12l97.22-2.83a9.22,9.22,0,0,1,9.29,9.51Z"/><path class="cls-29" d="M1163.37,1861.6a10.13,10.13,0,0,1-9.29,10.24l-97.22,4.76a9.08,9.08,0,0,1-9.41-9.38h0a10.2,10.2,0,0,1,9.41-10.29l97.22-4.66a9,9,0,0,1,9.29,9.33Z"/><g class="cls-28"><path class="cls-23" d="M1663.28,1153c0,8.47-6.36,15.42-14.2,15.51s-14.22-6.72-14.22-15.22,6.37-15.43,14.22-15.51S1663.28,1144.47,1663.28,1153Z"/><path class="cls-23" d="M1708.9,1152.47c0,8.45-6.32,15.38-14.12,15.47s-14.15-6.71-14.15-15.18,6.34-15.39,14.15-15.47S1708.9,1144,1708.9,1152.47Z"/><path class="cls-23" d="M1754.29,1152c0,8.43-6.28,15.34-14,15.43s-14.07-6.69-14.07-15.14,6.3-15.35,14.07-15.43S1754.29,1143.55,1754.29,1152Z"/></g><path class="cls-29" d="M666.92,1096.39c0-9-8.83-16.2-17.58-16.14L366.66,1082a16.67,16.67,0,0,0-16.49,16.6v183.49c0,9.11,6.6,16.37,15.62,16.21l283.91-4.89c8.75-.15,17.22-7.53,17.22-16.5Z"/><path class="cls-29" d="M670.44,1465.92c0,22.13-19.05,40.56-40.69,41.17l-243,6.94c-22.25.63-40.1-17.1-40.1-39.6v-.22c0-22.51,17.08-41.19,39.33-41.73l244.27-5.9a39.34,39.34,0,0,1,40.19,39.12Z"/><path class="cls-29" d="M666.92,1570.55c0-9-8.83-16-17.58-15.75l-282.68,8.77a17.18,17.18,0,0,0-16.49,17v183.48c0,9.12,6.6,16.19,15.62,15.81L649.7,1768c8.75-.37,17.22-7.94,17.22-16.9Z"/><path class="cls-30" d="M2109.2,1484.8c-23.4-25,41.38-118.84,76.05-160,30.29-35.93,61.42-72.86,99.65-68.18,33.57,4.1,66.23,39.5,68.18,73.43C2358.35,1421.34,2142.47,1520.31,2109.2,1484.8Z"/><path class="cls-31" d="M2390.15,2449.25c4.4,3.58,5.22,12.52,5.74,18.37.24,2.61.36,3.91.07,4.84-2.13,6.72-15.18,7.43-35.63,9.52-32.33,3.3-41.95,5.85-44.48,1-2.37-4.51,3.37-11.89,4-12.71,3.48-4.37,7.74-6,16-8.68,15.25-5,25.56-7.77,28.68-8.6C2384,2447.83,2387.26,2446.9,2390.15,2449.25Z"/><path class="cls-32" d="M2370.93,2419.72l-3.24,36.84c.92,1.78,11.87,7.11,20.57,2.54l8.31-36.21Z"/><path class="cls-31" d="M2133.78,2444.52c5.28,5.83,6.48,16.56,1.89,21.85s-11.3,1.3-30.54,1.88c-20.61.61-26,5.48-40,1.61-5.66-1.56-15.66-5.35-15.47-9.39.14-2.85,5.23-4.31,22.22-10,24.12-8.08,24-8.52,29.14-9.37C2113.89,2439,2126.81,2436.82,2133.78,2444.52Z"/><path class="cls-32" d="M2120.57,2410.9l-10.34,34.39c.78,1.84,11.29,8,20.31,4.1L2145.9,2416Z"/><path class="cls-33" d="M2212.43,1657.71a3222.12,3222.12,0,0,1-28.29,386.71,3221.14,3221.14,0,0,1-73.51,376.49l39.57,10.65c33.47-31.21,75.68-80.33,96.06-149.74,12.64-43.09,8.42-65.23,16.44-118.22,12.77-84.37,38.64-128.58,65.37-196.61,24-61.14,52.41-150.87,67.64-270.81Z"/><path class="cls-34" d="M2331.5,1646.68q12.11,220.5,19.74,449.11,5.67,171.51,8.39,338.65l40.43,5a470.92,470.92,0,0,0,42.15-108.8c14.39-57.69,11.06-92,17.37-151.74,7.08-67.06,17.36-81.67,35.58-166.26,37-171.69,55.46-257.53,14.21-310.93C2496,1684.37,2454,1640.88,2331.5,1646.68Z"/><path class="cls-35" d="M2527.87,1277.25a627.84,627.84,0,0,0-134.44-22.45c-80.78-4.56-121.17-6.85-149.79,12.39-66.1,44.43-14.92,147-42,401.16-3.87,36.3-4.73,72.86-7.53,109.26-4.63,60.26-5.69,63.53-1.5,69.64,26.3,38.3,124.4-19.47,268.2,3.37,80.45,12.77,116.94,42.2,139,21,25.71-24.76,3.66-91.35-15.32-148.67-21.79-65.79-35.25-66.64-47.61-116.19-12.93-51.8-5.11-78.46-3.1-160.14A1447.78,1447.78,0,0,0,2527.87,1277.25Z"/><path class="cls-36" d="M2332.33,1754.46c37.58-2.94,62,18.31,94.41,1.75,44.48-22.7,58.78-93.35,55.94-143.35-4.31-76-47.69-96-40.21-145.11,4-26.56,23-61.82,91.08-97.84.91,30.32.74,56.16.23,76.69-2,81.68-9.83,108.34,3.1,160.14,12.36,49.55,25.82,50.4,47.61,116.19,19,57.32,41,123.91,15.32,148.67-22,21.22-58.53-8.21-139-21-123.9-19.68-213.83,20.43-253.18,7.43C2255.2,1779.48,2298.32,1757.12,2332.33,1754.46Z"/><path class="cls-37" d="M2476.6,1282.47c26.84-22.06,80.81,2.91,95.24,9.58,80.45,37.22,152.69,137.5,134.79,243.48-2.68,15.89-15.13,90.23-78.08,126.26-56.8,32.5-133.5,24.14-195-21.9l-25.2-22.35-24.78-26.79a198.71,198.71,0,0,1,66-36.39c40.86-13.19,70.61,10.47,89.57-7.51,13.08-12.42,13.11-34.34,9.88-47.63-6.51-26.78-30.12-34.31-49.82-53.32C2453,1401.24,2444.46,1308.88,2476.6,1282.47Z"/><polygon class="cls-38" points="2090.87 1628.44 2450.64 1623.07 2354.97 1669.24 2089.95 1651.9 2090.87 1628.44"/><path class="cls-39" d="M2463.34,1632.63h0a16,16,0,0,1-10.54,15l-115,45.07-.53-31.25,113.33-38.43A10,10,0,0,1,2463.34,1632.63Z"/><path class="cls-32" d="M2407.94,1611.34c2.21-.49-10.76-26.32-20.94-23.34s-59.95,31.83-64.48,43.71l-4.52,11.88s21.71,1.69,35.18-2.83S2390,1615.35,2407.94,1611.34Z"/><path class="cls-40" d="M2327.77,1442.28l25.36,230.9c.87,8-10.28,19.84-18.29,19.46l-372-22.84a13,13,0,0,1-12.24-10.82l-46.69-223c-1.4-8.12,13.19-16.5,21.42-16.27l389.86,11A13,13,0,0,1,2327.77,1442.28Z"/><path class="cls-41" d="M2319.27,1449l25.36,230.9a13.05,13.05,0,0,1-13.58,14.46l-376.74-17.84a13,13,0,0,1-12.23-10.82l-38.49-224a13,13,0,0,1,13.22-15.25l389.86,11A13,13,0,0,1,2319.27,1449Z"/><path class="cls-42" d="M2098.05,1622.43c32.9-14,21.29-40.53,60.13-73.66,51.25-43.71,103.48-24.75,121.76-58.63,5.7-10.55,8.42-27-1.5-53.54l28.23.8a13,13,0,0,1,12.6,11.61l25.36,230.9a13.05,13.05,0,0,1-13.58,14.46l-376.74-17.84a13,13,0,0,1-12.23-10.82l-5.31-30.91a142.28,142.28,0,0,1,41-15.38C2033.06,1608.21,2060.18,1638.48,2098.05,1622.43Z"/><path class="cls-32" d="M1930.58,1644.24a3,3,0,0,1,2.64-3.88c8-.4,26.43-.57,36.63,5.67,13.24,8.12,30.36,22.92,15.94,30.39l-13.46,7a2.87,2.87,0,0,1-2,.27c-4.79-1.05-24.93-5.52-27.13-6.62C1941.23,1676,1933.55,1653.24,1930.58,1644.24Z"/><path class="cls-32" d="M2387.4,1166.55a279.66,279.66,0,0,0,5,55.94c2.89,14.91,5,18.76,7.64,21.88,4,4.7,10.08,8.65,44.4,17.16,18.67,4.63,21.08,4.5,21.49,6.35,2,9-48.91,39.85-101.52,32.43-32.19-4.55-61.49-22.92-59.69-32.56s34-4.5,43.56-22.06c6.66-12.22-.81-29.57-9.65-43.93C2347.19,1185.73,2378.84,1182.58,2387.4,1166.55Z"/><path class="cls-43" d="M2329.64,1168.65c-5.53-11.36-2.62-28.75,8.1-38,9.23-8,21.13-7.05,28.25-6.5,20.64,1.6,44.48,15,49.72,35.3,3.11,12-12.71,32.7-15.29,36.47-2.92,4.26-6.88,5.15-10.94,8-5.63,4-14.47,10.3-29,20.94a84,84,0,0,0-1.92-14.6,75.1,75.1,0,0,0-6.45-18C2344.13,1177.42,2334.88,1179.42,2329.64,1168.65Z"/><path class="cls-32" d="M2379.71,1217.27s-17.51,19.19-43.61,12.33c-23.36-6.15-16.49-59.88.82-68.2,5.77-2.77,16.17-2.37,23.93,1.53,4.59,2.31,5.84,4.64,13.4,8.26,7,3.34,9.21,2.92,11.07,5.22,2.32,2.88,3.24,9-4.42,23.61,5.41-3.69,11.17-4.39,14.65-1.83a8.22,8.22,0,0,1,2.56,3.68C2400.23,1208.58,2393.19,1215.24,2379.71,1217.27Z"/><path class="cls-43" d="M2387,1173.45c-1.31.63,1.35,5.56.43,11.64-1.77,11.79-16.34,23.53-28.65,22.37-7.27-.69-8.4-5.38-20-8.92a55,55,0,0,0-17.41-2.36c-6.21,12.1-5.21,25.57,2.21,33.18,8,8.18,20.53,6.6,25.78,5.94,3.51-.44,14.75-1.83,22.16-10.45,7.72-9,3.26-16.17,11.19-21.71,4-2.8,8.66-3.44,14.22-9.28a34.33,34.33,0,0,0,3.28-4C2395.41,1182.18,2388.9,1172.54,2387,1173.45Z"/><path class="cls-32" d="M2329.08,1202.61s4.59,3.66,13.52,4.88c.43.06.88.28.89.51,0,.88-6.35,3.53-11.29,1-3.5-1.76-5.7-5.83-5-6.63C2327.46,1202.09,2328.29,1202.3,2329.08,1202.61Z"/><path class="cls-44" d="M184.12,1349.85c-6.59,2.49-107.08,42.46-127.73,147.34-1.67,8.47-17.81,98.59,43.3,162.24,68.52,71.39,200.47,69.62,252.85,9.94,12.21-13.91,18.65-29.34,22.26-42.3h0L361,1590.41c-16.84-20.33-39.76-25.14-52-28.16-30.18-7.44-53,6-70.26-8.55-9.57-8.06-11.47-19.65-13.16-30-5.79-35.27,14.12-57,15.57-78.73,1.08-16.26,6.77-51.88-14.45-75.11C213.26,1355.15,194.64,1351.14,184.12,1349.85Z"/><path class="cls-32" d="M123.11,2521.09l-21.44-3c9.93-12,8.09-50.06,8.09-50.06l22.81,5.09s-2.6,10.46-7,25.88C124,2504.25,123.36,2512.52,123.11,2521.09Z"/><path class="cls-31" d="M145,2518.74c-1.17-6.46-22-12.3-32.35-3.65-5.13,4.29-8.66,13-5.69,16.93,1.08,1.43-3.34,3.94.89,4C121.87,2536.18,146.13,2525.16,145,2518.74Z"/><path class="cls-31" d="M125,2518.45s-25.81-5.95-28.61-.83-5,18.83,11.42,18.39S126.47,2522.79,125,2518.45Z"/><path class="cls-32" d="M417.9,2548.34H396.24c8.17-13.24,1-50.7,1-50.7l23.3,1.85s-1.11,10.72-3.33,26.61C416.46,2531.54,417,2539.81,417.9,2548.34Z"/><path class="cls-34" d="M474,1729.32A1002.37,1002.37,0,0,1,507.61,1883c26.31,191.36-29.6,197.46-19.16,409.51,3.33,67.69-58.64,223.77-64.1,227.22a67.14,67.14,0,0,1-8.57.33,85.37,85.37,0,0,1-21.83-3.64c-9.82-1.69-45.21-97.56-37-154.55,5.81-40.35,4.12-83.64.76-170.23-.55-14-36.45-273-36.45-273h0c-10.92,95.85-23.47,177.29-34.36,240.43-35,202.86-148.71,325.64-154.64,327.61-1.17.47-11.84,4.35-20.57-1.4a14.19,14.19,0,0,1-5.2-5.86c-3-2.39.89-202.54,35.58-353.17,50.35-218.63,28.43-269.79,44.38-367.45C200.24,1674.34,474,1729.32,474,1729.32Z"/><path class="cls-45" d="M487.52,1762.35c-30.24,15.52-108.11,43.33-200.93,29.51a312.4,312.4,0,0,1-98-31.9c-.72-.36-1.45-.72-2.14-1.09,24.11-72.9,5.22-111.91-3.7-147.88-12.72-51.26-12.9-47.38-23.38-88.13-17.26-67.22-20.09-135.89-8.23-149.92,32-37.88,89.62-39.26,119.53-40.17,33.43-1,110.29-12.76,152.6,25.31.72.65-7.94,5.29-3.66,10.3a278.78,278.78,0,0,1,29.87,42.88c8.92,15.92,17,34.48,25.12,62.11a534,534,0,0,1,19.83,108.4q.66,9,1.2,17.37C501.22,1689,494.08,1732.33,487.52,1762.35Z"/><path class="cls-31" d="M439.21,2543c-2.06-6.23-23.52-9.1-32.54.91-4.47,5-6.75,14.08-3.26,17.56,1.27,1.27-2.76,4.38,1.44,3.83C418.78,2563.45,441.27,2549.14,439.21,2543Z"/><path class="cls-31" d="M419.42,2545.46s-26.4-2.28-28.45,3.18-2.27,19.34,13.88,16.61S421.46,2549.55,419.42,2545.46Z"/><path class="cls-32" d="M366.86,1290.05c9.11-18.18,3.11-37.81,1.77-42-5.6-17.75-7.41-20.37-11-24l-5.09-4.67-.63-.4c-3.45-2-16-4.85-18.68-4.8-8.51.17-23.64,31.79-30.25,79.35q-1,2.6-2,5.24c-4.16,11-7.63,21.73-10.53,32.18-57,8.85-64.47,16.13-64.45,20,0,8.21,33.35,15.38,58.17,17.26,54.11,4.1,108.19-13.88,107.24-23.85-.42-4.34-11.46-9.26-57.28-12q.8-11.38,1.61-22.76C339.31,1308.5,360.15,1303.45,366.86,1290.05Z"/><path class="cls-43" d="M372,1209.26c-2.87,14.58-12.75,28.83-16.73,30.66a24.33,24.33,0,0,0-6.4,4.75,7.62,7.62,0,0,0-1.16,1.56c-5,8.58,7.55,22.22,3.94,25.79-2.62,2.59-11.79-3.32-13.47-1s5.71,8.83,3.88,11.49c-1.37,2-6.07-1-9.92,1.76-1.92,1.37-1.71,2.79-4.39,7.58a46.45,46.45,0,0,1-4.84,7.18c-6.7,7.59-21.58,8-23.66,4-.58-1.1.23-1.78.07-5.13a26,26,0,0,0-1.56-7c-2-5.48-8.45-10.36-14.65-16.93-11.47-12.17-13.51-21-14.06-24-.2-1.06-.3-1.85-.37-2.42-1.38-11.42,1.65-27.22,8.36-36,11.24-14.71,28-3.46,46.07-16.69,20.84-15.27,15.48-42.67,25.38-43.67C359.45,1150.16,377.34,1182.31,372,1209.26Z"/><path class="cls-32" d="M347.11,1267.58c-2.63-5.6-9.8-2.2-11.07,4.15s3.62,14.14,9.84,14S350.64,1275.12,347.11,1267.58Z"/><path class="cls-46" d="M487.52,1762.35c-30.24,15.52-108.11,43.33-200.93,29.51a312.4,312.4,0,0,1-98-31.9c10.77-8.37,24-22.4,46-46.26,26.58-28.86,57.72-18.09,76-7.21a43.24,43.24,0,0,0,65.22-36.08,192.26,192.26,0,0,0-1-24.11c-6.27-65.65,84.69-71.24,84.69-71.24,12.84-6.67,25,4.1,36.11,24.08C501.22,1689,494.08,1732.33,487.52,1762.35Z"/><path class="cls-32" d="M805.5,1469.87c-3.65.36-8.08,4.06-11.2,5.83-4.42,2.51-8.88,5-13.39,7.32-8.71,4.54-17.93,7.91-27.89,7.72a22,22,0,0,1,1.33-4.2c1.68-4,3.91-7.36,2.58-8.54-1.9-1.72-10.27,1.83-18,9.22a49.19,49.19,0,0,0-8.54,10.7c-3.94,6.71-3.28,10.38-6.57,15.5-4.9,4.39-8.58,5.35-8.58,5.35v1.4l.56,1.72a45.35,45.35,0,0,1-13.2,6.61c6.82,1.83,13.48,3.7,20.26,5.56l4.71,7.86s25.71-5.38,41.22-14.78c7.25-4.42,9.74-9.88,10.35-14.4a19.48,19.48,0,0,0-.4-7.25,18.72,18.72,0,0,0-.61-1.9s21.17-8.79,29.53-27.82C809,1472.9,809.07,1469.53,805.5,1469.87Z"/><path class="cls-47" d="M715.81,1510.86c12.09,8.46,18.57,20,21.93,27.28-8.89,20.87-29,59.6-70.77,88.15-68.41,46.81-168.72,48.38-238.58-5C344.91,1557.52,331,1435.23,366,1382.86c4-6,17.3-25.85,37.9-28.13,13-1.43,30.72,3.93,58.69,36.68,58.3,68.26,37.71,110.87,72.15,130.84C586.41,1552.19,663.15,1474,715.81,1510.86Z"/></g></g></g></svg>