<svg xmlns="http://www.w3.org/2000/svg" xmlns:xlink="http://www.w3.org/1999/xlink" viewBox="0 0 400 426.42"><defs><style>.cls-1,.cls-4{fill:#c4c6d0;}.cls-2{fill:#efeff4;}.cls-3{fill:#ffc947;}.cls-12,.cls-15,.cls-20,.cls-4{isolation:isolate;}.cls-4{opacity:0.5;}.cls-5{fill:#ff6224;}.cls-6{fill:#fff;}.cls-7{fill:#383873;}.cls-8{fill:#20c3c5;}.cls-9{fill:#1d2035;}.cls-10{fill:#151826;}.cls-11{fill:#282b43;}.cls-12,.cls-24,.cls-25{fill:none;stroke:#000;stroke-linecap:round;stroke-miterlimit:10;stroke-width:0.82px;}.cls-12,.cls-20{opacity:0.15;}.cls-13{fill:#313445;}.cls-14{fill:#ffc2c1;}.cls-15,.cls-23{opacity:0.25;}.cls-16{fill:url(#linear-gradient);}.cls-17{fill:url(#linear-gradient-2);}.cls-18{fill:#2e4780;}.cls-19{fill:url(#linear-gradient-3);}.cls-21{fill:url(#linear-gradient-4);}.cls-22{fill:#e4e4e8;}.cls-25{stroke-dasharray:4.15 4.15;}.cls-26{fill:#0cba2c;}.cls-27{opacity:0.53;}.cls-28{fill:#0a339a;}.cls-29{fill:#2e3552;}</style><linearGradient id="linear-gradient" x1="221.5" y1="-3334.36" x2="261.38" y2="-3334.36" gradientTransform="matrix(1, 0, 0, -1, 0, -3099.26)" gradientUnits="userSpaceOnUse"><stop offset="0" stop-color="#144188"/><stop offset="1" stop-color="#1a7cde"/></linearGradient><linearGradient id="linear-gradient-2" x1="144.83" y1="-3494.41" x2="194.48" y2="-3494.41" gradientTransform="matrix(1, 0, 0, -1, 0, -3099.26)" gradientUnits="userSpaceOnUse"><stop offset="0" stop-color="#fff"/><stop offset="1" stop-color="#d3dbeb"/></linearGradient><linearGradient id="linear-gradient-3" x1="100.5" y1="-3492.27" x2="141.87" y2="-3492.27" xlink:href="#linear-gradient-2"/><linearGradient id="linear-gradient-4" x1="212.87" y1="-3324.51" x2="241.33" y2="-3324.51" xlink:href="#linear-gradient"/></defs><g id="Layer_2" data-name="Layer 2"><g id="Layer_1-2" data-name="Layer 1"><path class="cls-1" d="M253.87,409.51a1.62,1.62,0,0,1-1.31-.59L128,254.05a1.61,1.61,0,0,1,2.5-2L255.06,406.91a1.59,1.59,0,0,1-.23,2.24h0A1.59,1.59,0,0,1,253.87,409.51Z"/><path class="cls-1" d="M60.65,409.51a1.5,1.5,0,0,1-1-.35,1.58,1.58,0,0,1-.27-2.22l0,0L184,252a1.61,1.61,0,0,1,2.26-.24,1.58,1.58,0,0,1,.26,2.22l0,0L61.91,408.92A1.58,1.58,0,0,1,60.65,409.51Z"/><path class="cls-1" d="M185.22,409.51a1.61,1.61,0,0,1-1.31-.59L59.36,254.05a1.61,1.61,0,0,1,2.5-2L186.41,406.91a1.59,1.59,0,0,1-.21,2.23l0,0A1.56,1.56,0,0,1,185.22,409.51Z"/><path class="cls-1" d="M82.73,257.16H24.87A4.12,4.12,0,0,1,20.75,253h0a4.12,4.12,0,0,1,4.12-4.1H82.73a4.12,4.12,0,0,1,4.12,4.1h0A4.12,4.12,0,0,1,82.73,257.16Z"/><path class="cls-2" d="M249.23,257.16H83.84A4.12,4.12,0,0,1,79.72,253h0a4.12,4.12,0,0,1,4.12-4.1H249.23Z"/><path class="cls-1" d="M127.43,330.48a4.5,4.5,0,1,1-4.5-4.5h0A4.5,4.5,0,0,1,127.43,330.48Z"/><path class="cls-3" d="M196.08,330.48a4.5,4.5,0,1,1-4.5-4.5,4.5,4.5,0,0,1,4.5,4.5Z"/><rect class="cls-4" x="72.82" y="72.41" width="68.72" height="53.78" rx="5.21"/><path class="cls-5" d="M122.09,96.21h-2.15a13.14,13.14,0,0,0-1.47-3.32l1.68-1.66a1.65,1.65,0,0,0,0-2.3l-2.36-2.34a1.61,1.61,0,0,0-2.27,0h0l-1.78,1.78a13.29,13.29,0,0,0-3.14-1.31V84.45A1.61,1.61,0,0,0,109,82.83h-3.3A1.64,1.64,0,0,0,104,84.45v2.61a12.62,12.62,0,0,0-3,1.21l-2-1.94a1.62,1.62,0,0,0-2.29,0h0l-2.34,2.34a1.62,1.62,0,0,0,0,2.29h0l1.79,1.79a13.21,13.21,0,0,0-1.41,3.11H92.27a1.62,1.62,0,0,0-1.63,1.61h0v3.32a1.62,1.62,0,0,0,1.63,1.62h2.21a12.41,12.41,0,0,0,1.31,3.48l-1.52,1.5a1.61,1.61,0,0,0,0,2.29h0l2.34,2.34a1.61,1.61,0,0,0,2.29,0h0l1.31-1.3a13,13,0,0,0,3.58,1.62v1.84a1.63,1.63,0,0,0,1.62,1.62h3.32a1.64,1.64,0,0,0,1.62-1.62v-1.73a12.89,12.89,0,0,0,3.72-1.49l1.31,1.31a1.65,1.65,0,0,0,2.3,0L120,110a1.64,1.64,0,0,0,0-2.3l-1.31-1.31a12.66,12.66,0,0,0,1.43-3.61h2a1.62,1.62,0,0,0,1.62-1.62h0V97.78a1.65,1.65,0,0,0-1.7-1.57ZM109,108a8.34,8.34,0,1,1,6.53-6.53A8.34,8.34,0,0,1,109,108Z"/><rect class="cls-5" x="160.58" y="42.71" width="68.72" height="53.78" rx="5.21"/><path class="cls-6" d="M183.34,78.63a1.53,1.53,0,0,1-1.13-.51L175,70.37A1.77,1.77,0,0,1,175,68l7.37-7.85a1.55,1.55,0,0,1,2.18-.09l.09.09a1.81,1.81,0,0,1,0,2.44l-6.23,6.66,6.1,6.54a1.77,1.77,0,0,1,0,2.41A1.51,1.51,0,0,1,183.34,78.63Z"/><path class="cls-6" d="M206.55,78.63a1.5,1.5,0,0,1-1.14-.51,1.77,1.77,0,0,1,0-2.41l6.12-6.54-6.24-6.66a1.8,1.8,0,0,1,0-2.43,1.53,1.53,0,0,1,2.16-.11l.1.11,7.38,7.84a1.81,1.81,0,0,1,0,2.42l-7.21,7.78A1.51,1.51,0,0,1,206.55,78.63Z"/><path class="cls-6" d="M191.35,80.76a1.25,1.25,0,0,1-.6-.13,1.75,1.75,0,0,1-.89-2.23l7.2-18.9a1.55,1.55,0,0,1,2-1l.13.05a1.77,1.77,0,0,1,.88,2.23l-7.19,18.9A1.62,1.62,0,0,1,191.35,80.76Z"/><path class="cls-6" d="M134.24,100.21H274.55a2.17,2.17,0,0,1,2.17,2.17h0v4.44H132.07v-4.44a2.17,2.17,0,0,1,2.17-2.17Z"/><path class="cls-7" d="M132.07,106.82H276.72v73a4,4,0,0,1-4,4H136.12a4,4,0,0,1-4-4v-73Z"/><path class="cls-5" d="M269.78,103.52a1,1,0,1,1-1-1h0A1,1,0,0,1,269.78,103.52Z"/><path class="cls-5" d="M262.79,103.52a1,1,0,0,1-2,0,1,1,0,0,1,1-1A1,1,0,0,1,262.79,103.52Z"/><path class="cls-5" d="M255.79,103.52a1,1,0,1,1-1-1A1,1,0,0,1,255.79,103.52Z"/><path class="cls-8" d="M219.89,117.24H139.57a1.4,1.4,0,0,1-1.4-1.4h0a1.4,1.4,0,0,1,1.4-1.4h80.32a1.4,1.4,0,0,1,1.4,1.4h0a1.4,1.4,0,0,1-1.4,1.4Z"/><path class="cls-8" d="M219.89,126.14H139.57a1.4,1.4,0,0,1-1.4-1.4h0a1.4,1.4,0,0,1,1.4-1.4h80.32a1.4,1.4,0,0,1,1.4,1.4h0a1.4,1.4,0,0,1-1.4,1.4Z"/><path class="cls-8" d="M181.59,135h-42a1.4,1.4,0,0,1-1.4-1.4h0a1.4,1.4,0,0,1,1.4-1.4h42a1.4,1.4,0,0,1,1.39,1.4h0a1.4,1.4,0,0,1-1.39,1.4Z"/><path class="cls-5" d="M219.89,152.83H139.57a1.4,1.4,0,0,1-1.4-1.4h0a1.4,1.4,0,0,1,1.4-1.4h80.32a1.4,1.4,0,0,1,1.4,1.4h0a1.4,1.4,0,0,1-1.4,1.4Z"/><path class="cls-5" d="M181.59,161.73h-42a1.4,1.4,0,0,1-1.4-1.4h0a1.39,1.39,0,0,1,1.37-1.4h42.05A1.38,1.38,0,0,1,183,160.3v0h0a1.4,1.4,0,0,1-1.39,1.4Z"/><path class="cls-8" d="M181.59,170.62h-42a1.4,1.4,0,0,1-1.4-1.4h0a1.4,1.4,0,0,1,1.4-1.4h42a1.4,1.4,0,0,1,1.39,1.4h0a1.4,1.4,0,0,1-1.39,1.4Z"/><path class="cls-6" d="M219.89,135H189.71a1.38,1.38,0,0,1-1.39-1.37v0h0a1.38,1.38,0,0,1,1.37-1.4h30.2a1.4,1.4,0,0,1,1.4,1.4h0a1.4,1.4,0,0,1-1.4,1.4Z"/><path class="cls-5" d="M259.77,115.06,238.42,136.4a1.39,1.39,0,0,1-2,0h0a1.4,1.4,0,0,1,0-2l21.35-21.35a1.39,1.39,0,0,1,2,0h0a1.4,1.4,0,0,1,0,2Z"/><circle class="cls-5" cx="248.11" cy="155.43" r="12.59"/><path class="cls-8" d="M246.46,164.17a7.14,7.14,0,1,1-7.15-7.12h0a7.12,7.12,0,0,1,7.13,7.11Z"/><polyline class="cls-7" points="132.08 176.13 132.08 201.58 155.46 178.2"/><polygon class="cls-9" points="107.18 208.45 158.49 208.45 177.05 244.17 125.73 244.17 107.18 208.45"/><path class="cls-6" d="M126.77,241.53,111.4,212a.94.94,0,0,1,.5-1.23,1,1,0,0,1,.34-.07h44.44a.92.92,0,0,1,.82.51l15.37,29.56a.93.93,0,0,1-.47,1.23,1.05,1.05,0,0,1-.36.08H127.61A1,1,0,0,1,126.77,241.53Z"/><rect class="cls-9" x="125.73" y="244.17" width="41.56" height="4.77"/><path class="cls-9" d="M203,244.17H162a2.4,2.4,0,0,0-2.38,2.38h0a2.4,2.4,0,0,0,2.38,2.39h41a2.39,2.39,0,0,0,2.39-2.39h0A2.38,2.38,0,0,0,203,244.17Z"/><path class="cls-9" d="M125.73,244.17l-18.55-35.72-.93.71a1.52,1.52,0,0,0-.44,1.93L125.73,249Z"/><rect class="cls-10" x="139.84" y="246.39" width="4.57" height="0.8"/><rect class="cls-10" x="145.59" y="246.39" width="4.57" height="0.8"/><rect class="cls-10" x="151.34" y="246.39" width="4.57" height="0.8"/><path class="cls-11" d="M219.29,314.07S176.72,347.21,170,355.63c-2.54,3.18-7,8.77-11.58,14.49-7.56,9.41-15.57,19.2-16.52,19.43-1.52.4-14.29-9.33-14.68-11.42-.23-1.31,11.4-21.28,21.46-37.31,6.13-9.76,11.67-18.09,13.62-19.88,5.15-4.77,36.82-21.54,36.82-21.54Z"/><path class="cls-12" d="M138.06,382.43s39.76-56.59,59.73-66.12"/><path class="cls-13" d="M263.65,168.75c-.46,1-1,2.09-1.54,3.19-3.12,5.94-.81,11.9-4.37,13.42a4.29,4.29,0,0,1-.72.22c-4.57,1-15.12-5.08-15.58-8.13s3.24-8.27,0-8.9-5,4.84-5,4.84c-2.68.27-3.64-4.21-8-4.21a7.46,7.46,0,0,0-1.83.23,13,13,0,0,0-5,2.77,12.46,12.46,0,0,0-1.31,1.31,8.68,8.68,0,0,1-3.72-7.33c.31-7.71,3.15-13.34,10-14.48.75-8.59,7.84-13.16,17.25-13.45,8.27-.26,9.51,7.18,9.7,9a20.83,20.83,0,0,0-2.42-9c4.13-.18,7.84,2.77,6.83,12.4,1-2.87,4.29-4.68,6.85-2.61-2.36,0-4.66,4-4.66,4a16.26,16.26,0,0,1,4.7,5.1C266.35,159.85,265.75,163.87,263.65,168.75Z"/><path class="cls-14" d="M257.74,185.36l-.1,1.41-.37,5s-7.62,6.53-11.93,0a.16.16,0,0,0-.11-.14c-1.3-2-2.55-2.61-3.64-2.81-2.38-.28-4.32,2-6.3-.48a48.67,48.67,0,0,1-8.69-18.95,7.46,7.46,0,0,1,1.83-.23c4.37,0,5.33,4.48,8,4.2,0,0,1.75-5.46,5-4.83s-.47,5.85,0,8.9c.2,1.31,2.42,3.32,5.23,5,3.27,2,7.33,3.52,9.91,3.22l.45-.08A4.16,4.16,0,0,0,257.74,185.36Z"/><path class="cls-15" d="M258.93,194.68c-3.44,2.34-9.72,2.72-9.72,2.72l-5.15-.76s-2.15-3.13-1.14-4.86a5.92,5.92,0,0,1,1.31-1.38,36.47,36.47,0,0,1,5.89-3.79,19,19,0,0,1,6.54-2.3C261.09,184.06,262.37,192.32,258.93,194.68Z"/><path class="cls-16" d="M257.91,278.11c-7.66,1.48-23.86-3-31.61-6.53-2.29-1-3.86-2-4.24-2.62-1.48-2.61,0-4.62,3.71-12.95.42-.94.85-2,1.31-3.06,2.51-5.89,2.51-18.46,2.51-29.3,0-9.28-.08-17.28,1.4-18.7,3.2-3.07,19.16-13.16,19.16-13.16l3.17,16.56s1.79,8.4,3.69,19.38C260.51,247.92,264.34,276.87,257.91,278.11Z"/><path class="cls-9" d="M263.26,285.48c0,.76-7.64,18.55-14,21.1s-45-.27-45-.27l-19.05,12.47,4,37.51L192,382.43l.08.85c-5.83,3.82-20.51,4.84-22.1,1.56h0c-1.53-3.31-24.92-73.72-15.76-85.92s67.84-30,67.84-30a31.12,31.12,0,0,0,5.23,2.61,100,100,0,0,0,21.13,5.35c2.43.38,4.56.65,6.18.85,2.05.23,3.3.34,3.3.34S263.26,284.71,263.26,285.48Z"/><path class="cls-17" d="M194.48,407.86H145a2.91,2.91,0,0,1,.82-2.61c2-2.42,7.06-4.85,11.91-6.94,4.61-2,9-3.7,10.53-4.87,3.49-2.78,1.89-8.17,1.78-8.5.54,1.1,2.62,1.73,5.23,1.91,5.23.36,13-.94,16.86-3.47l-.08-.95c1.48,2.84,2.17,16.79,2.41,22.72C194.46,406.83,194.48,407.86,194.48,407.86Z"/><path class="cls-18" d="M175.21,386.8c-.16,2.35-.5,6.18-1.18,7.21-1,1.53-12,6.86-13.47,6.35a8.88,8.88,0,0,1-2.9-2.1c4.61-2,9-3.7,10.53-4.88,3.49-2.77,1.88-8.17,1.78-8.49C170.5,386,172.53,386.61,175.21,386.8Z"/><path class="cls-18" d="M194.48,407.86H145a2.91,2.91,0,0,1,.82-2.61h48.58C194.46,406.83,194.48,407.86,194.48,407.86Z"/><path class="cls-19" d="M141.87,389.55a116.06,116.06,0,0,1-7,15.19c-1.31,2.09-2.54,3.45-3.4,3.12-3-1.15-33.68-27.19-30.75-29.09a5.06,5.06,0,0,1,2-.59,59.45,59.45,0,0,1,11.16.46c3.52.37,6.77.76,8.47.76,4.33,0,4.89-1.31,4.89-1.31a8.14,8.14,0,0,0,2.12,2.62C133.1,384.33,140.72,389.85,141.87,389.55Z"/><path class="cls-18" d="M129.31,380.73a14.17,14.17,0,0,1-14.6.73,2.94,2.94,0,0,1-.88-2.82c3.52.37,6.77.76,8.47.76,4.33,0,4.89-1.31,4.89-1.31A8,8,0,0,0,129.31,380.73Z"/><path class="cls-18" d="M134.85,404.74c-1.31,2.09-2.54,3.45-3.4,3.12-3-1.15-33.68-27.19-30.75-29.09a5.06,5.06,0,0,1,2-.59Z"/><path class="cls-14" d="M226.31,245.66c-2.39,3.35-6.68,8.43-10.21,7.92l-.44-.08c-6.73-1.19-46.37-11.12-48.24-11.5s-15.25-.5-14.48-1.89,8.37-5.85,10.45-5.74,10,2.43,18.05,2.17,29,0,29,0l1-1.75,1.49-2.62C212.47,240,221.83,246.3,226.31,245.66Z"/><path class="cls-12" d="M226.31,274.61s-1.82,9.72,5.23,13"/><path class="cls-12" d="M222.58,282.42s-47.05,20.09-49.35,26.31,12,73.7,12,73.7"/><path class="cls-20" d="M263.26,285.48c0,.76-7.64,18.55-14,21.1s-45-.27-45-.27l-19.05,12.47,4,37.51s-8-42.88-8-45.68c0-2.4,53.25-17.7,67.28-33.71,5.51.86,9.48,1.19,9.48,1.19S263.26,284.71,263.26,285.48Z"/><path class="cls-15" d="M238.15,240c-3.31,4.67-8.64,10.62-12.38,16,.42-.94.85-2,1.31-3.06,2.51-5.89,2.51-18.47,2.51-29.3L241,216.08S243.48,232.41,238.15,240Z"/><path class="cls-21" d="M228.4,244.22c-.5.45-1,.9-1.5,1.31a2.94,2.94,0,0,1-.59.12c-4.48.64-13.84-5.7-13.42-13.46a11.55,11.55,0,0,1,1.24-3.25c3.83-7.72,15.35-24.91,17.47-24.12,0,0,7.4,1.15,9.41,11.25C242.89,225.6,236.1,237.09,228.4,244.22Z"/><path class="cls-15" d="M254.62,277.77c-1.62-.19-3.75-.47-6.19-.85a99.85,99.85,0,0,1-21.1-5.34c5.76-.2,18.07-4,19.6-32.17a137.41,137.41,0,0,0,3.1,16.33A223.1,223.1,0,0,1,254.62,277.77Z"/><path class="cls-15" d="M251.58,184.78q-.75.89-1.41,1.83a36.47,36.47,0,0,0-5.89,3.79,4.32,4.32,0,0,0-2.69-1.57l5.07-6.39A27.37,27.37,0,0,0,251.58,184.78Z"/><path class="cls-14" d="M226.31,245.66c-2.39,3.35-6.68,8.43-10.21,7.92l-.44-.08c-4.37-6.31-4.52-14.57-4.26-18.71l1.49-2.62C212.47,240,221.83,246.3,226.31,245.66Z"/><path class="cls-13" d="M263.65,168.75c-.46,1-1,2.09-1.54,3.19a21.32,21.32,0,0,0-2,8.23,14,14,0,0,0-1.57-1.07,28.23,28.23,0,0,0-7,5.68h0c-4.66-1.67-9.81-5.22-10.12-7.34-.47-3.05,3.24-8.27,0-8.9s-5,4.83-5,4.83c-2.68.28-3.63-4.2-8-4.2a7.52,7.52,0,0,0-1.83.23,12.91,12.91,0,0,0-5,2.77s4.94-6.94,12.69-5.54c0,0-1.12-2.16-6.35-1.9,10.94-3.56,17.92-2.16,21.29,1.77C252,169.74,258.41,173.71,263.65,168.75Z"/><path class="cls-22" d="M285.88,318.78H247.74S278,309.88,278,249.89v-2.3c-.31-40.08-8.88-62.19-19.44-68.49A46,46,0,0,1,272.05,174a70.47,70.47,0,0,1,8.42-1.3c26.14-2.62,47,7.57,49.45,19.16S317.13,318.78,285.88,318.78Z"/><path class="cls-1" d="M278,249.89c0,60-30.24,68.89-30.24,68.89H185.22l2.61-1.85,16.46-10.62,33-2.3c1.76-7.37,6.6-7.61,14-8.39,4.3-.43,4.7-7.67,3.41-17.25A218.44,218.44,0,0,0,250,255.72a138.52,138.52,0,0,1-3-16.31,142.25,142.25,0,0,1-1.19-17.63,147.81,147.81,0,0,1,3.07-31.25c.15-.75.3-1.49.47-2.18v-.08a15.44,15.44,0,0,1,2.34-3.47h0a28,28,0,0,1,7-5.69,15,15,0,0,1,1.57,1.07c9.82,7.49,17.57,29.34,17.87,67.43Z"/><path class="cls-1" d="M265.92,407.86h-45a1.62,1.62,0,0,1-1-2.9l11.33-8.81a20.63,20.63,0,0,0,7.84-16.25V318.78h8.65V379.9a20.64,20.64,0,0,0,7.92,16.25L266.91,405a1.62,1.62,0,0,1-1,2.9Z"/><g class="cls-23"><path class="cls-24" d="M300.25,174.92s.33.83.87,2.52"/><path class="cls-25" d="M302.63,182.64a210.8,210.8,0,0,1,5.1,26.83c4.09,31.58,0,75.88-27.45,104"/><path class="cls-24" d="M278.3,315.33c-.64.62-1.31,1.23-2,1.82"/></g><path class="cls-20" d="M247.74,318.78v16.68a59.77,59.77,0,0,1-8.65,3.65V318.78Z"/><path class="cls-20" d="M259.69,292.85c-2,6.36-14.73,5.23-16.27,9.91-3.27,10-5.09,5.59-17.65,6.86-7.19.73-12.41,5.33-15.55,9.15h-25l2.61-1.86,16.46-10.61,33-2.29c1.76-7.37,6.6-7.61,14-8.39,4.3-.43,4.7-7.67,3.41-17.25A218.44,218.44,0,0,0,250,255.72a138.52,138.52,0,0,1-3-16.31,142.25,142.25,0,0,1-1.19-17.63C250.57,247.27,261.19,288.15,259.69,292.85Z"/><path class="cls-20" d="M278,249.89v-2.3c-.31-40.08-8.88-62.19-19.44-68.49A46,46,0,0,1,272.05,174c-1.74,2.51-3.55,6.29-2.7,10.33,1.52,7.14,18.82,34.58,12.2,78.56-4.77,31.72-3.19,48.23,1.79,55.92h-35.6S278,309.88,278,249.89Z"/><path class="cls-15" d="M59.81,217.21a20.61,20.61,0,0,1-.41,3.92H47.13a38.09,38.09,0,0,1-13.07-14.25c3.28,3.58,8.89,7.94,14.6,9.26C53.7,217.25,57.43,216.75,59.81,217.21Z"/><path class="cls-26" d="M88.3,168.5c-1.31,5-7.65,14.62-13.39,24.95-6.26,11.28-11.86,23.35-9.67,31a17.53,17.53,0,0,1,.79,4.36c0,3.33-2.51,2.3-5.07.4a46.22,46.22,0,0,1-5.23-4.76l.19-14.87s-8.43-7.74-1.5-24.69c.43-1.07.94-2.18,1.5-3.33,9.53-19.25,23.83-39.47,10.3-45.18C84.87,135.25,91.17,158.08,88.3,168.5Z"/><g class="cls-27"><path d="M66.2,136.4c6.84,1.46,10.8,8.34,11.55,14.9.38,4-1,8-2.33,11.76-5,13.35-12.66,25.6-17,39.21-.9,3.27-1.84,6.94-.76,10.21a.53.53,0,0,1-.32.68.52.52,0,0,1-.67-.31v0c-1.15-3.62-.13-7.33.86-10.82C62,188.39,69.83,176.24,75,162.92c1.31-3.73,2.77-7.61,2.46-11.61-.67-6.53-4.51-13.38-11.31-14.92Z"/></g><path class="cls-26" d="M79.72,198.55c-5.71,15,0,26.47-8.57,28.11-3.92.74-5.66-2.16-6.38-5.54a30.29,30.29,0,0,1-.29-8.66A29.48,29.48,0,0,1,69,205.12,18.16,18.16,0,0,1,79.72,198.55Z"/><path class="cls-26" d="M59.81,217.21c0,3.51-.83,6.53-2.46,8a6.14,6.14,0,0,1-.47.42C52.83,229,50.24,223,50.24,223s-10.78-5.32-16.13-16.12c-4.1-8.28-5-19.81,4.63-34.65,1.41,10.56,7.2,17.75,12.94,24.57h0l2.13,2.54A29.49,29.49,0,0,1,59.81,217.21Z"/><g class="cls-27"><path d="M38.74,172.18C37,181.12,37.31,191.13,42.25,199c3.53,6,9.57,10.23,12.69,16.57a13.94,13.94,0,0,1,1.31,7,.53.53,0,0,1-1.06-.07v0c.75-16.5-23.1-17.38-16.44-50.33Z"/></g><g class="cls-23"><path d="M79.72,198.55c-6.22,7.56-12.35,16.2-14,26a.53.53,0,0,1-1.05-.16c2-10,8.41-18.3,15-25.86Z"/></g><path class="cls-2" d="M76.26,224.85,72.6,247.31a2,2,0,0,1-2,1.63H47.83a2,2,0,0,1-2-1.63l-3-18.23-.68-4.23a2,2,0,0,1,1.57-2.33,2.56,2.56,0,0,1,.39,0H74.23a2,2,0,0,1,2.06,1.94A1.49,1.49,0,0,1,76.26,224.85Z"/><path class="cls-1" d="M79.72,229.43h-41l1.08-6.12a2.71,2.71,0,0,1,2.62-2.23H76a2.69,2.69,0,0,1,2.61,2.23Z"/><path class="cls-15" d="M64.48,212.53a30.3,30.3,0,0,0,.28,8.61H59.4a20.61,20.61,0,0,0,.41-3.92,29.43,29.43,0,0,0-6-17.9l-2.13-2.54h0a33.78,33.78,0,0,1,2.71-11.84c.32,5.41,1.64,14.79,7,15.79,4.09.76,9.42-3.31,13.48-7.26-2.14,3.93-4.2,7.85-5.92,11.68A29.24,29.24,0,0,0,64.48,212.53Z"/><path class="cls-15" d="M61.44,248.94H47.83a2,2,0,0,1-2-1.63L43,229.43H54.71a33.52,33.52,0,0,0,.23,10.81A16.15,16.15,0,0,0,61.44,248.94Z"/><rect class="cls-28" x="101.01" y="10.12" width="68.72" height="53.78" rx="5.21"/><path class="cls-6" d="M117,29.15v5.78a.85.85,0,0,0,.84.85h3.21a.85.85,0,0,0,.84-.85V29.15a.85.85,0,0,1,.79-.9h.4a.85.85,0,0,1,.83.85V44.78a.83.83,0,0,1-.83.84h-.32a.83.83,0,0,1-.83-.84V38.32a.84.84,0,0,0-.84-.84h-3.21a.83.83,0,0,0-.84.84v6.46a.84.84,0,0,1-.84.84h-.31a.84.84,0,0,1-.84-.84V29.1a.85.85,0,0,1,.84-.85h.34A.85.85,0,0,1,117,29.15Z"/><path class="cls-6" d="M128.18,30.09h-1.49a.83.83,0,0,1-.83-.83v-.11a.85.85,0,0,1,.79-.9h6.71a.85.85,0,0,1,.85.85v.11a.85.85,0,0,1-.85.83h-1.44a.85.85,0,0,0-.85.84v14a.83.83,0,0,1-.83.83h-.32a.83.83,0,0,1-.83-.83V30.93a.85.85,0,0,0-.84-.84Z"/><path class="cls-6" d="M146.56,38.24c-.13-2.3-.26-4.86-.18-6.83h-.08c-.39,1.94-.86,4-1.4,6l-2.14,8.17h-1.31l-2-7.84c-.57-2.22-1.08-4.37-1.42-6.38h-.08c0,2-.11,4.47-.21,6.94l-.3,6.54a.84.84,0,0,1-.84.79h-.09a.84.84,0,0,1-.84-.83v-.06l.94-15.68a.87.87,0,0,1,.84-.8h.69a.87.87,0,0,1,.83.64l1.87,7.32c.6,2.3,1,4,1.39,6h.08c.34-2,.72-3.64,1.31-6l1.8-7.32a.86.86,0,0,1,.81-.64H147a.85.85,0,0,1,.83.8l.91,15.68a.85.85,0,0,1-.79.89h-.22a.85.85,0,0,1-.84-.79Z"/><path class="cls-6" d="M152.34,28.25h.3a.85.85,0,0,1,.85.85v14a.82.82,0,0,0,.81.84h3.25a.84.84,0,0,1,.84.83v0h0a.84.84,0,0,1-.84.83h-5.23a.85.85,0,0,1-.85-.83V29.15a.86.86,0,0,1,.8-.9Z"/><path class="cls-28" d="M191.1,14.74a2.47,2.47,0,0,0,2.7-2.22,2.18,2.18,0,0,0,0-.57,31.79,31.79,0,0,0-.23-3.37,33.9,33.9,0,0,1-.24-3.49A4.58,4.58,0,0,1,197.38,0a4.13,4.13,0,0,1,.93,0h.49V2.11h-.6c-1.66,0-2.34,1.19-2.34,3a23.48,23.48,0,0,0,.23,3c.08,1,.2,2,.2,2.93,0,3.09-1,4.17-2.73,4.64v.09c1.71.51,2.77,1.58,2.73,4.72,0,1-.12,2-.2,3a24.24,24.24,0,0,0-.23,3.06c0,1.79.6,3,2.38,3h.56v2.05h-.53c-2.61,0-5-1.31-5-5.07a34.68,34.68,0,0,1,.24-3.53c.13-1.13.21-2.27.23-3.41a2.51,2.51,0,0,0-2.16-2.81,2.36,2.36,0,0,0-.53,0Z"/><path class="cls-28" d="M231.54,16.71A2.53,2.53,0,0,0,228.82,19a2.88,2.88,0,0,0,0,.51,32.75,32.75,0,0,0,.24,3.42,29.59,29.59,0,0,1,.24,3.52c0,3.77-2.33,5.08-5,5.08h-.51v-2h.55c1.79-.21,2.38-1.23,2.38-3,0-1.07-.12-2.07-.2-3.06a24.44,24.44,0,0,1-.24-3c0-3.13,1-4.2,2.74-4.71v-.09c-1.7-.48-2.77-1.55-2.74-4.64a28.69,28.69,0,0,1,.24-2.93c.08-1,.2-1.95.2-3,0-1.78-.67-2.77-2.34-3h-.59V0h.47a4.59,4.59,0,0,1,5,4.12,4.3,4.3,0,0,1,0,1,29.09,29.09,0,0,1-.24,3.49,31.81,31.81,0,0,0-.24,3.37A2.49,2.49,0,0,0,231,14.73a2.62,2.62,0,0,0,.56,0Z"/><polygon class="cls-5" points="217.92 19.6 217.92 11.97 211.32 8.15 204.71 11.97 204.71 19.6 211.32 23.42 217.92 19.6"/><path class="cls-5" d="M267.63,57.62a16.11,16.11,0,0,0-19.22,25.13L246,82.46a.54.54,0,0,0-.59.45h0a.54.54,0,0,0,.46.6h0l3.69.43a.5.5,0,0,0,.39-.1.51.51,0,0,0,.19-.35l.44-3.57a.54.54,0,0,0-.47-.6h0a.52.52,0,0,0-.58.45v0l-.28,2.27a15,15,0,0,1,17.92-23.52.54.54,0,0,0,.48-1Z"/><path class="cls-5" d="M253.74,87.21A16.11,16.11,0,0,0,273,62.08l2.42.28a.51.51,0,0,0,.58-.45h0a.55.55,0,0,0-.46-.61l-3.7-.43a.5.5,0,0,0-.39.11.52.52,0,0,0-.2.35l-.43,3.58a.55.55,0,0,0,.47.59.54.54,0,0,0,.6-.46h0l.26-2.28a15,15,0,0,1-17.92,23.53.53.53,0,0,0-.71.24h0A.51.51,0,0,0,253.74,87.21Z"/><path class="cls-5" d="M396.8,117.24H300a3.21,3.21,0,0,1-3.19-3.2h0a3.19,3.19,0,0,1,3.19-3.19H396.8A3.21,3.21,0,0,1,400,114h0a3.2,3.2,0,0,1-3.2,3.2Z"/><path class="cls-4" d="M362.23,131.13H300a3.2,3.2,0,0,1-3.19-3.2h0a3.19,3.19,0,0,1,3.19-3.19h62.24a3.21,3.21,0,0,1,3.2,3.19h0a3.2,3.2,0,0,1-3.2,3.2Z"/><path class="cls-4" d="M362.23,146.05H300a3.21,3.21,0,0,1-3.19-3.21h0a3.19,3.19,0,0,1,3.19-3.19h62.24a3.21,3.21,0,0,1,3.2,3.19h0a3.21,3.21,0,0,1-3.2,3.21Z"/><path class="cls-4" d="M53.51,64.15H3.25A3.19,3.19,0,0,1,.07,61h0a3.18,3.18,0,0,1,3.18-3.19H53.51A3.18,3.18,0,0,1,56.69,61h0A3.19,3.19,0,0,1,53.51,64.15Z"/><path class="cls-5" d="M34.56,78.05H3.19A3.21,3.21,0,0,1,0,74.84H0a3.18,3.18,0,0,1,3.19-3.18H34.56a3.2,3.2,0,0,1,3.2,3.18h0A3.21,3.21,0,0,1,34.56,78.05Z"/><path class="cls-5" d="M34.56,93H3.19A3.21,3.21,0,0,1,0,89.76H0a3.19,3.19,0,0,1,3.19-3.19H34.56a3.2,3.2,0,0,1,3.2,3.19h0A3.21,3.21,0,0,1,34.56,93Z"/><path class="cls-29" d="M356.15,426.42H31.29A9.27,9.27,0,0,1,22,417.14h0a9.28,9.28,0,0,1,9.28-9.28H356.15a9.28,9.28,0,0,1,9.28,9.28h0a9.27,9.27,0,0,1-9.28,9.28Z"/></g></g></svg>