<svg xmlns="http://www.w3.org/2000/svg" xmlns:xlink="http://www.w3.org/1999/xlink" viewBox="0 0 1142.89 840.11"><defs><style>.cls-1{fill:none;}.cls-2{isolation:isolate;}.cls-3{clip-path:url(#clip-path);}.cls-4{fill:url(#linear-gradient);}.cls-5{fill:url(#linear-gradient-2);}.cls-6{fill:url(#linear-gradient-3);}.cls-7{fill:url(#linear-gradient-4);}.cls-8{fill:url(#linear-gradient-5);}.cls-9{fill:url(#linear-gradient-6);}.cls-10{fill:url(#linear-gradient-7);}.cls-11{fill:url(#linear-gradient-8);}.cls-12{fill:url(#linear-gradient-9);}.cls-13{fill:url(#linear-gradient-10);}.cls-14{fill:url(#linear-gradient-11);}.cls-15{fill:url(#linear-gradient-12);}.cls-16{fill:url(#linear-gradient-13);}.cls-17{fill:url(#linear-gradient-14);}.cls-18{fill:url(#linear-gradient-15);}.cls-19{fill:url(#linear-gradient-16);}.cls-20,.cls-25,.cls-27,.cls-28,.cls-29,.cls-42,.cls-56,.cls-63,.cls-72,.cls-80,.cls-81{mix-blend-mode:overlay;}.cls-20,.cls-25,.cls-27,.cls-28,.cls-29,.cls-50,.cls-56,.cls-63,.cls-72,.cls-80,.cls-81{opacity:0.56;}.cls-20{fill:url(#linear-gradient-17);}.cls-21{fill:url(#linear-gradient-18);}.cls-22{fill:url(#linear-gradient-19);}.cls-23{fill:url(#linear-gradient-20);}.cls-24{fill:#fff;}.cls-25{fill:url(#linear-gradient-21);}.cls-26,.cls-50{fill:#a5ffff;}.cls-27{fill:url(#linear-gradient-22);}.cls-28{fill:url(#linear-gradient-23);}.cls-29{fill:url(#linear-gradient-24);}.cls-30{fill:url(#linear-gradient-25);}.cls-31{fill:#193164;}.cls-32{fill:#1a6cbe;}.cls-33{fill:#102465;}.cls-34{fill:#00154f;}.cls-35{fill:url(#linear-gradient-26);}.cls-36,.cls-85{fill:#1a9bdb;}.cls-37{fill:#103450;}.cls-38{fill:#ffc6a0;}.cls-39{fill:#fdf7fb;}.cls-40,.cls-42,.cls-43{fill:#00edf9;}.cls-41{fill:#ff20ce;}.cls-42,.cls-43,.cls-88{opacity:0.6;}.cls-44{fill:url(#linear-gradient-27);}.cls-45{fill:url(#linear-gradient-28);}.cls-46{fill:url(#linear-gradient-29);}.cls-47{fill:url(#linear-gradient-30);}.cls-48{fill:url(#linear-gradient-31);}.cls-49{fill:url(#linear-gradient-32);}.cls-51{fill:#b4ffff;}.cls-52{fill:#b8ffff;opacity:0.81;}.cls-53{fill:url(#linear-gradient-33);}.cls-54{fill:url(#linear-gradient-34);}.cls-55{fill:url(#linear-gradient-35);}.cls-56{fill:url(#linear-gradient-36);}.cls-57{fill:url(#linear-gradient-37);}.cls-58{fill:url(#linear-gradient-38);}.cls-59{fill:url(#linear-gradient-39);}.cls-60{fill:url(#linear-gradient-40);}.cls-61{fill:url(#linear-gradient-41);}.cls-62{fill:url(#linear-gradient-42);}.cls-63{fill:url(#linear-gradient-43);}.cls-64{fill:url(#linear-gradient-44);}.cls-65{fill:url(#linear-gradient-45);}.cls-66{fill:url(#linear-gradient-46);}.cls-67{fill:url(#linear-gradient-47);}.cls-68{fill:url(#linear-gradient-48);}.cls-69{fill:url(#linear-gradient-49);}.cls-70{fill:url(#linear-gradient-50);}.cls-71{fill:url(#linear-gradient-51);}.cls-72{fill:url(#linear-gradient-52);}.cls-73{fill:url(#linear-gradient-53);}.cls-74{fill:url(#linear-gradient-54);}.cls-75{fill:url(#linear-gradient-55);}.cls-76{fill:#162a56;}.cls-77{fill:url(#linear-gradient-56);}.cls-78{fill:#165da4;}.cls-79,.cls-85{mix-blend-mode:multiply;}.cls-79{opacity:0.3;}.cls-80{fill:url(#linear-gradient-57);}.cls-81{fill:url(#linear-gradient-58);}.cls-82{fill:url(#linear-gradient-59);}.cls-83{fill:url(#linear-gradient-60);}.cls-84{fill:url(#linear-gradient-61);}.cls-85{opacity:0.4;}.cls-86{fill:#011c63;}.cls-87{fill:#fcfefb;}.cls-89{fill:url(#linear-gradient-62);}.cls-90{fill:url(#linear-gradient-63);}.cls-91{fill:url(#linear-gradient-64);}.cls-92{fill:url(#linear-gradient-65);}</style><clipPath id="clip-path" transform="translate(-68.1 -25.77)"><rect class="cls-1" width="1030" height="686.67"/></clipPath><linearGradient id="linear-gradient" x1="252.94" y1="193.36" x2="246.93" y2="210.36" gradientUnits="userSpaceOnUse"><stop offset="0" stop-color="#89daf4"/><stop offset="1" stop-color="#008dd7"/></linearGradient><linearGradient id="linear-gradient-2" x1="249.97" y1="392.28" x2="268.84" y2="392.28" gradientUnits="userSpaceOnUse"><stop offset="0" stop-color="#144188"/><stop offset="1" stop-color="#1a7cde"/></linearGradient><linearGradient id="linear-gradient-3" x1="231.03" y1="392.28" x2="249.97" y2="392.28" gradientUnits="userSpaceOnUse"><stop offset="0" stop-color="#144188"/><stop offset="1" stop-color="#102465"/></linearGradient><linearGradient id="linear-gradient-4" x1="250.74" y1="260.29" x2="249.36" y2="476.39" gradientUnits="userSpaceOnUse"><stop offset="0" stop-color="#0276ce" stop-opacity="0"/><stop offset="0.06" stop-color="#0276ce" stop-opacity="0.16"/><stop offset="0.15" stop-color="#0276ce" stop-opacity="0.38"/><stop offset="0.25" stop-color="#0276ce" stop-opacity="0.57"/><stop offset="0.35" stop-color="#0276ce" stop-opacity="0.73"/><stop offset="0.45" stop-color="#0276ce" stop-opacity="0.85"/><stop offset="0.56" stop-color="#0276ce" stop-opacity="0.93"/><stop offset="0.68" stop-color="#0276ce" stop-opacity="0.98"/><stop offset="0.81" stop-color="#0276ce"/></linearGradient><linearGradient id="linear-gradient-5" x1="227.36" y1="271.7" x2="223.34" y2="283.07" xlink:href="#linear-gradient"/><linearGradient id="linear-gradient-6" x1="225.38" y1="404.77" x2="238" y2="404.77" xlink:href="#linear-gradient-2"/><linearGradient id="linear-gradient-7" x1="212.7" y1="404.77" x2="225.38" y2="404.77" xlink:href="#linear-gradient-3"/><linearGradient id="linear-gradient-8" x1="225.89" y1="316.47" x2="224.97" y2="461.03" gradientUnits="userSpaceOnUse"><stop offset="0" stop-color="#006ac6" stop-opacity="0"/><stop offset="0.05" stop-color="#006ac6" stop-opacity="0.13"/><stop offset="0.14" stop-color="#006bc6" stop-opacity="0.36"/><stop offset="0.24" stop-color="#006bc7" stop-opacity="0.56"/><stop offset="0.35" stop-color="#006bc7" stop-opacity="0.72"/><stop offset="0.45" stop-color="#006cc7" stop-opacity="0.84"/><stop offset="0.56" stop-color="#006cc7" stop-opacity="0.93"/><stop offset="0.68" stop-color="#006cc7" stop-opacity="0.98"/><stop offset="0.82" stop-color="#006cc7"/></linearGradient><linearGradient id="linear-gradient-9" x1="21.92" y1="472.19" x2="15.91" y2="489.19" xlink:href="#linear-gradient"/><linearGradient id="linear-gradient-10" x1="18.95" y1="620.38" x2="37.82" y2="620.38" xlink:href="#linear-gradient-2"/><linearGradient id="linear-gradient-11" x1="0" y1="620.38" x2="18.95" y2="620.38" xlink:href="#linear-gradient-3"/><linearGradient id="linear-gradient-12" x1="19.51" y1="521.16" x2="18.48" y2="681.29" gradientUnits="userSpaceOnUse"><stop offset="0" stop-color="#0044ae" stop-opacity="0"/><stop offset="0" stop-color="#0044ae" stop-opacity="0.01"/><stop offset="0.1" stop-color="#0044ae" stop-opacity="0.27"/><stop offset="0.21" stop-color="#0044ae" stop-opacity="0.5"/><stop offset="0.32" stop-color="#0044ae" stop-opacity="0.68"/><stop offset="0.43" stop-color="#0044ae" stop-opacity="0.82"/><stop offset="0.54" stop-color="#0044ae" stop-opacity="0.92"/><stop offset="0.67" stop-color="#0044ae" stop-opacity="0.98"/><stop offset="0.81" stop-color="#0044ae"/></linearGradient><linearGradient id="linear-gradient-13" x1="296.61" y1="260.34" x2="292.83" y2="271.01" xlink:href="#linear-gradient"/><linearGradient id="linear-gradient-14" x1="294.74" y1="385.24" x2="306.59" y2="385.24" xlink:href="#linear-gradient-2"/><linearGradient id="linear-gradient-15" x1="282.85" y1="385.24" x2="294.74" y2="385.24" xlink:href="#linear-gradient-3"/><linearGradient id="linear-gradient-16" x1="295.22" y1="302.37" x2="294.36" y2="438.05" xlink:href="#linear-gradient-4"/><linearGradient id="linear-gradient-17" x1="561.48" y1="86.44" x2="558" y2="584.59" gradientUnits="userSpaceOnUse"><stop offset="0.04" stop-color="#93fffd" stop-opacity="0"/><stop offset="0.14" stop-color="#95fffd" stop-opacity="0.07"/><stop offset="0.33" stop-color="#9bfefe" stop-opacity="0.25"/><stop offset="0.61" stop-color="#a4fdfe" stop-opacity="0.54"/><stop offset="0.95" stop-color="#b0fbff" stop-opacity="0.94"/><stop offset="1" stop-color="#b2fbff"/></linearGradient><linearGradient id="linear-gradient-18" x1="599.4" y1="225.93" x2="520.66" y2="448.57" xlink:href="#linear-gradient"/><linearGradient id="linear-gradient-19" x1="560.51" y1="588.76" x2="807.66" y2="588.76" xlink:href="#linear-gradient-2"/><linearGradient id="linear-gradient-20" x1="312.28" y1="588.76" x2="560.51" y2="588.76" xlink:href="#linear-gradient-3"/><linearGradient id="linear-gradient-21" x1="560.21" y1="155.5" x2="559.67" y2="212.99" xlink:href="#linear-gradient-17"/><linearGradient id="linear-gradient-22" x1="347.45" y1="278.12" x2="346.91" y2="335.61" xlink:href="#linear-gradient-17"/><linearGradient id="linear-gradient-23" x1="776.62" y1="278.12" x2="776.08" y2="335.61" xlink:href="#linear-gradient-17"/><linearGradient id="linear-gradient-24" x1="560.21" y1="398.28" x2="559.67" y2="455.77" xlink:href="#linear-gradient-17"/><linearGradient id="linear-gradient-25" x1="646.19" y1="268.52" x2="613.61" y2="464.91" gradientUnits="userSpaceOnUse"><stop offset="0" stop-color="#cdeffb"/><stop offset="1" stop-color="#89daf4"/></linearGradient><linearGradient id="linear-gradient-26" x1="485.46" y1="261.19" x2="667.49" y2="261.19" xlink:href="#linear-gradient-25"/><linearGradient id="linear-gradient-27" x1="496.91" y1="505.81" x2="459.6" y2="560.09" xlink:href="#linear-gradient-2"/><linearGradient id="linear-gradient-28" x1="477.34" y1="492.93" x2="392.53" y2="507.35" gradientUnits="userSpaceOnUse"><stop offset="0.15" stop-color="#144188"/><stop offset="1" stop-color="#1a7cde"/></linearGradient><linearGradient id="linear-gradient-29" x1="496.91" y1="582.23" x2="459.6" y2="636.51" xlink:href="#linear-gradient-2"/><linearGradient id="linear-gradient-30" x1="477.34" y1="569.35" x2="392.53" y2="583.77" xlink:href="#linear-gradient-28"/><linearGradient id="linear-gradient-31" x1="496.91" y1="658.65" x2="459.6" y2="712.92" xlink:href="#linear-gradient-2"/><linearGradient id="linear-gradient-32" x1="477.34" y1="645.77" x2="392.53" y2="660.18" xlink:href="#linear-gradient-28"/><linearGradient id="linear-gradient-33" x1="139.58" y1="313.03" x2="117.68" y2="374.95" xlink:href="#linear-gradient"/><linearGradient id="linear-gradient-34" x1="128.76" y1="545.41" x2="197.51" y2="545.41" xlink:href="#linear-gradient-2"/><linearGradient id="linear-gradient-35" x1="59.72" y1="545.41" x2="128.76" y2="545.41" xlink:href="#linear-gradient-3"/><linearGradient id="linear-gradient-36" x1="147.11" y1="175.15" x2="89.01" y2="339.44" xlink:href="#linear-gradient-17"/><linearGradient id="linear-gradient-37" x1="102.17" y1="510.03" x2="78.61" y2="509.56" xlink:href="#linear-gradient-2"/><linearGradient id="linear-gradient-38" x1="109.06" y1="610.64" x2="89.68" y2="610.26" xlink:href="#linear-gradient-2"/><linearGradient id="linear-gradient-39" x1="127.22" y1="716.87" x2="128.98" y2="475.63" gradientUnits="userSpaceOnUse"><stop offset="0" stop-color="#0044ae"/><stop offset="0.18" stop-color="#0044ae" stop-opacity="0.76"/><stop offset="0.46" stop-color="#0044ae" stop-opacity="0.44"/><stop offset="0.7" stop-color="#0044ae" stop-opacity="0.2"/><stop offset="0.89" stop-color="#0044ae" stop-opacity="0.05"/><stop offset="1" stop-color="#0044ae" stop-opacity="0"/></linearGradient><linearGradient id="linear-gradient-40" x1="864.81" y1="161.28" x2="853.22" y2="194.03" xlink:href="#linear-gradient"/><linearGradient id="linear-gradient-41" x1="859.09" y1="349.05" x2="895.45" y2="349.05" xlink:href="#linear-gradient-2"/><linearGradient id="linear-gradient-42" x1="822.56" y1="349.05" x2="859.09" y2="349.05" xlink:href="#linear-gradient-3"/><linearGradient id="linear-gradient-43" x1="868.79" y1="88.34" x2="838.06" y2="175.25" xlink:href="#linear-gradient-17"/><linearGradient id="linear-gradient-44" x1="861.26" y1="494.8" x2="864.77" y2="261.45" gradientUnits="userSpaceOnUse"><stop offset="0" stop-color="#0091de"/><stop offset="0.09" stop-color="#0092de" stop-opacity="0.96"/><stop offset="0.24" stop-color="#0093df" stop-opacity="0.86"/><stop offset="0.42" stop-color="#0096e1" stop-opacity="0.7"/><stop offset="0.63" stop-color="#0099e3" stop-opacity="0.47"/><stop offset="0.86" stop-color="#009de6" stop-opacity="0.19"/><stop offset="1" stop-color="#00a0e8" stop-opacity="0"/></linearGradient><linearGradient id="linear-gradient-45" x1="1016.39" y1="208.25" x2="968.57" y2="343.48" xlink:href="#linear-gradient"/><linearGradient id="linear-gradient-46" x1="992.77" y1="523.66" x2="1142.89" y2="523.66" xlink:href="#linear-gradient-2"/><linearGradient id="linear-gradient-47" x1="842" y1="523.66" x2="992.77" y2="523.66" xlink:href="#linear-gradient-3"/><linearGradient id="linear-gradient-48" x1="893.91" y1="449.31" x2="870.35" y2="448.84" xlink:href="#linear-gradient-2"/><linearGradient id="linear-gradient-49" x1="900.8" y1="549.92" x2="881.42" y2="549.53" xlink:href="#linear-gradient-2"/><linearGradient id="linear-gradient-50" x1="927.06" y1="468.24" x2="903.5" y2="467.77" xlink:href="#linear-gradient-2"/><linearGradient id="linear-gradient-51" x1="933.96" y1="568.85" x2="914.58" y2="568.46" xlink:href="#linear-gradient-2"/><linearGradient id="linear-gradient-52" x1="1023.07" y1="-3.84" x2="926.87" y2="268.17" xlink:href="#linear-gradient-17"/><linearGradient id="linear-gradient-53" x1="803.66" y1="454.99" x2="755.83" y2="590.22" xlink:href="#linear-gradient"/><linearGradient id="linear-gradient-54" x1="780.03" y1="674.04" x2="930.15" y2="674.04" xlink:href="#linear-gradient-2"/><linearGradient id="linear-gradient-55" x1="629.26" y1="674.04" x2="780.03" y2="674.04" xlink:href="#linear-gradient-3"/><linearGradient id="linear-gradient-56" x1="865.11" y1="495.14" x2="802.31" y2="622.6" xlink:href="#linear-gradient-25"/><linearGradient id="linear-gradient-57" x1="839.72" y1="402.43" x2="834.45" y2="561.34" xlink:href="#linear-gradient-17"/><linearGradient id="linear-gradient-58" x1="264.82" y1="355.22" x2="265.26" y2="548.96" xlink:href="#linear-gradient-17"/><linearGradient id="linear-gradient-59" x1="280.42" y1="449.62" x2="249.63" y2="536.69" xlink:href="#linear-gradient"/><linearGradient id="linear-gradient-60" x1="265.21" y1="627.53" x2="361.87" y2="627.53" xlink:href="#linear-gradient-2"/><linearGradient id="linear-gradient-61" x1="168.13" y1="627.53" x2="265.21" y2="627.53" xlink:href="#linear-gradient-3"/><linearGradient id="linear-gradient-62" x1="62.61" y1="568.26" x2="57.8" y2="581.85" xlink:href="#linear-gradient"/><linearGradient id="linear-gradient-63" x1="60.23" y1="686.73" x2="75.32" y2="686.73" xlink:href="#linear-gradient-2"/><linearGradient id="linear-gradient-64" x1="45.09" y1="686.73" x2="60.23" y2="686.73" xlink:href="#linear-gradient-3"/><linearGradient id="linear-gradient-65" x1="60.68" y1="607.4" x2="59.86" y2="735.42" xlink:href="#linear-gradient-12"/></defs><g class="cls-2"><g id="Layer_2" data-name="Layer 2"><g id="Layer_1-2" data-name="Layer 1"><g class="cls-3"><g class="cls-2"><polygon class="cls-4" points="268.84 201.87 249.97 212.82 231.03 201.87 249.97 190.92 268.84 201.87"/><polygon class="cls-5" points="268.84 201.87 268.84 571.74 249.97 582.69 249.97 212.82 268.84 201.87"/><polygon class="cls-6" points="249.97 212.82 249.97 582.69 231.03 571.74 231.03 201.87 249.97 212.82"/></g><polygon class="cls-7" points="249.97 190.92 231.03 201.87 231.03 571.74 249.97 582.69 268.84 571.74 268.84 201.87 249.97 190.92"/><g class="cls-2"><polygon class="cls-8" points="238 277.39 225.38 284.72 212.7 277.39 225.38 270.07 238 277.39"/><polygon class="cls-9" points="238 277.39 238 524.81 225.38 532.14 225.38 284.72 238 277.39"/><polygon class="cls-10" points="225.38 284.72 225.38 532.14 212.7 524.81 212.7 277.39 225.38 284.72"/></g><polygon class="cls-11" points="225.38 270.07 212.7 277.39 212.7 524.81 225.38 532.14 238 524.81 238 277.39 225.38 270.07"/><g class="cls-2"><polygon class="cls-12" points="37.82 480.7 18.95 491.66 0 480.7 18.95 469.75 37.82 480.7"/><polygon class="cls-13" points="37.82 480.7 37.82 749.11 18.95 760.06 18.95 491.66 37.82 480.7"/><polygon class="cls-14" points="18.95 491.66 18.95 760.06 0 749.11 0 480.7 18.95 491.66"/></g><polygon class="cls-15" points="18.95 469.75 0 480.7 0 749.11 18.95 760.06 37.82 749.11 37.82 480.7 18.95 469.75"/><g class="cls-2"><polygon class="cls-16" points="306.59 265.69 294.74 272.56 282.85 265.69 294.74 258.81 306.59 265.69"/><polygon class="cls-17" points="306.59 265.69 306.59 497.91 294.74 504.79 294.74 272.56 306.59 265.69"/><polygon class="cls-18" points="294.74 272.56 294.74 504.79 282.85 497.91 282.85 265.69 294.74 272.56"/></g><polygon class="cls-19" points="294.74 258.81 282.85 265.69 282.85 497.91 294.74 504.79 306.59 497.91 306.59 265.69 294.74 258.81"/><polygon class="cls-20" points="312.28 31.46 312.28 574.8 560.51 718.27 807.66 574.79 807.66 31.46 312.28 31.46"/><g class="cls-2"><polygon class="cls-21" points="807.66 337.42 560.51 480.89 312.28 337.42 560.51 193.95 807.66 337.42"/><polygon class="cls-22" points="807.66 337.42 807.66 696.63 560.51 840.11 560.51 480.89 807.66 337.42"/><polygon class="cls-23" points="560.51 480.89 560.51 840.11 312.28 696.64 312.28 337.42 560.51 480.89"/></g><polygon class="cls-24" points="560.51 508.05 807.66 364.58 807.66 362.13 560.51 505.6 560.51 508.05"/><polygon class="cls-24" points="312.28 364.58 560.51 508.05 560.51 505.6 312.28 362.13 312.28 364.58"/><polygon class="cls-25" points="540.68 145.76 550.49 215.56 560.93 221.59 571.31 215.56 579.92 145.76 540.68 145.76"/><polygon class="cls-26" points="550.49 215.56 560.86 209.53 571.31 215.56 560.93 221.59 550.49 215.56"/><polygon class="cls-27" points="327.92 268.38 337.73 338.18 348.17 344.21 358.55 338.18 367.16 268.38 327.92 268.38"/><polygon class="cls-26" points="337.73 338.18 348.11 332.15 358.55 338.18 348.17 344.21 337.73 338.18"/><polygon class="cls-28" points="757.09 268.38 766.9 338.18 777.34 344.21 787.72 338.18 796.33 268.38 757.09 268.38"/><polygon class="cls-26" points="766.9 338.18 777.27 332.15 787.72 338.18 777.34 344.21 766.9 338.18"/><polygon class="cls-29" points="540.68 388.55 550.49 458.34 560.93 464.37 571.31 458.34 579.92 388.55 540.68 388.55"/><polygon class="cls-26" points="550.49 458.34 560.86 452.31 571.31 458.34 560.93 464.37 550.49 458.34"/><path class="cls-30" d="M664.08,272.22a7.22,7.22,0,0,1,6.56,0L773,331.68c1.81,1.05,1.81,2.75,0,3.81L600,435.32a7.27,7.27,0,0,1-6.58,0L491.14,375.85c-1.81-1.05-1.8-2.75,0-3.8Z" transform="translate(-68.1 -25.77)"/><path class="cls-31" d="M668.41,291.47a1.72,1.72,0,0,1-1.56,0l-7.15-4.15a.48.48,0,0,1,0-.91l7.19-4.15a1.74,1.74,0,0,1,1.57,0l7.14,4.15a.48.48,0,0,1,0,.91Zm-3.14,1.82a.48.48,0,0,0,0-.91l-7.15-4.15a1.72,1.72,0,0,0-1.56,0l-7.19,4.15c-.43.25-.44.66,0,.9l7.14,4.16a1.8,1.8,0,0,0,1.57,0Zm-10.35,6c.45-.26.44-.66,0-.91l-7.15-4.15a1.69,1.69,0,0,0-1.56,0L639,298.34c-.44.26-.43.66,0,.91l7.14,4.15a1.71,1.71,0,0,0,1.57,0Zm41.22,0a.48.48,0,0,0,0-.91L689,294.19a1.74,1.74,0,0,0-1.57,0l-7.19,4.15a.48.48,0,0,0,0,.91l7.14,4.15a1.74,1.74,0,0,0,1.57,0Zm-34.3,7.91L669,303c.45-.26.44-.66,0-.91L661.88,298a1.71,1.71,0,0,0-1.57,0l-7.18,4.14c-.44.26-.44.67,0,.92l7.15,4.15A1.73,1.73,0,0,0,661.84,307.16Zm16.83-7a1.74,1.74,0,0,0-1.57,0l-7.19,4.15a.48.48,0,0,0,0,.91l7.15,4.15a1.72,1.72,0,0,0,1.56,0l7.19-4.15a.48.48,0,0,0,0-.91Zm-44.41,11a.48.48,0,0,0,0-.91l-7.14-4.15a1.74,1.74,0,0,0-1.57,0l-7.19,4.15a.48.48,0,0,0,0,.91l7.14,4.15a1.74,1.74,0,0,0,1.57,0Zm6.9,7.91,7.19-4.15a.48.48,0,0,0,0-.91l-7.14-4.15a1.74,1.74,0,0,0-1.57,0L632.45,314a.48.48,0,0,0,0,.91l7.14,4.15A1.74,1.74,0,0,0,641.16,319.1Zm-17.24-1.94a.48.48,0,0,0,0-.91l-7.15-4.15a1.72,1.72,0,0,0-1.56,0L608,316.25a.48.48,0,0,0,0,.91l7.15,4.15a1.72,1.72,0,0,0,1.56,0Zm32.45,4.15a1.72,1.72,0,0,0,1.56,0l7.19-4.15a.48.48,0,0,0,0-.91L658,312.1a1.72,1.72,0,0,0-1.56,0l-7.19,4.15a.48.48,0,0,0,0,.91ZM622.12,320a.48.48,0,0,0,0,.91l7.15,4.15a1.72,1.72,0,0,0,1.56,0l7.19-4.15a.48.48,0,0,0,0-.91l-7.14-4.15a1.74,1.74,0,0,0-1.57,0Zm-8.53,3.11a.48.48,0,0,0,0-.9l-7.14-4.15a1.74,1.74,0,0,0-1.57,0l-7.19,4.15a.48.48,0,0,0,0,.9l7.14,4.16a1.8,1.8,0,0,0,1.57,0ZM646,327.28a1.8,1.8,0,0,0,1.57,0l7.19-4.16a.48.48,0,0,0,0-.9l-7.14-4.15a1.74,1.74,0,0,0-1.57,0l-7.19,4.15a.48.48,0,0,0,0,.9Zm56.68-.47c-.45.25-.44.65,0,.9l2.14,1.24a1.69,1.69,0,0,0,1.56,0L715,324a.48.48,0,0,0,0-.91l-2.13-1.24a1.74,1.74,0,0,0-1.57,0ZM611.78,326c-.44.26-.43.66,0,.91l7.14,4.15a1.71,1.71,0,0,0,1.57,0l7.18-4.14c.44-.26.43-.66,0-.91l-7.14-4.15a1.71,1.71,0,0,0-1.57,0ZM637.32,324a1.74,1.74,0,0,0-1.57,0l-7.19,4.15a.48.48,0,0,0,0,.91l7.15,4.15a1.72,1.72,0,0,0,1.56,0l7.2-4.15a.48.48,0,0,0,0-.91Zm-35.87,7.91c-.44.26-.43.66,0,.91l7.14,4.15a1.71,1.71,0,0,0,1.57,0l7.17-4.14c.45-.26.43-.66,0-.91l-7.15-4.15a1.69,1.69,0,0,0-1.56,0Zm55.39,1.89c.43-.25.45-.65,0-.9l-7.13-4.15a1.74,1.74,0,0,0-1.57,0L641,332.93c-.43.25-.45.65,0,.91l7.12,4.14a1.71,1.71,0,0,0,1.57,0Zm-63.93,1.24a.48.48,0,0,0,0-.91L585.77,330a1.74,1.74,0,0,0-1.57,0L577,334.15c-.45.26-.45.67,0,.92l7.14,4.15a1.79,1.79,0,0,0,1.58,0Zm-1.81,2.85a.48.48,0,0,0,0,.9l7.14,4.15a1.74,1.74,0,0,0,1.57,0l7.19-4.15a.48.48,0,0,0,0-.9l-7.14-4.16a1.8,1.8,0,0,0-1.57,0Zm46.65,6a1.71,1.71,0,0,0,1.57,0l7.19-4.15c.43-.25.45-.65,0-.91l-7.13-4.14a1.69,1.69,0,0,0-1.56,0l-7.19,4.15c-.43.25-.45.65,0,.91ZM582.57,341a.48.48,0,0,0,0-.91L575.43,336a1.72,1.72,0,0,0-1.56,0l-7.19,4.15a.48.48,0,0,0,0,.91l7.15,4.15a1.72,1.72,0,0,0,1.56,0ZM616.65,336a1.79,1.79,0,0,0-1.58,0l-7.18,4.15c-.44.25-.43.65,0,.9l7.14,4.15a1.71,1.71,0,0,0,1.57,0l7.17-4.14c.45-.26.45-.67,0-.91Zm-35.88,7.92a.48.48,0,0,0,0,.91l7.15,4.15a1.72,1.72,0,0,0,1.56,0l7.19-4.15a.48.48,0,0,0,0-.91l-7.14-4.15a1.74,1.74,0,0,0-1.57,0Zm82.31.07c-.44.26-.43.66,0,.91l7.14,4.15a1.71,1.71,0,0,0,1.57,0l9.28-5.36a.48.48,0,0,0,0-.91l-7.14-4.15a1.74,1.74,0,0,0-1.57,0Zm-56.78-2a1.74,1.74,0,0,0-1.57,0l-7.17,4.14c-.45.26-.45.67,0,.92l7.14,4.15a1.73,1.73,0,0,0,1.58,0l7.18-4.14a.48.48,0,0,0,0-.91Zm45.4,6.77c.43-.25.44-.66,0-.92l-7.12-4.14a1.71,1.71,0,0,0-1.57,0l-7.19,4.15c-.43.25-.45.65,0,.91l7.13,4.14a1.73,1.73,0,0,0,1.58,0Zm-81.26,1.14c-.43.25-.44.66,0,.9l7.14,4.16a1.8,1.8,0,0,0,1.57,0l7.19-4.15a.48.48,0,0,0,0-.91l-7.15-4.15a1.72,1.72,0,0,0-1.56,0ZM561.91,353a.48.48,0,0,0,0-.9l-7.14-4.16a1.8,1.8,0,0,0-1.57,0L546,352.06a.48.48,0,0,0,0,.9l7.15,4.15a1.74,1.74,0,0,0,1.57,0ZM596,347.9a1.8,1.8,0,0,0-1.57,0l-7.19,4.16a.48.48,0,0,0,0,.9l7.14,4.16a1.8,1.8,0,0,0,1.57,0l7.19-4.16a.48.48,0,0,0,0-.9Zm-27.16,13,7.17-4.14c.45-.26.45-.67,0-.92l-7.14-4.15a1.73,1.73,0,0,0-1.58,0l-7.18,4.14a.48.48,0,0,0,0,.91l7.14,4.15A1.74,1.74,0,0,0,568.81,360.87Zm-17.25-1.93c.44-.26.44-.67,0-.92l-7.15-4.15a1.73,1.73,0,0,0-1.58,0L535.68,358c-.45.26-.44.66,0,.91l7.15,4.15a1.69,1.69,0,0,0,1.56,0Zm34.07-5.07a1.72,1.72,0,0,0-1.56,0L576.88,358a.48.48,0,0,0,0,.91l7.15,4.15a1.72,1.72,0,0,0,1.56,0l7.19-4.15a.48.48,0,0,0,0-.91ZM631,360.64a.48.48,0,0,0,0-.91l-7.13-4.15a1.74,1.74,0,0,0-1.57,0l-7.19,4.15c-.43.25-.45.66,0,.91l7.13,4.14a1.73,1.73,0,0,0,1.58,0Zm-81.27,1.14c-.45.26-.43.66,0,.91l7.15,4.15a1.69,1.69,0,0,0,1.56,0l7.18-4.14c.44-.26.43-.66,0-.91l-7.14-4.15a1.71,1.71,0,0,0-1.57,0Zm23.91,7.27a1.74,1.74,0,0,0,1.57,0l7.19-4.15a.48.48,0,0,0,0-.91l-7.14-4.15a1.74,1.74,0,0,0-1.57,0L566.54,364a.48.48,0,0,0,0,.91ZM565,365.8a1.73,1.73,0,0,0-1.58,0L556.21,370c-.45.26-.43.66,0,.91l7.15,4.15a1.69,1.69,0,0,0,1.56,0l7.18-4.14c.45-.26.45-.67,0-.92Zm45.38,6.78c.45-.25.44-.66,0-.91l-7.13-4.15a1.74,1.74,0,0,0-1.57,0l-7.18,4.15c-.44.25-.46.66,0,.91l7.13,4.15a1.8,1.8,0,0,0,1.6,0Zm-101.86,1.14a.48.48,0,0,0,0,.91l7.14,4.15a1.74,1.74,0,0,0,1.57,0l13.7-7.91a.48.48,0,0,0,0-.91l-7.15-4.15a1.74,1.74,0,0,0-1.57,0ZM553,381a1.73,1.73,0,0,0,1.58,0l7.18-4.14a.48.48,0,0,0,0-.91l-7.14-4.15a1.74,1.74,0,0,0-1.57,0l-7.17,4.14c-.45.26-.45.67,0,.92Zm50.29-2.52c-.45.26-.45.67,0,.92l7.14,4.15a1.73,1.73,0,0,0,1.58,0l56.64-32.7a.48.48,0,0,0,0-.9l-7.14-4.16a1.8,1.8,0,0,0-1.57,0Zm-84.54,1.22a.48.48,0,0,0,0,.9l7.14,4.16a1.8,1.8,0,0,0,1.57,0l7.19-4.16a.48.48,0,0,0,0-.9l-7.14-4.15a1.74,1.74,0,0,0-1.57,0Zm46.65,6a1.71,1.71,0,0,0,1.57,0l7.17-4.14c.45-.26.46-.66,0-.92L567,376.52a1.7,1.7,0,0,0-1.58,0l-7.17,4.14c-.43.25-.45.65,0,.91Zm24.29-1.21c.43-.24.43-.65,0-.91l-7.13-4.14a1.71,1.71,0,0,0-1.57,0l-7.19,4.15c-.43.25-.45.65,0,.91l7.13,4.14a1.79,1.79,0,0,0,1.58,0ZM529,385.65a.48.48,0,0,0,0,.91l7.15,4.15a1.72,1.72,0,0,0,1.56,0l13.7-7.91c.43-.25.44-.66,0-.9l-7.15-4.16a1.78,1.78,0,0,0-1.56,0Zm61.83,0c-.45.26-.43.66,0,.91l7.15,4.15a1.69,1.69,0,0,0,1.56,0l9.28-5.36a.48.48,0,0,0,0-.9l-7.14-4.16a1.77,1.77,0,0,0-1.57,0Zm-41.28,11.94c-.43.25-.45.65,0,.91l7.13,4.14a1.73,1.73,0,0,0,1.58,0l21.08-12.17a.48.48,0,0,0,0-.91l-7.12-4.15a1.74,1.74,0,0,0-1.57,0Zm20.6,0a.48.48,0,0,0,0,.91l7.15,4.15a1.72,1.72,0,0,0,1.56,0l7.19-4.15a.48.48,0,0,0,0-.91l-7.15-4.15a1.72,1.72,0,0,0-1.56,0Zm115.7-104.3a.48.48,0,0,0,0-.91l-7.15-4.15a1.72,1.72,0,0,0-1.56,0l-13.7,7.91c-.45.25-.43.65,0,.9l7.15,4.15a1.69,1.69,0,0,0,1.56,0Zm-41.28,11.94a.48.48,0,0,0,0-.91l-7.14-4.15a1.74,1.74,0,0,0-1.57,0l-7.19,4.15a.48.48,0,0,0,0,.91l7.14,4.15a1.74,1.74,0,0,0,1.57,0Zm6.9,7.91,7.19-4.16a.48.48,0,0,0,0-.9l-7.15-4.16a1.78,1.78,0,0,0-1.56,0l-7.19,4.16a.48.48,0,0,0,0,.9l7.14,4.16A1.8,1.8,0,0,0,651.49,313.14Zm54.91-7.92c.43-.25.45-.65,0-.91l-7.13-4.14a1.71,1.71,0,0,0-1.57,0l-15.4,8.89c-.43.25-.45.65,0,.91l7.12,4.14a1.71,1.71,0,0,0,1.57,0Zm-39.69,10.12a1.77,1.77,0,0,0,1.57,0l7.18-4.15a.48.48,0,0,0,0-.91l-7.14-4.15a1.77,1.77,0,0,0-1.57,0l-7.17,4.15c-.45.25-.44.66,0,.9Zm21.15.59c.43-.25.44-.65,0-.91l-7.13-4.14a1.69,1.69,0,0,0-1.56,0L672,315c-.43.25-.45.65,0,.9l7.13,4.15a1.74,1.74,0,0,0,1.57,0Zm-.37,2c-.43.25-.45.65,0,.91l7.1,4.13a1.78,1.78,0,0,0,1.56,0l20.49-11.83a.48.48,0,0,0,0-.91l-7.1-4.13a1.77,1.77,0,0,0-1.57,0Zm-10,3.94c.44-.26.45-.65,0-.91l-7.12-4.14a1.68,1.68,0,0,0-1.57,0L661.64,321c-.44.26-.44.65,0,.91l7.13,4.14a1.66,1.66,0,0,0,1.56,0ZM697.83,324c-.44.26-.43.66,0,.91l2.12,1.23a1.7,1.7,0,0,0,1.58,0l8.58-5c.43-.24.44-.65,0-.91L708,319a1.72,1.72,0,0,0-1.56,0Zm-7,9.64c-.44.26-.43.66,0,.91l2.12,1.23a1.73,1.73,0,0,0,1.58,0l8.58-5a.48.48,0,0,0,0-.91L701,328.65a1.72,1.72,0,0,0-1.56,0ZM714.55,320c-.44.26-.43.66,0,.91l2.12,1.23a1.7,1.7,0,0,0,1.58,0l8.59-4.95c.43-.25.43-.66,0-.92L724.71,315a1.74,1.74,0,0,0-1.57,0ZM693,324.81a.48.48,0,0,0,0-.91l-7.1-4.12a1.69,1.69,0,0,0-1.56,0l-7.19,4.15c-.43.25-.45.65,0,.91l7.1,4.12a1.74,1.74,0,0,0,1.57,0Zm-25.83,3.06c.43-.25.44-.65,0-.91l-7.13-4.14a1.69,1.69,0,0,0-1.56,0L651.31,327c-.45.26-.46.66,0,.92l7.13,4.14a1.73,1.73,0,0,0,1.58,0Zm-63.94,1.23c.45-.26.45-.67,0-.92L596.12,324a1.73,1.73,0,0,0-1.58,0l-7.18,4.14c-.45.26-.43.66,0,.91l7.15,4.15a1.69,1.69,0,0,0,1.56,0ZM674,335a1.76,1.76,0,0,0,1.58,0l6.94-4,.21-.17a.48.48,0,0,0,0-.91l-7.1-4.13a1.77,1.77,0,0,0-1.57,0l-7.19,4.16a.47.47,0,0,0,0,.9ZM627,330a1.72,1.72,0,0,0-1.56,0l-7.19,4.15a.48.48,0,0,0,0,.91l7.14,4.15a1.74,1.74,0,0,0,1.57,0l7.19-4.15a.48.48,0,0,0,0-.91Zm36.63,10.91a1.72,1.72,0,0,0,1.59,0l7.17-4.14c.45-.26.45-.67,0-.93l-7.13-4.14a1.7,1.7,0,0,0-1.58,0l-7.18,4.14c-.44.26-.45.65,0,.91Zm11.91-4.14c-.45.26-.43.66,0,.91l7.15,4.15a1.72,1.72,0,0,0,1.56,0l7.12-4.11c.45-.26.45-.67,0-.92l-7.14-4.15a1.73,1.73,0,0,0-1.58,0Zm-13.48,6c.44-.25.43-.66,0-.91l-7.13-4.15a1.74,1.74,0,0,0-1.57,0l-7.17,4.15c-.45.25-.46.66,0,.91l7.13,4.15a1.78,1.78,0,0,0,1.59,0Zm-34.62,7.18a1.75,1.75,0,0,0,1.56,0l7.19-4.15c.43-.25.45-.66,0-.91l-7.13-4.15a1.77,1.77,0,0,0-1.57,0l-7.19,4.16a.47.47,0,0,0,0,.9ZM572.24,347a.48.48,0,0,0,0-.91l-7.14-4.15a1.74,1.74,0,0,0-1.57,0l-7.19,4.15a.48.48,0,0,0,0,.91l7.14,4.15a1.74,1.74,0,0,0,1.57,0Zm44.84,8.88a1.71,1.71,0,0,0,1.57,0l7.18-4.14c.44-.26.46-.66,0-.92l-7.13-4.14a1.7,1.7,0,0,0-1.58,0L610,350.83c-.43.25-.45.65,0,.91Zm24.29-1.2c.43-.25.43-.66,0-.92l-7.13-4.14a1.69,1.69,0,0,0-1.56,0l-7.19,4.15c-.43.25-.45.65,0,.91l7.13,4.14a1.73,1.73,0,0,0,1.58,0Zm-34.63,7.18a1.73,1.73,0,0,0,1.58,0l7.17-4.14c.45-.26.45-.65,0-.91l-7.13-4.14a1.68,1.68,0,0,0-1.57,0l-7.17,4.14c-.45.26-.47.66,0,.91Zm-10.34,6a1.71,1.71,0,0,0,1.57,0l7.19-4.15c.43-.25.45-.65,0-.91L598,358.62a1.69,1.69,0,0,0-1.56,0l-7.19,4.15c-.43.25-.45.65,0,.91Zm-55.18-2.92a.48.48,0,0,0,0-.9l-7.15-4.15a1.72,1.72,0,0,0-1.56,0L525.34,364c-.44.26-.44.67,0,.91l7.15,4.16a1.79,1.79,0,0,0,1.58,0Zm79.47,1.72c.44-.26.45-.67,0-.93l-7.13-4.14a1.7,1.7,0,0,0-1.58,0l-7.17,4.14c-.45.26-.45.65,0,.91l7.13,4.14a1.7,1.7,0,0,0,1.58,0Zm-72.55,6.19,7.18-4.15a.48.48,0,0,0,0-.91l-7.14-4.15a1.8,1.8,0,0,0-1.57,0l-7.18,4.15a.48.48,0,0,0,0,.91l7.15,4.15A1.76,1.76,0,0,0,548.14,372.81Zm37.93,1a1.69,1.69,0,0,0,1.56,0l7.2-4.15c.43-.25.44-.65,0-.91l-7.13-4.14a1.71,1.71,0,0,0-1.57,0l-7.19,4.15c-.43.25-.44.65,0,.91Zm-49.85,5a1.74,1.74,0,0,0,1.57,0l7.19-4.15a.48.48,0,0,0,0-.91l-7.15-4.15a1.72,1.72,0,0,0-1.56,0l-7.19,4.15a.48.48,0,0,0,0,.91Zm48.27-3.18c.43-.24.45-.65,0-.9l-7.13-4.15a1.77,1.77,0,0,0-1.57,0l-7.19,4.16c-.43.24-.45.65,0,.9l7.12,4.15a1.77,1.77,0,0,0,1.57,0Zm6.76,7.09a1.73,1.73,0,0,0,1.58,0l7.19-4.15c.43-.25.43-.66,0-.92l-7.13-4.14a1.69,1.69,0,0,0-1.56,0l-7.19,4.15c-.43.25-.45.65,0,.91Zm-52,8.94c-.43.25-.45.65,0,.91l7.13,4.14a1.74,1.74,0,0,0,1.57,0l15.82-9.13c.44-.26.45-.66,0-.91l-7.12-4.15a1.74,1.74,0,0,0-1.57,0Zm41.21,0c-.44.26-.44.67,0,.92l7.14,4.15a1.73,1.73,0,0,0,1.58,0l7.18-4.14a.48.48,0,0,0,0-.91l-7.14-4.15a1.74,1.74,0,0,0-1.57,0Zm29.26-2.25a1,1,0,0,0,0,1.9l21.46,12.47a3.64,3.64,0,0,0,3.28,0L673,381.56a1,1,0,0,0,0-1.9l-21.46-12.47a3.58,3.58,0,0,0-3.28,0Zm-49.94,14.19a.48.48,0,0,0,0,.91l7.14,4.15a1.74,1.74,0,0,0,1.57,0l7.19-4.15a.48.48,0,0,0,0-.91l-7.14-4.15a1.74,1.74,0,0,0-1.57,0Z" transform="translate(-68.1 -25.77)"/><path class="cls-32" d="M664,149.37c2.73-1.58,4.94-.31,4.95,2.82l.34,120.24L489.77,376.06l-.34-120.24a10.86,10.86,0,0,1,4.93-8.52Z" transform="translate(-68.1 -25.77)"/><path class="cls-32" d="M774.31,333.58a2.32,2.32,0,0,1-1.37,1.91L600,435.32a7.27,7.27,0,0,1-6.58,0L491.14,375.85a2,2,0,0,1-.28-.2,3,3,0,0,1-.34-.25,3.44,3.44,0,0,1-.37-.4.35.35,0,0,0,0-.08,1.94,1.94,0,0,1-.22-.43s0,0,0-.05a1.61,1.61,0,0,1-.08-.48l0,7.58v0a1.15,1.15,0,0,0,0,.26.84.84,0,0,0,.05.17.43.43,0,0,0,0,.05.08.08,0,0,1,0,0,2.1,2.1,0,0,0,.13.26,1.48,1.48,0,0,0,.08.13l.06.08,0,.07a2.81,2.81,0,0,0,.29.31l0,0,.34.24c.08.06.14.12.22.17l.06,0,102.31,59.46a7.27,7.27,0,0,0,6.58,0L773,343.06a2.32,2.32,0,0,0,1.37-1.91Z" transform="translate(-68.1 -25.77)"/><polygon class="cls-33" points="592.61 134.95 592.91 241.94 429.87 336.07 429.57 229.08 592.61 134.95"/><polygon class="cls-34" points="592.62 138.35 592.61 134.95 429.57 229.08 429.58 232.48 592.62 138.35"/><path class="cls-35" d="M665.06,148.89a4.24,4.24,0,0,1,.81-.18h.07a3,3,0,0,1,.8,0h0a2.89,2.89,0,0,1,.71.27l-4-2.37,0,0-.25-.12-.26-.09-.18,0h-.1l-.3,0h-.5l-.19,0-.44.09-.18.06-.18.06-.22.08a7.29,7.29,0,0,0-.69.34L490.38,244.93a7,7,0,0,0-.93.64l-.29.25-.43.38-.19.2-.16.18-.19.2c-.14.16-.27.32-.4.49a1.09,1.09,0,0,0-.13.17l-.07.1-.13.17-.29.43c-.08.14-.17.27-.25.42l0,0,0,0-.19.35c-.08.14-.15.28-.22.42s-.12.26-.17.39v0a4.07,4.07,0,0,0-.18.44c-.06.16-.12.31-.17.47a2,2,0,0,0-.07.23l0,.1a1.09,1.09,0,0,0-.05.17c-.06.19-.1.38-.14.57s0,.23-.06.34l0,.18,0,.16a8,8,0,0,0-.06,1l.33,116.94a5.77,5.77,0,0,0,2.86,5l1.12.71-.34-120.24a7.3,7.3,0,0,1,.1-1.13,1.13,1.13,0,0,1,0-.18,8.68,8.68,0,0,1,.25-1.07.29.29,0,0,1,0-.1,10.29,10.29,0,0,1,.43-1.17v0a12.46,12.46,0,0,1,.59-1.15l0,0a11.86,11.86,0,0,1,.69-1.05l.06-.09c.23-.31.47-.59.72-.87l.17-.17a8.36,8.36,0,0,1,.62-.58l.29-.26a7,7,0,0,1,.93-.64L664,149.37a4.9,4.9,0,0,1,.91-.42Z" transform="translate(-68.1 -25.77)"/><path class="cls-36" d="M754.51,379.05c-5.62-3.25-14.71-3.26-20.3,0s-5.55,8.53.07,11.78,14.69,3.24,20.3,0S760.13,382.29,754.51,379.05Z" transform="translate(-68.1 -25.77)"/><path class="cls-37" d="M739.2,388.71s-5.09-3.3-5.22-4.1,1.09-1.68,1.95-1.64,4.45.33,4.45.33l1.15,1.31S743.59,389.53,739.2,388.71Z" transform="translate(-68.1 -25.77)"/><path class="cls-37" d="M750.32,384.55s-5.08-3.3-5.22-4.1,1.09-1.67,1.95-1.64,4.45.33,4.45.33l1.16,1.31S754.72,385.37,750.32,384.55Z" transform="translate(-68.1 -25.77)"/><path class="cls-37" d="M737.53,342.49l-.15,41.84a5.14,5.14,0,0,0,5-.11s4.73-36.14,4.81-37,.67,33,.67,33,2.94,1.69,5.17-.6l2.63-40Z" transform="translate(-68.1 -25.77)"/><path class="cls-38" d="M753.13,327.19l.29,7.36s5.77-3.05,5.62-7.51c0-1-1.94-7.4-2.36-9C754.74,319.07,754.62,325.63,753.13,327.19Z" transform="translate(-68.1 -25.77)"/><path class="cls-39" d="M741.7,311.24a13.21,13.21,0,0,0-4.92,2.73l.75,28.52s3.6,2.64,11,.71c6-1.57,7.57-4.09,7.57-4.09s-.13-13.22-.7-19a44.33,44.33,0,0,0-2.23-10.23,17.49,17.49,0,0,0-4.19-.23Z" transform="translate(-68.1 -25.77)"/><path class="cls-38" d="M748.33,309.5l.17-5.58a1.3,1.3,0,0,0,1.16-1.64c-.24-1.54-1.68-.53-1.93-.08,0,0-.32-5.28-3.12-5.79s-4-.1-4,1.26-.16,6.13,0,7.9,0,2.7,2.56,2.63l.22,1.85s1.16,1.08,4.74.21Z" transform="translate(-68.1 -25.77)"/><path class="cls-24" d="M741.7,311.24c0-1.09.19-1.69,2.72-2s4.59-1,4.85,0-.26,1.56-2.79,1.78S741.7,311.24,741.7,311.24Z" transform="translate(-68.1 -25.77)"/><path class="cls-37" d="M745,302.44c.12-.43,0-1-.49-1.12a.93.93,0,0,0-.95.4,7.57,7.57,0,0,0-.92,1.9c-.26-.23-.52-.44-.79-.64l0-.51a4.22,4.22,0,0,0,0-1.23c-.21-.86-1.1-1-1.53-1.63a2.69,2.69,0,0,1,.22-2.89A4.66,4.66,0,0,1,743,295c3.33-1.09,8.33,1.36,7.36,5.42-.56,2.33-1.37,4.6-2,6.92-.08.3-.77.42-1.07.33a2.41,2.41,0,0,1-.79-.52,12.24,12.24,0,0,1-2.67-3.51C743.93,303.74,745,302.62,745,302.44Z" transform="translate(-68.1 -25.77)"/><path class="cls-38" d="M736.9,343.81a.8.8,0,0,0,.68.71c.41,0,.68-.42.86-.79s.23-.46.34-.7a1.09,1.09,0,0,0,.17-.6c0-.2-.15-.38-.16-.59,0-.39.4-.66.51-1s-.2-.89-.51-1.24a3.17,3.17,0,0,0-.71-.66c-1.07-.69-2,.54-1.83,1.59.09.47.41.89.54,1.36A16,16,0,0,1,736.9,343.81Z" transform="translate(-68.1 -25.77)"/><path class="cls-38" d="M736.78,341.61s-6.21-9.54-6.38-11.67,5.13-13.31,5.13-13.31l4.09,4.55-4.62,8.3,2.62,9.24Z" transform="translate(-68.1 -25.77)"/><path class="cls-39" d="M738.33,326.24a14.15,14.15,0,0,0,1-3.48c.53-4.71-2.55-8.79-2.55-8.79-1.16.53-3,4.42-4.69,8.72Q735.14,324.59,738.33,326.24Z" transform="translate(-68.1 -25.77)"/><path class="cls-39" d="M757.86,319.3c-1.57-4.56-3.64-9.05-4.73-9.42l.46,11.91C755,320.89,756.44,320.11,757.86,319.3Z" transform="translate(-68.1 -25.77)"/><g class="cls-2"><path class="cls-40" d="M518.24,257.58a10.63,10.63,0,0,0-4.82,8.35c0,3.07,2.18,4.31,4.85,2.77a10.65,10.65,0,0,0,4.83-8.36c0-3.07-2.19-4.3-4.86-2.76" transform="translate(-68.1 -25.77)"/><path class="cls-39" d="M576.21,225.58l-47.88,27.64a2.28,2.28,0,0,0-1,1.79v.19c0,.65.47.92,1,.59l47.87-27.64a2.28,2.28,0,0,0,1-1.79v-.19c0-.65-.46-.92-1-.59" transform="translate(-68.1 -25.77)"/><path class="cls-39" d="M540.2,252.79l-11.85,6.84a2.28,2.28,0,0,0-1,1.79v.18c0,.66.47.93,1,.6l11.85-6.84a2.28,2.28,0,0,0,1-1.8v-.18c0-.65-.47-.92-1-.59" transform="translate(-68.1 -25.77)"/><path class="cls-39" d="M576.15,232l-31.54,18.21a2.49,2.49,0,0,0-1.12,1.93c0,.71.52,1,1.13.64l31.54-18.21a2.43,2.43,0,0,0,1.1-1.92c0-.72-.5-1-1.11-.65" transform="translate(-68.1 -25.77)"/><path class="cls-39" d="M534.83,262.3,528.45,266a2.47,2.47,0,0,0-1.11,1.93c0,.71.5,1,1.12.64l6.37-3.68a2.45,2.45,0,0,0,1.11-1.93c0-.7-.5-1-1.11-.64" transform="translate(-68.1 -25.77)"/><path class="cls-40" d="M518.31,282.79a10.63,10.63,0,0,0-4.82,8.35c0,3.07,2.18,4.3,4.85,2.76a10.63,10.63,0,0,0,4.83-8.35c0-3.07-2.19-4.3-4.86-2.76" transform="translate(-68.1 -25.77)"/><path class="cls-39" d="M576.28,250.79,528.4,278.43a2.28,2.28,0,0,0-1,1.79v.19c0,.65.47.92,1,.59l47.88-27.64a2.26,2.26,0,0,0,1-1.79v-.19c0-.65-.46-.92-1-.59" transform="translate(-68.1 -25.77)"/><path class="cls-39" d="M540.27,278l-11.85,6.84a2.27,2.27,0,0,0-1,1.79v.18c0,.66.47.92,1,.59l11.85-6.84a2.27,2.27,0,0,0,1-1.79v-.18c0-.66-.47-.92-1-.59" transform="translate(-68.1 -25.77)"/><path class="cls-39" d="M576.22,257.24l-31.54,18.21a2.45,2.45,0,0,0-1.11,1.92c0,.72.51,1,1.12.64l31.54-18.21a2.45,2.45,0,0,0,1.11-1.92c0-.71-.51-1-1.12-.64" transform="translate(-68.1 -25.77)"/><path class="cls-39" d="M534.9,287.51l-6.38,3.68a2.47,2.47,0,0,0-1.11,1.93c0,.71.5,1,1.12.64l6.37-3.68a2.42,2.42,0,0,0,1.11-1.92c0-.71-.5-1-1.11-.65" transform="translate(-68.1 -25.77)"/><path class="cls-40" d="M518.38,308a10.6,10.6,0,0,0-4.82,8.34c0,3.07,2.18,4.3,4.85,2.76a10.63,10.63,0,0,0,4.83-8.35c0-3.07-2.19-4.3-4.86-2.75" transform="translate(-68.1 -25.77)"/><path class="cls-39" d="M576.35,276l-47.88,27.64a2.33,2.33,0,0,0-1,1.79v.19c0,.65.47.92,1,.59l47.88-27.64a2.26,2.26,0,0,0,1-1.79v-.19c0-.65-.46-.92-1-.59" transform="translate(-68.1 -25.77)"/><path class="cls-39" d="M540.34,303.2,528.49,310a2.28,2.28,0,0,0-1,1.8V312c0,.66.47.92,1,.59l11.85-6.84a2.27,2.27,0,0,0,1-1.79v-.18c0-.66-.47-.93-1-.6" transform="translate(-68.1 -25.77)"/><path class="cls-39" d="M576.3,282.44l-31.55,18.21a2.5,2.5,0,0,0-1.11,1.93c0,.72.51,1,1.12.64L576.3,285a2.45,2.45,0,0,0,1.11-1.92c0-.7-.5-1-1.11-.65" transform="translate(-68.1 -25.77)"/><path class="cls-39" d="M535,312.72l-6.38,3.68a2.45,2.45,0,0,0-1.11,1.93c0,.72.5,1,1.12.64l6.38-3.68a2.44,2.44,0,0,0,1.1-1.92c0-.72-.5-1-1.11-.65" transform="translate(-68.1 -25.77)"/><path class="cls-40" d="M620,200.32l0,10.31c10.86-6.26,19.68-1.22,19.72,11.24l9-5.18c0-18.16-12.9-25.5-28.72-16.37" transform="translate(-68.1 -25.77)"/><path class="cls-39" d="M620,200.32c-15.81,9.13-28.58,31.26-28.53,49.42,0,9.09,3.25,15.47,8.45,18.44l6.32-11c-3.57-2-5.78-6.4-5.8-12.65,0-12.46,8.74-27.66,19.59-33.93l0-10.31" transform="translate(-68.1 -25.77)"/><path class="cls-41" d="M648.67,216.69l-9,5.18c0,12.47-8.73,27.67-19.59,33.94-5.43,3.14-10.35,3.44-13.92,1.4l-6.32,11c5.19,2.95,12.36,2.51,20.27-2.06,15.81-9.13,28.58-31.26,28.53-49.43" transform="translate(-68.1 -25.77)"/><path class="cls-39" d="M576.94,301.25l-52.08,30.06a2.29,2.29,0,0,0-1,1.79v.19c0,.65.46.93,1,.59L577,303.82a2.3,2.3,0,0,0,1-1.8v-.19c0-.65-.47-.92-1-.58" transform="translate(-68.1 -25.77)"/><path class="cls-41" d="M516.66,336.05l-2,1.15a2.3,2.3,0,0,0-1,1.79v.19c0,.66.47.92,1,.59l2-1.15a2.29,2.29,0,0,0,1-1.79v-.19c0-.65-.46-.92-1-.59" transform="translate(-68.1 -25.77)"/><path class="cls-39" d="M646.21,261.26l-52.08,30.06a2.3,2.3,0,0,0-1,1.8v.19c0,.65.47.92,1,.58l52.07-30.07a2.23,2.23,0,0,0,1-1.78v-.19c0-.66-.45-.93-1-.59" transform="translate(-68.1 -25.77)"/><path class="cls-41" d="M585.91,296.07l-2,1.14a2.3,2.3,0,0,0-1,1.79v.19c0,.65.46.93,1,.59l2-1.14a2.29,2.29,0,0,0,1-1.79v-.19c0-.66-.46-.93-1-.59" transform="translate(-68.1 -25.77)"/></g><g class="cls-2"><path class="cls-42" d="M518.29,156.91l6.64-7.58a5.09,5.09,0,0,1,0-.56,8.49,8.49,0,0,1,3.84-6.65c2.13-1.23,3.86-.24,3.87,2.2a8.51,8.51,0,0,1-3.84,6.65,2.71,2.71,0,0,1-2.76.25l-6.64,7.57a3.48,3.48,0,0,1,0,.57,8.42,8.42,0,0,1-3.84,6.64,3.72,3.72,0,0,1-1.21.48l-8.81,18.75a3.05,3.05,0,0,1,.7,2.14A8.46,8.46,0,0,1,502.4,194c-2.12,1.22-3.85.23-3.86-2.21a6.89,6.89,0,0,1,.44-2.31l-8.18-5a6.58,6.58,0,0,1-1.66,1.4,3.54,3.54,0,0,1-1.67.52l-8.11,14.4a3.46,3.46,0,0,1,.45,1.81,8.51,8.51,0,0,1-3.84,6.65c-2.13,1.22-3.86.24-3.87-2.2a8.49,8.49,0,0,1,3.84-6.65,3.46,3.46,0,0,1,1.67-.52l8.12-14.41a3.31,3.31,0,0,1-.45-1.8,8.47,8.47,0,0,1,3.83-6.65c2.13-1.23,3.86-.24,3.87,2.2a7,7,0,0,1-.44,2.32l8.18,5a6.63,6.63,0,0,1,1.66-1.41,4.13,4.13,0,0,1,1.22-.47l8.8-18.75a3.05,3.05,0,0,1-.7-2.14,8.45,8.45,0,0,1,3.84-6.64,2.67,2.67,0,0,1,2.75-.25m20.47-29.83-73,42.13a3.94,3.94,0,0,0-1.79,3.11l.14,51c0,1.14.81,1.6,1.8,1l73-42.13a4,4,0,0,0,1.8-3.1l-.15-51c0-1.14-.81-1.6-1.8-1" transform="translate(-68.1 -25.77)"/><path class="cls-26" d="M528.73,142.12a8.49,8.49,0,0,0-3.84,6.65,5.09,5.09,0,0,0,0,.56l-6.64,7.58a2.67,2.67,0,0,0-2.75.25,8.45,8.45,0,0,0-3.84,6.64,3.05,3.05,0,0,0,.7,2.14l-8.8,18.75a4.13,4.13,0,0,0-1.22.47,6.63,6.63,0,0,0-1.66,1.41l-8.18-5a7,7,0,0,0,.44-2.32c0-2.44-1.74-3.43-3.87-2.2a8.47,8.47,0,0,0-3.83,6.65,3.31,3.31,0,0,0,.45,1.8l-8.12,14.41a3.46,3.46,0,0,0-1.67.52,8.49,8.49,0,0,0-3.84,6.65c0,2.44,1.74,3.42,3.87,2.2a8.51,8.51,0,0,0,3.84-6.65,3.46,3.46,0,0,0-.45-1.81l8.11-14.4a3.54,3.54,0,0,0,1.67-.52,6.58,6.58,0,0,0,1.66-1.4l8.18,5a6.89,6.89,0,0,0-.44,2.31c0,2.44,1.74,3.43,3.86,2.21a8.46,8.46,0,0,0,3.84-6.65,3.05,3.05,0,0,0-.7-2.14l8.81-18.75a3.72,3.72,0,0,0,1.21-.48,8.42,8.42,0,0,0,3.84-6.64,3.48,3.48,0,0,0,0-.57l6.64-7.57a2.71,2.71,0,0,0,2.76-.25,8.51,8.51,0,0,0,3.84-6.65c0-2.44-1.74-3.43-3.87-2.2" transform="translate(-68.1 -25.77)"/></g><g class="cls-2"><path class="cls-43" d="M439.49,271c-.32.18-.58,0-.58-.33a1.28,1.28,0,0,1,.58-1l2.43-1.4c.31-.18.57,0,.57.33a1.27,1.27,0,0,1-.57,1l-2.43,1.4m4.87-2.81c-.32.18-.58,0-.58-.33a1.28,1.28,0,0,1,.58-1l2.43-1.4c.32-.19.58,0,.58.33a1.26,1.26,0,0,1-.58,1l-2.43,1.41m-4.88-1.82c-.32.18-.58,0-.58-.33a1.26,1.26,0,0,1,.57-1l21.1-12.18c.32-.19.58,0,.58.33a1.26,1.26,0,0,1-.58,1l-21.09,12.18m0-4.63c-.31.18-.57,0-.57-.33a1.27,1.27,0,0,1,.57-1l11.84-6.83c.33-.19.58,0,.59.32a1.28,1.28,0,0,1-.58,1l-11.85,6.84m14.31-8.26c-.31.18-.57,0-.57-.33a1.27,1.27,0,0,1,.57-1l1.48-.85c.32-.19.58,0,.58.33a1.26,1.26,0,0,1-.58,1l-1.48.86m4.07-2.35c-.32.18-.58,0-.58-.33a1.25,1.25,0,0,1,.57-1l9.67-5.58c.31-.19.57,0,.57.33a1.25,1.25,0,0,1-.57,1l-9.66,5.58m-18.39,6c-.32.18-.58,0-.58-.33a1.25,1.25,0,0,1,.58-1l20.12-11.62c.32-.19.58,0,.58.33a1.26,1.26,0,0,1-.58,1l-20.12,11.62m22.64-13.07c-.32.18-.58,0-.58-.33a1.26,1.26,0,0,1,.57-1l5.4-3.12c.32-.18.58,0,.58.33a1.28,1.28,0,0,1-.57,1l-5.4,3.12M432,263.18c-.92.54-1.68.1-1.69-1A3.76,3.76,0,0,1,432,259.3c.94-.54,1.7-.1,1.7,1a3.7,3.7,0,0,1-1.69,2.91m38.91-29.89-43.11,24.89a2.87,2.87,0,0,0-1.31,2.26l.06,21c0,.83.59,1.17,1.32.75L471,257.28a2.87,2.87,0,0,0,1.31-2.26l-.06-21c0-.83-.59-1.16-1.31-.75" transform="translate(-68.1 -25.77)"/><path class="cls-26" d="M459.57,244.18,439.45,255.8a1.25,1.25,0,0,0-.58,1c0,.37.26.51.58.33l20.12-11.62a1.26,1.26,0,0,0,.58-1c0-.37-.26-.52-.58-.33" transform="translate(-68.1 -25.77)"/><path class="cls-26" d="M451.3,253.59l-11.84,6.83a1.27,1.27,0,0,0-.57,1c0,.36.26.51.57.33l11.85-6.84a1.28,1.28,0,0,0,.58-1c0-.36-.26-.51-.59-.32" transform="translate(-68.1 -25.77)"/><path class="cls-26" d="M460.57,252.88l-21.1,12.18a1.26,1.26,0,0,0-.57,1c0,.37.26.51.58.33l21.09-12.18a1.26,1.26,0,0,0,.58-1c0-.38-.26-.52-.58-.33" transform="translate(-68.1 -25.77)"/><path class="cls-26" d="M441.92,268.28l-2.43,1.4a1.28,1.28,0,0,0-.58,1c0,.36.26.51.58.33l2.43-1.4a1.27,1.27,0,0,0,.57-1c0-.36-.26-.51-.57-.33" transform="translate(-68.1 -25.77)"/><path class="cls-26" d="M455.25,251.31l-1.48.85a1.27,1.27,0,0,0-.57,1c0,.36.26.51.57.33l1.48-.86a1.26,1.26,0,0,0,.58-1c0-.37-.26-.52-.58-.33" transform="translate(-68.1 -25.77)"/><path class="cls-26" d="M467.5,244.24l-9.67,5.58a1.25,1.25,0,0,0-.57,1c0,.37.26.51.58.33l9.66-5.58a1.25,1.25,0,0,0,.57-1c0-.37-.26-.52-.57-.33" transform="translate(-68.1 -25.77)"/><path class="cls-26" d="M467.48,239.61l-5.4,3.12a1.26,1.26,0,0,0-.57,1c0,.37.26.51.58.33l5.4-3.12a1.28,1.28,0,0,0,.57-1c0-.37-.26-.51-.58-.33" transform="translate(-68.1 -25.77)"/><path class="cls-26" d="M432,259.3a3.76,3.76,0,0,0-1.68,2.92c0,1.06.77,1.5,1.69,1a3.7,3.7,0,0,0,1.69-2.91c0-1.07-.76-1.51-1.7-1" transform="translate(-68.1 -25.77)"/><path class="cls-26" d="M446.79,265.47l-2.43,1.4a1.28,1.28,0,0,0-.58,1c0,.36.26.51.58.33l2.43-1.41a1.26,1.26,0,0,0,.58-1c0-.37-.26-.52-.58-.33" transform="translate(-68.1 -25.77)"/></g><polygon class="cls-44" points="529.88 582.18 529.88 530.87 432.8 474.76 432.8 526.07 529.88 582.18"/><polygon class="cls-45" points="433.03 474.9 432.8 475.04 432.8 526.07 477.18 500.42 433.03 474.9"/><polygon class="cls-46" points="529.88 658.6 529.88 607.29 432.8 551.18 432.8 602.49 529.88 658.6"/><polygon class="cls-47" points="433.03 551.32 432.8 551.46 432.8 602.49 477.18 576.83 433.03 551.32"/><polygon class="cls-48" points="529.88 735.01 529.88 683.71 432.8 627.6 432.8 678.9 529.88 735.01"/><polygon class="cls-49" points="433.03 627.73 432.8 627.87 432.8 678.9 477.18 653.25 433.03 627.73"/><g class="cls-2"><polyline class="cls-50" points="750.63 197.25 680.64 156.84 680.52 198.21 750.51 238.62 750.63 197.25"/><polyline class="cls-50" points="751.44 243.82 708.02 218.75 707.98 234.12 751.4 259.19 751.44 243.82"/><polyline class="cls-50" points="739.94 161.22 726.56 153.49 726.52 168.87 739.89 176.59 739.94 161.22"/><path class="cls-50" d="M711.71,147.31s4.94-18.93,12-14.85,8.48,20.19,14,23.41,5.87-6.33,9.31-4.35,3.46,12.44,7,14.51,6.14-6.48,12-3.11c7.22,4.17,11.4,22.38,11.4,22.38l-65.8-38m70.65,5.09-75.3-43.47-.13,44.89,75.3,43.48.13-44.9" transform="translate(-68.1 -25.77)"/><path class="cls-51" d="M723.73,132.46c-7.08-4.08-12,14.85-12,14.85l65.8,38s-4.18-18.21-11.4-22.38c-5.84-3.37-8.4,5.18-12,3.11s-3.62-12.53-7-14.51-3.74,7.56-9.31,4.35-7-19.32-14-23.41" transform="translate(-68.1 -25.77)"/><path class="cls-50" d="M721.84,206l0-7.21,0-7.21,5.43,6.74,5.43,6.75-5.45.47-5.45.46m4.41-24.44c-9.45-5.46-17.15-1.08-17.19,9.79s7.62,24.13,17.08,29.59,17.17,1.08,17.2-9.8-7.62-24.12-17.09-29.58" transform="translate(-68.1 -25.77)"/><polyline class="cls-52" points="653.78 165.79 653.76 173 653.74 180.21 659.19 179.75 664.64 179.28 659.21 172.53 653.78 165.79"/><path class="cls-50" d="M707.64,233.47a8.45,8.45,0,0,1-3.83-6.63c0-2.44,1.74-3.42,3.86-2.2a8.45,8.45,0,0,1,3.83,6.64c0,2.44-1.73,3.42-3.86,2.19M734.45,231l-42.91-24.77-.09,31.21,42.91,24.77-42.91-24.77,0-4.8,8-4.53,8.06,14,16.28-9.27,10.62,18.38.06-20.19" transform="translate(-68.1 -25.77)"/><polyline class="cls-51" points="655.67 207.08 639.39 216.35 631.33 202.38 623.36 206.91 623.35 211.71 666.26 236.48 666.29 225.46 655.67 207.08"/><path class="cls-51" d="M707.67,224.64c-2.12-1.22-3.85-.24-3.86,2.2a8.45,8.45,0,0,0,3.83,6.63c2.13,1.23,3.86.25,3.86-2.19a8.45,8.45,0,0,0-3.83-6.64" transform="translate(-68.1 -25.77)"/></g><g class="cls-2"><polygon class="cls-53" points="197.51 344.04 128.76 383.94 59.72 344.04 128.76 304.13 197.51 344.04"/><polygon class="cls-54" points="197.51 344.04 197.51 706.88 128.76 746.78 128.76 383.94 197.51 344.04"/><polygon class="cls-55" points="128.76 383.94 128.76 746.78 59.72 706.88 59.72 344.04 128.76 383.94"/></g><polygon class="cls-24" points="128.76 392.48 197.51 352.57 197.51 350.91 128.76 390.82 128.76 392.48"/><polygon class="cls-24" points="59.72 352.57 128.76 392.48 128.76 390.82 59.72 350.91 59.72 352.57"/><polygon class="cls-56" points="65.54 177.47 89.09 344.04 128.7 366.93 168.13 344.04 191.69 177.47 65.54 177.47"/><polygon class="cls-26" points="168.13 344.04 128.7 366.93 89.09 344.04 128.7 321.15 168.13 344.04"/><path class="cls-33" d="M241.89,257.65l-.79.47c-.61.36-1.21.72-1.83,1.07l-.86.49c-.7.39-1.42.78-2.14,1.16l-.54.3c-.91.47-1.82.93-2.75,1.39l-.72.35-2.14,1-1,.42c-.7.32-1.41.63-2.12.93l-.85.36c-1,.42-2,.82-3,1.21l-.33.12c-.9.35-1.82.69-2.74,1l-1,.34-2.23.75-1,.32c-1.16.37-2.33.73-3.52,1.07l-.37.1c-1.07.3-2.16.59-3.26.87l-1,.25c-1.16.28-2.33.56-3.5.81l-.19.05c-1.23.26-2.47.5-3.72.73l-.92.17c-1.42.25-2.85.48-4.29.68l-.34.05c-1.38.19-2.77.35-4.17.5l-.85.08q-1.74.18-3.51.3h-.11c-1.14.08-2.29.13-3.44.18l-1.25,0c-.67,0-1.35,0-2,0H178.2l-2,0-1.39,0-1.75-.07-1.45-.07-1.76-.12-1.46-.12-1.75-.17c-.49-.05-1-.09-1.45-.15l-1.79-.23-1.41-.18-2.13-.34-1.17-.19q-1.35-.24-2.7-.51l-.63-.13a25,25,0,0,1-4.11-13.51l0,11.09a25.1,25.1,0,0,0,4.11,13.52h.08l.55.11,2.7.51,1.17.19,2.12.34.32.05,1.1.14,1.79.22q.72.09,1.44.15l1.76.17.47.05,1,.07,1.76.12,1.46.07,1.74.07.63,0h.76l2,0h1.34l2,0,.87,0,.38,0c1.16,0,2.31-.1,3.46-.18h.08c1.18-.08,2.36-.18,3.53-.29.11,0,.23,0,.34,0l.5-.06c1.39-.15,2.79-.31,4.17-.5l.33,0c1.45-.21,2.88-.44,4.3-.69l.47-.08.45-.09c1.24-.23,2.49-.47,3.72-.73l.19-.05c1.17-.25,2.34-.53,3.49-.81l1-.25c1.1-.27,2.18-.56,3.26-.87l.37-.1c1.19-.34,2.36-.7,3.52-1.07l.38-.12.6-.2,2.23-.75,1-.34c.92-.33,1.83-.67,2.73-1l.34-.13c1-.39,2-.79,3-1.2l.86-.37,2.12-.92,1-.43,2.14-1,.71-.35c.93-.45,1.85-.92,2.75-1.39l.56-.3c.72-.38,1.43-.77,2.13-1.16l.86-.49,1.83-1.07.51-.3.28-.17c.85-.52,1.69-1,2.52-1.58l0-11.09C243.58,256.6,242.74,257.13,241.89,257.65Z" transform="translate(-68.1 -25.77)"/><path class="cls-40" d="M244.41,256.07c-22.21,14.4-55.59,23.83-89,16.88-12.11-19.36,4.07-38.73,28.85-51.63L222.37,234Z" transform="translate(-68.1 -25.77)"/><path class="cls-32" d="M237.68,255.63a116.13,116.13,0,0,1-35.48,13.93,108.83,108.83,0,0,1-42.56.91c-4.38-8-3.91-16.26,1.42-24.66,4.68-7.37,12.91-14.46,23.93-20.6l33.4,11.11Z" transform="translate(-68.1 -25.77)"/><polygon class="cls-39" points="142.89 226.13 142.91 230.85 109.65 230.85 109.58 218.19 117.73 218.19 117.78 226.13 142.89 226.13"/><polygon class="cls-57" points="102.44 409.18 83.12 398.01 83.12 610.51 102.44 621.68 102.44 409.18"/><polygon class="cls-58" points="83.12 610.51 102.44 621.68 102.44 599.34 83.12 610.51"/><polygon class="cls-59" points="128.76 383.94 59.72 344.04 59.72 706.88 128.76 746.78 197.51 706.88 197.51 344.04 128.76 383.94"/><g class="cls-2"><polygon class="cls-60" points="895.45 177.68 859.09 198.79 822.56 177.68 859.09 156.57 895.45 177.68"/><polygon class="cls-61" points="895.45 177.68 895.45 499.3 859.09 520.41 859.09 198.79 895.45 177.68"/><polygon class="cls-62" points="859.09 198.79 859.09 520.41 822.56 499.3 822.56 177.68 859.09 198.79"/></g><polygon class="cls-24" points="859.09 203.3 895.45 182.19 895.45 181.31 859.09 202.43 859.09 203.3"/><polygon class="cls-24" points="822.56 182.19 859.09 203.3 859.09 202.43 822.56 181.31 822.56 182.19"/><polygon class="cls-63" points="825.64 89.57 838.1 177.68 859.05 189.79 879.91 177.68 892.37 89.57 825.64 89.57"/><polygon class="cls-26" points="879.91 177.68 859.05 189.79 838.1 177.68 859.05 165.57 879.91 177.68"/><path class="cls-33" d="M951,144.12l-.42.25c-.32.19-.64.38-1,.56-.15.09-.3.18-.46.26l-1.12.62-.3.15c-.47.25-1,.5-1.45.74l-.38.18-1.13.54-.5.22-1.12.49-.46.2c-.52.21-1,.43-1.58.63L941,149l-1.45.53-.51.19-1.18.39-.52.17c-.62.2-1.23.39-1.86.57l-.2.05c-.57.16-1.14.32-1.72.46l-.51.13c-.62.15-1.23.3-1.85.43l-.1,0c-.66.14-1.31.27-2,.39l-.49.08c-.75.14-1.51.26-2.27.37l-.18,0c-.73.1-1.46.19-2.2.26l-.45.05-1.86.16h-.06c-.6,0-1.21.07-1.82.09l-.66,0-1.07,0h-2.5l-.93,0-.76,0-.93-.06-.77-.06-.93-.09-.77-.08-.95-.12-.74-.1-1.13-.18-.61-.1c-.48-.08-1-.18-1.43-.27l-.34-.07a13.2,13.2,0,0,1-2.17-7.15l0,5.87a13.22,13.22,0,0,0,2.17,7.15h0l.29.06,1.43.27.62.1,1.12.18.17,0,.58.08.95.12.76.08.93.09.25,0,.52,0,.93.06.77,0,.92,0,.33,0H918l1.08,0h.66l1.83-.09h0c.63,0,1.25-.09,1.87-.15l.18,0,.26,0c.74-.07,1.48-.16,2.21-.26l.17,0c.77-.1,1.52-.23,2.28-.36l.25,0,.23-.05c.66-.12,1.32-.25,2-.39l.1,0c.62-.13,1.24-.28,1.85-.43l.51-.13,1.73-.46.19-.06,1.86-.56.2-.06.32-.11,1.18-.4.52-.18,1.44-.53.18-.07,1.58-.64.45-.19,1.12-.49.5-.23,1.13-.53.38-.18c.5-.24,1-.49,1.46-.74l.29-.16c.38-.2.76-.4,1.13-.61l.45-.26,1-.56.27-.17L951,150c.45-.27.9-.55,1.33-.83l0-5.87C951.9,143.57,951.46,143.84,951,144.12Z" transform="translate(-68.1 -25.77)"/><path class="cls-40" d="M952.34,143.28c-11.75,7.62-29.41,12.61-47.11,8.93-6.41-10.24,2.15-20.48,15.26-27.31l20.19,6.71Z" transform="translate(-68.1 -25.77)"/><path class="cls-32" d="M948.78,143.05A61.5,61.5,0,0,1,930,150.42a57.42,57.42,0,0,1-22.51.48c-2.32-4.22-2.07-8.6.75-13,2.47-3.91,6.83-7.65,12.66-10.9l17.67,5.88Z" transform="translate(-68.1 -25.77)"/><polygon class="cls-39" points="866.56 115.31 866.57 117.81 848.97 117.81 848.94 111.11 853.25 111.11 853.28 115.31 866.56 115.31"/><polygon class="cls-64" points="885.11 208.5 896.39 128.73 829.66 128.73 840.94 208.54 826.58 216.84 826.58 538.46 863.1 559.57 899.47 538.46 899.47 216.84 885.11 208.5"/><g class="cls-2"><polygon class="cls-65" points="1142.89 275.97 992.77 363.11 842 275.97 992.77 188.82 1142.89 275.97"/><polygon class="cls-66" points="1142.89 275.97 1142.89 684.2 992.77 771.35 992.77 363.11 1142.89 275.97"/><polygon class="cls-67" points="992.77 363.11 992.77 771.35 842 684.2 842 275.97 992.77 363.11"/></g><polygon class="cls-24" points="992.77 380.37 1142.89 293.22 1142.89 290.97 992.77 378.12 992.77 380.37"/><polygon class="cls-24" points="842 293.23 992.77 380.37 992.77 378.12 842 290.98 842 293.23"/><polygon class="cls-68" points="894.18 348.46 874.86 337.29 874.86 549.79 894.18 560.95 894.18 348.46"/><polygon class="cls-69" points="874.86 549.79 894.18 560.95 894.18 538.62 874.86 549.79"/><polygon class="cls-70" points="927.33 367.38 908.01 356.22 908.01 568.71 927.33 579.88 927.33 367.38"/><polygon class="cls-71" points="908.01 568.71 927.33 579.88 927.33 557.55 908.01 568.71"/><polygon class="cls-72" points="888.01 0 927.01 275.78 992.59 313.68 1057.87 275.78 1096.88 0 888.01 0"/><polygon class="cls-26" points="1057.87 275.78 992.59 313.68 927.01 275.78 992.59 237.88 1057.87 275.78"/><g class="cls-2"><polygon class="cls-73" points="930.15 522.71 780.03 609.85 629.26 522.71 780.03 435.56 930.15 522.71"/><polygon class="cls-74" points="930.15 522.71 930.15 738.23 780.03 825.37 780.03 609.85 930.15 522.71"/><polygon class="cls-75" points="780.03 609.85 780.03 825.37 629.26 738.23 629.26 522.71 780.03 609.85"/></g><polygon class="cls-24" points="780.03 627.11 930.15 539.96 930.15 537.71 780.03 624.86 780.03 627.11"/><polygon class="cls-24" points="629.26 539.96 780.03 627.11 780.03 624.86 629.26 537.71 629.26 539.96"/><g class="cls-2"><path class="cls-76" d="M920.84,525.73c0,.12,0,.23,0,.34s0,.19-.07.28-.06.22-.1.33l-.11.26c0,.11-.1.23-.16.34s-.09.16-.14.24a4.28,4.28,0,0,1-.26.38l-.17.22c-.14.16-.29.33-.46.49l-.18.18-.33.27-.31.24-.38.26c-.14.09-.27.18-.42.26l-91.63,53.26a16.91,16.91,0,0,1-15.33,0l-42.23-24.39c-2.13-1.23-3.2-2.85-3.19-4.47l0,5.6c0,1.62,1.06,3.24,3.2,4.47l42.23,24.38a16.88,16.88,0,0,0,15.32,0l91.64-53.25.13-.08.28-.19c.13-.08.27-.16.39-.25l.3-.24a3,3,0,0,0,.33-.28l.07,0,.11-.12a5.34,5.34,0,0,0,.46-.5l.1-.1.08-.12c.09-.12.17-.25.25-.37l.11-.16a.36.36,0,0,1,0-.09c.06-.11.11-.22.16-.33a1.76,1.76,0,0,1,.09-.2.64.64,0,0,0,0-.07,3,3,0,0,0,.09-.32,1.8,1.8,0,0,0,.06-.22.13.13,0,0,0,0-.06c0-.11,0-.23,0-.34a1.64,1.64,0,0,0,0-.22.34.34,0,0,0,0-.1v-5.6C920.86,525.52,920.84,525.63,920.84,525.73Z" transform="translate(-68.1 -25.77)"/><path class="cls-77" d="M917.66,520.94c4.25,2.45,4.27,6.43.05,8.88l-91.63,53.26a16.91,16.91,0,0,1-15.33,0l-42.23-24.39c-4.24-2.45-4.26-6.42,0-8.87l91.64-53.26c4.21-2.45,11.08-2.45,15.33,0ZM823.88,581.8l91.63-53.25c3-1.74,3-4.59,0-6.34L911.67,520l-5.74.15L876.8,503.36l.26-3.33-3.81-2.2a12.12,12.12,0,0,0-10.94,0l-91.64,53.26c-3,1.74-3,4.59,0,6.33l42.23,24.38a12.05,12.05,0,0,0,10.94,0" transform="translate(-68.1 -25.77)"/><path class="cls-78" d="M915.48,522.21c3,1.75,3,4.6,0,6.34L823.88,581.8a12.05,12.05,0,0,1-10.94,0l-42.23-24.38c-3-1.74-3-4.59,0-6.33l91.64-53.26a12.12,12.12,0,0,1,10.94,0l3.81,2.2-.26,3.33,29.13,16.81,5.74-.15Z" transform="translate(-68.1 -25.77)"/><path class="cls-78" d="M915.48,522.21c3,1.75,3,4.6,0,6.34L823.88,581.8a12.05,12.05,0,0,1-10.94,0l-42.23-24.38c-3-1.74-3-4.59,0-6.33l91.64-53.26a12.12,12.12,0,0,1,10.94,0l3.81,2.2-.26,3.33,29.13,16.81,5.74-.15Z" transform="translate(-68.1 -25.77)"/></g><g class="cls-79"><path class="cls-36" d="M800.25,515.77c5.31,3.06,5.33,8,.07,11.07s-13.84,3.08-19.15,0-5.35-8-.06-11.1S795,512.71,800.25,515.77Z" transform="translate(-68.1 -25.77)"/></g><path class="cls-37" d="M782.75,518.12s-.76.1-.91.39a20.68,20.68,0,0,0-.2,3.17,19.44,19.44,0,0,0,3.89,2.94c1.89,1,3.51,1.39,4.24.76s.28-1.37-1.27-2.63-3-4.63-3-4.63Z" transform="translate(-68.1 -25.77)"/><path class="cls-37" d="M792.65,514.14s-.76.1-.91.39a20.68,20.68,0,0,0-.2,3.17,19.44,19.44,0,0,0,3.89,2.94c1.89,1,3.51,1.39,4.24.75s.28-1.36-1.27-2.62-3-4.63-3-4.63Z" transform="translate(-68.1 -25.77)"/><path class="cls-38" d="M798.12,477.55s-.06,1-.1,1.2a12.37,12.37,0,0,0-.92,1.89,1.11,1.11,0,0,0,.44.77,6,6,0,0,0,.11,1.13c.09.19,1,.07,1,.12s.65.39,1,.24a13.14,13.14,0,0,0,1.51-.6,20.13,20.13,0,0,0-.24-5.65c-.15-.8-.87-19.34-1.29-19.2C798.84,457.72,798.12,477.55,798.12,477.55Z" transform="translate(-68.1 -25.77)"/><path class="cls-24" d="M800.82,459.66c-.38-1.84-.85-4-1.25-5.43-.84-3.09-1.45-5.49-3.26-5.54l-.61,10.47s.19,1.58.52,3.37A32.72,32.72,0,0,0,800.82,459.66Z" transform="translate(-68.1 -25.77)"/><path class="cls-37" d="M781.6,479.44l-.15,39.45a4.86,4.86,0,0,0,4.72-.1s4.46-34.08,4.54-34.89.63,31.11.63,31.11,2.77,1.59,4.87-.57l2.49-37.74Z" transform="translate(-68.1 -25.77)"/><path class="cls-24" d="M785.53,450a21.83,21.83,0,0,0-5.56,3.23l1.63,26.25s3.39,2.48,10.33.67c5.66-1.48,7.14-3.86,7.14-3.86s.52-12.9,0-18.36a24.24,24.24,0,0,0-2.75-9.2,15.9,15.9,0,0,0-3.95-.22Z" transform="translate(-68.1 -25.77)"/><path class="cls-37" d="M792.83,434a7.38,7.38,0,0,0-3.54-.29c-2.48.26-4.56,1.47-5,4.13a10.92,10.92,0,0,0,1.23,5.86c1.05,2.39,1.78,1.52,1.78,1.52l6.08-2.45a6.9,6.9,0,0,0,1.87-.8c.74-.65.5-1.77.63-2.64a4.43,4.43,0,0,0-.28-3.24,4.82,4.82,0,0,0-2.27-1.88Z" transform="translate(-68.1 -25.77)"/><path class="cls-38" d="M786.67,448.69l-.16-5.25a1.22,1.22,0,0,1-1.09-1.55c.22-1.45,1.58-.5,1.82-.07,0,0,.3-5,2.94-5.47s5.21.09,5.27,1.37.16,5.79,0,7.46-1.46,2.36-3.87,2.29l.16,2.7s-1.21.89-4.59.07Z" transform="translate(-68.1 -25.77)"/><path class="cls-24" d="M791.61,448a1.85,1.85,0,0,1,.65.09,3.25,3.25,0,0,1,1.17,2.13,7.72,7.72,0,0,1-.41,2.29l-2.19-2-1.38,2.65a5.47,5.47,0,0,1-2-1.05,7.58,7.58,0,0,1-1.88-2.21c.37-1,.63-1.53.63-1.53.09-.22.51-.33.51-.33s2.33,2.12,4.16,2.22C790.83,450.32,791.48,450,791.61,448Z" transform="translate(-68.1 -25.77)"/><path class="cls-38" d="M781.58,481.23s.26,1,.33,1.15,1.18,1.26,1.28,1.67a1.08,1.08,0,0,1-.27.84A6,6,0,0,1,783,486c0,.2-.92.26-1,.33s-.55.52-.94.44a14,14,0,0,1-1.6-.29,19.65,19.65,0,0,1-.91-5.58c0-.91.3-19.12.3-19.12.26.06,4,1.48,4,1.48Z" transform="translate(-68.1 -25.77)"/><path class="cls-24" d="M783.09,464.6c0-2.3.14-4.81.11-5.42-.1-2.06-.1-7.87-3.23-6-1.26.75-1.55,6.38-1.81,10.18A9.61,9.61,0,0,0,783.09,464.6Z" transform="translate(-68.1 -25.77)"/><path class="cls-37" d="M795.61,438.39a1.86,1.86,0,0,0-.14-1.85,3.58,3.58,0,0,0-1.48-1.21c-1.45-.7-5.49-1.46-5.61,1.05,0,1.25,1,3.33,2.53,3.07.64-.11,1-.71,1.72-.51.36.1,1.31,1,1.36,0A1.31,1.31,0,0,0,795.61,438.39Z" transform="translate(-68.1 -25.77)"/><path class="cls-37" d="M786.39,440.79a3.85,3.85,0,0,1,1.35,2.5h.51c0-.66,0-1.26,0-1.92a4.62,4.62,0,0,0,1.08-3.94c-.13-.57-.46-1.19-1-1.25s-1,.51-1.27,1.05A6.6,6.6,0,0,0,786.39,440.79Z" transform="translate(-68.1 -25.77)"/><path class="cls-80" d="M741.2,362.39c.41,25.53,27.28,192.39,27.28,192.39h0a4.16,4.16,0,0,0,2.19,2.65l42.23,24.38a12.05,12.05,0,0,0,10.94,0l91.63-53.25a3.84,3.84,0,0,0,2.24-3.13h0s15.54-102.33,23.13-163Z" transform="translate(-68.1 -25.77)"/><g class="cls-2"><path class="cls-43" d="M867.08,530.27c-.59.34-1.07.07-1.07-.61a2.32,2.32,0,0,1,1.07-1.85l5.23-3c.6-.34,1.07-.07,1.08.62a2.38,2.38,0,0,1-1.07,1.85l-5.24,3m-26.36,10c-.6.34-1.07.07-1.08-.61a2.38,2.38,0,0,1,1.07-1.84l8.73-5c.58-.34,1.06-.07,1.06.6a2.32,2.32,0,0,1-1.06,1.84l-8.72,5m0-5.16c-.59.34-1.07.07-1.07-.62a2.35,2.35,0,0,1,1.07-1.85l21-12.11c.58-.34,1.06-.06,1.06.62a2.34,2.34,0,0,1-1,1.84l-21,12.12m25.14-14.52c-.6.35-1.07.08-1.08-.61a2.38,2.38,0,0,1,1.07-1.85l6.45-3.72c.6-.35,1.08-.07,1.08.61a2.36,2.36,0,0,1-1.07,1.85l-6.45,3.72m11.82,3.54,0-17.94,12.64-7.3,0,17.94-12.64,7.3m-37,5.79c-.6.35-1.07.08-1.07-.59a2.31,2.31,0,0,1,1.06-1.85l6.45-3.73c.6-.34,1.08-.07,1.08.62a2.33,2.33,0,0,1-1.07,1.83L840.69,530m10.6-6.12c-.59.35-1.07.07-1.07-.59a2.32,2.32,0,0,1,1.07-1.85l21-12.12c.59-.34,1.07-.07,1.07.61a2.37,2.37,0,0,1-1.06,1.84l-21,12.11m-10.63-4.22c-.59.34-1.07.07-1.07-.6a2.34,2.34,0,0,1,1.06-1.85l10-5.78c.6-.34,1.07-.07,1.08.62a2.36,2.36,0,0,1-1.07,1.83l-10,5.78m0-5.17c-.6.35-1.08.07-1.08-.61a2.32,2.32,0,0,1,1.07-1.83l39.11-22.58c.59-.35,1.07-.07,1.07.59a2.32,2.32,0,0,1-1.07,1.85l-39.1,22.58m43.26-25c-.59.33-1.08.07-1.08-.62A2.39,2.39,0,0,1,883.9,487l5.23-3c.6-.35,1.08-.07,1.08.6a2.32,2.32,0,0,1-1.07,1.84l-5.23,3m-43.28,19.81c-.59.34-1.07.05-1.07-.61a2.31,2.31,0,0,1,1.06-1.85l30.65-17.7c.6-.34,1.07-.07,1.08.61a2.38,2.38,0,0,1-1.07,1.85l-30.65,17.7M876,488.89c-.59.33-1.06.05-1.07-.62a2.35,2.35,0,0,1,1.06-1.84l13.18-7.61c.59-.35,1.07-.07,1.07.61a2.34,2.34,0,0,1-1.06,1.85L876,488.89M840.62,504.1c-.6.34-1.08.07-1.08-.62a2.33,2.33,0,0,1,1.07-1.83l48.5-28c.59-.34,1.07-.07,1.07.6a2.35,2.35,0,0,1-1.07,1.85l-48.49,28m-.66-7.52L839.88,470l50.21-29,.07,26.61-50.2,29M896,427.71,833.88,463.6a6.67,6.67,0,0,0-3,5.25l.25,87c0,1.93,1.37,2.71,3,1.74l62.15-35.89a6.67,6.67,0,0,0,3-5.25l-.25-87.05c0-1.93-1.37-2.71-3.05-1.74" transform="translate(-68.1 -25.77)"/><polyline class="cls-26" points="821.98 415.21 771.78 444.19 771.86 470.81 822.06 441.82 821.98 415.21"/><path class="cls-26" d="M889.11,473.65l-48.5,28a2.33,2.33,0,0,0-1.07,1.83c0,.69.48,1,1.08.62l48.49-28a2.35,2.35,0,0,0,1.07-1.85c0-.67-.48-.94-1.07-.6" transform="translate(-68.1 -25.77)"/><path class="cls-26" d="M871.27,489.12l-30.65,17.7a2.31,2.31,0,0,0-1.06,1.85c0,.66.48.95,1.07.61l30.65-17.7a2.38,2.38,0,0,0,1.07-1.85c0-.68-.48-1-1.08-.61" transform="translate(-68.1 -25.77)"/><path class="cls-26" d="M889.12,478.82l-13.18,7.61a2.35,2.35,0,0,0-1.06,1.84c0,.67.48,1,1.07.62l13.18-7.61a2.34,2.34,0,0,0,1.06-1.85c0-.68-.48-1-1.07-.61" transform="translate(-68.1 -25.77)"/><path class="cls-26" d="M879.75,489.42,840.64,512a2.32,2.32,0,0,0-1.07,1.83c0,.68.48,1,1.08.61l39.1-22.58a2.32,2.32,0,0,0,1.07-1.85c0-.66-.48-.94-1.07-.59" transform="translate(-68.1 -25.77)"/><path class="cls-26" d="M889.13,484l-5.23,3a2.39,2.39,0,0,0-1.07,1.83c0,.69.49.95,1.08.62l5.23-3a2.32,2.32,0,0,0,1.07-1.84c0-.67-.48-1-1.08-.6" transform="translate(-68.1 -25.77)"/><path class="cls-26" d="M850.66,511.38l-10,5.78a2.34,2.34,0,0,0-1.06,1.85c0,.67.48.94,1.07.6l10-5.78a2.36,2.36,0,0,0,1.07-1.83c0-.69-.48-1-1.08-.62" transform="translate(-68.1 -25.77)"/><path class="cls-26" d="M872.28,514.44l-6.45,3.72a2.38,2.38,0,0,0-1.07,1.85c0,.69.48,1,1.08.61l6.45-3.72a2.36,2.36,0,0,0,1.07-1.85c0-.68-.48-1-1.08-.61" transform="translate(-68.1 -25.77)"/><path class="cls-26" d="M861.68,520.56l-21,12.11a2.35,2.35,0,0,0-1.07,1.85c0,.69.48,1,1.07.62l21-12.12a2.34,2.34,0,0,0,1-1.84c0-.68-.48-1-1.06-.62" transform="translate(-68.1 -25.77)"/><path class="cls-26" d="M872.31,524.78l-5.23,3a2.32,2.32,0,0,0-1.07,1.85c0,.68.48,1,1.07.61l5.24-3a2.38,2.38,0,0,0,1.07-1.85c0-.69-.48-1-1.08-.62" transform="translate(-68.1 -25.77)"/><path class="cls-26" d="M849.44,532.82l-8.73,5a2.38,2.38,0,0,0-1.07,1.84c0,.68.48.95,1.08.61l8.72-5a2.32,2.32,0,0,0,1.06-1.84c0-.67-.48-.94-1.06-.6" transform="translate(-68.1 -25.77)"/><path class="cls-26" d="M847.13,523.78l-6.45,3.73a2.31,2.31,0,0,0-1.06,1.85c0,.67.47.94,1.07.59l6.45-3.72a2.33,2.33,0,0,0,1.07-1.83c0-.69-.48-1-1.08-.62" transform="translate(-68.1 -25.77)"/><path class="cls-26" d="M872.27,509.27l-21,12.12a2.32,2.32,0,0,0-1.07,1.85c0,.66.48.94,1.07.59l21-12.11a2.37,2.37,0,0,0,1.06-1.84c0-.68-.48-.95-1.07-.61" transform="translate(-68.1 -25.77)"/><polyline class="cls-26" points="822.15 473.15 809.51 480.45 809.56 498.39 822.2 491.09 822.15 473.15"/></g><polygon class="cls-81" points="168.13 329.28 168.13 541.78 265.21 597.89 361.87 541.78 361.87 329.28 168.13 329.28"/><g class="cls-2"><polygon class="cls-82" points="361.87 493.22 265.21 549.33 168.13 493.22 265.21 437.11 361.87 493.22"/><polygon class="cls-83" points="361.87 493.22 361.87 705.72 265.21 761.83 265.21 549.33 361.87 493.22"/><polygon class="cls-84" points="265.21 549.33 265.21 761.83 168.13 705.72 168.13 493.22 265.21 549.33"/></g><polygon class="cls-24" points="265.21 561.33 361.87 505.22 361.87 502.88 265.21 559 265.21 561.33"/><polygon class="cls-24" points="168.13 505.22 265.21 561.33 265.21 559 168.13 502.88 168.13 505.22"/><path class="cls-85" d="M374,540.12c-5.62-3.25-14.72-3.26-20.3,0s-5.56,8.52.07,11.77,14.68,3.24,20.29,0S379.66,543.37,374,540.12Z" transform="translate(-68.1 -25.77)"/><path class="cls-37" d="M374.35,575.81s-.73.09-.87.38a21.56,21.56,0,0,0-.2,3,19.19,19.19,0,0,0,3.75,2.82c1.8.93,3.37,1.33,4.06.72s.27-1.31-1.22-2.52-2.92-4.44-2.92-4.44Z" transform="translate(-68.1 -25.77)"/><path class="cls-37" d="M378,568.39s-.73-.1-.93.14a19.61,19.61,0,0,0-1,2.89,19.08,19.08,0,0,0,2.9,3.69c1.52,1.35,2.92,2.14,3.75,1.73s.6-1.2-.54-2.75-1.69-5-1.69-5Z" transform="translate(-68.1 -25.77)"/><path class="cls-37" d="M354,538.07c-.06,3.44.39,8.9,2.16,10.12,2.7,1.86,13.81,10.38,13.81,10.38l3,17.55s1.88,1.87,4.81,0c0,0-2-19.73-2.39-21.46s-10.69-12.89-10.69-12.89Z" transform="translate(-68.1 -25.77)"/><path class="cls-37" d="M363.28,536.27c-.93,3.31-1.58,7.23-.07,8.77s18.47,6.69,18.47,6.69l-5,16.77s1.35,2.29,4.65,1.23c0,0,9-19.17,9-21s-17-10-17-10Z" transform="translate(-68.1 -25.77)"/><g class="cls-2"><path class="cls-86" d="M390.35,543.44,373.87,553a.19.19,0,0,0,.08-.18l16.48-9.57A.19.19,0,0,1,390.35,543.44Z" transform="translate(-68.1 -25.77)"/><polygon class="cls-86" points="305.85 526.72 322.33 517.14 322.33 517.5 305.85 527.07 305.85 526.72"/><polygon class="cls-87" points="293.44 519.42 309.93 509.85 322.23 516.95 305.75 526.53 293.44 519.42"/><path class="cls-37" d="M386.7,542.25c.25.15.26.38,0,.53L374.32,550a1.06,1.06,0,0,1-.92,0l-4.68-2.7c-.25-.15-.24-.38,0-.53l12.38-7.19a1,1,0,0,1,.9,0Z" transform="translate(-68.1 -25.77)"/><path class="cls-87" d="M374.57,552.85l5.11-9,16.48-9.58-5.11,9-.05.06-16.48,9.58Z" transform="translate(-68.1 -25.77)"/><path class="cls-87" d="M379.29,542.67l.14.15a1,1,0,0,1,.25,1l-5.11,9c-.19.41-.75.24-.9.15l-11.56-6.68a1.19,1.19,0,0,1-.56-1v-.16l12.3,7.11Z" transform="translate(-68.1 -25.77)"/><path class="cls-87" d="M379.29,542.67l16.49-9.58.13.15a1,1,0,0,1,.25,1l-16.48,9.58a1,1,0,0,0-.25-1Z" transform="translate(-68.1 -25.77)"/></g><path class="cls-37" d="M377.79,539.83c.11.06.11.16,0,.23l-4.09,2.38a.47.47,0,0,1-.4,0l-2.06-1.19c-.1-.06-.1-.16,0-.23l4.09-2.37a.43.43,0,0,1,.4,0Z" transform="translate(-68.1 -25.77)"/><path class="cls-38" d="M371,521.8s1.81,4.61,2.19,5.86,4.64,8.78,4.89,9.16,3.39,2.89,3.39,3.26a1.25,1.25,0,0,1-1.26,1.2c-1,.12-3.7-1.84-3.7-1.84s-.69,1.74-1-.35.53-1.75-.16-2.82c0,0-4.52-3-5.58-6.91a14.5,14.5,0,0,1-.13-7.16Z" transform="translate(-68.1 -25.77)"/><path class="cls-87" d="M372.35,522.51c-.84-3.86-2.58-8.91-4.24-9.11l1.53,11A6.5,6.5,0,0,0,372.35,522.51Z" transform="translate(-68.1 -25.77)"/><path class="cls-87" d="M357.75,514.62a21.21,21.21,0,0,0-5.33,3.1l1.56,22s3.26,2.39,9.93.64c5.42-1.42,6.85-3.7,6.85-3.7s.5-10.77,0-16-2.64-7.22-2.64-7.22a15.55,15.55,0,0,0-3.8-.21Z" transform="translate(-68.1 -25.77)"/><path class="cls-37" d="M365.12,499.68a13.11,13.11,0,0,0-6.94.43c-3.42,1.28-1.42,6.16-.41,8.46s1.7,1.46,1.7,1.46l7.47-3s.22-.23.07-3.35S365.12,499.68,365.12,499.68Z" transform="translate(-68.1 -25.77)"/><path class="cls-38" d="M358.85,513.4l-.15-5a1.17,1.17,0,0,1-1.05-1.48c.21-1.39,1.52-.48,1.75-.07,0,0,.29-4.79,2.82-5.25s5,.09,5.07,1.32.14,5.55,0,7.16-1.41,2.26-3.73,2.2l.16,2.59s-1.16.86-4.41.06Z" transform="translate(-68.1 -25.77)"/><path class="cls-37" d="M363.6,512.76a1.64,1.64,0,0,1,.61.09,3.08,3.08,0,0,1,1.13,2,7.51,7.51,0,0,1-.39,2.2l-2.11-1.9-1.32,2.55a5.43,5.43,0,0,1-2-1,7.34,7.34,0,0,1-1.81-2.12c.37-.92.61-1.47.61-1.47.09-.21.49-.31.49-.31s2.24,2,4,2.13C362.84,515,363.47,514.68,363.6,512.76Z" transform="translate(-68.1 -25.77)"/><path class="cls-87" d="M353.7,529.11c.67-1.71,2.15-5.84,1.74-8a4.34,4.34,0,0,0-3-3.39c-1.05,1.19-2.56,5.14-3.58,8.44C350.48,527.12,352.07,528.14,353.7,529.11Z" transform="translate(-68.1 -25.77)"/><path class="cls-37" d="M370,500.81a4,4,0,0,0-.7-1.35c-1.7-2.08-4.18-.86-6.37-1.24a11,11,0,0,0-1.53-.37,3.58,3.58,0,0,0-3.39,1.95c-.09.23-.19.47-.28.72a4.2,4.2,0,0,0-.24,1.19,22.78,22.78,0,0,0,.46,2.44,9.7,9.7,0,0,0,1.46,3.59l.59-.16a3.12,3.12,0,0,1,.34-1.59,2.69,2.69,0,0,0,.26-2.5,3.43,3.43,0,0,0,3.06.47,5.12,5.12,0,0,1,2.77.67,3,3,0,0,0,2.78.09,2.56,2.56,0,0,0,1-1.92A4.76,4.76,0,0,0,370,500.81Z" transform="translate(-68.1 -25.77)"/><path class="cls-38" d="M350.35,527.06s-1.14,5.83-.14,7,10.55,6.86,11.34,7.67,3.42,3.08,5.19,3,2.68,1.63,3.56,1.79.75-2.11.49-3c-.31-1-2.45-1.23-2.45-1.23s2.3-1.13-1.3-.66l-2.08-.34-10.54-10.1.21-1.74Z" transform="translate(-68.1 -25.77)"/><g class="cls-88"><path class="cls-40" d="M305,501.15l0-10.09,6.87-4,0,10.1-6.87,4m26.14-15.09,0-15.19,6.86-4,0,15.2-6.87,4m-26.17,5v-6.25l6.86-4,0,6.24-6.87,4m13.11,2.54,0-17.69,6.85-4,.05,17.7-6.85,4m26.13-15.08-.07-23.94,6.86-4,.07,23.93-6.86,4m-13.11-7.65,0-9.41,6.87-4,0,9.41-6.86,4m-13.07,5,0-11,6.86-4,0,11-6.85,4m26.11-21.33,0-14.82,6.86-4,0,14.83-6.86,4m-44.22,56c-.31.17-.56,0-.56-.31l-.13-47.7a1.2,1.2,0,0,1,.55-.95c.3-.17.54,0,.54.32l.14,47.06,60.06-34.67c.31-.18.55,0,.55.31a1.18,1.18,0,0,1-.55.95l-60.6,35m11.81-62.37c-.61.35-1.1.07-1.1-.62a2.43,2.43,0,0,1,1.09-1.9l17.53-10.12c.6-.35,1.1-.06,1.1.63a2.41,2.41,0,0,1-1.09,1.89l-17.53,10.12M333,436c-.61.35-1.1.07-1.1-.63a2.38,2.38,0,0,1,1.09-1.89l4-2.33c.61-.35,1.1-.07,1.1.63a2.43,2.43,0,0,1-1.09,1.89L333,436m-33.21,19.39v-3l6.58-3.79v3l-6.58,3.79m23.67-20.2a.82.82,0,0,1-.79.08.77.77,0,0,1-.31-.7l0-.27.05-.26.11-.29.13-.26a2.14,2.14,0,0,1,.78-.8.79.79,0,0,1,.78-.1l.13.11.1.17.07.19,0,.24a2.25,2.25,0,0,1-.31,1.07,2.37,2.37,0,0,1-.78.82m-11.72,6.77c-.6.34-1.1.06-1.1-.63a2.41,2.41,0,0,1,1.09-1.89l8.49-4.9c.61-.35,1.1-.07,1.1.62a2.4,2.4,0,0,1-1.09,1.89l-8.49,4.91m15.11-8.73c-.61.35-1.1.07-1.1-.62a2.43,2.43,0,0,1,1.09-1.9L337,424.81c.61-.35,1.1-.07,1.1.63a2.4,2.4,0,0,1-1.09,1.89l-10.17,5.87m-27.08,15.86v-3l6.58-3.79v3l-6.58,3.8m65.48-49.67L294,440.53a7.3,7.3,0,0,0-3.29,5.7l.22,75.59c0,2.09,1.48,2.93,3.3,1.88l71.27-41.15a7.21,7.21,0,0,0,3.29-5.68l-.22-75.6c0-2.08-1.48-2.94-3.3-1.88" transform="translate(-68.1 -25.77)"/><path class="cls-26" d="M299.79,461.64a1.2,1.2,0,0,0-.55.95l.13,47.7c0,.34.25.48.56.31l60.6-35a1.18,1.18,0,0,0,.55-.95c0-.35-.24-.49-.55-.31L300.47,509,300.33,462c0-.35-.24-.49-.54-.32" transform="translate(-68.1 -25.77)"/><polyline class="cls-39" points="243.75 461.32 236.88 465.29 236.91 475.38 243.78 471.42 243.75 461.32"/><polyline class="cls-39" points="256.79 446.18 249.93 450.14 249.98 467.83 256.84 463.88 256.79 446.18"/><polyline class="cls-39" points="269.87 441.13 263.01 445.1 263.05 460.29 269.91 456.33 269.87 441.13"/><polyline class="cls-39" points="282.91 424.85 276.05 428.81 276.11 452.75 282.98 448.78 282.91 424.85"/><polyline class="cls-26" points="243.73 455.08 236.86 459.04 236.88 465.29 243.75 461.32 243.73 455.08"/><polyline class="cls-26" points="256.76 435.22 249.9 439.18 249.93 450.14 256.79 446.18 256.76 435.22"/><polyline class="cls-26" points="269.84 431.72 262.98 435.69 263.01 445.1 269.87 441.13 269.84 431.72"/><polyline class="cls-26" points="282.87 410.02 276 413.99 276.05 428.81 282.91 424.85 282.87 410.02"/><polyline class="cls-39" points="238.22 416.53 231.64 420.32 231.65 423.29 238.23 419.49 238.22 416.53"/><polyline class="cls-39" points="238.24 422.83 231.66 426.63 231.67 429.59 238.25 425.8 238.24 422.83"/><path class="cls-26" d="M320.2,434.51l-8.49,4.9a2.41,2.41,0,0,0-1.09,1.89c0,.69.5,1,1.1.63l8.49-4.91a2.4,2.4,0,0,0,1.09-1.89c0-.69-.49-1-1.1-.62" transform="translate(-68.1 -25.77)"/><path class="cls-26" d="M323.43,432.66a2.14,2.14,0,0,0-.78.8l-.13.26-.11.29-.05.26,0,.27a.77.77,0,0,0,.31.7.82.82,0,0,0,.79-.08,2.37,2.37,0,0,0,.78-.82,2.25,2.25,0,0,0,.31-1.07l0-.24-.07-.19-.1-.17-.13-.11a.79.79,0,0,0-.78.1" transform="translate(-68.1 -25.77)"/><path class="cls-26" d="M337,424.81l-10.17,5.87a2.43,2.43,0,0,0-1.09,1.9c0,.69.49,1,1.1.62L337,427.33a2.4,2.4,0,0,0,1.09-1.89c0-.7-.49-1-1.1-.63" transform="translate(-68.1 -25.77)"/><path class="cls-26" d="M329.26,435.59l-17.53,10.12a2.43,2.43,0,0,0-1.09,1.9c0,.69.49,1,1.1.62l17.53-10.12a2.41,2.41,0,0,0,1.09-1.89c0-.69-.5-1-1.1-.63" transform="translate(-68.1 -25.77)"/><path class="cls-26" d="M337,431.12l-4,2.33a2.38,2.38,0,0,0-1.09,1.89c0,.7.49,1,1.1.63l4-2.33a2.43,2.43,0,0,0,1.09-1.89c0-.7-.49-1-1.1-.63" transform="translate(-68.1 -25.77)"/></g><g class="cls-2"><polygon class="cls-89" points="75.32 575.07 60.23 583.82 45.09 575.07 60.23 566.31 75.32 575.07"/><polygon class="cls-90" points="75.32 575.07 75.32 789.63 60.23 798.39 60.23 583.82 75.32 575.07"/><polygon class="cls-91" points="60.23 583.82 60.23 798.39 45.09 789.63 45.09 575.07 60.23 583.82"/></g><polygon class="cls-92" points="60.23 566.31 45.09 575.07 45.09 789.63 60.23 798.39 75.32 789.63 75.32 575.07 60.23 566.31"/></g></g></g></g></svg>