<svg xmlns="http://www.w3.org/2000/svg" xmlns:xlink="http://www.w3.org/1999/xlink" viewBox="0 0 1830.44 1634.66"><defs><style>.cls-1{isolation:isolate;}.cls-13,.cls-2{fill:#c4c6d0;}.cls-2{opacity:0.35;}.cls-3{fill:#ffc2c1;}.cls-4{fill:#313445;}.cls-5{fill:#fff;}.cls-6{fill:#f69772;}.cls-7{fill:url(#linear-gradient);}.cls-38,.cls-66,.cls-73,.cls-8{fill:#1e3565;}.cls-29,.cls-34,.cls-41,.cls-42,.cls-51,.cls-54,.cls-56,.cls-65,.cls-66,.cls-71,.cls-8{mix-blend-mode:multiply;}.cls-33,.cls-51,.cls-57,.cls-65,.cls-73,.cls-8{opacity:0.3;}.cls-9{fill:#efeff4;}.cls-10{fill:url(#linear-gradient-2);}.cls-11{fill:#d7e3ed;}.cls-12{fill:url(#linear-gradient-3);}.cls-14{fill:url(#linear-gradient-4);}.cls-15{fill:#d1ddeb;}.cls-15,.cls-30,.cls-41,.cls-56{opacity:0.5;}.cls-16{fill:url(#linear-gradient-5);}.cls-17{fill:#384986;}.cls-18{fill:url(#linear-gradient-6);}.cls-19{fill:url(#linear-gradient-7);}.cls-20{fill:url(#linear-gradient-8);}.cls-21{fill:url(#linear-gradient-9);}.cls-22{fill:url(#linear-gradient-10);}.cls-23{fill:url(#linear-gradient-11);}.cls-24{fill:url(#linear-gradient-12);}.cls-25{fill:url(#linear-gradient-13);}.cls-26{fill:url(#linear-gradient-14);}.cls-27{fill:url(#linear-gradient-15);}.cls-28,.cls-30,.cls-33{fill:#cde0eb;}.cls-29,.cls-35{fill:#71789c;}.cls-31{fill:#ff7343;}.cls-32{fill:#375682;}.cls-36{fill:url(#linear-gradient-16);}.cls-37{fill:#838dc6;}.cls-39{fill:url(#linear-gradient-17);}.cls-40{fill:#ffdd78;}.cls-41{fill:url(#linear-gradient-18);}.cls-42,.cls-43{fill:#ccdae9;}.cls-44{fill:url(#linear-gradient-19);}.cls-45{fill:url(#linear-gradient-20);}.cls-46{fill:url(#linear-gradient-21);}.cls-47{fill:url(#linear-gradient-22);}.cls-48{fill:url(#linear-gradient-23);}.cls-49{fill:url(#linear-gradient-24);}.cls-50{fill:url(#linear-gradient-25);}.cls-51{fill:#233166;}.cls-52{fill:url(#linear-gradient-26);}.cls-53{fill:url(#linear-gradient-27);}.cls-54{fill:#dff2f8;}.cls-55{fill:#1d2035;}.cls-56,.cls-57{fill:#182f57;}.cls-57,.cls-73{mix-blend-mode:screen;}.cls-58{fill:url(#linear-gradient-28);}.cls-59{fill:url(#linear-gradient-29);}.cls-60{fill:url(#linear-gradient-30);}.cls-61{fill:url(#linear-gradient-31);}.cls-62{fill:url(#linear-gradient-32);}.cls-63{fill:none;}.cls-64{fill:#282b43;}.cls-65,.cls-74{fill:#14274d;}.cls-66{opacity:0.4;}.cls-67{fill:url(#linear-gradient-33);}.cls-68{fill:#f05673;}.cls-69{fill:url(#linear-gradient-34);}.cls-70{fill:url(#linear-gradient-35);}.cls-71{fill:#f4d3af;}.cls-72{fill:url(#linear-gradient-36);}.cls-75{fill:url(#linear-gradient-37);}</style><linearGradient id="linear-gradient" x1="1031.56" y1="170.37" x2="1251.43" y2="170.37" gradientUnits="userSpaceOnUse"><stop offset="0" stop-color="#144188"/><stop offset="1" stop-color="#1a7cde"/></linearGradient><linearGradient id="linear-gradient-2" x1="532.31" y1="590.32" x2="1395.76" y2="590.32" gradientUnits="userSpaceOnUse"><stop offset="0" stop-color="#144188"/><stop offset="1" stop-color="#1a7cde"/></linearGradient><linearGradient id="linear-gradient-3" x1="729.77" y1="1103.48" x2="946.43" y2="1103.48" xlink:href="#linear-gradient-2"/><linearGradient id="linear-gradient-4" x1="740.4" y1="1233.3" x2="957.06" y2="1233.3" xlink:href="#linear-gradient-2"/><linearGradient id="linear-gradient-5" x1="1405.34" y1="827.8" x2="1526.73" y2="827.8" xlink:href="#linear-gradient-2"/><linearGradient id="linear-gradient-6" x1="1006.01" y1="930.78" x2="1069.93" y2="930.78" xlink:href="#linear-gradient-2"/><linearGradient id="linear-gradient-7" x1="911.02" y1="885.42" x2="1002.24" y2="885.42" xlink:href="#linear-gradient-2"/><linearGradient id="linear-gradient-8" x1="911.73" y1="787.54" x2="1002.95" y2="787.54" xlink:href="#linear-gradient-2"/><linearGradient id="linear-gradient-9" x1="1007.43" y1="743.41" x2="1071.35" y2="743.41" xlink:href="#linear-gradient-2"/><linearGradient id="linear-gradient-10" x1="1075.12" y1="788.77" x2="1166.34" y2="788.77" xlink:href="#linear-gradient-2"/><linearGradient id="linear-gradient-11" x1="1074.41" y1="886.65" x2="1165.63" y2="886.65" xlink:href="#linear-gradient-2"/><linearGradient id="linear-gradient-12" x1="589.35" y1="1104.58" x2="788.05" y2="1104.58" xlink:href="#linear-gradient-2"/><linearGradient id="linear-gradient-13" x1="642" y1="1046.23" x2="741.76" y2="1046.23" xlink:href="#linear-gradient-2"/><linearGradient id="linear-gradient-14" x1="1031.46" y1="1447.83" x2="1234.69" y2="1447.83" xlink:href="#linear-gradient-2"/><linearGradient id="linear-gradient-15" x1="1309.82" y1="1441.58" x2="1458.18" y2="1441.58" xlink:href="#linear-gradient-2"/><linearGradient id="linear-gradient-16" x1="804.18" y1="593.24" x2="898.68" y2="593.24" xlink:href="#linear-gradient-2"/><linearGradient id="linear-gradient-17" x1="3615.9" y1="1417.49" x2="3758.24" y2="1417.49" gradientTransform="translate(-2149.91 2220.92) rotate(-51.36)" gradientUnits="userSpaceOnUse"><stop offset="0" stop-color="#fff"/><stop offset="1" stop-color="#d3dbeb"/></linearGradient><linearGradient id="linear-gradient-18" x1="-10444.02" y1="-30.66" x2="-10443.99" y2="-30.65" gradientTransform="translate(11127.12 3444.38) rotate(18.26)" gradientUnits="userSpaceOnUse"><stop offset="0" stop-color="#f8d2ab"/><stop offset="0.15" stop-color="#f6c293"/><stop offset="0.38" stop-color="#f4ac72"/><stop offset="0.61" stop-color="#f29c5a"/><stop offset="0.82" stop-color="#f1924c"/><stop offset="1" stop-color="#f18f47"/></linearGradient><linearGradient id="linear-gradient-19" x1="1236.1" y1="232.51" x2="1382.78" y2="232.51" xlink:href="#linear-gradient"/><linearGradient id="linear-gradient-20" x1="1028.76" y1="1137.31" x2="1271.91" y2="1137.31" xlink:href="#linear-gradient-2"/><linearGradient id="linear-gradient-21" x1="1255.67" y1="1336.38" x2="1288.16" y2="1336.38" xlink:href="#linear-gradient-2"/><linearGradient id="linear-gradient-22" x1="673.18" y1="977.8" x2="705.67" y2="977.8" xlink:href="#linear-gradient-2"/><linearGradient id="linear-gradient-23" x1="1255.67" y1="1404.28" x2="1288.16" y2="1404.28" xlink:href="#linear-gradient-2"/><linearGradient id="linear-gradient-24" x1="1022.98" y1="979.59" x2="1052.95" y2="979.59" xlink:href="#linear-gradient-2"/><linearGradient id="linear-gradient-25" x1="1130.62" y1="1148.77" x2="1271.91" y2="1148.77" xlink:href="#linear-gradient-2"/><linearGradient id="linear-gradient-26" x1="1045.81" y1="1185.45" x2="1081.09" y2="1185.45" gradientTransform="matrix(1, 0, 0, 1, 0, 0)" xlink:href="#linear-gradient-17"/><linearGradient id="linear-gradient-27" x1="975.13" y1="1271.03" x2="1061.92" y2="1271.03" gradientTransform="matrix(1, 0, 0, 1, 0, 0)" xlink:href="#linear-gradient-17"/><linearGradient id="linear-gradient-28" x1="966.51" y1="1195.97" x2="1069.87" y2="1195.97" gradientTransform="matrix(1, 0, 0, 1, 0, 0)" xlink:href="#linear-gradient-17"/><linearGradient id="linear-gradient-29" x1="966.51" y1="1202.05" x2="1044.22" y2="1202.05" gradientTransform="matrix(1, 0, 0, 1, 0, 0)" xlink:href="#linear-gradient-17"/><linearGradient id="linear-gradient-30" x1="875.95" y1="1126.02" x2="1014.92" y2="1126.02" gradientTransform="matrix(1, 0, 0, 1, 0, 0)" xlink:href="#linear-gradient-17"/><linearGradient id="linear-gradient-31" x1="921.09" y1="1123.77" x2="1014.87" y2="1123.77" gradientTransform="matrix(1, 0, 0, 1, 0, 0)" xlink:href="#linear-gradient-17"/><linearGradient id="linear-gradient-32" x1="691.14" y1="1010.6" x2="871.05" y2="1010.6" xlink:href="#linear-gradient-2"/><linearGradient id="linear-gradient-33" x1="7236.91" y1="2385.26" x2="7326.24" y2="2385.26" gradientTransform="translate(-7043.43 -536.29) rotate(-8.55)" xlink:href="#linear-gradient-17"/><linearGradient id="linear-gradient-34" x1="7290.24" y1="2310.7" x2="7322.85" y2="2310.7" gradientTransform="translate(-7043.43 -536.29) rotate(-8.55)" gradientUnits="userSpaceOnUse"><stop offset="0" stop-color="#fff"/><stop offset="1" stop-color="#ededed"/></linearGradient><linearGradient id="linear-gradient-35" x1="419.22" y1="757.69" x2="531.84" y2="757.69" xlink:href="#linear-gradient"/><linearGradient id="linear-gradient-36" x1="472.13" y1="729.83" x2="642.77" y2="729.83" xlink:href="#linear-gradient"/><linearGradient id="linear-gradient-37" x1="1254.43" y1="245.28" x2="1365.06" y2="245.28" xlink:href="#linear-gradient"/></defs><g class="cls-1"><g id="Layer_2" data-name="Layer 2"><g id="Layer_1-2" data-name="Layer 1"><ellipse class="cls-2" cx="408.61" cy="1620.96" rx="408.61" ry="13.7"/><ellipse class="cls-2" cx="1335.45" cy="1620.96" rx="494.98" ry="13.7"/><ellipse class="cls-2" cx="1124.1" cy="1590.63" rx="476.45" ry="9.59"/><polygon class="cls-3" points="1247.38 130.15 1233.76 105.56 1203.89 115.5 1217.47 140.01 1242.68 154.41 1247.38 130.15"/><path class="cls-3" d="M1217.47,140c2.08-.15,4-.47,5.75-.73h0a52.14,52.14,0,0,0,8.85-2c-1.49-3.25-3.51-4.73-5.37-5.35a5.4,5.4,0,0,1-3.4-6.79,34.27,34.27,0,0,1,6.93-11.6l-6.46,5a14,14,0,0,0-5.34,9.13,15.5,15.5,0,0,1-2.66,6.83l1.7,5.55Z"/><path class="cls-4" d="M1178.47,75.15l.06-.22c4.66-18.4,34.18-24.42,48.53-17.9,13.74,6.24,17.76,35.19,9.41,46l-34-8.85-12.54,2.6-3-2.89c-.19-.19-.41-.39-.62-.58C1184.75,91.84,1176.33,83.85,1178.47,75.15Z"/><path class="cls-5" d="M1184.46,103c.33,5.89,2.23,10.57,4.24,10.46s3.37-5,3-10.86-2.23-10.57-4.24-10.46S1184.13,97.09,1184.46,103Z"/><path class="cls-3" d="M1189.67,113.33s3.11,13.38,8.95,19.21c0,0,16.27,4.38,20.67-17.54,0,0,.53-4.91,4.55-6.09,0,0,9.24-1.59,3.45-15.68a4.46,4.46,0,0,0-3.63-2.82c-1.59-.14-3.35.6-3.89,4.22l-1.15-4.43,7.8-13s-10.28-9-29.77.09c0,0-13,6.43-7.85,23.45a8.21,8.21,0,0,1-.86,5l-1.66,2.87S1183.57,113.92,1189.67,113.33Z"/><ellipse class="cls-5" cx="1193.82" cy="101.63" rx="3.69" ry="10.81" transform="translate(-3.82 66.98) rotate(-3.21)"/><path class="cls-4" d="M1216.49,129.82a14,14,0,0,1-.49-10.57l3.85-10.89c-4-14.44,3.81-18,3.81-18l2.18-5.22-16.27-1.6-1,5.32c6.73,4.65,6.45,15.57,6.45,15.57.38,7.82-6.1,11.68-12.34,13.58l-11.19-2.19a2,2,0,0,0-1.7.58,2.44,2.44,0,0,0-.71,1.78,2.52,2.52,0,0,0,.77,1.8,2.15,2.15,0,0,0,1.75.59l-.29,6.95-.09-.06a33.35,33.35,0,0,1-1,7c-1.29,5-9.42,10.75-4.92,16.33,3.54,4.4,11.52,4.84,16.5,3.58C1212.74,151.69,1221.61,140.92,1216.49,129.82Z"/><path class="cls-4" d="M1238.18,113.09l-15-6.47,3.32-2.31-3.21-8.81a10.46,10.46,0,0,0-8.9-7.07,19.77,19.77,0,0,0-5.82.48s-5.53,1.55-6-3.55c-.35-4.13,0-4.5-3.41-6.67,0,0,36.62-17.65,39.1,16.85a16.6,16.6,0,0,1-1.4,8C1235.57,106.45,1239.49,108.27,1238.18,113.09Z"/><path class="cls-3" d="M1223.86,108.89s9.54-1.65,3.56-16.18a4.57,4.57,0,0,0-3.73-2.9c-1.49-.13-3.12.48-3.83,3.37A14.76,14.76,0,0,0,1220,102S1220.51,107.42,1223.86,108.89Z"/><path class="cls-5" d="M1187.08,101a1.09,1.09,0,0,0,1.09,1.06l31.33-.47a1.08,1.08,0,0,0,0-2.15l-31.33.46A1.08,1.08,0,0,0,1187.08,101Z"/><path class="cls-6" d="M1045.36,136.88c-4.72-4-10.6-8.76-10.6-8.76.18-1.54,1-5.37,1.14-7.6.06-1.44-10.08-14.44-10.76-13.89l-13.65,17.7a56.18,56.18,0,0,0,4.35,5.37c2.27,2.28,7.38,3.25,12.31,5.15l10.31,8.21Z"/><path class="cls-3" d="M1025.61,100.77c5.35,6.27,10.76,10.68,10.28,19.74-.16,3-.55,5.8-.77,7.9a9.49,9.49,0,0,1-8.2-5.52c-4.33-7,1.15-11.59,1.15-11.59l-4-6.22a3.26,3.26,0,0,1,0-4.26,1,1,0,0,1,1.54,0Z"/><rect class="cls-5" x="1029.37" y="132.9" width="13.68" height="6.1" transform="translate(277.24 854.4) rotate(-50.9)"/><path class="cls-7" d="M1247.05,180.26a24.58,24.58,0,0,1-17,10.39l-26,4.7-68.67,12.38-12.23,2.2-4.48.61a23.59,23.59,0,0,1-19.21-6.19L1031.56,143l10.79-13L1116,180.2l102.06-37.39a25,25,0,0,1,32.72,17.93A24.45,24.45,0,0,1,1247.05,180.26Z"/><path class="cls-8" d="M1205.43,152.57l-1.4,42.78-68.67,12.38,52.57-20.09C1191.34,167.45,1205.43,152.57,1205.43,152.57Z"/><rect class="cls-9" x="795.24" y="854.55" width="304.36" height="636.31"/><rect class="cls-9" x="771.38" y="1264.57" width="378.95" height="57.07"/><rect class="cls-9" x="816.39" y="1151.04" width="318.93" height="57.07"/><polygon class="cls-9" points="744.51 1591.21 1198.17 1591.21 1150.33 1347.8 773.05 1347.8 744.51 1385.82 744.51 1591.21"/><path class="cls-10" d="M593.43,902.09a67.19,67.19,0,0,1-1-11.27,159.35,159.35,0,0,1-16.19-234.53,118.15,118.15,0,0,1,75-170.33A180.82,180.82,0,0,1,829.65,335.4a185,185,0,0,1,29.88,2.31,181,181,0,0,1,281.4,17.58,114,114,0,0,1,140.57,93.1,161.16,161.16,0,0,1,114.26,154c0,88.74-72.19,160.94-160.93,160.94h-28a115.43,115.43,0,0,1-114.32,100.44H889l-54.47,38.28Z"/><path class="cls-11" d="M1391.72,1351l-185.82-78.22a185.07,185.07,0,0,1-113.23-170.51V922.38a286.51,286.51,0,0,1,25.23-117.56l25.88-57.52a160.11,160.11,0,0,0,14.11-65.72V418.84h195.66l36.23,514.52Z"/><path class="cls-12" d="M729.77,1103.48a53.74,53.74,0,0,0,53.73,53.73H892.7a53.73,53.73,0,0,0,0-107.46H783.5A53.73,53.73,0,0,0,729.77,1103.48Z"/><path class="cls-13" d="M707.85,978.21a53.74,53.74,0,0,0,53.73,53.73h109.2a53.73,53.73,0,0,0,0-107.46H761.58A53.73,53.73,0,0,0,707.85,978.21Z"/><path class="cls-14" d="M740.4,1233.3A53.73,53.73,0,0,0,794.13,1287h109.2a53.73,53.73,0,0,0,0-107.46H794.13A53.74,53.74,0,0,0,740.4,1233.3Z"/><path class="cls-13" d="M1299.07,1220.13l-34.74-175s0-.12-.07-.35a29.43,29.43,0,0,0-28.91-23.72H1092.67V994.36h125.69a17.93,17.93,0,0,0,15.4-27.14,191.31,191.31,0,0,0-25-33.24c-32.15-33.92-24.71-71.71-6.93-94a9.64,9.64,0,0,0-7.54-15.65h-84.27c2.4-6.57,5-13.09,7.83-19.49l3.23-7.18h91.8a51.55,51.55,0,0,0,51.39-47.23V552.27s0-38.61-31.32-53.12a297.42,297.42,0,0,0-32.07-15.34,69.64,69.64,0,0,1-43-64.35v-.62h195.66l27.17,385.89,9.06,128.63,1.94,417.65C1340.91,1323.19,1310.36,1277,1299.07,1220.13Z"/><path class="cls-9" d="M1329.35,552.27V750.33c-2.41,29-12,60.41-41,72.52s-58,65.22-14.5,111.13,55.52,111.13,55.52,111.13l62.37,305.9,77.1,29.87a69.68,69.68,0,0,0,49.82.19l19.37-7.33a69.66,69.66,0,0,0,45-65.16v-34l29-41.11c26.61-21.71,11.3-60.72,11.3-60.72l1-.9,16.71-15.7a29.67,29.67,0,0,0,4.5-18.31c-1.2-15.9-14.21-27.51-14.21-27.51-9.7-77.32,55.62-91.83,55.62-91.83,41-16.9,16.9-43.51,16.9-43.51L1554,796.24c29-53.12,2.4-120.74,2.4-120.74l-7.2-58c-39.81-257.28-347.8-271.68-347.8-271.68V465.34c50.71,7.2,96.62,33.81,96.62,33.81C1329.35,513.66,1329.35,552.27,1329.35,552.27Z"/><path class="cls-13" d="M1540.11,1171.85h84.22l16.71-15.7a29.67,29.67,0,0,0,4.5-18.31Z"/><path class="cls-13" d="M1612,1233.47l-29,41.11v39.92L1559.64,1295a54.14,54.14,0,0,1-19.48-41.6l77.19-25.24A41.58,41.58,0,0,1,1612,1233.47Z"/><path class="cls-13" d="M1707,979.59c4.85,8.33,10.49,26.3-20.13,38.91a79.55,79.55,0,0,0-38.94,24.76H1594.5C1614.48,1008,1670.28,988.76,1707,979.59Z"/><path class="cls-15" d="M1298,499.15s-45.91-26.61-96.62-33.81V345.81s20.25,1,50.94,6.69c1.11,33.68,10.61,83.17,54.09,103.77,68.85,32.61,72.47,72.47,72.47,150.37v125s7.25,59.78-58,110.51c0,0-56.16,38.05-3.62,81.53a117.56,117.56,0,0,1,19.09,20.36l.14-1.37,67.52,57.52h55l-60,22.51L1360.35,990c14.25,39.25,18.48,81.59,24,105.85L1426,1322.26s4.4,26.84,44.37,59L1391.72,1351l-62.37-305.9s-12-65.22-55.52-111.13-14.5-99,14.5-111.13,38.61-43.52,41-72.52V552.27S1329.35,513.66,1298,499.15Z"/><path class="cls-16" d="M1520.33,864.84c-1-10.28-9-22.83-12.07-30.52a33.57,33.57,0,0,1,6.19-34.86c4.54-5.06,9.08-13.11,12.28-25.87,0,0-25.37,23.55-59.79,21.74,0,0-45.29,1.81-61.6,29l79.77,52.61c9.75,6.43,28,8.34,34-3.69A15.27,15.27,0,0,0,1520.33,864.84Z"/><circle class="cls-9" cx="1038.68" cy="837.1" r="116.28"/><path class="cls-13" d="M1038.68,937.72A100.63,100.63,0,1,1,1139.3,837.1,100.74,100.74,0,0,1,1038.68,937.72Z"/><circle class="cls-9" cx="1038.68" cy="837.1" r="33.47"/><circle class="cls-17" cx="1038.68" cy="837.1" r="15.01"/><path class="cls-18" d="M1014.92,901.15a23.55,23.55,0,0,1,46.1,0l8.23,39.52a32,32,0,1,1-62.57,0Z"/><path class="cls-19" d="M971.32,848.54a23.55,23.55,0,0,1,23.06,39.93l-30.11,26.89A32,32,0,1,1,933,861.17Z"/><path class="cls-20" d="M995.09,784.49A23.55,23.55,0,0,1,972,824.42l-38.34-12.63A32,32,0,1,1,965,757.6Z"/><path class="cls-21" d="M1062.44,773a23.54,23.54,0,0,1-46.1,0l-8.24-39.52a32,32,0,1,1,62.58,0Z"/><path class="cls-22" d="M1106,825.65a23.55,23.55,0,0,1-23-39.93l30.11-26.89A32,32,0,1,1,1144.38,813Z"/><path class="cls-23" d="M1082.27,889.7a23.54,23.54,0,0,1,23-39.92l38.35,12.63a32,32,0,1,1-31.29,54.18Z"/><path class="cls-24" d="M739.22,1243.31h48.83v-20H739.22a94.37,94.37,0,0,1-51.75-15.45c-78.36-51.12-83.9-119.17-74.76-167.26a67.34,67.34,0,0,1,66-54.75l.06-20h-.06a87.37,87.37,0,0,0-85.69,71c-10.29,54.1-4.16,130.58,83.48,187.76A114.35,114.35,0,0,0,739.22,1243.31Z"/><path class="cls-25" d="M741,1117.73l.75-20c-.35,0-34.94-1.79-58.08-28.85-18-21.07-24.85-52-20.31-91.9l-19.88-2.27c-5.2,45.81,3.27,82,25.2,107.42C697.66,1115.8,739.25,1117.66,741,1117.73Z"/><path class="cls-26" d="M1031.46,1497.85H1196.7a19.41,19.41,0,0,0,18.56-13.76l18.58-61a19.53,19.53,0,0,0-18.69-25.22H1031.46Z"/><rect class="cls-9" x="1301.04" y="1273.47" width="165.91" height="348.84"/><rect class="cls-13" x="1261.88" y="1273.47" width="39.16" height="348.84"/><rect class="cls-27" x="1309.82" y="1286.84" width="148.36" height="309.48"/><rect class="cls-28" x="1364.65" y="1298.99" width="8.51" height="30.84"/><rect class="cls-29" x="1315.73" y="1298.99" width="3.12" height="30.84"/><rect class="cls-30" x="1382.73" y="1298.99" width="8.51" height="30.84"/><rect class="cls-28" x="1400.81" y="1298.99" width="8.51" height="30.84"/><rect class="cls-28" x="1418.89" y="1298.99" width="8.51" height="30.84"/><rect class="cls-28" x="1436.97" y="1298.99" width="8.51" height="30.84"/><rect class="cls-5" x="1356.55" y="1309.07" width="95.71" height="2.86"/><rect class="cls-31" x="1325.34" y="1298.99" width="4.84" height="4.84"/><rect class="cls-5" x="1335.15" y="1298.99" width="4.84" height="4.84"/><rect class="cls-5" x="1344.95" y="1298.99" width="4.84" height="4.84"/><rect class="cls-5" x="1325.34" y="1307.98" width="4.84" height="4.84"/><rect class="cls-5" x="1335.15" y="1307.98" width="4.84" height="4.84"/><rect class="cls-5" x="1344.95" y="1307.98" width="4.84" height="4.84"/><rect class="cls-32" x="1305.3" y="1342.6" width="157.4" height="5.32"/><rect class="cls-30" x="1364.65" y="1360.68" width="8.51" height="30.84"/><rect class="cls-29" x="1315.73" y="1360.68" width="3.12" height="30.84"/><rect class="cls-28" x="1382.73" y="1360.68" width="8.51" height="30.84"/><rect class="cls-30" x="1400.81" y="1360.68" width="8.51" height="30.84"/><rect class="cls-28" x="1418.89" y="1360.68" width="8.51" height="30.84"/><rect class="cls-28" x="1436.97" y="1360.68" width="8.51" height="30.84"/><rect class="cls-5" x="1356.55" y="1370.76" width="95.71" height="2.86"/><rect class="cls-5" x="1325.34" y="1360.68" width="4.84" height="4.84"/><rect class="cls-5" x="1335.15" y="1360.68" width="4.84" height="4.84"/><rect class="cls-5" x="1344.95" y="1360.68" width="4.84" height="4.84"/><rect class="cls-5" x="1325.34" y="1369.67" width="4.84" height="4.84"/><rect class="cls-31" x="1335.15" y="1369.67" width="4.84" height="4.84"/><rect class="cls-31" x="1344.95" y="1369.67" width="4.84" height="4.84"/><rect class="cls-32" x="1305.3" y="1404.28" width="157.4" height="5.32"/><rect class="cls-28" x="1364.65" y="1422.36" width="8.51" height="30.84"/><rect class="cls-29" x="1315.73" y="1422.36" width="3.12" height="30.84"/><rect class="cls-28" x="1382.73" y="1422.36" width="8.51" height="30.84"/><rect class="cls-33" x="1400.81" y="1422.36" width="8.51" height="30.84"/><rect class="cls-33" x="1418.89" y="1422.36" width="8.51" height="30.84"/><rect class="cls-28" x="1436.97" y="1422.36" width="8.51" height="30.84"/><rect class="cls-5" x="1356.55" y="1432.44" width="95.71" height="2.86"/><rect class="cls-5" x="1325.34" y="1422.36" width="4.84" height="4.84"/><rect class="cls-31" x="1335.15" y="1422.36" width="4.84" height="4.84"/><rect class="cls-5" x="1344.95" y="1422.36" width="4.84" height="4.84"/><rect class="cls-5" x="1325.34" y="1431.35" width="4.84" height="4.84"/><rect class="cls-31" x="1335.15" y="1431.35" width="4.84" height="4.84"/><rect class="cls-5" x="1344.95" y="1431.35" width="4.84" height="4.84"/><rect class="cls-32" x="1305.3" y="1465.97" width="157.4" height="5.32"/><rect class="cls-31" x="1317" y="1532.71" width="134.01" height="53.18"/><rect class="cls-5" x="1323.38" y="1538.56" width="15.95" height="41.48"/><rect class="cls-5" x="1344.12" y="1538.56" width="15.95" height="41.48"/><rect class="cls-5" x="1364.85" y="1538.56" width="15.95" height="41.48"/><rect class="cls-5" x="1388.68" y="1538.56" width="54.97" height="41.48"/><rect class="cls-32" x="1392.77" y="1542.45" width="46.8" height="10.57"/><rect class="cls-32" x="1392.77" y="1557.33" width="46.8" height="10.57"/><rect class="cls-31" x="1317" y="1478.82" width="134.01" height="13.89"/><path class="cls-5" d="M1328.69,1485.76a3.19,3.19,0,1,1-3.19-3.19A3.19,3.19,0,0,1,1328.69,1485.76Z"/><path class="cls-5" d="M1339.33,1485.76a3.19,3.19,0,1,1-3.19-3.19A3.19,3.19,0,0,1,1339.33,1485.76Z"/><path class="cls-5" d="M1434.69,1485.76a3.19,3.19,0,1,1-3.19-3.19A3.19,3.19,0,0,1,1434.69,1485.76Z"/><path class="cls-5" d="M1445.33,1485.76a3.19,3.19,0,1,1-3.19-3.19A3.19,3.19,0,0,1,1445.33,1485.76Z"/><path class="cls-5" d="M1413.78,1485.76a3.19,3.19,0,1,1-3.19-3.19A3.19,3.19,0,0,1,1413.78,1485.76Z"/><path class="cls-5" d="M1424.41,1485.76a3.19,3.19,0,1,1-3.19-3.19A3.19,3.19,0,0,1,1424.41,1485.76Z"/><g class="cls-34"><path class="cls-35" d="M1321.67,1501.6a2.68,2.68,0,1,1-2.67-2.68A2.67,2.67,0,0,1,1321.67,1501.6Z"/><path class="cls-35" d="M1333.47,1501.6a2.68,2.68,0,1,1-2.68-2.68A2.68,2.68,0,0,1,1333.47,1501.6Z"/><path class="cls-35" d="M1345.26,1501.6a2.68,2.68,0,1,1-2.68-2.68A2.68,2.68,0,0,1,1345.26,1501.6Z"/><path class="cls-35" d="M1357.05,1501.6a2.68,2.68,0,1,1-2.68-2.68A2.68,2.68,0,0,1,1357.05,1501.6Z"/><path class="cls-35" d="M1368.84,1501.6a2.68,2.68,0,1,1-2.68-2.68A2.68,2.68,0,0,1,1368.84,1501.6Z"/><path class="cls-35" d="M1380.63,1501.6a2.68,2.68,0,1,1-2.68-2.68A2.68,2.68,0,0,1,1380.63,1501.6Z"/><path class="cls-35" d="M1392.43,1501.6a2.68,2.68,0,1,1-2.68-2.68A2.68,2.68,0,0,1,1392.43,1501.6Z"/><path class="cls-35" d="M1404.22,1501.6a2.68,2.68,0,1,1-2.68-2.68A2.68,2.68,0,0,1,1404.22,1501.6Z"/><path class="cls-35" d="M1416,1501.6a2.68,2.68,0,1,1-2.68-2.68A2.68,2.68,0,0,1,1416,1501.6Z"/><path class="cls-35" d="M1427.8,1501.6a2.68,2.68,0,1,1-2.68-2.68A2.68,2.68,0,0,1,1427.8,1501.6Z"/><path class="cls-35" d="M1439.59,1501.6a2.68,2.68,0,1,1-2.68-2.68A2.68,2.68,0,0,1,1439.59,1501.6Z"/><path class="cls-35" d="M1451.38,1501.6a2.68,2.68,0,1,1-2.68-2.68A2.68,2.68,0,0,1,1451.38,1501.6Z"/><path class="cls-35" d="M1321.67,1513.83a2.68,2.68,0,1,1-2.67-2.68A2.67,2.67,0,0,1,1321.67,1513.83Z"/><path class="cls-35" d="M1333.47,1513.83a2.68,2.68,0,1,1-2.68-2.68A2.68,2.68,0,0,1,1333.47,1513.83Z"/><path class="cls-35" d="M1345.26,1513.83a2.68,2.68,0,1,1-2.68-2.68A2.68,2.68,0,0,1,1345.26,1513.83Z"/><path class="cls-35" d="M1357.05,1513.83a2.68,2.68,0,1,1-2.68-2.68A2.68,2.68,0,0,1,1357.05,1513.83Z"/><path class="cls-35" d="M1368.84,1513.83a2.68,2.68,0,1,1-2.68-2.68A2.68,2.68,0,0,1,1368.84,1513.83Z"/><path class="cls-35" d="M1380.63,1513.83a2.68,2.68,0,1,1-2.68-2.68A2.68,2.68,0,0,1,1380.63,1513.83Z"/><path class="cls-35" d="M1392.43,1513.83a2.68,2.68,0,1,1-2.68-2.68A2.68,2.68,0,0,1,1392.43,1513.83Z"/><path class="cls-35" d="M1404.22,1513.83a2.68,2.68,0,1,1-2.68-2.68A2.68,2.68,0,0,1,1404.22,1513.83Z"/><path class="cls-35" d="M1416,1513.83a2.68,2.68,0,1,1-2.68-2.68A2.68,2.68,0,0,1,1416,1513.83Z"/><path class="cls-35" d="M1427.8,1513.83a2.68,2.68,0,1,1-2.68-2.68A2.68,2.68,0,0,1,1427.8,1513.83Z"/><path class="cls-35" d="M1439.59,1513.83a2.68,2.68,0,1,1-2.68-2.68A2.68,2.68,0,0,1,1439.59,1513.83Z"/><path class="cls-35" d="M1451.38,1513.83a2.68,2.68,0,1,1-2.68-2.68A2.68,2.68,0,0,1,1451.38,1513.83Z"/><path class="cls-35" d="M1327.3,1508a2.68,2.68,0,1,1-2.68-2.68A2.68,2.68,0,0,1,1327.3,1508Z"/><path class="cls-35" d="M1339.09,1508a2.68,2.68,0,1,1-2.68-2.68A2.68,2.68,0,0,1,1339.09,1508Z"/><path class="cls-35" d="M1350.88,1508a2.68,2.68,0,1,1-2.68-2.68A2.68,2.68,0,0,1,1350.88,1508Z"/><path class="cls-35" d="M1362.67,1508a2.68,2.68,0,1,1-2.68-2.68A2.68,2.68,0,0,1,1362.67,1508Z"/><path class="cls-35" d="M1374.46,1508a2.68,2.68,0,1,1-2.68-2.68A2.68,2.68,0,0,1,1374.46,1508Z"/><path class="cls-35" d="M1386.26,1508a2.68,2.68,0,1,1-2.68-2.68A2.68,2.68,0,0,1,1386.26,1508Z"/><path class="cls-35" d="M1398.05,1508a2.68,2.68,0,1,1-2.68-2.68A2.68,2.68,0,0,1,1398.05,1508Z"/><path class="cls-35" d="M1409.84,1508a2.68,2.68,0,1,1-2.68-2.68A2.68,2.68,0,0,1,1409.84,1508Z"/><path class="cls-35" d="M1421.63,1508a2.68,2.68,0,1,1-2.68-2.68A2.68,2.68,0,0,1,1421.63,1508Z"/><path class="cls-35" d="M1433.42,1508a2.68,2.68,0,1,1-2.68-2.68A2.68,2.68,0,0,1,1433.42,1508Z"/><path class="cls-35" d="M1445.21,1508a2.68,2.68,0,1,1-2.68-2.68A2.68,2.68,0,0,1,1445.21,1508Z"/></g><circle class="cls-9" cx="851.43" cy="593.24" r="116.55"/><rect class="cls-9" x="823.08" y="432.59" width="56.7" height="85.05"/><rect class="cls-9" x="739.56" y="467.19" width="56.7" height="85.05" transform="translate(-135.51 692.28) rotate(-45)"/><rect class="cls-9" x="690.79" y="564.89" width="85.05" height="56.7"/><rect class="cls-9" x="725.38" y="648.41" width="85.05" height="56.7" transform="translate(-253.63 741.21) rotate(-45)"/><rect class="cls-9" x="823.08" y="668.84" width="56.7" height="85.05"/><rect class="cls-9" x="906.61" y="634.24" width="56.7" height="85.05" transform="translate(-204.7 859.33) rotate(-45)"/><rect class="cls-9" x="927.03" y="564.89" width="85.05" height="56.7"/><rect class="cls-9" x="892.43" y="481.36" width="85.05" height="56.7" transform="translate(-86.58 810.41) rotate(-45)"/><path class="cls-31" d="M851.43,520.79A72.45,72.45,0,1,1,779,593.24,72.53,72.53,0,0,1,851.43,520.79Zm0-6.3a78.75,78.75,0,1,0,78.75,78.75,78.83,78.83,0,0,0-78.75-78.75Z"/><circle class="cls-36" cx="851.43" cy="593.24" r="47.25"/><circle class="cls-37" cx="670.01" cy="772.67" r="49.98"/><rect class="cls-37" x="657.85" y="703.78" width="24.32" height="36.47"/><rect class="cls-37" x="622.03" y="718.61" width="24.32" height="36.47" transform="translate(-335.29 664.26) rotate(-45)"/><rect class="cls-37" x="601.11" y="760.52" width="36.47" height="24.32"/><rect class="cls-37" x="615.95" y="796.34" width="36.47" height="24.32" transform="translate(-385.94 685.24) rotate(-45)"/><rect class="cls-37" x="657.85" y="805.1" width="24.32" height="36.47"/><rect class="cls-37" x="693.67" y="790.26" width="24.32" height="36.47" transform="translate(-364.96 735.89) rotate(-45)"/><rect class="cls-37" x="702.43" y="760.52" width="36.47" height="24.32"/><rect class="cls-37" x="687.59" y="724.69" width="36.47" height="24.32" transform="translate(-314.3 714.91) rotate(-45)"/><path class="cls-17" d="M670,741.6a31.07,31.07,0,1,1-31.08,31.07A31.11,31.11,0,0,1,670,741.6Zm0-2.7a33.78,33.78,0,1,0,33.77,33.77A33.81,33.81,0,0,0,670,738.9Z"/><circle class="cls-17" cx="670.01" cy="772.67" r="20.26"/><path class="cls-38" d="M1290.88,327.37l-50.44-53.09-17.65-40.88-6-87.16-1.41-3.55A44.52,44.52,0,0,0,1199,171.34c-1.9,14.38-1.19,35.15,7.68,51,12.44,22.29,18.75,45.77,33.74,65.65,11.79,15.61,26,34.58,29.72,40.19C1276.27,337.46,1277.69,339.51,1290.88,327.37Z"/><path class="cls-39" d="M1307.34,190.74c-1,19.34-1.37,33.94-.87,48.19,0,.45,0,.9,0,1.34.62,17.36,2.74,33.49,6.59,58.06-28.48,6.08-45.16,7.56-77.15,0V271.74a188.06,188.06,0,0,0-14.7-34.11l-9.58-21.52c-3.06-6.52-4.34-13.5-6-20.42-9.32-38.16,11.23-55.12,11.23-55.12,10-1.39,20.28-4.34,32.43-7.79l4.13.5a55.18,55.18,0,0,1,9.1,4.63C1273.29,145.14,1296,162.92,1307.34,190.74Z"/><path class="cls-3" d="M1015.12,434.14l-23,28.48c-3.64,3.76-7.52,4.12-12.7,3.35a39.54,39.54,0,0,1-10.12-3.08l-8.2,3.55,6.65,6.47s21.53,28.34,31.06,6.06c.83-2,29.33-33.87,29.33-33.87Z"/><path class="cls-5" d="M998.83,479s-2.27,13.7-12.14,23.12l-49.59-50a3.34,3.34,0,0,1,3.14-5.61c2.72.65,5.88,2.56,9,7.06a7.16,7.16,0,0,0,3.23,2.57l16.88,6.76-1.05,4.84Z"/><path class="cls-32" d="M1379.3,328.53s-23.81-14.37-35.59-3.75-33.24,9.25-42.44-10.65l3.57-50.3Z"/><polygon class="cls-40" points="1217.4 151.28 1222.82 146.78 1219.27 142.11 1216.13 143.69 1213.48 145.49 1213.86 153.48 1217.4 151.28"/><polygon class="cls-41" points="1219.12 142.12 1219.11 142.1 1219.07 142.13 1219.12 142.12"/><path class="cls-42" d="M1245.81,136.33s-10.3,13.78-12,19.56c0,0-7.59-3.61-11-9.11Z"/><path class="cls-5" d="M1208.12,146.85l9.35-6.84c15.06-1,20.23-5.08,29.91-9.86l2,2.77c-5.48,6.26-7.3,4.37-16.83,19.61-7.63-3.5-12.14-6.86-13.44-10.43l-4.12,2.84.07-.11C1213.63,145.88,1211.55,146.63,1208.12,146.85Z"/><path class="cls-43" d="M1306.47,238.93c0,.45,0,.9,0,1.34.62,17.36,2.74,33.49,6.59,58.06H1291a38.77,38.77,0,0,0,.31-8.41,53.76,53.76,0,0,0-5.54-19.51,36.46,36.46,0,0,0-8.08-10.88c-9.57-8.83-22.54-20.83-26.57-24.54a28.22,28.22,0,0,1-3.25-3.57c-13.82-17.85-11.41-44.84-11.41-44.84Z"/><path class="cls-44" d="M1249,223.83c.76,1,1.55,2,2.41,3a82.66,82.66,0,0,0,5.69,6.16,118.26,118.26,0,0,0,12.35,10.47c1.63,1.21,3.29,2.41,5.06,3.62,6.4,4.4,13.08,9.18,19.84,14.15.64.46,1.3,1,1.94,1.44,38,43,67.51,56.65,85.88,69.5a63.48,63.48,0,0,0-6.92-39.4C1372,287,1367,282,1362,277.48a74.5,74.5,0,0,0-9.82-7.24c-1.88-1.23-3.75-2.48-5.66-3.91l-.5-.37c-5.79-4.28-30.32-21.48-30.32-21.48A413,413,0,0,0,1312,201c-1.91-13.31-4.81-27.15-9.13-37.5a58.6,58.6,0,0,0-2.74-5.72c-1.06-1.88-1.83-3.78-2.87-5.46a32.67,32.67,0,0,0-10.82-10.9,54.66,54.66,0,0,0-11-5.16,58.54,58.54,0,0,0-21.18-3.47l-4.9.1C1234.19,169.51,1229.49,198.11,1249,223.83Z"/><path class="cls-32" d="M1249.38,132.93l13.09,3L1252,146.34l6.74.31s-34,46.37-3.35,84.69C1255.37,231.34,1216.06,204.92,1249.38,132.93Z"/><path class="cls-5" d="M999.74,26.58A70.26,70.26,0,1,0,1070,96.84,70.26,70.26,0,0,0,999.74,26.58Zm0,98.74a28.48,28.48,0,1,1,28.49-28.48A28.48,28.48,0,0,1,999.74,125.32Z"/><rect class="cls-5" x="982.65" width="34.18" height="51.27"/><rect class="cls-5" x="932.3" y="20.86" width="34.18" height="51.27" transform="translate(245.2 684.94) rotate(-45)"/><rect class="cls-5" x="902.9" y="79.75" width="51.27" height="34.18"/><rect class="cls-5" x="923.76" y="130.1" width="51.27" height="34.18" transform="translate(173.99 714.43) rotate(-45)"/><rect class="cls-5" x="982.65" y="142.41" width="34.18" height="51.27"/><rect class="cls-5" x="1033" y="121.56" width="34.18" height="51.27" transform="translate(203.49 785.64) rotate(-45)"/><rect class="cls-5" x="1045.31" y="79.75" width="51.27" height="34.18"/><rect class="cls-5" x="1024.46" y="29.4" width="51.27" height="34.18" transform="translate(274.69 756.14) rotate(-45)"/><path class="cls-31" d="M999.74,53.17a43.67,43.67,0,1,1-43.67,43.67A43.73,43.73,0,0,1,999.74,53.17Zm0-3.8a47.47,47.47,0,1,0,47.47,47.47,47.53,47.53,0,0,0-47.47-47.47Z"/><path class="cls-45" d="M1271.91,1345.77a243.16,243.16,0,0,1-243.15-243.15V928.85h18.79v173.77A224.37,224.37,0,0,0,1271.91,1327Z"/><path class="cls-46" d="M1281.5,1321.39h-10.85a15,15,0,0,0,0,30h10.85c3.68,0,6.66-6.66,6.66-14.87S1285.18,1321.39,1281.5,1321.39Z"/><path class="cls-47" d="M699,962.82H688.17a15,15,0,1,0,0,30H699c3.67,0,6.65-6.66,6.65-14.88S702.69,962.82,699,962.82Z"/><path class="cls-48" d="M1281.5,1389.3h-10.85a15,15,0,0,0,0,30h10.85c3.68,0,6.66-6.66,6.66-14.88S1285.18,1389.3,1281.5,1389.3Z"/><path class="cls-49" d="M1023,970v10.85a15,15,0,1,0,30,0V970c0-3.67-6.66-6.65-14.87-6.65S1023,966.33,1023,970Z"/><path class="cls-50" d="M1271.91,1413.68h-10.86a29,29,0,0,1-28.93-28.93V1023.23a112,112,0,0,0-55.78-96.68l-45.72-26.43,9.41-16.27,45.71,26.43a130.84,130.84,0,0,1,65.17,113v361.52a10.15,10.15,0,0,0,10.14,10.14h10.86Z"/><path class="cls-51" d="M714.12,1097.33a53.73,53.73,0,0,0,75.85-4.55l72.45-81.71A53.73,53.73,0,0,0,782,939.77l-72.44,81.71A53.73,53.73,0,0,0,714.12,1097.33Z"/><path class="cls-52" d="M1058.42,1231.27l-.9-6.18L1053,1194l-.08-.64-2.57-19.16s-15.38-84.15,10.33-50c0,0,12.83,13.09,15.11,38.55l5.23,72.26a13.41,13.41,0,0,1-6.09,12.22l-12.2,7.71L1050.91,1238Z"/><path class="cls-53" d="M976.63,1288.39c.8-.35,1.66-.74,2.69-1.08l-.53.14a2.77,2.77,0,0,1-3.47-1,.84.84,0,0,1,.35-1.25c6.44-2.74,11.39-6,18.61-3.31h0c1.77.66,4.29,1.78,5.51,2.32a1.3,1.3,0,0,0,1,0l50.14-46.22,11,16.24-55.75,36.5-1.12.76c-2.84,3.55-5.95,7.7-8.42,9a42,42,0,0,1-4.68,1.89,15.5,15.5,0,0,1-2.66,1l0,0c-1.35.52-2.67,1-3.43.65a2.68,2.68,0,0,1-1.29-3.47c-1.82.47-3.52-.74-3.47-2.09a2.57,2.57,0,0,1,.58-1.51,2.8,2.8,0,0,1-3.7-.56,3.35,3.35,0,0,1-.4-3.14,2.24,2.24,0,0,1-1.91-.89A2.56,2.56,0,0,1,976.63,1288.39Z"/><path class="cls-54" d="M1053,1193.35l.08.64,4.49,31.1c6-4.23,4.47-11.66,4.47-11.66,1.78-12.49-3.57-5.8,4.9-26.33s2.24-41.49,2.24-41.49Z"/><path class="cls-5" d="M1052.3,1233.58a1.28,1.28,0,0,1,1.63.07c6.81,6,10.54,11.09,13.92,19.69a1.29,1.29,0,0,1-.51,1.58l-10.28,6.24a1,1,0,0,1-1.32-.21c-6-6.72-9.6-12-12.58-19a1.29,1.29,0,0,1,.37-1.53Z"/><path class="cls-3" d="M1055.73,1544l8.64,49.21c.29,5-4.24,9.72-8.34,12.5a34.86,34.86,0,0,1-7.61,3.83l-3,7.17h8.06l25.85-16.18-.91-7-2.78-45Z"/><path class="cls-5" d="M1079.36,1600.55s6.88,9.91,6.42,21.76h-60.86a2.9,2.9,0,0,1-1.4-5.44c2-1.13,5-1.76,9.38-.93a6.21,6.21,0,0,0,3.95-.56l11.57-5.83,2.28,3.65Z"/><path class="cls-55" d="M1005,1295.13,1032.24,1450q1,5.5,2.07,11l26.26,130.27h21.75c-2.77-27.88-4-59.43-7.07-88.49-2.36-22.29-5.84-42.44-12-56.58l-7.6-125.54c7.63-16.85,5.9-32.49,2-44.23a70.08,70.08,0,0,0-11-20.94l-37.86,10.67Z"/><path class="cls-56" d="M1035.59,1296.37a6,6,0,0,0-1.38-.06l5.63-16.11,17.87-3.83c3.88,11.74,5.61,27.38-2,44.23l7.6,125.54c6.12,14.14,9.6,34.29,12,56.58a203.68,203.68,0,0,0-13.85-44.89c-1.56-3.51-5.58-9.27-9.07-10.9l-6.84-3.19,10.77-.11a805.74,805.74,0,0,0-6.45-84.5,31,31,0,0,0-29.61-27h0v-9.8Z"/><path class="cls-4" d="M986.79,1045.7s-3.84,12.77,5.26,20.4l6.73-13.47Z"/><path class="cls-5" d="M986.23,1067.63c-.35,3.52.9,6.53,2.8,6.72s3.73-2.51,4.08-6-.9-6.53-2.8-6.72S986.58,1064.11,986.23,1067.63Z"/><path class="cls-3" d="M988,1074.25a65.54,65.54,0,0,1,2.33-7.51c.47-4.75,2.14-10.28,5.65-18.32.17-.4,4.38-2.71,4.38-2.71l8.93,4.61,11.61,6,6.36,13.91.37.82,3.41,7.69-.22,27.34h-24v-7.54a7.22,7.22,0,0,0-.84-.4l-8.93-3.42a3.61,3.61,0,0,1-3.24-3.36l-.33-5.37c-1.34-2.94-1.7-4.07-2.26-8.78C989.49,1076.79,987.16,1076.33,988,1074.25Z"/><path class="cls-4" d="M999.82,1057.06v27.84a3,3,0,0,1-1.08,2.42,2.92,2.92,0,0,1-2.58.54,8.21,8.21,0,0,1-2.71-1.91h0s-1.72,1.52-1.09,4.69c.31,1.53-1.06,2.94-1.22,4.51a5.51,5.51,0,0,0,1.16,4.23c2.06,2.39,5.74,2.43,8.6,1.84a17.42,17.42,0,0,0,4.69-1.53,4.47,4.47,0,0,0,1.2-.94.77.77,0,0,0,.15-.19,4.59,4.59,0,0,0,.82-1.38,9.6,9.6,0,0,0,0-6.62,81.44,81.44,0,0,1-3.61-14.91l-1.13-7.87a1.83,1.83,0,0,1,.67-1,1.91,1.91,0,0,1,1.72-.25c5,1.83,3,11.6,5.28,15.19a10.1,10.1,0,0,0,1.41,1.79,15,15,0,0,0,5.2,3.45,18.26,18.26,0,0,0,3.11,1,21.4,21.4,0,0,0,4.67.63,19.28,19.28,0,0,0,2.41,0,10.25,10.25,0,0,0,3.4-.76c4.25-1.92,3.59-7,6-12.27.83-1.87,2.92-3.93,5-6.14a12.45,12.45,0,1,0-3.82-24.59,17.83,17.83,0,0,0-17.75-16.09,17.61,17.61,0,0,0-6.58,1.28,17,17,0,1,0-13.87,27.08Z"/><path class="cls-3" d="M1017.26,1086.79v17.9h13.58v-16.9c4.25-1.92,3.59-7,6-12.27.83-1.87,2.92-3.93,5-6.14,0,0,3.64-10.84-7-12a8.91,8.91,0,0,0-5.54,1.24,21.79,21.79,0,0,0-5.28,4.49C1020.31,1067.47,1016.74,1074.8,1017.26,1086.79Z"/><path class="cls-4" d="M1024,1063.13a21.79,21.79,0,0,1,5.28-4.49,8.91,8.91,0,0,1,5.54-1.24c10.62,1.14,7,12,7,12-2.1,2.21-4.19,4.27-5,6.14-2.38,5.26-1.72,10.35-6,12.27a10.25,10.25,0,0,1-3.4.76,19.28,19.28,0,0,1-2.41,0,21.4,21.4,0,0,1-4.67-.63,18.26,18.26,0,0,1-3.11-1v-.14C1016.74,1074.8,1020.31,1067.47,1024,1063.13Z"/><path class="cls-5" d="M988,1066.41l16,1.61a1,1,0,0,1-.2,2l-16-1.61Z"/><path class="cls-3" d="M996.05,1541.69l5.19,51.53c.29,5-4.24,9.72-8.35,12.5a34.62,34.62,0,0,1-7.61,3.83l-3,7.17h8.06l25.84-16.18-.9-7-2.23-43.59Z"/><path class="cls-5" d="M1016.23,1600.55s6.87,9.91,6.42,21.76H961.79a2.9,2.9,0,0,1-1.41-5.44c2-1.13,5-1.76,9.39-.93a6.21,6.21,0,0,0,4-.56l11.56-5.83,2.28,3.65Z"/><path class="cls-55" d="M980,1429c4.94,52.47,11.52,108.46,17.09,162.24h22.66c-2.81-37.08-1.51-65.17-1-88.63.51-22,.36-39.77-4.47-56.44l4.14-51.25,2.66-32.8,3.14-38.85,0-.35a60.2,60.2,0,0,0,9.14-11.65,54.58,54.58,0,0,0,5.16-11.36,56.11,56.11,0,0,0,1.1-31H973.66q-.28,3.83-.49,7.8C971.07,1317.28,974.55,1370.83,980,1429Z"/><path class="cls-57" d="M980,1429c2.35-14.62,7.83-50.61,7.12-63.48-.91-16.32-20.84-33.54,1.81-44.41s14.09-40,14.09-40l-29.89-4.34C971.07,1317.28,974.55,1370.83,980,1429Z"/><path class="cls-56" d="M997.05,1444.54s16.31,3.93,15.24,19.35c-.67,9.67,5.12,23.26,6.53,38.69.51-22,.36-39.77-4.47-56.44l4.14-51.25h0l2.66-32.8,3.17-39.2a60.2,60.2,0,0,0,9.14-11.65,54.58,54.58,0,0,0,5.16-11.36c-1.92,4.19-9.74,18.41-24.18,19.25l-9.34.24s15.82,15.81,8,75.62l-4.53,49.55Z"/><path class="cls-5" d="M1038.94,1108.27v1.09c0,2.51-44.21,1.7-43.87-1.12,0,0,0,0,0,0,1-1.77,3-5.38,7.75-6l.14,0h29.49S1038.27,1102.4,1038.94,1108.27Z"/><path class="cls-58" d="M967.14,1277.18c-.5,7,4,8.89,8.46,9.15a16.37,16.37,0,0,0,9.65-2.4c3.6-2.27,11-2.49,16.75-2.25,19.24,2,32.77,1.26,42.22-.46,8.39-1.52,13.58-3.85,16.72-5.89a7.61,7.61,0,0,0,3.25-8.56c-3.43-11.46-12.73-34.9-12.85-38.31a77.27,77.27,0,0,1,7-35.7c5.07-11.51,11.32-22.78,11.55-35.56.25-14.11-1.85-32.5-16.21-40.33l-15-8.15-.53-.08c-6.32-2.72-13.34-2.66-22.2-2.88l-1.55,0a33.74,33.74,0,0,0-5.86,0c-14.39,1.52-27.69,6.26-35.1,18.15a37.5,37.5,0,0,0-4,9c-7.16,23.9.52,45,4.47,68.37a155,155,0,0,1,2.06,29.6c-.29,10-1.64,20-4.43,28.45-1.31,4-1.44,7.22-.75,9.88-1,2-1.95,3.53-2.55,4.56A8,8,0,0,0,967.14,1277.18Z"/><path class="cls-59" d="M967.14,1277.18c-.5,7,4,8.89,8.46,9.15a16.37,16.37,0,0,0,9.65-2.4c3.6-2.27,11-2.49,16.75-2.25,19.24,2,32.77,1.26,42.22-.46-36.66-5.55-38-32.46-38-32.46l-6-57.5a24.5,24.5,0,0,1,8.32-21,76.74,76.74,0,0,0,6.88-6.75c12.13-23.69-3.93-45.77-3.93-45.77l-38.12,6.12a37.5,37.5,0,0,0-4,9c-7.16,23.9.52,45,4.47,68.37a155,155,0,0,1,2.06,29.6c-.29,10-1.64,20-4.43,28.45-1.31,4-1.44,7.22-.75,9.88-1,2-1.95,3.53-2.55,4.56A8,8,0,0,0,967.14,1277.18Z"/><path class="cls-60" d="M902.55,1109.27l58.67,2.47c18.21-6.68,30.43-3.1,39-1.4,7.08,1.39,11.82,6.33,13.91,13.23a18.72,18.72,0,0,1,.68,3.31v0c.86,7.77-3.33,15.31-9.28,20.22-.3.25-.6.48-.9.71-7.33,5.47-14.93,4.32-23.61,3.08-27-4.39-42.95-9.6-80.18-16.62a27.65,27.65,0,0,1-14.4-7.56L876,1116.35l13.75-16.28Z"/><path class="cls-61" d="M929.05,1111.77c-7.8.92-7.82,4.58-7.82,4.58-2.41,12.4,27.38,10.93,39.88,9.12s8-4.83,28.09,9.2,25.67-5.78,25.67-5.78c0-.59,0-1.24-.06-2v0a18.72,18.72,0,0,0-.68-3.31c-2.09-6.9-6.83-11.84-13.91-13.23-8.57-1.7-20.79-5.28-39,1.4Z"/><path class="cls-62" d="M709.23,1091.66a53.74,53.74,0,0,0,75.85-4.56l72.44-81.71a53.73,53.73,0,0,0-80.41-71.29l-72.44,81.71A53.72,53.72,0,0,0,709.23,1091.66Z"/><path class="cls-3" d="M888.16,1099l-9.2-6.58-47.21-33.78-.1.11-2.62-2.19c.19.16.48-3.78.44-4.23a24.47,24.47,0,0,0-1.27-6c-.35-.89-1.53-2.18-1.76-3.49a10.51,10.51,0,0,0-.54-1.75l-3.66,4.15c0,.52-.37.62-1.62.13-2-.78-5.11-5.82-6.19-7.3s-3.69-5.4-4.39-6.44-1.81-2.85-3.61-1.69.71,4.19,1.14,5.06,1.73,2.79,2.27,3.74,3.4,5.09,2.65,5.82-3.35-2.28-4.38-3.23-3.37-2.9-4.25-3.53-2.26-1.82-3.11-2.56-2.19-1.26-3.16-.12a1.63,1.63,0,0,0,.29,2.46c.43.43,2.16,1.93,2.88,2.61s2.61,2.56,3.65,3.64,3.58,3.45,4.43,4.11.55,1.65-.28,1.48-6.29-2.31-7.29-2.8-3.18-1.69-5-2.41-2.66-.27-3,.62a1.75,1.75,0,0,0,.62,2.14c.63.41,4,1.89,5.29,2.68s4.23,2.18,5.5,2.72,2.74,1.55,2.62,2.12-1.81.31-3.11.24-4.84-.47-6.76-.82-2.69.46-2.87,1.11.28,1.54,1.65,2a41.92,41.92,0,0,0,6.25,1.13c1.34.16,5.11.87,5.11.87,1.31.9,2.19,1.29,3.34,2a34,34,0,0,1,3.83,2.13c2.84,2.38,6,1.32,8.36.91l2.11,1.76-.11.12,32,31.69,15.77,15.65,3.07,3,13.75-16.28Z"/><path class="cls-5" d="M895.34,1101.91a1.27,1.27,0,0,1,.29,1.6c-4.32,8-8.45,12.76-16.07,18a1.3,1.3,0,0,1-1.66-.14l-8.38-8.63a1,1,0,0,1-.08-1.33c5.2-7.37,9.57-12.05,15.73-16.52a1.3,1.3,0,0,1,1.58,0Z"/><rect class="cls-9" x="549.28" y="1489.49" width="140.48" height="7.77"/><polygon class="cls-9" points="445.36 1187.63 594.99 1618.62 591.22 1622.31 440.31 1187.63 445.36 1187.63"/><path class="cls-9" d="M589.78,1203.26a34.83,34.83,0,0,0-32.89-23.4h5.05a34.83,34.83,0,0,1,32.89,23.4L739,1618.62l-3.77,3.69Z"/><path class="cls-13" d="M434.44,1179.86H556.89a34.84,34.84,0,0,1,32.89,23.4l145.48,419.05H727L582.44,1205.8a27.08,27.08,0,0,0-25.55-18.17H440.31l150.91,434.68H583L429.38,1179.86Z"/><rect class="cls-13" x="418.24" y="1185.3" width="140.48" height="7.77"/><rect class="cls-13" x="375.83" y="1308.07" width="140.48" height="7.77"/><rect class="cls-13" x="332.5" y="1430.83" width="140.48" height="7.77"/><rect class="cls-13" x="290.54" y="1553.6" width="140.48" height="7.77"/><path class="cls-13" d="M267.11,1617.58l198.6-584.85a6.13,6.13,0,0,1,4.7-3.07A34.8,34.8,0,0,1,500.69,1012h78.63a34.81,34.81,0,0,1,32.91,46.15L417.74,1622.31h-8l-4-3.69,5.58-1.24.91-2.84,192.68-558.95a27,27,0,0,0-25.56-35.85H500.69A27,27,0,0,0,477.45,1033h0c-.15.25-203.81,589.29-203.81,589.29h-8.15l-3.7-3.69Z"/><path class="cls-9" d="M269.87,1618.62h-8.09l202.31-586.88A34.83,34.83,0,0,1,497,1008.28h78.63a34.81,34.81,0,0,1,32.91,46.15L414.05,1618.62h-8.34L601.19,1051.9a27,27,0,0,0-25.56-35.85H497a27,27,0,0,0-25.56,18.23Z"/><rect class="cls-9" x="332.5" y="1425.39" width="140.48" height="7.77"/><rect class="cls-9" x="290.54" y="1548.16" width="140.48" height="7.77"/><rect class="cls-9" x="418.24" y="1179.86" width="140.48" height="7.77"/><rect class="cls-9" x="375.83" y="1302.63" width="140.48" height="7.77"/><rect class="cls-13" x="546.76" y="1495.32" width="140.48" height="7.77"/><polygon class="cls-9" points="405.71 1618.62 414.05 1618.62 563.54 1184.95 555.3 1184.95 405.71 1618.62"/><polygon class="cls-17" points="681.72 761.59 673.5 761.59 674.87 753.57 681.72 756.11 681.72 761.59"/><path class="cls-5" d="M681.06,756l3.74,3.76,1.84-.47,1.45-3a6.44,6.44,0,0,0-3.17-8.53Z"/><path class="cls-63" d="M677.29,755.63a1.11,1.11,0,0,0-1.31.3l-1.33,1.6a1.1,1.1,0,0,0,.4,1.71l2.78-3.36Z"/><polygon class="cls-63" points="678.58 756.22 675.8 759.59 677.11 760.19 679.9 756.83 678.58 756.22"/><path class="cls-63" d="M677.86,760.54l.54.24a1.11,1.11,0,0,0,1.32-.3l1.32-1.6a1.11,1.11,0,0,0-.39-1.71Z"/><path class="cls-5" d="M688.84,758.37l-11.47-5.27,4-8.84a10,10,0,0,0-9.58,16.18l-.14-.07-17.46,40.47a4.71,4.71,0,0,0,2.32,6.12,4.68,4.68,0,0,0,6.36-2.41l17.28-40.27-.1,0A10.07,10.07,0,0,0,688.84,758.37Zm-29.26,46.22a2.19,2.19,0,0,1-2.93-1,2.21,2.21,0,1,1,4-2A2.2,2.2,0,0,1,659.58,804.59Zm15.08-47.07,1.31-1.59a1.15,1.15,0,0,1,1.32-.3l.54.25-2.77,3.36A1.1,1.1,0,0,1,674.66,757.52Zm1.12,2.06,2.81-3.37,1.31.61-2.8,3.37Zm5.25-.7-1.32,1.59a1.05,1.05,0,0,1-1.31.3l-.53-.23,2.77-3.36A1.08,1.08,0,0,1,681,758.88Z"/><path class="cls-3" d="M658.14,778.32c-1,.82-2.13,1.82-3,2.57a16.21,16.21,0,0,1-4.94,3.21c-.74.4-28.57-5.48-28.57-5.48l-2.33,11.45s20.61,2.26,27.19,3.23c3.34.49,9.84,4.29,12.64,4.63a42,42,0,0,0,5.45.12h0c1.86,0,4.27.22,5.11-.54a2.48,2.48,0,0,0,0-3.44c1.74-.18,2.85-1.79,2.37-3a2.46,2.46,0,0,0-1-1.14c1.66-.39,2.81-.83,3-1.68a3.11,3.11,0,0,0-.66-2.88c.77-.35,1.28-.79,1.39-1.4a2.39,2.39,0,0,0-2.14-3.11,18.45,18.45,0,0,0-3.66,0c2.79-.2.7-2.92-.16-3.23-1.55-.56-6.66-.76-8-.81A5.55,5.55,0,0,0,658.14,778.32Z"/><rect class="cls-5" x="636.5" y="785.1" width="13.24" height="5.74" transform="translate(-245.35 1283.09) rotate(-79.91)"/><path class="cls-3" d="M459.44,1099.07s-38.53,41.08-34.94,50.75a159.72,159.72,0,0,0,7.16,15.5l-.73,10-7.46-4.88-14.13-30.61,33.72-51.47Z"/><path class="cls-64" d="M542.61,865.66,525.86,1027l-1.89,2.27-23,27.7-68.56,82.74-19.68-14.29c7.14-11.57,15.93-25.45,24.37-38.58,22-34.21,44.3-68.33,58.53-80.68V871.85l.94-.12Z"/><path class="cls-65" d="M524,1029.22l-23,27.7c-8.1-2.5-35.17-7.09-63.87,29.87,22-34.21,44.3-68.33,58.53-80.68V871.85l.94-.12Z"/><path class="cls-38" d="M556.92,800.23c-1.26-8.55-2.15-16.69-.72-23.28,6-27.92,7.5-57.49-3.11-84.56a43.89,43.89,0,0,0-22.16-23.57l-.47,3.74,10.24,71.87,1.08,7.66-1,17.52-.08,1.08-1.53,26.9a52.75,52.75,0,0,1-.78,6.64L533,833.34c-5,9.59-7.76,18.13-3.95,21.32l-.34,1.84a17,17,0,0,1,.44-1.77c1.72,1.36,4.67,1.7,9.25.64C566.45,848.9,560.32,823.12,556.92,800.23Z"/><path class="cls-66" d="M552.7,727.59s.56,16.62-6.53,27l10,65.16s1.9,20.59-12.86,21.4l-6.81-91.67Z"/><path class="cls-32" d="M425.08,861.07s19.44-18.43,32.71-10.86,33.18,1.84,37.73-18.77l-13.73-46.58Z"/><path class="cls-3" d="M536.48,1094.38s-9,54.53-1.51,61.59c4.84,4.56,16,9.89,16,9.89l3.27,7.94h-8.91l-28.56-17.91.1-61.53Z"/><path class="cls-5" d="M516.8,1155.89s-7.61,11-7.12,24.1h68.58a2.81,2.81,0,0,0,1.81-5c-2.24-1.87-6-3.28-12.19-2a5.84,5.84,0,0,1-3.79-.51L551,1165.87l-2.52,4Z"/><path class="cls-5" d="M453.08,1174.9c-2.26-1.88-6-3.29-12.22-2a5.75,5.75,0,0,1-3.75-.54l-3.14-1.56-2.31-5.45-4.48,1.47-15.13-31.13s-12.93,3.48-21,13.78L408,1163.78l19,16.07h24.3a2.8,2.8,0,0,0,1.82-4.95Z"/><path class="cls-55" d="M550.78,816.23l-12.62,323.83L510,1140c0-17.44-1.05-26.71-2-46.27-1.5-32.12-2.62-64,2.21-88.57L493.36,871.85c-22-21.42-7.93-58.07-7.93-58.07l12-2.42,23.11-4.65Z"/><path class="cls-55" d="M531.92,1002.76l-13.32,6.5A502,502,0,0,0,508,1093.75c-1.5-32.12-2.62-64,2.21-88.57L493.36,871.85c-22-21.42-7.93-58.07-7.93-58.07l12-2.42,23,16.27S498,838.8,514,874.22l4.63,128.52Z"/><polygon class="cls-3" points="551.23 623.74 546.87 642.08 544.48 652.07 540.98 666.8 540.43 669.1 539.6 672.64 520.88 669.16 514.6 646.2 518.32 632.16 529.98 623.55 551.23 623.74"/><path class="cls-67" d="M519.32,828.14c-10.91-1.68-21.16,3.09-32,3.56a7.08,7.08,0,0,1-6.19-3.18,7,7,0,0,1-.58-6.89A27.82,27.82,0,0,0,482.31,804c-.56-4-1.39-8.29-2.38-12.77-1.77-8.06-4.11-16.74-6.47-25.5-1.5-5.56-3-11.16-4.38-16.63-1.14-4.5-2.19-8.88-3-13.14a81.12,81.12,0,0,1-.65-29.57,76.86,76.86,0,0,1,8.36-24.35c2.78-5.11,6.92-12.54,12.16-18.53,5.79-6.6,19.32-15.36,27.36-13.42,5.47,1.34,10.67,10.46,15.77,16a18.34,18.34,0,0,0,3.67,3.27,28.29,28.29,0,0,1,8.76,8.42c.62,1,1,1.68,1.64,2.78.4.78,1,1.91,1.38,2.73l.33.67c.79,1.69,1.54,3.47,2.24,5.28a87,87,0,0,1,4.15,14c.13.68.26,1.33.37,2a89.43,89.43,0,0,1,1.55,19.08A40.69,40.69,0,0,1,548.33,743a31.52,31.52,0,0,1-5.75,7.58,47.8,47.8,0,0,0,1,13.29c.81,3.79,3.37,22.5,4.23,26.31,1.78,8.1,2.26,18.92,4,28.09a5.28,5.28,0,0,1-3.53,6C541.09,826.63,527.11,830.54,519.32,828.14Z"/><path class="cls-28" d="M551.59,705.26a76.87,76.87,0,0,0-4-11,50.93,50.93,0,0,0-10-14.64l-23.9-24.52,15.28,11a18.34,18.34,0,0,0,3.67,3.27,28.29,28.29,0,0,1,8.76,8.42c.62,1,1,1.69,1.63,2.79s1.21,2.32,1.71,3.39h0c.79,1.69,1.54,3.47,2.24,5.28a87,87,0,0,1,4.15,14C551.35,704,551.48,704.62,551.59,705.26Z"/><polygon class="cls-68" points="542.47 667.04 547.55 677.95 543.11 680.62 542.47 667.04"/><path class="cls-68" d="M546.22,676.93l1,1.87c.68,1.22,1.69,3,2.86,5.42.61,1.19,1.27,2.51,1.9,4s1.41,3,2.07,4.76,1.47,3.53,2.14,5.5,1.44,4,2.1,6.21a135.46,135.46,0,0,1,6,30.91,115.89,115.89,0,0,1-.19,18.12c-.18,1.55-.32,3.12-.54,4.69s-.53,3.13-.8,4.71l-1,4.58c-.34,1.47-.91,3.17-1.37,4.75-2,6.18-4.33,11.85-6.51,17.26a123.11,123.11,0,0,0-5.33,15.22,42.12,42.12,0,0,0-1.4,13c.12,1,.23,1.93.35,2.88s.42,1.85.6,2.75l.3,1.33c.15.44.31.87.46,1.3.25.71.49,1.42.73,2.11.9,2,1.76,4,2.57,5.87.82,1.45,1.59,2.83,2.31,4.12.18.33.35.65.53,1l.63,1,1.18,1.83c.77,1.17,1.42,2.26,2.09,3.22l4.43,5.9-1.77,18.66-18.9-4.14-4.53-7.81c-.69-1.27-1.37-2.74-2.15-4.3l-1.19-2.45c-.21-.42-.41-.85-.63-1.29l-.6-1.47L531,842q-.88-2.93-1.88-6.14c0,.07-.27-.81-.15-.47l0-.06,0-.12-.06-.26-.12-.5-.22-1-.45-2.06c-.15-.7-.29-1.4-.44-2.1s-.17-1.47-.26-2.21c-.13-1.49-.37-3-.39-4.52s0-3.1,0-4.68a61.07,61.07,0,0,1,4.17-18.58,140.09,140.09,0,0,1,8-16.5c2.83-5.17,5.65-10.24,7.89-15.21.51-1.24,1.06-2.3,1.57-3.69l1.41-4c.39-1.32.78-2.64,1.16-4s.62-2.68.94-4a105,105,0,0,0,2.06-16.19,130.28,130.28,0,0,0-.31-15.53,133.11,133.11,0,0,0-1.9-13.92c-.38-2.15-.84-4.19-1.31-6.13s-1-3.77-1.42-5.5-1-3.3-1.46-4.78-.92-2.81-1.36-4c-.83-2.4-1.63-4.3-2.17-5.59s-.82-2-.82-2Z"/><polygon class="cls-69" points="512.69 644.64 506.98 650.3 543.11 680.62 542.47 667.04 512.69 644.64"/><path class="cls-28" d="M519,758.92s-24,25.93-14.65,47.89c9.08,21.21,10.51,11,15,21.33-.92-.13-1.88-.2-2.8-.32-.48-.05-.94-.1-1.43-.13a3.55,3.55,0,0,0-.46,0,29.12,29.12,0,0,0-4.48,0,28.71,28.71,0,0,0-7,1.49c-4.73,1.66-10.57,2.31-15.85,2.53a7.08,7.08,0,0,1-6.19-3.18,7,7,0,0,1-.58-6.89A27.82,27.82,0,0,0,482.31,804c-.56-4-1.39-8.29-2.38-12.77l50.12-90.35S542.12,730.55,519,758.92Z"/><path class="cls-70" d="M526.12,735.72c-.5,1.1-1,2.24-1.62,3.35q-1.82,3.48-4.09,7a111.89,111.89,0,0,1-9.47,12.41q-1.89,2.2-4,4.43c-4.5,4.82-9.31,9.54-13.37,14.7-19.09,24.22-13.77,41.75-56.49,76.76q-6.22,5.11-13.89,10.75a60.93,60.93,0,0,1-1.61-38.45c1.55-5.35,4.56-10.35,7.75-15a0,0,0,0,0,0,0c.49-.71,1-1.4,1.48-2.11a69.11,69.11,0,0,1,7.75-8.82c1.3-1.34,2.58-2.67,3.87-4.12.21-.23.42-.46.64-.73a4.18,4.18,0,0,1,.4-.44c1.85-2.12,6.13-6.84,10.57-11.72l13.51-14.75a394.24,394.24,0,0,1-5.49-41.62c-.2-3-.39-6.07-.51-9.13.74-18.32,6.36-32.19,13.2-42.39a75.31,75.31,0,0,1,6.25-8.08c1.48-1.65,3-3.16,4.4-4.55a72.32,72.32,0,0,1,12.12-9.32,26.34,26.34,0,0,1,8.57-3.34l.85-.17C528.81,681.58,539.12,707.52,526.12,735.72Z"/><path class="cls-32" d="M507,650.3l-5.59,9.89L510.3,664l-4.23,3.75s36.43,31.37,17.51,73.07C523.58,740.77,556.68,702.37,507,650.3Z"/><path class="cls-5" d="M562.06,624c-.87,5.4-.22,10,1.43,10.28s3.7-3.89,4.56-9.29.22-10-1.43-10.27S562.92,618.58,562.06,624Z"/><ellipse class="cls-4" cx="561.64" cy="589.33" rx="13.25" ry="12.34" transform="translate(-84.65 1084.36) rotate(-83.83)"/><path class="cls-4" d="M561.62,603s12.48-2.79,9.49-12.93a9.82,9.82,0,0,0-3.22-4.94,36.58,36.58,0,0,0-10.73-5.93,30.77,30.77,0,0,0-21.64.62,52.26,52.26,0,0,1-7.33,2.35,12.41,12.41,0,0,1-4.54.21c-3-.42-9.24-.39-11.38,6.56a43.75,43.75,0,0,1-2.09,5.45c-2.05,4.42-5,13.3-1.41,22.45Z"/><path class="cls-3" d="M565.06,636.55a4.39,4.39,0,0,0-3,2.71,1.8,1.8,0,0,0-.08.21,33.1,33.1,0,0,0-1.24,3.66,25.38,25.38,0,0,0-.63,2.93,13.35,13.35,0,0,0-.11,3.2,27,27,0,0,1,.1,4.79,14,14,0,0,1-.52,2.93c-.67,2.15-2,3.65-4.78,2.62,0,0-19.28-5.71-19.15-16.5L523,640.72l-6.26-1.58-4.05-29.34s8.32-21.2,26.45-18.29c7.46,1.2,16.92,3.74,22,9.73,4.17,4.93,6,15.34,3.84,21.36a5.57,5.57,0,0,0-.39,4.48l3,5.75A3.15,3.15,0,0,1,565.06,636.55Z"/><path class="cls-4" d="M508.77,616.87s-.61,4.75,3.26,10.54,4.26,9.47,4,13.66c0,0,5.89-6.74,2.93-19.42-3.78-16.22,20.49-21.08,29.89-19.67,0,0-2.18-9.41-17-9.3a15.75,15.75,0,0,0-8.77,2.49C518.62,598.11,512.53,604.26,508.77,616.87Z"/><path class="cls-5" d="M555.65,623.08c-.86,5.4-.22,10,1.44,10.28s3.69-3.89,4.56-9.29.22-10-1.44-10.27S556.52,617.68,555.65,623.08Z"/><path class="cls-4" d="M559.62,657l-4.74-1s-10-4.65-8.25-14.81a14.08,14.08,0,0,0,13.52,4.86,13.35,13.35,0,0,0-.11,3.2,27,27,0,0,1,.1,4.79A14,14,0,0,1,559.62,657Z"/><path class="cls-4" d="M562.79,639.69a.62.62,0,0,1,.43.31.67.67,0,0,1,0,.52c-.3.75-.6,1.57-.86,2.45a.66.66,0,0,1-.71.46l-9.28-1S554.7,638.07,562.79,639.69Z"/><path class="cls-4" d="M554.84,659.6s-19.28-5.71-19.15-16.5c0,0,7.23-12.34,0-16.24,0,0-13.55-7.5-16.32,5.35l-2.27-19.9,6-9,20.07-5.2,5.68,3.91,2.32,8.39h0c-4.36.26-8,4.1-8.49,8.92a30.82,30.82,0,0,0,1.74,14.64,44.34,44.34,0,0,1,2.26,7.26c.77,3.57,3.64,9.13,13.51,12.85C559.87,657.41,558.73,661.07,554.84,659.6Z"/><path class="cls-3" d="M534.6,631.1s-7.31-3.29-5-13.68a5.3,5.3,0,0,1,3.84-4.11,3.3,3.3,0,0,1,3.72,1.49,4.69,4.69,0,0,1,.6,3.75Z"/><path class="cls-5" d="M535.39,620.3a1.75,1.75,0,0,1-.71-1.71,1.63,1.63,0,0,1,1.76-1.5L566,621.28a1.74,1.74,0,0,1-.48,3.43L536,620.52A1.41,1.41,0,0,1,535.39,620.3Z"/><path class="cls-71" d="M545.88,638.36v-.05l0,0Z"/><path class="cls-3" d="M535.7,643.19s0-.06,0-.1,6.44-11,1-15.52c.42,1,2.13,6.52-4,10.33-3.41,2.1-6.2,4.18-5,8.81.82,3.16,5.11,8,2.65,11.19l10.84,8.15,2.73-11.46C539.59,651.86,535.68,648,535.7,643.19Z"/><path class="cls-8" d="M474.4,770.66l8.23,6.69-11.32-2.57S414.63,829,437.08,854.34q-6.22,5.11-13.89,10.75a60.93,60.93,0,0,1-1.61-38.45c1.55-5.35,4.56-10.35,7.75-15a0,0,0,0,0,0,0c.49-.71,1-1.4,1.48-2.11a69.11,69.11,0,0,1,7.75-8.82c1.3-1.34,2.58-2.67,3.87-4.12.21-.23.42-.46.64-.73a4.18,4.18,0,0,1,.4-.44c1.85-2.12,6.13-6.84,10.57-11.72l13.51-14.75a394.24,394.24,0,0,1-5.49-41.62c-.2-3-.39-6.07-.51-9.13.74-18.32,6.36-32.19,13.2-42.39l3.73-3.91,36,77.2-21.25-16.48a11.94,11.94,0,0,0-19,7A71,71,0,0,0,474.4,770.66Z"/><path class="cls-72" d="M556,758.75,541.57,731l-30.11-56.47a19.15,19.15,0,0,0-26.5-7.57l-3.26,1.89a19.15,19.15,0,0,0-5.85,27.92l58.07,79.1a25.51,25.51,0,0,0,2.28,2.69,19.38,19.38,0,0,0,11.58,5.71L640,795.32l2.74-15.51Z"/><path class="cls-73" d="M541.72,743.92a6,6,0,0,1-3.11,1.3,6.24,6.24,0,0,1-5.3-2.32,10.81,10.81,0,0,1-2.89-6.61c-1.07-14.8-9.07-30.7-33.51-41.23-25.72-11.08-12-28.14-12-28.14a19.15,19.15,0,0,1,26.5,7.57L541.57,731l.43.88C546,740.55,541.73,743.92,541.72,743.92Z"/><polygon class="cls-13" points="561.25 1182.15 568.18 1185.9 576.08 1162.98 569.02 1159.61 561.25 1182.15"/><polygon class="cls-9" points="555.3 1184.95 563.54 1184.95 572.6 1158.68 565.57 1155.16 555.3 1184.95"/><path class="cls-64" d="M1242.69,352.72l-137.26,21.92c-6.67,12-27.12,31.91-49.48,52.86-15.6,14.63-32.1,29.78-45.54,43.19L992.94,454.5l86.12-108A30.52,30.52,0,0,1,1095,336l115.52-31.13,25.87-7Z"/><path class="cls-8" d="M1242.69,352.72l-137.26,21.92c-6.67,12-27.12,31.91-49.48,52.86,22.2-25.08,41.11-57.56,41.11-57.56L1095,353.25l8.89,12.53c23.49-5.76,78.79-36.55,78.79-36.55,16.66-10.15,24.4-18.41,27.9-24.33l25.87-7Z"/><path class="cls-3" d="M1157.39,579.36a39.22,39.22,0,0,1-1.64,10.45l4.66,7.63,5.47-7.49s25.08-25.24,1.7-31.59l-1.6-39.51-18.12,2.82Z"/><path class="cls-5" d="M1167.59,558.36s13.88.35,24.58,8.82l-42.62,56a3.34,3.34,0,0,1-6-2.33c.27-2.79,1.72-6.18,5.74-9.88a7.13,7.13,0,0,0,2.11-3.54l4.35-17.66,4.93.36Z"/><path class="cls-55" d="M1276.6,355.85l-112.74,47c3.48,13.41,4.51,55.22,5.86,98.46a2,2,0,0,0,0,.41c.16,4.35.28,8.74.44,13.09v.06c0,.54,0,1.1.06,1.63.41,11.65.88,23.21,1.44,34.07l-24.52,3.64-26.4-159.53a25.92,25.92,0,0,1,11.78-28.56l48-29L1236,306.43v-8.11h77.17C1322.54,341.76,1276.6,355.85,1276.6,355.85Z"/><path class="cls-8" d="M1276.6,355.85l-112.74,47c3.48,13.41,4.51,55.22,5.86,98.46C1167.09,465.8,1155,399.69,1155,399.69l-12.53-14.09,17.75,7.31,104.92-51.68c35.48-12.53,25.74-42.91,25.74-42.91h22.24C1322.54,341.76,1276.6,355.85,1276.6,355.85Z"/><rect class="cls-5" x="1298.2" y="354.35" width="25.39" height="115.32" transform="translate(897.37 1722.43) rotate(-89.93)"/><path class="cls-74" d="M1293.84,386.18a8.31,8.31,0,0,1,8.3-8.28l17.6,0a8.31,8.31,0,0,1,8.27,8.3v7.48h6.51v-7.49a14.82,14.82,0,0,0-14.78-14.81l-17.59,0a14.82,14.82,0,0,0-14.82,14.78v7.48h6.52Z"/><rect class="cls-74" x="1274.14" y="404.9" width="15.91" height="11.4" rx="2.31" transform="matrix(0, -1, 1, 0, 870.02, 1692.22)"/><path class="cls-31" d="M1361.64,392.7h-7.29a4.43,4.43,0,0,0-4.41-4.12h-3a4.44,4.44,0,0,0-4.43,4.11l-25.61,0a4.43,4.43,0,0,0-4.41-4.12h-3a4.43,4.43,0,0,0-4.42,4.11l-25.61,0a4.44,4.44,0,0,0-4.42-4.12h-3a4.43,4.43,0,0,0-4.42,4.11h-7.29a6.93,6.93,0,0,0-7,6.91v9.09l20.38,0v-3.67a5.08,5.08,0,0,1,5.08-5.07h6.79a5.09,5.09,0,0,1,5.07,5.08v3.67l40.68,0V405a5.09,5.09,0,0,1,5.09-5.07h6.78a5.07,5.07,0,0,1,5.07,5.08v3.66l20.38,0v-9.09A6.93,6.93,0,0,0,1361.64,392.7Z"/><path class="cls-74" d="M1348.17,416.32a5.07,5.07,0,0,1-5.08,5.07h-6.79a5.09,5.09,0,0,1-5.07-5.09v-4.39l-40.68-.05v4.4a5.09,5.09,0,0,1-5.08,5.07h-6.78a5.07,5.07,0,0,1-5.07-5.08v-4.4l-20.38,0,0,25.53a6.93,6.93,0,0,0,6.93,6.93l101.44.12a6.93,6.93,0,0,0,7-6.91l0-25.54-20.39,0Z"/><rect class="cls-74" x="1331.75" y="404.97" width="15.91" height="11.4" rx="2.31" transform="translate(927.49 1749.9) rotate(-89.93)"/><path class="cls-3" d="M1011.51,116.15c-1.16-1.87-.41-4.2,1.12-4.62a3,3,0,0,1,1.9.11c-1.65-1.13-1.32-3.45-.68-4.35a3.91,3.91,0,0,1,3.39-1.55,2.68,2.68,0,0,1,.32-2.47c1.9-2.11,3.89-1.23,4.75-.27a32.66,32.66,0,0,1,2.26,2.76c1.21,1.44,2.39,2.9,2.34,4a3.17,3.17,0,0,1-3.4,2.79c1.23,1.86.54,4.24-1,4.71a3.11,3.11,0,0,1-1.93-.06c.95,2,1.44,3.43.8,4.36a4,4,0,0,1-3.37,1.66,2.67,2.67,0,0,1-.26,2.49c-1.87,2.18-3.91,1.36-4.79.4a23.3,23.3,0,0,1-3-3.59v0c-1-1.34-2-2.66-1.93-3.62A3.16,3.16,0,0,1,1011.51,116.15Z"/><path class="cls-8" d="M1302.9,163.54c4.32,10.35,7.22,24.19,9.13,37.5a413,413,0,0,1,3.68,43.44s24.53,17.2,30.32,21.48l.5.37c1.91,1.43,3.78,2.68,5.66,3.91-31-15.51-40.71-23.07-40.71-23.07l-12.7,5.07,9.16-8.47-13.58-23.36-31.84-33.15S1250.78,176.82,1255,156Z"/><path class="cls-3" d="M1305,361.22c1.38-.68,3-1.32,4.21-1.86a18.92,18.92,0,0,0,5.86-3.57c.79-.58,8.61-32.83,8.61-32.83l13.22,3.31s-8,22.83-10.28,30.23c-1.17,3.76-.44,12.52-1.49,15.63a46.62,46.62,0,0,1-2.62,5.8h0c-1,1.94-1.91,4.61-3.13,5.11a2.89,2.89,0,0,1-3.63-1.72c-1.07,1.74-3.32,2.1-4.31,1a2.87,2.87,0,0,1-.7-1.61c-1.25,1.54-2.28,2.53-3.3,2.36a3.61,3.61,0,0,1-2.69-2.15,2.46,2.46,0,0,1-2.17.76c-2.54-.69-2.66-2.71-2.21-3.81a22.22,22.22,0,0,1,1.83-3.86c-1.61,2.83-3.42-.73-3.31-1.79.19-1.92,2.55-7.39,3.17-8.82C1302.35,362.67,1303.55,361.93,1305,361.22Z"/><rect class="cls-5" x="1319.06" y="342.64" width="6.97" height="14.68" transform="translate(618.64 1523.06) rotate(-73.86)"/><path class="cls-75" d="M1363.71,255.34l-32.29,96.2-17.54-4.47L1333,248.73l-72-71.68a22.29,22.29,0,0,1-.4-31.19,22,22,0,0,1,2.08-1.9h0a22.16,22.16,0,0,1,31.38,3.54l34.1,43.49,31.32,39.93A26.08,26.08,0,0,1,1363.71,255.34Z"/><path class="cls-73" d="M1327.73,197.94a5,5,0,0,1-4.14,2.28,10.67,10.67,0,0,1-10.65-8.17c-6.38-26.49-35.82-28.4-35.82-28.4-6.14-1.06-12.76-3.24-15.12-9.53-4-10.63,8.18-15.83,16.81-15a22.15,22.15,0,0,1,15.25,8.37l34.1,43.49A7.25,7.25,0,0,1,1327.73,197.94Z"/><path class="cls-40" d="M1216.59,148.69s0,.25-.1.74-.06,1.1-.11,2,.07,2,.12,3.31.42,2.8.66,4.46.95,3.44,1.47,5.39,1.64,3.93,2.53,6.09,2.44,4.23,3.72,6.51a21.87,21.87,0,0,0,2.36,3.31l2.63,3.36c1.63,2.37,4,4.37,6.19,6.62l3.38,3.36,3.9,3.09,4,3.15a35.56,35.56,0,0,0,4.22,3.06l9.15,5.77c.77.48,1.53,1,2.33,1.46l2.51,1.27,5,2.56c3.43,1.65,6.69,3.61,10.32,5.06l10.87,4.44,5.45,2.24c1.8.76,3.75,1.27,5.62,1.92l11.27,3.7c3.75,1.22,7.43,2.52,11.27,3.4l22.21,5.76L1368.7,245l9.75,2,9.12,1.46,2.38.39c.75.14,1.35.21,2.49.5l3,.73,2.49.75c1.67.48,3.17,1.05,4.65,1.6s2.91,1.09,4.22,1.69c2.71,1.13,5.12,2.32,7.29,3.47s4.16,2.25,5.9,3.29c3.54,2,6.07,3.83,7.86,5l2.72,1.85,4.73,24.49-25.16,1.07-1.93-1.66c-1.27-1.06-3.09-2.75-5.55-4.53a48.42,48.42,0,0,0-4.07-2.94,57.43,57.43,0,0,0-4.9-3.09c-.88-.55-1.79-1-2.72-1.5s-1.91-1-2.87-1.39l-1.48-.66-1.16-.47a11.58,11.58,0,0,0-1.8-.58l-2-.58-9.4-2.65-9.89-3.19L1341,263.08l-22.42-8.64c-3.83-1.36-7.58-3.17-11.36-4.9l-11.33-5.22c-1.88-.9-3.8-1.66-5.63-2.68l-5.5-3-10.87-6c-3.6-1.95-6.93-4.46-10.33-6.62l-5-3.32-2.47-1.65c-.8-.59-1.57-1.24-2.34-1.85l-9.06-7.29a38.51,38.51,0,0,1-4.16-3.81l-3.92-3.89c-1.28-1.28-2.54-2.55-3.79-3.79l-3.28-4.09c-2.1-2.73-4.34-5.13-5.89-8l-2.45-4a24.52,24.52,0,0,1-2.15-3.91c-1.15-2.69-2.43-5.13-3.25-7.59s-1.52-4.8-2-7-.75-4.25-.93-6.1-.18-3.53-.16-5,.17-2.67.29-3.68.32-1.82.42-2.35l.18-.72Z"/></g></g></g></svg>