<svg xmlns="http://www.w3.org/2000/svg" xmlns:xlink="http://www.w3.org/1999/xlink" viewBox="0 0 1219.14 1135.83"><defs><style>.cls-1,.cls-2{fill:#3f92d1;}.cls-1,.cls-3{isolation:isolate;}.cls-1{opacity:0.5;}.cls-3{fill:#92b4d1;opacity:0.2;}.cls-4{fill:#efeff4;}.cls-5{fill:#e4e4e8;}.cls-6{fill:#c4c6d0;}.cls-7{fill:#ff7343;}.cls-8{fill:url(#linear-gradient);}.cls-9{fill:#ff5a22;}.cls-10{fill:url(#linear-gradient-2);}.cls-11{fill:url(#linear-gradient-3);}.cls-12{fill:url(#linear-gradient-4);}.cls-13{fill:url(#linear-gradient-5);}.cls-14{fill:url(#linear-gradient-6);}.cls-15{fill:url(#linear-gradient-7);}.cls-16{fill:#e5603c;}.cls-17{fill:url(#linear-gradient-8);}.cls-18{fill:url(#linear-gradient-9);}.cls-19{fill:url(#linear-gradient-10);}.cls-20{fill:#2672ab;}.cls-21{fill:url(#linear-gradient-11);}.cls-22{fill:url(#linear-gradient-12);}.cls-23{fill:url(#linear-gradient-13);}.cls-24{fill:url(#linear-gradient-14);}.cls-25{fill:url(#linear-gradient-15);}.cls-26{fill:url(#linear-gradient-16);}.cls-27{fill:url(#linear-gradient-17);}.cls-28{fill:url(#linear-gradient-18);}.cls-29{fill:url(#linear-gradient-19);}.cls-30{fill:url(#linear-gradient-20);}.cls-31{fill:url(#linear-gradient-21);}.cls-32{fill:url(#linear-gradient-22);}.cls-33{fill:url(#linear-gradient-23);}.cls-34{fill:url(#linear-gradient-24);}.cls-35{fill:url(#linear-gradient-25);}.cls-36{fill:url(#linear-gradient-26);}.cls-37{fill:url(#linear-gradient-27);}.cls-38{fill:url(#linear-gradient-28);}.cls-39{fill:url(#linear-gradient-29);}.cls-40{fill:url(#linear-gradient-30);}.cls-41{fill:url(#linear-gradient-31);}.cls-42{fill:url(#linear-gradient-32);}.cls-43{fill:url(#linear-gradient-33);}.cls-44{fill:url(#linear-gradient-34);}.cls-45{fill:url(#linear-gradient-35);}.cls-46{fill:url(#linear-gradient-36);}.cls-47{fill:url(#linear-gradient-37);}.cls-48{fill:url(#linear-gradient-38);}.cls-49{fill:url(#linear-gradient-39);}.cls-50{fill:url(#linear-gradient-40);}.cls-51{fill:url(#linear-gradient-41);}.cls-52{fill:url(#linear-gradient-42);}.cls-53{fill:url(#linear-gradient-43);}.cls-54{fill:url(#linear-gradient-44);}.cls-55{fill:url(#linear-gradient-45);}.cls-56{fill:url(#linear-gradient-46);}.cls-57{fill:url(#linear-gradient-47);}.cls-58{fill:url(#linear-gradient-48);}.cls-59{fill:url(#linear-gradient-49);}.cls-60{fill:url(#linear-gradient-50);}.cls-61{fill:#084c94;}.cls-62{fill:#001a46;}.cls-63{fill:#25a4f2;}.cls-64{fill:#d62d69;}.cls-65{fill:#fff;}.cls-66{fill:#ffd55d;}.cls-67{fill:#dd921f;}.cls-68{fill:#f76195;}.cls-69{fill:#eb4680;}.cls-70{fill:#353a3d;}.cls-71{fill:#dadae0;}.cls-72{fill:#3f484c;}.cls-73{fill:#72b5e8;}.cls-74{fill:#a8cff0;}.cls-75{fill:#d1ebff;}.cls-76{fill:#d7d7db;}.cls-77{fill:#cfcfd3;}.cls-78{fill:#d4d4d8;}.cls-79{fill:#03336e;}.cls-80{fill:#ad1f45;}.cls-81{fill:#99203a;}.cls-82{fill:#0fbab8;}.cls-83{fill:#1ce5ac;}.cls-84{fill:#00d9a0;}.cls-85{fill:#0edd9d;}</style><linearGradient id="linear-gradient" x1="16176.07" y1="286.76" x2="16183.32" y2="286.76" gradientTransform="translate(16783.64 1136) rotate(180)" gradientUnits="userSpaceOnUse"><stop offset="0.1" stop-color="#45108a"/><stop offset="1" stop-color="#7c1dc9"/></linearGradient><linearGradient id="linear-gradient-2" x1="3498.15" y1="314.93" x2="3504.95" y2="314.93" gradientTransform="matrix(1, 0, 0, -1, -2858.39, 1136)" xlink:href="#linear-gradient"/><linearGradient id="linear-gradient-3" x1="3555.93" y1="311.14" x2="3572.92" y2="311.14" gradientTransform="matrix(1, 0, 0, -1, -2858.39, 1136)" xlink:href="#linear-gradient"/><linearGradient id="linear-gradient-4" x1="3498.15" y1="293.35" x2="3504.95" y2="293.35" gradientTransform="matrix(1, 0, 0, -1, -2858.39, 1136)" xlink:href="#linear-gradient"/><linearGradient id="linear-gradient-5" x1="3504.95" y1="308.34" x2="3512.19" y2="308.34" gradientTransform="matrix(1, 0, 0, -1, -2858.39, 1136)" xlink:href="#linear-gradient"/><linearGradient id="linear-gradient-6" x1="3498.15" y1="300.74" x2="3512.2" y2="300.74" gradientTransform="matrix(1, 0, 0, -1, -2858.39, 1136)" xlink:href="#linear-gradient"/><linearGradient id="linear-gradient-7" x1="3512.2" y1="297.07" x2="3537.1" y2="297.07" gradientTransform="matrix(1, 0, 0, -1, -2858.39, 1136)" xlink:href="#linear-gradient"/><linearGradient id="linear-gradient-8" x1="3546.87" y1="312.96" x2="3555.92" y2="312.96" gradientTransform="matrix(1, 0, 0, -1, -2858.39, 1136)" xlink:href="#linear-gradient"/><linearGradient id="linear-gradient-9" x1="3546.88" y1="322.57" x2="3572.92" y2="322.57" gradientTransform="matrix(1, 0, 0, -1, -2858.39, 1136)" xlink:href="#linear-gradient"/><linearGradient id="linear-gradient-10" x1="3572.92" y1="327.92" x2="3583.13" y2="327.92" gradientTransform="matrix(1, 0, 0, -1, -2858.39, 1136)" xlink:href="#linear-gradient"/><linearGradient id="linear-gradient-11" x1="9628.95" y1="314.93" x2="9635.75" y2="314.93" gradientTransform="translate(10245.38 1136) rotate(180)" xlink:href="#linear-gradient"/><linearGradient id="linear-gradient-12" x1="9686.73" y1="311.14" x2="9703.72" y2="311.14" gradientTransform="translate(10245.38 1136) rotate(180)" xlink:href="#linear-gradient"/><linearGradient id="linear-gradient-13" x1="9628.95" y1="293.35" x2="9635.75" y2="293.35" gradientTransform="translate(10245.38 1136) rotate(180)" xlink:href="#linear-gradient"/><linearGradient id="linear-gradient-14" x1="9635.75" y1="308.34" x2="9643" y2="308.34" gradientTransform="translate(10245.38 1136) rotate(180)" xlink:href="#linear-gradient"/><linearGradient id="linear-gradient-15" x1="9628.95" y1="300.74" x2="9643" y2="300.74" gradientTransform="translate(10245.38 1136) rotate(180)" xlink:href="#linear-gradient"/><linearGradient id="linear-gradient-16" x1="9643" y1="297.07" x2="9667.87" y2="297.07" gradientTransform="translate(10245.38 1136) rotate(180)" xlink:href="#linear-gradient"/><linearGradient id="linear-gradient-17" x1="9677.68" y1="312.96" x2="9686.73" y2="312.96" gradientTransform="translate(10245.38 1136) rotate(180)" xlink:href="#linear-gradient"/><linearGradient id="linear-gradient-18" x1="9677.68" y1="322.57" x2="9703.72" y2="322.57" gradientTransform="translate(10245.38 1136) rotate(180)" xlink:href="#linear-gradient"/><linearGradient id="linear-gradient-19" x1="9703.72" y1="327.92" x2="9713.93" y2="327.92" gradientTransform="translate(10245.38 1136) rotate(180)" xlink:href="#linear-gradient"/><linearGradient id="linear-gradient-20" x1="608.26" y1="290.92" x2="616.19" y2="290.92" gradientTransform="matrix(1, 0, 0, -1, 0, 1136)" gradientUnits="userSpaceOnUse"><stop offset="0" stop-color="#144188"/><stop offset="1" stop-color="#102465"/></linearGradient><linearGradient id="linear-gradient-21" x1="16137.35" y1="143.08" x2="16146.68" y2="143.08" xlink:href="#linear-gradient"/><linearGradient id="linear-gradient-22" x1="729.79" y1="187.49" x2="784.11" y2="187.49" xlink:href="#linear-gradient-20"/><linearGradient id="linear-gradient-23" x1="3546.16" y1="179.38" x2="3554.92" y2="179.38" gradientTransform="matrix(1, 0, 0, -1, -2858.39, 1136)" xlink:href="#linear-gradient"/><linearGradient id="linear-gradient-24" x1="3620.61" y1="174.5" x2="3642.5" y2="174.5" gradientTransform="matrix(1, 0, 0, -1, -2858.39, 1136)" xlink:href="#linear-gradient"/><linearGradient id="linear-gradient-25" x1="3546.16" y1="151.57" x2="3554.92" y2="151.57" gradientTransform="matrix(1, 0, 0, -1, -2858.39, 1136)" xlink:href="#linear-gradient"/><linearGradient id="linear-gradient-26" x1="3554.92" y1="170.89" x2="3564.26" y2="170.89" gradientTransform="matrix(1, 0, 0, -1, -2858.39, 1136)" xlink:href="#linear-gradient"/><linearGradient id="linear-gradient-27" x1="3546.17" y1="161.1" x2="3564.26" y2="161.1" gradientTransform="matrix(1, 0, 0, -1, -2858.39, 1136)" xlink:href="#linear-gradient"/><linearGradient id="linear-gradient-28" x1="687.78" y1="161.1" x2="705.87" y2="161.1" xlink:href="#linear-gradient-20"/><linearGradient id="linear-gradient-29" x1="3564.26" y1="156.36" x2="3596.31" y2="156.36" gradientTransform="matrix(1, 0, 0, -1, -2858.39, 1136)" xlink:href="#linear-gradient"/><linearGradient id="linear-gradient-30" x1="705.87" y1="156.36" x2="737.92" y2="156.36" xlink:href="#linear-gradient-20"/><linearGradient id="linear-gradient-31" x1="3608.95" y1="176.85" x2="3620.61" y2="176.85" gradientTransform="matrix(1, 0, 0, -1, -2858.39, 1136)" xlink:href="#linear-gradient"/><linearGradient id="linear-gradient-32" x1="3608.95" y1="189.21" x2="3642.5" y2="189.21" gradientTransform="matrix(1, 0, 0, -1, -2858.39, 1136)" xlink:href="#linear-gradient"/><linearGradient id="linear-gradient-33" x1="750.56" y1="189.21" x2="784.11" y2="189.21" xlink:href="#linear-gradient-20"/><linearGradient id="linear-gradient-34" x1="3642.5" y1="196.15" x2="3655.66" y2="196.15" gradientTransform="matrix(1, 0, 0, -1, -2858.39, 1136)" xlink:href="#linear-gradient"/><linearGradient id="linear-gradient-35" x1="784.11" y1="196.15" x2="797.27" y2="196.15" xlink:href="#linear-gradient-20"/><linearGradient id="linear-gradient-36" x1="767.77" y1="240.71" x2="797.06" y2="240.71" xlink:href="#linear-gradient-20"/><linearGradient id="linear-gradient-37" x1="729.3" y1="290.92" x2="737.23" y2="290.92" xlink:href="#linear-gradient-20"/><linearGradient id="linear-gradient-38" x1="548.22" y1="238.37" x2="797.27" y2="238.37" gradientTransform="matrix(1, 0, 0, -1, 0, 1136)" gradientUnits="userSpaceOnUse"><stop offset="0" stop-color="#89daf4"/><stop offset="1" stop-color="#008dd7"/></linearGradient><linearGradient id="linear-gradient-39" x1="657.71" y1="169.28" x2="687.78" y2="169.28" xlink:href="#linear-gradient-20"/><linearGradient id="linear-gradient-40" x1="9587.67" y1="179.38" x2="9596.43" y2="179.38" gradientTransform="translate(10245.38 1136) rotate(180)" xlink:href="#linear-gradient"/><linearGradient id="linear-gradient-41" x1="9662.11" y1="174.5" x2="9684" y2="174.5" gradientTransform="translate(10245.38 1136) rotate(180)" xlink:href="#linear-gradient"/><linearGradient id="linear-gradient-42" x1="9587.67" y1="151.57" x2="9596.43" y2="151.57" gradientTransform="translate(10245.38 1136) rotate(180)" xlink:href="#linear-gradient"/><linearGradient id="linear-gradient-43" x1="9596.43" y1="170.89" x2="9605.76" y2="170.89" gradientTransform="translate(10245.38 1136) rotate(180)" xlink:href="#linear-gradient"/><linearGradient id="linear-gradient-44" x1="9587.67" y1="161.1" x2="9605.77" y2="161.1" gradientTransform="translate(10245.38 1136) rotate(180)" xlink:href="#linear-gradient"/><linearGradient id="linear-gradient-45" x1="9605.77" y1="156.36" x2="9637.82" y2="156.36" gradientTransform="translate(10245.38 1136) rotate(180)" xlink:href="#linear-gradient"/><linearGradient id="linear-gradient-46" x1="9650.45" y1="176.85" x2="9662.11" y2="176.85" gradientTransform="translate(10245.38 1136) rotate(180)" xlink:href="#linear-gradient"/><linearGradient id="linear-gradient-47" x1="9650.45" y1="189.21" x2="9684" y2="189.21" gradientTransform="translate(10245.38 1136) rotate(180)" xlink:href="#linear-gradient"/><linearGradient id="linear-gradient-48" x1="9684" y1="196.15" x2="9697.16" y2="196.15" gradientTransform="translate(10245.38 1136) rotate(180)" xlink:href="#linear-gradient"/><linearGradient id="linear-gradient-49" x1="548.44" y1="240.68" x2="577.73" y2="240.68" xlink:href="#linear-gradient-20"/><linearGradient id="linear-gradient-50" x1="625.61" y1="245" x2="719.88" y2="245" xlink:href="#linear-gradient-20"/></defs><g id="Layer_2" data-name="Layer 2"><g id="Layer_1-2" data-name="Layer 1"><path class="cls-1" d="M878.83,552.46c-14.59,8.42-36.67,9.34-49.31,2v9.6c12.64,7.3,34.72,6.39,49.31-2Z"/><path class="cls-2" d="M485.51,1087.54l-253-146.08c-12.32-7.11-18.62-16.51-19.2-26.43-.06,4.24-.08,19.82-.07,20.62.17,10.31,6.51,20.13,19.27,27.49l253,146.08Z"/><path class="cls-3" d="M485.51,1124.7l-253-146.08c-28.55-16.48-25-45.26,8-64.29l595-343.51c33-19,82.81-21.09,111.35-4.61l253,146.08c28.55,16.48,25,45.26-8,64.29l-595,343.51C563.9,1139.11,514.05,1141.18,485.51,1124.7Z"/><path class="cls-4" d="M258.71,886.4,851.44,544.19c24.19-14,60.77-15.48,81.71-3.39L1179.46,683c20.94,12.09,18.32,33.21-5.86,47.18L580.87,1072.4c-24.19,14-60.77,15.47-81.71,3.38L252.85,933.58C231.91,921.48,234.53,900.36,258.71,886.4Z"/><path class="cls-5" d="M250.51,932.06a59.3,59.3,0,0,1,8.2-5.68L851.44,584.17c24.19-14,60.77-15.48,81.71-3.39L1179.46,723c.84.48,1.58,1,2.34,1.52,16.25-13.54,15.93-31-2.34-41.5L933.15,540.8c-20.94-12.09-57.52-10.57-81.71,3.39L258.71,886.4C235.5,899.8,232.21,919.78,250.51,932.06Z"/><path class="cls-6" d="M895.76,899.86l276.07-161.44c19.61-11.32,19.52-29.74-.22-41.14L931,558.37c-19.74-11.4-51.64-11.45-71.25-.13L583.68,719.67Z"/><path class="cls-7" d="M584.2,740.55c-2.12.9-4.16,1.88-6.15,2.9V725.54Z"/><polygon class="cls-8" points="607.57 845.84 600.32 852.64 600.32 852.64 607.57 845.84"/><path class="cls-9" d="M714.53,804.47h0l-26-3.65a62.5,62.5,0,0,1-7.38,5,78.37,78.37,0,0,1-8.74,4.26l6.31,15h0v3.57c.82-.42,1.65-.83,2.43-1.28a60.9,60.9,0,0,0,7.38-5v-21.5Z"/><polygon class="cls-10" points="639.76 817.88 639.76 817.88 646.56 824.26 639.76 817.88"/><polygon class="cls-11" points="697.54 823.67 714.53 826.05 714.53 826.05 714.53 826.05 697.54 823.67"/><polygon class="cls-12" points="639.76 839.46 646.56 845.84 639.76 839.46 639.76 839.46"/><polygon class="cls-13" points="653.81 831.06 646.56 824.26 653.81 831.06 653.81 831.06"/><polygon class="cls-14" points="653.81 831.06 646.56 824.26 639.76 817.88 639.76 817.88 639.76 839.46 639.76 839.46 639.76 839.46 646.56 845.84 653.81 852.64 653.81 831.06"/><polygon class="cls-7" points="653.81 831.06 646.56 824.26 639.76 817.88 639.76 817.88 639.76 839.46 639.76 839.46 639.76 839.46 646.56 845.84 653.81 852.64 653.81 831.06"/><path class="cls-15" d="M678.68,825.16a145.33,145.33,0,0,1-24.87,5.9v21.58h0v.07l1-.24a145.37,145.37,0,0,0,23-5.45l.9-.21V828.73h0v-3.57Z"/><path class="cls-16" d="M678.68,825.16a145.33,145.33,0,0,1-24.87,5.9v21.58h0v.07l1-.24a145.37,145.37,0,0,0,23-5.45l.9-.21V828.73h0v-3.57Z"/><polygon class="cls-17" points="688.49 822.4 688.49 822.4 697.54 823.67 688.49 822.4 688.49 822.4"/><polygon class="cls-18" points="714.53 804.47 688.49 800.82 688.49 822.4 688.49 822.4 697.54 823.67 714.53 826.05 714.53 804.47"/><polygon class="cls-7" points="714.53 804.47 688.49 800.82 688.49 822.4 688.49 822.4 697.54 823.67 714.53 826.05 714.53 804.47"/><path class="cls-19" d="M724.74,790.11h0a48.52,48.52,0,0,1-10.21,14.36h0v21.58h0a48.52,48.52,0,0,0,10.21-14.36Z"/><path class="cls-16" d="M724.74,790.11h0a48.52,48.52,0,0,1-10.21,14.36h0v21.58h0a48.52,48.52,0,0,0,10.21-14.36Z"/><path class="cls-16" d="M701.84,768.79l.17.82a25.35,25.35,0,0,1-.09,12.39l11.78,4.18,10.88-3.84V760.76l-22.74,8Z"/><path class="cls-20" d="M672,740.55c2.12.9,4.16,1.88,6.15,2.9V725.54Z"/><path class="cls-7" d="M724.58,789.76l-22.62-8a27.22,27.22,0,0,0,0-13l22.62-8-.13-.24.29-.1A48.08,48.08,0,0,0,714.53,746l-26,3.65a60.9,60.9,0,0,0-7.38-5,80.16,80.16,0,0,0-8.74-4.26l6.31-15a145.33,145.33,0,0,0-24.87-5.9l-.18.17-.43-.07-13.83,13.06c-3.74-.32-7.51-.47-11.28-.46s-7.53.14-11.27.46L603,719.56l-.43.07-.18-.17a146.62,146.62,0,0,0-24.88,5.9l6.32,15a81.06,81.06,0,0,0-8.74,4.26,60.9,60.9,0,0,0-7.38,5l-26-3.65a48.08,48.08,0,0,0-10.21,14.37l.29.1-.13.24,22.62,8a25.58,25.58,0,0,0-.79,6.52,25.88,25.88,0,0,0,.79,6.5l-22.62,8,.13.24-.29.11a48.52,48.52,0,0,0,10.21,14.36l26-3.65a62.5,62.5,0,0,0,7.38,5,78.37,78.37,0,0,0,8.74,4.26l-6.31,15a145.33,145.33,0,0,0,24.87,5.9l.18-.17.42.08,13.84-13.06c3.74.31,7.5.47,11.27.45s7.54-.14,11.28-.45L653.2,831l.43-.08.18.17a145.33,145.33,0,0,0,24.87-5.9l-6.31-15a78.37,78.37,0,0,0,8.74-4.26,62.5,62.5,0,0,0,7.38-5l26,3.65a48.52,48.52,0,0,0,10.21-14.36l-.29-.11Zm-70.66.41c-7.15,4.13-16.49,6.21-25.83,6.24s-18.68-2.11-25.82-6.24-10.75-9.51-10.81-14.9,3.66-10.79,10.81-14.92,16.49-6.2,25.82-6.24,18.68,2.11,25.83,6.24,10.75,9.52,10.81,14.92-3.66,10.78-10.81,14.9Z"/><path class="cls-9" d="M541.66,804.47h0l26-3.65a62.5,62.5,0,0,0,7.38,5,78.37,78.37,0,0,0,8.74,4.26l-6.31,15h0v3.57c-.82-.42-1.65-.83-2.43-1.28a60.9,60.9,0,0,1-7.38-5v-21.5Z"/><path class="cls-9" d="M639.3,817.91v-.07c-3.71.34-7.46.51-11.21.52s-7.49-.18-11.2-.52v.07h-.46v21.58c3.86.34,7.76.5,11.66.48s7.8-.14,11.67-.48V817.88C639.61,817.9,639.45,817.9,639.3,817.91Z"/><polygon class="cls-21" points="616.43 817.88 616.43 817.88 609.63 824.26 616.43 817.88"/><polygon class="cls-22" points="558.65 823.67 541.66 826.05 541.66 826.05 541.66 826.05 558.65 823.67"/><polygon class="cls-23" points="616.43 839.46 609.63 845.84 616.43 839.46 616.43 839.46"/><polygon class="cls-24" points="602.38 831.06 609.63 824.26 602.38 831.06 602.38 831.06"/><polygon class="cls-25" points="602.38 831.06 609.63 824.26 616.43 817.88 616.43 817.88 616.43 839.46 616.43 839.46 616.43 839.46 609.63 845.84 602.38 852.64 602.38 831.06"/><polygon class="cls-7" points="602.38 831.06 609.63 824.26 616.43 817.88 616.43 817.88 616.43 839.46 616.43 839.46 616.43 839.46 609.63 845.84 602.38 852.64 602.38 831.06"/><path class="cls-26" d="M577.51,825.16a145.33,145.33,0,0,0,24.87,5.9v21.58h0v.07l-1-.24a145.37,145.37,0,0,1-23-5.45l-.9-.21V828.73h0v-3.57Z"/><path class="cls-16" d="M577.51,825.16a145.33,145.33,0,0,0,24.87,5.9v21.58h0v.07l-1-.24a145.37,145.37,0,0,1-23-5.45l-.9-.21V828.73h0v-3.57Z"/><polygon class="cls-27" points="567.7 822.4 567.7 822.4 558.65 823.67 567.7 822.4 567.7 822.4"/><polygon class="cls-28" points="541.66 804.47 567.7 800.82 567.7 822.4 567.7 822.4 558.65 823.67 541.66 826.05 541.66 804.47"/><polygon class="cls-7" points="541.66 804.47 567.7 800.82 567.7 822.4 567.7 822.4 558.65 823.67 541.66 826.05 541.66 804.47"/><path class="cls-29" d="M531.45,790.11h0a48.52,48.52,0,0,0,10.21,14.36h0v21.58h0a48.52,48.52,0,0,1-10.21-14.36Z"/><path class="cls-16" d="M531.45,790.11h0a48.52,48.52,0,0,0,10.21,14.36h0v21.58h0a48.52,48.52,0,0,1-10.21-14.36Z"/><path class="cls-7" d="M554.35,768.79l-.17.82a25.35,25.35,0,0,0,.09,12.39l-11.78,4.18-10.88-3.84V760.76l22.74,8Z"/><path class="cls-9" d="M654.08,760.26c-7.16-4.14-16.57-6.18-26-6.15s-18.82,2-26,6.15-10.62,9.49-10.6,14.89c-.06,3.82,1.62,7.64,5.11,11a28.49,28.49,0,0,1,5.65-4.24c7.15-4.13,16.49-6.2,25.82-6.24s18.68,2.11,25.83,6.24a28.49,28.49,0,0,1,5.65,4.24c3.49-3.38,5.17-7.2,5.11-11C664.7,769.75,661.2,764.37,654.08,760.26Z"/><path class="cls-30" d="M616.19,852.88c-2.73,1.15-5.36,2.41-7.93,3.74V833.54Z"/><polygon class="cls-31" points="646.29 988.54 636.96 997.3 636.96 997.3 646.29 988.54"/><path class="cls-32" d="M784.11,935.23h0l-33.55-4.7a79.92,79.92,0,0,1-9.51,6.51,100.84,100.84,0,0,1-11.26,5.48l8.13,19.37h0v4.6c1.05-.55,2.12-1.06,3.13-1.65a79.84,79.84,0,0,0,9.51-6.5V930.53Z"/><polygon class="cls-33" points="687.78 952.51 687.78 952.51 696.54 960.73 687.78 952.51"/><polygon class="cls-34" points="762.22 959.97 784.11 963.04 784.11 963.04 784.11 963.04 762.22 959.97"/><polygon class="cls-35" points="687.78 980.32 696.54 988.54 687.78 980.32 687.78 980.32"/><polygon class="cls-36" points="705.87 969.49 696.54 960.73 705.87 969.49 705.87 969.49"/><polygon class="cls-37" points="705.87 969.49 696.54 960.73 687.78 952.51 687.78 952.51 687.78 980.32 687.78 980.32 687.78 980.32 696.54 988.54 705.87 997.3 705.87 969.49"/><polygon class="cls-38" points="705.87 969.49 696.54 960.73 687.78 952.51 687.78 952.51 687.78 980.32 687.78 980.32 687.78 980.32 696.54 988.54 705.87 997.3 705.87 969.49"/><path class="cls-39" d="M737.92,961.89a187.84,187.84,0,0,1-32,7.6V997.3h0v.08l1.27-.3a188.07,188.07,0,0,0,29.62-7l1.16-.28V966.49h0v-4.6Z"/><path class="cls-40" d="M737.92,961.89a187.84,187.84,0,0,1-32,7.6V997.3h0v.08l1.27-.3a188.07,188.07,0,0,0,29.62-7l1.16-.28V966.49h0v-4.6Z"/><polygon class="cls-41" points="750.56 958.34 750.56 958.34 762.22 959.97 750.56 958.34 750.56 958.34"/><polygon class="cls-42" points="784.11 935.23 750.56 930.53 750.56 958.34 750.56 958.34 762.22 959.97 784.11 963.04 784.11 935.23"/><polygon class="cls-43" points="784.11 935.23 750.56 930.53 750.56 958.34 750.56 958.34 762.22 959.97 784.11 963.04 784.11 935.23"/><path class="cls-44" d="M797.27,916.73h0a62.26,62.26,0,0,1-13.16,18.5h0V963h0a62,62,0,0,0,13.16-18.51V916.73Z"/><path class="cls-45" d="M797.27,916.73h0a62.26,62.26,0,0,1-13.16,18.5h0V963h0a62,62,0,0,0,13.16-18.51V916.73Z"/><path class="cls-46" d="M767.77,889.26l.21,1.06a32.58,32.58,0,0,1-.12,16L783,911.67l14-4.94V878.92l-29.29,10.34Z"/><path class="cls-47" d="M729.3,852.88c2.73,1.15,5.36,2.41,7.93,3.74V833.54Z"/><path class="cls-48" d="M797.06,916.28,767.91,906a32.42,32.42,0,0,0,1-8.38,33.06,33.06,0,0,0-1-8.4l29.14-10.29c0-.11-.12-.21-.17-.32l.38-.13A62,62,0,0,0,784.11,860l-33.55,4.69a77.78,77.78,0,0,0-9.5-6.5,102,102,0,0,0-11.27-5.49l8.14-19.37a188.48,188.48,0,0,0-32.06-7.59l-.22.21-.56-.1-17.82,16.83q-7.23-.6-14.53-.58c-4.85,0-9.71.18-14.53.58l-17.82-16.83-.55.1-.23-.21a188.59,188.59,0,0,0-32.05,7.59l8.14,19.37a102,102,0,0,0-11.27,5.49,77.78,77.78,0,0,0-9.5,6.5L561.38,860a61.83,61.83,0,0,0-13.16,18.5l.37.13-.16.32,29.14,10.29a35.27,35.27,0,0,0,0,16.78l-29.14,10.29c0,.1.11.21.16.32l-.37.13a62,62,0,0,0,13.16,18.5l33.55-4.7a79,79,0,0,0,9.5,6.51,100.14,100.14,0,0,0,11.27,5.48l-8.14,19.37a188.62,188.62,0,0,0,32.05,7.6l.23-.21.55.09,17.82-16.82c4.82.4,9.68.6,14.53.58s9.72-.18,14.54-.58L705.1,969.4l.55-.09.22.21a187.84,187.84,0,0,0,32-7.6l-8.13-19.37A101.21,101.21,0,0,0,741.05,937a79.92,79.92,0,0,0,9.51-6.51l33.55,4.7a62.26,62.26,0,0,0,13.16-18.5l-.37-.13Zm-91,.53c-9.21,5.32-21.24,8-33.28,8s-24.06-2.72-33.27-8-13.85-12.26-13.93-19.2,4.72-13.9,13.93-19.22,21.24-8,33.27-8,24.07,2.72,33.28,8,13.85,12.27,13.92,19.22c-.12,6.94-4.75,13.89-14,19.2Z"/><path class="cls-2" d="M561.38,935.23h0l33.55-4.7a79,79,0,0,0,9.5,6.51,100.14,100.14,0,0,0,11.27,5.48l-8.14,19.37h0v4.6c-1-.55-2.12-1.06-3.13-1.65a78.93,78.93,0,0,1-9.5-6.5V930.53Z"/><path class="cls-49" d="M687.18,952.55v-.09c-4.78.43-9.61.65-14.44.67s-9.65-.24-14.44-.67v.09h-.59v27.81q7.5.64,15,.62c5,0,10-.19,15-.62V952.51Z"/><polygon class="cls-50" points="657.71 952.51 657.71 952.51 648.95 960.73 657.71 952.51"/><polygon class="cls-51" points="583.27 959.97 561.38 963.04 561.38 963.04 561.38 963.04 583.27 959.97"/><polygon class="cls-52" points="657.71 980.32 648.95 988.54 657.71 980.32 657.71 980.32"/><polygon class="cls-53" points="639.61 969.49 648.95 960.73 639.61 969.49 639.61 969.49"/><polygon class="cls-54" points="639.61 969.49 648.95 960.73 657.71 952.51 657.71 952.51 657.71 980.32 657.71 980.32 657.71 980.32 648.95 988.54 639.61 997.3 639.61 969.49"/><polygon class="cls-20" points="639.61 969.49 648.95 960.73 657.71 952.51 657.71 952.51 657.71 980.32 657.71 980.32 657.71 980.32 648.95 988.54 639.61 997.3 639.61 969.49"/><path class="cls-55" d="M607.56,961.89a188.62,188.62,0,0,0,32.05,7.6V997.3h0v.08l-1.27-.3a188.22,188.22,0,0,1-29.61-7l-1.17-.28V966.49h0Z"/><path class="cls-2" d="M607.56,961.89a188.62,188.62,0,0,0,32.05,7.6V997.3h0v.08l-1.27-.3a188.22,188.22,0,0,1-29.61-7l-1.17-.28V966.49h0Z"/><polygon class="cls-56" points="594.93 958.34 594.93 958.34 583.27 959.97 594.93 958.34 594.93 958.34"/><polygon class="cls-57" points="561.38 935.23 594.93 930.53 594.93 958.34 594.93 958.34 583.27 959.97 561.38 963.04 561.38 935.23"/><polygon class="cls-20" points="561.38 935.23 594.93 930.53 594.93 958.34 594.93 958.34 583.27 959.97 561.38 963.04 561.38 935.23"/><path class="cls-58" d="M548.22,916.73h0a62,62,0,0,0,13.16,18.5h0V963h0a62,62,0,0,1-13.16-18.51V916.73Z"/><path class="cls-2" d="M548.22,916.73h0a62,62,0,0,0,13.16,18.5h0V963h0a62,62,0,0,1-13.16-18.51V916.73Z"/><path class="cls-59" d="M577.72,889.26l-.22,1.06a32.7,32.7,0,0,0,.13,16l-15.19,5.39-14-4.94V878.92l29.29,10.34Z"/><path class="cls-60" d="M706.23,878.27c-9.23-5.33-21.36-8-33.49-7.92s-24.26,2.59-33.48,7.92-13.68,12.23-13.65,19.19c-.09,4.92,2.09,9.84,6.58,14.19a36.56,36.56,0,0,1,7.28-5.46c9.21-5.31,21.24-8,33.27-8s24.07,2.73,33.28,8a36.49,36.49,0,0,1,7.27,5.46c4.5-4.35,6.67-9.27,6.59-14.19C719.91,890.5,715.4,883.56,706.23,878.27Z"/><path class="cls-4" d="M1199.82,675.13l-253-146.08c-28.54-16.48-78.39-14.41-111.35,4.61l-595,343.51c-33,19-36.54,47.81-8,64.29l253,146.08C514,1104,563.86,1102,596.82,1082.92l595-343.5C1224.79,720.39,1228.37,691.61,1199.82,675.13Zm-26.22,55.06L580.87,1072.4c-24.18,14-60.77,15.47-81.71,3.38L252.85,933.58c-20.94-12.1-18.32-33.22,5.86-47.18L851.44,544.19c24.19-14,60.77-15.48,81.71-3.39L1179.46,683C1200.4,695.1,1197.78,716.22,1173.6,730.19Z"/><path class="cls-6" d="M1219.09,701.52a8.25,8.25,0,0,0-.47-3.07c2.55,13.93-6.55,29.29-26.79,41l-595,343.5c-33,19-82.81,21.1-111.35,4.62l-253-146.08c-12.32-7.11-18.62-16.51-19.2-26.43-.06,4.24-.08,19.82-.07,20.62.17,10.31,6.51,20.13,19.27,27.49l253,146.08c28.54,16.48,78.39,14.41,111.35-4.62l595-343.5c17-9.79,26.14-22.17,27.17-34.12C1219.07,726.07,1219.11,702.41,1219.09,701.52Z"/><path class="cls-4" d="M232.49,938.61l253,146.09c28.54,16.47,78.4,14.41,111.35-4.62l595-343.51c17.35-10,26.54-22.73,27.21-34.93.72,13-8.51,27-27.21,37.78l-595,343.5c-33,19-82.81,21.1-111.35,4.62l-253-146.08c-13.52-7.81-19.82-18.37-19.22-29.35C213.82,922.05,220.14,931.48,232.49,938.61Z"/><path class="cls-6" d="M1176.8,687.63,930.48,545.42c-8.31-4.8-20-7.45-32.82-7.45-15.75,0-31.62,3.95-43.55,10.84L583.82,704.86,894.24,885.31l276.69-159.74c11-6.36,17.34-14.41,17.34-22.07S1182,690.65,1176.8,687.63ZM261.38,891c-11,6.36-17.34,14.4-17.34,22.07s6.24,12.85,11.47,15.87l246.32,142.21c8.31,4.8,20,7.45,32.82,7.45,15.75,0,31.62-3.95,43.55-10.84l131.67-76L399.45,811.3Z"/><polygon class="cls-5" points="583.82 704.86 894.24 885.31 894.24 887.86 583.49 707.52 583.82 704.86"/><path class="cls-61" d="M806.94,635l61.24,35.36c16.92,9.77,46.47,8.54,66-2.73l51-29.45c19.53-11.28,21.66-28.34,4.74-38.1L928.68,564.7c-16.92-9.77-46.47-8.54-66,2.74l-51,29.44C792.15,608.16,790,625.22,806.94,635Z"/><path class="cls-61" d="M1135.17,684l-61.24-35.36c-16.91-9.77-46.46-8.54-66,2.74l-51,29.44c-19.54,11.28-21.66,28.34-4.74,38.1l61.24,35.36c16.91,9.77,46.46,8.54,66-2.73l51-29.45C1150,710.84,1152.09,693.78,1135.17,684Z"/><path class="cls-4" d="M661.84,718.5l61.24,35.35c16.91,9.77,46.46,8.54,66-2.73l51-29.45c19.54-11.28,21.66-28.34,4.74-38.1l-61.24-35.36c-16.92-9.77-46.46-8.54-66,2.74l-51,29.44C647,691.67,644.92,708.73,661.84,718.5Z"/><path class="cls-4" d="M990.07,767.53l-61.24-35.36c-16.92-9.77-46.47-8.54-66,2.74l-51,29.44c-19.54,11.28-21.66,28.34-4.74,38.1l61.24,35.36c16.92,9.77,46.47,8.54,66-2.73l51-29.45C1004.86,794.35,1007,777.29,990.07,767.53Z"/><path class="cls-4" d="M483.52,891.46,422.28,856.1c-16.91-9.77-46.46-8.54-66,2.74l-51,29.44c-19.54,11.28-21.66,28.34-4.74,38.1l61.24,35.36c16.92,9.77,46.46,8.54,66-2.74l51-29.44C498.32,918.28,500.44,901.22,483.52,891.46Z"/><path class="cls-4" d="M628.78,975.42l-61.24-35.36c-16.92-9.77-46.47-8.54-66,2.73l-51,29.45c-19.53,11.28-21.65,28.34-4.74,38.1L507,1045.7c16.92,9.77,46.47,8.54,66-2.74l51-29.44C643.57,1002.24,645.69,985.18,628.78,975.42Z"/><path class="cls-62" d="M811.68,606.65l51-29.44c19.53-11.28,49.08-12.5,66-2.74l61.24,35.36c5.66,3.27,9.13,7.35,10.59,11.76,2.52-7.93-.89-15.93-10.59-21.53L928.68,564.7c-16.92-9.77-46.47-8.54-66,2.74l-51,29.44c-13,7.51-18.24,17.57-15.33,26.34C798.22,617.32,803.35,611.46,811.68,606.65Z"/><path class="cls-62" d="M941.6,707.18c1.87-5.9,7-11.76,15.34-16.57l51-29.44c19.53-11.28,49.08-12.5,66-2.74l61.24,35.36c5.66,3.26,9.14,7.35,10.6,11.76,2.51-7.93-.89-15.93-10.6-21.53l-61.24-35.36c-16.91-9.77-46.46-8.54-66,2.74l-51,29.44C943.93,688.35,938.7,698.41,941.6,707.18Z"/><path class="cls-5" d="M666.57,690.16l51-29.44c19.54-11.28,49.08-12.5,66-2.74l61.24,35.36c5.66,3.27,9.14,7.36,10.6,11.76,2.51-7.93-.9-15.93-10.6-21.53l-61.24-35.36c-16.92-9.77-46.46-8.54-66,2.74l-51,29.44c-13,7.51-18.24,17.57-15.33,26.34C653.11,700.83,658.24,695,666.57,690.16Z"/><path class="cls-5" d="M305.29,898.05l51-29.44c19.53-11.28,49.08-12.5,66-2.74l61.24,35.36c5.66,3.26,9.14,7.35,10.6,11.76,2.52-7.93-.89-15.93-10.6-21.53L422.28,856.1c-16.91-9.77-46.46-8.54-66,2.74l-51,29.44c-13,7.51-18.24,17.57-15.34,26.34C291.82,908.72,297,902.86,305.29,898.05Z"/><path class="cls-5" d="M990.07,767.53l-61.24-35.36c-16.92-9.77-46.47-8.54-66,2.74l-51,29.44c-13,7.51-18.24,17.57-15.34,26.34,1.88-5.9,7-11.76,15.34-16.57l51-29.44c19.53-11.28,49.08-12.5,66-2.74l61.24,35.36c5.65,3.27,9.13,7.35,10.59,11.76C1003.18,781.13,999.77,773.13,990.07,767.53Z"/><path class="cls-5" d="M628.78,975.42l-61.24-35.36c-16.92-9.77-46.47-8.54-66,2.73l-51,29.45c-13,7.51-18.24,17.57-15.33,26.34,1.87-5.9,7-11.76,15.33-16.57l51-29.44c19.53-11.28,49.08-12.51,66-2.74l61.24,35.36c5.66,3.26,9.13,7.35,10.59,11.76C641.89,989,638.48,981,628.78,975.42Z"/><path class="cls-63" d="M868.91,660.43l-60.82-35.11c-16.8-9.7-14.69-26.64,4.71-37.84l50.64-29.24c19.4-11.2,48.75-12.42,65.55-2.72l60.82,35.11c16.8,9.7,14.69,26.65-4.71,37.85l-50.65,29.24C915.05,668.92,885.71,670.13,868.91,660.43Z"/><path class="cls-64" d="M796.83,607.84h0v.79A4.17,4.17,0,0,1,796.83,607.84Z"/><path class="cls-20" d="M985.1,628.48l-50.65,29.24c-19.4,11.2-48.74,12.41-65.54,2.71l-60.82-35.11c-7.23-4.17-10.93-9.69-11.29-15.51v8.5c-.46,6.55,3.23,12.87,11.29,17.52l60.82,35.11c16.8,9.7,46.14,8.49,65.54-2.71L985.1,639c10-5.78,15.42-13.11,16-20.17h0v-.15a15.57,15.57,0,0,0,0-2.16v-8.66h0C1000.71,615.05,995.34,622.56,985.1,628.48Z"/><path class="cls-64" d="M796.83,607.84h0v.79A4.17,4.17,0,0,1,796.83,607.84Z"/><path class="cls-2" d="M868.91,660.43l-60.82-35.11c-7.23-4.17-10.93-9.69-11.29-15.51v8.5c-.46,6.55,3.23,12.87,11.29,17.52l60.82,35.11Z"/><path class="cls-65" d="M985.1,625.81l-50.65,29.24c-19.4,11.2-48.74,12.42-65.54,2.72l-60.82-35.11c-7.07-4.09-10.75-9.46-11.24-15.15-.59,6.66,3.07,13.09,11.24,17.81l60.82,35.11c16.8,9.7,46.14,8.49,65.54-2.71l50.65-29.24c11.23-6.49,16.62-14.89,15.95-22.7C1000.43,612.8,995.06,620.06,985.1,625.81Z"/><path class="cls-65" d="M947.56,607.57l-53.91-31.13a13.22,13.22,0,0,0-11.94,0L850.09,594.7c-3.29,1.9-3.28,5,0,6.89L883.82,621l.1,19.39,16.74-9.67,3.37,2a13.22,13.22,0,0,0,11.94,0l31.63-18.26C950.89,612.56,950.87,609.48,947.56,607.57ZM884.64,600c-3.5,0-6.35-1.65-6.36-3.67s2.82-3.65,6.32-3.64,6.34,1.65,6.35,3.67S888.13,600,884.64,600Zm14.6,8.43c-3.5,0-6.35-1.65-6.36-3.67s2.82-3.65,6.32-3.64,6.34,1.65,6.35,3.67-2.82,3.66-6.31,3.65Zm14.6,8.43c-3.5,0-6.35-1.65-6.36-3.67s2.82-3.65,6.32-3.64,6.34,1.65,6.35,3.67-2.82,3.66-6.31,3.65Z"/><path class="cls-66" d="M1013.57,743.65l-60.82-35.11c-16.8-9.7-14.69-26.65,4.71-37.85l50.65-29.24c19.4-11.2,48.74-12.41,65.54-2.71l60.82,35.11c16.8,9.7,14.69,26.64-4.71,37.84l-50.64,29.24C1059.72,752.13,1030.37,753.35,1013.57,743.65Z"/><path class="cls-67" d="M941.49,691.06h0v0Z"/><path class="cls-67" d="M1129.76,711.69l-50.65,29.24c-19.39,11.2-48.74,12.42-65.54,2.72l-60.82-35.11c-7.22-4.18-10.93-9.69-11.29-15.51v8.49c-.46,6.55,3.24,12.87,11.29,17.52l60.82,35.12c16.8,9.7,46.15,8.48,65.54-2.72l50.65-29.24c10-5.79,15.42-13.11,16-20.17h0v-.15a15.57,15.57,0,0,0,0-2.16v-8.66h0C1145.38,698.26,1140,705.78,1129.76,711.69Z"/><path class="cls-67" d="M941.49,691.06h0v0Z"/><path class="cls-67" d="M1013.57,743.65l-60.82-35.11c-7.22-4.18-10.93-9.69-11.29-15.51v8.49c-.46,6.55,3.24,12.87,11.29,17.52l60.82,35.12Z"/><path class="cls-65" d="M1129.76,709l-50.65,29.24c-19.39,11.2-48.74,12.41-65.54,2.71l-60.82-35.11c-7.07-4.08-10.75-9.46-11.24-15.14-.59,6.65,3.07,13.09,11.24,17.81l60.82,35.11c16.8,9.7,46.15,8.48,65.54-2.72l50.65-29.24c11.23-6.48,16.63-14.89,16-22.7C1145.09,696,1139.72,703.27,1129.76,709Z"/><path class="cls-68" d="M723.51,695.67l-60.82-35.11c-16.8-9.7-14.7-26.64,4.7-37.84L718,593.48c19.4-11.2,48.74-12.42,65.54-2.72l60.82,35.11c16.8,9.7,14.7,26.65-4.7,37.85L789.05,693C769.65,704.16,740.31,705.37,723.51,695.67Z"/><path class="cls-64" d="M651.43,643.08h0v.79A4.17,4.17,0,0,1,651.43,643.08Z"/><path class="cls-64" d="M839.7,663.72,789.05,693c-19.4,11.2-48.74,12.41-65.54,2.71L662.69,660.6c-7.23-4.17-10.94-9.69-11.29-15.51V664.4c-.47,6.55,3.23,12.87,11.29,17.52L723.51,717c16.8,9.7,46.14,8.48,65.54-2.72L839.7,685c10-5.79,15.42-13.11,16-20.17h0v-.15a15.57,15.57,0,0,0,0-2.16V643.08h0C855.31,650.29,849.94,657.8,839.7,663.72Z"/><path class="cls-64" d="M651.43,643.08h0v.79A4.17,4.17,0,0,1,651.43,643.08Z"/><path class="cls-69" d="M723.51,695.67l-60.82-35.11c-7.23-4.17-10.94-9.69-11.29-15.51v19.31c-.47,6.55,3.23,12.87,11.29,17.52L723.51,717Z"/><path class="cls-65" d="M839.7,661.05l-50.65,29.24c-19.4,11.2-48.74,12.42-65.54,2.72L662.69,657.9c-7.08-4.09-10.76-9.46-11.25-15.15-.59,6.66,3.07,13.09,11.25,17.81l60.82,35.11c16.8,9.7,46.14,8.49,65.54-2.71l50.65-29.24c11.23-6.49,16.62-14.89,15.95-22.7C855,648,849.66,655.3,839.7,661.05Z"/><path class="cls-65" d="M747.35,673.87,699.11,646c-2.47-1.43-2.48-3.75,0-5.16l9-5.2c5.72-3.3,14.54-3.89,21.46-1.44a43.57,43.57,0,0,0,13.85,2.42A5.32,5.32,0,0,0,746,636a2,2,0,0,0,1.16-1.61,12.92,12.92,0,0,1,2.12-6.92c-1.32-1.66-1.43-3.93,1-5.31a12.46,12.46,0,0,1,7.5-1.46c11.53-5.78,22.61-5.68,32.94.28s10.49,12.36.48,19c.59,1.39-.35,3.07-2.53,4.33-2.39,1.37-6.32,1.31-9.2.55a58.32,58.32,0,0,1-12,1.22,5.6,5.6,0,0,0-2.78.67,1.73,1.73,0,0,0-1,1.47c.12,2.78,1.57,5.54,4.18,8,4.26,4,3.24,9.09-2.48,12.39l-9,5.2A9.9,9.9,0,0,1,747.35,673.87Z"/><path class="cls-70" d="M859.69,671.05a1.78,1.78,0,0,1-1.77-1.78V639.41L752.19,539.68a1.78,1.78,0,0,1,2.42-2.6l0,0L861.47,637.87v31.4A1.78,1.78,0,0,1,859.69,671.05Z"/><path class="cls-71" d="M766.86,501.27c0-7.66-5.41-17-12.09-20.86-3.44-2-6.53-2.11-8.74-.74l-3.6,2.06,2.37,4v.67c0,7.67,5.42,17,12.1,20.86.31.18.61.33.92.48l2,3.3,2.55-1.56C765.07,508.55,766.86,505.67,766.86,501.27Z"/><path class="cls-5" d="M763.45,503.24c0,7.66-5.41,10.75-12.09,6.89s-12.09-13.19-12.09-20.85,5.41-10.75,12.09-6.9S763.45,495.58,763.45,503.24Z"/><path class="cls-5" d="M774.16,373.34c0-11-7.76-24.37-17.33-29.9-4.93-2.85-9.37-3-12.53-1.07l-5.16,3,3.39,5.74v1c0,11,7.76,24.37,17.34,29.9.44.26.88.47,1.32.69l2.79,4.73,3.67-2.24C771.59,383.78,774.16,379.65,774.16,373.34Z"/><path class="cls-5" d="M769.27,376.16c0,11-7.76,15.41-17.33,9.89s-17.34-18.92-17.34-29.9,7.76-15.41,17.34-9.89S769.27,365.18,769.27,376.16Z"/><path class="cls-70" d="M754.34,511.44a13.2,13.2,0,0,1-6.54-2c-7.39-4.27-13.46-14.67-13.52-23.19l-6.34-124.93c-.05-.63-.09-1.41-.09-2.17,0-9.27,4.83-15.26,12.3-15.26a19,19,0,0,1,9.42,2.85c11,6.35,19.95,21.79,19.95,34.41a16.28,16.28,0,0,1-.1,2.23L763.09,501C763.05,507.32,759.61,511.44,754.34,511.44ZM740.15,347.49c-5.39,0-8.74,4.48-8.74,11.7a17.42,17.42,0,0,0,.07,1.94l6.35,125.06c.06,7.34,5.43,16.56,11.74,20.21a9.87,9.87,0,0,0,4.77,1.49c3.22,0,5.17-2.6,5.2-7l6.34-117.76c.06-.68.09-1.32.09-2,0-11.49-8.15-25.54-18.17-31.33A15.8,15.8,0,0,0,740.15,347.49Z"/><path class="cls-72" d="M759.19,547.32c-6.13-3.54-11.1-9.35-11.1-16.21,0-9.37,9.11-5.58,9.11-10.19V511.1l-6.84-3.94v10.49c-5.77-1-9.77,3.36-9,11.41.71,7.53,5.77,16.25,12,20.64,4.73,3.36,9,3.69,11.86,1.62.69-.5-.21-2.41-1.15-2.44A10.56,10.56,0,0,1,759.19,547.32Z"/><path class="cls-70" d="M757.44,548c-6.13-3.54-11.11-9.35-11.11-16.21,0-9.36,9.12-5.57,9.12-10.19v-9.82l-6.84-3.94v10.49c-5.77-1-9.77,3.36-9,11.41.71,7.53,5.77,16.25,12,20.65,4.73,3.35,9,3.68,11.86,1.61.69-.5-.21-2.41-1.15-2.44A10.56,10.56,0,0,1,757.44,548Z"/><path class="cls-71" d="M765.46,378.1c0-11-7.76-24.37-17.34-29.9-4.93-2.85-9.36-3-12.52-1.07l-5.17,3,3.39,5.74v1c0,11,7.76,24.38,17.33,29.9.45.26.89.47,1.32.69l2.8,4.73,3.66-2.24C762.89,388.54,765.46,384.41,765.46,378.1Z"/><ellipse class="cls-5" cx="743.23" cy="370.93" rx="14.11" ry="24.44" transform="translate(-85.6 425.8) rotate(-30.31)"/><path class="cls-70" d="M752.86,376.48c0,6.1-4.31,8.56-9.63,5.49s-9.63-10.51-9.63-16.61,4.31-8.57,9.63-5.49S752.86,370.37,752.86,376.48Z"/><path class="cls-71" d="M760.79,504.59c0-7.66-5.41-17-12.09-20.85-3.44-2-6.53-2.12-8.74-.75l-3.6,2.06,2.36,4v.68c0,7.66,5.42,17,12.1,20.85.31.18.61.33.92.48l2,3.3,2.55-1.56C759,511.88,760.79,509,760.79,504.59Z"/><path class="cls-5" d="M757.38,506.56c0,7.67-5.41,10.75-12.09,6.9s-12.09-13.2-12.09-20.86,5.41-10.75,12.09-6.89S757.38,498.9,757.38,506.56Z"/><path class="cls-70" d="M752,503.46c0,4.26-3,6-6.72,3.83a14.8,14.8,0,0,1-6.72-11.59c0-4.25,3-6,6.72-3.83A14.8,14.8,0,0,1,752,503.46Z"/><path class="cls-70" d="M753.41,728a1.77,1.77,0,0,1-1.77-1.77h0V538.39a1.78,1.78,0,1,1,3.55-.27,1.22,1.22,0,0,1,0,.27V726.26A1.77,1.77,0,0,1,753.41,728Z"/><path class="cls-70" d="M647.41,671.05a1.78,1.78,0,0,1-1.77-1.78v-31.4l.56-.52L752.48,537.1a1.77,1.77,0,0,1,2.49,0l0,0a1.78,1.78,0,0,1-.07,2.51L649.19,639.41v29.86a1.78,1.78,0,0,1-1.78,1.78Z"/><polygon class="cls-20" points="299.71 199.91 374.55 156.88 374.55 142.37 299.71 185.4 299.71 199.91"/><polygon class="cls-2" points="255.76 174.03 299.75 199.91 299.75 185.4 255.76 159.58 255.76 174.03"/><polygon class="cls-73" points="255.76 159.58 299.75 185.4 374.55 142.37 330.48 116.5 255.76 159.58"/><polygon class="cls-20" points="299.71 181.56 374.55 138.53 374.55 124.02 299.71 167.05 299.71 181.56"/><polygon class="cls-2" points="255.76 155.68 299.75 181.56 299.75 167.05 255.76 141.23 255.76 155.68"/><polygon class="cls-73" points="255.76 141.23 299.75 167.05 374.55 124.02 330.48 98.15 255.76 141.23"/><polygon class="cls-20" points="299.71 163.66 374.55 120.64 374.55 106.13 299.71 149.16 299.71 163.66"/><polygon class="cls-2" points="255.76 137.79 299.75 163.66 299.75 149.16 255.76 123.34 255.76 137.79"/><polygon class="cls-73" points="255.76 123.34 299.75 149.16 374.55 106.13 330.48 80.26 255.76 123.34"/><polygon class="cls-20" points="299.71 144.96 374.55 101.93 374.55 87.42 299.71 130.45 299.71 144.96"/><polygon class="cls-2" points="255.76 119.08 299.75 144.96 299.75 130.45 255.76 104.63 255.76 119.08"/><polygon class="cls-73" points="255.76 104.63 299.75 130.45 374.55 87.42 330.48 61.55 255.76 104.63"/><polygon class="cls-71" points="412.38 737.93 536.02 666.84 536.02 655.48 412.38 726.57 412.38 737.93"/><polygon class="cls-5" points="290.54 666.84 412.45 737.93 412.45 726.57 290.54 655.57 290.54 666.84"/><polygon class="cls-4" points="290.54 655.57 412.45 726.57 536.02 655.48 413.98 584.41 290.54 655.57"/><polygon class="cls-65" points="290.54 655.57 412.45 726.57 536.02 655.48 412.86 724.15 290.54 655.57"/><polygon class="cls-71" points="412.74 701.18 487.57 658.15 487.57 643.64 412.74 686.67 412.74 701.18"/><polygon class="cls-5" points="338.98 658.15 412.78 701.18 412.78 686.67 338.98 643.7 338.98 658.15"/><polygon class="cls-4" points="338.98 643.7 412.78 686.67 487.57 643.64 413.7 600.62 338.98 643.7"/><polygon class="cls-65" points="338.98 643.7 412.78 686.67 487.57 643.64 413.02 683.83 338.98 643.7"/><polygon class="cls-73" points="458.24 239.09 458.24 247.84 465.87 243.44 465.87 234.69 458.24 239.09"/><polygon class="cls-74" points="458.26 239.09 458.26 247.84 412.56 221.42 412.56 212.7 458.26 239.09"/><polygon class="cls-75" points="412.56 212.7 458.26 239.09 465.87 234.69 420.13 208.28 412.56 212.7"/><polygon class="cls-73" points="458.24 309.56 458.24 318.31 465.87 313.92 465.87 305.17 458.24 309.56"/><polygon class="cls-71" points="458.26 309.56 458.26 318.31 412.56 291.9 412.56 283.17 458.26 309.56"/><polygon class="cls-5" points="412.56 283.17 458.26 309.56 465.87 305.17 420.13 278.75 412.56 283.17"/><polygon class="cls-73" points="458.24 379.76 458.24 388.51 465.87 384.12 465.87 375.37 458.24 379.76"/><polygon class="cls-71" points="458.26 379.76 458.26 388.51 412.56 362.1 412.56 353.37 458.26 379.76"/><polygon class="cls-5" points="412.56 353.37 458.26 379.76 465.87 375.37 420.13 348.95 412.56 353.37"/><polygon class="cls-73" points="458.24 449.72 458.24 458.47 465.87 454.08 465.87 445.33 458.24 449.72"/><polygon class="cls-5" points="458.26 449.72 458.26 458.47 412.56 432.06 412.56 423.33 458.26 449.72"/><polygon class="cls-76" points="412.56 423.33 458.26 449.72 465.87 445.33 420.13 418.91 412.56 423.33"/><polygon class="cls-73" points="458.24 520.2 458.24 528.95 465.87 524.55 465.87 515.8 458.24 520.2"/><polygon class="cls-5" points="458.26 520.2 458.26 528.95 412.56 502.53 412.56 493.81 458.26 520.2"/><polygon class="cls-76" points="412.56 493.81 458.26 520.2 465.87 515.8 420.13 489.39 412.56 493.81"/><polygon class="cls-73" points="458.24 590.4 458.24 599.15 465.87 594.75 465.87 586 458.24 590.4"/><polygon class="cls-71" points="458.26 590.4 458.26 599.15 412.56 572.73 412.56 564.01 458.26 590.4"/><polygon class="cls-4" points="412.56 564.01 458.26 590.4 465.87 586 420.13 559.59 412.56 564.01"/><polygon class="cls-73" points="367.12 169.13 367.12 177.88 359.49 173.48 359.49 164.73 367.12 169.13"/><polygon class="cls-73" points="367.1 169.13 367.1 177.88 412.81 151.46 412.81 142.74 367.1 169.13"/><polygon class="cls-75" points="412.81 142.74 367.1 169.13 359.49 164.73 405.24 138.32 412.81 142.74"/><polygon class="cls-73" points="458.24 169.13 458.24 177.88 465.87 173.48 465.87 164.73 458.24 169.13"/><polygon class="cls-74" points="458.26 169.13 458.26 177.88 412.56 151.46 412.56 142.74 458.26 169.13"/><polygon class="cls-75" points="412.56 142.74 458.26 169.13 465.87 164.73 420.13 138.32 412.56 142.74"/><polygon class="cls-5" points="465.88 78.03 465.88 648.42 473.52 644.03 473.52 73.63 465.88 78.03"/><polygon class="cls-71" points="465.9 78.03 465.9 648.42 458.33 644.03 458.33 73.66 465.9 78.03"/><polygon class="cls-75" points="458.33 73.66 465.9 78.03 473.52 73.63 465.9 69.24 458.33 73.66"/><polygon class="cls-73" points="420.19 200.31 420.19 209.06 412.56 204.67 412.56 195.92 420.19 200.31"/><polygon class="cls-73" points="420.17 200.31 420.17 209.06 465.87 182.65 465.87 173.93 420.17 200.31"/><polygon class="cls-75" points="465.87 173.93 420.17 200.31 412.56 195.92 458.3 169.51 465.87 173.93"/><polygon class="cls-73" points="277.72 84.16 277.72 92.91 270.09 88.52 270.09 79.77 277.72 84.16"/><polygon class="cls-73" points="277.7 84.16 277.7 92.91 302.61 77.94 302.61 69.22 277.7 84.16"/><polygon class="cls-77" points="302.61 69.22 277.7 84.16 270.09 79.77 295.04 64.8 302.61 69.22"/><polygon class="cls-71" points="302.59 40.01 302.59 69.17 310.22 64.78 310.22 35.61 302.59 40.01"/><polygon class="cls-5" points="302.61 40.01 302.61 69.17 295.04 64.78 295.04 35.63 302.61 40.01"/><polygon class="cls-75" points="295.04 35.63 302.61 40.01 310.22 35.61 302.61 31.22 295.04 35.63"/><polygon class="cls-71" points="801.5 358.44 801.5 367.19 809.13 362.8 809.13 354.05 801.5 358.44"/><polygon class="cls-5" points="801.52 358.44 801.52 367.19 294.3 72.92 294.3 64.19 801.52 358.44"/><polygon class="cls-71" points="294.3 64.19 801.52 358.44 809.13 354.05 301.87 59.78 294.3 64.19"/><polygon class="cls-73" points="365.55 134.72 365.55 143.47 357.92 139.08 357.92 130.33 365.55 134.72"/><polygon class="cls-73" points="365.53 134.72 365.53 143.47 390.44 128.5 390.44 119.77 365.53 134.72"/><polygon class="cls-75" points="390.44 119.77 365.53 134.72 357.92 130.33 382.87 115.36 390.44 119.77"/><polygon class="cls-71" points="390.42 90.89 390.42 120.06 398.05 115.66 398.05 86.5 390.42 90.89"/><polygon class="cls-5" points="390.44 90.89 390.44 120.06 382.87 115.66 382.87 86.52 390.44 90.89"/><polygon class="cls-75" points="382.87 86.52 390.44 90.89 398.05 86.5 390.44 82.1 382.87 86.52"/><polygon class="cls-73" points="321.77 109.65 321.77 118.4 314.14 114 314.14 105.25 321.77 109.65"/><polygon class="cls-73" points="321.75 109.65 321.75 118.4 346.66 103.42 346.66 94.7 321.75 109.65"/><polygon class="cls-75" points="346.66 94.7 321.75 109.65 314.14 105.25 339.09 90.28 346.66 94.7"/><polygon class="cls-71" points="346.64 65.49 346.64 94.66 354.27 90.26 354.27 61.09 346.64 65.49"/><polygon class="cls-5" points="346.66 65.49 346.66 94.66 339.09 90.26 339.09 61.12 346.66 65.49"/><polygon class="cls-75" points="339.09 61.12 346.66 65.49 354.27 61.09 346.66 56.7 339.09 61.12"/><polygon class="cls-73" points="672.57 312.97 672.57 321.72 664.93 317.32 664.93 308.57 672.57 312.97"/><polygon class="cls-71" points="672.54 312.97 672.54 321.72 697.45 306.75 697.45 298.02 672.54 312.97"/><polygon class="cls-71" points="697.45 298.02 672.54 312.97 664.93 308.57 689.88 293.6 697.45 298.02"/><polygon class="cls-73" points="628.78 287.89 628.78 296.64 621.15 292.25 621.15 283.5 628.78 287.89"/><polygon class="cls-71" points="628.76 287.89 628.76 296.64 653.67 281.67 653.67 272.94 628.76 287.89"/><polygon class="cls-71" points="653.67 272.94 628.76 287.89 621.15 283.5 646.1 268.52 653.67 272.94"/><polygon class="cls-71" points="653.65 244.06 653.65 273.23 661.28 268.83 661.28 239.66 653.65 244.06"/><polygon class="cls-5" points="653.67 244.06 653.67 273.23 646.1 268.83 646.1 239.69 653.67 244.06"/><polygon class="cls-75" points="646.1 239.69 653.67 244.06 661.28 239.66 653.67 235.27 646.1 239.69"/><polygon class="cls-73" points="584.73 262.41 584.73 271.16 577.1 266.76 577.1 258.01 584.73 262.41"/><polygon class="cls-71" points="584.71 262.41 584.71 271.16 609.62 256.19 609.62 247.46 584.71 262.41"/><polygon class="cls-71" points="609.62 247.46 584.71 262.41 577.1 258.01 602.05 243.04 609.62 247.46"/><polygon class="cls-71" points="609.6 218.57 609.6 247.74 617.23 243.35 617.23 214.18 609.6 218.57"/><polygon class="cls-5" points="609.62 218.57 609.62 247.74 602.05 243.35 602.05 214.21 609.62 218.57"/><polygon class="cls-75" points="602.05 214.21 609.62 218.57 617.23 214.18 609.62 209.79 602.05 214.21"/><polygon class="cls-73" points="540.95 236.66 540.95 245.4 533.32 241.01 533.32 232.26 540.95 236.66"/><polygon class="cls-71" points="540.93 236.66 540.93 245.4 565.84 230.43 565.84 221.71 540.93 236.66"/><polygon class="cls-71" points="565.84 221.71 540.93 236.66 533.32 232.26 558.27 217.29 565.84 221.71"/><polygon class="cls-71" points="565.82 192.82 565.82 221.99 573.45 217.59 573.45 188.43 565.82 192.82"/><polygon class="cls-5" points="565.84 192.82 565.84 221.99 558.27 217.59 558.27 188.45 565.84 192.82"/><polygon class="cls-75" points="558.27 188.45 565.84 192.82 573.45 188.43 565.84 184.03 558.27 188.45"/><polygon class="cls-73" points="496.9 211.17 496.9 219.92 489.27 215.53 489.27 206.78 496.9 211.17"/><polygon class="cls-71" points="496.88 211.17 496.88 219.92 521.78 204.95 521.78 196.22 496.88 211.17"/><polygon class="cls-71" points="521.78 196.22 496.88 211.17 489.27 206.78 514.22 191.81 521.78 196.22"/><polygon class="cls-71" points="521.77 167.34 521.77 196.5 529.4 192.11 529.4 162.94 521.77 167.34"/><polygon class="cls-5" points="521.79 167.34 521.79 196.5 514.22 192.11 514.22 162.97 521.79 167.34"/><polygon class="cls-75" points="514.22 162.97 521.79 167.34 529.4 162.94 521.79 158.55 514.22 162.97"/><polygon class="cls-71" points="453.12 186.09 453.12 194.84 445.48 190.45 445.48 181.7 453.12 186.09"/><polygon class="cls-71" points="453.1 186.09 453.1 194.84 478 179.87 478 171.15 453.1 186.09"/><polygon class="cls-71" points="478 171.15 453.1 186.09 445.48 181.7 470.43 166.73 478 171.15"/><polygon class="cls-71" points="477.99 142.26 477.99 171.43 485.62 167.03 485.62 137.87 477.99 142.26"/><polygon class="cls-5" points="478 142.26 478 171.43 470.44 167.03 470.44 137.89 478 142.26"/><polygon class="cls-75" points="470.44 137.89 478 142.26 485.62 137.87 478 133.47 470.44 137.89"/><polygon class="cls-73" points="409.06 160.61 409.06 169.36 401.43 164.97 401.43 156.22 409.06 160.61"/><polygon class="cls-73" points="409.04 160.61 409.04 169.36 433.95 154.39 433.95 145.66 409.04 160.61"/><polygon class="cls-75" points="433.95 145.66 409.04 160.61 401.43 156.22 426.38 141.25 433.95 145.66"/><polygon class="cls-71" points="433.93 116.78 433.93 145.95 441.56 141.55 441.56 112.39 433.93 116.78"/><polygon class="cls-5" points="433.95 116.78 433.95 145.95 426.38 141.55 426.38 112.41 433.95 116.78"/><polygon class="cls-75" points="426.38 112.41 433.95 116.78 441.56 112.39 433.95 107.99 426.38 112.41"/><polygon class="cls-73" points="716.62 338.45 716.62 347.2 708.99 342.81 708.99 334.06 716.62 338.45"/><polygon class="cls-71" points="716.6 338.45 716.6 347.2 741.51 332.23 741.51 323.5 716.6 338.45"/><polygon class="cls-71" points="741.51 323.5 716.6 338.45 708.99 334.06 733.94 319.08 741.51 323.5"/><polygon class="cls-71" points="769.37 377.56 769.37 386.31 777 381.91 777 373.16 769.37 377.56"/><polygon class="cls-5" points="769.39 377.56 769.39 386.31 262.72 92.58 262.72 83.85 769.39 377.56"/><polygon class="cls-77" points="262.72 83.85 769.39 377.56 777 373.16 270.29 79.43 262.72 83.85"/><polygon class="cls-71" points="741.49 294.62 741.49 323.78 749.12 319.39 749.12 290.22 741.49 294.62"/><polygon class="cls-5" points="741.51 294.62 741.51 323.78 733.94 319.39 733.94 290.25 741.51 294.62"/><polygon class="cls-75" points="733.94 290.25 741.51 294.62 749.12 290.22 741.51 285.83 733.94 290.25"/><polygon class="cls-73" points="766.93 300.7 766.93 309.45 774.56 305.06 774.56 296.31 766.93 300.7"/><polygon class="cls-5" points="766.95 300.7 766.95 309.45 294.84 35.24 294.84 26.51 766.95 300.7"/><polygon class="cls-71" points="294.84 26.51 766.95 300.7 774.56 296.31 302.41 22.09 294.84 26.51"/><polygon class="cls-71" points="776.6 373.22 776.6 381.97 768.97 377.57 768.97 368.82 776.6 373.22"/><polygon class="cls-71" points="776.58 373.22 776.58 381.97 801.49 367 801.49 358.27 776.58 373.22"/><polygon class="cls-5" points="801.49 358.27 776.58 373.22 768.97 368.82 793.91 353.85 801.49 358.27"/><polygon class="cls-71" points="766.83 300.81 801.5 358.42 809.13 354.02 774.46 296.42 766.83 300.81"/><polygon class="cls-71" points="766.85 300.81 801.52 358.42 793.95 354.02 759.28 296.44 766.85 300.81"/><rect class="cls-70" x="527.68" y="-30.86" width="3.55" height="498.68" transform="translate(74.54 566.49) rotate(-59.84)"/><polygon class="cls-71" points="709.26 313.63 709.26 342.79 716.89 338.4 716.89 309.23 709.26 313.63"/><polygon class="cls-5" points="709.28 313.63 709.28 342.79 701.71 338.4 701.71 309.26 709.28 313.63"/><polygon class="cls-75" points="701.71 309.26 709.28 313.63 716.89 309.23 709.28 304.84 701.71 309.26"/><polygon class="cls-73" points="716.62 300.84 716.62 309.58 708.99 305.19 708.99 296.44 716.62 300.84"/><polygon class="cls-78" points="716.6 300.84 716.6 309.58 741.51 294.61 741.51 285.89 716.6 300.84"/><polygon class="cls-71" points="741.51 285.89 716.6 300.84 708.99 296.44 733.94 281.47 741.51 285.89"/><polygon class="cls-5" points="697.43 269.13 697.43 298.3 705.07 293.91 705.07 264.74 697.43 269.13"/><polygon class="cls-5" points="697.46 269.13 697.46 298.3 689.89 293.91 689.89 264.76 697.46 269.13"/><polygon class="cls-5" points="689.89 264.76 697.46 269.13 705.07 264.74 697.46 260.35 689.89 264.76"/><polygon class="cls-71" points="665.21 288.14 665.21 317.31 672.84 312.92 672.84 283.75 665.21 288.14"/><polygon class="cls-5" points="665.23 288.14 665.23 317.31 657.66 312.92 657.66 283.77 665.23 288.14"/><polygon class="cls-5" points="657.66 283.77 665.23 288.14 672.84 283.75 665.23 279.36 657.66 283.77"/><polygon class="cls-73" points="672.57 275.35 672.57 284.1 664.93 279.71 664.93 270.96 672.57 275.35"/><polygon class="cls-78" points="672.54 275.35 672.54 284.1 697.45 269.13 697.45 260.4 672.54 275.35"/><polygon class="cls-71" points="697.45 260.4 672.54 275.35 664.93 270.96 689.88 255.99 697.45 260.4"/><polygon class="cls-71" points="621.43 263.07 621.43 292.24 629.06 287.84 629.06 258.68 621.43 263.07"/><polygon class="cls-5" points="621.45 263.07 621.45 292.24 613.88 287.84 613.88 258.7 621.45 263.07"/><polygon class="cls-75" points="613.88 258.7 621.45 263.07 629.06 258.68 621.45 254.28 613.88 258.7"/><polygon class="cls-73" points="628.78 250.28 628.78 259.03 621.15 254.63 621.15 245.88 628.78 250.28"/><polygon class="cls-78" points="628.76 250.28 628.76 259.03 653.67 244.05 653.67 235.33 628.76 250.28"/><polygon class="cls-71" points="653.67 235.33 628.76 250.28 621.15 245.88 646.1 230.91 653.67 235.33"/><polygon class="cls-71" points="577.37 237.59 577.37 266.75 585.01 262.36 585.01 233.19 577.37 237.59"/><polygon class="cls-5" points="577.39 237.59 577.39 266.75 569.83 262.36 569.83 233.22 577.39 237.59"/><polygon class="cls-75" points="569.83 233.22 577.39 237.59 585.01 233.19 577.39 228.8 569.83 233.22"/><polygon class="cls-73" points="584.73 224.79 584.73 233.54 577.1 229.15 577.1 220.4 584.73 224.79"/><polygon class="cls-78" points="584.71 224.79 584.71 233.54 609.62 218.57 609.62 209.84 584.71 224.79"/><polygon class="cls-71" points="609.62 209.84 584.71 224.79 577.1 220.4 602.05 205.43 609.62 209.84"/><polygon class="cls-71" points="533.59 211.83 533.59 241 541.22 236.6 541.22 207.44 533.59 211.83"/><polygon class="cls-5" points="533.61 211.83 533.61 241 526.04 236.6 526.04 207.46 533.61 211.83"/><polygon class="cls-75" points="526.04 207.46 533.61 211.83 541.22 207.44 533.61 203.04 526.04 207.46"/><polygon class="cls-73" points="540.95 199.04 540.95 207.79 533.32 203.4 533.32 194.65 540.95 199.04"/><polygon class="cls-78" points="540.93 199.04 540.93 207.79 565.84 192.82 565.84 184.09 540.93 199.04"/><polygon class="cls-71" points="565.84 184.09 540.93 199.04 533.32 194.65 558.27 179.67 565.84 184.09"/><polygon class="cls-71" points="489.54 186.35 489.54 215.52 497.17 211.12 497.17 181.96 489.54 186.35"/><polygon class="cls-5" points="489.56 186.35 489.56 215.52 481.99 211.12 481.99 181.98 489.56 186.35"/><polygon class="cls-75" points="481.99 181.98 489.56 186.35 497.17 181.96 489.56 177.56 481.99 181.98"/><polygon class="cls-73" points="496.9 173.56 496.9 182.31 489.27 177.91 489.27 169.16 496.9 173.56"/><polygon class="cls-71" points="496.88 173.56 496.88 182.31 521.78 167.34 521.78 158.61 496.88 173.56"/><polygon class="cls-78" points="521.78 158.61 496.88 173.56 489.27 169.16 514.22 154.19 521.78 158.61"/><polygon class="cls-73" points="445.76 161.27 445.76 190.44 453.39 186.05 453.39 156.88 445.76 161.27"/><polygon class="cls-74" points="445.78 161.27 445.78 190.44 438.21 186.05 438.21 156.9 445.78 161.27"/><polygon class="cls-75" points="438.21 156.9 445.78 161.27 453.39 156.88 445.78 152.49 438.21 156.9"/><polygon class="cls-73" points="453.12 148.48 453.12 157.23 445.48 152.84 445.48 144.09 453.12 148.48"/><polygon class="cls-78" points="453.1 148.48 453.1 157.23 478 142.26 478 133.53 453.1 148.48"/><polygon class="cls-71" points="478 133.53 453.1 148.48 445.48 144.09 470.43 129.12 478 133.53"/><polygon class="cls-73" points="401.71 135.79 401.71 164.96 409.34 160.56 409.34 131.4 401.71 135.79"/><polygon class="cls-74" points="401.73 135.79 401.73 164.96 394.16 160.56 394.16 131.42 401.73 135.79"/><polygon class="cls-75" points="394.16 131.42 401.73 135.79 409.34 131.4 401.73 127 394.16 131.42"/><polygon class="cls-73" points="409.06 123 409.06 131.75 401.43 127.35 401.43 118.6 409.06 123"/><polygon class="cls-78" points="409.04 123 409.04 131.75 433.95 116.78 433.95 108.05 409.04 123"/><polygon class="cls-71" points="433.95 108.05 409.04 123 401.43 118.6 426.38 103.63 433.95 108.05"/><polygon class="cls-73" points="358.19 109.9 358.19 139.07 365.83 134.67 365.83 105.51 358.19 109.9"/><polygon class="cls-74" points="358.22 109.9 358.22 139.07 350.65 134.67 350.65 105.53 358.22 109.9"/><polygon class="cls-75" points="350.65 105.53 358.22 109.9 365.83 105.51 358.22 101.11 350.65 105.53"/><polygon class="cls-73" points="365.55 97.11 365.55 105.86 357.92 101.46 357.92 92.72 365.55 97.11"/><polygon class="cls-78" points="365.53 97.11 365.53 105.86 390.44 90.89 390.44 82.16 365.53 97.11"/><polygon class="cls-71" points="390.44 82.16 365.53 97.11 357.92 92.72 382.87 77.74 390.44 82.16"/><polygon class="cls-71" points="314.41 84.5 314.41 113.67 322.05 109.27 322.05 80.11 314.41 84.5"/><polygon class="cls-5" points="314.43 84.5 314.43 113.67 306.86 109.27 306.86 80.13 314.43 84.5"/><polygon class="cls-75" points="306.86 80.13 314.43 84.5 322.05 80.11 314.43 75.71 306.86 80.13"/><polygon class="cls-73" points="321.77 72.03 321.77 80.78 314.14 76.39 314.14 67.64 321.77 72.03"/><polygon class="cls-78" points="321.75 72.03 321.75 80.78 346.66 65.81 346.66 57.08 321.75 72.03"/><polygon class="cls-71" points="346.66 57.08 321.75 72.03 314.14 67.64 339.09 52.67 346.66 57.08"/><polygon class="cls-71" points="270.36 59.02 270.36 88.18 277.99 83.79 277.99 54.62 270.36 59.02"/><polygon class="cls-5" points="270.38 59.02 270.38 88.18 262.81 83.79 262.81 54.65 270.38 59.02"/><polygon class="cls-75" points="262.81 54.65 270.38 59.02 277.99 54.62 270.38 50.23 262.81 54.65"/><polygon class="cls-73" points="277.72 45.9 277.72 54.65 270.09 50.26 270.09 41.51 277.72 45.9"/><polygon class="cls-78" points="277.7 45.9 277.7 54.65 302.61 39.68 302.61 30.95 277.7 45.9"/><polygon class="cls-71" points="302.61 30.95 277.7 45.9 270.09 41.51 295.04 26.53 302.61 30.95"/><polygon class="cls-73" points="734.81 319.81 734.81 328.56 742.44 324.17 742.44 315.42 734.81 319.81"/><polygon class="cls-5" points="734.83 319.81 734.83 328.56 262.72 54.35 262.72 45.63 734.83 319.81"/><polygon class="cls-71" points="262.72 45.63 734.83 319.81 742.44 315.42 270.29 41.21 262.72 45.63"/><polygon class="cls-71" points="734.77 319.89 769.58 377.83 777.21 373.44 742.4 315.49 734.77 319.89"/><polygon class="cls-5" points="734.79 319.89 769.6 377.83 762.03 373.44 727.23 315.52 734.79 319.89"/><polygon class="cls-71" points="412.82 18.13 412.82 617.7 420.45 613.31 420.45 13.74 412.82 18.13"/><polygon class="cls-5" points="412.84 18.13 412.84 617.7 405.27 613.31 405.27 13.76 412.84 18.13"/><polygon class="cls-75" points="405.27 13.76 412.84 18.13 420.45 13.74 412.84 9.34 405.27 13.76"/><polygon class="cls-73" points="367.12 239.09 367.12 247.84 359.49 243.44 359.49 234.69 367.12 239.09"/><polygon class="cls-73" points="367.1 239.09 367.1 247.84 412.81 221.42 412.81 212.7 367.1 239.09"/><polygon class="cls-75" points="412.81 212.7 367.1 239.09 359.49 234.69 405.24 208.28 412.81 212.7"/><polygon class="cls-73" points="367.12 309.56 367.12 318.31 359.49 313.92 359.49 305.17 367.12 309.56"/><polygon class="cls-71" points="367.1 309.56 367.1 318.31 412.81 291.9 412.81 283.17 367.1 309.56"/><polygon class="cls-5" points="412.81 283.17 367.1 309.56 359.49 305.17 405.24 278.75 412.81 283.17"/><polygon class="cls-73" points="367.12 379.76 367.12 388.51 359.49 384.12 359.49 375.37 367.12 379.76"/><polygon class="cls-71" points="367.1 379.76 367.1 388.51 412.81 362.1 412.81 353.37 367.1 379.76"/><polygon class="cls-5" points="412.81 353.37 367.1 379.76 359.49 375.37 405.24 348.95 412.81 353.37"/><polygon class="cls-73" points="367.12 449.72 367.12 458.47 359.49 454.08 359.49 445.33 367.12 449.72"/><polygon class="cls-5" points="367.1 449.72 367.1 458.47 412.81 432.06 412.81 423.33 367.1 449.72"/><polygon class="cls-76" points="412.81 423.33 367.1 449.72 359.49 445.33 405.24 418.91 412.81 423.33"/><polygon class="cls-73" points="367.12 520.2 367.12 528.95 359.49 524.55 359.49 515.8 367.12 520.2"/><polygon class="cls-5" points="367.1 520.2 367.1 528.95 412.81 502.53 412.81 493.81 367.1 520.2"/><polygon class="cls-76" points="412.81 493.81 367.1 520.2 359.49 515.8 405.24 489.39 412.81 493.81"/><polygon class="cls-73" points="367.12 590.4 367.12 599.15 359.49 594.75 359.49 586 367.12 590.4"/><polygon class="cls-71" points="367.1 590.4 367.1 599.15 412.81 572.73 412.81 564.01 367.1 590.4"/><polygon class="cls-4" points="412.81 564.01 367.1 590.4 359.49 586 405.24 559.59 412.81 564.01"/><polygon class="cls-71" points="359.51 48.19 359.51 648.5 367.14 644.11 367.14 43.79 359.51 48.19"/><polygon class="cls-5" points="359.53 48.19 359.53 648.5 351.96 644.11 351.96 43.82 359.53 48.19"/><polygon class="cls-75" points="351.96 43.82 359.53 48.19 367.14 43.79 359.53 39.4 351.96 43.82"/><polygon class="cls-73" points="405.18 621.59 405.18 630.34 412.81 625.94 412.81 617.19 405.18 621.59"/><polygon class="cls-5" points="405.2 621.59 405.2 630.34 359.49 603.92 359.49 595.2 405.2 621.59"/><polygon class="cls-4" points="359.49 595.2 405.2 621.59 412.81 617.19 367.06 590.78 359.49 595.2"/><polygon class="cls-5" points="405.18 612.7 405.18 621.45 412.81 617.06 412.81 608.31 405.18 612.7"/><polygon class="cls-5" points="405.2 612.7 405.2 621.45 359.49 543.03 359.49 534.31 405.2 612.7"/><polygon class="cls-71" points="359.49 534.31 405.2 612.7 412.81 608.31 367.06 529.89 359.49 534.31"/><polygon class="cls-73" points="405.18 551.39 405.18 560.14 412.81 555.74 412.81 546.99 405.18 551.39"/><polygon class="cls-5" points="405.2 551.39 405.2 560.14 359.49 533.72 359.49 525 405.2 551.39"/><polygon class="cls-71" points="359.49 525 405.2 551.39 412.81 546.99 367.06 520.58 359.49 525"/><polygon class="cls-73" points="420.19 621.59 420.19 630.34 412.56 625.94 412.56 617.19 420.19 621.59"/><polygon class="cls-71" points="420.17 621.59 420.17 630.34 465.87 603.92 465.87 595.2 420.17 621.59"/><polygon class="cls-4" points="465.87 595.2 420.17 621.59 412.56 617.19 458.3 590.78 465.87 595.2"/><polygon class="cls-73" points="420.19 621.59 420.19 630.34 412.56 625.94 412.56 617.19 420.19 621.59"/><polygon class="cls-5" points="420.17 621.59 420.17 630.34 465.87 542.74 465.87 534.01 420.17 621.59"/><polygon class="cls-71" points="465.87 534.01 420.17 621.59 412.56 617.19 458.3 529.59 465.87 534.01"/><polygon class="cls-73" points="420.19 551.39 420.19 560.14 412.56 555.74 412.56 546.99 420.19 551.39"/><polygon class="cls-5" points="420.17 551.39 420.17 560.14 465.87 533.72 465.87 525 420.17 551.39"/><polygon class="cls-71" points="465.87 525 420.17 551.39 412.56 546.99 458.3 520.58 465.87 525"/><polygon class="cls-73" points="420.19 542.96 420.19 551.71 412.56 547.32 412.56 538.57 420.19 542.96"/><polygon class="cls-5" points="420.17 542.96 420.17 551.71 465.87 464.11 465.87 455.39 420.17 542.96"/><polygon class="cls-71" points="465.87 455.39 420.17 542.96 412.56 538.57 458.3 450.97 465.87 455.39"/><polygon class="cls-73" points="420.19 480.91 420.19 489.66 412.56 485.27 412.56 476.52 420.19 480.91"/><polygon class="cls-5" points="420.17 480.91 420.17 489.66 465.87 463.25 465.87 454.52 420.17 480.91"/><polygon class="cls-71" points="465.87 454.52 420.17 480.91 412.56 476.52 458.3 450.1 465.87 454.52"/><polygon class="cls-73" points="405.18 270.28 405.18 279.02 412.81 274.63 412.81 265.88 405.18 270.28"/><polygon class="cls-74" points="405.2 270.28 405.2 279.02 359.49 252.61 359.49 243.89 405.2 270.28"/><polygon class="cls-75" points="359.49 243.89 405.2 270.28 412.81 265.88 367.06 239.47 359.49 243.89"/><polygon class="cls-73" points="420.19 270.28 420.19 279.02 412.56 274.63 412.56 265.88 420.19 270.28"/><polygon class="cls-73" points="420.17 270.28 420.17 279.02 465.87 252.61 465.87 243.89 420.17 270.28"/><polygon class="cls-75" points="465.87 243.89 420.17 270.28 412.56 265.88 458.3 239.47 465.87 243.89"/><polygon class="cls-73" points="405.18 200.31 405.18 209.06 412.81 204.67 412.81 195.92 405.18 200.31"/><polygon class="cls-74" points="405.2 200.31 405.2 209.06 359.49 182.65 359.49 173.93 405.2 200.31"/><polygon class="cls-75" points="359.49 173.93 405.2 200.31 412.81 195.92 367.06 169.51 359.49 173.93"/><polygon class="cls-73" points="431.41 20.26 431.41 29.01 439.04 24.61 439.04 15.86 431.41 20.26"/><polygon class="cls-5" points="431.43 20.26 431.43 29.01 404.91 13.14 404.91 4.42 431.43 20.26"/><polygon class="cls-4" points="404.91 4.42 431.43 20.26 439.04 15.86 412.48 0 404.91 4.42"/><polygon class="cls-71" points="431.31 20.37 465.98 77.97 473.61 73.58 438.94 15.97 431.31 20.37"/><polygon class="cls-5" points="431.33 20.37 466 77.97 458.43 73.58 423.76 16 431.33 20.37"/><polygon class="cls-73" points="367.12 35.52 367.12 44.27 359.49 39.87 359.49 31.13 367.12 35.52"/><polygon class="cls-71" points="367.1 35.52 367.1 44.27 412.81 17.86 412.81 9.13 367.1 35.52"/><polygon class="cls-4" points="412.81 9.13 367.1 35.52 359.49 31.12 405.24 4.71 412.81 9.13"/><polygon class="cls-73" points="419.99 104.37 419.99 113.12 412.35 108.73 412.35 99.98 419.99 104.37"/><polygon class="cls-71" points="419.96 104.37 419.96 113.12 465.67 86.71 465.67 77.98 419.96 104.37"/><polygon class="cls-4" points="465.67 77.98 419.96 104.37 412.35 99.98 458.1 73.56 465.67 77.98"/><polygon class="cls-73" points="420.19 472.33 420.19 481.08 412.56 476.69 412.56 467.94 420.19 472.33"/><polygon class="cls-5" points="420.17 472.33 420.17 481.08 465.87 393.48 465.87 384.76 420.17 472.33"/><polygon class="cls-71" points="465.87 384.76 420.17 472.33 412.56 467.94 458.3 380.34 465.87 384.76"/><polygon class="cls-73" points="420.19 410.95 420.19 419.7 412.56 415.31 412.56 406.56 420.19 410.95"/><polygon class="cls-5" points="420.17 410.95 420.17 419.7 465.87 393.29 465.87 384.56 420.17 410.95"/><polygon class="cls-71" points="465.87 384.56 420.17 410.95 412.56 406.56 458.3 380.14 465.87 384.56"/><polygon class="cls-73" points="420.19 402.3 420.19 411.05 412.56 406.65 412.56 397.9 420.19 402.3"/><polygon class="cls-5" points="420.17 402.3 420.17 411.05 465.87 323.45 465.87 314.72 420.17 402.3"/><polygon class="cls-71" points="465.87 314.72 420.17 402.3 412.56 397.9 458.3 310.3 465.87 314.72"/><polygon class="cls-73" points="420.19 340.75 420.19 349.5 412.56 345.11 412.56 336.36 420.19 340.75"/><polygon class="cls-5" points="420.17 340.75 420.17 349.5 465.87 323.09 465.87 314.36 420.17 340.75"/><polygon class="cls-71" points="465.87 314.36 420.17 340.75 412.56 336.36 458.3 309.94 465.87 314.36"/><polygon class="cls-73" points="420.19 332.7 420.19 341.45 412.56 337.06 412.56 328.31 420.19 332.7"/><polygon class="cls-5" points="420.17 332.7 420.17 341.45 465.87 253.85 465.87 245.13 420.17 332.7"/><polygon class="cls-71" points="465.87 245.13 420.17 332.7 412.56 328.31 458.3 240.71 465.87 245.13"/><polygon class="cls-73" points="405.18 542.52 405.18 551.27 412.81 546.87 412.81 538.12 405.18 542.52"/><polygon class="cls-5" points="405.2 542.52 405.2 551.27 359.49 472.85 359.49 464.12 405.2 542.52"/><polygon class="cls-71" points="359.49 464.12 405.2 542.52 412.81 538.12 367.06 459.7 359.49 464.12"/><polygon class="cls-73" points="405.18 480.91 405.18 489.66 412.81 485.27 412.81 476.52 405.18 480.91"/><polygon class="cls-5" points="405.2 480.91 405.2 489.66 359.49 463.25 359.49 454.52 405.2 480.91"/><polygon class="cls-71" points="359.49 454.52 405.2 480.91 412.81 476.52 367.06 450.1 359.49 454.52"/><polygon class="cls-73" points="405.18 472.33 405.18 481.08 412.81 476.69 412.81 467.94 405.18 472.33"/><polygon class="cls-5" points="405.2 472.33 405.2 481.08 359.49 402.66 359.49 393.94 405.2 472.33"/><polygon class="cls-71" points="359.49 393.94 405.2 472.33 412.81 467.94 367.06 389.52 359.49 393.94"/><polygon class="cls-73" points="405.18 410.95 405.18 419.7 412.81 415.31 412.81 406.56 405.18 410.95"/><polygon class="cls-5" points="405.2 410.95 405.2 419.7 359.49 393.29 359.49 384.56 405.2 410.95"/><polygon class="cls-71" points="359.49 384.56 405.2 410.95 412.81 406.56 367.06 380.14 359.49 384.56"/><polygon class="cls-73" points="405.18 402.15 405.18 410.9 412.81 406.5 412.81 397.75 405.18 402.15"/><polygon class="cls-5" points="405.2 402.15 405.2 410.9 359.49 332.48 359.49 323.75 405.2 402.15"/><polygon class="cls-71" points="359.49 323.75 405.2 402.15 412.81 397.75 367.06 319.34 359.49 323.75"/><polygon class="cls-73" points="405.18 340.75 405.18 349.5 412.81 345.11 412.81 336.36 405.18 340.75"/><polygon class="cls-5" points="405.2 340.75 405.2 349.5 359.49 323.09 359.49 314.36 405.2 340.75"/><polygon class="cls-71" points="359.49 314.36 405.2 340.75 412.81 336.36 367.06 309.94 359.49 314.36"/><polygon class="cls-73" points="405.18 332.26 405.18 341.01 412.81 336.62 412.81 327.87 405.18 332.26"/><polygon class="cls-5" points="405.2 332.26 405.2 341.01 359.49 262.59 359.49 253.87 405.2 332.26"/><polygon class="cls-71" points="359.49 253.87 405.2 332.26 412.81 327.87 367.06 249.45 359.49 253.87"/><polygon class="cls-71" points="412.82 108.91 412.82 679.29 420.45 674.89 420.45 104.52 412.82 108.91"/><polygon class="cls-5" points="412.84 108.91 412.84 679.29 405.27 674.89 405.27 104.54 412.84 108.91"/><polygon class="cls-75" points="405.27 104.54 412.84 108.91 420.45 104.52 412.84 100.12 405.27 104.54"/><polygon class="cls-5" points="420.72 293.08 324.56 237.56 324.56 141.3 388.22 178.05 420.72 263.45 420.72 293.08"/><polygon class="cls-71" points="420.72 263.45 420.72 293.08 480.97 258.7 480.97 229.07 420.72 263.45"/><polygon class="cls-71" points="448.47 143.67 388.22 178.05 420.72 263.45 480.97 229.07 448.47 143.67"/><polygon class="cls-62" points="392.25 188.63 420.72 263.45 480.97 229.07 452.36 153.89 392.25 188.63"/><polygon class="cls-79" points="480.97 229.07 431.2 166.12 410.69 177.97 480.97 229.07"/><polygon class="cls-4" points="384.81 106.92 324.56 141.3 388.22 178.05 448.47 143.67 384.81 106.92"/><polygon class="cls-65" points="388.2 175.65 324.56 141.3 388.22 178.05 448.47 143.67 388.2 175.65"/><polygon class="cls-79" points="348.35 163.23 348.35 221.85 420.72 263.63 420.72 263.45 392.22 188.56 348.35 163.23"/><polygon class="cls-62" points="350.57 221.18 350.57 164.52 348.35 163.23 348.35 221.85 420.72 263.63 420.72 263.45 419.86 261.18 350.57 221.18"/><polygon class="cls-73" points="385.78 46.62 385.78 55.37 378.15 50.98 378.15 42.23 385.78 46.62"/><polygon class="cls-71" points="385.76 46.62 385.76 55.37 431.46 28.96 431.46 20.23 385.76 46.62"/><polygon class="cls-4" points="431.46 20.23 385.76 46.62 378.15 42.23 423.89 15.82 431.46 20.23"/><polygon class="cls-73" points="378.56 50.92 378.56 59.67 386.19 55.27 386.19 46.53 378.56 50.92"/><polygon class="cls-5" points="378.57 50.92 378.57 59.67 352.06 43.8 352.06 35.08 378.57 50.92"/><polygon class="cls-4" points="352.06 35.08 378.57 50.92 386.19 46.53 359.63 30.66 352.06 35.08"/><polygon class="cls-71" points="378.52 50.99 413.33 108.94 420.96 104.55 386.15 46.6 378.52 50.99"/><polygon class="cls-5" points="378.54 50.99 413.35 108.94 405.78 104.55 370.97 46.62 378.54 50.99"/><path class="cls-65" d="M1094.18,696.75l-53.56-30.92,5.71-7c.62-.76.34-1.67-.69-2.27l-16.43-9.49a5.38,5.38,0,0,0-4.88,0c-1.35.78-1.34,2,0,2.82l14.71,8.49-32.79,40c-.62.76-.35,1.67.69,2.26l5.24,3c-.36,0-.71-.06-1.08-.06-5,0-9.07,2.33-9.05,5.22s4.09,5.26,9.11,5.27,9.07-2.34,9.06-5.23a3.24,3.24,0,0,0-.12-.62l11.38,6.56c-.36,0-.71-.06-1.08-.06-5,0-9.07,2.33-9.06,5.23s4.1,5.25,9.12,5.26,9.07-2.33,9-5.23a2.6,2.6,0,0,0-.11-.62l2.42,1.4a5.38,5.38,0,0,0,4.88,0c1.35-.77,1.34-2,0-2.81l-33.16-19.15,6.69-8.15,38.6,22.29a16.88,16.88,0,0,0,13.27.83l20.39-7.6C1098.15,704.11,1099,699.51,1094.18,696.75Z"/><path class="cls-7" d="M89.68,732.38,28.86,697.27c-16.8-9.7-14.69-26.64,4.7-37.84l50.65-29.24c19.4-11.2,48.75-12.42,65.55-2.72l60.81,35.11c16.8,9.7,14.7,26.64-4.7,37.84l-50.65,29.25C135.82,740.86,106.48,742.08,89.68,732.38Z"/><path class="cls-64" d="M17.6,679.79h0v.78A5.08,5.08,0,0,1,17.6,679.79Z"/><path class="cls-20" d="M205.87,700.42l-50.65,29.25c-19.4,11.19-48.74,12.41-65.54,2.71L28.86,697.27c-7.23-4.17-10.93-9.69-11.29-15.51v19.31c-.47,6.55,3.23,12.87,11.29,17.52l60.82,35.12c16.8,9.69,46.14,8.48,65.54-2.72l50.65-29.24c10-5.79,15.42-13.11,16-20.18h0v-.14a15.72,15.72,0,0,0,0-2.17V679.79h0C221.48,687,216.11,694.51,205.87,700.42Z"/><path class="cls-16" d="M17.6,679.79h0v.78A5.08,5.08,0,0,1,17.6,679.79Z"/><path class="cls-16" d="M89.68,732.38,28.86,697.27c-7.23-4.17-10.93-9.69-11.29-15.51v19.31c-.47,6.55,3.23,12.87,11.29,17.52l60.82,35.12Z"/><path class="cls-75" d="M205.87,697.76,155.22,727c-19.4,11.2-48.74,12.42-65.54,2.72L28.86,694.6c-7.08-4.08-10.76-9.45-11.25-15.14-.59,6.65,3.08,13.09,11.25,17.81l60.82,35.11c16.8,9.7,46.14,8.48,65.54-2.71l50.65-29.25c11.23-6.48,16.62-14.88,15.95-22.7C221.2,684.74,215.83,692,205.87,697.76Z"/><path class="cls-7" d="M89.68,702.35,28.86,667.24c-16.8-9.7-14.69-26.64,4.7-37.84l50.65-29.24c19.4-11.2,48.75-12.42,65.55-2.72l60.81,35.11c16.8,9.7,14.7,26.65-4.7,37.85l-50.65,29.24C135.82,710.84,106.48,712.05,89.68,702.35Z"/><path class="cls-16" d="M17.6,649.76h0v.79A4.17,4.17,0,0,1,17.6,649.76Z"/><path class="cls-16" d="M205.87,670.4l-50.65,29.24c-19.4,11.2-48.74,12.41-65.54,2.71L28.86,667.24c-7.23-4.17-10.93-9.69-11.29-15.51V671c-.47,6.55,3.23,12.87,11.29,17.52l60.82,35.12c16.8,9.7,46.14,8.48,65.54-2.72l50.65-29.24c10-5.79,15.42-13.11,16-20.18h0v-.14a15.57,15.57,0,0,0,0-2.16V649.76h0C221.48,657,216.11,664.48,205.87,670.4Z"/><path class="cls-16" d="M17.6,649.76h0v.79A4.17,4.17,0,0,1,17.6,649.76Z"/><path class="cls-16" d="M89.68,702.35,28.86,667.24c-7.23-4.17-10.93-9.69-11.29-15.51V671c-.47,6.55,3.23,12.87,11.29,17.52l60.82,35.12Z"/><path class="cls-75" d="M205.87,667.73,155.22,697c-19.4,11.2-48.74,12.42-65.54,2.72L28.86,664.57c-7.08-4.08-10.76-9.45-11.25-15.14-.59,6.66,3.08,13.09,11.25,17.81l60.82,35.11c16.8,9.7,46.14,8.49,65.54-2.71l50.65-29.24c11.23-6.49,16.62-14.89,15.95-22.7C221.2,654.72,215.83,662,205.87,667.73Z"/><path class="cls-7" d="M89.68,672.15,28.86,637c-16.8-9.7-14.69-26.64,4.7-37.84L84.21,570c19.4-11.2,48.75-12.42,65.55-2.72l60.81,35.12c16.8,9.7,14.7,26.64-4.7,37.84l-50.65,29.24C135.82,680.63,106.48,681.85,89.68,672.15Z"/><path class="cls-16" d="M17.6,619.56h0v.78A5.06,5.06,0,0,1,17.6,619.56Z"/><path class="cls-16" d="M205.87,640.19l-50.65,29.24c-19.4,11.2-48.74,12.42-65.54,2.72L28.86,637c-7.23-4.17-10.93-9.68-11.29-15.5v19.3c-.47,6.56,3.23,12.87,11.29,17.53l60.82,35.11c16.8,9.7,46.14,8.48,65.54-2.72l50.65-29.24c10-5.79,15.42-13.11,16-20.17h0v-.15a15.57,15.57,0,0,0,0-2.16V619.56h0C221.48,626.76,216.11,634.27,205.87,640.19Z"/><path class="cls-16" d="M17.6,619.56h0v.78A5.06,5.06,0,0,1,17.6,619.56Z"/><path class="cls-16" d="M89.68,672.15,28.86,637c-7.23-4.17-10.93-9.68-11.29-15.5v19.3c-.47,6.56,3.23,12.87,11.29,17.53l60.82,35.11Z"/><path class="cls-75" d="M205.87,637.52l-50.65,29.25c-19.4,11.2-48.74,12.41-65.54,2.71L28.86,634.37c-7.08-4.09-10.76-9.46-11.25-15.14-.59,6.65,3.08,13.09,11.25,17.8l60.82,35.12c16.8,9.7,46.14,8.48,65.54-2.72l50.65-29.24c11.23-6.48,16.62-14.89,15.95-22.7C221.2,624.51,215.83,631.77,205.87,637.52Z"/><path class="cls-7" d="M89.68,642.83,28.86,607.72c-16.8-9.7-14.69-26.65,4.7-37.84l50.65-29.25c19.4-11.2,48.75-12.41,65.55-2.71L210.57,573c16.8,9.7,14.7,26.64-4.7,37.84l-50.65,29.24C135.82,651.31,106.48,652.53,89.68,642.83Z"/><path class="cls-16" d="M17.6,590.24h0V591A4.82,4.82,0,0,1,17.6,590.24Z"/><path class="cls-16" d="M205.87,610.87l-50.65,29.24c-19.4,11.2-48.74,12.42-65.54,2.72L28.86,607.72c-7.23-4.18-10.93-9.69-11.29-15.51v19.31c-.47,6.55,3.23,12.87,11.29,17.52l60.82,35.11c16.8,9.7,46.14,8.49,65.54-2.71l50.65-29.25c10-5.78,15.42-13.11,16-20.17h0v-.15a15.57,15.57,0,0,0,0-2.16V590.24h0C221.48,597.44,216.11,605,205.87,610.87Z"/><path class="cls-16" d="M17.6,590.24h0V591A4.82,4.82,0,0,1,17.6,590.24Z"/><path class="cls-16" d="M89.68,642.83,28.86,607.72c-7.23-4.18-10.93-9.69-11.29-15.51v19.31c-.47,6.55,3.23,12.87,11.29,17.52l60.82,35.11Z"/><path class="cls-75" d="M205.87,608.21l-50.65,29.24c-19.4,11.2-48.74,12.41-65.54,2.71L28.86,605.05c-7.08-4.08-10.76-9.46-11.25-15.14C17,596.56,20.69,603,28.86,607.72l60.82,35.11c16.8,9.7,46.14,8.48,65.54-2.72l50.65-29.24c11.23-6.48,16.62-14.89,15.95-22.7C221.2,595.19,215.83,602.46,205.87,608.21Z"/><path class="cls-7" d="M89.68,612.62,28.86,577.51c-16.8-9.7-14.69-26.64,4.7-37.84l50.65-29.24c19.4-11.2,48.75-12.42,65.55-2.72l60.81,35.11c16.8,9.7,14.7,26.65-4.7,37.85l-50.65,29.24C135.82,621.11,106.48,622.32,89.68,612.62Z"/><path class="cls-16" d="M17.6,560h0v.79A4.16,4.16,0,0,1,17.6,560Z"/><path class="cls-16" d="M205.87,580.67l-50.65,29.24c-19.4,11.2-48.74,12.41-65.54,2.71L28.86,577.51c-7.23-4.17-10.93-9.69-11.29-15.51v19.31c-.47,6.55,3.23,12.87,11.29,17.52L89.68,634c16.8,9.7,46.14,8.48,65.54-2.72L205.87,602c10-5.79,15.42-13.11,16-20.17h0v-.15a15.57,15.57,0,0,0,0-2.16V560h0C221.48,567.24,216.11,574.75,205.87,580.67Z"/><path class="cls-16" d="M17.6,560h0v.79A4.16,4.16,0,0,1,17.6,560Z"/><path class="cls-16" d="M89.68,612.62,28.86,577.51c-7.23-4.17-10.93-9.69-11.29-15.51v19.31c-.47,6.55,3.23,12.87,11.29,17.52L89.68,634Z"/><path class="cls-75" d="M205.87,578l-50.65,29.24c-19.4,11.2-48.74,12.42-65.54,2.72L28.86,574.84c-7.08-4.08-10.76-9.45-11.25-15.14-.59,6.66,3.08,13.09,11.25,17.81l60.82,35.11c16.8,9.7,46.14,8.49,65.54-2.71l50.65-29.24c11.23-6.49,16.62-14.89,15.95-22.7C221.2,565,215.83,572.25,205.87,578Z"/><path class="cls-7" d="M89.68,582.54,28.86,547.42c-16.8-9.7-14.69-26.64,4.7-37.84l50.65-29.24c19.4-11.2,48.75-12.42,65.55-2.72l60.81,35.12c16.8,9.7,14.7,26.64-4.7,37.84l-50.65,29.24C135.82,591,106.48,592.24,89.68,582.54Z"/><path class="cls-64" d="M17.6,530h0v.78A5.06,5.06,0,0,1,17.6,530Z"/><path class="cls-16" d="M205.87,550.58l-50.65,29.24c-19.4,11.2-48.74,12.42-65.54,2.72L28.86,547.42c-7.23-4.17-10.93-9.69-11.29-15.51v19.31c-.47,6.55,3.23,12.87,11.29,17.53l60.82,35.11c16.8,9.7,46.14,8.48,65.54-2.72l50.65-29.24c10-5.79,15.42-13.11,16-20.17h0v-.15a15.57,15.57,0,0,0,0-2.16V530h0C221.48,537.15,216.11,544.66,205.87,550.58Z"/><path class="cls-16" d="M17.6,530h0v.78A5.06,5.06,0,0,1,17.6,530Z"/><path class="cls-16" d="M89.68,582.54,28.86,547.42c-7.23-4.17-10.93-9.69-11.29-15.51v19.31c-.47,6.55,3.23,12.87,11.29,17.53l60.82,35.11Z"/><path class="cls-75" d="M205.87,547.91l-50.65,29.24c-19.4,11.2-48.74,12.42-65.54,2.72L28.86,544.76c-7.08-4.09-10.76-9.46-11.25-15.14-.59,6.65,3.08,13.08,11.25,17.8l60.82,35.12c16.8,9.7,46.14,8.48,65.54-2.72l50.65-29.24c11.23-6.49,16.62-14.89,15.95-22.7C221.2,534.9,215.83,542.16,205.87,547.91Z"/><path class="cls-80" d="M203.65,794.19l-60.82-35.12c-16.8-9.7-14.7-26.64,4.7-37.84L198.18,692c19.4-11.2,48.74-12.41,65.54-2.72l60.82,35.12c16.8,9.7,14.7,26.64-4.7,37.84l-50.65,29.24C249.79,802.67,220.45,803.89,203.65,794.19Z"/><path class="cls-81" d="M131.57,741.6h0v.78A5.08,5.08,0,0,1,131.57,741.6Z"/><path class="cls-81" d="M319.84,762.23l-50.65,29.24c-19.4,11.2-48.74,12.42-65.54,2.72l-60.82-35.12c-7.23-4.17-10.94-9.68-11.29-15.5v19.3c-.47,6.56,3.23,12.88,11.29,17.53l60.82,35.11c16.8,9.7,46.14,8.48,65.54-2.72l50.65-29.24c10-5.79,15.42-13.11,16-20.17h0v-.15a15.57,15.57,0,0,0,0-2.16V741.6h0C335.45,748.8,330.08,756.31,319.84,762.23Z"/><path class="cls-64" d="M131.57,741.6h0v.78A5.08,5.08,0,0,1,131.57,741.6Z"/><path class="cls-82" d="M203.65,794.19l-60.82-35.12c-7.23-4.17-10.94-9.68-11.29-15.5v19.3c-.47,6.56,3.23,12.88,11.29,17.53l60.82,35.11Z"/><path class="cls-65" d="M319.84,759.56l-50.65,29.25c-19.4,11.2-48.74,12.41-65.54,2.71l-60.82-35.11c-7.08-4.09-10.76-9.46-11.25-15.14-.59,6.65,3.07,13.09,11.25,17.8l60.82,35.12c16.8,9.7,46.14,8.48,65.54-2.72l50.65-29.24c11.23-6.48,16.62-14.89,16-22.7C335.16,746.55,329.8,753.81,319.84,759.56Z"/><path class="cls-80" d="M203.65,763.39l-60.82-35.11c-16.8-9.7-14.7-26.65,4.7-37.85l50.65-29.24c19.4-11.2,48.74-12.41,65.54-2.71l60.82,35.11c16.8,9.7,14.7,26.64-4.7,37.84l-50.65,29.24C249.79,771.87,220.45,773.09,203.65,763.39Z"/><path class="cls-81" d="M131.57,710.8h0v.78A5.08,5.08,0,0,1,131.57,710.8Z"/><path class="cls-81" d="M319.84,731.43l-50.65,29.24c-19.4,11.2-48.74,12.42-65.54,2.72l-60.82-35.11c-7.23-4.18-10.94-9.69-11.29-15.51v19.31c-.47,6.55,3.23,12.87,11.29,17.52l60.82,35.11c16.8,9.7,46.14,8.49,65.54-2.71l50.65-29.25c10-5.78,15.42-13.11,16-20.17h0v-.15a15.57,15.57,0,0,0,0-2.16V710.8h0C335.45,718,330.08,725.52,319.84,731.43Z"/><path class="cls-81" d="M131.57,710.8h0v.78A5.08,5.08,0,0,1,131.57,710.8Z"/><path class="cls-81" d="M203.65,763.39l-60.82-35.11c-7.23-4.18-10.94-9.69-11.29-15.51v19.31c-.47,6.55,3.23,12.87,11.29,17.52l60.82,35.11Z"/><path class="cls-65" d="M319.84,728.77,269.19,758c-19.4,11.2-48.74,12.41-65.54,2.71L142.83,725.6c-7.08-4.08-10.76-9.46-11.25-15.14-.59,6.65,3.07,13.09,11.25,17.81l60.82,35.11c16.8,9.7,46.14,8.48,65.54-2.72l50.65-29.24c11.23-6.48,16.62-14.89,16-22.7C335.16,715.75,329.8,723,319.84,728.77Z"/><path class="cls-80" d="M203.65,732.59l-60.82-35.11c-16.8-9.7-14.7-26.64,4.7-37.84l50.65-29.25c19.4-11.2,48.74-12.41,65.54-2.71l60.82,35.11c16.8,9.7,14.7,26.64-4.7,37.84l-50.65,29.24C249.79,741.07,220.45,742.29,203.65,732.59Z"/><path class="cls-81" d="M131.57,680h0v.78A5.08,5.08,0,0,1,131.57,680Z"/><path class="cls-81" d="M319.84,700.63l-50.65,29.24c-19.4,11.2-48.74,12.42-65.54,2.72l-60.82-35.11c-7.23-4.17-10.94-9.69-11.29-15.51v19.31c-.47,6.55,3.23,12.87,11.29,17.52l60.82,35.11c16.8,9.7,46.14,8.49,65.54-2.71L319.84,722c10-5.79,15.42-13.11,16-20.18h0v-.14a15.72,15.72,0,0,0,0-2.17V680h0C335.45,687.21,330.08,694.72,319.84,700.63Z"/><path class="cls-81" d="M131.57,680h0v.78A5.08,5.08,0,0,1,131.57,680Z"/><path class="cls-81" d="M203.65,732.59l-60.82-35.11c-7.23-4.17-10.94-9.69-11.29-15.51v19.31c-.47,6.55,3.23,12.87,11.29,17.52l60.82,35.11Z"/><path class="cls-65" d="M319.84,698l-50.65,29.24c-19.4,11.2-48.74,12.42-65.54,2.72l-60.82-35.12c-7.08-4.08-10.76-9.46-11.25-15.14-.59,6.65,3.07,13.09,11.25,17.81l60.82,35.11c16.8,9.7,46.14,8.48,65.54-2.72l50.65-29.24c11.23-6.48,16.62-14.88,16-22.7C335.16,685,329.8,692.22,319.84,698Z"/><path class="cls-65" d="M224,644.39l5.28,38.5L296,685.94h0a5.36,5.36,0,0,0-2.8-3.31L229.66,646a13.59,13.59,0,0,0-5.74-1.62Z"/><path class="cls-65" d="M296,686.06l-72-.13-.06-11.77L176.19,672v-.12L224,672l-.15-27.57a14.7,14.7,0,0,0-8.18,1.6l-37.24,21.5c-3.87,2.24-3.85,5.87.05,8.12l63.48,36.66a15.57,15.57,0,0,0,14.07,0l37.24-21.5C295.42,689.49,296.32,687.74,296,686.06Zm-47.82,27.47L244.37,686h3.84l.15,27.57Z"/><path class="cls-83" d="M72.16,862.42,11.34,827.3c-16.8-9.7-14.69-26.64,4.71-37.84L66.7,760.22c19.39-11.2,48.74-12.41,65.54-2.72l60.82,35.12c16.8,9.7,14.69,26.64-4.71,37.84L137.7,859.7C118.3,870.9,89,872.12,72.16,862.42Z"/><path class="cls-84" d="M.08,809.83h0v0Z"/><path class="cls-84" d="M188.35,830.46,137.7,859.7c-19.4,11.2-48.74,12.42-65.54,2.72L11.34,827.3C4.11,823.13.41,817.62.05,811.8v19.3c-.46,6.56,3.23,12.88,11.29,17.53l60.82,35.11c16.8,9.7,46.14,8.48,65.54-2.72l50.65-29.24c10-5.79,15.42-13.11,16-20.17h0v-.15a15.57,15.57,0,0,0,0-2.16V809.83h0C204,817,198.6,824.54,188.35,830.46Z"/><path class="cls-84" d="M.08,809.83h0v0Z"/><path class="cls-84" d="M72.16,862.42,11.34,827.3C4.11,823.13.41,817.62.05,811.8v19.3c-.46,6.56,3.23,12.88,11.29,17.53l60.82,35.11Z"/><path class="cls-75" d="M188.35,827.79,137.7,857c-19.4,11.2-48.74,12.41-65.54,2.71L11.34,824.64C4.27,820.55.59,815.18.1,809.5c-.59,6.65,3.07,13.09,11.24,17.8l60.82,35.12c16.8,9.7,46.14,8.48,65.54-2.72l50.65-29.24c11.23-6.48,16.62-14.89,16-22.7C203.68,814.78,198.31,822,188.35,827.79Z"/><path class="cls-75" d="M139,795c-.06-11.66-16.5-21.15-36.7-21.19s-36.57,9.42-36.5,21.09c0,10.68,13.83,19.5,31.66,21v5.91c-3.38.52-5.87,2.28-5.86,4.39l.11,20.19c0,2.52,3.57,4.58,8,4.59h6c4.38,0,7.92-2,7.91-4.56l-.11-20.19c0-2.11-2.53-3.88-5.91-4.41v-5.91C125.34,814.49,139,805.71,139,795Zm-36.51,13.85c-13.31,0-24.14-6.27-24.18-14s10.69-13.85,24-13.8,24.13,6.27,24.17,14-10.71,13.86-24,13.83Z"/><path class="cls-84" d="M72.16,833.1,11.34,798c-16.8-9.7-14.69-26.64,4.71-37.84L66.7,730.9c19.39-11.2,48.74-12.41,65.54-2.71l60.82,35.11c16.8,9.7,14.69,26.64-4.71,37.84L137.7,830.38C118.3,841.58,89,842.8,72.16,833.1Z"/><path class="cls-64" d="M.08,780.51h0v0Z"/><path class="cls-85" d="M188.35,801.14,137.7,830.38c-19.4,11.2-48.7,12.42-65.54,2.72L11.34,798C4.11,793.81.41,788.3.05,782.48v19.31c-.46,6.55,3.23,12.87,11.29,17.52l60.82,35.11c16.8,9.7,46.14,8.49,65.54-2.71l50.65-29.25c10-5.78,15.42-13.11,16-20.17h0v-.14a15.72,15.72,0,0,0,0-2.17V780.51h0C204,787.71,198.6,795.23,188.35,801.14Z"/><path class="cls-84" d="M.08,780.51h0v0Z"/><path class="cls-84" d="M72.16,833.1,11.34,798C4.11,793.81.41,788.3.05,782.48v19.31c-.46,6.55,3.23,12.87,11.29,17.52l60.82,35.11Z"/><path class="cls-75" d="M188.35,798.48,137.7,827.72c-19.4,11.2-48.74,12.41-65.54,2.72L11.34,795.32C4.27,791.24.59,785.86.1,780.18c-.59,6.65,3.07,13.09,11.24,17.81L72.16,833.1c16.8,9.7,46.14,8.48,65.54-2.72l50.65-29.24c11.23-6.48,16.62-14.88,16-22.7C203.68,785.46,198.31,792.73,188.35,798.48Z"/><path class="cls-65" d="M139,765.71c-.06-11.66-16.5-21.15-36.7-21.19s-36.54,9.4-36.47,21.06c0,10.68,13.83,19.51,31.66,21v5.91c-3.38.52-5.87,2.28-5.86,4.4L91.74,817c0,2.53,3.57,4.58,8,4.59h6c4.38,0,7.92-2,7.91-4.56l-.11-20.19c0-2.11-2.53-3.88-5.91-4.41v-5.91C125.34,785.17,139,776.39,139,765.71Zm-36.51,13.85c-13.31,0-24.14-6.27-24.18-14s10.72-13.89,24-13.87,24.13,6.28,24.17,14-10.71,13.9-24,13.87Z"/><polygon class="cls-65" points="50.87 530.61 67.72 540.34 98.25 522.71 81.4 512.99 50.87 530.61"/><polygon class="cls-65" points="72.83 543.29 89.68 553.02 143.18 522.13 126.33 512.4 72.83 543.29"/><polygon class="cls-65" points="171.26 511.82 94.79 555.97 111.64 565.69 188.11 521.55 171.26 511.82"/></g></g></svg>