<svg xmlns="http://www.w3.org/2000/svg" xmlns:xlink="http://www.w3.org/1999/xlink" viewBox="0 0 843.22 950.76"><defs><style>.cls-1{isolation:isolate;}.cls-2{fill:#c4c6d0;}.cls-3,.cls-4{fill:#efeff4;}.cls-4{mix-blend-mode:screen;}.cls-5{fill:#9cd8e5;}.cls-6{fill:#ebffff;}.cls-7{fill:#cacaca;mix-blend-mode:multiply;}.cls-8{fill:#040237;}.cls-13,.cls-17,.cls-9{fill:#fff;}.cls-10{fill:#32b98e;}.cls-11{fill:#f26c73;}.cls-12{fill:#ffd602;}.cls-13,.cls-15{opacity:0.8;}.cls-14{fill:#c6c6c6;}.cls-16{fill:#ff7343;}.cls-17{opacity:0.5;}.cls-18{fill:url(#_ÂÁ_Ï_ÌÌ_È_ËÂÌÚ_11);}.cls-19{fill:url(#_ÂÁ_Ï_ÌÌ_È_ËÂÌÚ_11-2);}.cls-20{fill:url(#_ÂÁ_Ï_ÌÌ_È_ËÂÌÚ_11-3);}.cls-21{fill:url(#_ÂÁ_Ï_ÌÌ_È_ËÂÌÚ_11-4);}.cls-22{fill:url(#_ÂÁ_Ï_ÌÌ_È_ËÂÌÚ_11-5);}.cls-23{fill:url(#_ÂÁ_Ï_ÌÌ_È_ËÂÌÚ_11-6);}.cls-24{fill:url(#_ÂÁ_Ï_ÌÌ_È_ËÂÌÚ_60);}.cls-25{fill:#ff5a22;}.cls-26{fill:url(#_ÂÁ_Ï_ÌÌ_È_ËÂÌÚ_2);}.cls-27{fill:url(#_ÂÁ_Ï_ÌÌ_È_ËÂÌÚ_68);}.cls-28{fill:url(#linear-gradient);}.cls-29{fill:url(#_ÂÁ_Ï_ÌÌ_È_ËÂÌÚ_2-2);}.cls-30{fill:url(#_ÂÁ_Ï_ÌÌ_È_ËÂÌÚ_2-3);}.cls-31{fill:#e4e4e8;}.cls-32{fill:#282b43;}.cls-33{fill:#1d2035;}.cls-34{fill:url(#linear-gradient-2);}.cls-35{fill:url(#_ÂÁ_Ï_ÌÌ_È_ËÂÌÚ_191);}.cls-36{fill:#644733;}.cls-37{fill:#a07758;}.cls-38{fill:#c4926c;}.cls-39{fill:#ffc2c1;}.cls-40{fill:url(#linear-gradient-3);}.cls-41{fill:#313445;}.cls-42{fill:url(#linear-gradient-4);}.cls-43{fill:url(#_ÂÁ_Ï_ÌÌ_È_ËÂÌÚ_2-4);}.cls-44{fill:url(#_ÂÁ_Ï_ÌÌ_È_ËÂÌÚ_2-5);}.cls-45{fill:url(#linear-gradient-5);}.cls-46{fill:#edecc6;}.cls-47{fill:#e6e4b0;}.cls-48{fill:url(#_ÂÁ_Ï_ÌÌ_È_ËÂÌÚ_67);}.cls-49{fill:#75cedc;}.cls-50{fill:url(#_ÂÁ_Ï_ÌÌ_È_ËÂÌÚ_68-2);}.cls-51{fill:url(#_ÂÁ_Ï_ÌÌ_È_ËÂÌÚ_65);}.cls-52{fill:url(#_ÂÁ_Ï_ÌÌ_È_ËÂÌÚ_66);}.cls-53{fill:url(#linear-gradient-6);}</style><linearGradient id="_ÂÁ_Ï_ÌÌ_È_ËÂÌÚ_11" x1="8989.89" y1="252.07" x2="8994.95" y2="252.07" gradientTransform="matrix(-1, 0, 0, 1, 9432.78, 0)" gradientUnits="userSpaceOnUse"><stop offset="0" stop-color="#fc5c7d"/><stop offset="1" stop-color="#6a82fb"/></linearGradient><linearGradient id="_ÂÁ_Ï_ÌÌ_È_ËÂÌÚ_11-2" x1="8988.02" y1="262.34" x2="8997.64" y2="262.14" xlink:href="#_ÂÁ_Ï_ÌÌ_È_ËÂÌÚ_11"/><linearGradient id="_ÂÁ_Ï_ÌÌ_È_ËÂÌÚ_11-3" x1="8988.24" y1="272.51" x2="8997.85" y2="272.31" xlink:href="#_ÂÁ_Ï_ÌÌ_È_ËÂÌÚ_11"/><linearGradient id="_ÂÁ_Ï_ÌÌ_È_ËÂÌÚ_11-4" x1="8988.45" y1="282.69" x2="8998.06" y2="282.49" xlink:href="#_ÂÁ_Ï_ÌÌ_È_ËÂÌÚ_11"/><linearGradient id="_ÂÁ_Ï_ÌÌ_È_ËÂÌÚ_11-5" x1="8988.66" y1="292.86" x2="8998.27" y2="292.66" xlink:href="#_ÂÁ_Ï_ÌÌ_È_ËÂÌÚ_11"/><linearGradient id="_ÂÁ_Ï_ÌÌ_È_ËÂÌÚ_11-6" x1="8988.87" y1="303.04" x2="8998.48" y2="302.84" xlink:href="#_ÂÁ_Ï_ÌÌ_È_ËÂÌÚ_11"/><linearGradient id="_ÂÁ_Ï_ÌÌ_È_ËÂÌÚ_60" x1="9044.21" y1="239.4" x2="9046.24" y2="239.4" gradientTransform="matrix(-1, 0, 0, 1, 9432.78, 0)" gradientUnits="userSpaceOnUse"><stop offset="0" stop-color="#00f260"/><stop offset="1" stop-color="#0057e6"/></linearGradient><linearGradient id="_ÂÁ_Ï_ÌÌ_È_ËÂÌÚ_2" x1="404.49" y1="809.03" x2="481.05" y2="809.03" gradientUnits="userSpaceOnUse"><stop offset="0" stop-color="#1f4075"/><stop offset="1" stop-color="#0162af"/></linearGradient><linearGradient id="_ÂÁ_Ï_ÌÌ_È_ËÂÌÚ_68" x1="3457.97" y1="-1534.5" x2="3512.11" y2="-1534.5" gradientTransform="matrix(-0.5, 0.87, 0.87, 0.5, 3514.16, -1448.2)" gradientUnits="userSpaceOnUse"><stop offset="0" stop-color="#85caff"/><stop offset="1" stop-color="#304eb0"/></linearGradient><linearGradient id="linear-gradient" x1="9647.08" y1="484.22" x2="9681.59" y2="484.22" gradientTransform="matrix(-1, 0, 0, 1, 9681.59, 0)" gradientUnits="userSpaceOnUse"><stop offset="0" stop-color="#144188"/><stop offset="1" stop-color="#1a7cde"/></linearGradient><linearGradient id="_ÂÁ_Ï_ÌÌ_È_ËÂÌÚ_2-2" x1="5.39" y1="785.38" x2="63.64" y2="785.38" xlink:href="#_ÂÁ_Ï_ÌÌ_È_ËÂÌÚ_2"/><linearGradient id="_ÂÁ_Ï_ÌÌ_È_ËÂÌÚ_2-3" x1="39.07" y1="808.91" x2="97.69" y2="808.91" xlink:href="#_ÂÁ_Ï_ÌÌ_È_ËÂÌÚ_2"/><linearGradient id="linear-gradient-2" x1="-15.18" y1="456.85" x2="52.52" y2="542.02" gradientTransform="matrix(1, 0, 0, 1, 0, 0)" xlink:href="#linear-gradient"/><linearGradient id="_ÂÁ_Ï_ÌÌ_È_ËÂÌÚ_191" x1="194.69" y1="611.04" x2="185.36" y2="531.04" gradientUnits="userSpaceOnUse"><stop offset="0" stop-color="#83a4d4"/><stop offset="1" stop-color="#b6fbff"/></linearGradient><linearGradient id="linear-gradient-3" x1="9588.64" y1="505.96" x2="9623.15" y2="505.96" xlink:href="#linear-gradient"/><linearGradient id="linear-gradient-4" x1="7405.72" y1="607.82" x2="7440.23" y2="607.82" gradientTransform="matrix(-1, 0, 0, 1, 7699.11, 0)" xlink:href="#linear-gradient"/><linearGradient id="_ÂÁ_Ï_ÌÌ_È_ËÂÌÚ_2-4" x1="264.27" y1="908.99" x2="322.51" y2="908.99" xlink:href="#_ÂÁ_Ï_ÌÌ_È_ËÂÌÚ_2"/><linearGradient id="_ÂÁ_Ï_ÌÌ_È_ËÂÌÚ_2-5" x1="297.95" y1="932.51" x2="356.57" y2="932.51" xlink:href="#_ÂÁ_Ï_ÌÌ_È_ËÂÌÚ_2"/><linearGradient id="linear-gradient-5" x1="2226.17" y1="580.45" x2="2293.87" y2="665.62" gradientTransform="translate(-1982.48)" xlink:href="#linear-gradient"/><linearGradient id="_ÂÁ_Ï_ÌÌ_È_ËÂÌÚ_67" x1="377.43" y1="678.16" x2="452.76" y2="678.16" gradientUnits="userSpaceOnUse"><stop offset="0" stop-color="#304eb0"/><stop offset="1" stop-color="#85caff"/></linearGradient><linearGradient id="_ÂÁ_Ï_ÌÌ_È_ËÂÌÚ_68-2" x1="1827.8" y1="504.94" x2="1910.35" y2="504.94" gradientTransform="translate(-1464.19 261.67) rotate(-2.6)" xlink:href="#_ÂÁ_Ï_ÌÌ_È_ËÂÌÚ_68"/><linearGradient id="_ÂÁ_Ï_ÌÌ_È_ËÂÌÚ_65" x1="2318.5" y1="773.09" x2="2349.14" y2="717.06" gradientTransform="translate(-1982.48)" gradientUnits="userSpaceOnUse"><stop offset="0" stop-color="#eb696f"/><stop offset="1" stop-color="#f2aeb2"/></linearGradient><linearGradient id="_ÂÁ_Ï_ÌÌ_È_ËÂÌÚ_66" x1="2299.79" y1="768.56" x2="2317.94" y2="768.56" gradientTransform="translate(-1982.48)" gradientUnits="userSpaceOnUse"><stop offset="0" stop-color="#f2aeb2"/><stop offset="1" stop-color="#eb696f"/></linearGradient><linearGradient id="linear-gradient-6" x1="7347.29" y1="629.56" x2="7381.8" y2="629.56" gradientTransform="matrix(-1, 0, 0, 1, 7699.11, 0)" xlink:href="#linear-gradient"/></defs><g class="cls-1"><g id="Layer_2" data-name="Layer 2"><g id="Layer_1-2" data-name="Layer 1"><path class="cls-2" d="M689.48,624.25l-266-87.59v7.17c0,1.74,1,3.4,3.14,4.64L622.77,663.26c4.65,2.68,12.77,2.35,18.14-.75l44.13-25c2.94-1.7,4.44-3.88,4.43-5.94a.75.75,0,0,0,0-.15S689.48,624.25,689.48,624.25Z"/><path class="cls-3" d="M490.18,504.83l196.16,114.8c4.65,2.68,4.07,7.37-1.3,10.47l-44.14,25c-5.36,3.1-13.48,3.43-18.13.75L426.61,541.11c-4.65-2.69-4.07-7.37,1.3-10.47L472,505.58C477.41,502.49,485.53,502.15,490.18,504.83Z"/><path class="cls-2" d="M607.2,589.65,516.29,414.78l6.42-2.06a7.14,7.14,0,0,1,5.53.78l55.23,28.18c4.46,2.35,7.76,7.9,7.37,12.39L617,582.88a5,5,0,0,1-3.35,4.67s-.12.05-.12.05Z"/><path class="cls-3" d="M546.44,560.69l55.23,28.18c4.46,2.35,8.39.61,8.79-3.88L584.25,456.18c.39-4.49-2.9-10-7.36-12.39l-55.23-28.18c-4.46-2.35-8.4-.61-8.79,3.88L539.08,548.3C538.68,552.79,542,558.34,546.44,560.69Z"/><path class="cls-2" d="M796.83,327.27l-7.28,123.47L782.43,571.6,780.34,607c0,7.09-2.37,12.06-6.11,14.2a1.75,1.75,0,0,1-.25.16l-13.53,7.24-337-520.41,13.62-7.28c3.11-1.85,7.18-1.75,11.65.83l140.54,81.62,50.55,29.36,139.43,81C789,299.31,796.83,314.33,796.83,327.27Z"/><path class="cls-3" d="M782.86,334.75,766.38,614.49c0,12.93-7.86,18.87-17.56,13.27L418.29,435.81c-9.7-5.6-17.56-20.63-17.56-33.56l6.34-107.56,7.12-120.85,3-51.33c0-12.93,7.86-18.88,17.56-13.28l330.53,192C775,306.79,782.86,321.81,782.86,334.75Z"/><polygon class="cls-4" points="773.38 317.99 428.02 117.39 410.07 419.62 755.56 619.66 773.38 317.99"/><path class="cls-2" d="M617.51,704.27,264.08,610.15l-.08,8.09c0,2.31,1.33,4.53,4.18,6.17l243,141.75c6.18,3.58,17,3.13,24.14-1l76.21-44.76c3.92-2.26,5.91-5.16,5.89-7.9a1.34,1.34,0,0,0,0-.2S617.51,704.27,617.51,704.27Z"/><path class="cls-3" d="M369.49,556.72l243.84,141.4c6.19,3.57,5.41,9.81-1.73,13.93l-76.22,44.76c-7.14,4.13-18,4.58-24.13,1l-243-141.75c-6.18-3.57-5.41-9.81,1.74-13.93l75.37-44.41C352.5,553.6,363.31,553.15,369.49,556.72Z"/><path class="cls-5" d="M542.21,745.8l-20.32.08V748a.69.69,0,0,0,.4.6l8.68,5a2.57,2.57,0,0,0,2.33-.09l8.34-4.82a1,1,0,0,0,.57-.76v-2.1Z"/><path class="cls-6" d="M533.13,740.19l8.68,5c.6.35.52.95-.17,1.35l-8.34,4.81a2.57,2.57,0,0,1-2.33.1l-8.68-5c-.6-.34-.52-1,.17-1.35l8.34-4.81A2.6,2.6,0,0,1,533.13,740.19Z"/><path class="cls-5" d="M528.36,737.78l-20.32.09V740a.69.69,0,0,0,.4.59l8.68,5a2.6,2.6,0,0,0,2.33-.09l8.34-4.82a1,1,0,0,0,.57-.76v-2.11Z"/><path class="cls-6" d="M519.29,732.18l8.67,5c.6.34.52.95-.17,1.35l-8.34,4.81a2.6,2.6,0,0,1-2.33.1l-8.68-5c-.59-.35-.52-1,.17-1.35l8.34-4.81A2.59,2.59,0,0,1,519.29,732.18Z"/><path class="cls-5" d="M525.59,720.2l-20.32.08v2.09a.71.71,0,0,0,.4.6l8.68,5a2.6,2.6,0,0,0,2.33-.1l8.34-4.82a1,1,0,0,0,.57-.76v-2.1Z"/><path class="cls-6" d="M516.52,714.59l8.67,5c.6.35.52.95-.17,1.35l-8.34,4.81a2.57,2.57,0,0,1-2.33.1l-8.68-5c-.59-.34-.52-1,.17-1.35l8.34-4.81A2.62,2.62,0,0,1,516.52,714.59Z"/><path class="cls-5" d="M545,715.43l-20.32.09v2.09a.65.65,0,0,0,.4.59l8.67,5a2.62,2.62,0,0,0,2.34-.09l8.34-4.82a1,1,0,0,0,.57-.76v-2.11Z"/><path class="cls-6" d="M535.9,709.83l8.68,5c.59.34.52.95-.17,1.35L536.07,721a2.62,2.62,0,0,1-2.34.1l-8.67-5c-.6-.35-.52-1,.17-1.35l8.34-4.81A2.57,2.57,0,0,1,535.9,709.83Z"/><path class="cls-5" d="M531.13,707.44l-20.32.08v2.09a.71.71,0,0,0,.4.6l8.68,5a2.57,2.57,0,0,0,2.33-.09l8.34-4.82a1,1,0,0,0,.57-.76v-2.1Z"/><path class="cls-6" d="M522.05,701.83l8.68,5c.6.35.52.95-.17,1.35L522.22,713a2.57,2.57,0,0,1-2.33.1l-8.68-5c-.6-.34-.52-1,.17-1.35l8.34-4.81A2.6,2.6,0,0,1,522.05,701.83Z"/><path class="cls-5" d="M517.29,699.44l-20.33.08v2.09a.71.71,0,0,0,.41.6l8.67,5a2.59,2.59,0,0,0,2.34-.09l8.33-4.82c.38-.22.58-.5.57-.76v-2.1Z"/><path class="cls-6" d="M508.21,693.83l8.67,5c.6.35.52.95-.17,1.35L508.38,705a2.59,2.59,0,0,1-2.34.1l-8.67-5c-.6-.34-.53-1,.16-1.35l8.34-4.81A2.62,2.62,0,0,1,508.21,693.83Z"/><path class="cls-5" d="M503.44,691.44l-20.33.08v2.09a.71.71,0,0,0,.41.6l8.67,5a2.62,2.62,0,0,0,2.34-.1l8.34-4.82a.93.93,0,0,0,.57-.76v-2.1Z"/><path class="cls-6" d="M494.36,685.83l8.67,5c.6.35.53.95-.16,1.35L494.53,697a2.62,2.62,0,0,1-2.34.09l-8.67-5c-.6-.34-.53-1,.17-1.34l8.33-4.82A2.62,2.62,0,0,1,494.36,685.83Z"/><path class="cls-5" d="M489.59,683.44l-20.32.08v2.09a.67.67,0,0,0,.4.6l8.67,5a2.62,2.62,0,0,0,2.34-.1l8.34-4.81a1,1,0,0,0,.57-.77v-2.1Z"/><path class="cls-6" d="M480.51,677.84l8.68,5c.59.35.52.95-.17,1.35L480.68,689a2.59,2.59,0,0,1-2.34.09l-8.67-5c-.6-.35-.52-1,.17-1.35l8.34-4.82A2.57,2.57,0,0,1,480.51,677.84Z"/><path class="cls-5" d="M475.74,675.44l-20.32.08v2.09a.7.7,0,0,0,.4.6l8.68,5a2.6,2.6,0,0,0,2.33-.1l8.34-4.81a1,1,0,0,0,.57-.77v-2.1Z"/><path class="cls-6" d="M466.66,669.84l8.68,5c.6.35.52.95-.17,1.35L466.83,681a2.57,2.57,0,0,1-2.33.09l-8.68-5c-.6-.35-.52-1,.17-1.35l8.34-4.82A2.57,2.57,0,0,1,466.66,669.84Z"/><path class="cls-5" d="M461.9,667.44l-20.33.09v2.08a.7.7,0,0,0,.41.6l8.67,5a2.59,2.59,0,0,0,2.34-.1l8.33-4.81a.94.94,0,0,0,.57-.77v-2.1Z"/><path class="cls-6" d="M452.82,661.84l8.67,5c.6.34.53.95-.17,1.34L453,673a2.62,2.62,0,0,1-2.34.1l-8.67-5c-.6-.35-.53-1,.16-1.35l8.34-4.82A2.62,2.62,0,0,1,452.82,661.84Z"/><path class="cls-5" d="M448.05,659.44l-20.33.09v2.09a.69.69,0,0,0,.41.59l8.67,5a2.59,2.59,0,0,0,2.34-.1l8.34-4.81a1,1,0,0,0,.57-.77h0Z"/><path class="cls-6" d="M439,653.84l8.67,5c.6.34.53.95-.16,1.35L439.14,665a2.62,2.62,0,0,1-2.34.1l-8.67-5c-.6-.35-.53-1,.17-1.35l8.33-4.81A2.59,2.59,0,0,1,439,653.84Z"/><path class="cls-5" d="M434.2,651.44l-20.32.09v2.09a.66.66,0,0,0,.4.59l8.67,5a2.59,2.59,0,0,0,2.34-.1l8.34-4.81a1,1,0,0,0,.57-.76v-2.11Z"/><path class="cls-6" d="M425.12,645.84l8.68,5c.6.34.52.95-.17,1.35L425.29,657a2.62,2.62,0,0,1-2.34.1l-8.67-5c-.6-.35-.52-1,.17-1.35l8.34-4.81A2.57,2.57,0,0,1,425.12,645.84Z"/><path class="cls-5" d="M420.35,643.44l-20.32.09v2.09a.69.69,0,0,0,.4.59l8.68,5a2.57,2.57,0,0,0,2.33-.09l8.34-4.82a1,1,0,0,0,.57-.76v-2.11Z"/><path class="cls-6" d="M411.28,637.84l8.67,5c.6.34.52.95-.17,1.35L411.44,649a2.6,2.6,0,0,1-2.33.1l-8.68-5c-.6-.34-.52-1,.17-1.35l8.34-4.81A2.62,2.62,0,0,1,411.28,637.84Z"/><path class="cls-5" d="M406.51,635.45l-20.33.08v2.09a.71.71,0,0,0,.41.6l8.67,5a2.59,2.59,0,0,0,2.34-.09l8.33-4.82c.38-.22.58-.5.57-.76v-2.1Z"/><path class="cls-6" d="M397.43,629.84l8.67,5c.6.35.53.95-.17,1.35L397.6,641a2.59,2.59,0,0,1-2.34.1l-8.67-5c-.6-.34-.53-1,.16-1.35l8.34-4.81A2.62,2.62,0,0,1,397.43,629.84Z"/><path class="cls-5" d="M412,622.74l-20.32.08v2.09a.7.7,0,0,0,.4.6l8.68,5a2.6,2.6,0,0,0,2.33-.1l8.34-4.81a1,1,0,0,0,.57-.77v-2.1Z"/><path class="cls-6" d="M403,617.14l8.67,5c.6.35.52,1-.17,1.35l-8.34,4.82a2.57,2.57,0,0,1-2.33.09l-8.68-5c-.59-.35-.52-.95.17-1.35l8.34-4.82A2.59,2.59,0,0,1,403,617.14Z"/><path class="cls-5" d="M425.89,630.73l-20.32.08v2.09a.68.68,0,0,0,.4.6l8.68,5a2.6,2.6,0,0,0,2.33-.1l8.34-4.81a1,1,0,0,0,.57-.77v-2.1Z"/><path class="cls-6" d="M416.81,625.13l8.68,5c.6.35.52,1-.17,1.35L417,636.3a2.57,2.57,0,0,1-2.33.09l-8.68-5c-.6-.35-.52-.95.17-1.35l8.34-4.82A2.57,2.57,0,0,1,416.81,625.13Z"/><path class="cls-5" d="M398.2,614.75l-20.33.08v2.09a.7.7,0,0,0,.41.6l8.67,5a2.62,2.62,0,0,0,2.34-.1l8.34-4.81a1,1,0,0,0,.57-.77v-2.1Z"/><path class="cls-6" d="M389.12,609.14l8.67,5c.6.35.53,1-.16,1.35l-8.34,4.82a2.62,2.62,0,0,1-2.34.09l-8.67-5c-.6-.34-.53-.95.16-1.34l8.34-4.82A2.62,2.62,0,0,1,389.12,609.14Z"/><path class="cls-5" d="M439.74,638.72l-20.33.08v2.09a.67.67,0,0,0,.4.6l8.67,5a2.62,2.62,0,0,0,2.34-.1l8.34-4.81a1,1,0,0,0,.57-.77v-2.1Z"/><path class="cls-6" d="M430.66,633.12l8.68,5c.59.35.52,1-.17,1.35l-8.34,4.82a2.59,2.59,0,0,1-2.34.09l-8.67-5c-.6-.35-.52-1,.17-1.35l8.34-4.82A2.57,2.57,0,0,1,430.66,633.12Z"/><path class="cls-5" d="M453.59,646.71l-20.33.08v2.09a.7.7,0,0,0,.41.6l8.67,5a2.62,2.62,0,0,0,2.34-.1l8.34-4.81a1,1,0,0,0,.57-.77v-2.1Z"/><path class="cls-6" d="M444.51,641.11l8.67,5c.6.34.53.94-.17,1.34l-8.33,4.82a2.59,2.59,0,0,1-2.34.09l-8.67-5c-.6-.35-.53-1,.16-1.35l8.34-4.82A2.59,2.59,0,0,1,444.51,641.11Z"/><path class="cls-5" d="M467.43,654.7l-20.32.09v2.08a.7.7,0,0,0,.4.6l8.68,5a2.57,2.57,0,0,0,2.33-.1l8.34-4.81a1,1,0,0,0,.57-.77v-2.1Z"/><path class="cls-6" d="M458.36,649.1l8.67,5c.6.34.52.95-.17,1.34l-8.34,4.82a2.6,2.6,0,0,1-2.33.1l-8.68-5c-.59-.35-.52-1,.17-1.35l8.34-4.82A2.62,2.62,0,0,1,458.36,649.1Z"/><path class="cls-5" d="M481.28,662.69l-20.32.09v2.09a.68.68,0,0,0,.4.59l8.68,5a2.57,2.57,0,0,0,2.33-.1l8.34-4.81a1,1,0,0,0,.57-.77h0Z"/><path class="cls-6" d="M472.2,657.09l8.68,5c.6.34.52.95-.17,1.35l-8.34,4.81a2.6,2.6,0,0,1-2.33.1l-8.68-5c-.6-.35-.52-1,.17-1.35l8.34-4.81A2.57,2.57,0,0,1,472.2,657.09Z"/><path class="cls-5" d="M495.13,670.68l-20.33.09v2.09a.69.69,0,0,0,.41.59l8.67,5a2.59,2.59,0,0,0,2.34-.1l8.34-4.81a1,1,0,0,0,.57-.77h0Z"/><path class="cls-6" d="M486.05,665.08l8.67,5c.6.34.53.95-.16,1.35l-8.34,4.81a2.62,2.62,0,0,1-2.34.1l-8.67-5c-.6-.35-.52-1,.17-1.35l8.33-4.81A2.59,2.59,0,0,1,486.05,665.08Z"/><path class="cls-5" d="M509,678.67l-20.33.09v2.09a.69.69,0,0,0,.41.59l8.67,5a2.59,2.59,0,0,0,2.34-.1l8.33-4.81a1,1,0,0,0,.58-.76v-2.11Z"/><path class="cls-6" d="M499.9,673.07l8.67,5c.6.34.53.95-.17,1.35l-8.33,4.81a2.62,2.62,0,0,1-2.34.1l-8.67-5c-.6-.35-.53-1,.16-1.35l8.34-4.81A2.59,2.59,0,0,1,499.9,673.07Z"/><path class="cls-5" d="M522.82,686.66l-20.32.09v2.09a.7.7,0,0,0,.4.59l8.68,5a2.57,2.57,0,0,0,2.33-.1l8.34-4.81a1,1,0,0,0,.57-.76v-2.11Z"/><path class="cls-6" d="M513.75,681.06l8.67,5c.6.34.52.95-.17,1.35l-8.34,4.81a2.6,2.6,0,0,1-2.33.1l-8.68-5c-.6-.35-.52-1,.17-1.35l8.34-4.81A2.59,2.59,0,0,1,513.75,681.06Z"/><path class="cls-5" d="M536.67,694.65l-20.32.09v2.09a.67.67,0,0,0,.4.59l8.67,5a2.62,2.62,0,0,0,2.34-.09l8.34-4.82a1,1,0,0,0,.57-.76v-2.11Z"/><path class="cls-6" d="M527.59,689.05l8.68,5c.6.34.52,1-.17,1.35l-8.34,4.81a2.62,2.62,0,0,1-2.34.1l-8.67-5c-.6-.35-.52-.95.17-1.35l8.34-4.81A2.6,2.6,0,0,1,527.59,689.05Z"/><path class="cls-5" d="M550.52,702.65l-20.33.08v2.09a.71.71,0,0,0,.41.6l8.67,5a2.59,2.59,0,0,0,2.34-.09l8.34-4.82a1,1,0,0,0,.57-.76v-2.1Z"/><path class="cls-6" d="M541.44,697l8.67,5c.6.34.53,1-.16,1.35l-8.34,4.81a2.62,2.62,0,0,1-2.34.1l-8.67-5c-.6-.34-.53-.95.17-1.35l8.33-4.81A2.62,2.62,0,0,1,541.44,697Z"/><path class="cls-5" d="M564.37,710.64l-20.33.08v2.09a.71.71,0,0,0,.41.6l8.67,5a2.59,2.59,0,0,0,2.34-.09l8.33-4.82c.38-.22.58-.5.57-.76v-2.1Z"/><path class="cls-6" d="M555.29,705l8.67,5c.6.35.53,1-.17,1.35l-8.33,4.81a2.59,2.59,0,0,1-2.34.1l-8.67-5c-.6-.34-.53-.95.16-1.35l8.34-4.81A2.62,2.62,0,0,1,555.29,705Z"/><path class="cls-5" d="M431.49,617.84l-20.32.08V620a.7.7,0,0,0,.4.6l8.68,5a2.6,2.6,0,0,0,2.33-.1l8.34-4.81a1,1,0,0,0,.57-.77v-2.1Z"/><path class="cls-6" d="M422.42,612.24l8.67,5c.6.35.52,1-.17,1.35l-8.34,4.82a2.57,2.57,0,0,1-2.33.09l-8.68-5c-.6-.35-.52-1,.17-1.35l8.34-4.82A2.59,2.59,0,0,1,422.42,612.24Z"/><path class="cls-5" d="M445.34,625.83l-20.32.08V628a.68.68,0,0,0,.4.6l8.67,5a2.62,2.62,0,0,0,2.34-.1l8.34-4.81a1,1,0,0,0,.57-.77v-2.1Z"/><path class="cls-6" d="M436.26,620.23l8.68,5c.6.35.52.95-.17,1.35l-8.34,4.82a2.59,2.59,0,0,1-2.34.09l-8.67-5c-.6-.35-.52-1,.17-1.35l8.34-4.82A2.57,2.57,0,0,1,436.26,620.23Z"/><path class="cls-5" d="M417.65,609.85l-26.84-3.62v2.08a.67.67,0,0,0,.4.6l15.19,8.72a2.62,2.62,0,0,0,2.34-.1l8.33-4.81a.94.94,0,0,0,.57-.77v-2.1Z"/><path class="cls-6" d="M402.05,600.54l15.19,8.71c.6.35.53,1-.17,1.35l-8.33,4.82a2.59,2.59,0,0,1-2.34.09l-15.19-8.71c-.6-.35-.52-.95.17-1.35l8.34-4.82A2.6,2.6,0,0,1,402.05,600.54Z"/><path class="cls-5" d="M459.19,633.82l-20.33.09V636a.7.7,0,0,0,.41.6l8.67,5a2.62,2.62,0,0,0,2.34-.1l8.34-4.81a1,1,0,0,0,.57-.77v-2.1Z"/><path class="cls-6" d="M450.11,628.22l8.67,5c.6.34.53.95-.16,1.34l-8.34,4.82a2.62,2.62,0,0,1-2.34.1l-8.67-5c-.6-.35-.53-1,.17-1.35l8.33-4.82A2.62,2.62,0,0,1,450.11,628.22Z"/><path class="cls-5" d="M473,641.81l-20.33.09V644a.7.7,0,0,0,.41.6l8.67,5a2.59,2.59,0,0,0,2.34-.1l8.33-4.81a.94.94,0,0,0,.57-.77h0Z"/><path class="cls-6" d="M464,636.21l8.67,5c.6.34.53.95-.17,1.34l-8.33,4.82a2.62,2.62,0,0,1-2.34.1l-8.67-5c-.6-.35-.53-1,.16-1.35l8.34-4.81A2.59,2.59,0,0,1,464,636.21Z"/><path class="cls-5" d="M486.88,649.8l-20.32.09V652a.7.7,0,0,0,.4.59l8.68,5a2.57,2.57,0,0,0,2.33-.1l8.34-4.81a1,1,0,0,0,.57-.77h0Z"/><path class="cls-6" d="M477.81,644.2l8.67,5c.6.34.52.95-.17,1.35L478,655.37a2.6,2.6,0,0,1-2.33.1l-8.68-5c-.6-.35-.52-1,.17-1.35l8.34-4.81A2.59,2.59,0,0,1,477.81,644.2Z"/><path class="cls-5" d="M500.73,657.79l-20.32.09V660a.66.66,0,0,0,.4.59l8.67,5a2.59,2.59,0,0,0,2.34-.1l8.34-4.81a1,1,0,0,0,.57-.77h0Z"/><path class="cls-6" d="M491.65,652.19l8.68,5c.6.34.52.95-.17,1.35l-8.34,4.81a2.62,2.62,0,0,1-2.34.1l-8.67-5c-.6-.35-.52-1,.17-1.35l8.34-4.81A2.57,2.57,0,0,1,491.65,652.19Z"/><path class="cls-5" d="M514.58,665.78l-20.33.09V668a.69.69,0,0,0,.41.59l8.67,5a2.59,2.59,0,0,0,2.34-.1l8.34-4.81a1,1,0,0,0,.57-.76v-2.11Z"/><path class="cls-6" d="M505.5,660.18l8.67,5c.6.34.53.95-.16,1.35l-8.34,4.81a2.62,2.62,0,0,1-2.34.1l-8.67-5c-.6-.35-.53-1,.17-1.35l8.33-4.81A2.59,2.59,0,0,1,505.5,660.18Z"/><path class="cls-5" d="M528.43,673.77l-20.33.09V676a.68.68,0,0,0,.41.59l8.67,5a2.62,2.62,0,0,0,2.34-.09l8.33-4.82c.38-.22.58-.5.57-.76v-2.11Z"/><path class="cls-6" d="M519.35,668.17l8.67,5c.6.34.53,1-.17,1.35l-8.33,4.81a2.62,2.62,0,0,1-2.34.1l-8.67-5c-.6-.35-.53-.95.16-1.35l8.34-4.81A2.59,2.59,0,0,1,519.35,668.17Z"/><path class="cls-5" d="M542.27,681.76l-20.32.09v2.09a.71.71,0,0,0,.4.6l8.68,5a2.57,2.57,0,0,0,2.33-.09l8.34-4.82a1,1,0,0,0,.57-.76v-2.11Z"/><path class="cls-6" d="M533.2,676.16l8.67,5c.6.34.52,1-.17,1.35l-8.34,4.81a2.6,2.6,0,0,1-2.33.1l-8.68-5c-.6-.34-.52-.95.17-1.35l8.34-4.81A2.62,2.62,0,0,1,533.2,676.16Z"/><path class="cls-5" d="M556.12,689.76l-20.32.08v2.09a.68.68,0,0,0,.4.6l8.67,5a2.59,2.59,0,0,0,2.34-.09l8.34-4.82a1,1,0,0,0,.57-.76v-2.1Z"/><path class="cls-6" d="M547,684.15l8.68,5c.6.35.52,1-.17,1.35l-8.34,4.81a2.59,2.59,0,0,1-2.34.1l-8.67-5c-.6-.34-.52-.95.17-1.35l8.34-4.81A2.6,2.6,0,0,1,547,684.15Z"/><path class="cls-5" d="M570,697.75l-20.33.08v2.09a.71.71,0,0,0,.41.6l8.67,5a2.59,2.59,0,0,0,2.34-.09l8.34-4.82a1,1,0,0,0,.57-.76v-2.1Z"/><path class="cls-6" d="M560.89,692.14l8.67,5c.6.35.53,1-.16,1.35l-8.34,4.81a2.59,2.59,0,0,1-2.34.1l-8.67-5c-.6-.34-.53-.95.17-1.35l8.33-4.81A2.62,2.62,0,0,1,560.89,692.14Z"/><path class="cls-5" d="M583.82,705.74l-20.33.08v2.09a.71.71,0,0,0,.41.6l8.67,5a2.59,2.59,0,0,0,2.34-.09l8.33-4.82c.38-.22.58-.5.57-.76v-2.1Z"/><path class="cls-6" d="M574.74,700.13l8.67,5c.6.35.52,1-.17,1.35l-8.33,4.81a2.59,2.59,0,0,1-2.34.1l-8.67-5c-.6-.34-.53-.95.16-1.35l8.34-4.81A2.62,2.62,0,0,1,574.74,700.13Z"/><path class="cls-5" d="M597.6,713.8l-20.32.08V716a.67.67,0,0,0,.4.6l8.67,5a2.62,2.62,0,0,0,2.34-.1l8.34-4.81a1,1,0,0,0,.57-.77v-2.1Z"/><path class="cls-6" d="M588.52,708.2l8.68,5c.59.35.52.95-.17,1.35l-8.34,4.82a2.59,2.59,0,0,1-2.34.09l-8.67-5c-.6-.35-.52-1,.17-1.35l8.34-4.82A2.57,2.57,0,0,1,588.52,708.2Z"/><path class="cls-5" d="M583.82,721.71l-26.5-3.56v2.09a.69.69,0,0,0,.4.6l14.85,8.65a2.59,2.59,0,0,0,2.34-.09l8.33-4.82c.38-.22.58-.5.57-.76v-2.11Z"/><path class="cls-6" d="M568.56,712.46l14.85,8.66c.6.34.52,1-.17,1.35l-8.33,4.81a2.62,2.62,0,0,1-2.34.1l-14.85-8.66c-.6-.34-.52-1,.17-1.35l8.34-4.81A2.6,2.6,0,0,1,568.56,712.46Z"/><path class="cls-5" d="M439.81,606.77l-20.32.08v2.09a.71.71,0,0,0,.4.6l8.68,5a2.6,2.6,0,0,0,2.33-.1l8.34-4.82a1,1,0,0,0,.57-.76v-2.1Z"/><path class="cls-6" d="M430.73,601.16l8.68,5c.6.35.52,1-.17,1.35l-8.34,4.81a2.57,2.57,0,0,1-2.33.1l-8.68-5c-.6-.34-.52-.95.17-1.35l8.34-4.81A2.6,2.6,0,0,1,430.73,601.16Z"/><path class="cls-5" d="M453.66,614.76l-20.32.08v2.09a.68.68,0,0,0,.4.6l8.67,5a2.62,2.62,0,0,0,2.34-.1l8.34-4.82a.93.93,0,0,0,.57-.76v-2.1Z"/><path class="cls-6" d="M444.58,609.15l8.68,5c.59.35.52,1-.17,1.35l-8.34,4.82a2.62,2.62,0,0,1-2.34.09l-8.67-5c-.6-.34-.52-.95.17-1.34l8.34-4.82A2.6,2.6,0,0,1,444.58,609.15Z"/><path class="cls-5" d="M426,598.78l-20.33.08V601a.71.71,0,0,0,.41.6l8.67,5a2.59,2.59,0,0,0,2.34-.09l8.33-4.82c.38-.22.58-.5.57-.76v-2.1Z"/><path class="cls-6" d="M416.89,593.17l8.67,5c.6.35.53,1-.17,1.35l-8.33,4.81a2.59,2.59,0,0,1-2.34.1l-8.67-5c-.6-.34-.53-.95.16-1.35l8.34-4.81A2.62,2.62,0,0,1,416.89,593.17Z"/><path class="cls-5" d="M467.51,622.75l-20.33.08v2.09a.7.7,0,0,0,.41.6l8.67,5a2.62,2.62,0,0,0,2.34-.1l8.34-4.81a1,1,0,0,0,.57-.77v-2.1Z"/><path class="cls-6" d="M458.43,617.14l8.67,5c.6.35.53,1-.16,1.35l-8.34,4.82a2.62,2.62,0,0,1-2.34.09l-8.67-5c-.6-.34-.53-.95.17-1.34l8.33-4.82A2.62,2.62,0,0,1,458.43,617.14Z"/><path class="cls-5" d="M481.36,630.74l-20.33.08v2.09a.7.7,0,0,0,.4.6l8.68,5a2.62,2.62,0,0,0,2.34-.1l8.33-4.81a.94.94,0,0,0,.57-.77v-2.1Z"/><path class="cls-6" d="M472.28,625.14l8.67,5c.6.35.52,1-.17,1.35l-8.34,4.82a2.57,2.57,0,0,1-2.33.09l-8.68-5c-.59-.35-.52-.95.17-1.35l8.34-4.82A2.59,2.59,0,0,1,472.28,625.14Z"/><path class="cls-5" d="M495.2,638.73l-20.32.08v2.09a.7.7,0,0,0,.4.6l8.68,5a2.6,2.6,0,0,0,2.33-.1l8.34-4.81a1,1,0,0,0,.57-.77v-2.1Z"/><path class="cls-6" d="M486.12,633.13l8.68,5c.6.35.52,1-.17,1.35l-8.34,4.82a2.57,2.57,0,0,1-2.33.09l-8.68-5c-.6-.35-.52-.95.17-1.35l8.34-4.82A2.57,2.57,0,0,1,486.12,633.13Z"/><path class="cls-5" d="M509.05,646.72l-20.32.08v2.09a.67.67,0,0,0,.4.6l8.67,5a2.62,2.62,0,0,0,2.34-.1l8.34-4.81a1,1,0,0,0,.57-.77v-2.1Z"/><path class="cls-6" d="M500,641.12l8.68,5c.59.35.52,1-.17,1.35l-8.34,4.82a2.59,2.59,0,0,1-2.34.09l-8.67-5c-.6-.35-.52-1,.17-1.35l8.34-4.82A2.57,2.57,0,0,1,500,641.12Z"/><path class="cls-5" d="M522.9,654.71l-20.33.08v2.09a.7.7,0,0,0,.41.6l8.67,5a2.62,2.62,0,0,0,2.34-.1l8.34-4.81a1,1,0,0,0,.57-.77v-2.1Z"/><path class="cls-6" d="M513.82,649.11l8.67,5c.6.34.53.94-.16,1.34L514,660.28a2.59,2.59,0,0,1-2.34.09l-8.67-5c-.6-.35-.53-1,.16-1.35l8.34-4.82A2.59,2.59,0,0,1,513.82,649.11Z"/><path class="cls-5" d="M536.74,662.7l-20.32.09v2.08a.7.7,0,0,0,.4.6l8.68,5a2.57,2.57,0,0,0,2.33-.1l8.34-4.81a.94.94,0,0,0,.57-.77v-2.1Z"/><path class="cls-6" d="M527.67,657.1l8.67,5c.6.34.52.95-.17,1.34l-8.34,4.82a2.6,2.6,0,0,1-2.33.1l-8.68-5c-.59-.35-.52-1,.17-1.35l8.34-4.82A2.62,2.62,0,0,1,527.67,657.1Z"/><path class="cls-5" d="M550.59,670.69l-20.32.09v2.09a.7.7,0,0,0,.4.59l8.68,5a2.57,2.57,0,0,0,2.33-.1l8.34-4.81a1,1,0,0,0,.57-.77h0Z"/><path class="cls-6" d="M541.51,665.09l8.68,5c.6.34.52.95-.17,1.35l-8.34,4.81a2.6,2.6,0,0,1-2.33.1l-8.68-5c-.6-.35-.52-1,.17-1.35l8.34-4.81A2.57,2.57,0,0,1,541.51,665.09Z"/><path class="cls-5" d="M564.44,678.68l-20.32.09v2.09a.66.66,0,0,0,.4.59l8.67,5a2.59,2.59,0,0,0,2.34-.1l8.34-4.81a1,1,0,0,0,.57-.77h0Z"/><path class="cls-6" d="M555.36,673.08l8.68,5c.59.34.52.95-.17,1.35l-8.34,4.81a2.62,2.62,0,0,1-2.34.1l-8.67-5c-.6-.35-.52-1,.17-1.35l8.34-4.81A2.57,2.57,0,0,1,555.36,673.08Z"/><path class="cls-5" d="M578.29,686.67l-20.33.09v2.09a.69.69,0,0,0,.41.59l8.67,5a2.59,2.59,0,0,0,2.34-.1l8.34-4.81a1,1,0,0,0,.57-.76v-2.11Z"/><path class="cls-6" d="M569.21,681.07l8.67,5c.6.34.53.95-.16,1.35l-8.34,4.81a2.62,2.62,0,0,1-2.34.1l-8.67-5c-.6-.35-.53-1,.16-1.35l8.34-4.81A2.59,2.59,0,0,1,569.21,681.07Z"/><path class="cls-5" d="M592.13,694.66l-20.32.09v2.09a.7.7,0,0,0,.4.59l8.68,5a2.6,2.6,0,0,0,2.33-.09l8.34-4.82a1,1,0,0,0,.57-.76v-2.11Z"/><path class="cls-6" d="M583.06,689.06l8.67,5c.6.34.52.95-.17,1.35l-8.34,4.81a2.6,2.6,0,0,1-2.33.1l-8.68-5c-.59-.35-.52-1,.17-1.35l8.34-4.81A2.59,2.59,0,0,1,583.06,689.06Z"/><path class="cls-5" d="M367.47,565.39l-20.32.09v2.09a.68.68,0,0,0,.4.59l8.68,5a2.57,2.57,0,0,0,2.33-.1l8.34-4.81a1,1,0,0,0,.57-.77h0Z"/><path class="cls-6" d="M358.39,559.79l8.68,5c.6.34.52,1-.17,1.35L358.56,571a2.62,2.62,0,0,1-2.34.1l-8.67-5c-.6-.35-.52-.95.17-1.35l8.34-4.81A2.57,2.57,0,0,1,358.39,559.79Z"/><path class="cls-5" d="M381.32,573.38l-20.33.09v2.09a.69.69,0,0,0,.41.59l8.67,5a2.59,2.59,0,0,0,2.34-.1l8.34-4.81a1,1,0,0,0,.57-.77h0Z"/><path class="cls-6" d="M372.24,567.78l8.67,5c.6.34.53,1-.16,1.35L372.41,579a2.62,2.62,0,0,1-2.34.1l-8.67-5c-.6-.35-.53-.95.17-1.35l8.33-4.81A2.59,2.59,0,0,1,372.24,567.78Z"/><path class="cls-5" d="M395.17,581.37l-20.33.09v2.09a.69.69,0,0,0,.41.59l8.67,5a2.59,2.59,0,0,0,2.34-.1l8.33-4.81a1,1,0,0,0,.58-.76v-2.11Z"/><path class="cls-6" d="M386.09,575.77l8.67,5c.6.34.53,1-.17,1.35l-8.33,4.81a2.62,2.62,0,0,1-2.34.1l-8.67-5c-.6-.35-.53-.95.16-1.35l8.34-4.81A2.59,2.59,0,0,1,386.09,575.77Z"/><path class="cls-5" d="M409,589.36l-20.32.09v2.09a.7.7,0,0,0,.4.59l8.68,5a2.6,2.6,0,0,0,2.33-.09l8.34-4.82a1,1,0,0,0,.57-.76v-2.11Z"/><path class="cls-6" d="M399.94,583.76l8.67,5c.6.34.52,1-.17,1.35l-8.34,4.81a2.6,2.6,0,0,1-2.33.1l-8.68-5c-.6-.35-.52-.95.17-1.35l8.34-4.81A2.59,2.59,0,0,1,399.94,583.76Z"/><path class="cls-5" d="M611.52,705.74,585,702.18v2.09a.69.69,0,0,0,.4.59l14.87,8.65a2.59,2.59,0,0,0,2.34-.09L611,708.6a1,1,0,0,0,.57-.76v-2.1Z"/><path class="cls-6" d="M596.24,696.49l14.88,8.65c.59.35.52,1-.17,1.35l-8.34,4.81a2.59,2.59,0,0,1-2.34.1l-14.87-8.65c-.6-.34-.52-1,.17-1.35l8.34-4.81A2.6,2.6,0,0,1,596.24,696.49Z"/><path class="cls-5" d="M511.75,712.18l-20.33.09v2.09a.69.69,0,0,0,.41.59l8.67,5a2.59,2.59,0,0,0,2.34-.1l8.34-4.81a1,1,0,0,0,.57-.77h0Z"/><path class="cls-6" d="M502.67,706.58l8.67,5c.6.34.53.95-.17,1.35l-8.33,4.81a2.62,2.62,0,0,1-2.34.1l-8.67-5c-.6-.35-.53-1,.16-1.35l8.34-4.81A2.59,2.59,0,0,1,502.67,706.58Z"/><path class="cls-5" d="M497.9,704.17l-20.32.08v2.09a.68.68,0,0,0,.4.6l8.67,5a2.62,2.62,0,0,0,2.34-.1l8.34-4.82a1,1,0,0,0,.57-.76v-2.1Z"/><path class="cls-6" d="M488.82,698.56l8.68,5c.59.35.52.95-.17,1.35L489,709.73a2.59,2.59,0,0,1-2.34.1l-8.67-5c-.6-.34-.52-1,.17-1.35l8.34-4.81A2.6,2.6,0,0,1,488.82,698.56Z"/><path class="cls-5" d="M484.05,696.15l-20.32.09v2.09a.68.68,0,0,0,.4.59l8.68,5a2.57,2.57,0,0,0,2.33-.1l8.34-4.81a1,1,0,0,0,.57-.77h0Z"/><path class="cls-6" d="M475,690.55l8.68,5c.6.34.52,1-.17,1.35l-8.34,4.81a2.6,2.6,0,0,1-2.33.1l-8.68-5c-.6-.35-.52-.95.17-1.35l8.34-4.81A2.57,2.57,0,0,1,475,690.55Z"/><path class="cls-5" d="M470.2,688.14l-20.32.08v2.09a.71.71,0,0,0,.4.6l8.68,5a2.6,2.6,0,0,0,2.33-.1l8.34-4.82a.93.93,0,0,0,.57-.76v-2.1Z"/><path class="cls-6" d="M461.13,682.53l8.67,5c.6.35.52,1-.17,1.35l-8.34,4.81a2.57,2.57,0,0,1-2.33.1l-8.68-5c-.59-.34-.52-.95.17-1.34l8.34-4.82A2.62,2.62,0,0,1,461.13,682.53Z"/><path class="cls-5" d="M456.36,680.12l-20.33.09v2.09a.69.69,0,0,0,.41.59l8.67,5a2.59,2.59,0,0,0,2.34-.1l8.34-4.81a1,1,0,0,0,.57-.77h0Z"/><path class="cls-6" d="M447.28,674.52l8.67,5c.6.34.53,1-.16,1.35l-8.34,4.81a2.62,2.62,0,0,1-2.34.1l-8.67-5c-.6-.35-.53-.95.16-1.35l8.34-4.81A2.59,2.59,0,0,1,447.28,674.52Z"/><path class="cls-5" d="M442.51,672.11l-20.32.08v2.09a.68.68,0,0,0,.4.6l8.67,5a2.62,2.62,0,0,0,2.34-.1l8.34-4.81a1,1,0,0,0,.57-.77v-2.1Z"/><path class="cls-6" d="M433.43,666.5l8.68,5c.59.35.52,1-.17,1.35l-8.34,4.82a2.62,2.62,0,0,1-2.34.09l-8.67-5c-.6-.34-.52-1,.17-1.34l8.34-4.82A2.6,2.6,0,0,1,433.43,666.5Z"/><path class="cls-5" d="M428.66,664.09l-20.32.09v2.09a.7.7,0,0,0,.4.59l8.68,5a2.57,2.57,0,0,0,2.33-.1l8.34-4.81a1,1,0,0,0,.57-.76v-2.11Z"/><path class="cls-6" d="M419.58,658.49l8.68,5c.6.34.52,1-.17,1.35l-8.34,4.81a2.6,2.6,0,0,1-2.33.1l-8.68-5c-.6-.35-.52-1,.17-1.35l8.34-4.81A2.57,2.57,0,0,1,419.58,658.49Z"/><path class="cls-5" d="M414.81,656.08l-20.32.08v2.09a.7.7,0,0,0,.4.6l8.68,5a2.6,2.6,0,0,0,2.33-.1l8.34-4.81a1,1,0,0,0,.57-.77v-2.1Z"/><path class="cls-6" d="M405.74,650.47l8.67,5c.6.35.52.95-.17,1.35l-8.34,4.82a2.6,2.6,0,0,1-2.33.09l-8.68-5c-.59-.34-.52-.94.17-1.34l8.34-4.82A2.62,2.62,0,0,1,405.74,650.47Z"/><path class="cls-5" d="M401,648.06l-20.33.09v2.09a.69.69,0,0,0,.41.59l8.67,5a2.59,2.59,0,0,0,2.34-.1l8.34-4.81a1,1,0,0,0,.57-.76v-2.11Z"/><path class="cls-6" d="M391.89,642.46l8.67,5c.6.34.53.95-.16,1.35l-8.34,4.81a2.62,2.62,0,0,1-2.34.1l-8.67-5c-.6-.35-.53-1,.16-1.35l8.34-4.81A2.59,2.59,0,0,1,391.89,642.46Z"/><path class="cls-5" d="M377,650.41l-27.62-4.22v2.09a.71.71,0,0,0,.41.6l16,9.31a2.62,2.62,0,0,0,2.34-.1l8.34-4.81a1,1,0,0,0,.57-.77v-2.1Z"/><path class="cls-6" d="M360.59,640.5l16,9.31c.6.35.53,1-.17,1.35L368.05,656a2.59,2.59,0,0,1-2.34.09l-16-9.31c-.6-.34-.53-1,.16-1.35l8.34-4.81A2.62,2.62,0,0,1,360.59,640.5Z"/><path class="cls-5" d="M392.6,627.35l-29.45-5.16v2.09a.71.71,0,0,0,.4.6l17.8,10.24a2.59,2.59,0,0,0,2.34-.09l8.34-4.82a1,1,0,0,0,.57-.76v-2.1Z"/><path class="cls-6" d="M374.4,616.5l17.79,10.25c.6.35.53,1-.16,1.35l-8.34,4.81a2.59,2.59,0,0,1-2.34.1l-17.8-10.25c-.6-.34-.52-1,.17-1.35l8.34-4.81A2.62,2.62,0,0,1,374.4,616.5Z"/><path class="cls-5" d="M356.66,638.67l-20.33.09v2.09a.69.69,0,0,0,.41.59l8.67,5a2.59,2.59,0,0,0,2.34-.1l8.33-4.81c.38-.22.58-.5.57-.76v-2.11Z"/><path class="cls-6" d="M347.58,633.07l8.67,5c.6.34.53.95-.17,1.35l-8.33,4.81a2.62,2.62,0,0,1-2.34.1l-8.67-5c-.6-.35-.53-1,.16-1.35l8.34-4.81A2.59,2.59,0,0,1,347.58,633.07Z"/><path class="cls-5" d="M514.52,729.8l-20.33.08V732a.71.71,0,0,0,.41.6l8.67,5a2.59,2.59,0,0,0,2.34-.09l8.33-4.82a1,1,0,0,0,.58-.76v-2.1Z"/><path class="cls-6" d="M505.44,724.19l8.67,5c.6.35.53.95-.17,1.35l-8.33,4.81a2.62,2.62,0,0,1-2.34.1l-8.67-5c-.6-.34-.53-1,.16-1.35l8.34-4.81A2.62,2.62,0,0,1,505.44,724.19Z"/><path class="cls-5" d="M500.67,721.8,470,716v2.09a.71.71,0,0,0,.4.6l19,10.91a2.62,2.62,0,0,0,2.34-.1l8.34-4.81a1,1,0,0,0,.57-.77v-2.1Z"/><path class="cls-6" d="M481.29,710.29l19,10.91c.6.35.53.95-.16,1.35l-8.34,4.82a2.59,2.59,0,0,1-2.34.09l-19-10.91c-.6-.34-.52-.95.17-1.34l8.34-4.82A2.62,2.62,0,0,1,481.29,710.29Z"/><path class="cls-5" d="M570,729.77l-32.49-7v2.09a.71.71,0,0,0,.41.6l20.84,12.06a2.57,2.57,0,0,0,2.33-.1l8.34-4.81a1,1,0,0,0,.57-.77h0Z"/><path class="cls-6" d="M548.75,717.11l20.84,12.07c.6.34.52,1-.17,1.35l-8.34,4.81a2.6,2.6,0,0,1-2.33.1l-20.84-12.07c-.6-.34-.53-1,.17-1.34l8.33-4.82A2.62,2.62,0,0,1,548.75,717.11Z"/><path class="cls-5" d="M556.1,737.62l-38-10.12v2.09a.68.68,0,0,0,.4.59l26.34,15.22a2.6,2.6,0,0,0,2.33-.1l8.34-4.81a1,1,0,0,0,.57-.77v-2.1Z"/><path class="cls-6" d="M529.36,721.81,555.7,737c.6.35.52,1-.17,1.35l-8.34,4.82a2.6,2.6,0,0,1-2.33.09l-26.34-15.21c-.6-.35-.52-1,.17-1.35l8.34-4.81A2.57,2.57,0,0,1,529.36,721.81Z"/><path class="cls-5" d="M387.13,640.28l-38-10.12v2.08a.7.7,0,0,0,.41.6l26.33,15.22a2.62,2.62,0,0,0,2.34-.1l8.34-4.82a.93.93,0,0,0,.57-.76v-2.1Z"/><path class="cls-6" d="M360.39,624.47l26.34,15.21c.6.35.52,1-.17,1.35l-8.34,4.81a2.59,2.59,0,0,1-2.34.1l-26.33-15.21c-.6-.35-.53-1,.17-1.35l8.33-4.82A2.62,2.62,0,0,1,360.39,624.47Z"/><path class="cls-5" d="M400.12,663.8,369.49,658v2.09a.7.7,0,0,0,.41.6l19,10.91a2.57,2.57,0,0,0,2.33-.1l8.34-4.81a1,1,0,0,0,.57-.76V663.8Z"/><path class="cls-6" d="M380.74,652.3l19,10.91c.6.34.52.95-.17,1.35l-8.34,4.81a2.6,2.6,0,0,1-2.33.1l-19-10.91c-.6-.35-.53-.95.17-1.35l8.33-4.82A2.59,2.59,0,0,1,380.74,652.3Z"/><path class="cls-5" d="M477.66,708.45l-84.25-36.81v2.09a.68.68,0,0,0,.4.6l72.6,41.9a2.59,2.59,0,0,0,2.34-.1l8.34-4.81a1,1,0,0,0,.57-.77h0Z"/><path class="cls-6" d="M404.65,666l72.6,41.91c.6.34.53.95-.16,1.35L468.75,714a2.62,2.62,0,0,1-2.34.1l-72.6-41.91c-.6-.34-.52-1,.17-1.35l8.34-4.81A2.6,2.6,0,0,1,404.65,666Z"/><path class="cls-5" d="M353.62,573.38l-20.32.09v2.09a.7.7,0,0,0,.4.59l8.68,5a2.57,2.57,0,0,0,2.33-.1l8.34-4.81a1,1,0,0,0,.57-.77h0Z"/><path class="cls-6" d="M344.55,567.78l8.67,5c.6.34.52,1-.17,1.35L344.71,579a2.6,2.6,0,0,1-2.33.1l-8.68-5c-.6-.35-.52-.95.17-1.35l8.34-4.81A2.59,2.59,0,0,1,344.55,567.78Z"/><path class="cls-5" d="M367.47,581.37l-20.32.09v2.09a.68.68,0,0,0,.4.59l8.68,5a2.57,2.57,0,0,0,2.33-.1l8.34-4.81a1,1,0,0,0,.57-.76v-2.11Z"/><path class="cls-6" d="M358.39,575.77l8.68,5c.6.34.52,1-.17,1.35l-8.34,4.81a2.62,2.62,0,0,1-2.34.1l-8.67-5c-.6-.35-.52-.95.17-1.35l8.34-4.81A2.57,2.57,0,0,1,358.39,575.77Z"/><path class="cls-5" d="M339.78,581.79l-34.27,7.47v2.09a.71.71,0,0,0,.4.6l8.68,5a2.57,2.57,0,0,0,2.33-.09l22.28-12.2a1,1,0,0,0,.58-.76v-2.11Z"/><path class="cls-6" d="M330.7,576.19l8.67,5c.6.34.53.95-.17,1.35l-22.28,12.19a2.57,2.57,0,0,1-2.33.1l-8.68-5c-.6-.34-.52-1,.17-1.35l22.28-12.19A2.59,2.59,0,0,1,330.7,576.19Z"/><path class="cls-5" d="M381.32,589.36l-20.33.09v2.09a.69.69,0,0,0,.41.59l8.67,5a2.62,2.62,0,0,0,2.34-.09l8.34-4.82a1,1,0,0,0,.57-.76v-2.11Z"/><path class="cls-6" d="M372.24,583.76l8.67,5c.6.34.53,1-.16,1.35l-8.34,4.81a2.62,2.62,0,0,1-2.34.1l-8.67-5c-.6-.35-.53-.95.17-1.35l8.33-4.81A2.59,2.59,0,0,1,372.24,583.76Z"/><path class="cls-5" d="M395.17,597.35l-20.33.09v2.09a.68.68,0,0,0,.41.59l8.67,5a2.62,2.62,0,0,0,2.34-.09l8.33-4.82a1,1,0,0,0,.58-.76v-2.11Z"/><path class="cls-6" d="M386.09,591.75l8.67,5c.6.34.53,1-.17,1.35l-8.33,4.81a2.62,2.62,0,0,1-2.34.1l-8.67-5c-.6-.35-.53-1,.16-1.35l8.34-4.81A2.62,2.62,0,0,1,386.09,591.75Z"/><path class="cls-5" d="M353.62,589.36l-20.32.09v2.09a.7.7,0,0,0,.4.59l8.68,5a2.6,2.6,0,0,0,2.33-.09l8.34-4.82a1,1,0,0,0,.57-.76v-2.11Z"/><path class="cls-6" d="M344.55,583.76l8.67,5c.6.34.52,1-.17,1.35l-8.34,4.81a2.6,2.6,0,0,1-2.33.1l-8.68-5c-.6-.35-.52-.95.17-1.35l8.34-4.81A2.59,2.59,0,0,1,344.55,583.76Z"/><path class="cls-5" d="M367.47,597.35l-20.32.09v2.09a.67.67,0,0,0,.4.59l8.68,5a2.6,2.6,0,0,0,2.33-.09l8.34-4.82a1,1,0,0,0,.57-.76v-2.11Z"/><path class="cls-6" d="M358.39,591.75l8.68,5c.6.34.52,1-.17,1.35l-8.34,4.81a2.62,2.62,0,0,1-2.34.1l-8.67-5c-.6-.35-.52-1,.17-1.35l8.34-4.81A2.6,2.6,0,0,1,358.39,591.75Z"/><path class="cls-5" d="M381.32,605.35l-20.33.08v2.09a.71.71,0,0,0,.41.6l8.67,5a2.59,2.59,0,0,0,2.34-.09l8.34-4.82a1,1,0,0,0,.57-.76v-2.1Z"/><path class="cls-6" d="M372.24,599.74l8.67,5c.6.35.53,1-.16,1.35l-8.34,4.81a2.62,2.62,0,0,1-2.34.1l-8.67-5c-.6-.34-.53-1,.17-1.35l8.33-4.81A2.62,2.62,0,0,1,372.24,599.74Z"/><path class="cls-5" d="M339.78,597.19l-20.33.08v2.09a.71.71,0,0,0,.41.6l8.67,5a2.62,2.62,0,0,0,2.34-.1l8.34-4.81a1,1,0,0,0,.57-.77v-2.1Z"/><path class="cls-6" d="M330.7,591.58l8.67,5c.6.35.53.95-.17,1.35l-8.33,4.82a2.62,2.62,0,0,1-2.34.09l-8.67-5c-.6-.34-.53-1,.16-1.34l8.34-4.82A2.62,2.62,0,0,1,330.7,591.58Z"/><path class="cls-5" d="M353.62,605.18l-20.32.08v2.09a.7.7,0,0,0,.4.6l8.68,5a2.6,2.6,0,0,0,2.33-.1l8.34-4.81a1,1,0,0,0,.57-.77v-2.1Z"/><path class="cls-6" d="M344.55,599.58l8.67,5c.6.35.52.95-.17,1.35l-8.34,4.82a2.57,2.57,0,0,1-2.33.09l-8.68-5c-.6-.34-.52-.94.17-1.34l8.34-4.82A2.59,2.59,0,0,1,344.55,599.58Z"/><path class="cls-5" d="M367.47,613.17l-20.32.08v2.09a.68.68,0,0,0,.4.6l8.68,5a2.6,2.6,0,0,0,2.33-.1L366.9,616a1,1,0,0,0,.57-.77v-2.1Z"/><path class="cls-6" d="M358.39,607.57l8.68,5c.6.35.52.95-.17,1.35l-8.34,4.82a2.57,2.57,0,0,1-2.33.09l-8.68-5c-.6-.35-.52-1,.17-1.35l8.34-4.82A2.57,2.57,0,0,1,358.39,607.57Z"/><path class="cls-5" d="M311.43,597.22l-34.27,7.47v2.08a.7.7,0,0,0,.4.6l8.68,5a2.62,2.62,0,0,0,2.34-.1l22.28-12.19a1,1,0,0,0,.57-.77v-2.1Z"/><path class="cls-6" d="M302.35,591.61l8.67,5c.6.35.53,1-.16,1.35l-22.29,12.2a2.6,2.6,0,0,1-2.33.1l-8.68-5c-.59-.35-.52-1,.17-1.35L300,591.71A2.62,2.62,0,0,1,302.35,591.61Z"/><path class="cls-5" d="M325.28,605.21l-20.33.08v2.09a.7.7,0,0,0,.41.6l8.67,5a2.62,2.62,0,0,0,2.34-.1l8.33-4.81a.94.94,0,0,0,.57-.77v-2.1Z"/><path class="cls-6" d="M316.2,599.61l8.67,5c.6.35.53.95-.17,1.35l-8.33,4.82a2.59,2.59,0,0,1-2.34.09l-8.67-5c-.6-.35-.53-1,.16-1.35l8.34-4.82A2.59,2.59,0,0,1,316.2,599.61Z"/><path class="cls-5" d="M339.12,613.2l-20.32.08v2.09a.7.7,0,0,0,.4.6l8.68,5a2.6,2.6,0,0,0,2.33-.1l8.34-4.81a1,1,0,0,0,.57-.77v-2.1Z"/><path class="cls-6" d="M330.05,607.6l8.67,5c.6.35.52.95-.17,1.35l-8.34,4.82a2.57,2.57,0,0,1-2.33.09l-8.68-5c-.6-.35-.52-1,.17-1.35l8.34-4.82A2.59,2.59,0,0,1,330.05,607.6Z"/><path class="cls-5" d="M353,621.19l-20.32.08v2.09a.67.67,0,0,0,.4.6l8.67,5a2.62,2.62,0,0,0,2.34-.1l8.34-4.81a1,1,0,0,0,.57-.77v-2.1Z"/><path class="cls-6" d="M343.89,615.59l8.68,5c.6.35.52.95-.17,1.35l-8.34,4.82a2.59,2.59,0,0,1-2.34.09l-8.67-5c-.6-.35-.52-1,.17-1.35l8.34-4.82A2.57,2.57,0,0,1,343.89,615.59Z"/><path class="cls-5" d="M311.33,612.59l-20.32.09v2.09a.7.7,0,0,0,.4.59l8.68,5a2.57,2.57,0,0,0,2.33-.1l8.34-4.81a1,1,0,0,0,.57-.77h0Z"/><path class="cls-6" d="M302.25,607l8.68,5c.6.34.52,1-.17,1.34l-8.34,4.82a2.6,2.6,0,0,1-2.33.1l-8.68-5c-.6-.35-.52-1,.17-1.35l8.34-4.81A2.57,2.57,0,0,1,302.25,607Z"/><path class="cls-5" d="M325.18,620.58l-20.32.09v2.09a.66.66,0,0,0,.4.59l8.67,5a2.59,2.59,0,0,0,2.34-.1l8.34-4.81a1,1,0,0,0,.57-.77h0Z"/><path class="cls-6" d="M316.1,615l8.68,5c.59.34.52,1-.17,1.35l-8.34,4.81a2.62,2.62,0,0,1-2.34.1l-8.67-5c-.6-.35-.52-1,.17-1.35l8.34-4.81A2.57,2.57,0,0,1,316.1,615Z"/><path class="cls-5" d="M339,628.57l-20.33.09v2.09a.69.69,0,0,0,.41.59l8.67,5a2.59,2.59,0,0,0,2.34-.1l8.34-4.81a1,1,0,0,0,.57-.76v-2.11Z"/><path class="cls-6" d="M330,623l8.67,5c.6.34.53.95-.16,1.35l-8.34,4.81a2.62,2.62,0,0,1-2.34.1l-8.67-5c-.6-.35-.53-1,.16-1.35l8.34-4.81A2.59,2.59,0,0,1,330,623Z"/><path class="cls-2" d="M521.54,826.38h0v-6.91l2.44-.37a22.82,22.82,0,0,1,7.43-6.48l19.44-10.78c.49-.28,1-.55,1.51-.81s1.16-.57,1.76-.84c13.21-5.89,32.27-5.35,44.39,1.65.39.23.78.46,1.15.7s1,.63,1.4,1a22.69,22.69,0,0,1,3.72,3.36l3.5-.53.09,8.84h0c.17,4.46-2.29,9-7.39,12.61l-.76.52c-.54.36-1.1.72-1.7,1.06l-19.45,10.79c-13.16,7.6-34.49,7.6-47.65,0-6.49-3.75-9.77-8.63-9.86-13.54h0Z"/><path class="cls-3" d="M531.41,804.79,550.85,794c.49-.29,1-.55,1.51-.82s1.16-.57,1.76-.83c13.21-5.9,32.27-5.35,44.39,1.65l1.15.69c.49.32,1,.64,1.4,1,9.78,7.09,9.75,17.21-.09,24.28l-.76.52c-.54.36-1.1.72-1.7,1.06l-19.45,10.79c-13.16,7.59-34.49,7.59-47.65,0S518.25,812.39,531.41,804.79Z"/><path class="cls-2" d="M552.36,793.19c.57-.29,1.16-.57,1.76-.83a51.73,51.73,0,0,1,20.59,6.15,75.9,75.9,0,0,1,24.95-3.81c.49.32,1,.64,1.4,1a74.69,74.69,0,0,0-25.24,3.44c13.26,7.27,22.83,18.08,25.15,20.84l-.76.52C596.6,816.17,576.53,793.69,552.36,793.19Z"/><path class="cls-7" d="M751.73,327.32,458.18,156.74c-5.41-3.45-10.07-1.1-10.42,5.26l-1.44,26.61-11,202.13c-.35,6.36,3.75,14.32,9.16,17.77L738.05,579.09c5.41,3.45,10.08,1.1,10.42-5.26l11-202.13,1.45-26.61C761.24,338.73,757.14,330.77,751.73,327.32Z"/><path class="cls-8" d="M747.08,376.61l-11,202.12c-.34,6.37-5,8.72-10.41,5.27l-166-96.47L432.13,413.42C426.72,410,422.62,402,423,395.65l11-202.13L571.63,274Z"/><path class="cls-9" d="M748.52,350l-1.43,26.47v.14L571.63,274l-137.69-80.5.13-2.35,1.31-24.26c.35-6.35,5-8.71,10.42-5.26L739.36,332.23C744.77,335.69,748.87,343.64,748.52,350Z"/><path class="cls-10" d="M728.38,347.74a9.61,9.61,0,0,0,4.17,7.69c2.4,1.46,4.41.39,4.51-2.4a9.56,9.56,0,0,0-4.17-7.68C730.5,343.89,728.48,345,728.38,347.74Z"/><path class="cls-11" d="M712.65,338.14a9.56,9.56,0,0,0,4.17,7.68c2.39,1.47,4.41.4,4.51-2.39a9.62,9.62,0,0,0-4.17-7.69C714.76,334.28,712.75,335.35,712.65,338.14Z"/><path class="cls-12" d="M696.92,328.53a9.57,9.57,0,0,0,4.17,7.69c2.39,1.46,4.41.39,4.5-2.39a9.56,9.56,0,0,0-4.16-7.69C699,324.68,697,325.75,696.92,328.53Z"/><polygon class="cls-13" points="543.15 292.38 441.22 233.53 441.22 224.58 543.15 283.43 543.15 292.38"/><polygon class="cls-13" points="518.9 356.54 441.22 311.69 441.22 302.75 518.9 347.59 518.9 356.54"/><polygon class="cls-13" points="531.02 379.17 453.35 334.33 453.35 325.38 531.02 370.23 531.02 379.17"/><polygon class="cls-13" points="543.15 401.81 465.47 356.96 465.47 348.02 543.15 392.86 543.15 401.81"/><polygon class="cls-13" points="555.28 424.44 477.6 379.6 477.6 370.65 555.28 415.5 555.28 424.44"/><polygon class="cls-13" points="602.32 467.24 477.6 395.23 477.6 386.28 602.32 458.29 602.32 467.24"/><polygon class="cls-13" points="573.04 465.96 477.6 410.86 477.6 401.92 573.04 457.02 573.04 465.96"/><polygon class="cls-13" points="548.79 467.59 453.35 412.49 453.35 403.55 548.79 458.65 548.79 467.59"/><polygon class="cls-13" points="581.62 314.59 552.33 297.68 552.33 288.73 581.62 305.64 581.62 314.59"/><polygon class="cls-13" points="561.56 318.64 459.63 259.79 459.63 250.84 561.56 309.69 561.56 318.64"/><polygon class="cls-13" points="582.43 346.32 480.5 287.47 480.5 278.53 582.43 337.37 582.43 346.32"/><polygon class="cls-13" points="582.43 361.95 480.5 303.1 480.5 294.16 582.43 353.01 582.43 361.95"/><polygon class="cls-13" points="495.55 327.05 459.63 306.31 459.63 298.12 495.55 318.86 495.55 327.05"/><path class="cls-9" d="M614.27,418.4a19.87,19.87,0,0,1-.09,2.18,2.29,2.29,0,0,1-.27,1,.3.3,0,0,1-.46,0,4.63,4.63,0,0,1-.71-.71l-22.07-27.4a4,4,0,0,1-.59-1.62,19.84,19.84,0,0,1-.18-3.05c0-.66,0-1.23.05-1.71a9.45,9.45,0,0,1,.15-1.14,1.59,1.59,0,0,1,.24-.63.6.6,0,0,1,.36-.23l22-1.86a1.14,1.14,0,0,1,1.18.89,10.63,10.63,0,0,1,.35,3.25c0,1.05,0,1.88,0,2.47a7.62,7.62,0,0,1-.15,1.37.91.91,0,0,1-.32.58,1.29,1.29,0,0,1-.55.15l-16.57.79,16.26,19.44a10.28,10.28,0,0,1,.7.94,3.41,3.41,0,0,1,.42,1.07,11.15,11.15,0,0,1,.2,1.61Q614.27,416.8,614.27,418.4Z"/><path class="cls-9" d="M624.54,441a1.24,1.24,0,0,1-.37.58.88.88,0,0,1-.65.13,4.13,4.13,0,0,1-1-.31,15.11,15.11,0,0,1-1.56-.81,16.17,16.17,0,0,1-1.93-1.27,6.05,6.05,0,0,1-1.14-1.11,2.26,2.26,0,0,1-.45-1.05,2.63,2.63,0,0,1,.12-1.06l17.21-54.48a1.18,1.18,0,0,1,.34-.63.8.8,0,0,1,.63-.15,3.72,3.72,0,0,1,1,.32,12.57,12.57,0,0,1,1.57.81,16.63,16.63,0,0,1,1.95,1.27,6,6,0,0,1,1.1,1.1,2.15,2.15,0,0,1,.43,1,3.11,3.11,0,0,1-.08,1.08Z"/><path class="cls-9" d="M669.94,435.16c0,.67,0,1.23-.05,1.7a8,8,0,0,1-.16,1.13,1.71,1.71,0,0,1-.26.64.44.44,0,0,1-.36.19L647,440.66a1,1,0,0,1-.69-.17,1.43,1.43,0,0,1-.47-.69,4.49,4.49,0,0,1-.26-1.28c0-.53-.08-1.18-.08-1.94,0-1.05,0-1.88.05-2.47a7.45,7.45,0,0,1,.16-1.37,1,1,0,0,1,.31-.6,1,1,0,0,1,.55-.13l16.57-.79-16.25-19.44a7.35,7.35,0,0,1-.74-1,3.45,3.45,0,0,1-.42-1.06,10.32,10.32,0,0,1-.18-1.61c0-.64-.05-1.5-.05-2.57s0-1.68.08-2.19a2,2,0,0,1,.26-1c.12-.16.28-.17.47,0a4.14,4.14,0,0,1,.69.7l22.1,27.46a3.61,3.61,0,0,1,.59,1.56A17.67,17.67,0,0,1,669.94,435.16Z"/><path class="cls-7" d="M790.2,439.6l-7.77,132-81.47-47a10.76,10.76,0,0,1-4.87-8.44V404.43c0-1.82.75-3,1.9-3.36h0l2-.75,0,0,.06,0a3.73,3.73,0,0,1,3,.53l73.4,42.38Z"/><path class="cls-14" d="M685.45,407l2-.75,0,0,.06,0h0a3.69,3.69,0,0,1,3,.53l147.79,85.33a10.76,10.76,0,0,1,4.87,8.43v111.7a3.36,3.36,0,0,1-1.49,3.18h0l-.05,0a2.05,2.05,0,0,1-.41.16l-1.76.68,0-.73a5.14,5.14,0,0,1-1.18-.51L690.56,529.69a10.74,10.74,0,0,1-4.87-8.43V409.56a4.17,4.17,0,0,1,.66-2.43Z"/><path class="cls-8" d="M841.11,514.31V613c0,3.11-2.18,4.37-4.87,2.81L688.45,530.5a10.76,10.76,0,0,1-4.87-8.44v-98.7Z"/><path class="cls-9" d="M683.58,410.37c0-3.11,2.18-4.37,4.87-2.82l147.79,85.33a10.76,10.76,0,0,1,4.87,8.44v13L683.58,423.36Z"/><path class="cls-10" d="M825.84,495.55a4.73,4.73,0,0,0,2.13,3.69c1.18.68,2.13.13,2.13-1.23a4.7,4.7,0,0,0-2.13-3.69C826.8,493.65,825.84,494.2,825.84,495.55Z"/><path class="cls-11" d="M818.12,491.09a4.7,4.7,0,0,0,2.13,3.69c1.17.68,2.13.13,2.13-1.23a4.73,4.73,0,0,0-2.13-3.69C819.07,489.18,818.12,489.74,818.12,491.09Z"/><path class="cls-12" d="M810.39,486.63a4.7,4.7,0,0,0,2.13,3.69c1.18.68,2.13.13,2.13-1.23a4.7,4.7,0,0,0-2.13-3.69C811.34,484.72,810.39,485.27,810.39,486.63Z"/><polygon class="cls-9" points="687.06 489.56 725.06 512.11 725.06 502.96 687.06 480.41 687.06 489.56"/><polygon class="cls-9" points="687.06 523.28 725.06 545.82 725.06 520.89 687.06 498.35 687.06 523.28"/><polygon class="cls-9" points="728.1 454.59 728.06 471.68 829.16 530.05 829.19 513.51 728.1 454.59"/><g class="cls-15"><path class="cls-9" d="M825.65,565.76l-.2-.11L747.78,520.8V505.53l.19.11,77.68,44.85Zm-77.09-45.41,76.3,44V550.94l-76.3-44.05Z"/><path class="cls-9" d="M825.65,551.4l-.2-.12-77.67-44.84V491.16l.19.12,77.68,44.84ZM748.56,506l76.3,44V536.58l-76.3-44.05Z"/><path class="cls-9" d="M825.65,580.13l-.2-.11-77.67-44.85V519.89l.19.12,77.68,44.84Zm-77.09-45.42,76.3,44.06V565.31l-76.3-44Z"/><path class="cls-9" d="M825.65,594.49l-.2-.11-77.67-44.85V534.26l.19.11,77.68,44.85Zm-77.09-45.41,76.3,44V579.67l-76.3-44Z"/></g><path class="cls-16" d="M824.86,563.19c-6.18,1.69-9-.31-10.88-2.45-2.37-2.68-2-5.2-5-9.85-3.64-5.59-6.2-5-10.37-10-6.33-7.61-6.05-15.66-9.2-17.48-3.92-2.27-5.52,10.1-10,7-2.66-1.85-3.33-6.14-6.36-8.12-4-2.63-5.15,3.48-9.7,1.35s-7.13-10.1-10.71-11c-2.23-.56-3.39,2-4,4.06v32.48l76.3,44Z"/><path class="cls-12" d="M824.86,589.07c-6.18,1.69-10.07-17.2-12-19.34-2.37-2.69-1.1,5-4.13.35-3.64-5.59-6.2-5-10.37-10-6.33-7.62-10.73-19.83-15.79-22.63-3.87-2.13,1.07,15.24-3.45,12.1-2.66-1.85-3.34-6.14-6.36-8.12-4-2.63-7.09-11-11.64-13.09s-7.13-10.1-10.71-11c-2.23-.56-1.89,31.79-1.89,31.79l76.3,44Z"/><polygon class="cls-9" points="721.96 455.95 694.63 440.18 694.63 437.28 721.96 453.05 721.96 455.95"/><polygon class="cls-17" points="721.96 463.23 694.63 447.46 694.63 443.07 721.96 458.85 721.96 463.23"/><polygon class="cls-17" points="792.14 503.58 755.36 482.35 755.36 476.45 792.14 497.68 792.14 503.58"/><polygon class="cls-17" points="721.96 477.14 694.63 461.37 694.63 452.42 721.96 468.19 721.96 477.14"/><polygon class="cls-17" points="721.96 487.15 694.63 471.38 694.63 464.67 721.96 480.45 721.96 487.15"/><polygon class="cls-17" points="740.3 468.07 731.61 463.06 731.61 460.87 740.3 465.89 740.3 468.07"/><polygon class="cls-17" points="740.3 471.7 731.61 466.68 731.61 464.5 740.3 469.52 740.3 471.7"/><polygon class="cls-17" points="740.3 475.33 731.61 470.31 731.61 468.13 740.3 473.14 740.3 475.33"/><path class="cls-7" d="M478.13,216.38v111.7a3.36,3.36,0,0,1-1.49,3.18l-.06,0-.41.16-1.76.68h0a3.53,3.53,0,0,1-3.26-.43l-64.08-37,7.12-120.85,59.07,34.1A10.78,10.78,0,0,1,478.13,216.38Z"/><path class="cls-14" d="M307.85,128.81l2-.75.05,0,.06,0h0a3.69,3.69,0,0,1,3,.53l147.79,85.32a10.78,10.78,0,0,1,4.87,8.44V334a3.37,3.37,0,0,1-1.49,3.19h0l-.06,0a2.48,2.48,0,0,1-.41.15l-1.76.69,0-.74a5.55,5.55,0,0,1-1.18-.5L313,251.5a10.76,10.76,0,0,1-4.87-8.44V131.37a4.16,4.16,0,0,1,.66-2.44Z"/><path class="cls-8" d="M463.51,236.11v98.71c0,3.1-2.18,4.36-4.87,2.81L310.85,252.3a10.76,10.76,0,0,1-4.87-8.43V145.16Z"/><path class="cls-9" d="M306,132.17c0-3.11,2.18-4.36,4.87-2.81l147.79,85.33a10.76,10.76,0,0,1,4.87,8.43v13L306,145.16Z"/><path class="cls-10" d="M448.48,218.13a4.7,4.7,0,0,0,2.13,3.69c1.18.68,2.13.12,2.13-1.23a4.7,4.7,0,0,0-2.13-3.69C449.43,216.22,448.48,216.77,448.48,218.13Z"/><path class="cls-11" d="M440.75,213.67a4.74,4.74,0,0,0,2.13,3.69c1.18.67,2.13.12,2.13-1.23a4.7,4.7,0,0,0-2.13-3.69C441.71,211.76,440.75,212.31,440.75,213.67Z"/><path class="cls-12" d="M433,209.21a4.71,4.71,0,0,0,2.13,3.69c1.17.67,2.13.12,2.13-1.23a4.73,4.73,0,0,0-2.13-3.69C434,207.3,433,207.85,433,209.21Z"/><polygon class="cls-18" points="437.83 252.94 442.88 255.86 442.88 251.19 437.83 248.27 437.83 252.94"/><polygon class="cls-19" points="437.83 263.12 442.88 266.04 442.88 261.37 437.83 258.45 437.83 263.12"/><polygon class="cls-20" points="437.83 273.3 442.88 276.22 442.88 271.55 437.83 268.63 437.83 273.3"/><polygon class="cls-21" points="437.83 283.48 442.88 286.4 442.88 281.73 437.83 278.81 437.83 283.48"/><polygon class="cls-22" points="437.83 293.66 442.88 296.58 442.88 291.91 437.83 288.99 437.83 293.66"/><polygon class="cls-23" points="437.83 303.84 442.88 306.76 442.88 302.09 437.83 299.17 437.83 303.84"/><path class="cls-9" d="M314.74,179.8l121.37,70.07c.11.06.19,0,.19-.14a.45.45,0,0,0-.19-.37L314.74,179.29c-.1-.06-.19,0-.19.14A.48.48,0,0,0,314.74,179.8Z"/><path class="cls-9" d="M314.74,184.89,436.11,255c.11.06.19,0,.19-.14a.45.45,0,0,0-.19-.37L314.74,184.38c-.1-.06-.19,0-.19.14A.48.48,0,0,0,314.74,184.89Z"/><path class="cls-9" d="M314.74,190l121.37,70.07c.11.06.19,0,.19-.14a.45.45,0,0,0-.19-.37L314.74,189.47c-.1-.06-.19,0-.19.14A.48.48,0,0,0,314.74,190Z"/><path class="cls-9" d="M314.74,195.07l121.37,70.07c.11.06.19,0,.19-.14a.45.45,0,0,0-.19-.37L314.74,194.56c-.1-.06-.19,0-.19.14A.48.48,0,0,0,314.74,195.07Z"/><path class="cls-9" d="M314.74,200.16l121.37,70.07c.11.06.19,0,.19-.14a.45.45,0,0,0-.19-.37L314.74,199.65c-.1-.06-.19,0-.19.14A.48.48,0,0,0,314.74,200.16Z"/><path class="cls-9" d="M314.74,205.25l121.37,70.07c.11.06.19,0,.19-.14a.45.45,0,0,0-.19-.37L314.74,204.74c-.1-.06-.19,0-.19.14A.48.48,0,0,0,314.74,205.25Z"/><path class="cls-9" d="M314.74,210.34l121.37,70.07c.11.06.19,0,.19-.14a.45.45,0,0,0-.19-.37L314.74,209.83c-.1-.06-.19,0-.19.14A.48.48,0,0,0,314.74,210.34Z"/><path class="cls-9" d="M314.74,215.43,436.11,285.5c.11.06.19,0,.19-.14a.45.45,0,0,0-.19-.37L314.74,214.92c-.1-.06-.19,0-.19.14A.48.48,0,0,0,314.74,215.43Z"/><path class="cls-9" d="M314.74,220.52l121.37,70.07c.11.06.19,0,.19-.14a.45.45,0,0,0-.19-.37L314.74,220c-.1-.06-.19,0-.19.14A.48.48,0,0,0,314.74,220.52Z"/><path class="cls-9" d="M314.74,225.61l121.37,70.07c.11.06.19,0,.19-.14a.45.45,0,0,0-.19-.37L314.74,225.1c-.1-.06-.19,0-.19.14A.48.48,0,0,0,314.74,225.61Z"/><path class="cls-9" d="M314.74,230.7l121.37,70.07c.11.06.19,0,.19-.14a.45.45,0,0,0-.19-.37L314.74,230.19c-.1-.06-.19,0-.19.14A.48.48,0,0,0,314.74,230.7Z"/><path class="cls-9" d="M314.74,235.79l121.37,70.07c.11.06.19,0,.19-.14a.45.45,0,0,0-.19-.37L314.74,235.28c-.1-.06-.19,0-.19.14A.48.48,0,0,0,314.74,235.79Z"/><path class="cls-9" d="M314.74,240.88,436.11,311c.11.06.19,0,.19-.14a.45.45,0,0,0-.19-.37L314.74,240.37c-.1-.06-.19,0-.19.14A.48.48,0,0,0,314.74,240.88Z"/><polygon class="cls-12" points="431.36 305.8 431.72 305.82 421.19 263.35 412 263.59 399.95 240.87 394.22 247.8 387.57 239.29 378.51 248.81 369.05 223.69 360.84 223.88 346.96 200.18 337.63 200.31 331.83 191.37 326.51 202.45 317.95 189.03 317.72 189.31 326.65 203.3 331.97 192.21 337.58 200.87 346.89 200.74 360.77 224.44 368.91 224.24 378.47 249.64 387.67 239.99 394.33 248.51 400 241.67 411.91 264.15 420.98 263.92 431.36 305.8"/><path class="cls-12" d="M420.13,263.29a2.43,2.43,0,0,0,1,1.94c.56.33,1,0,1-.76a2.42,2.42,0,0,0-1-1.94C420.59,262.2,420.13,262.55,420.13,263.29Z"/><path class="cls-12" d="M410.94,263.29a2.42,2.42,0,0,0,1,1.93c.56.33,1,0,1-.76a2.43,2.43,0,0,0-1-1.94C411.39,262.2,410.94,262.54,410.94,263.29Z"/><path class="cls-12" d="M399.06,241a2.44,2.44,0,0,0,1,1.94c.56.32,1,0,1-.77a2.44,2.44,0,0,0-1-1.94C399.52,239.86,399.06,240.2,399.06,241Z"/><path class="cls-12" d="M393.36,247.84a2.42,2.42,0,0,0,1,1.93c.56.33,1,0,1-.76a2.42,2.42,0,0,0-1-1.94C393.81,246.75,393.36,247.09,393.36,247.84Z"/><path class="cls-24" d="M386.54,238.81a2.44,2.44,0,0,0,1,1.94c.56.32,1,0,1-.77a2.44,2.44,0,0,0-1-1.94C387,237.72,386.54,238.06,386.54,238.81Z"/><path class="cls-12" d="M377.48,248.85a2.39,2.39,0,0,0,1,1.93c.56.33,1,0,1-.76a2.42,2.42,0,0,0-1-1.94C377.93,247.76,377.47,248.1,377.48,248.85Z"/><path class="cls-12" d="M368.09,223.45a2.43,2.43,0,0,0,1,1.94c.56.32,1,0,1-.77a2.42,2.42,0,0,0-1-1.93C368.55,222.36,368.09,222.71,368.09,223.45Z"/><path class="cls-12" d="M359.79,223.37a2.42,2.42,0,0,0,1,1.93c.56.33,1,0,1-.76a2.42,2.42,0,0,0-1-1.94C360.25,222.28,359.79,222.62,359.79,223.37Z"/><path class="cls-12" d="M345.91,200.08a2.42,2.42,0,0,0,1,1.94c.56.32,1,0,1-.77a2.42,2.42,0,0,0-1-1.93C346.36,199,345.91,199.34,345.91,200.08Z"/><path class="cls-12" d="M336.47,200.21a2.44,2.44,0,0,0,1,1.94c.56.32,1,0,1-.77a2.44,2.44,0,0,0-1-1.94C336.93,199.12,336.47,199.46,336.47,200.21Z"/><path class="cls-12" d="M330.86,191.19a2.42,2.42,0,0,0,1,1.93c.56.33,1,0,1-.76a2.43,2.43,0,0,0-1-1.94C331.31,190.1,330.86,190.44,330.86,191.19Z"/><path class="cls-12" d="M325.41,202.32a2.42,2.42,0,0,0,1,1.94c.56.33,1,0,1-.76a2.43,2.43,0,0,0-1-1.94C325.86,201.23,325.41,201.58,325.41,202.32Z"/><polygon class="cls-16" points="433.02 299.58 421.88 283.49 412.98 283.58 403.84 258.98 396.02 264.12 390.85 256.81 380.62 259.67 377.49 254.55 367.75 256.79 357.72 232.35 352.83 233.96 344.41 209.78 332.5 208.12 326.72 214.45 317.83 200.22 317.83 242.41 433.02 308.91 433.02 299.58"/><polygon class="cls-17" points="408.98 222.48 448.32 245.82 448.32 236.35 408.98 213.01 408.98 222.48"/><polygon class="cls-17" points="361.47 194.45 400.81 217.79 400.81 208.31 361.47 184.97 361.47 194.45"/><polygon class="cls-17" points="313.96 166.41 353.3 189.75 353.3 180.28 313.96 156.94 313.96 166.41"/><polygon class="cls-7" points="602.03 165.09 595.72 181.94 593.56 187.69 591.71 192.63 585.86 208.25 560.27 276.57 548.44 229.84 517.06 227.97 540.92 164.28 548.69 143.53 558.82 116.48 562.58 120.72 589.47 150.97 591.72 153.5 602.03 165.09"/><polygon class="cls-7" points="666.36 314.18 638.9 284.1 638.85 284.04 634.98 279.8 627.08 301.9 627.08 301.91 623.15 312.89 596.91 212.56 593.9 201.05 591.7 192.64 591.7 192.63 590.06 186.35 589.28 183.37 655.98 222.11 644.64 231.11 666.36 314.18"/><polygon class="cls-25" points="658.23 320.18 652.03 322.45 643.96 304.54 626.92 285.88 626.85 285.81 624.52 292.31 615.02 318.88 612.75 310.19 611.62 305.88 588.71 218.26 583.58 198.63 583.18 197.12 581.38 190.22 573.91 161.66 573.26 159.19 575.13 159.25 583.58 159.5 616.47 160.47 619.41 171.71 627.62 203.09 658.23 320.18"/><polygon class="cls-25" points="608.82 321.16 615.02 318.88 629.92 277.55 617.26 275.02 608.82 321.16"/><polygon class="cls-25" points="593.89 171.09 584.07 197.31 583.58 198.63 583.58 198.63 579.57 209.32 574.92 221.75 552.14 282.57 545.93 284.86 549 270.17 540.31 235.84 508.93 233.97 529.1 180.12 537.57 157.5 548.24 129 550.68 122.48 583.58 159.5 585.83 162.03 593.89 171.09"/><polygon class="cls-16" points="587.69 173.38 581.38 190.22 579.22 195.97 577.37 200.91 571.52 216.53 545.93 284.86 534.1 238.12 502.72 236.25 526.58 172.56 534.35 151.81 544.48 124.77 548.24 129 575.13 159.25 577.38 161.78 587.69 173.38"/><polygon class="cls-16" points="652.03 322.45 624.57 292.38 624.52 292.31 620.65 288.07 612.75 310.18 612.75 310.19 608.82 321.17 582.58 220.84 579.57 209.32 577.37 200.91 577.37 200.91 575.73 194.63 567.06 161.47 573.91 161.66 577.38 161.78 585.83 162.03 610.27 162.75 615.35 182.18 623.56 213.57 652.03 322.45"/><path class="cls-7" d="M619.41,171.7a47.86,47.86,0,0,1-4.06,10.47c-6.58,12.23-17.81,17.89-31.28,15.13-.3-.05-.59-.12-.89-.19a37.19,37.19,0,0,1-4-1.14c-1.15-.38-2.32-.83-3.49-1.35a52.9,52.9,0,0,1-5.57-2.81c-12.36-7.14-23.71-19.51-32.59-34.32-1.11-1.85-2.19-3.75-3.22-5.68l-7.77,20.75.4,2.5a12.11,12.11,0,0,0,2.12,5.05,7.23,7.23,0,0,0,3.15,2.7l6.61,2.47c2.35.87,5.35,4.35,6.66,7.72l3.66,9.48c1.3,3.37,4.09,5.87,6.2,5.56l5.91-.88c2.09-.32,5.37,1.84,7.27,4.79l3,4.58,2.4,3.71,1,1.5,4.65-12.42,3,11.51,2.19-2a4.07,4.07,0,0,1,3.94-.56,7.76,7.76,0,0,1,3.1,1.84l5.84,6.08c1.44,1.4,3,1.89,4.21,1.46a2.79,2.79,0,0,0,2.12-1.92l.14-.4,2-6a4.24,4.24,0,0,1,6-2.12l6.73,3.41c2.39,1.22,4.44-.3,4.55-3.38l.14-3.64.19-5c.11-2.91,1.81-5.28,3.87-5.48Z"/><path class="cls-2" d="M650.13,148.15,646,138.84c-1.45-3.32-1.77-7.86-.7-10.1l3-6.32c1.06-2.24.29-6.37-1.71-9.17L641,105.36c-2-2.81-3.43-7.55-3.15-10.55l.77-8.43a11.87,11.87,0,0,0-3.72-9l-6.52-5.5a18.51,18.51,0,0,1-5.22-9.72l-1.54-9.53c-.54-3.38-2.92-6.87-5.27-7.75l-6.62-2.46c-2.34-.87-5.34-4.35-6.64-7.72l-3.68-9.48c-1.3-3.37-4.08-5.87-6.19-5.56l-5.9.88c-2.11.31-5.21-1.57-6.9-4.19l-6.14-9.5c-1.22-1.9-3-2.91-4.46-2.76h0a2.52,2.52,0,0,0-1.14.4l-7.56,3.13.68,2a7,7,0,0,1-5-2.07l-6.4-6.1c-1.37-1.31-2.85-1.74-4-1.35h0l0,0a3.82,3.82,0,0,0-.46.21L538.2,3.55l2.38,7.05a4.39,4.39,0,0,1-4.6.25l-6.74-3.41a3.33,3.33,0,0,0-2-.38h0a2.52,2.52,0,0,0-.88.32l-8.12,3.37.66,14.19-5-.09a2.55,2.55,0,0,0-.84.14h0l-8.5,3.56,8.49,11.4.12.6c1.6,7.67-1.62,10.47-1.62,10.47l-4.4,3.11c-1.73,1.22-1.95,4.92-.5,8.24l4.09,9.31c1.46,3.32,1.78,7.86.71,10.1l-3,6.31c-1.07,2.25-.3,6.37,1.71,9.18l5.65,7.88c2,2.81,3.43,7.56,3.14,10.55l-.77,8.42a11.88,11.88,0,0,0,3.72,9l6.52,5.5a18.48,18.48,0,0,1,5.22,9.72l1.54,9.53c.55,3.39,2.92,6.87,5.27,7.75l6.62,2.46c2.35.88,5.34,4.35,6.65,7.73l3.67,9.48c1.3,3.36,4.09,5.86,6.19,5.56l5.91-.88c2.1-.33,5.38,1.84,7.28,4.79l1,16.67c6-1.46,8-3.21,8.24-3.45l3.37-3.09,3.56-3.26c1.15-1.06,3.11-1,5-.16l4.49,12.23s6.81-3,7.63-3.25a2.78,2.78,0,0,0,2.12-1.93l.14-.39,2-6a4.36,4.36,0,0,1,.44-.83l6.87,5.71,7.86-3.29h0c1.23-.4,2.08-1.72,2.15-3.67l.33-8.64a6.55,6.55,0,0,1,1.9-4.55l1.46,2.33L643,186a2,2,0,0,0,.68-.25h0c1.34-.79,2-2.95,1.53-5.53a9.15,9.15,0,0,0-.2-2.28l-2-9.62c-.72-3.43.1-7.22,1.82-8.44l4.85-3.43C651.36,155.17,651.59,151.46,650.13,148.15Zm-71.72,33.34C547.13,163.43,521.77,115,521.77,73.27a87.53,87.53,0,0,1,1.16-14.59l67.26,128A54.57,54.57,0,0,1,578.41,181.49Zm6.67-146.66c28.14,20.65,50,65.14,50,103.84A82.76,82.76,0,0,1,632.92,158Z"/><path class="cls-4" d="M641.39,159.84c1.73-1.22,2-4.93.49-8.24l-4.08-9.31c-1.45-3.32-1.77-7.87-.71-10.1l3-6.32c1.06-2.24.29-6.38-1.71-9.17l-5.65-7.89a18.41,18.41,0,0,1-3.16-10.55l.78-8.43a11.9,11.9,0,0,0-3.72-9l-6.52-5.5a18.51,18.51,0,0,1-5.22-9.72l-1.54-9.53c-.55-3.39-2.92-6.87-5.28-7.76l-6.61-2.45c-2.35-.87-5.34-4.35-6.65-7.72l-3.67-9.48c-1.3-3.37-4.09-5.87-6.19-5.56L579,24c-2.1.31-5.2-1.57-6.89-4.2L566,10.29c-1.69-2.61-4.37-3.55-6-2.08l-4.48,4.11c-1.6,1.45-4.77.88-7-1.28l-6.4-6.1c-2.27-2.18-4.87-1.95-5.77.49l-.14.38-.54,1.46,0,0-1.93,4.9a4.24,4.24,0,0,1-6,2.1L521,10.88c-2.39-1.2-4.44.32-4.56,3.39l-.32,8.64c-.11,3.08-2,5.55-4.23,5.5l-6.2-.11c-2.22,0-3.44,2.71-2.74,6.11L505,44c1.6,7.68-1.62,10.48-1.62,10.48l-4.4,3.11c-1.73,1.22-1.95,4.92-.5,8.24l4.09,9.3c1.45,3.32,1.77,7.87.71,10.11l-3,6.31c-1.07,2.24-.3,6.37,1.71,9.18l5.64,7.88c2,2.81,3.43,7.56,3.15,10.55l-.77,8.42a11.89,11.89,0,0,0,3.72,9l6.52,5.5a18.48,18.48,0,0,1,5.22,9.72l1.54,9.53c.55,3.39,2.92,6.87,5.27,7.75l6.61,2.46c2.36.88,5.35,4.35,6.66,7.72l3.66,9.48c1.31,3.37,4.1,5.87,6.2,5.57l5.91-.89c2.09-.32,5.37,1.84,7.28,4.8l5.35,8.28c1.91,2.95,3.68,5.18,3.93,4.94l3.37-3.09,3.55-3.26c1.6-1.47,4.77-.89,7,1.28l5.85,6.08c1.43,1.4,3,1.88,4.2,1.46A2.82,2.82,0,0,0,604,212l.14-.39,2-6a4.23,4.23,0,0,1,6-2.11l6.73,3.41c2.4,1.21,4.45-.31,4.56-3.38l.32-8.64c.12-3.07,2-5.55,4.23-5.51l6.21.12c2.15.05,3.36-2.56,2.76-5.84a9.15,9.15,0,0,0-.2-2.28l-2-9.62c-.73-3.43.09-7.22,1.82-8.44Zm-71.22,18.23c-28.44-16.42-51.49-60.46-51.49-98.38s23.05-55.34,51.49-38.92,51.49,60.46,51.49,98.38S598.6,194.49,570.17,178.07Z"/><path class="cls-2" d="M621.44,139c0,10.37-1.73,19.2-4.83,26.22-8.18,18.53-25.9,24.41-46.44,12.55-28.32-16.35-51.28-60.22-51.28-98,0-13.24,2.83-24,7.72-31.63,9-14.15,25.17-17.75,43.56-7.13C598.49,57.4,621.44,101.26,621.44,139Z"/><path class="cls-3" d="M621.44,139c0,10.37-1.73,19.2-4.83,26.22-9.05,14.16-25.17,17.75-43.56,7.14-28.32-16.35-51.28-60.22-51.28-98,0-10.38,1.73-19.21,4.84-26.23,9-14.15,25.17-17.75,43.56-7.13C598.49,57.4,621.44,101.26,621.44,139Z"/><path class="cls-7" d="M595.14,84.37l-26.82,29.55a2.65,2.65,0,0,1-4.23-.41L554.9,98.25a2.64,2.64,0,0,0-4.27-.36L541.92,108a2.65,2.65,0,0,0-.26,3.09l20.94,34.76a2.84,2.84,0,0,0,4.54.43l40.25-44.76a2.65,2.65,0,0,0,.29-3.15l-8.32-13.61A2.65,2.65,0,0,0,595.14,84.37Z"/><path class="cls-16" d="M589,84.92l-26.83,29.56a2.64,2.64,0,0,1-4.22-.42l-9.2-15.26a2.65,2.65,0,0,0-4.27-.36l-8.71,10.12a2.65,2.65,0,0,0-.26,3.09l21,34.76a2.83,2.83,0,0,0,4.53.43l40.25-44.76a2.64,2.64,0,0,0,.29-3.15l-8.32-13.61A2.64,2.64,0,0,0,589,84.92Z"/><path class="cls-25" d="M161.46,486.76V476.63h6.07c4,0,7.55-1.42,9.07-3.56l.05-.07a4.56,4.56,0,0,0,.39-.66l-1.27-1.51L170.3,474v-18.3H204s0-.08,0-.13v-3.5h17.54v3.5a.53.53,0,0,0,0,.13h33.71V474l-5.84-3.37-1.1,1.19a4,4,0,0,0,.58,1.19l.05.07c1.53,2.14,5.07,3.56,9.08,3.56h6.06v10.13h-6.06a14.36,14.36,0,0,0-6.44,1.42l3.67,2.26v8.63l-8.37,4.83-4,2.33-4.29-2.48a15.46,15.46,0,0,0-10.75-1.19l-.12,0c-3.7.89-6.16,2.93-6.16,5.24v3.51H204v-3.51c0-2.31-2.47-4.35-6.17-5.24l-.12,0A15.44,15.44,0,0,0,187,503.75l-4.29,2.48-3.06-1.77-9.34-5.39v-8.63l4.2-1.95a13.77,13.77,0,0,0-7-1.73Z"/><path class="cls-16" d="M187,495.12a15.44,15.44,0,0,1,10.74-1.19l.12,0c3.7.88,6.17,2.93,6.17,5.24v3.5h17.54v-3.5c0-2.31,2.46-4.36,6.16-5.24l.12,0a15.46,15.46,0,0,1,10.75,1.19l4.29,2.48,12.4-7.16L251,488c-2.82-1.63-3.6-4.07-2.07-6.2l.05-.07c1.53-2.14,5.07-3.56,9.08-3.56h6.06V468h-6.06c-4,0-7.55-1.42-9.08-3.56l-.05-.07c-1.53-2.12-.75-4.57,2.07-6.2l4.29-2.48-12.4-7.16L238.59,451a15.44,15.44,0,0,1-10.74,1.19l-.12,0c-3.71-.88-6.17-2.92-6.17-5.23v-3.51H204v3.51c0,2.31-2.47,4.35-6.17,5.23l-.12,0A15.44,15.44,0,0,1,187,451l-4.29-2.48-12.4,7.16,4.29,2.48c2.82,1.63,3.6,4.08,2.06,6.2l-.05.07c-1.52,2.14-5.07,3.56-9.07,3.56h-6.07v10.13h6.07c4,0,7.55,1.42,9.07,3.56l.05.07c1.54,2.13.76,4.57-2.07,6.2l-4.28,2.48,12.4,7.16Zm16.34-16.59c-5.22-3-5.22-7.91,0-10.92s13.69-3,18.91,0,5.23,7.9,0,10.92S208.55,481.54,203.33,478.53Z"/><path class="cls-26" d="M404.49,812.81v-7.55H409c3,0,5.63-1.07,6.77-2.66l0-.05a4.08,4.08,0,0,0,.28-.49l-1-1.13-4.08,2.35V789.64h25.15s0-.06,0-.1v-2.61h13.08v2.71h25.15v13.64l-4.35-2.51-.83.89a3,3,0,0,0,.44.89l0,.05c1.14,1.59,3.79,2.66,6.77,2.66h4.53v7.55h-4.53a10.65,10.65,0,0,0-4.8,1.06l2.74,1.68V822l-6.25,3.6-3,1.74-3.2-1.85a11.57,11.57,0,0,0-8-.89l-.09,0c-2.76.66-4.6,2.19-4.6,3.91v2.61H436.23v-2.61c0-1.72-1.84-3.25-4.6-3.91l-.09,0a11.6,11.6,0,0,0-8,.89l-3.2,1.85L418,826l-7-4v-6.43l3.14-1.46a10.34,10.34,0,0,0-5.2-1.29Z"/><path class="cls-27" d="M423.52,819.05a11.54,11.54,0,0,1,8-.89l.09,0c2.76.66,4.6,2.18,4.6,3.91v2.61h13.08v-2.61c0-1.73,1.84-3.25,4.6-3.91l.09,0a11.51,11.51,0,0,1,8,.89l3.2,1.84,9.25-5.34-3.2-1.84c-2.11-1.22-2.69-3-1.54-4.63l0-.05c1.14-1.6,3.79-2.66,6.77-2.66h4.53v-7.55h-4.53c-3,0-5.63-1.06-6.77-2.65l0-.06c-1.15-1.58-.56-3.41,1.54-4.62l3.2-1.85-9.25-5.34-3.2,1.85a11.57,11.57,0,0,1-8,.89l-.09,0c-2.76-.66-4.6-2.19-4.6-3.91V780.5H436.23v2.61c0,1.72-1.84,3.25-4.6,3.91l-.09,0a11.6,11.6,0,0,1-8-.89l-3.2-1.85-9.25,5.34,3.2,1.85c2.11,1.21,2.69,3,1.55,4.62l0,.06c-1.14,1.59-3.78,2.65-6.77,2.65h-4.52v7.55H409c3,0,5.63,1.07,6.77,2.66l0,.05c1.14,1.59.56,3.41-1.55,4.63l-3.2,1.85,9.25,5.34Zm12.19-12.38c-3.89-2.25-3.89-5.9,0-8.14a15.59,15.59,0,0,1,14.11,0c3.89,2.24,3.89,5.89,0,8.14A15.59,15.59,0,0,1,435.71,806.67Z"/><path class="cls-28" d="M18.48,434.6s11.75,5.67,14.64,31-1.69,36.37,1.06,48.79-12,21.18-17.85,19.81S7.91,535.69,3.18,507.8-4,428.7,18.48,434.6Z"/><path class="cls-29" d="M5.39,780v16.9a10.73,10.73,0,0,0,7.43,5.64c5.64,1.32,17-3.84,22.78-6.48s19.3-10,22-11.86S68,769.76,60.29,768.32s-29,3.6-29,3.6Z"/><path class="cls-30" d="M39.07,804.41v16.9a10.73,10.73,0,0,0,7.43,5.63c5.63,1.32,17-3.83,22.78-6.47s19.19-10.11,22-11.87c4.44-2.72,10.31-16.3,2.64-17.74s-29,5.51-29,5.51Z"/><path class="cls-31" d="M5.39,778v16.91a10.73,10.73,0,0,0,7.43,5.63c5.64,1.32,17-3.84,22.78-6.47s19.3-10,22-11.87S68,767.84,60.29,766.41s-29,3.59-29,3.59Z"/><path class="cls-31" d="M39.07,802.49v16.9A10.7,10.7,0,0,0,46.5,825c5.63,1.32,17-3.83,22.78-6.47s19.29-9.95,22-11.87S101.64,792.3,94,790.86s-29,3.6-29,3.6Z"/><path class="cls-32" d="M50.34,542.6s2.39,53.71,1.19,65.69-12,65-12.46,75.28-4.32,89.67-4.32,89.67.48,10.22-9.11,12.71c-24.11,6.23-21.82-2.64-21.82-2.64l3.12-93.5S1.27,622.31.69,596.9C-.19,558.54,35.23,472.36,50.34,542.6Z"/><path class="cls-33" d="M28.52,613.92l.56,8.69,5.43,84,3.12,99.49s1.44,11.75,21.82,2.64A14.68,14.68,0,0,0,68.56,796s3.83-79.35,4.31-89.66c.41-8.78,8.29-48.46,11.36-67.48l.35-2.19c.36-2.33.62-4.24.76-5.61,0-.52.09-1.11.13-1.78.87-14.74-1.33-63.91-1.33-63.91a64,64,0,0,0-4.65-14.62c-.24-.48-.47-.92-.71-1.34C61.16,518.21,28.52,613.92,28.52,613.92Z"/><path class="cls-34" d="M86.08,545.49l-.74,15.34.49,31.75.27,17.33.29,19s-.32.15-.92.39c-3.25,1.32-14.58,5.59-25.92,5.59a20.1,20.1,0,0,1-2.61-.18q-.75-.09-1.56-.24a46.17,46.17,0,0,1-7.81-2.33,118.47,118.47,0,0,1-18.49-9.52,137.91,137.91,0,0,1-13.53-9.42C8.83,607.69.69,596.9.69,596.9s5.58-83,5.58-93.32-6-52.08-1-62.87,25.3-19.18,40.46-10.79,40.09,22.78,42,46.51c.21,2.56.36,5,.5,7.21,1,18.72-.5,27.31-.5,27.31L86.17,543.5Z"/><path class="cls-7" d="M88.24,483.64c1,18.72-.5,27.31-.5,27.31L86.17,543.5l-.09,2-.74,15.34.49,31.75-14.3-30c-4.57-.75-7.06-1.32-11.26-26-4.73-27.89-7.2-79.1,15.31-73.19C75.58,463.37,83.87,467.36,88.24,483.64Z"/><path class="cls-35" d="M220,544.65c5.4,34-4.78,63.83-22.73,66.68S160.42,589,155,555c-.06-.37-.12-.74-.17-1.12s-.1-.65-.14-1c-.51-5.06,2.45-10.89,8.92-16.13,12.33-10,32.73-14.11,45.56-9.19,4.49,1.72,7.46,4.32,8.89,7.41.36,1.45.7,2.93,1,4.44Q219.62,542,220,544.65Z"/><path class="cls-36" d="M209.49,529.49c-12.83-4.92-33.22-.8-45.55,9.19s-11.92,22.08.92,27,33.22.8,45.55-9.19S222.33,534.41,209.49,529.49ZM168.1,563c-11-4.2-11.31-14.53-.78-23.06s28-12.06,38.92-7.85,11.32,14.52.79,23.06S179.07,567.24,168.1,563Z"/><polygon class="cls-36" points="169.14 563.57 114.63 607.76 97.84 621.37 43.52 665.4 40.26 663.94 41.68 662.79 95.57 619.11 113.57 604.52 165.89 562.11 167.42 562.8 169.14 563.57"/><path class="cls-37" d="M218.08,535c-1.43-3.09-4.4-5.69-8.89-7.41-12.83-4.92-33.23-.8-45.56,9.19-6.47,5.24-9.43,11.07-8.92,16.13,0,.33.08.66.14,1,.8,4.16,4.05,7.72,9.7,9.89,12.83,4.92,33.23.8,45.55-9.19,6.06-4.91,9-10.33,9-15.15A10.56,10.56,0,0,0,218.08,535Zm-11.36,18.29c-10.53,8.54-28,12.06-38.92,7.85s-11.31-14.53-.78-23.06S195,526,205.94,530.2,217.25,544.73,206.72,553.26Z"/><polygon class="cls-37" points="168.84 561.64 167.42 562.8 114.05 606.06 96.76 620.07 43.21 663.48 41.68 662.79 39.96 662.02 94.28 617.98 112.75 603.01 165.58 560.18 168.84 561.64"/><polygon class="cls-38" points="39.96 662.02 40.26 663.94 43.52 665.4 43.21 663.48 39.96 662.02"/><polygon class="cls-7" points="86.12 611.2 29.69 656.95 31.41 657.72 31.41 657.73 29.69 656.95 29.99 658.87 33.25 660.33 86.22 617.4 86.12 611.2"/><path class="cls-7" d="M114.63,607.76,97.84,621.37a5.8,5.8,0,0,0-.43-.66c-.28-.3-.48-.49-.65-.64-.33-.27-.57-.4-1.07-.85l-.12-.11c-.53-.46-1-.81-1.29-1.13l18.47-15a2.85,2.85,0,0,1,.77,1.26c0,.07,0,.16,0,.25a16,16,0,0,0,.48,1.54c.16.5.36,1.07.57,1.68Z"/><path class="cls-39" d="M87.2,590.79,68.21,551l2.41-1.18L89.94,540s1.8,9.48,4.09,20.31l.09,0s.21,1.18.57,3c2.69,12.49,5.85,25.73,7.59,27.9a1,1,0,0,0,.17.19c3.28,2.79,12.16,9,12.42,10.92s.74,9.34-2.14,12c-1.45,1.33-3.82,4-6.38,6.38S101.2,625,99,624.93c-4.52,0,1.69-4.29-2-7.56-2.57-2.3-2.63-1.58-3.14-9.09s-.15-9.61-3.41-13.55Z"/><path class="cls-40" d="M76.92,456.34s11.75,5.67,14.63,31-1.68,36.37,1.06,48.78-12,21.19-17.85,19.81-8.41,1.53-13.15-26.36S54.4,450.44,76.92,456.34Z"/><path class="cls-39" d="M28.76,433.94a19,19,0,0,0,17,10.15,19.25,19.25,0,0,0,13.51-5.46c-.08-.21-.15-.44-.23-.67-1.07-3.36,1.68-19.42,1.68-19.42s-7-7.31-14.07-10.56c-5.35-2.47-10.75-2.63-13.22,4.39a18.31,18.31,0,0,0-.63,2.21C30.66,423.87,27.78,425.26,28.76,433.94Z"/><path class="cls-39" d="M66.65,377.62s3.31,4.77,4,8.48-1.19,6.59-1.19,7.38,2.51,8.5,2.65,11.15-3.22,24.22-5.52,25.15c-8.69,3.53-11.29-.13-12.88-2.12s-9.27-9.27-11.25-9S24.69,423.56,23.1,422,9.86,407.14,11.85,392.18s11.78-22.37,21.84-25.68S62.41,363.61,66.65,377.62Z"/><path class="cls-41" d="M60.67,408.34S57.1,398,59.48,388.26c2-8.14,8.28-7.33,9.16-9.48,7-17.43-5.73-19.84-10.21-20.94-5-1.24-12.11,2-16.58,4.47s-6,2.49-10.93,3.68c-27.18,6.55-18.84,35.45-18.11,38.48,2.68,11.06,11.37,22,11.37,22A14.6,14.6,0,0,0,33,429.76c14.67.9,14.54-21.7,18.07-23.81s5.07,2,5.46,4.5S60.67,408.34,60.67,408.34Z"/><path class="cls-42" d="M277.36,558.21s11.75,5.66,14.64,31-1.69,36.36,1.05,48.78-12,21.18-17.84,19.81-8.42,1.53-13.15-26.37S254.85,552.3,277.36,558.21Z"/><path class="cls-43" d="M264.27,903.56v16.9a10.7,10.7,0,0,0,7.43,5.63c5.63,1.32,17-3.83,22.77-6.47s19.3-10,22.06-11.87,10.31-14.38,2.64-15.82-29,3.59-29,3.59Z"/><path class="cls-44" d="M298,928v16.9a10.7,10.7,0,0,0,7.43,5.64c5.63,1.31,17-3.84,22.77-6.48s19.2-10.11,22.06-11.87c4.44-2.71,10.31-16.3,2.64-17.74s-29,5.52-29,5.52Z"/><path class="cls-31" d="M264.27,901.64v16.9a10.7,10.7,0,0,0,7.43,5.63c5.63,1.32,17-3.83,22.77-6.47s19.3-10,22.06-11.87,10.31-14.38,2.64-15.82-29,3.6-29,3.6Z"/><path class="cls-31" d="M298,926.09V943a10.7,10.7,0,0,0,7.43,5.64c5.63,1.32,17-3.84,22.77-6.48s19.3-9.95,22.06-11.86,10.31-14.39,2.64-15.83-29,3.6-29,3.6Z"/><path class="cls-32" d="M309.21,666.21s2.4,53.7,1.2,65.69-12,65-12.46,75.28-4.32,89.66-4.32,89.66.48,10.23-9.11,12.71c-24.11,6.24-21.82-2.64-21.82-2.64l3.12-93.5s-5.67-67.5-6.25-92.9C258.69,682.15,294.11,596,309.21,666.21Z"/><path class="cls-33" d="M344.35,752.9c0,.66-.08,1.26-.13,1.77-.11,1.1-.3,2.56-.56,4.3-.06.42-.13.86-.2,1.31-.11.69-.23,1.43-.35,2.2-3.07,19-10.95,58.7-11.36,67.47-.48,10.31-4.31,89.67-4.31,89.67a14.69,14.69,0,0,1-9.11,12.71c-20.38,9.11-21.82-2.64-21.82-2.64l-3.12-99.5-5.43-84h0l-.56-8.68S320,641.81,337.66,673c.24.43.47.87.71,1.35A63.91,63.91,0,0,1,343,689s1.1,24.6,1.43,44.22C344.6,741.32,344.6,748.59,344.35,752.9Z"/><path class="cls-45" d="M345,669.1l-.74,15.33.5,31.75.25,16.66v.68l.29,19-.92.38c-3.25,1.33-14.58,5.6-25.92,5.6a20.1,20.1,0,0,1-2.61-.18c-.5-.07-1-.15-1.56-.25a38.69,38.69,0,0,1-3.92-1c-1.27-.38-2.57-.84-3.89-1.35A117.61,117.61,0,0,1,288,746.22a138.3,138.3,0,0,1-13.52-9.41c-6.73-5.51-14.87-16.31-14.87-16.31s5.58-83,5.58-93.32-6-52.08-1-62.87,25.3-19.18,40.46-10.78,40.09,22.77,42,46.5c.21,2.56.36,5,.5,7.22,1,18.72-.5,27.31-.5,27.31l-1.57,32.55Z"/><polygon class="cls-46" points="349.63 752.36 343.99 744.5 349.63 745.37 349.63 752.36"/><polygon class="cls-47" points="360.27 750.13 355 746.76 358.2 745.73 360.27 750.13"/><path class="cls-7" d="M347.11,607.25c1,18.72-.49,27.31-.49,27.31l-1.57,32.55-.09,2-.74,15.33.49,31.75-14.3-30c-4.57-.75-7.06-1.32-11.26-26-4.73-27.89-7.21-79.1,15.31-73.19C334.46,587,342.75,591,347.11,607.25Z"/><ellipse class="cls-17" cx="424.4" cy="677.81" rx="50.37" ry="27.86" transform="translate(-375.18 692.61) rotate(-59.01)"/><path class="cls-48" d="M448.38,628a21.85,21.85,0,0,0-4.91-.63c-5.94-.11-12.67,2-19.74,6.48-9.15,5.85-17.39,14.89-23.86,25.31l-.16.26c-.47.75-.93,1.5-1.38,2.26q-1.23,2.1-2.36,4.27c-.75,1.44-1.46,2.91-2.12,4.38-.37.81-.71,1.62-1.06,2.44l-.11.26c-4.79,11.31-7.44,23.25-6.94,34.1.38,8.38,2.56,15.08,6.08,19.87a22,22,0,0,0,3.34,3.64,20,20,0,0,0,3.86,2.64L390.78,729c-7.66-4-12.69-13-13.29-26.14-1.19-26.3,15.82-59.11,38-73.29,11.09-7.09,21.37-8.18,29-4.21l8.25,4.28A19.72,19.72,0,0,0,448.38,628Z"/><path class="cls-49" d="M456.77,656.18c.4,8.87-1.72,19.27-5.91,29.41a2,2,0,0,0-.11.26c-.34.82-.7,1.63-1.06,2.44-.68,1.47-1.38,2.94-2.13,4.38s-1.54,2.86-2.35,4.26c-.46.77-.92,1.53-1.39,2.28l-.15.24c-5.87,9.26-13.15,17-20.63,21.78-7.69,4.92-14.89,6.3-19.74,3.78a11.34,11.34,0,0,1-3.64-3.07,18,18,0,0,0,5.55-.61A33.61,33.61,0,0,0,414.8,717c9.24-5.9,18.18-16.31,24.52-28.55s9.7-25.54,9.2-36.49a33.76,33.76,0,0,0-1.95-10.37,18,18,0,0,0-2.7-4.87,11.19,11.19,0,0,1,4.61,1.19C453.33,640.37,456.35,647.05,456.77,656.18Z"/><path class="cls-50" d="M452.76,629.62a19.72,19.72,0,0,0-4.38-1.64,21.85,21.85,0,0,0-4.91-.63c-5.94-.11-12.67,2-19.74,6.48-9.15,5.85-17.39,14.89-23.86,25.31l-.16.26c-.47.74-.93,1.5-1.38,2.26-.81,1.41-1.61,2.82-2.36,4.27s-1.45,2.91-2.12,4.38c-.37.81-.72,1.62-1.06,2.44l-.11.26c-4.79,11.31-7.44,23.25-6.94,34.1.38,8.38,2.56,15.08,6.08,19.87a22,22,0,0,0,3.34,3.64,20,20,0,0,0,3.86,2.64c7.66,4,17.94,2.88,29-4.21,22.17-14.18,39.18-47,38-73.29C465.45,642.62,460.41,633.59,452.76,629.62Zm-4.28,8.24c4.85,2.51,7.87,9.19,8.29,18.32.4,8.87-1.72,19.27-5.91,29.41a2,2,0,0,0-.11.26c-.35.82-.69,1.63-1.06,2.44-.67,1.47-1.37,2.94-2.13,4.39s-1.54,2.86-2.35,4.25c-.45.77-.92,1.52-1.39,2.28l-.15.24c-5.87,9.26-13.15,17-20.63,21.78-7.69,4.92-14.89,6.3-19.74,3.78a11.34,11.34,0,0,1-3.64-3.07,18.19,18.19,0,0,1-2.7-4.88A33.76,33.76,0,0,1,395,706.69c-.49-11,2.86-24.25,9.2-36.49s15.29-22.64,24.52-28.55a33.66,33.66,0,0,1,9.6-4.38,18,18,0,0,1,5.54-.6A11.19,11.19,0,0,1,448.48,637.86Z"/><path class="cls-7" d="M345.27,752.52l-.92.38c0,.66-.08,1.26-.13,1.77-.11,1.1-.3,2.56-.56,4.3l-18.73,19.37a5.89,5.89,0,0,1-1.38,1c-1.69,1.22-4.24,1.06-7.07-.75-5-3.2-9-10.35-9-16,0-2.77,1.05-4.65,2.67-5.46h0l.14-.1,34.11-23.89.52-.36v.68Z"/><path class="cls-51" d="M388.26,721.82a3.44,3.44,0,0,1-.38,1.65l-.74.76-52.42,54.21a5,5,0,0,1-5.67,1.24c-4.33-1.67-7.38-8-6.83-14,.27-2.86-3.7-7.12-2.23-8.42l60.49-42.36.5-.35a2.54,2.54,0,0,1,1.82-.57,4.52,4.52,0,0,1,1.42.62A9.46,9.46,0,0,1,388.26,721.82Z"/><path class="cls-52" d="M317.31,762.76c-.06,5.62,3.95,12.77,9,16s9.12,1.25,9.19-4.37-3.95-12.77-9-16S317.38,757.14,317.31,762.76Z"/><path class="cls-7" d="M374,732.85l-9.66,15.08-4.07,4.14c0-.06-1.23-2.68-1.3-2.87-.55-1.17-2.37-4.53-2.68-4.89a15.29,15.29,0,0,0-1.73-1.49c-2.58-2.3-2.9-6.55-3-7.65,6.2-4.45,9.34-10.85,14.19-13.65,3.28,2.56,6.48,5.23,6.63,6.36a31.46,31.46,0,0,0,1.1,3.47C373.67,731.83,373.83,732.34,374,732.85Z"/><path class="cls-39" d="M346.07,714.39l-19-39.83,2.4-1.18,19.33-9.77s1.8,9.48,4.09,20.31l.09.05s.21,1.17.57,3c2.68,12.48,5.85,25.72,7.58,27.89a1.66,1.66,0,0,0,.18.19c3.27,2.8,12.16,9,12.41,10.93s4.74,11.31,1.86,13.94c-1.46,1.34-3.83,4-6.39,6.39s-5.14,4.17-7.36,4.15c-4.52,0-2.3-6.27-6-9.53-2.58-2.31-2.63-1.59-3.14-9.09s-.15-9.62-3.41-13.56Z"/><path class="cls-53" d="M335.79,579.94s11.75,5.67,14.64,31-1.68,36.37,1.06,48.79-12,21.18-17.85,19.81-8.41,1.52-13.15-26.37S313.28,574,335.79,579.94Z"/><path class="cls-39" d="M287.64,557.54a18.93,18.93,0,0,0,16.95,10.15,19.19,19.19,0,0,0,13.5-5.46c-.07-.21-.14-.44-.22-.67-1.07-3.36,1.68-19.42,1.68-19.42s-7-7.31-14.08-10.56c-5.34-2.46-10.74-2.62-13.21,4.4a18.67,18.67,0,0,0-.63,2.2C289.53,547.47,286.65,548.86,287.64,557.54Z"/><path class="cls-39" d="M325.53,501.23s3.31,4.76,4,8.47-1.19,6.59-1.19,7.38,2.51,8.5,2.65,11.15-3.23,24.22-5.52,25.16c-8.69,3.52-11.3-.14-12.88-2.13s-9.27-9.26-11.26-9-17.73,4.9-19.32,3.31-13.24-14.82-11.25-29.78,11.78-22.37,21.84-25.68S321.28,487.21,325.53,501.23Z"/><path class="cls-41" d="M319.55,532s-3.58-10.32-1.19-20.09c2-8.14,8.28-7.33,9.15-9.48,7.06-17.42-5.73-19.83-10.2-20.94-5-1.23-12.11,2-16.58,4.48s-6,2.49-10.94,3.67c-27.17,6.56-18.83,35.45-18.1,38.49,2.67,11.06,11.37,22,11.37,22a14.68,14.68,0,0,0,8.81,3.26c14.66.89,14.54-21.7,18.07-23.82s5.07,2,5.46,4.5S319.55,532,319.55,532Z"/></g></g></g></svg>