<svg xmlns="http://www.w3.org/2000/svg" xmlns:xlink="http://www.w3.org/1999/xlink" viewBox="0 0 400 451.01"><defs><style>.cls-1{isolation:isolate;}.cls-2{fill:#c4c6d0;}.cls-3,.cls-4{fill:#efeff4;}.cls-4{mix-blend-mode:screen;}.cls-5{fill:#9cd8e5;}.cls-6{fill:#ebffff;}.cls-7{fill:#cacaca;mix-blend-mode:multiply;}.cls-8{fill:#040237;}.cls-13,.cls-17,.cls-9{fill:#fff;}.cls-10{fill:#32b98e;}.cls-11{fill:#f26c73;}.cls-12{fill:#ffd602;}.cls-13,.cls-15{opacity:0.8;}.cls-14{fill:#c6c6c6;}.cls-16{fill:#ff7343;}.cls-17{opacity:0.5;}.cls-18{fill:url(#_ÂÁ_Ï_ÌÌ_È_ËÂÌÚ_11);}.cls-19{fill:url(#_ÂÁ_Ï_ÌÌ_È_ËÂÌÚ_11-2);}.cls-20{fill:url(#_ÂÁ_Ï_ÌÌ_È_ËÂÌÚ_11-3);}.cls-21{fill:url(#_ÂÁ_Ï_ÌÌ_È_ËÂÌÚ_11-4);}.cls-22{fill:url(#_ÂÁ_Ï_ÌÌ_È_ËÂÌÚ_11-5);}.cls-23{fill:url(#_ÂÁ_Ï_ÌÌ_È_ËÂÌÚ_11-6);}.cls-24{fill:url(#_ÂÁ_Ï_ÌÌ_È_ËÂÌÚ_60);}.cls-25{fill:#ff5a22;}.cls-26{fill:url(#_ÂÁ_Ï_ÌÌ_È_ËÂÌÚ_2);}.cls-27{fill:url(#_ÂÁ_Ï_ÌÌ_È_ËÂÌÚ_68);}.cls-28{fill:url(#linear-gradient);}.cls-29{fill:url(#_ÂÁ_Ï_ÌÌ_È_ËÂÌÚ_2-2);}.cls-30{fill:url(#_ÂÁ_Ï_ÌÌ_È_ËÂÌÚ_2-3);}.cls-31{fill:#e4e4e8;}.cls-32{fill:#282b43;}.cls-33{fill:#1d2035;}.cls-34{fill:url(#linear-gradient-2);}.cls-35{fill:url(#_ÂÁ_Ï_ÌÌ_È_ËÂÌÚ_191);}.cls-36{fill:#644733;}.cls-37{fill:#a07758;}.cls-38{fill:#c4926c;}.cls-39{fill:#ffc2c1;}.cls-40{fill:url(#linear-gradient-3);}.cls-41{fill:#313445;}.cls-42{fill:url(#linear-gradient-4);}.cls-43{fill:url(#_ÂÁ_Ï_ÌÌ_È_ËÂÌÚ_2-4);}.cls-44{fill:url(#_ÂÁ_Ï_ÌÌ_È_ËÂÌÚ_2-5);}.cls-45{fill:url(#linear-gradient-5);}.cls-46{fill:#edecc6;}.cls-47{fill:#e6e4b0;}.cls-48{fill:url(#_ÂÁ_Ï_ÌÌ_È_ËÂÌÚ_67);}.cls-49{fill:#75cedc;}.cls-50{fill:url(#_ÂÁ_Ï_ÌÌ_È_ËÂÌÚ_68-2);}.cls-51{fill:url(#_ÂÁ_Ï_ÌÌ_È_ËÂÌÚ_65);}.cls-52{fill:url(#_ÂÁ_Ï_ÌÌ_È_ËÂÌÚ_66);}.cls-53{fill:url(#linear-gradient-6);}</style><linearGradient id="_ÂÁ_Ï_ÌÌ_È_ËÂÌÚ_11" x1="50.49" y1="119.57" x2="52.89" y2="119.57" gradientTransform="matrix(-1, 0, 0, 1, 260.58, 0)" gradientUnits="userSpaceOnUse"><stop offset="0" stop-color="#fc5c7d"/><stop offset="1" stop-color="#6a82fb"/></linearGradient><linearGradient id="_ÂÁ_Ï_ÌÌ_È_ËÂÌÚ_11-2" x1="49.6" y1="124.44" x2="54.16" y2="124.35" xlink:href="#_ÂÁ_Ï_ÌÌ_È_ËÂÌÚ_11"/><linearGradient id="_ÂÁ_Ï_ÌÌ_È_ËÂÌÚ_11-3" x1="49.71" y1="129.27" x2="54.26" y2="129.18" xlink:href="#_ÂÁ_Ï_ÌÌ_È_ËÂÌÚ_11"/><linearGradient id="_ÂÁ_Ï_ÌÌ_È_ËÂÌÚ_11-4" x1="49.81" y1="134.1" x2="54.37" y2="134" xlink:href="#_ÂÁ_Ï_ÌÌ_È_ËÂÌÚ_11"/><linearGradient id="_ÂÁ_Ï_ÌÌ_È_ËÂÌÚ_11-5" x1="49.91" y1="138.93" x2="54.47" y2="138.83" xlink:href="#_ÂÁ_Ï_ÌÌ_È_ËÂÌÚ_11"/><linearGradient id="_ÂÁ_Ï_ÌÌ_È_ËÂÌÚ_11-6" x1="50.01" y1="143.75" x2="54.57" y2="143.66" xlink:href="#_ÂÁ_Ï_ÌÌ_È_ËÂÌÚ_11"/><linearGradient id="_ÂÁ_Ï_ÌÌ_È_ËÂÌÚ_60" x1="76.26" y1="113.56" x2="77.22" y2="113.56" gradientTransform="matrix(-1, 0, 0, 1, 260.58, 0)" gradientUnits="userSpaceOnUse"><stop offset="0" stop-color="#00f260"/><stop offset="1" stop-color="#0057e6"/></linearGradient><linearGradient id="_ÂÁ_Ï_ÌÌ_È_ËÂÌÚ_2" x1="191.88" y1="383.78" x2="228.19" y2="383.78" gradientUnits="userSpaceOnUse"><stop offset="0" stop-color="#1f4075"/><stop offset="1" stop-color="#0162af"/></linearGradient><linearGradient id="_ÂÁ_Ï_ÌÌ_È_ËÂÌÚ_68" x1="357.59" y1="-292.39" x2="383.28" y2="-292.39" gradientTransform="matrix(-0.5, 0.87, 0.87, 0.5, 648.46, 206.13)" gradientUnits="userSpaceOnUse"><stop offset="0" stop-color="#85caff"/><stop offset="1" stop-color="#304eb0"/></linearGradient><linearGradient id="linear-gradient" x1="493.02" y1="229.7" x2="509.39" y2="229.7" gradientTransform="matrix(-1, 0, 0, 1, 509.39, 0)" gradientUnits="userSpaceOnUse"><stop offset="0" stop-color="#144188"/><stop offset="1" stop-color="#1a7cde"/></linearGradient><linearGradient id="_ÂÁ_Ï_ÌÌ_È_ËÂÌÚ_2-2" x1="2.56" y1="372.56" x2="30.19" y2="372.56" xlink:href="#_ÂÁ_Ï_ÌÌ_È_ËÂÌÚ_2"/><linearGradient id="_ÂÁ_Ï_ÌÌ_È_ËÂÌÚ_2-3" x1="18.53" y1="383.72" x2="46.34" y2="383.72" xlink:href="#_ÂÁ_Ï_ÌÌ_È_ËÂÌÚ_2"/><linearGradient id="linear-gradient-2" x1="-7.2" y1="216.71" x2="24.91" y2="257.12" gradientTransform="matrix(1, 0, 0, 1, 0, 0)" xlink:href="#linear-gradient"/><linearGradient id="_ÂÁ_Ï_ÌÌ_È_ËÂÌÚ_191" x1="92.35" y1="289.86" x2="87.93" y2="251.91" gradientUnits="userSpaceOnUse"><stop offset="0" stop-color="#83a4d4"/><stop offset="1" stop-color="#b6fbff"/></linearGradient><linearGradient id="linear-gradient-3" x1="465.3" y1="240.01" x2="481.67" y2="240.01" xlink:href="#linear-gradient"/><linearGradient id="linear-gradient-4" x1="-1612.26" y1="288.33" x2="-1595.89" y2="288.33" gradientTransform="matrix(-1, 0, 0, 1, -1473.08, 0)" xlink:href="#linear-gradient"/><linearGradient id="_ÂÁ_Ï_ÌÌ_È_ËÂÌÚ_2-4" x1="125.36" y1="431.2" x2="152.99" y2="431.2" xlink:href="#_ÂÁ_Ï_ÌÌ_È_ËÂÌÚ_2"/><linearGradient id="_ÂÁ_Ï_ÌÌ_È_ËÂÌÚ_2-5" x1="141.34" y1="442.36" x2="169.14" y2="442.36" xlink:href="#_ÂÁ_Ï_ÌÌ_È_ËÂÌÚ_2"/><linearGradient id="linear-gradient-5" x1="2098.08" y1="275.35" x2="2130.19" y2="315.75" gradientTransform="translate(-1982.48)" xlink:href="#linear-gradient"/><linearGradient id="_ÂÁ_Ï_ÌÌ_È_ËÂÌÚ_67" x1="179.04" y1="321.7" x2="214.77" y2="321.7" gradientUnits="userSpaceOnUse"><stop offset="0" stop-color="#304eb0"/><stop offset="1" stop-color="#85caff"/></linearGradient><linearGradient id="_ÂÁ_Ï_ÌÌ_È_ËÂÌÚ_68-2" x1="1427.34" y1="339.85" x2="1466.49" y2="339.85" gradientTransform="translate(-1258.83 49.29) rotate(-2.6)" xlink:href="#_ÂÁ_Ï_ÌÌ_È_ËÂÌÚ_68"/><linearGradient id="_ÂÁ_Ï_ÌÌ_È_ËÂÌÚ_65" x1="2141.88" y1="366.73" x2="2156.41" y2="340.15" gradientTransform="translate(-1982.48)" gradientUnits="userSpaceOnUse"><stop offset="0" stop-color="#eb696f"/><stop offset="1" stop-color="#f2aeb2"/></linearGradient><linearGradient id="_ÂÁ_Ï_ÌÌ_È_ËÂÌÚ_66" x1="2133" y1="364.58" x2="2141.61" y2="364.58" gradientTransform="translate(-1982.48)" gradientUnits="userSpaceOnUse"><stop offset="0" stop-color="#f2aeb2"/><stop offset="1" stop-color="#eb696f"/></linearGradient><linearGradient id="linear-gradient-6" x1="-1639.98" y1="298.64" x2="-1623.61" y2="298.64" gradientTransform="matrix(-1, 0, 0, 1, -1473.08, 0)" xlink:href="#linear-gradient"/></defs><g class="cls-1"><g id="Layer_2" data-name="Layer 2"><g id="Layer_1-2" data-name="Layer 1"><path class="cls-2" d="M327.07,296.13,200.88,254.58V258a2.56,2.56,0,0,0,1.49,2.2l93.05,54.45c2.21,1.27,6.06,1.11,8.61-.36L325,302.39c1.4-.81,2.11-1.84,2.1-2.82v-3.44Z"/><path class="cls-3" d="M232.52,239.48l93.06,54.45c2.2,1.28,1.93,3.5-.62,5L304,310.78c-2.55,1.47-6.4,1.63-8.61.36l-93.05-54.46c-2.2-1.27-1.93-3.49.62-5l20.93-11.89C226.47,238.36,230.32,238.2,232.52,239.48Z"/><path class="cls-2" d="M288,279.71l-43.13-82.95,3.05-1a3.4,3.4,0,0,1,2.62.37l26.2,13.37a6.68,6.68,0,0,1,3.49,5.88l12.44,61.1a2.39,2.39,0,0,1-1.59,2.22l-.06,0Z"/><path class="cls-3" d="M259.21,266l26.2,13.37c2.12,1.12,4,.29,4.17-1.84l-12.43-61.1a6.71,6.71,0,0,0-3.49-5.88l-26.2-13.37c-2.12-1.11-4-.29-4.17,1.84l12.43,61.1A6.69,6.69,0,0,0,259.21,266Z"/><path class="cls-2" d="M378,155.25l-3.45,58.57-3.38,57.33-1,16.8c0,3.36-1.12,5.72-2.9,6.73l-.12.08-6.41,3.43L200.88,51.33l6.46-3.46c1.48-.88,3.41-.83,5.53.4L279.54,87l24,13.93,66.14,38.42C374.26,142,378,149.11,378,155.25Z"/><path class="cls-3" d="M371.36,158.79l-7.81,132.7c0,6.14-3.73,8.95-8.33,6.3l-156.8-91.06c-4.6-2.65-8.33-9.78-8.33-15.92l3-51,3.38-57.33,1.43-24.35c0-6.13,3.73-9,8.33-6.3L363,142.87C367.64,145.53,371.36,152.65,371.36,158.79Z"/><polygon class="cls-4" points="366.87 150.84 203.04 55.68 194.52 199.06 358.41 293.95 366.87 150.84"/><path class="cls-2" d="M292.93,334.08,125.27,289.44l0,3.84a3.4,3.4,0,0,0,2,2.92l115.27,67.24c2.94,1.7,8.06,1.49,11.45-.47l36.16-21.23c1.85-1.08,2.8-2.45,2.79-3.75,0,0,0-.09,0-.09S292.93,334.08,292.93,334.08Z"/><path class="cls-3" d="M175.28,264.09,291,331.17c2.93,1.69,2.56,4.65-.83,6.61L254,359c-3.39,2-8.52,2.17-11.45.47L127.25,292.24c-2.93-1.69-2.56-4.65.82-6.61l35.76-21.06C167.22,262.61,172.34,262.4,175.28,264.09Z"/><path class="cls-5" d="M257.21,353.78l-9.64,0v1a.34.34,0,0,0,.19.29l4.11,2.37a1.21,1.21,0,0,0,1.11,0l4-2.29a.44.44,0,0,0,.27-.36h0Z"/><path class="cls-6" d="M252.9,351.12,257,353.5c.28.16.25.45-.08.64l-4,2.28a1.25,1.25,0,0,1-1.11.05l-4.11-2.38c-.28-.16-.25-.45.08-.64l3.95-2.28A1.25,1.25,0,0,1,252.9,351.12Z"/><path class="cls-5" d="M250.64,350,241,350v1a.34.34,0,0,0,.19.29l4.12,2.37a1.19,1.19,0,0,0,1.1,0l4-2.29a.44.44,0,0,0,.27-.36h0Z"/><path class="cls-6" d="M246.33,347.32l4.12,2.38c.28.16.25.45-.08.64l-4,2.28a1.25,1.25,0,0,1-1.11.05l-4.11-2.38c-.28-.16-.25-.45.08-.64l4-2.28A1.23,1.23,0,0,1,246.33,347.32Z"/><path class="cls-5" d="M249.33,341.64l-9.65,0v1a.33.33,0,0,0,.2.28l4.11,2.38a1.25,1.25,0,0,0,1.11-.05l4-2.28a.47.47,0,0,0,.28-.36h0Z"/><path class="cls-6" d="M245,339l4.11,2.38c.29.16.25.45-.08.64l-4,2.28a1.25,1.25,0,0,1-1.11.05L239.88,342c-.29-.16-.25-.45.08-.64l3.95-2.28A1.25,1.25,0,0,1,245,339Z"/><path class="cls-5" d="M258.52,339.38l-9.64,0v1a.32.32,0,0,0,.19.28l4.12,2.38a1.25,1.25,0,0,0,1.11-.05l3.95-2.28a.45.45,0,0,0,.27-.36h0Z"/><path class="cls-6" d="M254.22,336.72l4.11,2.38c.28.16.25.45-.08.64L254.3,342a1.25,1.25,0,0,1-1.11.05l-4.12-2.38c-.28-.16-.25-.45.08-.64l4-2.28A1.25,1.25,0,0,1,254.22,336.72Z"/><path class="cls-5" d="M252,335.59l-9.64,0v1a.34.34,0,0,0,.19.28l4.12,2.38a1.25,1.25,0,0,0,1.11,0l4-2.28a.47.47,0,0,0,.27-.37h0Z"/><path class="cls-6" d="M247.65,332.93l4.11,2.37c.29.17.25.45-.08.64l-4,2.29a1.21,1.21,0,0,1-1.11,0l-4.12-2.37c-.28-.17-.24-.45.08-.64l4-2.29A1.21,1.21,0,0,1,247.65,332.93Z"/><path class="cls-5" d="M245.38,331.79l-9.64,0v1a.33.33,0,0,0,.2.29l4.11,2.37a1.25,1.25,0,0,0,1.11,0l4-2.29a.45.45,0,0,0,.27-.36h0Z"/><path class="cls-6" d="M241.08,329.13l4.11,2.38c.29.16.25.45-.08.64l-4,2.28a1.25,1.25,0,0,1-1.11.05l-4.12-2.38c-.28-.16-.24-.45.08-.64l4-2.28A1.25,1.25,0,0,1,241.08,329.13Z"/><path class="cls-5" d="M238.82,328l-9.65,0v1a.34.34,0,0,0,.2.28l4.11,2.38a1.25,1.25,0,0,0,1.11-.05l3.95-2.28c.18-.11.28-.24.28-.37h0Z"/><path class="cls-6" d="M234.51,325.34l4.11,2.37c.29.17.25.46-.08.64l-3.95,2.29a1.21,1.21,0,0,1-1.11,0l-4.11-2.37c-.29-.17-.25-.45.08-.64l4-2.29A1.25,1.25,0,0,1,234.51,325.34Z"/><path class="cls-5" d="M232.25,324.2l-9.64,0v1a.32.32,0,0,0,.19.29l4.11,2.37a1.21,1.21,0,0,0,1.11,0l4-2.29a.44.44,0,0,0,.27-.36h0Z"/><path class="cls-6" d="M227.94,321.54l4.12,2.38c.28.16.24.45-.08.64l-4,2.28a1.25,1.25,0,0,1-1.11.05l-4.11-2.38c-.29-.16-.25-.45.08-.64l4-2.28A1.25,1.25,0,0,1,227.94,321.54Z"/><path class="cls-5" d="M225.68,320.41l-9.64,0v1a.32.32,0,0,0,.19.28l4.11,2.38a1.25,1.25,0,0,0,1.11-.05l4-2.28a.47.47,0,0,0,.27-.36h0Z"/><path class="cls-6" d="M221.37,317.75l4.12,2.38c.28.16.24.45-.08.64l-4,2.28a1.25,1.25,0,0,1-1.11.05l-4.11-2.38c-.29-.16-.25-.45.08-.64l3.95-2.28A1.25,1.25,0,0,1,221.37,317.75Z"/><path class="cls-5" d="M219.11,316.61l-9.64,0v1a.34.34,0,0,0,.19.29l4.11,2.37a1.21,1.21,0,0,0,1.11,0l4-2.29a.44.44,0,0,0,.27-.36h0Z"/><path class="cls-6" d="M214.8,314l4.12,2.37c.28.17.25.45-.08.64l-4,2.28a1.25,1.25,0,0,1-1.11.05l-4.11-2.37c-.28-.17-.25-.46.08-.64l3.95-2.29A1.21,1.21,0,0,1,214.8,314Z"/><path class="cls-5" d="M212.54,312.82l-9.64,0v1a.32.32,0,0,0,.19.28l4.12,2.38a1.23,1.23,0,0,0,1.1-.05l4-2.28a.45.45,0,0,0,.27-.36h0Z"/><path class="cls-6" d="M208.23,310.16l4.12,2.38c.28.16.25.45-.08.64l-4,2.28a1.23,1.23,0,0,1-1.1.05l-4.12-2.38c-.28-.16-.25-.45.08-.64l4-2.28A1.23,1.23,0,0,1,208.23,310.16Z"/><path class="cls-5" d="M206,309l-9.64,0v1a.34.34,0,0,0,.19.28l4.12,2.37a1.21,1.21,0,0,0,1.11,0l3.95-2.28A.47.47,0,0,0,206,310h0Z"/><path class="cls-6" d="M201.67,306.37l4.11,2.37c.28.17.25.45-.08.64l-3.95,2.29a1.21,1.21,0,0,1-1.11,0l-4.12-2.37c-.28-.17-.25-.45.08-.64l4-2.29A1.21,1.21,0,0,1,201.67,306.37Z"/><path class="cls-5" d="M199.4,305.23l-9.64,0v1a.32.32,0,0,0,.19.28l4.12,2.38a1.25,1.25,0,0,0,1.11-.05l3.95-2.28a.45.45,0,0,0,.27-.36h0Z"/><path class="cls-6" d="M195.1,302.57l4.11,2.38c.29.16.25.45-.08.64l-3.95,2.28a1.25,1.25,0,0,1-1.11.05L190,305.54c-.28-.16-.25-.45.08-.64l4-2.28A1.25,1.25,0,0,1,195.1,302.57Z"/><path class="cls-5" d="M192.83,301.44l-9.64,0v1a.34.34,0,0,0,.19.28l4.12,2.38a1.25,1.25,0,0,0,1.11-.05l3.95-2.28a.47.47,0,0,0,.27-.37h0Z"/><path class="cls-6" d="M188.53,298.78l4.11,2.37c.29.17.25.45-.08.64l-3.95,2.29a1.21,1.21,0,0,1-1.11,0l-4.12-2.37c-.28-.17-.24-.45.08-.64l4-2.29A1.21,1.21,0,0,1,188.53,298.78Z"/><path class="cls-5" d="M195.46,295.41l-9.64,0v1a.32.32,0,0,0,.19.28l4.12,2.38a1.23,1.23,0,0,0,1.1-.05l4-2.28a.47.47,0,0,0,.27-.36h0Z"/><path class="cls-6" d="M191.16,292.75l4.11,2.38c.28.16.25.45-.08.64l-4,2.28a1.23,1.23,0,0,1-1.1.05L186,295.72c-.28-.16-.25-.45.08-.64l4-2.28A1.25,1.25,0,0,1,191.16,292.75Z"/><path class="cls-5" d="M202,299.2l-9.64,0v1a.32.32,0,0,0,.19.28l4.12,2.38a1.23,1.23,0,0,0,1.1-.05l4-2.28a.45.45,0,0,0,.27-.36h0Z"/><path class="cls-6" d="M197.72,296.54l4.12,2.38c.28.16.25.45-.08.64l-4,2.28a1.23,1.23,0,0,1-1.1.05l-4.12-2.38c-.28-.16-.25-.45.08-.64l4-2.28A1.23,1.23,0,0,1,197.72,296.54Z"/><path class="cls-5" d="M188.89,291.62l-9.64,0v1a.33.33,0,0,0,.19.28l4.12,2.38a1.25,1.25,0,0,0,1.11-.05l4-2.28a.47.47,0,0,0,.27-.36h0Z"/><path class="cls-6" d="M184.59,289l4.11,2.38c.28.16.25.45-.08.64l-4,2.28a1.21,1.21,0,0,1-1.11,0l-4.12-2.37c-.28-.16-.25-.45.08-.64l4-2.28A1.25,1.25,0,0,1,184.59,289Z"/><path class="cls-5" d="M208.6,303,199,303v1a.32.32,0,0,0,.19.28l4.11,2.38a1.25,1.25,0,0,0,1.11-.05l4-2.28a.45.45,0,0,0,.27-.36h0Z"/><path class="cls-6" d="M204.29,300.33l4.12,2.38c.28.16.25.45-.08.64l-4,2.28a1.25,1.25,0,0,1-1.11.05l-4.11-2.38c-.28-.16-.25-.45.08-.64l4-2.28A1.25,1.25,0,0,1,204.29,300.33Z"/><path class="cls-5" d="M215.17,306.78l-9.64,0v1a.32.32,0,0,0,.19.28l4.11,2.38a1.25,1.25,0,0,0,1.11-.05l4-2.28a.45.45,0,0,0,.27-.36h0Z"/><path class="cls-6" d="M210.86,304.12,215,306.5c.28.16.24.45-.08.64l-4,2.28a1.25,1.25,0,0,1-1.11.05l-4.11-2.38c-.29-.16-.25-.45.08-.64l3.95-2.28A1.25,1.25,0,0,1,210.86,304.12Z"/><path class="cls-5" d="M221.74,310.57l-9.64,0v1a.3.3,0,0,0,.19.28l4.11,2.38a1.25,1.25,0,0,0,1.11-.05l4-2.28a.45.45,0,0,0,.27-.36h0Z"/><path class="cls-6" d="M217.43,307.91l4.11,2.38c.29.16.25.45-.07.64l-4,2.28a1.25,1.25,0,0,1-1.11.05l-4.11-2.38c-.29-.16-.25-.45.08-.64l3.95-2.28A1.25,1.25,0,0,1,217.43,307.91Z"/><path class="cls-5" d="M228.31,314.36l-9.65,0v1a.35.35,0,0,0,.2.29l4.11,2.37a1.25,1.25,0,0,0,1.11-.05l3.95-2.28c.18-.1.28-.24.27-.36h0Z"/><path class="cls-6" d="M224,311.7l4.11,2.38c.29.16.25.45-.08.64L224.08,317a1.25,1.25,0,0,1-1.11.05l-4.11-2.38c-.29-.16-.25-.45.08-.64l3.95-2.28A1.25,1.25,0,0,1,224,311.7Z"/><path class="cls-5" d="M234.87,318.15l-9.64,0v1a.34.34,0,0,0,.19.29l4.12,2.37a1.25,1.25,0,0,0,1.11,0l3.95-2.29a.45.45,0,0,0,.27-.36h0Z"/><path class="cls-6" d="M230.57,315.49l4.11,2.38c.29.16.25.45-.08.64l-3.95,2.28a1.25,1.25,0,0,1-1.11,0l-4.12-2.38c-.28-.16-.24-.45.08-.64l4-2.28A1.25,1.25,0,0,1,230.57,315.49Z"/><path class="cls-5" d="M241.44,321.94l-9.64,0v1a.34.34,0,0,0,.19.29l4.12,2.37a1.21,1.21,0,0,0,1.11,0l3.95-2.29a.44.44,0,0,0,.27-.36h0Z"/><path class="cls-6" d="M237.14,319.28l4.11,2.38c.29.16.25.45-.08.64l-3.95,2.28a1.25,1.25,0,0,1-1.11.05L232,322.25c-.28-.16-.24-.45.08-.64l4-2.28A1.25,1.25,0,0,1,237.14,319.28Z"/><path class="cls-5" d="M248,325.73l-9.64,0v1a.34.34,0,0,0,.19.29l4.12,2.37a1.21,1.21,0,0,0,1.11,0l4-2.29a.44.44,0,0,0,.27-.36h0Z"/><path class="cls-6" d="M243.71,323.07l4.11,2.38c.28.16.25.45-.08.64l-4,2.28a1.25,1.25,0,0,1-1.11.05L238.56,326c-.28-.16-.25-.45.08-.64l4-2.28A1.25,1.25,0,0,1,243.71,323.07Z"/><path class="cls-5" d="M254.58,329.52l-9.64,0v1a.34.34,0,0,0,.19.29l4.12,2.37a1.19,1.19,0,0,0,1.1,0l4-2.29a.44.44,0,0,0,.27-.36h0Z"/><path class="cls-6" d="M250.27,326.86l4.12,2.38c.28.16.25.45-.08.64l-4,2.28a1.23,1.23,0,0,1-1.1,0l-4.12-2.38c-.28-.16-.25-.45.08-.64l4-2.28A1.23,1.23,0,0,1,250.27,326.86Z"/><path class="cls-5" d="M261.15,333.31l-9.64,0v1a.34.34,0,0,0,.19.29l4.11,2.37a1.21,1.21,0,0,0,1.11,0l4-2.29a.44.44,0,0,0,.27-.36h0Z"/><path class="cls-6" d="M256.84,330.66,261,333c.28.16.25.45-.08.64l-4,2.28a1.25,1.25,0,0,1-1.11.05l-4.11-2.38c-.28-.16-.25-.45.08-.63l3.95-2.29A1.21,1.21,0,0,1,256.84,330.66Z"/><path class="cls-5" d="M267.72,337.1l-9.64,0v1a.34.34,0,0,0,.19.29l4.11,2.37a1.21,1.21,0,0,0,1.11,0l4-2.29a.44.44,0,0,0,.27-.36h0Z"/><path class="cls-6" d="M263.41,334.45l4.12,2.37c.28.17.24.45-.08.64l-4,2.28a1.25,1.25,0,0,1-1.11.05l-4.11-2.37c-.29-.17-.25-.46.08-.64l3.95-2.29A1.21,1.21,0,0,1,263.41,334.45Z"/><path class="cls-5" d="M204.69,293.08l-9.64,0v1a.34.34,0,0,0,.19.28l4.11,2.37a1.21,1.21,0,0,0,1.11,0l4-2.29a.44.44,0,0,0,.27-.36h0Z"/><path class="cls-6" d="M200.38,290.43l4.12,2.37c.28.17.24.45-.08.64l-4,2.29a1.24,1.24,0,0,1-1.11,0l-4.11-2.37c-.29-.17-.25-.45.08-.64l4-2.29A1.21,1.21,0,0,1,200.38,290.43Z"/><path class="cls-5" d="M211.26,296.88l-9.64,0v1c0,.1.06.2.19.28l4.11,2.37a1.21,1.21,0,0,0,1.11,0l4-2.28a.49.49,0,0,0,.27-.37h0Z"/><path class="cls-6" d="M207,294.22l4.11,2.37c.29.17.25.45-.08.64L207,299.52a1.21,1.21,0,0,1-1.11,0l-4.11-2.37c-.29-.17-.25-.45.08-.64l4-2.29A1.21,1.21,0,0,1,207,294.22Z"/><path class="cls-5" d="M198.12,289.29l-12.73-1.72v1c0,.1.06.2.19.28l7.2,4.13a1.21,1.21,0,0,0,1.11,0l4-2.29a.44.44,0,0,0,.27-.36h0Z"/><path class="cls-6" d="M190.72,284.88l7.21,4.13c.28.17.25.45-.08.64l-4,2.28a1.25,1.25,0,0,1-1.11.05l-7.2-4.13c-.29-.17-.25-.45.08-.64l4-2.29A1.21,1.21,0,0,1,190.72,284.88Z"/><path class="cls-5" d="M217.83,300.67l-9.65,0v1a.33.33,0,0,0,.2.28l4.11,2.38a1.25,1.25,0,0,0,1.11-.05l4-2.28c.18-.11.28-.24.27-.37h0Z"/><path class="cls-6" d="M213.52,298l4.11,2.37c.29.17.25.45-.08.64l-4,2.29a1.21,1.21,0,0,1-1.11,0L208.38,301c-.29-.17-.25-.45.08-.64l3.95-2.29A1.21,1.21,0,0,1,213.52,298Z"/><path class="cls-5" d="M224.39,304.46l-9.64,0v1a.34.34,0,0,0,.19.28l4.12,2.38a1.25,1.25,0,0,0,1.11,0l4-2.28a.47.47,0,0,0,.27-.37h0Z"/><path class="cls-6" d="M220.09,301.8l4.11,2.37c.29.17.25.45-.08.64l-4,2.29a1.21,1.21,0,0,1-1.11,0l-4.12-2.37c-.28-.17-.24-.45.08-.64l4-2.29A1.21,1.21,0,0,1,220.09,301.8Z"/><path class="cls-5" d="M231,308.25l-9.64,0v1a.33.33,0,0,0,.19.28l4.12,2.38a1.25,1.25,0,0,0,1.11-.05l3.95-2.28a.47.47,0,0,0,.27-.37h0Z"/><path class="cls-6" d="M226.66,305.59l4.11,2.37c.28.17.25.45-.08.64l-3.95,2.29a1.21,1.21,0,0,1-1.11,0l-4.12-2.37c-.28-.17-.25-.45.08-.64l4-2.29A1.21,1.21,0,0,1,226.66,305.59Z"/><path class="cls-5" d="M237.53,312l-9.64,0v1a.33.33,0,0,0,.19.28l4.12,2.38a1.23,1.23,0,0,0,1.1-.05l4-2.28a.47.47,0,0,0,.27-.37h0Z"/><path class="cls-6" d="M233.23,309.38l4.11,2.37c.28.17.25.46-.08.64l-4,2.29a1.19,1.19,0,0,1-1.1,0l-4.12-2.37c-.28-.17-.25-.45.08-.64l4-2.29A1.24,1.24,0,0,1,233.23,309.38Z"/><path class="cls-5" d="M244.1,315.83l-9.64,0v1a.33.33,0,0,0,.19.28l4.12,2.38a1.23,1.23,0,0,0,1.1,0l4-2.28a.47.47,0,0,0,.27-.37h0Z"/><path class="cls-6" d="M239.79,313.17l4.12,2.37c.28.17.25.46-.08.64l-4,2.29a1.19,1.19,0,0,1-1.1,0l-4.12-2.37c-.28-.17-.25-.45.08-.64l4-2.28A1.23,1.23,0,0,1,239.79,313.17Z"/><path class="cls-5" d="M250.67,319.62l-9.64,0v1a.32.32,0,0,0,.19.28l4.11,2.38a1.25,1.25,0,0,0,1.11-.05l4-2.28a.47.47,0,0,0,.27-.36h0Z"/><path class="cls-6" d="M246.36,317l4.12,2.38c.28.16.25.45-.08.64l-4,2.28a1.21,1.21,0,0,1-1.11,0l-4.11-2.37c-.28-.16-.25-.45.08-.64l3.95-2.28A1.25,1.25,0,0,1,246.36,317Z"/><path class="cls-5" d="M257.24,323.41l-9.64,0v1a.32.32,0,0,0,.19.28l4.11,2.38a1.25,1.25,0,0,0,1.11-.05l4-2.28a.47.47,0,0,0,.27-.36h0Z"/><path class="cls-6" d="M252.93,320.75l4.12,2.38c.28.16.24.45-.08.64l-4,2.28a1.25,1.25,0,0,1-1.11.05l-4.11-2.38c-.29-.16-.25-.45.08-.64l3.95-2.28A1.25,1.25,0,0,1,252.93,320.75Z"/><path class="cls-5" d="M263.81,327.2l-9.64,0v1a.3.3,0,0,0,.19.28l4.11,2.38a1.25,1.25,0,0,0,1.11-.05l4-2.28a.45.45,0,0,0,.27-.36h0Z"/><path class="cls-6" d="M259.5,324.54l4.11,2.38c.29.16.25.45-.07.64l-4,2.28a1.25,1.25,0,0,1-1.11.05l-4.11-2.38c-.29-.16-.25-.45.08-.64l3.95-2.28A1.25,1.25,0,0,1,259.5,324.54Z"/><path class="cls-5" d="M270.38,331l-9.65,0v1a.33.33,0,0,0,.2.28l4.11,2.38a1.25,1.25,0,0,0,1.11-.05l4-2.28a.47.47,0,0,0,.28-.36h0Z"/><path class="cls-6" d="M266.07,328.33l4.11,2.38c.29.16.25.45-.08.64l-4,2.28a1.25,1.25,0,0,1-1.11.05l-4.11-2.38c-.29-.16-.25-.45.08-.64l3.95-2.28A1.25,1.25,0,0,1,266.07,328.33Z"/><path class="cls-5" d="M276.94,334.78l-9.64,0v1a.32.32,0,0,0,.19.28l4.12,2.38a1.25,1.25,0,0,0,1.11-.05l3.95-2.28a.45.45,0,0,0,.27-.36h0Z"/><path class="cls-6" d="M272.64,332.12l4.11,2.38c.29.16.25.45-.08.64l-3.95,2.28a1.25,1.25,0,0,1-1.11.05l-4.12-2.38c-.28-.16-.24-.45.08-.64l4-2.28A1.25,1.25,0,0,1,272.64,332.12Z"/><path class="cls-5" d="M283.48,338.61l-9.64,0v1a.34.34,0,0,0,.19.28l4.12,2.37a1.21,1.21,0,0,0,1.11,0l3.95-2.28a.47.47,0,0,0,.27-.37h0Z"/><path class="cls-6" d="M279.18,336l4.11,2.37c.29.17.25.45-.08.64l-3.95,2.29a1.21,1.21,0,0,1-1.11,0L274,338.92c-.28-.17-.24-.45.08-.64l4-2.29A1.21,1.21,0,0,1,279.18,336Z"/><path class="cls-5" d="M276.94,342.36l-12.57-1.69v1a.33.33,0,0,0,.2.28l7,4.11a1.25,1.25,0,0,0,1.11-.05l3.95-2.28a.45.45,0,0,0,.27-.36h0Z"/><path class="cls-6" d="M269.71,338l7,4.11c.29.16.25.45-.08.64L272.72,345a1.25,1.25,0,0,1-1.11.05l-7-4.11c-.29-.16-.25-.45.08-.64l4-2.28A1.25,1.25,0,0,1,269.71,338Z"/><path class="cls-5" d="M208.63,287.83l-9.64,0v1a.34.34,0,0,0,.19.29l4.12,2.37a1.21,1.21,0,0,0,1.11,0l4-2.29a.44.44,0,0,0,.27-.36h0Z"/><path class="cls-6" d="M204.33,285.17l4.11,2.38c.29.16.25.45-.08.64l-4,2.28a1.25,1.25,0,0,1-1.11,0l-4.12-2.38c-.28-.16-.24-.45.08-.64l4-2.28A1.25,1.25,0,0,1,204.33,285.17Z"/><path class="cls-5" d="M215.2,291.62l-9.64,0v1a.34.34,0,0,0,.19.29l4.12,2.37a1.21,1.21,0,0,0,1.11,0l4-2.29a.44.44,0,0,0,.27-.36h0Z"/><path class="cls-6" d="M210.9,289l4.11,2.38c.29.16.25.45-.08.64l-4,2.28a1.25,1.25,0,0,1-1.11.05l-4.12-2.38c-.28-.16-.25-.45.08-.64l4-2.28A1.25,1.25,0,0,1,210.9,289Z"/><path class="cls-5" d="M202.07,284l-9.65,0v1a.33.33,0,0,0,.2.29l4.11,2.37a1.25,1.25,0,0,0,1.11,0l3.95-2.29c.18-.1.28-.24.27-.36h0Z"/><path class="cls-6" d="M197.76,281.38l4.11,2.38c.29.16.25.45-.08.64l-3.95,2.28a1.25,1.25,0,0,1-1.11.05l-4.11-2.38c-.29-.16-.25-.45.08-.64l4-2.28A1.25,1.25,0,0,1,197.76,281.38Z"/><path class="cls-5" d="M221.77,295.41l-9.64,0v1a.34.34,0,0,0,.19.29l4.12,2.37a1.19,1.19,0,0,0,1.1,0l4-2.29a.44.44,0,0,0,.27-.36h0Z"/><path class="cls-6" d="M217.47,292.75l4.11,2.38c.28.16.25.45-.08.64l-4,2.28a1.23,1.23,0,0,1-1.1.05l-4.12-2.38c-.28-.16-.25-.45.08-.64l4-2.28A1.25,1.25,0,0,1,217.47,292.75Z"/><path class="cls-5" d="M228.34,299.2l-9.64,0v1a.34.34,0,0,0,.19.29l4.12,2.37a1.19,1.19,0,0,0,1.1,0l4-2.29a.44.44,0,0,0,.27-.36h0Z"/><path class="cls-6" d="M224,296.55l4.12,2.37c.28.16.25.45-.08.64l-4,2.28a1.23,1.23,0,0,1-1.1.05l-4.12-2.38c-.28-.16-.25-.45.08-.64l4-2.28A1.19,1.19,0,0,1,224,296.55Z"/><path class="cls-5" d="M234.91,303l-9.64,0v1a.34.34,0,0,0,.19.29l4.11,2.37a1.21,1.21,0,0,0,1.11,0l4-2.29a.44.44,0,0,0,.27-.36h0Z"/><path class="cls-6" d="M230.6,300.34l4.12,2.37c.28.17.25.45-.08.64l-4,2.28a1.25,1.25,0,0,1-1.11.05l-4.11-2.37c-.28-.17-.25-.46.08-.64l4-2.29A1.21,1.21,0,0,1,230.6,300.34Z"/><path class="cls-5" d="M241.48,306.78l-9.64,0v1a.34.34,0,0,0,.19.28l4.11,2.37a1.21,1.21,0,0,0,1.11,0l4-2.29a.44.44,0,0,0,.27-.36h0Z"/><path class="cls-6" d="M237.17,304.13l4.12,2.37c.28.17.24.45-.08.64l-4,2.29a1.24,1.24,0,0,1-1.11,0L232,307.1c-.29-.17-.25-.45.08-.64l3.95-2.29A1.21,1.21,0,0,1,237.17,304.13Z"/><path class="cls-5" d="M248.05,310.57l-9.64,0v1c0,.1.06.2.19.28l4.11,2.37a1.21,1.21,0,0,0,1.11,0l4-2.28a.47.47,0,0,0,.27-.37h0Z"/><path class="cls-6" d="M243.74,307.92l4.12,2.37c.28.17.24.45-.08.64l-4,2.29a1.21,1.21,0,0,1-1.11,0l-4.11-2.37c-.29-.17-.25-.45.08-.64l3.95-2.29A1.21,1.21,0,0,1,243.74,307.92Z"/><path class="cls-5" d="M254.62,314.37l-9.65,0v1a.35.35,0,0,0,.2.28l4.11,2.38a1.25,1.25,0,0,0,1.11-.05l4-2.28c.18-.11.28-.24.27-.37h0Z"/><path class="cls-6" d="M250.31,311.71l4.11,2.37c.29.17.25.45-.08.64l-4,2.29a1.21,1.21,0,0,1-1.11,0l-4.11-2.37c-.29-.17-.25-.45.08-.64l3.95-2.29A1.21,1.21,0,0,1,250.31,311.71Z"/><path class="cls-5" d="M261.18,318.16l-9.64,0v1a.34.34,0,0,0,.19.28l4.12,2.38a1.25,1.25,0,0,0,1.11-.05l4-2.28a.47.47,0,0,0,.27-.37h0Z"/><path class="cls-6" d="M256.88,315.5l4.11,2.37c.29.17.25.45-.08.64l-4,2.29a1.21,1.21,0,0,1-1.11,0l-4.12-2.37c-.28-.17-.24-.45.08-.64l4-2.29A1.21,1.21,0,0,1,256.88,315.5Z"/><path class="cls-5" d="M267.75,322l-9.64,0v1a.33.33,0,0,0,.19.28l4.12,2.38a1.25,1.25,0,0,0,1.11-.05l4-2.28a.47.47,0,0,0,.27-.37h0Z"/><path class="cls-6" d="M263.45,319.29l4.11,2.37c.29.17.25.45-.08.64l-4,2.29a1.21,1.21,0,0,1-1.11,0l-4.12-2.37c-.28-.17-.24-.45.08-.64l4-2.29A1.21,1.21,0,0,1,263.45,319.29Z"/><path class="cls-5" d="M274.32,325.74l-9.64,0v1a.33.33,0,0,0,.19.28l4.12,2.38a1.25,1.25,0,0,0,1.11-.05l3.95-2.28a.47.47,0,0,0,.27-.37h0Z"/><path class="cls-6" d="M270,323.08l4.11,2.37c.28.17.25.45-.08.64l-3.95,2.29a1.21,1.21,0,0,1-1.11,0l-4.12-2.37c-.28-.17-.25-.45.08-.64l4-2.29A1.24,1.24,0,0,1,270,323.08Z"/><path class="cls-5" d="M280.89,329.53l-9.64,0v1a.33.33,0,0,0,.19.28l4.12,2.38a1.23,1.23,0,0,0,1.1-.05l4-2.28a.47.47,0,0,0,.27-.37h0Z"/><path class="cls-6" d="M276.58,326.87l4.12,2.37c.28.17.25.46-.08.64l-4,2.29a1.19,1.19,0,0,1-1.1,0l-4.12-2.37c-.28-.17-.25-.45.08-.64l4-2.28A1.23,1.23,0,0,1,276.58,326.87Z"/><path class="cls-5" d="M174.32,268.2l-9.64,0v1c0,.1.06.2.19.28l4.11,2.37a1.21,1.21,0,0,0,1.11,0l4-2.29a.44.44,0,0,0,.27-.36h0Z"/><path class="cls-6" d="M170,265.55l4.12,2.37c.28.17.24.45-.08.64l-4,2.29a1.21,1.21,0,0,1-1.11,0l-4.11-2.37c-.29-.17-.25-.45.08-.64l4-2.29A1.21,1.21,0,0,1,170,265.55Z"/><path class="cls-5" d="M180.89,272l-9.65,0v1a.35.35,0,0,0,.2.28l4.11,2.38a1.25,1.25,0,0,0,1.11-.05l4-2.28c.18-.11.28-.24.28-.37h0Z"/><path class="cls-6" d="M176.58,269.34l4.11,2.37c.29.17.25.45-.08.64l-4,2.29a1.21,1.21,0,0,1-1.11,0l-4.11-2.37c-.29-.17-.25-.45.08-.64l3.95-2.29A1.21,1.21,0,0,1,176.58,269.34Z"/><path class="cls-5" d="M187.45,275.79l-9.64,0v1a.33.33,0,0,0,.2.28l4.11,2.38a1.25,1.25,0,0,0,1.11-.05l4-2.28a.47.47,0,0,0,.27-.37h0Z"/><path class="cls-6" d="M183.15,273.13l4.11,2.37c.29.17.25.45-.08.64l-4,2.29a1.21,1.21,0,0,1-1.11,0L178,276.1c-.29-.17-.25-.45.07-.64l4-2.29A1.21,1.21,0,0,1,183.15,273.13Z"/><path class="cls-5" d="M194,279.58l-9.64,0v1a.34.34,0,0,0,.19.28l4.12,2.38a1.25,1.25,0,0,0,1.11,0l3.95-2.28a.47.47,0,0,0,.27-.37h0Z"/><path class="cls-6" d="M189.72,276.92l4.11,2.37c.29.17.25.45-.08.64l-3.95,2.29a1.21,1.21,0,0,1-1.11,0l-4.12-2.37c-.28-.17-.24-.45.08-.64l4-2.29A1.21,1.21,0,0,1,189.72,276.92Z"/><path class="cls-5" d="M290.09,334.78l-12.58-1.69v1a.32.32,0,0,0,.19.29l7.05,4.1a1.25,1.25,0,0,0,1.11-.05l4-2.28a.45.45,0,0,0,.27-.36h0Z"/><path class="cls-6" d="M282.84,330.39l7.05,4.11c.29.16.25.45-.07.64l-4,2.28a1.25,1.25,0,0,1-1.11.05l-7.05-4.11c-.29-.16-.25-.45.08-.64l4-2.28A1.25,1.25,0,0,1,282.84,330.39Z"/><path class="cls-5" d="M242.76,337.84l-9.64,0v1a.31.31,0,0,0,.19.28l4.11,2.38a1.25,1.25,0,0,0,1.11,0l4-2.28a.47.47,0,0,0,.27-.37h0Z"/><path class="cls-6" d="M238.45,335.18l4.12,2.38c.28.16.24.45-.08.63l-4,2.29a1.21,1.21,0,0,1-1.11,0l-4.11-2.37c-.29-.17-.25-.45.08-.64l4-2.28A1.25,1.25,0,0,1,238.45,335.18Z"/><path class="cls-5" d="M236.19,334l-9.64,0v1a.34.34,0,0,0,.19.28l4.11,2.38a1.25,1.25,0,0,0,1.11-.05l4-2.28a.47.47,0,0,0,.27-.37h0Z"/><path class="cls-6" d="M231.88,331.38l4.12,2.37c.28.17.25.45-.08.64l-4,2.29a1.21,1.21,0,0,1-1.11,0l-4.11-2.37c-.29-.17-.25-.45.08-.64l4-2.29A1.21,1.21,0,0,1,231.88,331.38Z"/><path class="cls-5" d="M229.62,330.23l-9.64,0v1a.34.34,0,0,0,.19.29l4.11,2.37a1.21,1.21,0,0,0,1.11,0l4-2.29a.44.44,0,0,0,.27-.36h0Z"/><path class="cls-6" d="M225.31,327.58l4.12,2.37c.28.16.25.45-.08.64l-4,2.28a1.25,1.25,0,0,1-1.11.05l-4.11-2.38c-.28-.16-.25-.45.08-.63l4-2.29A1.19,1.19,0,0,1,225.31,327.58Z"/><path class="cls-5" d="M223.05,326.43l-9.64,0v1a.34.34,0,0,0,.19.29l4.12,2.37a1.22,1.22,0,0,0,1.1,0l4-2.29a.45.45,0,0,0,.27-.36h0Z"/><path class="cls-6" d="M218.74,323.77l4.12,2.38c.28.16.25.45-.08.64l-4,2.28a1.23,1.23,0,0,1-1.1.05l-4.12-2.38c-.28-.16-.25-.45.08-.64l4-2.28A1.23,1.23,0,0,1,218.74,323.77Z"/><path class="cls-5" d="M216.48,322.63l-9.64,0v1a.32.32,0,0,0,.19.28l4.12,2.38a1.25,1.25,0,0,0,1.11-.05l4-2.28a.45.45,0,0,0,.27-.36h0Z"/><path class="cls-6" d="M212.18,320l4.11,2.38c.28.16.25.45-.08.64l-4,2.28a1.25,1.25,0,0,1-1.11.05L207,322.94c-.28-.16-.25-.45.08-.64l4-2.28A1.25,1.25,0,0,1,212.18,320Z"/><path class="cls-5" d="M209.91,318.83l-9.64,0v1a.33.33,0,0,0,.19.28l4.12,2.38a1.25,1.25,0,0,0,1.11,0l3.95-2.28a.47.47,0,0,0,.27-.37h0Z"/><path class="cls-6" d="M205.61,316.17l4.11,2.38c.29.16.25.45-.08.63l-3.95,2.29a1.21,1.21,0,0,1-1.11,0l-4.12-2.37c-.28-.17-.24-.45.08-.64l4-2.28A1.25,1.25,0,0,1,205.61,316.17Z"/><path class="cls-5" d="M203.34,315l-9.64,0v1a.34.34,0,0,0,.19.28l4.12,2.38a1.25,1.25,0,0,0,1.11-.05l3.95-2.28a.47.47,0,0,0,.27-.37h0Z"/><path class="cls-6" d="M199,312.37l4.11,2.37c.29.17.25.45-.08.64l-3.95,2.29a1.21,1.21,0,0,1-1.11,0l-4.12-2.37c-.28-.17-.24-.45.08-.64l4-2.29A1.21,1.21,0,0,1,199,312.37Z"/><path class="cls-5" d="M196.78,311.22l-9.65,0v1a.35.35,0,0,0,.2.29l4.11,2.37a1.21,1.21,0,0,0,1.11,0l3.95-2.29a.45.45,0,0,0,.28-.36h0Z"/><path class="cls-6" d="M192.47,308.57l4.11,2.37c.29.17.25.45-.08.64l-3.95,2.28a1.25,1.25,0,0,1-1.11.05l-4.11-2.37c-.29-.17-.25-.46.08-.64l4-2.29A1.21,1.21,0,0,1,192.47,308.57Z"/><path class="cls-5" d="M190.21,307.42l-9.64,0v1a.32.32,0,0,0,.19.29l4.11,2.37a1.24,1.24,0,0,0,1.11,0l4-2.29a.45.45,0,0,0,.27-.36h0Z"/><path class="cls-6" d="M185.9,304.76l4.12,2.38c.28.16.24.45-.08.64l-4,2.28a1.25,1.25,0,0,1-1.11.05l-4.11-2.38c-.29-.16-.25-.45.08-.64l3.95-2.28A1.25,1.25,0,0,1,185.9,304.76Z"/><path class="cls-5" d="M178.82,308.54l-13.1-2v1a.34.34,0,0,0,.19.29l7.57,4.41a1.21,1.21,0,0,0,1.11,0l4-2.28a.47.47,0,0,0,.27-.37h0Z"/><path class="cls-6" d="M171.05,303.84l7.58,4.41c.28.17.24.45-.08.64l-4,2.29a1.21,1.21,0,0,1-1.11,0l-7.57-4.42c-.29-.16-.25-.45.08-.64l3.95-2.28A1.21,1.21,0,0,1,171.05,303.84Z"/><path class="cls-5" d="M186.24,297.59l-14-2.44v1a.32.32,0,0,0,.19.28l8.44,4.86a1.21,1.21,0,0,0,1.11,0l4-2.29a.44.44,0,0,0,.27-.36h0Z"/><path class="cls-6" d="M177.6,292.45l8.44,4.86c.29.17.25.45-.07.64l-4,2.28a1.25,1.25,0,0,1-1.11,0l-8.44-4.86c-.29-.16-.25-.45.08-.64l4-2.28A1.25,1.25,0,0,1,177.6,292.45Z"/><path class="cls-5" d="M169.19,303l-9.64,0v1a.31.31,0,0,0,.19.28l4.11,2.38a1.25,1.25,0,0,0,1.11-.05l4-2.28a.47.47,0,0,0,.27-.37h0Z"/><path class="cls-6" d="M164.88,300.31l4.11,2.37c.29.17.25.46-.07.64l-4,2.29a1.21,1.21,0,0,1-1.11,0l-4.11-2.37c-.29-.17-.25-.45.08-.64l4-2.28A1.25,1.25,0,0,1,164.88,300.31Z"/><path class="cls-5" d="M244.07,346.19l-9.64,0v1a.34.34,0,0,0,.19.29l4.12,2.37a1.19,1.19,0,0,0,1.1,0l4-2.29a.44.44,0,0,0,.27-.36h0Z"/><path class="cls-6" d="M239.76,343.53l4.12,2.38c.28.16.25.45-.08.64l-4,2.28a1.23,1.23,0,0,1-1.1.05l-4.12-2.38c-.28-.16-.25-.45.08-.64l4-2.28A1.23,1.23,0,0,1,239.76,343.53Z"/><path class="cls-5" d="M237.5,342.4,223,339.64v1a.32.32,0,0,0,.19.28l9,5.18a1.25,1.25,0,0,0,1.11,0l3.95-2.28a.45.45,0,0,0,.27-.36h0Z"/><path class="cls-6" d="M228.31,336.94l9,5.18c.28.16.25.45-.08.64L233.28,345a1.25,1.25,0,0,1-1.11,0l-9-5.18c-.28-.16-.24-.45.08-.64l4-2.28A1.25,1.25,0,0,1,228.31,336.94Z"/><path class="cls-5" d="M270.39,346.18,255,342.88v1c0,.1.06.2.19.28l9.88,5.72a1.21,1.21,0,0,0,1.11,0l4-2.29a.44.44,0,0,0,.27-.36h0Z"/><path class="cls-6" d="M260.31,340.18l9.89,5.72c.28.16.24.45-.08.64l-4,2.28a1.25,1.25,0,0,1-1.11.05l-9.88-5.72c-.29-.17-.25-.45.08-.64l3.95-2.29A1.21,1.21,0,0,1,260.31,340.18Z"/><path class="cls-5" d="M263.8,349.9l-18-4.8v1a.34.34,0,0,0,.19.29l12.49,7.21a1.21,1.21,0,0,0,1.11,0l4-2.29a.44.44,0,0,0,.27-.36h0Z"/><path class="cls-6" d="M251.11,342.4l12.5,7.22c.28.17.25.45-.08.64l-4,2.28a1.25,1.25,0,0,1-1.11,0L246,345.37c-.28-.16-.25-.45.08-.64l4-2.28A1.23,1.23,0,0,1,251.11,342.4Z"/><path class="cls-5" d="M183.64,303.73l-18-4.8v1a.32.32,0,0,0,.2.28l12.49,7.22a1.25,1.25,0,0,0,1.11-.05l4-2.28a.47.47,0,0,0,.27-.36h0Z"/><path class="cls-6" d="M171,296.23l12.49,7.22c.29.16.25.45-.08.64l-4,2.28a1.25,1.25,0,0,1-1.11.05l-12.49-7.22c-.29-.17-.25-.45.07-.64l4-2.29A1.24,1.24,0,0,1,171,296.23Z"/><path class="cls-5" d="M189.81,314.89l-14.53-2.76v1a.32.32,0,0,0,.19.28l9,5.18a1.25,1.25,0,0,0,1.11-.05l4-2.28a.47.47,0,0,0,.27-.36h0Z"/><path class="cls-6" d="M180.61,309.43l9,5.18c.29.16.25.45-.07.64l-4,2.28a1.21,1.21,0,0,1-1.11,0l-9-5.17c-.29-.16-.25-.45.08-.64l3.95-2.28A1.25,1.25,0,0,1,180.61,309.43Z"/><path class="cls-5" d="M226.59,336.07l-40-17.46v1a.33.33,0,0,0,.19.28l34.44,19.88a1.25,1.25,0,0,0,1.11-.05l4-2.28a.47.47,0,0,0,.27-.36h0Z"/><path class="cls-6" d="M192,315.91l34.45,19.88c.28.16.24.45-.08.64l-4,2.28a1.25,1.25,0,0,1-1.11.05l-34.44-19.88c-.28-.17-.25-.45.08-.64l4-2.29A1.19,1.19,0,0,1,192,315.91Z"/><path class="cls-5" d="M167.75,272l-9.64,0v1a.34.34,0,0,0,.19.28l4.11,2.38a1.25,1.25,0,0,0,1.11-.05l4-2.28a.47.47,0,0,0,.27-.37h0Z"/><path class="cls-6" d="M163.44,269.34l4.12,2.37c.28.17.25.45-.08.64l-4,2.29a1.21,1.21,0,0,1-1.11,0l-4.11-2.37c-.29-.17-.25-.45.08-.64l4-2.29A1.21,1.21,0,0,1,163.44,269.34Z"/><path class="cls-5" d="M174.32,275.79l-9.64,0v1c0,.1.06.2.19.28l4.11,2.38a1.25,1.25,0,0,0,1.11-.05l4-2.28a.47.47,0,0,0,.27-.37h0Z"/><path class="cls-6" d="M170,273.13l4.12,2.37c.28.17.24.45-.08.64l-4,2.29a1.21,1.21,0,0,1-1.11,0l-4.11-2.37c-.29-.17-.25-.45.08-.64l4-2.29A1.21,1.21,0,0,1,170,273.13Z"/><path class="cls-5" d="M161.18,276l-16.26,3.54v1a.34.34,0,0,0,.2.28l4.11,2.38a1.25,1.25,0,0,0,1.11-.05l10.57-5.78a.47.47,0,0,0,.27-.37h0Z"/><path class="cls-6" d="M156.87,273.33,161,275.7c.28.17.25.45-.08.64l-10.57,5.79a1.21,1.21,0,0,1-1.11,0l-4.11-2.37c-.29-.17-.25-.45.08-.64l10.57-5.79A1.19,1.19,0,0,1,156.87,273.33Z"/><path class="cls-5" d="M180.89,279.58l-9.65,0v1a.35.35,0,0,0,.2.28l4.11,2.38a1.25,1.25,0,0,0,1.11,0l4-2.28c.18-.11.28-.24.28-.37h0Z"/><path class="cls-6" d="M176.58,276.92l4.11,2.37c.29.17.25.45-.08.64l-4,2.29a1.21,1.21,0,0,1-1.11,0l-4.11-2.37c-.29-.17-.25-.45.08-.64l3.95-2.29A1.21,1.21,0,0,1,176.58,276.92Z"/><path class="cls-5" d="M187.45,283.37l-9.64,0v1a.32.32,0,0,0,.2.28l4.11,2.38a1.25,1.25,0,0,0,1.11-.05l4-2.28a.47.47,0,0,0,.27-.37h0Z"/><path class="cls-6" d="M183.15,280.71l4.11,2.37c.29.17.25.45-.08.64l-4,2.29a1.21,1.21,0,0,1-1.11,0L178,283.68c-.29-.17-.25-.45.07-.64l4-2.29A1.24,1.24,0,0,1,183.15,280.71Z"/><path class="cls-5" d="M167.75,279.58l-9.64,0v1a.34.34,0,0,0,.19.28l4.11,2.38a1.25,1.25,0,0,0,1.11,0l4-2.28a.47.47,0,0,0,.27-.37h0Z"/><path class="cls-6" d="M163.44,276.92l4.12,2.37c.28.17.25.45-.08.64l-4,2.29a1.21,1.21,0,0,1-1.11,0l-4.11-2.37c-.29-.17-.25-.45.08-.64l4-2.29A1.21,1.21,0,0,1,163.44,276.92Z"/><path class="cls-5" d="M174.32,283.37l-9.64,0v1a.31.31,0,0,0,.19.28l4.11,2.38a1.25,1.25,0,0,0,1.11-.05l4-2.28a.47.47,0,0,0,.27-.37h0Z"/><path class="cls-6" d="M170,280.71l4.12,2.37c.28.17.24.45-.08.64l-4,2.29a1.21,1.21,0,0,1-1.11,0l-4.11-2.37c-.29-.17-.25-.45.08-.64l4-2.29A1.25,1.25,0,0,1,170,280.71Z"/><path class="cls-5" d="M180.89,287.16l-9.65,0v1a.34.34,0,0,0,.2.28l4.11,2.38a1.25,1.25,0,0,0,1.11-.05l4-2.28c.18-.11.28-.24.28-.37h0Z"/><path class="cls-6" d="M176.58,284.5l4.11,2.37c.29.17.25.46-.08.64l-4,2.29a1.21,1.21,0,0,1-1.11,0l-4.11-2.37c-.29-.17-.25-.45.08-.64l3.95-2.28A1.25,1.25,0,0,1,176.58,284.5Z"/><path class="cls-5" d="M161.18,283.29l-9.64,0v1a.33.33,0,0,0,.19.28l4.11,2.38a1.25,1.25,0,0,0,1.11-.05l4-2.28a.47.47,0,0,0,.27-.36h0Z"/><path class="cls-6" d="M156.87,280.63,161,283c.28.16.25.45-.08.64l-4,2.28a1.21,1.21,0,0,1-1.11,0l-4.11-2.37c-.28-.16-.25-.45.08-.64l4-2.28A1.23,1.23,0,0,1,156.87,280.63Z"/><path class="cls-5" d="M167.75,287.08l-9.64,0v1a.32.32,0,0,0,.19.28l4.11,2.38a1.25,1.25,0,0,0,1.11,0l4-2.28a.47.47,0,0,0,.27-.36h0Z"/><path class="cls-6" d="M163.44,284.42l4.12,2.38c.28.16.25.45-.08.64l-4,2.28a1.25,1.25,0,0,1-1.11,0l-4.11-2.38c-.29-.16-.25-.45.08-.64l4-2.28A1.25,1.25,0,0,1,163.44,284.42Z"/><path class="cls-5" d="M174.32,290.87l-9.64,0v1a.3.3,0,0,0,.19.28l4.11,2.38a1.25,1.25,0,0,0,1.11-.05l4-2.28a.45.45,0,0,0,.27-.36h0Z"/><path class="cls-6" d="M170,288.21l4.12,2.38c.28.16.24.45-.08.64l-4,2.28a1.25,1.25,0,0,1-1.11.05l-4.11-2.38c-.29-.16-.25-.45.08-.64l4-2.28A1.25,1.25,0,0,1,170,288.21Z"/><path class="cls-5" d="M147.73,283.3l-16.25,3.54v1a.34.34,0,0,0,.19.28l4.11,2.37a1.21,1.21,0,0,0,1.11,0l10.57-5.79a.44.44,0,0,0,.27-.36h0Z"/><path class="cls-6" d="M143.43,280.64l4.11,2.38c.28.16.25.45-.08.64l-10.57,5.79a1.24,1.24,0,0,1-1.11,0l-4.11-2.37c-.29-.17-.25-.45.08-.64l10.57-5.79A1.25,1.25,0,0,1,143.43,280.64Z"/><path class="cls-5" d="M154.3,287.09l-9.64,0v1a.34.34,0,0,0,.19.29l4.12,2.37a1.19,1.19,0,0,0,1.1,0l4-2.29a.44.44,0,0,0,.27-.36h0Z"/><path class="cls-6" d="M150,284.43l4.12,2.38c.28.16.25.45-.08.64l-4,2.28a1.23,1.23,0,0,1-1.1,0l-4.12-2.38c-.28-.16-.25-.45.08-.64l4-2.28A1.23,1.23,0,0,1,150,284.43Z"/><path class="cls-5" d="M160.87,290.88l-9.64,0v1a.34.34,0,0,0,.19.29l4.11,2.37a1.21,1.21,0,0,0,1.11,0l4-2.29a.44.44,0,0,0,.27-.36h0Z"/><path class="cls-6" d="M156.56,288.23l4.12,2.37c.28.16.25.45-.08.64l-4,2.28a1.25,1.25,0,0,1-1.11.05l-4.11-2.38c-.28-.16-.25-.45.08-.64l4-2.28A1.19,1.19,0,0,1,156.56,288.23Z"/><path class="cls-5" d="M167.44,294.67l-9.64,0v1a.34.34,0,0,0,.19.29l4.11,2.37a1.21,1.21,0,0,0,1.11,0l4-2.29a.44.44,0,0,0,.27-.36h0Z"/><path class="cls-6" d="M163.13,292l4.12,2.37c.28.17.25.45-.08.64l-4,2.28a1.25,1.25,0,0,1-1.11.05L158,295c-.29-.17-.25-.46.08-.64l4-2.29A1.21,1.21,0,0,1,163.13,292Z"/><path class="cls-5" d="M147.69,290.6l-9.64,0v1c0,.1.06.2.19.28l4.11,2.37a1.21,1.21,0,0,0,1.11,0l4-2.28a.47.47,0,0,0,.27-.37h0Z"/><path class="cls-6" d="M143.38,287.94l4.12,2.37c.28.17.24.45-.08.64l-4,2.29a1.21,1.21,0,0,1-1.11,0l-4.11-2.37c-.29-.17-.25-.45.08-.64l4-2.29A1.21,1.21,0,0,1,143.38,287.94Z"/><path class="cls-5" d="M154.26,294.39l-9.65,0v1a.35.35,0,0,0,.2.28l4.11,2.38A1.25,1.25,0,0,0,150,298l3.95-2.28c.18-.11.28-.24.27-.37h0Z"/><path class="cls-6" d="M150,291.73l4.11,2.37c.29.17.25.45-.08.64L150,297a1.21,1.21,0,0,1-1.11,0l-4.11-2.37c-.29-.17-.25-.45.08-.64l4-2.29A1.21,1.21,0,0,1,150,291.73Z"/><path class="cls-5" d="M160.82,298.18l-9.64,0v1a.34.34,0,0,0,.19.28l4.12,2.38a1.25,1.25,0,0,0,1.11-.05l4-2.28a.47.47,0,0,0,.27-.37h0Z"/><path class="cls-6" d="M156.52,295.52l4.11,2.37c.29.17.25.45-.08.64l-4,2.29a1.21,1.21,0,0,1-1.11,0l-4.12-2.37c-.28-.17-.24-.45.08-.64l4-2.29A1.21,1.21,0,0,1,156.52,295.52Z"/><path class="cls-2" d="M247.4,392h0v-3.28l1.16-.17a10.82,10.82,0,0,1,3.52-3.08l9.23-5.11c.23-.14.47-.26.71-.39s.55-.27.84-.39c6.27-2.8,15.3-2.54,21.05.78l.55.33.66.45a10.65,10.65,0,0,1,1.77,1.59l1.66-.25,0,4.2h0c.08,2.11-1.09,4.24-3.51,6l-.36.25c-.26.17-.52.34-.8.5l-9.23,5.12c-6.24,3.6-16.36,3.6-22.61,0-3.07-1.78-4.63-4.1-4.67-6.43h0Z"/><path class="cls-3" d="M252.08,381.77l9.23-5.12.71-.38.84-.4c6.27-2.8,15.3-2.54,21.05.78l.55.33c.23.15.45.3.66.46,4.65,3.36,4.63,8.16,0,11.51l-.36.25-.8.51-9.23,5.11c-6.24,3.6-16.36,3.6-22.61,0S245.84,385.37,252.08,381.77Z"/><path class="cls-2" d="M262,376.27l.84-.4a24.33,24.33,0,0,1,9.76,2.92A36,36,0,0,1,284.46,377c.23.15.45.3.66.46a35.23,35.23,0,0,0-12,1.63A45.43,45.43,0,0,1,285.08,389l-.36.25C283,387.17,273.49,376.5,262,376.27Z"/><path class="cls-7" d="M356.6,155.27,217.35,74.35c-2.57-1.64-4.78-.52-4.95,2.5l-.68,12.62-5.21,95.89a10.39,10.39,0,0,0,4.35,8.43L350.11,274.7c2.57,1.64,4.78.52,4.94-2.49l5.21-95.89L361,163.7A10.41,10.41,0,0,0,356.6,155.27Z"/><path class="cls-8" d="M354.39,178.65l-5.21,95.88c-.16,3-2.38,4.14-4.94,2.5l-78.75-45.76L205,196.11a10.36,10.36,0,0,1-4.35-8.42l5.21-95.89L271.16,130Z"/><path class="cls-9" d="M355.08,166l-.68,12.56v.06L271.16,130,205.85,91.8l.06-1.12.62-11.5c.17-3,2.38-4.14,4.94-2.5L350.73,157.6A10.41,10.41,0,0,1,355.08,166Z"/><path class="cls-10" d="M345.52,165a4.53,4.53,0,0,0,2,3.64c1.14.7,2.09.19,2.14-1.13a4.56,4.56,0,0,0-2-3.65C346.53,163.13,345.57,163.64,345.52,165Z"/><path class="cls-11" d="M338.06,160.4a4.55,4.55,0,0,0,2,3.65c1.13.69,2.09.18,2.13-1.14a4.52,4.52,0,0,0-2-3.64C339.06,158.57,338.11,159.08,338.06,160.4Z"/><path class="cls-12" d="M330.6,155.85a4.52,4.52,0,0,0,2,3.64c1.14.7,2.1.19,2.14-1.13a4.54,4.54,0,0,0-2-3.65C331.6,154,330.64,154.53,330.6,155.85Z"/><polygon class="cls-13" points="257.65 138.69 209.3 110.78 209.3 106.53 257.65 134.45 257.65 138.69"/><polygon class="cls-13" points="246.15 169.13 209.3 147.86 209.3 143.61 246.15 164.89 246.15 169.13"/><polygon class="cls-13" points="251.9 179.87 215.05 158.59 215.05 154.35 251.9 175.63 251.9 179.87"/><polygon class="cls-13" points="257.65 190.6 220.81 169.33 220.81 165.09 257.65 186.36 257.65 190.6"/><polygon class="cls-13" points="263.41 201.34 226.56 180.07 226.56 175.82 263.41 197.1 263.41 201.34"/><polygon class="cls-13" points="285.72 221.64 226.56 187.48 226.56 183.24 285.72 217.4 285.72 221.64"/><polygon class="cls-13" points="271.83 221.04 226.56 194.9 226.56 190.66 271.83 216.8 271.83 221.04"/><polygon class="cls-13" points="260.33 221.81 215.05 195.67 215.05 191.43 260.33 217.57 260.33 221.81"/><polygon class="cls-13" points="275.9 149.23 262.01 141.21 262.01 136.97 275.9 144.99 275.9 149.23"/><polygon class="cls-13" points="266.38 151.15 218.03 123.24 218.03 118.99 266.38 146.91 266.38 151.15"/><polygon class="cls-13" points="276.29 164.28 227.93 136.37 227.93 132.12 276.29 160.04 276.29 164.28"/><polygon class="cls-13" points="276.29 171.7 227.93 143.78 227.93 139.54 276.29 167.46 276.29 171.7"/><polygon class="cls-13" points="235.07 155.14 218.03 145.3 218.03 141.42 235.07 151.26 235.07 155.14"/><path class="cls-9" d="M291.39,198.48a9.08,9.08,0,0,1,0,1,1,1,0,0,1-.13.47c-.06.08-.13.08-.22,0a1.53,1.53,0,0,1-.33-.34l-10.47-13a1.85,1.85,0,0,1-.28-.78,8.8,8.8,0,0,1-.09-1.44c0-.31,0-.59,0-.81a4.61,4.61,0,0,1,.06-.54.71.71,0,0,1,.12-.3.3.3,0,0,1,.17-.11l10.46-.88a.53.53,0,0,1,.56.42,5,5,0,0,1,.16,1.54c0,.5,0,.89,0,1.17a3,3,0,0,1-.08.65.39.39,0,0,1-.15.28.57.57,0,0,1-.25.07l-7.87.37,7.71,9.22c.14.17.25.32.34.45a1.6,1.6,0,0,1,.2.51,5.89,5.89,0,0,1,.09.76Q291.39,197.72,291.39,198.48Z"/><path class="cls-9" d="M296.26,209.17a.54.54,0,0,1-.17.28.39.39,0,0,1-.31.06,1.76,1.76,0,0,1-.49-.15,6.63,6.63,0,0,1-.75-.38,10.3,10.3,0,0,1-.91-.6,2.72,2.72,0,0,1-.54-.53,1.12,1.12,0,0,1-.21-.5,1.24,1.24,0,0,1,.05-.5L301.09,181a.62.62,0,0,1,.17-.29.36.36,0,0,1,.3-.07,1.67,1.67,0,0,1,.5.15,5.86,5.86,0,0,1,.74.38,7,7,0,0,1,.92.61,2.62,2.62,0,0,1,.53.52,1,1,0,0,1,.2.49,1.29,1.29,0,0,1,0,.51Z"/><path class="cls-9" d="M317.8,206.43c0,.31,0,.58,0,.8a3.25,3.25,0,0,1-.07.54.71.71,0,0,1-.12.3.24.24,0,0,1-.17.1l-10.47.87a.51.51,0,0,1-.33-.08.77.77,0,0,1-.23-.33,2.26,2.26,0,0,1-.12-.61c0-.25,0-.56,0-.92s0-.89,0-1.17a4,4,0,0,1,.07-.65.51.51,0,0,1,.15-.29.5.5,0,0,1,.26-.06l7.86-.37-7.71-9.22a5.13,5.13,0,0,1-.35-.46,1.54,1.54,0,0,1-.19-.5,3.86,3.86,0,0,1-.09-.76c0-.31,0-.72,0-1.23s0-.79,0-1a1,1,0,0,1,.12-.48.15.15,0,0,1,.23,0,1.68,1.68,0,0,1,.33.33l10.48,13a1.7,1.7,0,0,1,.28.75A8,8,0,0,1,317.8,206.43Z"/><path class="cls-7" d="M374.85,208.53l-3.69,62.62-38.65-22.32a5.1,5.1,0,0,1-2.31-4v-53a1.52,1.52,0,0,1,.9-1.6h0l.94-.35h.06a1.76,1.76,0,0,1,1.42.25l34.83,20.1Z"/><path class="cls-14" d="M325.16,193.07l.94-.35h0a1.77,1.77,0,0,1,1.43.25l70.11,40.48a5.07,5.07,0,0,1,2.31,4v53a1.58,1.58,0,0,1-.71,1.51h0l-.2.07-.83.33V292a2.42,2.42,0,0,1-.56-.24l-70.11-40.48a5.13,5.13,0,0,1-2.31-4v-53a2,2,0,0,1,.32-1.15Z"/><path class="cls-8" d="M399,244v46.82c0,1.48-1,2.08-2.31,1.34l-70.11-40.48a5.11,5.11,0,0,1-2.31-4V200.83Z"/><path class="cls-9" d="M324.27,194.66c0-1.47,1-2.07,2.31-1.33l70.11,40.48a5.11,5.11,0,0,1,2.31,4V244l-74.73-43.14Z"/><path class="cls-10" d="M391.75,235.08a2.27,2.27,0,0,0,1,1.75c.56.32,1,.06,1-.59a2.24,2.24,0,0,0-1-1.75C392.21,234.17,391.75,234.43,391.75,235.08Z"/><path class="cls-11" d="M388.09,233a2.23,2.23,0,0,0,1,1.75c.56.32,1,.06,1-.58a2.22,2.22,0,0,0-1-1.75C388.54,232.05,388.09,232.32,388.09,233Z"/><path class="cls-12" d="M384.42,230.84a2.23,2.23,0,0,0,1,1.75c.55.33,1,.06,1-.58a2.26,2.26,0,0,0-1-1.75C384.88,229.94,384.42,230.2,384.42,230.84Z"/><polygon class="cls-9" points="325.92 232.23 343.95 242.93 343.95 238.59 325.92 227.89 325.92 232.23"/><polygon class="cls-9" points="325.92 248.23 343.95 258.92 343.95 247.09 325.92 236.4 325.92 248.23"/><polygon class="cls-9" points="345.39 215.65 345.37 223.75 393.33 251.44 393.35 243.59 345.39 215.65"/><g class="cls-15"><path class="cls-9" d="M391.66,268.38l-.09-.05-36.85-21.28v-7.24l.1.05,36.84,21.28ZM355.1,246.84l36.19,20.89v-6.38l-36.19-20.9Z"/><path class="cls-9" d="M391.66,261.57l-.09-.06-36.85-21.27V233l.1.06,36.84,21.27ZM355.1,240l36.19,20.9v-6.38l-36.19-20.9Z"/><path class="cls-9" d="M391.66,275.2l-.09-.06-36.85-21.27v-7.25l.1.06L391.66,268ZM355.1,253.65l36.19,20.9v-6.38l-36.19-20.9Z"/><path class="cls-9" d="M391.66,282l-.09-.05-36.85-21.28v-7.24l.1.05,36.84,21.27ZM355.1,260.47l36.19,20.89V275l-36.19-20.9Z"/></g><path class="cls-16" d="M391.29,267.16c-2.93.8-4.26-.15-5.16-1.16-1.13-1.27-.95-2.47-2.38-4.67-1.73-2.66-2.94-2.39-4.92-4.77-3-3.61-2.88-7.43-4.37-8.29-1.86-1.08-2.61,4.79-4.76,3.3-1.26-.88-1.58-2.92-3-3.85-1.91-1.25-2.44,1.65-4.6.64s-3.38-4.8-5.08-5.23c-1.06-.26-1.61.94-1.9,1.93v15.41l36.19,20.89Z"/><path class="cls-12" d="M391.29,279.44c-2.93.8-4.78-8.16-5.67-9.18-1.13-1.27-.53,2.37-2,.17-1.73-2.65-2.94-2.38-4.92-4.77-3-3.61-5.09-9.4-7.49-10.73-1.84-1,.5,7.23-1.64,5.74-1.26-.88-1.58-2.91-3-3.85-1.91-1.25-3.36-5.2-5.52-6.21s-3.38-4.79-5.08-5.22c-1.06-.27-.89,15.08-.89,15.08l36.19,20.89Z"/><polygon class="cls-9" points="342.48 216.29 329.51 208.81 329.51 207.43 342.48 214.91 342.48 216.29"/><polygon class="cls-17" points="342.48 219.74 329.51 212.26 329.51 210.18 342.48 217.66 342.48 219.74"/><polygon class="cls-17" points="375.77 238.88 358.32 228.81 358.32 226.01 375.77 236.09 375.77 238.88"/><polygon class="cls-17" points="342.48 226.34 329.51 218.86 329.51 214.61 342.48 222.1 342.48 226.34"/><polygon class="cls-17" points="342.48 231.09 329.51 223.61 329.51 220.43 342.48 227.91 342.48 231.09"/><polygon class="cls-17" points="351.17 222.04 347.05 219.66 347.05 218.62 351.17 221 351.17 222.04"/><polygon class="cls-17" points="351.18 223.76 347.05 221.38 347.05 220.34 351.18 222.72 351.18 223.76"/><polygon class="cls-17" points="351.18 225.48 347.05 223.1 347.05 222.07 351.17 224.45 351.18 225.48"/><path class="cls-7" d="M226.81,102.64v53a1.59,1.59,0,0,1-.71,1.51h0l-.19.08-.83.32h0a1.67,1.67,0,0,1-1.55-.21l-30.4-17.55,3.38-57.33,28,16.18A5.1,5.1,0,0,1,226.81,102.64Z"/><path class="cls-14" d="M146,61.11l.95-.36H147a1.78,1.78,0,0,1,1.43.25l70.11,40.48a5.13,5.13,0,0,1,2.31,4v53a1.62,1.62,0,0,1-.71,1.51h0a.62.62,0,0,1-.19.07l-.84.33V160a2.36,2.36,0,0,1-.55-.24L148.46,119.3a5.07,5.07,0,0,1-2.31-4v-53a2,2,0,0,1,.31-1.16Z"/><path class="cls-8" d="M219.88,112v46.82c0,1.47-1,2.07-2.31,1.33l-70.11-40.48a5.07,5.07,0,0,1-2.31-4V68.86Z"/><path class="cls-9" d="M145.15,62.7c0-1.48,1-2.07,2.31-1.34l70.11,40.48a5.13,5.13,0,0,1,2.31,4V112L145.15,68.86Z"/><path class="cls-10" d="M212.74,103.47a2.23,2.23,0,0,0,1,1.75c.55.32,1,.06,1-.58a2.26,2.26,0,0,0-1-1.75C213.2,102.57,212.74,102.83,212.74,103.47Z"/><path class="cls-11" d="M209.08,101.36a2.25,2.25,0,0,0,1,1.75c.56.32,1,.06,1-.59a2.25,2.25,0,0,0-1-1.75C209.53,100.45,209.08,100.71,209.08,101.36Z"/><path class="cls-12" d="M205.42,99.24a2.22,2.22,0,0,0,1,1.75c.55.32,1,.06,1-.58a2.24,2.24,0,0,0-1-1.75C205.87,98.34,205.42,98.6,205.42,99.24Z"/><polygon class="cls-18" points="207.69 119.99 210.09 121.37 210.09 119.16 207.69 117.77 207.69 119.99"/><polygon class="cls-19" points="207.69 124.82 210.09 126.2 210.09 123.98 207.69 122.6 207.69 124.82"/><polygon class="cls-20" points="207.69 129.65 210.09 131.03 210.09 128.81 207.69 127.43 207.69 129.65"/><polygon class="cls-21" points="207.69 134.48 210.09 135.86 210.09 133.64 207.69 132.26 207.69 134.48"/><polygon class="cls-22" points="207.69 139.31 210.09 140.69 210.09 138.47 207.69 137.09 207.69 139.31"/><polygon class="cls-23" points="207.69 144.13 210.09 145.52 210.09 143.3 207.69 141.92 207.69 144.13"/><path class="cls-9" d="M149.3,85.29l57.58,33.24c.05,0,.09,0,.09-.07a.22.22,0,0,0-.09-.17L149.3,85.05c-.05,0-.09,0-.09.07A.22.22,0,0,0,149.3,85.29Z"/><path class="cls-9" d="M149.3,87.7,206.88,121c.05,0,.09,0,.09-.07a.19.19,0,0,0-.09-.17L149.3,87.46c-.05,0-.09,0-.09.07A.19.19,0,0,0,149.3,87.7Z"/><path class="cls-9" d="M149.3,90.12l57.58,33.24c.05,0,.09,0,.09-.07a.22.22,0,0,0-.09-.17L149.3,89.88c-.05,0-.09,0-.09.07A.22.22,0,0,0,149.3,90.12Z"/><path class="cls-9" d="M149.3,92.53l57.58,33.24c.05,0,.09,0,.09-.06a.23.23,0,0,0-.09-.18L149.3,92.29c-.05,0-.09,0-.09.07A.19.19,0,0,0,149.3,92.53Z"/><path class="cls-9" d="M149.3,95l57.58,33.24c.05,0,.09,0,.09-.07a.21.21,0,0,0-.09-.17L149.3,94.71c-.05,0-.09,0-.09.07A.22.22,0,0,0,149.3,95Z"/><path class="cls-9" d="M149.3,97.36l57.58,33.24c.05,0,.09,0,.09-.06a.23.23,0,0,0-.09-.18L149.3,97.12c-.05,0-.09,0-.09.07A.21.21,0,0,0,149.3,97.36Z"/><path class="cls-9" d="M149.3,99.78,206.88,133c.05,0,.09,0,.09-.07a.21.21,0,0,0-.09-.17L149.3,99.54c-.05,0-.09,0-.09.06A.23.23,0,0,0,149.3,99.78Z"/><path class="cls-9" d="M149.3,102.19l57.58,33.24c.05,0,.09,0,.09-.07a.22.22,0,0,0-.09-.17L149.3,102c-.05,0-.09,0-.09.07A.21.21,0,0,0,149.3,102.19Z"/><path class="cls-9" d="M149.3,104.61l57.58,33.24c.05,0,.09,0,.09-.07a.21.21,0,0,0-.09-.17L149.3,104.37c-.05,0-.09,0-.09.06A.23.23,0,0,0,149.3,104.61Z"/><path class="cls-9" d="M149.3,107l57.58,33.24c.05,0,.09,0,.09-.07a.22.22,0,0,0-.09-.17L149.3,106.78c-.05,0-.09,0-.09.07A.22.22,0,0,0,149.3,107Z"/><path class="cls-9" d="M149.3,109.44l57.58,33.24c.05,0,.09,0,.09-.07a.19.19,0,0,0-.09-.17L149.3,109.19c-.05,0-.09,0-.09.07A.23.23,0,0,0,149.3,109.44Z"/><path class="cls-9" d="M149.3,111.85l57.58,33.24c.05,0,.09,0,.09-.07a.22.22,0,0,0-.09-.17L149.3,111.61c-.05,0-.09,0-.09.07A.22.22,0,0,0,149.3,111.85Z"/><path class="cls-9" d="M149.3,114.26l57.58,33.25c.05,0,.09,0,.09-.07a.23.23,0,0,0-.09-.18L149.3,114c-.05,0-.09,0-.09.07A.19.19,0,0,0,149.3,114.26Z"/><polygon class="cls-12" points="204.63 145.06 204.79 145.07 199.8 124.93 195.44 125.04 189.73 114.26 187 117.55 183.85 113.51 179.55 118.03 175.07 106.11 171.17 106.2 164.59 94.96 160.16 95.02 157.41 90.78 154.89 96.04 150.82 89.67 150.72 89.8 154.95 96.44 157.48 91.18 160.14 95.28 164.56 95.22 171.14 106.47 175 106.38 179.53 118.42 183.9 113.84 187.06 117.89 189.75 114.64 195.4 125.31 199.7 125.19 204.63 145.06"/><path class="cls-12" d="M199.3,124.9a1.16,1.16,0,0,0,.48.92c.26.15.48,0,.48-.37a1.15,1.15,0,0,0-.48-.91C199.51,124.38,199.3,124.54,199.3,124.9Z"/><path class="cls-12" d="M194.94,124.89a1.13,1.13,0,0,0,.48.92c.26.16.48,0,.48-.36a1.17,1.17,0,0,0-.48-.92C195.15,124.38,194.94,124.54,194.94,124.89Z"/><path class="cls-12" d="M189.3,114.3a1.19,1.19,0,0,0,.48.92c.27.15.48,0,.48-.37a1.12,1.12,0,0,0-.48-.91C189.52,113.78,189.3,113.94,189.3,114.3Z"/><path class="cls-12" d="M186.6,117.57a1.16,1.16,0,0,0,.48.92c.26.15.48,0,.48-.37a1.19,1.19,0,0,0-.48-.92C186.81,117.05,186.6,117.21,186.6,117.57Z"/><path class="cls-24" d="M183.36,113.28a1.15,1.15,0,0,0,.48.92c.27.16.48,0,.48-.36a1.14,1.14,0,0,0-.48-.92C183.58,112.77,183.36,112.93,183.36,113.28Z"/><path class="cls-12" d="M179.06,118.05a1.15,1.15,0,0,0,.48.91c.27.16.48,0,.48-.36a1.16,1.16,0,0,0-.48-.92C179.28,117.53,179.06,117.69,179.06,118.05Z"/><path class="cls-12" d="M174.61,106a1.19,1.19,0,0,0,.48.92c.27.15.48,0,.48-.37a1.12,1.12,0,0,0-.48-.91C174.83,105.48,174.61,105.64,174.61,106Z"/><path class="cls-12" d="M170.67,106a1.17,1.17,0,0,0,.49.92c.26.15.48,0,.48-.37a1.19,1.19,0,0,0-.48-.92C170.89,105.44,170.67,105.6,170.67,106Z"/><path class="cls-12" d="M164.09,94.91a1.13,1.13,0,0,0,.48.92c.27.16.48,0,.48-.36a1.13,1.13,0,0,0-.48-.92C164.3,94.4,164.09,94.56,164.09,94.91Z"/><path class="cls-12" d="M159.61,95a1.15,1.15,0,0,0,.48.92c.27.16.49,0,.49-.36a1.14,1.14,0,0,0-.49-.92C159.83,94.46,159.61,94.62,159.61,95Z"/><path class="cls-12" d="M157,90.69a1.15,1.15,0,0,0,.48.92c.27.16.48,0,.48-.36a1.13,1.13,0,0,0-.48-.92C157.17,90.18,157,90.34,157,90.69Z"/><path class="cls-12" d="M154.36,96a1.17,1.17,0,0,0,.49.92c.26.15.48,0,.48-.37a1.19,1.19,0,0,0-.48-.92C154.58,95.46,154.36,95.62,154.36,96Z"/><polygon class="cls-16" points="205.41 142.11 200.13 134.48 195.91 134.52 191.57 122.85 187.86 125.29 185.41 121.82 180.55 123.18 179.07 120.75 174.45 121.81 169.69 110.22 167.37 110.98 163.38 99.51 157.73 98.73 154.99 101.73 150.77 94.98 150.77 114.99 205.41 146.54 205.41 142.11"/><polygon class="cls-17" points="194.01 105.54 212.67 116.61 212.67 112.12 194.01 101.05 194.01 105.54"/><polygon class="cls-17" points="171.47 92.24 190.13 103.31 190.13 98.82 171.47 87.75 171.47 92.24"/><polygon class="cls-17" points="148.93 78.94 167.59 90.01 167.59 85.52 148.93 74.45 148.93 78.94"/><polygon class="cls-7" points="285.58 78.32 282.59 86.31 281.56 89.04 280.69 91.38 277.91 98.79 265.77 131.2 260.16 109.03 245.28 108.14 256.59 77.93 260.28 68.09 265.09 55.26 266.87 57.26 279.63 71.61 280.69 72.81 285.58 78.32"/><polygon class="cls-7" points="316.1 149.04 303.08 134.77 303.05 134.74 301.22 132.73 297.47 143.21 297.47 143.22 295.61 148.42 283.16 100.83 281.73 95.37 280.69 91.38 280.69 91.38 279.91 88.4 279.54 86.98 311.18 105.36 305.8 109.63 316.1 149.04"/><polygon class="cls-25" points="312.25 151.88 309.31 152.96 305.48 144.46 297.39 135.61 297.36 135.58 296.25 138.66 291.75 151.27 290.67 147.14 290.13 145.1 279.27 103.54 276.83 94.23 276.64 93.5 275.79 90.24 272.25 76.69 271.94 75.51 272.83 75.54 276.83 75.66 292.44 76.12 293.83 81.45 297.73 96.34 312.25 151.88"/><polygon class="cls-25" points="288.81 152.35 291.75 151.27 298.81 131.66 292.81 130.46 288.81 152.35"/><polygon class="cls-25" points="281.73 81.16 277.07 93.59 276.83 94.22 276.83 94.23 274.93 99.3 272.73 105.19 261.92 134.04 258.97 135.13 260.43 128.16 256.31 111.87 241.42 110.99 250.99 85.44 255.01 74.71 260.07 61.19 261.23 58.1 276.83 75.66 277.9 76.86 281.73 81.16"/><polygon class="cls-16" points="278.78 82.24 275.79 90.24 274.77 92.96 273.89 95.31 271.11 102.72 258.97 135.13 253.36 112.95 238.48 112.07 249.79 81.86 253.48 72.02 258.29 59.19 260.07 61.19 272.83 75.54 273.89 76.74 278.78 82.24"/><polygon class="cls-16" points="309.31 152.96 296.28 138.69 296.25 138.66 294.42 136.65 290.67 147.14 290.67 147.14 288.81 152.35 276.36 104.76 274.93 99.3 273.89 95.31 273.89 95.3 273.11 92.32 269 76.59 272.25 76.69 273.89 76.74 277.9 76.86 289.5 77.21 291.9 86.42 295.8 101.31 309.31 152.96"/><path class="cls-7" d="M293.83,81.45a22.57,22.57,0,0,1-1.93,5c-3.12,5.8-8.44,8.48-14.83,7.18l-.43-.09a17.82,17.82,0,0,1-1.87-.55,17.1,17.1,0,0,1-1.66-.64A23.32,23.32,0,0,1,270.47,91C264.6,87.6,259.22,81.74,255,74.71c-.53-.88-1-1.78-1.53-2.69l-3.69,9.84.19,1.19a5.91,5.91,0,0,0,1,2.39,3.39,3.39,0,0,0,1.49,1.28l3.14,1.17a7,7,0,0,1,3.16,3.67l1.74,4.49c.61,1.6,1.94,2.79,2.94,2.64l2.8-.42c1-.15,2.55.88,3.45,2.27l1.4,2.18,1.14,1.76c.16.24.32.49.48.71l2.2-5.89,1.43,5.46,1-1a1.93,1.93,0,0,1,1.87-.26,3.63,3.63,0,0,1,1.47.87l2.77,2.89a2,2,0,0,0,2,.69,1.34,1.34,0,0,0,1-.91l.07-.19.94-2.86a2,2,0,0,1,2.86-1l3.19,1.61c1.14.58,2.11-.14,2.16-1.6l.07-1.73.09-2.37a2.51,2.51,0,0,1,1.84-2.6Z"/><path class="cls-2" d="M308.4,70.28l-1.94-4.42a6.78,6.78,0,0,1-.33-4.79l1.42-3a5,5,0,0,0-.81-4.35L304.06,50a8.7,8.7,0,0,1-1.5-5l.37-4a5.63,5.63,0,0,0-1.77-4.28l-3.09-2.6a8.81,8.81,0,0,1-2.47-4.62L294.87,25a5,5,0,0,0-2.51-3.68l-3.14-1.16a7,7,0,0,1-3.15-3.66L284.33,12c-.62-1.6-1.94-2.78-2.94-2.64l-2.8.42c-1,.15-2.47-.75-3.27-2l-2.91-4.51a2.43,2.43,0,0,0-2.12-1.3h0a1.21,1.21,0,0,0-.54.19l-3.59,1.49.33,1a3.31,3.31,0,0,1-2.37-1l-3-2.89a2,2,0,0,0-1.91-.64h0a1.36,1.36,0,0,0-.21.1l-3.63,1.51L256.44,5a2.11,2.11,0,0,1-2.19.12l-3.19-1.62a1.54,1.54,0,0,0-.95-.18h0a1.06,1.06,0,0,0-.42.15l-3.85,1.6.31,6.73-2.35,0a1.23,1.23,0,0,0-.39.06h0l-4,1.69,4,5.41.06.28c.76,3.64-.77,5-.77,5l-2.09,1.47c-.82.58-.92,2.34-.24,3.91L242.29,34a6.79,6.79,0,0,1,.34,4.79l-1.42,3a5,5,0,0,0,.81,4.36l2.68,3.74a8.67,8.67,0,0,1,1.49,5l-.36,4a5.62,5.62,0,0,0,1.76,4.27l3.1,2.61a8.82,8.82,0,0,1,2.47,4.61l.73,4.52a5,5,0,0,0,2.5,3.68l3.14,1.17a6.91,6.91,0,0,1,3.16,3.66l1.74,4.5c.61,1.6,1.94,2.78,2.94,2.64l2.8-.42c1-.15,2.55.87,3.45,2.27l.49,7.91c2.86-.69,3.8-1.52,3.91-1.64l1.6-1.46,1.69-1.55a2.14,2.14,0,0,1,2.36-.07l2.13,5.8s3.22-1.41,3.61-1.55a1.3,1.3,0,0,0,1-.91l.07-.19.94-2.85a2.15,2.15,0,0,1,.21-.4l3.25,2.71,3.74-1.56h0a1.76,1.76,0,0,0,1-1.74l.15-4.1a3.1,3.1,0,0,1,.9-2.16l.7,1.11,3.6-1.53a.88.88,0,0,0,.32-.12h0a2.45,2.45,0,0,0,.72-2.62,4.11,4.11,0,0,0-.09-1.08l-1-4.56c-.34-1.63.05-3.43.87-4l2.3-1.62C309,73.61,309.09,71.85,308.4,70.28Zm-34,15.81c-14.84-8.56-26.87-31.55-26.87-51.33a41.57,41.57,0,0,1,.55-6.92L280,88.54A25.54,25.54,0,0,1,274.38,86.09Zm3.17-69.57c13.34,9.8,23.7,30.9,23.7,49.26a39.54,39.54,0,0,1-1,9.17Z"/><path class="cls-4" d="M304.26,75.82c.82-.58.92-2.34.23-3.91l-1.94-4.41a6.78,6.78,0,0,1-.33-4.79l1.42-3a5,5,0,0,0-.81-4.35l-2.68-3.75a8.68,8.68,0,0,1-1.5-5l.37-4a5.61,5.61,0,0,0-1.77-4.27l-3.09-2.61a8.78,8.78,0,0,1-2.47-4.61L291,26.6a5,5,0,0,0-2.51-3.68l-3.14-1.17a6.94,6.94,0,0,1-3.15-3.66l-1.74-4.5c-.62-1.59-1.94-2.78-2.94-2.63l-2.8.42a4,4,0,0,1-3.27-2L268.5,4.88c-.8-1.24-2.08-1.68-2.83-1l-2.13,1.95c-.76.69-2.26.42-3.34-.6l-3-2.9c-1.08-1-2.32-.92-2.74.23l-.07.19-.25.69h0l-.91,2.33a2,2,0,0,1-2.86,1l-3.19-1.62C246,4.59,245,5.31,245,6.77l-.15,4.1c-.05,1.46-1,2.63-2,2.61l-3-.05c-1,0-1.63,1.28-1.29,2.89l.95,4.54c.76,3.65-.77,5-.77,5l-2.09,1.48c-.82.58-.92,2.33-.24,3.91l1.94,4.41a6.81,6.81,0,0,1,.34,4.8l-1.42,3a5,5,0,0,0,.81,4.35l2.68,3.74a8.7,8.7,0,0,1,1.49,5l-.36,4a5.63,5.63,0,0,0,1.76,4.28l3.1,2.61A8.78,8.78,0,0,1,249.25,72l.73,4.52a5,5,0,0,0,2.5,3.68l3.14,1.16A7,7,0,0,1,258.78,85l1.74,4.49c.61,1.6,1.94,2.79,2.94,2.64l2.8-.42c1-.15,2.55.88,3.45,2.28L272.25,98c.91,1.4,1.75,2.45,1.86,2.34l1.6-1.47,1.69-1.54c.76-.7,2.26-.43,3.34.6l2.77,2.89a2,2,0,0,0,2,.69,1.34,1.34,0,0,0,1-.91l.07-.19.94-2.86a2,2,0,0,1,2.86-1l3.2,1.62c1.13.57,2.1-.15,2.16-1.61l.15-4.09c.06-1.46.95-2.64,2-2.62l2.94.06c1,0,1.6-1.21,1.31-2.77a4.08,4.08,0,0,0-.09-1.08l-1-4.57c-.34-1.62.05-3.42.86-4Zm-33.79,8.65C257,76.68,246,55.79,246,37.8S257,11.55,270.47,19.34,294.89,48,294.89,66,284,92.26,270.47,84.47Z"/><path class="cls-2" d="M294.79,66a30.83,30.83,0,0,1-2.29,12.43c-3.88,8.8-12.29,11.58-22,6C257,76.58,246.15,55.77,246.15,37.86c0-6.28,1.34-11.37,3.66-15,4.29-6.72,11.94-8.42,20.66-3.39C283.9,27.23,294.79,48,294.79,66Z"/><path class="cls-3" d="M294.79,66a30.83,30.83,0,0,1-2.29,12.43c-4.29,6.72-11.94,8.43-20.66,3.39C258.4,74,247.51,53.21,247.51,35.3a30.73,30.73,0,0,1,2.3-12.44c4.29-6.72,11.94-8.42,20.66-3.39C283.9,27.23,294.79,48,294.79,66Z"/><path class="cls-7" d="M282.32,40,269.59,54a1.25,1.25,0,0,1-2-.19l-4.36-7.24a1.25,1.25,0,0,0-2-.17l-4.13,4.8A1.25,1.25,0,0,0,257,52.7l9.93,16.49a1.35,1.35,0,0,0,2.15.21l19.1-21.24a1.25,1.25,0,0,0,.14-1.49l-3.95-6.46A1.26,1.26,0,0,0,282.32,40Z"/><path class="cls-16" d="M279.41,40.28l-12.73,14a1.25,1.25,0,0,1-2-.19l-4.37-7.24a1.25,1.25,0,0,0-2-.17l-4.13,4.8A1.25,1.25,0,0,0,254,53L264,69.45a1.34,1.34,0,0,0,2.15.21l19.1-21.24a1.25,1.25,0,0,0,.13-1.49l-3.94-6.46A1.26,1.26,0,0,0,279.41,40.28Z"/><path class="cls-25" d="M76.59,230.9v-4.8h2.88a5.42,5.42,0,0,0,4.31-1.69l0,0a3.49,3.49,0,0,0,.18-.31l-.6-.72-2.6,1.5v-8.68h16v-1.73h8.32v1.73h16v8.67l-2.77-1.59-.53.56a2.15,2.15,0,0,0,.28.57l0,0a5.38,5.38,0,0,0,4.3,1.69h2.88v4.8h-2.88a6.66,6.66,0,0,0-3,.68l1.74,1.07v4.09l-4,2.29-1.92,1.11-2-1.18a7.37,7.37,0,0,0-5.1-.56h0c-1.76.42-2.93,1.39-2.93,2.49v1.66H96.78V240.9c0-1.1-1.17-2.07-2.93-2.49h0a7.37,7.37,0,0,0-5.1.56l-2,1.18-1.45-.84-4.44-2.56v-4.09l2-.93a6.59,6.59,0,0,0-3.31-.82Z"/><path class="cls-16" d="M88.7,234.87a7.42,7.42,0,0,1,5.1-.57l0,0c1.76.42,2.93,1.39,2.93,2.48v1.66h8.32V236.8c0-1.09,1.17-2.06,2.93-2.48l0,0a7.37,7.37,0,0,1,5.1.57l2,1.18,5.89-3.4-2-1.18c-1.34-.77-1.71-1.93-1-2.94l0,0a5.35,5.35,0,0,1,4.3-1.69h2.88V222h-2.88a5.38,5.38,0,0,1-4.3-1.69l0,0c-.73-1-.36-2.17,1-2.94l2-1.17-5.89-3.4-2,1.18a7.37,7.37,0,0,1-5.1.56h0c-1.76-.42-2.93-1.39-2.93-2.49v-1.66H96.78V212c0,1.1-1.17,2.07-2.92,2.49H93.8a7.37,7.37,0,0,1-5.1-.56l-2-1.18-5.89,3.4,2,1.17c1.34.77,1.71,1.94,1,2.94l0,0A5.42,5.42,0,0,1,79.47,222H76.59v4.8h2.88a5.42,5.42,0,0,1,4.31,1.69l0,0c.73,1,.36,2.17-1,2.94l-2,1.18,5.89,3.4ZM96.45,227c-2.47-1.43-2.47-3.75,0-5.18a9.93,9.93,0,0,1,9,0c2.47,1.43,2.47,3.75,0,5.18A9.93,9.93,0,0,1,96.45,227Z"/><path class="cls-26" d="M191.88,385.57V382H194a4,4,0,0,0,3.21-1.26l0,0a1.09,1.09,0,0,0,.14-.23l-.45-.53L195,381.05v-6.47h11.93V373.3h6.21v1.28h11.93v6.47L223,379.86l-.39.42a1.38,1.38,0,0,0,.21.42l0,0a4,4,0,0,0,3.21,1.26h2.14v3.58h-2.14a5,5,0,0,0-2.28.51l1.3.79v3.06l-3,1.71-1.43.82-1.52-.88a5.52,5.52,0,0,0-3.8-.42h0c-1.31.31-2.18,1-2.18,1.86v1.23h-6.21V393c0-.82-.87-1.55-2.18-1.86h0a5.52,5.52,0,0,0-3.8.42l-1.52.88-1.08-.62L195,389.93v-3.06l1.49-.69a4.91,4.91,0,0,0-2.47-.61Z"/><path class="cls-27" d="M200.91,388.53a5.52,5.52,0,0,1,3.8-.42h0c1.31.31,2.18,1,2.18,1.85v1.24h6.21V390c0-.81.87-1.54,2.18-1.85h0a5.52,5.52,0,0,1,3.8.42l1.52.88,4.39-2.54-1.52-.87c-1-.58-1.27-1.44-.73-2.2l0,0a4,4,0,0,1,3.21-1.26h2.14v-3.58h-2.14a4,4,0,0,1-3.21-1.26l0,0c-.54-.75-.27-1.62.73-2.19l1.52-.88-4.39-2.53-1.52.87a5.46,5.46,0,0,1-3.8.43h0c-1.31-.32-2.18-1-2.18-1.86v-1.24h-6.21v1.24c0,.82-.87,1.54-2.18,1.86h0a5.46,5.46,0,0,1-3.8-.43l-1.52-.87L195,374.58l1.52.88c1,.57,1.27,1.44.73,2.19l0,0a4,4,0,0,1-3.21,1.26h-2.14v3.58H194a4,4,0,0,1,3.21,1.26l0,0c.54.76.27,1.62-.73,2.2l-1.52.87,4.39,2.54Zm5.78-5.87c-1.85-1.07-1.85-2.8,0-3.86a7.37,7.37,0,0,1,6.69,0c1.85,1.06,1.85,2.79,0,3.86A7.37,7.37,0,0,1,206.69,382.66Z"/><path class="cls-28" d="M8.77,206.16s5.57,2.69,6.94,14.69-.8,17.26.5,23.15-5.69,10-8.46,9.39-4,.73-6.24-12.51S-1.91,203.36,8.77,206.16Z"/><path class="cls-29" d="M2.56,370v8a5.09,5.09,0,0,0,3.52,2.68c2.67.62,8.08-1.82,10.81-3.07S26,372.89,27.35,372s4.89-6.83,1.25-7.51-13.76,1.71-13.76,1.71Z"/><path class="cls-30" d="M18.53,381.59v8a5.12,5.12,0,0,0,3.53,2.68c2.67.62,8.07-1.82,10.8-3.07s9.11-4.8,10.47-5.63c2.1-1.29,4.89-7.74,1.25-8.42s-13.77,2.62-13.77,2.62Z"/><path class="cls-31" d="M2.56,369.08v8a5.09,5.09,0,0,0,3.52,2.68c2.67.62,8.08-1.82,10.81-3.07S26,372,27.35,371.07s4.89-6.83,1.25-7.51-13.76,1.71-13.76,1.71Z"/><path class="cls-31" d="M18.53,380.68v8a5.12,5.12,0,0,0,3.53,2.68c2.67.62,8.07-1.82,10.8-3.07s9.16-4.72,10.47-5.63,4.89-6.83,1.25-7.51-13.77,1.71-13.77,1.71Z"/><path class="cls-32" d="M23.88,257.39s1.13,25.48.57,31.17-5.69,30.82-5.92,35.71-2,42.53-2,42.53.22,4.85-4.33,6c-11.43,3-10.35-1.25-10.35-1.25l1.48-44.36s-2.69-32-3-44.07C-.09,265,16.71,224.07,23.88,257.39Z"/><path class="cls-33" d="M13.53,291.23l.27,4.12,2.57,39.83,1.48,47.2s.68,5.57,10.35,1.25a6.94,6.94,0,0,0,4.32-6s1.82-37.65,2-42.54c.19-4.16,3.93-23,5.38-32,.06-.36.12-.71.17-1,.17-1.1.3-2,.36-2.66,0-.25.05-.53.07-.84.4-7-.64-30.32-.64-30.32a29.84,29.84,0,0,0-2.2-6.93l-.34-.64C29,245.82,13.53,291.23,13.53,291.23Z"/><path class="cls-34" d="M40.83,258.77,40.48,266l.24,15.06.12,8.22.14,9-.44.18a35.54,35.54,0,0,1-12.29,2.65,9.09,9.09,0,0,1-1.24-.08l-.74-.12a21.74,21.74,0,0,1-3.7-1.1,56,56,0,0,1-8.77-4.52,64.94,64.94,0,0,1-6.42-4.47,55.91,55.91,0,0,1-7-7.73S3,243.77,3,238.88s-2.87-24.7-.48-29.82,12-9.1,19.19-5.12,19,10.81,19.93,22.06c.1,1.22.17,2.36.24,3.43.49,8.88-.24,12.95-.24,12.95l-.74,15.44Z"/><path class="cls-7" d="M41.86,229.43c.49,8.88-.24,12.95-.24,12.95l-.74,15.44-.05.95L40.48,266l.24,15.06-6.79-14.23c-2.17-.36-3.35-.63-5.34-12.34-2.24-13.23-3.42-37.52,7.26-34.72C35.85,219.81,39.79,221.7,41.86,229.43Z"/><path class="cls-35" d="M104.38,258.36c2.56,16.12-2.27,30.28-10.78,31.64s-17.5-10.62-20.06-26.73c0-.18-.06-.36-.08-.53s0-.32-.07-.47c-.24-2.4,1.16-5.16,4.23-7.65,5.85-4.74,15.53-6.69,21.61-4.36a7.28,7.28,0,0,1,4.22,3.51c.17.69.33,1.4.48,2.11S104.25,257.52,104.38,258.36Z"/><path class="cls-36" d="M99.38,251.17c-6.09-2.33-15.76-.38-21.61,4.36s-5.65,10.48.43,12.81S94,268.72,99.81,264,105.46,253.51,99.38,251.17ZM79.74,267.09c-5.2-2-5.36-6.89-.37-10.94s13.27-5.72,18.47-3.73,5.36,6.9.37,11S84.94,269.08,79.74,267.09Z"/><polygon class="cls-36" points="80.23 267.34 54.38 288.3 46.41 294.76 20.64 315.65 19.1 314.95 19.77 314.41 45.34 293.69 53.87 286.77 78.69 266.65 79.42 266.98 80.23 267.34"/><path class="cls-37" d="M103.45,253.77a7.28,7.28,0,0,0-4.22-3.51c-6.08-2.33-15.76-.38-21.61,4.36-3.07,2.49-4.47,5.25-4.23,7.65a3.81,3.81,0,0,0,.07.47c.38,2,1.92,3.66,4.6,4.68,6.08,2.34,15.76.39,21.61-4.35,2.87-2.33,4.29-4.9,4.26-7.19A5.09,5.09,0,0,0,103.45,253.77Zm-5.39,8.68c-5,4.05-13.26,5.72-18.46,3.73s-5.37-6.9-.37-11,13.26-5.71,18.46-3.72S103.06,258.4,98.06,262.45Z"/><polygon class="cls-37" points="80.09 266.43 79.42 266.98 54.1 287.5 45.9 294.14 20.5 314.74 19.77 314.41 18.96 314.04 44.72 293.15 53.48 286.05 78.55 265.73 80.09 266.43"/><polygon class="cls-38" points="18.96 314.04 19.1 314.95 20.64 315.65 20.5 314.74 18.96 314.04"/><polygon class="cls-7" points="40.85 289.94 14.08 311.64 14.9 312 14.9 312 14.08 311.64 14.23 312.55 15.77 313.24 40.9 292.88 40.85 289.94"/><path class="cls-7" d="M54.38,288.3l-8,6.46a2.08,2.08,0,0,0-.2-.31,3,3,0,0,0-.31-.31,6.41,6.41,0,0,1-.51-.4l0-.05c-.26-.22-.46-.39-.62-.54l8.77-7.1a1.43,1.43,0,0,1,.36.6s0,.07,0,.12.13.42.23.73l.27.79Z"/><path class="cls-39" d="M41.36,280.25l-9-18.89,1.14-.56,9.17-4.64s.85,4.5,1.93,9.64l0,0s.1.56.27,1.45c1.27,5.92,2.77,12.2,3.6,13.23a.34.34,0,0,0,.08.09c1.55,1.33,5.77,4.28,5.89,5.18s.35,4.43-1,5.68c-.69.63-1.82,1.92-3,3s-2.44,2-3.5,2c-2.14,0,.8-2-.93-3.59-1.22-1.09-1.24-.75-1.49-4.31s-.07-4.56-1.61-6.43Z"/><path class="cls-40" d="M36.49,216.47s5.57,2.69,6.94,14.69-.8,17.26.5,23.15-5.69,10.05-8.46,9.39-4,.73-6.24-12.5S25.81,213.67,36.49,216.47Z"/><path class="cls-39" d="M13.64,205.85a9,9,0,0,0,8,4.81,9.09,9.09,0,0,0,6.41-2.59,3,3,0,0,1-.1-.32c-.51-1.59.79-9.21.79-9.21a26.75,26.75,0,0,0-6.68-5c-2.53-1.17-5.09-1.24-6.27,2.09-.11.32-.21.66-.3,1C14.54,201.07,13.18,201.73,13.64,205.85Z"/><path class="cls-39" d="M31.62,179.13a13,13,0,0,1,1.88,4,7.46,7.46,0,0,1-.56,3.5c0,.38,1.19,4,1.25,5.29s-1.53,11.49-2.62,11.94c-4.12,1.67-5.35-.07-6.11-1s-4.39-4.4-5.33-4.27-8.42,2.32-9.17,1.57-6.28-7-5.34-14.13S11.21,175.43,16,173.86,29.6,172.48,31.62,179.13Z"/><path class="cls-41" d="M28.78,193.71a19.13,19.13,0,0,1-.56-9.53c.94-3.86,3.93-3.48,4.34-4.5,3.35-8.26-2.72-9.41-4.84-9.93-2.36-.59-5.75.95-7.87,2.12a15.55,15.55,0,0,1-5.18,1.74c-12.89,3.11-8.94,16.82-8.59,18.26,1.27,5.25,5.39,10.45,5.39,10.45a6.94,6.94,0,0,0,4.18,1.55c7,.42,6.9-10.3,8.57-11.3s2.41,1,2.59,2.13S28.78,193.71,28.78,193.71Z"/><path class="cls-42" d="M131.57,264.8s5.57,2.68,6.94,14.69-.79,17.25.51,23.14-5.69,10.05-8.47,9.4-4,.72-6.24-12.51S120.89,262,131.57,264.8Z"/><path class="cls-43" d="M125.36,428.62v8a5.09,5.09,0,0,0,3.53,2.67c2.67.63,8.07-1.82,10.8-3.07s9.16-4.72,10.46-5.63,4.89-6.82,1.25-7.51-13.76,1.71-13.76,1.71Z"/><path class="cls-44" d="M141.34,440.22v8a5.09,5.09,0,0,0,3.52,2.67c2.67.63,8.08-1.82,10.81-3.07s9.1-4.8,10.46-5.63c2.1-1.29,4.89-7.73,1.25-8.42s-13.76,2.62-13.76,2.62Z"/><path class="cls-31" d="M125.36,427.71v8a5.09,5.09,0,0,0,3.53,2.67c2.67.63,8.07-1.82,10.8-3.07s9.16-4.72,10.46-5.63,4.89-6.82,1.25-7.51-13.76,1.71-13.76,1.71Z"/><path class="cls-31" d="M141.34,439.31v8a5.09,5.09,0,0,0,3.52,2.67c2.67.63,8.08-1.82,10.81-3.07s9.15-4.72,10.46-5.63,4.89-6.82,1.25-7.51-13.76,1.71-13.76,1.71Z"/><path class="cls-32" d="M146.68,316s1.14,25.47.57,31.16-5.69,30.82-5.91,35.71-2.05,42.53-2.05,42.53.23,4.86-4.32,6c-11.44,3-10.35-1.25-10.35-1.25l1.48-44.35s-2.69-32-3-44.07C122.72,323.59,139.52,282.71,146.68,316Z"/><path class="cls-33" d="M163.35,357.15q0,.48-.06.84c-.06.52-.15,1.22-.27,2l-.09.62c-.06.33-.11.68-.17,1.05-1.46,9-5.19,27.84-5.39,32-.23,4.89-2,42.54-2,42.54a7,7,0,0,1-4.32,6c-9.67,4.32-10.36-1.25-10.36-1.25l-1.48-47.2L136.6,354h0l-.27-4.12s15.49-45.41,23.84-30.6c.12.2.23.41.34.64a30.27,30.27,0,0,1,2.21,6.93s.52,11.67.68,21C163.47,351.66,163.47,355.11,163.35,357.15Z"/><path class="cls-45" d="M163.64,317.4l-.35,7.27.23,15.06.12,7.91V348l.13,9-.43.18a35.55,35.55,0,0,1-12.3,2.66,9.16,9.16,0,0,1-1.24-.09l-.74-.11c-.59-.12-1.21-.28-1.86-.47s-1.21-.4-1.84-.64A55.16,55.16,0,0,1,136.6,354a66,66,0,0,1-6.42-4.46,55.76,55.76,0,0,1-7.05-7.74s2.65-39.37,2.65-44.27-2.87-24.7-.48-29.82,12-9.1,19.2-5.11,19,10.8,19.92,22.06q.15,1.82.24,3.42c.49,8.88-.24,13-.24,13l-.74,15.44Z"/><polygon class="cls-46" points="165.85 356.89 163.18 353.17 165.85 353.58 165.85 356.89"/><polygon class="cls-47" points="170.9 355.84 168.4 354.24 169.92 353.75 170.9 355.84"/><path class="cls-7" d="M164.66,288.06c.49,8.88-.24,12.95-.24,12.95l-.74,15.45,0,.94-.35,7.27.23,15.06-6.78-14.23c-2.17-.35-3.35-.63-5.34-12.34-2.25-13.23-3.42-37.52,7.26-34.72C158.66,278.44,162.59,280.34,164.66,288.06Z"/><ellipse class="cls-17" cx="201.32" cy="321.53" rx="23.89" ry="13.21" transform="translate(-177.97 328.56) rotate(-59.01)"/><path class="cls-48" d="M212.7,297.89a10.39,10.39,0,0,0-2.33-.29,17,17,0,0,0-9.37,3.07,38,38,0,0,0-11.31,12l-.08.12c-.22.36-.44.71-.65,1.07-.39.66-.77,1.34-1.12,2s-.69,1.39-1,2.08c-.18.39-.34.77-.5,1.16l-.06.13A38.14,38.14,0,0,0,183,335.43a17.09,17.09,0,0,0,2.89,9.43,10.49,10.49,0,0,0,1.58,1.73,9.72,9.72,0,0,0,1.83,1.25l-3.91-2c-3.63-1.89-6-6.17-6.3-12.4-.56-12.48,7.5-28,18-34.77,5.26-3.36,10.14-3.88,13.77-2l3.91,2A9.38,9.38,0,0,0,212.7,297.89Z"/><path class="cls-49" d="M216.68,311.27a33.72,33.72,0,0,1-2.81,14,.69.69,0,0,1-.05.13c-.16.38-.33.77-.5,1.15-.32.7-.65,1.4-1,2.08s-.73,1.36-1.12,2c-.21.37-.43.73-.65,1.08l-.08.12a33.73,33.73,0,0,1-9.78,10.33c-3.65,2.33-7.07,3-9.37,1.8a5.42,5.42,0,0,1-1.72-1.47,8.53,8.53,0,0,0,2.63-.28,16.35,16.35,0,0,0,4.55-2.08c4.38-2.8,8.62-7.74,11.63-13.54s4.6-12.12,4.37-17.31a16.19,16.19,0,0,0-.93-4.92,8.56,8.56,0,0,0-1.28-2.32,5.58,5.58,0,0,1,2.19.57C215.05,303.77,216.48,306.94,216.68,311.27Z"/><path class="cls-50" d="M214.77,298.67a9.38,9.38,0,0,0-2.07-.78,10.39,10.39,0,0,0-2.33-.29,17,17,0,0,0-9.37,3.07,38,38,0,0,0-11.31,12,.83.83,0,0,0-.08.12c-.22.35-.44.71-.65,1.07-.39.67-.77,1.34-1.12,2s-.69,1.38-1,2.07c-.17.39-.34.77-.5,1.16l-.06.13A38.14,38.14,0,0,0,183,335.43a17.09,17.09,0,0,0,2.89,9.43,10.49,10.49,0,0,0,1.58,1.73,9.72,9.72,0,0,0,1.83,1.25c3.64,1.88,8.51,1.36,13.77-2,10.52-6.73,18.59-22.29,18-34.77C220.79,304.84,218.41,300.55,214.77,298.67Zm-2,3.91c2.3,1.19,3.73,4.36,3.93,8.69a33.72,33.72,0,0,1-2.81,14,.69.69,0,0,1-.05.13c-.16.38-.33.77-.5,1.15-.32.7-.65,1.4-1,2.08s-.73,1.36-1.12,2c-.21.37-.43.73-.65,1.08l-.08.12a33.73,33.73,0,0,1-9.78,10.33c-3.65,2.33-7.07,3-9.37,1.8a5.42,5.42,0,0,1-1.72-1.47,8.35,8.35,0,0,1-1.28-2.31,16.25,16.25,0,0,1-.93-4.92c-.23-5.19,1.36-11.5,4.37-17.31s7.25-10.74,11.63-13.54a15.82,15.82,0,0,1,4.55-2.08,8.83,8.83,0,0,1,2.63-.29A5.58,5.58,0,0,1,212.75,302.58Z"/><path class="cls-7" d="M163.78,357l-.43.18q0,.48-.06.84c-.06.52-.15,1.22-.27,2l-8.88,9.19a2.76,2.76,0,0,1-.66.49c-.8.58-2,.51-3.35-.35a10,10,0,0,1-4.25-7.58,2.73,2.73,0,0,1,1.26-2.59h0l.06-.05,16.19-11.33.24-.17V348Z"/><path class="cls-51" d="M184.18,342.41a1.61,1.61,0,0,1-.18.78l-.35.36-24.87,25.72a2.4,2.4,0,0,1-2.69.59c-2.05-.8-3.5-3.82-3.24-6.63.13-1.36-1.75-3.38-1-4l28.69-20.1.24-.17a1.27,1.27,0,0,1,.86-.27,2.17,2.17,0,0,1,.67.3A4.46,4.46,0,0,1,184.18,342.41Z"/><path class="cls-52" d="M150.52,361.83a10,10,0,0,0,4.25,7.58c2.38,1.52,4.33.59,4.36-2.08a9.94,9.94,0,0,0-4.25-7.57C152.5,358.24,150.55,359.16,150.52,361.83Z"/><path class="cls-7" d="M177.41,347.64l-4.58,7.15-1.93,2-.62-1.36a25.38,25.38,0,0,0-1.27-2.32,6.6,6.6,0,0,0-.82-.71,5.63,5.63,0,0,1-1.41-3.63c2.94-2.11,4.43-5.14,6.73-6.47,1.56,1.21,3.08,2.48,3.14,3a15.17,15.17,0,0,0,.53,1.65C177.26,347.16,177.33,347.4,177.41,347.64Z"/><path class="cls-39" d="M164.17,338.89l-9-18.9,1.14-.56,9.17-4.63s.85,4.49,1.94,9.63l0,0s.1.56.27,1.45c1.28,5.92,2.78,12.2,3.6,13.23l.08.09c1.56,1.33,5.77,4.28,5.89,5.19s2.25,5.36.88,6.61c-.69.63-1.81,1.92-3,3s-2.44,2-3.49,2c-2.15,0-1.09-3-2.82-4.52-1.22-1.1-1.25-.75-1.49-4.32s-.07-4.56-1.62-6.43Z"/><path class="cls-53" d="M159.29,275.11s5.57,2.69,6.94,14.69-.8,17.25.51,23.14-5.69,10.05-8.47,9.4-4,.72-6.24-12.51S148.61,272.31,159.29,275.11Z"/><path class="cls-39" d="M136.45,264.48a9,9,0,0,0,8,4.81,9.12,9.12,0,0,0,6.4-2.58c0-.1-.06-.21-.1-.32-.51-1.59.8-9.21.8-9.21a26.71,26.71,0,0,0-6.68-5c-2.54-1.17-5.1-1.25-6.27,2.08a6.89,6.89,0,0,0-.3,1.05C137.35,259.7,136,260.36,136.45,264.48Z"/><path class="cls-39" d="M154.42,237.77a13,13,0,0,1,1.88,4,7.38,7.38,0,0,1-.56,3.5c0,.38,1.19,4,1.26,5.29s-1.53,11.49-2.62,11.93c-4.13,1.67-5.36-.06-6.11-1s-4.4-4.39-5.34-4.27-8.42,2.33-9.17,1.57-6.28-7-5.34-14.13,5.59-10.61,10.36-12.18S152.41,231.12,154.42,237.77Z"/><path class="cls-41" d="M151.59,252.34a19.2,19.2,0,0,1-.57-9.53c.94-3.86,3.93-3.48,4.34-4.5,3.35-8.26-2.72-9.4-4.84-9.93-2.36-.58-5.74,1-7.86,2.12s-2.86,1.18-5.19,1.75c-12.89,3.11-8.93,16.82-8.59,18.25,1.27,5.25,5.4,10.45,5.4,10.45a6.94,6.94,0,0,0,4.18,1.55c6.95.42,6.89-10.29,8.57-11.3s2.4,1,2.58,2.14S151.59,252.34,151.59,252.34Z"/></g></g></g></svg>