<svg xmlns="http://www.w3.org/2000/svg" xmlns:xlink="http://www.w3.org/1999/xlink" viewBox="0 0 895.16 659.6"><defs><style>.cls-1{fill:none;}.cls-2{isolation:isolate;}.cls-3{fill:#c4c6d0;}.cls-4{fill:#fff;}.cls-5{fill:#efeff4;}.cls-6{fill:#3f3f3f;}.cls-42,.cls-7{mix-blend-mode:multiply;}.cls-8{opacity:0;}.cls-9{fill:#fcfdfd;}.cls-10{fill:#fafafb;}.cls-11{fill:#f7f8f8;}.cls-12{fill:#f5f5f6;}.cls-13{fill:#f2f3f4;}.cls-14{fill:#f0f0f2;}.cls-15{fill:#edeeef;}.cls-16{fill:#ebeced;}.cls-17{fill:#e8e9eb;}.cls-18{fill:#e6e7e9;}.cls-19{fill:#e3e4e6;}.cls-20{fill:#e1e2e4;}.cls-21{fill:#dedfe2;}.cls-22{fill:#dcdde0;}.cls-23{fill:#d9dbdd;}.cls-24{fill:#d7d8db;}.cls-25{fill:#d4d6d9;}.cls-26{fill:#d2d3d7;}.cls-27{fill:#cfd1d4;}.cls-28{fill:#cdced2;}.cls-29{fill:#caccd0;}.cls-30{fill:url(#linear-gradient);}.cls-31{fill:url(#linear-gradient-2);}.cls-32{fill:url(#linear-gradient-3);}.cls-33{fill:url(#linear-gradient-4);}.cls-34{fill:url(#linear-gradient-5);}.cls-35{fill:url(#_ÂÁ_Ï_ÌÌ_È_ËÂÌÚ_4);}.cls-36{fill:url(#_ÂÁ_Ï_ÌÌ_È_ËÂÌÚ_4-2);}.cls-37{fill:url(#linear-gradient-6);}.cls-38{fill:url(#linear-gradient-7);}.cls-39{fill:#d65638;}.cls-40{fill:#ed5e37;}.cls-41{fill:#ff7343;}.cls-42{fill:#ffd71d;}.cls-43{fill:#fd0;mix-blend-mode:overlay;}.cls-44{fill:#020064;}.cls-45{clip-path:url(#clip-path);}.cls-46{fill:url(#_ÂÁ_Ï_ÌÌ_È_ËÂÌÚ_12);}.cls-47{fill:url(#linear-gradient-8);}.cls-48{fill:#facfc8;}.cls-49{fill:#313445;}.cls-50{fill:url(#_ÂÁ_Ï_ÌÌ_È_ËÂÌÚ_12-2);}.cls-51{fill:url(#_ÂÁ_Ï_ÌÌ_È_ËÂÌÚ_12-3);}.cls-52{fill:url(#_ÂÁ_Ï_ÌÌ_È_ËÂÌÚ_12-4);}.cls-53{fill:url(#linear-gradient-9);}.cls-54{fill:url(#linear-gradient-10);}.cls-55{fill:url(#_ÂÁ_Ï_ÌÌ_È_ËÂÌÚ_12-5);}.cls-56{fill:#3e9ddd;}.cls-57{fill:#57b3fe;}.cls-58{fill:url(#_ÂÁ_Ï_ÌÌ_È_ËÂÌÚ_7);}.cls-59{fill:url(#_ÂÁ_Ï_ÌÌ_È_ËÂÌÚ_7-2);}.cls-60{fill:#383097;}.cls-61{fill:url(#_ÂÁ_Ï_ÌÌ_È_ËÂÌÚ_7-3);}.cls-62{fill:url(#_ÂÁ_Ï_ÌÌ_È_ËÂÌÚ_7-4);}.cls-63{fill:#282b43;}.cls-64{fill:url(#_ÂÁ_Ï_ÌÌ_È_ËÂÌÚ_7-5);}.cls-65{fill:url(#_ÂÁ_Ï_ÌÌ_È_ËÂÌÚ_7-6);}.cls-66{fill:url(#_ÂÁ_Ï_ÌÌ_È_ËÂÌÚ_7-7);}.cls-67{fill:url(#_ÂÁ_Ï_ÌÌ_È_ËÂÌÚ_7-8);}.cls-68{fill:url(#_ÂÁ_Ï_ÌÌ_È_ËÂÌÚ_7-9);}.cls-69{fill:url(#_ÂÁ_Ï_ÌÌ_È_ËÂÌÚ_7-10);}.cls-70{fill:#5caa5e;}.cls-71{fill:#5ec363;}.cls-72{fill:#a2a7c7;}.cls-73{fill:#c2c8ec;}.cls-74{fill:url(#linear-gradient-11);}</style><linearGradient id="linear-gradient" x1="66.78" y1="458.52" x2="42.62" y2="416.68" gradientUnits="userSpaceOnUse"><stop offset="0" stop-color="#144188"/><stop offset="1" stop-color="#1a7cde"/></linearGradient><linearGradient id="linear-gradient-2" x1="6597.09" y1="422.29" x2="6604.49" y2="422.29" gradientTransform="matrix(-1, 0, 0, 1, 6629.09, 0)" xlink:href="#linear-gradient"/><linearGradient id="linear-gradient-3" x1="6546.32" y1="421.27" x2="6553.72" y2="421.27" gradientTransform="matrix(-1, 0, 0, 1, 6629.09, 0)" xlink:href="#linear-gradient"/><linearGradient id="linear-gradient-4" x1="20.28" y1="429.19" x2="89.54" y2="429.19" xlink:href="#linear-gradient"/><linearGradient id="linear-gradient-5" x1="6567.99" y1="452.67" x2="6578.56" y2="452.67" gradientTransform="matrix(-1, 0, 0, 1, 6629.09, 0)" xlink:href="#linear-gradient"/><linearGradient id="_ÂÁ_Ï_ÌÌ_È_ËÂÌÚ_4" x1="6539.55" y1="435.77" x2="6544.34" y2="435.77" gradientTransform="matrix(-1, 0, 0, 1, 6629.09, 0)" gradientUnits="userSpaceOnUse"><stop offset="0" stop-color="#362e95"/><stop offset="1" stop-color="#4945c2"/></linearGradient><linearGradient id="_ÂÁ_Ï_ÌÌ_È_ËÂÌÚ_4-2" x1="6544.9" y1="446.37" x2="6552.62" y2="446.37" xlink:href="#_ÂÁ_Ï_ÌÌ_È_ËÂÌÚ_4"/><linearGradient id="linear-gradient-6" x1="6594.17" y1="447.58" x2="6602.38" y2="447.58" gradientTransform="matrix(-1, 0, 0, 1, 6629.09, 0)" xlink:href="#linear-gradient"/><linearGradient id="linear-gradient-7" x1="6604.03" y1="437.27" x2="6608.88" y2="437.27" gradientTransform="matrix(-1, 0, 0, 1, 6629.09, 0)" xlink:href="#linear-gradient"/><clipPath id="clip-path"><path class="cls-1" d="M723.09,292.17l-1.61-53.78L708.25,197.1l-22.56-38.27v-47.3L646.05,67.69l-53.2,1.19L559.3,106l9.18,59.78-21,102,5.22,31.95c-11.44,17.84-4.05,38.44,22.16,52.69,36.51,19.84,95.7,19.84,132.21,0C737.08,336.06,742.4,311.44,723.09,292.17Z"/></clipPath><linearGradient id="_ÂÁ_Ï_ÌÌ_È_ËÂÌÚ_12" x1="519.28" y1="295.25" x2="628.3" y2="295.25" gradientUnits="userSpaceOnUse"><stop offset="0" stop-color="#f5f6f9"/><stop offset="1" stop-color="#bec1ec"/></linearGradient><linearGradient id="linear-gradient-8" x1="556.39" y1="325.15" x2="726" y2="325.15" xlink:href="#linear-gradient"/><linearGradient id="_ÂÁ_Ï_ÌÌ_È_ËÂÌÚ_12-2" x1="559.3" y1="245.44" x2="577.66" y2="245.44" xlink:href="#_ÂÁ_Ï_ÌÌ_È_ËÂÌÚ_12"/><linearGradient id="_ÂÁ_Ï_ÌÌ_È_ËÂÌÚ_12-3" x1="610.51" y1="112.08" x2="653.67" y2="116.51" xlink:href="#_ÂÁ_Ï_ÌÌ_È_ËÂÌÚ_12"/><linearGradient id="_ÂÁ_Ï_ÌÌ_È_ËÂÌÚ_12-4" x1="627.9" y1="158.83" x2="656.3" y2="158.83" xlink:href="#_ÂÁ_Ï_ÌÌ_È_ËÂÌÚ_12"/><linearGradient id="linear-gradient-9" x1="635.99" y1="158.83" x2="659.86" y2="158.83" xlink:href="#linear-gradient"/><linearGradient id="linear-gradient-10" x1="600.34" y1="196.74" x2="620.66" y2="196.74" xlink:href="#linear-gradient"/><linearGradient id="_ÂÁ_Ï_ÌÌ_È_ËÂÌÚ_12-5" x1="658.61" y1="-822.54" x2="783.51" y2="-745" gradientTransform="translate(295.32 1337.7) rotate(-20.33)" xlink:href="#_ÂÁ_Ï_ÌÌ_È_ËÂÌÚ_12"/><linearGradient id="_ÂÁ_Ï_ÌÌ_È_ËÂÌÚ_7" x1="415.62" y1="335.52" x2="450.94" y2="335.52" gradientUnits="userSpaceOnUse"><stop offset="0" stop-color="#bec1ec"/><stop offset="1" stop-color="#f5f6f9"/></linearGradient><linearGradient id="_ÂÁ_Ï_ÌÌ_È_ËÂÌÚ_7-2" x1="417.51" y1="468.63" x2="436.86" y2="468.63" xlink:href="#_ÂÁ_Ï_ÌÌ_È_ËÂÌÚ_7"/><linearGradient id="_ÂÁ_Ï_ÌÌ_È_ËÂÌÚ_7-3" x1="424.39" y1="469.89" x2="425.92" y2="469.89" xlink:href="#_ÂÁ_Ï_ÌÌ_È_ËÂÌÚ_7"/><linearGradient id="_ÂÁ_Ï_ÌÌ_È_ËÂÌÚ_7-4" x1="417.91" y1="469.43" x2="421.4" y2="469.43" xlink:href="#_ÂÁ_Ï_ÌÌ_È_ËÂÌÚ_7"/><linearGradient id="_ÂÁ_Ï_ÌÌ_È_ËÂÌÚ_7-5" x1="432.23" y1="475.85" x2="451.57" y2="475.85" xlink:href="#_ÂÁ_Ï_ÌÌ_È_ËÂÌÚ_7"/><linearGradient id="_ÂÁ_Ï_ÌÌ_È_ËÂÌÚ_7-6" x1="439.11" y1="477.11" x2="440.64" y2="477.11" xlink:href="#_ÂÁ_Ï_ÌÌ_È_ËÂÌÚ_7"/><linearGradient id="_ÂÁ_Ï_ÌÌ_È_ËÂÌÚ_7-7" x1="432.63" y1="476.65" x2="436.11" y2="476.65" xlink:href="#_ÂÁ_Ï_ÌÌ_È_ËÂÌÚ_7"/><linearGradient id="_ÂÁ_Ï_ÌÌ_È_ËÂÌÚ_7-8" x1="411.65" y1="361.55" x2="447.33" y2="361.55" xlink:href="#_ÂÁ_Ï_ÌÌ_È_ËÂÌÚ_7"/><linearGradient id="_ÂÁ_Ï_ÌÌ_È_ËÂÌÚ_7-9" x1="424.76" y1="332.07" x2="437.63" y2="332.07" xlink:href="#_ÂÁ_Ï_ÌÌ_È_ËÂÌÚ_7"/><linearGradient id="_ÂÁ_Ï_ÌÌ_È_ËÂÌÚ_7-10" x1="430.99" y1="356.21" x2="444.91" y2="356.21" xlink:href="#_ÂÁ_Ï_ÌÌ_È_ËÂÌÚ_7"/><linearGradient id="linear-gradient-11" x1="408.16" y1="581.62" x2="500.73" y2="581.62" gradientTransform="translate(-152.95)" xlink:href="#linear-gradient"/></defs><g class="cls-2"><g id="Layer_2" data-name="Layer 2"><g id="Layer_1-2" data-name="Layer 1"><path class="cls-3" d="M501.23,471.22h-10l-48.81-28a11.54,11.54,0,0,0-11.11.06l-47.49,26.49h-9.84v8.17h0a4.21,4.21,0,0,0,2.16,3.54l55.15,32.2a11.49,11.49,0,0,0,11.11.06L499,482.94a4.18,4.18,0,0,0,2.2-3.55h0Z"/><path class="cls-4" d="M499,467.12l-56.63-32.25a11.54,11.54,0,0,0-11.11.06L376.12,465.7a4.25,4.25,0,0,0,0,7.43l55.15,32.2a11.49,11.49,0,0,0,11.11.06L499,474.59A4.25,4.25,0,0,0,499,467.12Z"/><path class="cls-5" d="M376.12,472.11l20.35,11.36,34.79,20.85a11.56,11.56,0,0,0,11.12.06l36.48-19.84,15.9-8.65,4.25-2.31a4.26,4.26,0,0,0,0-7.48l-56.63-32.24a11.56,11.56,0,0,0-11.12.06l-35.86,20-19.28,10.75A4.25,4.25,0,0,0,376.12,472.11Z"/><path class="cls-3" d="M889.6,364.13l-312-173.57c-11.78-6.78-29.57-7.49-39.75-1.6L385.57,271.42a9.7,9.7,0,0,0-.22,16.92L694.43,466.22c11.77,6.77,29.57,7.48,39.75,1.59l155.35-84.76a10.8,10.8,0,0,0,.07-18.92Z"/><path class="cls-5" d="M888.49,363.51l-310.91-173c-11.77-6.77-29.57-7.48-39.74-1.58L385.57,271.42l0,0a2.42,2.42,0,0,0,0,4.21L694.27,452.89c11,6.36,27.72,7,37.25,1.5l156.68-86.9a2.37,2.37,0,0,0,.31-4S888.5,363.51,888.49,363.51Z"/><path class="cls-5" d="M817.42,411.58l-17.85,9.71a6.88,6.88,0,0,0-3,5.45c-.05,2.12,1.22,3.13,2.83,2.25l17.85-9.72a6.89,6.89,0,0,0,3-5.45C820.31,411.7,819,410.69,817.42,411.58Z"/><path class="cls-6" d="M382.19,297.9a8.79,8.79,0,0,0,0,15.38l3.31,1.84a24.71,24.71,0,0,0,23.85.13l23.36-12.68-29.05-16.51Z"/><path class="cls-4" d="M402.15,294.89c-5.69,0-10.15,2.81-10.15,6.4s4.46,6.39,10.15,6.39,10.14-2.81,10.14-6.39S407.84,294.89,402.15,294.89Zm0,11.55c-4.83,0-8.91-2.36-8.91-5.15s4.08-5.16,8.91-5.16,8.9,2.36,8.9,5.16S407,306.44,402.15,306.44Z"/><path class="cls-3" d="M173.74,463h-7.69L68.24,409.45a8.81,8.81,0,0,0-8.51,0l-52.19,29H0v6.26H0a3.21,3.21,0,0,0,1.65,2.7l102.67,56.79a8.81,8.81,0,0,0,8.51,0L172,472a3.19,3.19,0,0,0,1.68-2.72h0Z"/><path class="cls-4" d="M172,459.87,68.24,403.05a8.84,8.84,0,0,0-8.51.05L1.67,435.35a3.26,3.26,0,0,0,0,5.69l102.67,56.79a8.81,8.81,0,0,0,8.51,0L172,465.59A3.25,3.25,0,0,0,172,459.87Z"/><path class="cls-5" d="M1.67,440.26,17.26,449l87.08,48.09a8.81,8.81,0,0,0,8.51,0l43.76-23.88,12.18-6.63,3.25-1.76a3.26,3.26,0,0,0,0-5.73L68.23,402.28a8.81,8.81,0,0,0-8.51,0l-43.29,24L1.67,434.57A3.26,3.26,0,0,0,1.67,440.26Z"/><g class="cls-7"><g class="cls-8"><path class="cls-4" d="M65.9,444.23c-.22.1-.45.2-.68.28a31.71,31.71,0,0,1-20.59,0l-.72-.3c-6.07-2.68-6.07-7,0-9.71s15.92-2.69,22,0S72,441.55,65.9,444.23Zm13.77-14.56,3.57-2.21-8.34-4.15-3.36,2.07c-5.22-2.13-12.41-2.32-12.43-2.32l-.1-3.15H48.28l.1,3.15a46,46,0,0,0-12.1,3.19L32,424l-7.82,4.55,4.54,2.28a13.33,13.33,0,0,0-4.39,6.46l-4.55,0v5.92h4.87a12.11,12.11,0,0,0,4.82,6l-3.15,2.35,8.33,4.15,3.31-2.07a39.09,39.09,0,0,0,12.43,2.46l.12,2.7H61.19l-.09-3a46.94,46.94,0,0,0,12.08-3.06l3.63,1.91,7.81-4.55-4.09-1.68a13.61,13.61,0,0,0,4.68-6.79l4.86,0v-5.83l-5.21,0A10.1,10.1,0,0,0,79.67,429.67Z"/></g><path class="cls-9" d="M65.89,444.15l-.68.28c-5.9,2.19-14.68,2.25-20.57,0l-.73-.3c-6-2.72-6.06-7,0-9.7s15.92-2.69,22,0S71.94,441.44,65.89,444.15ZM79.65,429.6l3.57-2.21-8.34-4.14-3.35,2.06C66.31,423.19,59.12,423,59.11,423l-.1-3.15H48.28l.11,3.15a45.88,45.88,0,0,0-12.1,3.19L32,423.88l-7.82,4.55,4.54,2.28a13.33,13.33,0,0,0-4.39,6.46l-4.54,0v5.92h4.86a12.11,12.11,0,0,0,4.82,6l-3.15,2.35,8.33,4.14,3.3-2.07A38.82,38.82,0,0,0,50.36,456l.11,2.71H61.19l-.1-3a46.43,46.43,0,0,0,12.08-3.06l3.62,1.91,7.81-4.54-4.09-1.68a13.59,13.59,0,0,0,4.68-6.78l4.86,0v-5.83H84.84A10.11,10.11,0,0,0,79.65,429.6Z"/><path class="cls-10" d="M65.88,444.07c-.22.1-.45.2-.68.28-5.9,2.19-14.67,2.25-20.55,0-.25-.09-.49-.19-.73-.3-6-2.71-6.05-7,0-9.69s15.9-2.69,22,0S71.93,441.36,65.88,444.07Zm13.76-14.54,3.56-2.2-8.33-4.14-3.36,2.06c-5.2-2.13-12.39-2.32-12.4-2.32L59,419.79H48.29l.1,3.14a46.7,46.7,0,0,0-12.09,3.19l-4.3-2.3-7.82,4.55,4.54,2.27a13.41,13.41,0,0,0-4.39,6.46l-4.54,0V443h4.86a12.11,12.11,0,0,0,4.82,6l-3.15,2.35,8.32,4.14L38,453.5A39,39,0,0,0,50.36,456l.11,2.7H61.19l-.1-3a46.45,46.45,0,0,0,12.07-3.05l3.62,1.91,7.8-4.54-4.09-1.68a13.5,13.5,0,0,0,4.67-6.78l4.86,0v-5.83l-5.2,0A10.13,10.13,0,0,0,79.64,429.53Z"/><path class="cls-11" d="M65.87,444c-.22.1-.45.2-.68.28-5.89,2.19-14.65,2.25-20.53,0-.25-.09-.49-.19-.73-.3-6-2.71-6-7,0-9.68s15.89-2.69,21.94,0S71.92,441.29,65.87,444Zm13.75-14.53,3.56-2.2-8.33-4.13-3.35,2.05c-5.2-2.12-12.38-2.31-12.39-2.31L59,419.73H48.29l.11,3.14a46.12,46.12,0,0,0-12.08,3.19L32,423.76,24.2,428.3l4.54,2.28A13.41,13.41,0,0,0,24.35,437l-4.53,0V443h4.85a12.14,12.14,0,0,0,4.82,6l-3.15,2.35,8.32,4.13,3.3-2.07a38.6,38.6,0,0,0,12.4,2.46l.12,2.7h10.7l-.1-3a47.08,47.08,0,0,0,12.06-3.05l3.62,1.9,7.8-4.53-4.09-1.68a13.52,13.52,0,0,0,4.67-6.77l4.85,0v-5.83l-5.19,0A10.16,10.16,0,0,0,79.62,429.46Z"/><path class="cls-12" d="M65.86,443.92l-.67.28c-5.89,2.18-14.65,2.24-20.53,0l-.72-.3c-6-2.71-6-7,0-9.68s15.88-2.69,21.92,0S71.91,441.21,65.86,443.92ZM79.6,429.4l3.55-2.2-8.31-4.14-3.35,2.06c-5.2-2.12-12.38-2.31-12.39-2.31l-.1-3.14H48.29l.11,3.14A45.77,45.77,0,0,0,36.33,426L32,423.7l-7.8,4.53,4.53,2.28A13.31,13.31,0,0,0,24.38,437l-4.54,0v5.9h4.85a12.14,12.14,0,0,0,4.82,6l-3.15,2.34,8.31,4.14,3.3-2.07a38.92,38.92,0,0,0,12.4,2.45l.11,2.7h10.7l-.1-3a46.3,46.3,0,0,0,12-3.05l3.61,1.91,7.8-4.53-4.08-1.68a13.54,13.54,0,0,0,4.66-6.77l4.85,0v-5.82l-5.19,0A10.1,10.1,0,0,0,79.6,429.4Z"/><path class="cls-13" d="M65.86,443.84l-.68.28c-5.89,2.18-14.64,2.24-20.51,0l-.72-.3c-6-2.71-6.05-7,0-9.68s15.86-2.68,21.91,0S71.89,441.14,65.86,443.84Zm13.72-14.51,3.55-2.2L74.83,423l-3.35,2.06c-5.2-2.12-12.37-2.31-12.38-2.31l-.1-3.14H48.3l.11,3.14a46,46,0,0,0-12.07,3.18l-4.29-2.3-7.8,4.54,4.53,2.27a13.31,13.31,0,0,0-4.38,6.44l-4.53,0v5.9h4.84a12.14,12.14,0,0,0,4.82,6l-3.15,2.34,8.31,4.13L38,453.25a39,39,0,0,0,12.39,2.45l.11,2.69H61.17l-.1-3a46.6,46.6,0,0,0,12.05-3.05l3.61,1.9,7.79-4.52-4.08-1.68a13.56,13.56,0,0,0,4.66-6.76l4.84,0v-5.82l-5.19,0A10.06,10.06,0,0,0,79.58,429.33Z"/><path class="cls-14" d="M65.85,443.76c-.22.1-.45.2-.68.28-5.88,2.18-14.62,2.24-20.49,0-.25-.09-.49-.19-.73-.3-6-2.7-6-7,0-9.67s15.86-2.67,21.9,0S71.88,441.06,65.85,443.76Zm13.71-14.5,3.55-2.19-8.3-4.13L71.47,425c-5.2-2.11-12.36-2.3-12.37-2.3L59,419.55H48.3l.11,3.14a45.51,45.51,0,0,0-12,3.18l-4.3-2.3-7.79,4.53,4.53,2.27a13.26,13.26,0,0,0-4.38,6.44l-4.53,0v5.9h4.85a12.11,12.11,0,0,0,4.8,6L26.4,451.1l8.3,4.12,3.3-2.06a38.76,38.76,0,0,0,12.37,2.45l.12,2.7H61.17l-.1-3a46.44,46.44,0,0,0,12-3l3.61,1.9,7.79-4.53L80.42,448a13.56,13.56,0,0,0,4.66-6.76l4.84,0v-5.81l-5.19,0A10.13,10.13,0,0,0,79.56,429.26Z"/><path class="cls-15" d="M65.84,443.68c-.22.1-.45.2-.68.28-5.87,2.18-14.61,2.24-20.48,0l-.72-.3c-6-2.7-6-7,0-9.66s15.85-2.67,21.88,0S71.87,441,65.84,443.68ZM79.55,429.2l3.54-2.2-8.29-4.12-3.35,2.05c-5.18-2.12-12.35-2.31-12.36-2.31l-.1-3.13H48.31l.11,3.13a46.28,46.28,0,0,0-12.05,3.18l-4.29-2.29L24.29,428l4.52,2.26a13.33,13.33,0,0,0-4.37,6.43l-4.52,0v5.89h4.84a12.11,12.11,0,0,0,4.8,6L26.42,451l8.3,4.13L38,453.08a38.76,38.76,0,0,0,12.37,2.45l.11,2.69H61.16l-.1-3a46.45,46.45,0,0,0,12-3.05l3.61,1.9,7.77-4.52-4.07-1.67a13.56,13.56,0,0,0,4.66-6.76h4.83v-5.81l-5.18,0A10.09,10.09,0,0,0,79.55,429.2Z"/><path class="cls-16" d="M65.83,443.61l-.67.28c-5.88,2.17-14.61,2.23-20.47,0-.24-.09-.48-.18-.72-.29-6-2.7-6-7,0-9.66s15.83-2.67,21.86,0S71.86,440.91,65.83,443.61Zm13.7-14.48,3.54-2.2-8.29-4.12-3.34,2.05c-5.18-2.11-12.34-2.3-12.35-2.3l-.1-3.13H48.31l.11,3.13a45.92,45.92,0,0,0-12,3.18l-4.28-2.3L24.32,428l4.51,2.27a13.23,13.23,0,0,0-4.36,6.42l-4.53,0v5.88h4.84a12.11,12.11,0,0,0,4.8,6l-3.14,2.34,8.29,4.12L38,453a38.75,38.75,0,0,0,12.36,2.45l.11,2.69H61.16l-.1-3a46.47,46.47,0,0,0,12-3l3.6,1.9,7.77-4.52-4.07-1.67A13.45,13.45,0,0,0,85,441.09l4.84,0v-5.8H84.69A10.1,10.1,0,0,0,79.53,429.13Z"/><path class="cls-17" d="M65.82,443.53c-.21.1-.44.19-.67.28-5.87,2.17-14.59,2.23-20.45,0l-.72-.3c-6-2.7-6-7,0-9.65s15.82-2.67,21.84,0S71.85,440.84,65.82,443.53Zm13.69-14.47,3.54-2.19-8.28-4.12-3.34,2.05c-5.18-2.11-12.33-2.3-12.34-2.3L59,419.37H48.32l.1,3.13a45.77,45.77,0,0,0-12,3.17l-4.29-2.29-7.77,4.52,4.51,2.27a13.23,13.23,0,0,0-4.36,6.42l-4.52,0v5.88H24.8a12.09,12.09,0,0,0,4.8,6l-3.14,2.34L34.75,455,38,452.91a38.73,38.73,0,0,0,12.35,2.44L50.5,458H61.15l-.09-3a46.31,46.31,0,0,0,12-3l3.61,1.89,7.76-4.51-4.07-1.67A13.45,13.45,0,0,0,85,441l4.83,0V435.2H84.67A10.1,10.1,0,0,0,79.51,429.06Z"/><path class="cls-18" d="M65.82,443.45c-.22.1-.45.2-.68.28a32.52,32.52,0,0,1-20.43,0c-.25-.09-.48-.19-.72-.3-6-2.69-6-7,0-9.64s15.81-2.67,21.83,0S71.83,440.76,65.82,443.45ZM79.49,429,83,426.8l-8.28-4.11-3.33,2.05c-5.18-2.11-12.33-2.3-12.34-2.3l-.1-3.13H48.32l.11,3.13a45.77,45.77,0,0,0-12,3.17l-4.28-2.29-7.77,4.52,4.51,2.26a13.23,13.23,0,0,0-4.36,6.42l-4.51,0v5.88h4.82a12.09,12.09,0,0,0,4.8,6l-3.14,2.34,8.28,4.11L38,452.82a38.68,38.68,0,0,0,12.35,2.45L50.5,458H61.15l-.1-2.95a46.22,46.22,0,0,0,12-3l3.6,1.9,7.76-4.51-4.07-1.67A13.47,13.47,0,0,0,85,440.94l4.83,0v-5.8l-5.17,0A10.07,10.07,0,0,0,79.49,429Z"/><path class="cls-19" d="M65.81,443.38c-.22.09-.45.19-.68.27a32.48,32.48,0,0,1-20.42,0l-.72-.29c-6-2.7-6-7,0-9.64s15.8-2.67,21.82,0S71.82,440.69,65.81,443.38Zm13.66-14.45L83,426.74l-8.27-4.11-3.33,2c-5.18-2.11-12.32-2.29-12.33-2.29l-.1-3.13H48.33l.1,3.13a46.18,46.18,0,0,0-12,3.16l-4.27-2.28-7.77,4.51L28.89,430a13.33,13.33,0,0,0-4.36,6.41l-4.51,0v5.87h4.83a12,12,0,0,0,4.79,6l-3.14,2.33,8.28,4.12,3.28-2.06a38.58,38.58,0,0,0,12.33,2.44l.11,2.69H61.14l-.09-3a46.24,46.24,0,0,0,12-3l3.59,1.89,7.76-4.5-4.06-1.67A13.57,13.57,0,0,0,85,440.86l4.82,0v-5.79l-5.17,0A10,10,0,0,0,79.47,428.93Z"/><path class="cls-20" d="M65.8,443.3l-.67.28c-5.86,2.17-14.56,2.22-20.41,0-.24-.09-.48-.18-.72-.29-6-2.69-6-7,0-9.63s15.79-2.66,21.8,0S71.81,440.62,65.8,443.3Zm13.66-14.44L83,426.67l-8.27-4.1-3.33,2c-5.17-2.11-12.3-2.3-12.31-2.3L59,419.19H48.33l.11,3.12a45.62,45.62,0,0,0-12,3.17l-4.28-2.29-7.76,4.52L28.91,430a13.26,13.26,0,0,0-4.36,6.4l-4.5,0v5.87h4.82a12.06,12.06,0,0,0,4.78,6l-3.13,2.33,8.27,4.11,3.28-2a38.79,38.79,0,0,0,12.32,2.44l.12,2.68H61.14l-.1-2.95a46.57,46.57,0,0,0,12-3l3.6,1.89,7.75-4.51-4.06-1.66A13.55,13.55,0,0,0,85,440.79l4.82,0V435l-5.17,0A10,10,0,0,0,79.46,428.86Z"/><path class="cls-21" d="M65.79,443.22l-.67.28a32.53,32.53,0,0,1-20.39,0l-.72-.3c-6-2.69-6-7,0-9.62s15.77-2.66,21.78,0S71.8,440.54,65.79,443.22ZM79.44,428.8,83,426.61l-8.26-4.11-3.33,2.05c-5.16-2.11-12.29-2.3-12.3-2.3L59,419.13H48.34l.1,3.12a45.65,45.65,0,0,0-12,3.17l-4.27-2.29-7.75,4.51,4.5,2.26a13.23,13.23,0,0,0-4.35,6.4l-4.51,0v5.86h4.82a12.06,12.06,0,0,0,4.78,6l-3.12,2.33,8.25,4.11,3.28-2.06A38.51,38.51,0,0,0,50.4,455l.11,2.68H61.14l-.1-2.95a46.19,46.19,0,0,0,12-3l3.59,1.89,7.75-4.5-4.06-1.67a13.4,13.4,0,0,0,4.63-6.72l4.82,0v-5.78l-5.16,0A10,10,0,0,0,79.44,428.8Z"/><path class="cls-22" d="M65.79,443.14c-.22.1-.45.2-.68.28-5.85,2.17-14.54,2.22-20.37,0-.25-.09-.48-.19-.72-.3-6-2.68-6-7,0-9.61s15.76-2.66,21.77,0S71.79,440.47,65.79,443.14Zm13.63-14.41L83,426.54l-8.25-4.1-3.33,2c-5.16-2.1-12.29-2.29-12.3-2.29l-.1-3.12H48.34l.11,3.12a45.93,45.93,0,0,0-12,3.16l-4.27-2.28-7.74,4.5,4.5,2.26a13.23,13.23,0,0,0-4.35,6.4l-4.5,0v5.86h4.81a12.12,12.12,0,0,0,4.78,6l-3.12,2.33,8.25,4.1,3.27-2.05a38.82,38.82,0,0,0,12.31,2.43l.11,2.68H61.13l-.1-2.94a46.49,46.49,0,0,0,12-3l3.59,1.89,7.73-4.5-4-1.67a13.37,13.37,0,0,0,4.63-6.71l4.82,0v-5.78l-5.16,0A10.06,10.06,0,0,0,79.42,428.73Z"/><path class="cls-23" d="M65.78,443.07c-.22.09-.45.19-.68.27a32.44,32.44,0,0,1-20.36,0l-.71-.29c-6-2.69-6-7,0-9.61s15.75-2.66,21.75,0S71.77,440.39,65.78,443.07ZM79.4,428.66l3.53-2.18-8.25-4.1-3.32,2c-5.16-2.1-12.28-2.29-12.29-2.29L59,419H48.35l.1,3.12a45.39,45.39,0,0,0-12,3.16L32.21,423l-7.74,4.5,4.5,2.25a13.23,13.23,0,0,0-4.35,6.4l-4.5,0V442h4.81a12.07,12.07,0,0,0,4.78,6l-3.12,2.32,8.24,4.1,3.28-2.05a38.29,38.29,0,0,0,12.29,2.44l.12,2.67H61.13l-.1-2.94a45.94,45.94,0,0,0,12-3l3.59,1.89,7.73-4.49-4-1.67a13.33,13.33,0,0,0,4.63-6.71l4.81,0v-5.77l-5.15,0A10.06,10.06,0,0,0,79.4,428.66Z"/><path class="cls-24" d="M65.77,443l-.67.28c-5.84,2.16-14.52,2.21-20.35,0-.24-.09-.48-.18-.72-.29-6-2.68-6-6.95,0-9.6s15.74-2.66,21.74,0S71.76,440.32,65.77,443ZM79.39,428.6l3.52-2.19-8.24-4.09-3.32,2c-5.16-2.1-12.27-2.28-12.28-2.28L59,419H48.35l.11,3.12a45.77,45.77,0,0,0-12,3.15l-4.26-2.28-7.74,4.5L29,429.7a13.19,13.19,0,0,0-4.35,6.38l-4.49,0V442H25a12,12,0,0,0,4.77,6l-3.12,2.33,8.24,4.1,3.27-2.05a38.68,38.68,0,0,0,12.29,2.43l.11,2.68h10.6l-.1-2.95a46.33,46.33,0,0,0,11.95-3l3.58,1.89,7.73-4.49-4-1.67a13.33,13.33,0,0,0,4.63-6.71h4.81V434.7H84.52A10,10,0,0,0,79.39,428.6Z"/><path class="cls-25" d="M65.76,442.91l-.67.28a32.49,32.49,0,0,1-20.33,0l-.72-.3c-6-2.68-6-6.94,0-9.59s15.73-2.66,21.72,0S71.75,440.24,65.76,442.91Zm13.61-14.38,3.52-2.18-8.24-4.1-3.32,2c-5.15-2.1-12.26-2.29-12.27-2.29l-.1-3.11H48.36l.1,3.11a45.81,45.81,0,0,0-12,3.16l-4.26-2.28-7.72,4.5L29,429.63A13.23,13.23,0,0,0,24.66,436l-4.49,0v5.84H25a12,12,0,0,0,4.77,6l-3.12,2.33,8.23,4.09,3.27-2a38.34,38.34,0,0,0,12.28,2.44l.11,2.67h10.6L61,454.4a46.36,46.36,0,0,0,11.94-3l3.58,1.88,7.72-4.48-4-1.67a13.39,13.39,0,0,0,4.62-6.7l4.8,0v-5.76H84.49A10,10,0,0,0,79.37,428.53Z"/><path class="cls-26" d="M65.75,442.83a6.72,6.72,0,0,1-.67.28,32.42,32.42,0,0,1-20.31,0c-.25-.09-.48-.19-.72-.3-6-2.67-6-6.94,0-9.58s15.72-2.65,21.7,0S71.74,440.17,65.75,442.83Zm13.6-14.37,3.52-2.18-8.23-4.09-3.32,2c-5.15-2.1-12.25-2.29-12.26-2.29l-.1-3.11H48.36l.11,3.11a45.62,45.62,0,0,0-11.95,3.15l-4.26-2.27-7.72,4.49L29,429.56a13.13,13.13,0,0,0-4.33,6.38l-4.49,0v5.84H25a12,12,0,0,0,4.76,6l-3.11,2.32,8.23,4.1,3.26-2.05a38.59,38.59,0,0,0,12.27,2.43l.12,2.67H61.11L61,454.31a46.29,46.29,0,0,0,11.93-3l3.57,1.89,7.72-4.49-4-1.66a13.37,13.37,0,0,0,4.61-6.7l4.8,0v-5.76l-5.14,0A10,10,0,0,0,79.35,428.46Z"/><path class="cls-27" d="M65.75,442.76c-.22.09-.45.19-.68.27a32.39,32.39,0,0,1-20.3,0l-.71-.29c-6-2.68-6-6.94,0-9.58s15.7-2.65,21.69,0S71.73,440.09,65.75,442.76ZM79.33,428.4l3.52-2.18-8.23-4.09-3.31,2c-5.14-2.09-12.24-2.28-12.25-2.28L59,418.77H48.37l.1,3.11A45.55,45.55,0,0,0,36.53,425l-4.25-2.28-7.72,4.49L29,429.49a13.2,13.2,0,0,0-4.33,6.38l-4.49,0v5.84H25a12,12,0,0,0,4.76,6L26.67,450l8.22,4.09,3.27-2a38.5,38.5,0,0,0,12.26,2.42l.11,2.67H61.11l-.1-2.93a46.11,46.11,0,0,0,11.92-3l3.58,1.88,7.71-4.48-4-1.66a13.34,13.34,0,0,0,4.61-6.69l4.8,0v-5.76l-5.14,0A10,10,0,0,0,79.33,428.4Z"/><path class="cls-28" d="M65.74,442.68c-.22.1-.45.19-.67.27a32.36,32.36,0,0,1-20.29,0c-.24-.09-.48-.18-.71-.29-6-2.67-6-6.93,0-9.57s15.69-2.65,21.67,0S71.72,440,65.74,442.68Zm13.57-14.35,3.52-2.18-8.22-4.08-3.31,2c-5.14-2.1-12.24-2.28-12.25-2.28l-.1-3.11H48.37l.11,3.11A45.94,45.94,0,0,0,36.54,425l-4.25-2.27-7.71,4.49,4.48,2.24a13.22,13.22,0,0,0-4.33,6.37l-4.48,0v5.83H25a12,12,0,0,0,4.76,6l-3.11,2.32L34.91,454l3.26-2a38.17,38.17,0,0,0,12.25,2.43l.11,2.67H61.1L61,454.14a46.13,46.13,0,0,0,11.91-3L76.49,453l7.71-4.48-4-1.66a13.34,13.34,0,0,0,4.61-6.69l4.79,0v-5.75l-5.13,0A10,10,0,0,0,79.31,428.33Z"/><path class="cls-29" d="M65.73,442.6c-.22.1-.44.2-.67.28a31.15,31.15,0,0,1-20.27,0l-.72-.3c-6-2.64-6-6.92,0-9.56s15.69-2.65,21.66,0S71.71,440,65.73,442.6ZM79.3,428.26l3.51-2.17L74.59,422l-3.3,2c-5.14-2.1-12.23-2.29-12.24-2.29l-.1-3.1H48.38l.1,3.1a45.4,45.4,0,0,0-11.92,3.15l-4.25-2.27-7.7,4.48,4.47,2.25a13.16,13.16,0,0,0-4.33,6.36l-4.47,0v5.82h4.79a11.85,11.85,0,0,0,4.75,6l-3.11,2.32,8.21,4.08,3.26-2a38.42,38.42,0,0,0,12.24,2.42l.12,2.67H61.1l-.1-2.94a45.73,45.73,0,0,0,11.91-3l3.57,1.88,7.69-4.47-4-1.66a13.36,13.36,0,0,0,4.61-6.68l4.79,0v-5.75l-5.13,0A10,10,0,0,0,79.3,428.26Z"/></g><path class="cls-30" d="M79.3,428.26l3.51-2.17L74.59,422l-3.3,2c-5.14-2.1-12.23-2.29-12.24-2.29l-.1-3.1H48.38l.1,3.1a45.4,45.4,0,0,0-11.92,3.15l-4.25-2.27-7.7,4.48,4.47,2.25c-2.52,2-4.23,2-4.65,3.6l-4.15,2.8v5.83h4.79a11.87,11.87,0,0,0,4.75,6l-3.11,2.32,8.21,4.08,3.26-2a38.42,38.42,0,0,0,12.24,2.42l.12,2.67H61.1l-.1-2.94a45.73,45.73,0,0,0,11.91-3l3.57,1.88,7.69-4.47-4-1.66a13.36,13.36,0,0,0,4.61-6.68l4.79,0v-5.75l-4.3-3.29C84.23,427.56,80.59,428.79,79.3,428.26ZM65.73,442.6c-.22.1-.44.2-.67.28a31.15,31.15,0,0,1-20.27,0l-.72-.3c-6-2.64-6-6.92,0-9.56s15.69-2.65,21.66,0S71.71,440,65.73,442.6Z"/><polygon class="cls-31" points="24.61 418.48 24.61 424.9 26.14 426.09 32.01 422.29 30.82 418.79 24.61 418.48 24.61 418.48"/><polygon class="cls-32" points="82.78 417.46 82.78 423.89 81.24 425.07 75.38 421.27 76.57 417.77 82.78 417.46 82.78 417.46"/><path class="cls-33" d="M79.3,419.63l3.51-2.17-8.22-4.08-3.3,2c-5.14-2.1-12.23-2.28-12.24-2.28L59,410H48.38l.1,3.11a45,45,0,0,0-11.92,3.14L32.31,414l-7.7,4.48,4.47,2.25a13.16,13.16,0,0,0-4.33,6.36l-4.47,0V433h4.79a11.87,11.87,0,0,0,4.75,6l-3.11,2.32,8.21,4.08,3.26-2a38.42,38.42,0,0,0,12.24,2.42l.12,2.67H61.1l-.1-2.93a46.13,46.13,0,0,0,11.91-3l3.57,1.88,7.69-4.47-4-1.66a13.36,13.36,0,0,0,4.61-6.68l4.79,0v-5.75l-5.13,0A10,10,0,0,0,79.3,419.63ZM65.73,434c-.22.1-.44.2-.67.28a31.15,31.15,0,0,1-20.27,0l-.72-.3c-6-2.63-6-6.92,0-9.56s15.69-2.65,21.66,0S71.71,431.34,65.73,434Z"/><polygon class="cls-34" points="50.54 448.36 50.54 456.99 61.1 456.99 61.1 448.36 50.54 448.36 50.54 448.36"/><polygon class="cls-35" points="89.54 431.46 89.54 440.09 84.75 440.09 84.75 431.48 89.54 431.46 89.54 431.46"/><path class="cls-36" d="M76.48,444.29v8.63s8.09-4.31,7.69-4.47,0-8.63,0-8.63l-7.69,4.47Z"/><polygon class="cls-37" points="34.92 445.31 34.92 453.94 26.71 449.86 26.71 441.23 34.92 445.31 34.92 445.31"/><path class="cls-38" d="M20.28,433s-.14,8.63,0,8.63h4.79V433Z"/><g class="cls-7"><g class="cls-8"><path class="cls-4" d="M94.73,449.91c8.14-3.6,21.36-3.6,29.51,0s8.14,9.44,0,13c-.32.15-.64.28-1,.41-7.87,3.07-19.75,3.07-27.62,0-.31-.11-.61-.24-.91-.38C86.58,459.35,86.58,453.51,94.73,449.91Zm-25.45,1.8-7,0v7.83l6.53,0a18.08,18.08,0,0,0,6.27,9.11l-5.49,2.26L80.09,477,85,474.45a62.84,62.84,0,0,0,16.22,4.1l-.13,4h14.39l.16-3.63a52.27,52.27,0,0,0,16.68-3.31l4.44,2.78,11.19-5.56-4.24-3.16a16.28,16.28,0,0,0,6.48-8.11h6.53v-7.94l-6.1-.05a17.94,17.94,0,0,0-5.9-8.67l6.1-3.06-10.5-6.11-5.79,3.1a61.52,61.52,0,0,0-16.25-4.29l.15-4.23H104l-.14,4.23s-9.67.25-16.67,3.11l-4.51-2.77-11.19,5.56,4.78,3A13.63,13.63,0,0,0,69.28,451.71Z"/></g><path class="cls-9" d="M94.74,449.82c8.13-3.61,21.34-3.61,29.49,0s8.11,9.39,0,13c-.33.15-.64.28-1,.4-7.91,3-19.69,2.93-27.61,0l-.91-.38C86.61,459.2,86.6,453.41,94.74,449.82Zm-25.43,1.79-7,0v7.83l6.52,0a18.21,18.21,0,0,0,6.28,9.11l-5.49,2.25,10.48,6.09L85,474.34a63.17,63.17,0,0,0,16.21,4.1l-.13,4h14.38l.15-3.63a52.12,52.12,0,0,0,16.67-3.3l4.44,2.78,11.18-5.56-4.23-3.16a16.29,16.29,0,0,0,6.47-8.1h6.52v-7.94l-6.09,0a17.92,17.92,0,0,0-5.9-8.66l6.1-3.06-10.49-6.11-5.79,3.1a62.25,62.25,0,0,0-16.23-4.29l.14-4.22H104l-.15,4.22s-9.66.26-16.65,3.11l-4.51-2.77-11.18,5.56,4.78,3A13.6,13.6,0,0,0,69.31,451.61Z"/><path class="cls-10" d="M94.75,449.72c8.13-3.6,21.33-3.6,29.47,0s8.11,9.39,0,13l-1,.4c-7.9,3-19.68,2.92-27.59,0-.3-.11-.61-.24-.91-.37C86.63,459.1,86.61,453.32,94.75,449.72Zm-25.41,1.8-7,0v7.82l6.51,0a18.23,18.23,0,0,0,6.27,9.1l-5.48,2.25,10.47,6.09L85,474.22a62.22,62.22,0,0,0,16.19,4.1l-.13,4h14.38l.15-3.63a52.21,52.21,0,0,0,16.66-3.29l4.43,2.77,11.17-5.55-4.23-3.15a16.3,16.3,0,0,0,6.47-8.11h6.52v-7.93l-6.09-.05a17.94,17.94,0,0,0-5.89-8.65l6.09-3.06-10.49-6.1-5.78,3.09a61.67,61.67,0,0,0-16.22-4.28l.14-4.22H104l-.14,4.22s-9.66.26-16.65,3.11l-4.5-2.77-11.17,5.56,4.77,3A13.62,13.62,0,0,0,69.34,451.52Z"/><path class="cls-11" d="M94.76,449.63c8.12-3.6,21.31-3.6,29.45,0s8.1,9.38,0,13c-.33.15-.64.28-1,.4-7.9,3-19.66,2.93-27.57,0-.3-.12-.61-.24-.91-.38C86.65,459,86.63,453.22,94.76,449.63Zm-25.4,1.79-7,0v7.82l6.51,0a18.21,18.21,0,0,0,6.27,9.09l-5.49,2.25,10.47,6.09L85,474.11a62.84,62.84,0,0,0,16.18,4.1l-.13,4h14.36l.15-3.62a52,52,0,0,0,16.65-3.3l4.43,2.78,11.17-5.55-4.23-3.15a16.21,16.21,0,0,0,6.46-8.1h6.51v-7.92l-6.08-.05a17.87,17.87,0,0,0-5.89-8.65l6.09-3.06-10.48-6.09-5.77,3.09a61.78,61.78,0,0,0-16.22-4.28l.15-4.22H104l-.14,4.22s-9.65.25-16.63,3.1l-4.5-2.76-11.17,5.55,4.78,2.95A13.61,13.61,0,0,0,69.36,451.42Z"/><path class="cls-12" d="M94.77,449.54c8.12-3.6,21.3-3.6,29.43,0s8.09,9.37,0,13l-1,.4c-7.89,3-19.65,2.92-27.55,0-.3-.11-.61-.24-.91-.37C86.66,458.9,86.64,453.12,94.77,449.54Zm-25.38,1.79-7,0v7.81l6.5,0a18.16,18.16,0,0,0,6.26,9.08l-5.48,2.25,10.46,6.08L85,474a62.53,62.53,0,0,0,16.18,4.09l-.13,4h14.35l.15-3.63a52,52,0,0,0,16.63-3.29l4.43,2.77,11.16-5.54-4.23-3.15a16.24,16.24,0,0,0,6.46-8.09h6.51v-7.92l-6.08-.05a17.85,17.85,0,0,0-5.88-8.64l6.08-3.06-10.47-6.09-5.77,3.09a62,62,0,0,0-16.2-4.28l.14-4.21H104l-.14,4.21s-9.65.26-16.63,3.11l-4.49-2.77-11.16,5.55,4.77,3A13.57,13.57,0,0,0,69.39,451.33Z"/><path class="cls-13" d="M94.78,449.44c8.11-3.59,21.28-3.59,29.41,0s8.09,9.36,0,13l-1,.4c-7.89,3-19.63,2.91-27.53,0-.3-.11-.61-.24-.91-.37C86.68,458.8,86.66,453,94.78,449.44Zm-25.36,1.79-7,0V459l6.5,0a18.13,18.13,0,0,0,6.25,9.07l-5.47,2.25,10.45,6.08L85,473.89A62.79,62.79,0,0,0,101.2,478l-.13,4h14.34l.16-3.62a52,52,0,0,0,16.62-3.29l4.42,2.77,11.15-5.54-4.22-3.15a16.19,16.19,0,0,0,6.45-8.08h6.51v-7.92l-6.08-.05a17.89,17.89,0,0,0-5.88-8.64l6.08-3.05-10.46-6.08-5.77,3.08a61.94,61.94,0,0,0-16.19-4.27l.14-4.21H104l-.14,4.21s-9.64.26-16.61,3.1l-4.49-2.76L71.6,440l4.76,3A13.54,13.54,0,0,0,69.42,451.23Z"/><path class="cls-14" d="M94.79,449.35c8.11-3.6,21.27-3.6,29.39,0s8.08,9.35,0,13c-.33.15-.65.28-1,.4-7.88,3-19.62,2.92-27.51,0l-.91-.38C86.7,458.7,86.68,452.93,94.79,449.35Zm-25.34,1.79-7,0v7.8l6.5,0A18.22,18.22,0,0,0,75.24,468l-5.47,2.24,10.44,6.07,4.85-2.55a62.31,62.31,0,0,0,16.15,4.09l-.13,4h14.33l.15-3.62a51.85,51.85,0,0,0,16.61-3.29l4.42,2.77,11.14-5.54L143.51,469a16.23,16.23,0,0,0,6.46-8.08h6.49V453l-6.07-.05a17.93,17.93,0,0,0-5.87-8.64l6.07-3.05-10.46-6.08-5.76,3.09A61.4,61.4,0,0,0,118.2,434l.14-4.21H104l-.15,4.21s-9.62.25-16.59,3.09l-4.49-2.75-11.15,5.53,4.77,3A13.54,13.54,0,0,0,69.45,451.14Z"/><path class="cls-15" d="M94.8,449.25c8.1-3.59,21.25-3.59,29.36,0s8.09,9.35,0,13l-1,.4c-7.87,3-19.6,2.91-27.49,0-.3-.11-.61-.24-.91-.37C86.71,458.6,86.69,452.83,94.8,449.25ZM69.48,451l-7,0v7.79l6.49,0a18.17,18.17,0,0,0,6.24,9.06l-5.46,2.24,10.44,6.07,4.84-2.55a62.56,62.56,0,0,0,16.13,4.09l-.13,4H115.4l.16-3.61a52,52,0,0,0,16.59-3.29l4.42,2.77,11.13-5.54-4.21-3.14a16.24,16.24,0,0,0,6.45-8.07h6.49v-7.9l-6.07-.05a17.91,17.91,0,0,0-5.87-8.63l6.07-3-10.45-6.08-5.76,3.08A61.71,61.71,0,0,0,118.19,434l.14-4.2H104l-.14,4.2s-9.62.26-16.59,3.1l-4.49-2.76-11.13,5.54,4.76,2.95A13.51,13.51,0,0,0,69.48,451Z"/><path class="cls-16" d="M94.81,449.16c8.1-3.59,21.24-3.59,29.34,0s8.08,9.34,0,12.95c-.32.15-.64.28-1,.4-7.87,3-19.59,2.91-27.47,0-.3-.12-.61-.24-.91-.38C86.73,458.5,86.71,452.73,94.81,449.16Zm-25.3,1.78-7,0v7.79l6.49,0a18,18,0,0,0,6.24,9.06L69.83,470l10.43,6.06,4.83-2.55a62.25,62.25,0,0,0,16.13,4.08l-.13,4H115.4l.15-3.61a52.09,52.09,0,0,0,16.59-3.28l4.41,2.76,11.13-5.53-4.22-3.14a16.26,16.26,0,0,0,6.45-8.06h6.48v-7.9l-6.06,0a17.86,17.86,0,0,0-5.86-8.62l6.06-3-10.44-6.07-5.76,3.07a61.53,61.53,0,0,0-16.15-4.26l.15-4.2H104l-.14,4.2s-9.61.25-16.57,3.09l-4.49-2.75-11.12,5.53,4.76,2.95A13.51,13.51,0,0,0,69.51,450.94Z"/><path class="cls-17" d="M94.83,449.06c8.08-3.58,21.21-3.58,29.31,0s8.07,9.34,0,12.95l-1,.4c-7.86,3-19.57,2.91-27.45,0-.3-.11-.61-.24-.9-.37C86.75,458.4,86.73,452.64,94.83,449.06Zm-25.29,1.79-6.94,0v7.78l6.48,0a18.08,18.08,0,0,0,6.23,9.05l-5.45,2.25L80.28,476l4.83-2.54a62.48,62.48,0,0,0,16.12,4.08l-.13,4h14.3l.15-3.61a52,52,0,0,0,16.57-3.29l4.41,2.77,11.12-5.53-4.21-3.14a16.15,16.15,0,0,0,6.44-8.06h6.48v-7.89l-6.06,0a17.81,17.81,0,0,0-5.86-8.62l6.06-3L140.07,435l-5.75,3.08a61.56,61.56,0,0,0-16.14-4.26l.14-4.2H104l-.14,4.2s-9.61.25-16.57,3.09l-4.48-2.75-11.11,5.52,4.75,3A13.5,13.5,0,0,0,69.54,450.85Z"/><path class="cls-18" d="M94.84,449c8.08-3.58,21.2-3.58,29.29,0s8.07,9.33,0,12.94l-1,.39c-7.86,3-19.56,2.91-27.43,0-.3-.11-.61-.24-.9-.37C86.76,458.3,86.74,452.54,94.84,449Zm-25.27,1.78-6.94,0v7.78l6.48,0a18,18,0,0,0,6.23,9l-5.45,2.25,10.41,6.05,4.83-2.54a62.32,62.32,0,0,0,16.1,4.07l-.13,4h14.29l.15-3.61a51.73,51.73,0,0,0,16.57-3.28l4.4,2.76,11.11-5.52-4.2-3.13a16.21,16.21,0,0,0,6.43-8.06h6.48v-7.88l-6.06,0a17.88,17.88,0,0,0-5.85-8.61l6.05-3-10.42-6.06L134.3,438a61.88,61.88,0,0,0-16.13-4.26l.14-4.19H104l-.14,4.19s-9.6.26-16.55,3.09L82.84,434l-11.11,5.52,4.75,2.95A13.5,13.5,0,0,0,69.57,450.75Z"/><path class="cls-19" d="M94.85,448.87c8.07-3.57,21.18-3.57,29.27,0s8.06,9.33,0,12.93c-.32.15-.64.28-1,.4-7.85,3-19.55,2.9-27.41,0l-.9-.38C86.78,458.19,86.76,452.44,94.85,448.87ZM69.6,450.66l-6.94,0v7.77l6.48,0a18.08,18.08,0,0,0,6.22,9l-5.45,2.24,10.41,6,4.83-2.54a62.25,62.25,0,0,0,16.09,4.08l-.13,4h14.28l.15-3.6a52.14,52.14,0,0,0,16.55-3.28l4.4,2.76,11.1-5.52-4.2-3.13a16.19,16.19,0,0,0,6.43-8.05h6.47v-7.88l-6-.05a17.79,17.79,0,0,0-5.85-8.6l6.05-3L140,434.8l-5.74,3.07a61.69,61.69,0,0,0-16.12-4.25l.15-4.19H104l-.14,4.19s-9.6.25-16.54,3.09L82.86,434l-11.1,5.52,4.75,2.94A13.47,13.47,0,0,0,69.6,450.66Z"/><path class="cls-20" d="M94.86,448.78c8.07-3.58,21.17-3.58,29.25,0s8,9.32,0,12.92l-1,.4c-7.85,3-19.53,2.89-27.39,0-.3-.11-.61-.24-.9-.37C86.8,458.09,86.78,452.34,94.86,448.78Zm-25.23,1.78-6.93,0v7.76l6.47,0a18.05,18.05,0,0,0,6.22,9l-5.45,2.24,10.4,6,4.82-2.54a62.27,62.27,0,0,0,16.08,4.07l-.13,4h14.27l.15-3.6a51.77,51.77,0,0,0,16.54-3.27l4.4,2.75,11.1-5.51-4.2-3.13a16.2,16.2,0,0,0,6.42-8h6.47v-7.88l-6-.05a17.81,17.81,0,0,0-5.84-8.59l6-3-10.41-6-5.74,3.07a61.26,61.26,0,0,0-16.1-4.25l.14-4.19H104l-.14,4.19s-9.59.25-16.53,3.08l-4.47-2.74-11.09,5.51,4.74,2.94A13.46,13.46,0,0,0,69.63,450.56Z"/><path class="cls-21" d="M94.87,448.69c8.06-3.58,21.15-3.58,29.23,0s8.05,9.31,0,12.9c-.32.15-.64.28-1,.4-7.84,3-19.52,2.9-27.37,0-.3-.12-.61-.24-.9-.38C86.81,458,86.79,452.25,94.87,448.69Zm-25.21,1.78-6.93,0v7.76l6.47,0a18,18,0,0,0,6.21,9L70,469.49l10.39,6L85.18,473a61.79,61.79,0,0,0,16.07,4.06l-.13,4h14.26l.15-3.6a51.55,51.55,0,0,0,16.53-3.27l4.39,2.76,11.09-5.51-4.2-3.13a16.11,16.11,0,0,0,6.42-8h6.46v-7.86l-6-.05a17.69,17.69,0,0,0-5.84-8.59l6-3L140,434.63l-5.74,3.07a61.47,61.47,0,0,0-16.09-4.25l.14-4.18H104l-.14,4.18s-9.58.26-16.51,3.09l-4.47-2.75L71.82,439.3l4.74,2.94A13.46,13.46,0,0,0,69.66,450.47Z"/><path class="cls-22" d="M94.88,448.59c8.06-3.57,21.14-3.57,29.21,0s8,9.31,0,12.9l-1,.4c-7.84,3-19.5,2.89-27.35,0-.3-.11-.61-.24-.9-.37C86.83,457.89,86.81,452.15,94.88,448.59Zm-25.2,1.78-6.91,0v7.75l6.46,0a18,18,0,0,0,6.21,9L70,469.38l10.38,6,4.82-2.53a62.42,62.42,0,0,0,16.06,4.06l-.13,4h14.24l.16-3.6A51.68,51.68,0,0,0,132,474l4.39,2.75,11.08-5.5-4.19-3.13a16.16,16.16,0,0,0,6.41-8h6.46v-7.86l-6-.05a17.72,17.72,0,0,0-5.84-8.58l6-3L140,434.55l-5.73,3.06a62,62,0,0,0-16.09-4.24l.15-4.18H104l-.14,4.18s-9.58.25-16.51,3.08l-4.46-2.74-11.08,5.5,4.74,2.94A13.5,13.5,0,0,0,69.68,450.37Z"/><path class="cls-23" d="M94.89,448.5c8-3.57,21.12-3.57,29.19,0s8,9.3,0,12.89q-.48.21-1,.39c-7.83,3-19.49,2.89-27.33,0-.3-.11-.61-.24-.9-.37C86.84,457.79,86.83,452.05,94.89,448.5Zm-25.18,1.77-6.91,0V458l6.46,0a17.94,17.94,0,0,0,6.2,9L70,469.27l10.38,6,4.81-2.54a61.46,61.46,0,0,0,16,4.06l-.13,4h14.24l.15-3.6a51.65,51.65,0,0,0,16.5-3.26l4.39,2.75,11.07-5.5L143.29,468a16.1,16.1,0,0,0,6.41-8h6.46v-7.86l-6-.05a17.69,17.69,0,0,0-5.83-8.57l6-3-10.39-6-5.72,3.06a61,61,0,0,0-16.07-4.24l.14-4.18H104l-.14,4.18s-9.57.25-16.49,3.07l-4.46-2.74-11.07,5.51,4.73,2.93A13.5,13.5,0,0,0,69.71,450.27Z"/><path class="cls-24" d="M94.9,448.4c8-3.56,21.11-3.56,29.17,0s8,9.3,0,12.88c-.32.15-.64.28-1,.4-7.82,3-19.47,2.89-27.31,0-.3-.11-.61-.24-.9-.37C86.86,457.69,86.84,452,94.9,448.4Zm-25.16,1.78-6.91,0v7.74l6.45,0a18,18,0,0,0,6.21,9l-5.43,2.23,10.37,6,4.8-2.53a62,62,0,0,0,16,4.06l-.13,4h14.22l.16-3.59A51.59,51.59,0,0,0,132,473.8l4.39,2.75,11-5.5-4.18-3.12a16.13,16.13,0,0,0,6.4-8h6.45v-7.85l-6,0a17.71,17.71,0,0,0-5.83-8.58l6-3-10.38-6-5.72,3.06a61.73,61.73,0,0,0-16.06-4.24l.14-4.17H104l-.14,4.17s-9.56.26-16.48,3.08L83,433.54,71.9,439,76.63,442A13.43,13.43,0,0,0,69.74,450.18Z"/><path class="cls-25" d="M94.91,448.31c8-3.57,21.09-3.57,29.15,0s8,9.28,0,12.87l-1,.4c-7.82,2.95-19.46,2.88-27.29,0-.3-.11-.61-.24-.9-.37C86.88,457.59,86.86,451.86,94.91,448.31Zm-25.14,1.77-6.9,0v7.74l6.44,0a18.07,18.07,0,0,0,6.2,9l-5.42,2.23,10.36,6,4.8-2.53a61.81,61.81,0,0,0,16,4l-.13,4h14.22l.15-3.59A51.57,51.57,0,0,0,132,473.69l4.39,2.75,11.05-5.5-4.19-3.12a16,16,0,0,0,6.4-8h6.45V452l-6-.05a17.7,17.7,0,0,0-5.82-8.57l6-3-10.37-6-5.72,3.06a60.91,60.91,0,0,0-16-4.24l.14-4.17H104l-.14,4.17s-9.55.25-16.47,3.07L83,433.46l-11,5.49,4.72,2.93A13.46,13.46,0,0,0,69.77,450.08Z"/><path class="cls-26" d="M94.92,448.21c8-3.56,21.08-3.56,29.13,0s8,9.28,0,12.87q-.48.21-1,.39c-7.81,2.95-19.44,2.88-27.27,0-.3-.12-.61-.24-.9-.37C86.89,457.49,86.88,451.76,94.92,448.21ZM69.8,450l-6.9,0v7.74l6.44,0a17.94,17.94,0,0,0,6.2,9l-5.42,2.23,10.35,6,4.8-2.53a62.14,62.14,0,0,0,16,4.05l-.13,3.94h14.21l.15-3.58A51.42,51.42,0,0,0,132,473.58l4.39,2.74,11-5.49-4.18-3.11a16.07,16.07,0,0,0,6.39-8h6.44v-7.84l-6-.05a17.68,17.68,0,0,0-5.82-8.56l6-3-10.36-6-5.72,3.06a61.11,61.11,0,0,0-16-4.23l.14-4.17H104L103.9,433s-9.54.25-16.45,3.07L83,433.37l-11,5.49,4.73,2.93A13.43,13.43,0,0,0,69.8,450Z"/><path class="cls-27" d="M94.93,448.12c8-3.56,21.07-3.56,29.11,0s8,9.27,0,12.85l-1,.4c-7.81,2.95-19.43,2.88-27.25,0-.3-.11-.61-.24-.9-.37C86.91,457.39,86.89,451.67,94.93,448.12Zm-25.1,1.77-6.89,0v7.72l6.43,0a18,18,0,0,0,6.19,9l-5.42,2.23,10.35,6,4.8-2.52a61.55,61.55,0,0,0,16,4l-.13,3.95h14.19l.15-3.59A51.48,51.48,0,0,0,132,473.46l4.38,2.75,11-5.49-4.18-3.11a16.05,16.05,0,0,0,6.39-8H156v-7.84l-6,0a17.7,17.7,0,0,0-5.81-8.55l6-3-10.36-6-5.7,3.05a61.61,61.61,0,0,0-16-4.23l.14-4.16h-14.2l-.14,4.16s-9.54.26-16.44,3.07L83,433.29l-11,5.49,4.72,2.92A13.46,13.46,0,0,0,69.83,449.89Z"/><path class="cls-28" d="M94.94,448c8-3.56,21-3.56,29.09,0s8,9.26,0,12.84l-1,.39c-7.8,2.95-19.42,2.88-27.23,0-.3-.11-.61-.24-.9-.37C86.93,457.28,86.91,451.57,94.94,448ZM69.86,449.8l-6.89,0v7.72l6.43,0a17.93,17.93,0,0,0,6.19,9l-5.42,2.23,10.34,6,4.8-2.53a61.91,61.91,0,0,0,16,4.05l-.13,3.94h14.19l.15-3.58a51.62,51.62,0,0,0,16.44-3.26l4.38,2.74,11-5.48-4.17-3.11a16.08,16.08,0,0,0,6.38-8H156v-7.82l-6-.05a17.66,17.66,0,0,0-5.81-8.55l6-3-10.35-6-5.7,3.05a61.07,61.07,0,0,0-16-4.23l.14-4.16h-14.2l-.14,4.16s-9.53.25-16.43,3.07L83,433.21l-11,5.48,4.71,2.92A13.42,13.42,0,0,0,69.86,449.8Z"/><path class="cls-29" d="M95,447.93c8-3.55,21-3.55,29.07,0s8,9.29,0,12.83c-.32.15-.64.28-1,.4-7.76,3-19.46,3-27.21,0a7.74,7.74,0,0,1-.9-.37C86.93,457.22,86.93,451.47,95,447.93ZM69.89,449.7l-6.89,0v7.71l6.43,0a18,18,0,0,0,6.18,9l-5.41,2.22,10.33,6,4.79-2.53a61.5,61.5,0,0,0,16,4l-.13,3.94h14.17l.15-3.58a51.25,51.25,0,0,0,16.43-3.25L136.3,476l11-5.48-4.18-3.11a16,16,0,0,0,6.39-8H156v-7.82l-6-.05a17.72,17.72,0,0,0-5.8-8.54l6-3-10.34-6L134.1,437a61,61,0,0,0-16-4.22l.14-4.16H104.05l-.13,4.16s-9.53.25-16.42,3.06l-4.44-2.73L72,438.6l4.71,2.92A13.39,13.39,0,0,0,69.89,449.7Z"/></g><path class="cls-39" d="M68.77,445.27,63,449.68v7.71l6.43,0a18,18,0,0,0,6.18,9l-5.41,2.22,10.33,6,4.79-2.53a61.5,61.5,0,0,0,16,4l-.13,3.94h14.17l.15-3.58a51.25,51.25,0,0,0,16.43-3.25L136.3,476l11-5.48-4.18-3.11a16,16,0,0,0,6.39-8H156v-7.82l-5.57-3.76c-.56-2.15-2.87-2.11-6.24-4.83l6-3-10.34-6L134.1,437a61,61,0,0,0-16-4.22l.14-4.16H104.05l-.13,4.16s-9.53.25-16.42,3.06l-4.44-2.73L72,438.6l4.71,2.92C75,442.23,70.13,440.58,68.77,445.27ZM95,447.93c8-3.55,21-3.55,29.07,0s8,9.29,0,12.83c-.32.15-.64.28-1,.4-7.76,3-19.46,3-27.21,0a7.74,7.74,0,0,1-.9-.37C86.93,457.22,86.93,451.47,95,447.93Z"/><polygon class="cls-39" points="150.14 428.4 150.14 437.02 148.08 438.61 140.21 433.5 141.81 428.81 150.14 428.4 150.14 428.4"/><polygon class="cls-40" points="72.08 427.03 72.08 435.65 74.13 437.24 82.01 432.14 80.41 427.44 72.08 427.03 72.08 427.03"/><path class="cls-41" d="M69.89,438.12l-6.89,0v7.71l6.43,0a18,18,0,0,0,6.18,9L70.2,457l10.33,6,4.79-2.52a61.5,61.5,0,0,0,16,4l-.13,3.94h14.17l.15-3.58a51.25,51.25,0,0,0,16.43-3.25l4.38,2.74,11-5.48-4.18-3.11a16.09,16.09,0,0,0,6.39-8H156V440l-6-.05a17.72,17.72,0,0,0-5.8-8.54l6-3-10.34-6-5.7,3.05a61,61,0,0,0-16-4.22l.14-4.16H104.05l-.13,4.16s-9.53.25-16.42,3.06l-4.44-2.73L72,427l4.71,2.92A13.39,13.39,0,0,0,69.89,438.12ZM95,436.35c8-3.55,21-3.55,29.07,0s8,9.29,0,12.83c-.32.15-.64.28-1,.4-7.76,3-19.46,3-27.21,0a7.74,7.74,0,0,1-.9-.37C86.93,445.64,86.93,439.89,95,436.35Z"/><polygon class="cls-40" points="115.34 468.49 115.34 480.07 101.17 480.07 101.17 468.49 115.34 468.49 115.34 468.49"/><polygon class="cls-40" points="63 445.81 63 457.39 69.43 457.39 69.43 445.83 63 445.81 63 445.81"/><path class="cls-40" d="M80.53,463v11.59s-10.87-5.79-10.33-6,0-11.58,0-11.58l10.33,6Z"/><polygon class="cls-40" points="136.3 464.4 136.3 475.98 147.31 470.5 147.31 458.92 136.3 464.4 136.3 464.4"/><path class="cls-39" d="M156,447.82s.18,11.58,0,11.58h-6.42V447.82Z"/><path class="cls-3" d="M133.51,184.89a54.74,54.74,0,0,1,3.42-15.76l.32-.82-6.9-7.72,15-8h0c5.45-3.88,13.74-2.45,18.47,4.59L179,179.73c5.15,7.64,3.07,17.83-4.33,21.17l-6.39,2.9a8.36,8.36,0,0,0-4.71,7.51l-.28,7.39a22.55,22.55,0,0,0,3.64,13l17.2,25.66L201.44,283a20.77,20.77,0,0,0,10.44,8l6.72,2.19a8.2,8.2,0,0,0,1.37.24l-.91-1.7L235,282.93l0,.07c5.53-2.85,12.83-.9,17,5.35l15.19,22.59c5.09,7.57,3,17-3.31,20.66h0l-.1.06-.22.11-17.92,9.56-4.25-7.91a49.31,49.31,0,0,1-9.22-1.7l-16.56-4.79c-14.28-4.13-27.15-13.79-36.1-27.09l-10.74-16-13.58-20.2-10.75-16a72.18,72.18,0,0,1-12.25-44.79Z"/><path class="cls-5" d="M123.41,167.67l-4.15,10.88a54.81,54.81,0,0,0-3.42,15.76l-1.23,18a72.06,72.06,0,0,0,12.25,44.8l10.74,16,13.59,20.2,10.74,16c8.94,13.3,21.82,23,36.09,27.08l16.57,4.79A47.28,47.28,0,0,0,229.86,343l11.15-.48c10.14-.43,14.92-12.78,8.59-22.19l-15.18-22.58c-5.15-7.65-15-9-20.45-2.79l-4.72,5.37a7.7,7.7,0,0,1-8.32,2.16l-6.72-2.19a20.62,20.62,0,0,1-10.44-7.95l-17.28-25.59L149.3,241.12a22.45,22.45,0,0,1-3.65-13l.28-7.39a8.39,8.39,0,0,1,4.72-7.52l6.39-2.89c7.39-3.35,9.47-13.53,4.33-21.18l-15.19-22.59C139.85,157.16,127.19,157.77,123.41,167.67Z"/><path class="cls-42" d="M198.58,75.75l91.08,50.49a13.37,13.37,0,0,1,6.13,10.66v59.54c0,4-2.75,5.75-6.13,3.87l-42.6-23.66a2.39,2.39,0,0,0-2.85,0L222,184.07c-1.16,1.05-3.35-.16-4.51-2.49l-.13-19.84a7.52,7.52,0,0,0-2.85-3.19l-16-8.73a13.35,13.35,0,0,1-6.13-10.66V79.62C192.45,75.61,195.19,73.88,198.58,75.75Z"/><path class="cls-42" d="M293.16,200.94l-5.87,2.84L286,198.89l4.43-2.74a27.27,27.27,0,0,1,2.7.88C293.21,197.16,293.16,200.94,293.16,200.94Z"/><polygon class="cls-42" points="194.29 75.45 187.87 78.5 191.94 88.24 201.99 85.62 194.29 75.45"/><path class="cls-43" d="M192.21,78.77l91.08,50.49a13.37,13.37,0,0,1,6.13,10.66v59.54c0,4-2.75,5.75-6.13,3.87l-42.6-23.66a2.39,2.39,0,0,0-2.85,0l-22.18,7.39c-1.16,1-3.35-.16-4.51-2.49L211,164.76a7.52,7.52,0,0,0-2.85-3.19l-16-8.73a13.36,13.36,0,0,1-6.14-10.66V82.64C186.07,78.63,188.82,76.9,192.21,78.77Z"/><polygon class="cls-4" points="200.99 132.31 230.67 149.41 230.67 146.32 200.99 129.22 200.99 132.31"/><polygon class="cls-4" points="234.32 151.53 274.5 174.66 274.5 171.58 234.32 148.44 234.32 151.53"/><polygon class="cls-4" points="200.99 139.26 221.58 151.09 221.58 148 200.99 136.18 200.99 139.26"/><polygon class="cls-4" points="236.95 160 274.5 181.62 274.5 178.53 236.95 156.92 236.95 160"/><polygon class="cls-4" points="223.12 151.98 234.52 158.59 234.52 155.5 223.12 148.89 223.12 151.98"/><polygon class="cls-4" points="200.99 125.41 221.58 137.23 221.58 134.15 200.99 122.32 200.99 125.41"/><polygon class="cls-4" points="236.95 146.14 274.5 167.76 274.5 164.67 236.95 143.06 236.95 146.14"/><polygon class="cls-4" points="223.12 138.12 234.52 144.73 234.52 141.65 223.12 135.04 223.12 138.12"/><polygon class="cls-4" points="200.99 104.58 274.5 146.93 274.5 143.84 200.99 101.49 200.99 104.58"/><polygon class="cls-4" points="200.99 111.53 224.15 124.84 224.15 121.75 200.99 108.44 200.99 111.53"/><polygon class="cls-4" points="229.14 127.73 274.5 153.88 274.5 150.8 229.14 124.65 229.14 127.73"/><polygon class="cls-4" points="200.99 118.48 274.5 160.84 274.5 157.75 200.99 115.4 200.99 118.48"/><path class="cls-44" d="M707.08,280.52c-36.51-19.85-95.7-19.85-132.21,0s-36.5,52,0,71.85,95.7,19.84,132.21,0S743.58,300.36,707.08,280.52Z"/><g class="cls-45"><g id="_4" data-name="4"><path class="cls-46" d="M519.5,395.34c5-21.46,37.35-94.08,37.35-94.08s3.16-59,6.82-80.71c1.58-9.35,3.06-29.8,10.51-35.66,31.63-24.9,50.69,18.82,52.92,27.18,10.58,39.64-51.51,172-75.67,196.63C540.1,420.26,516.77,407.2,519.5,395.34Z"/><path class="cls-47" d="M616.36,173.57c-15.91-8.52-37.85,5.51-45.32,23-4.38,10.26-12.7,68.92-14.14,76.83a32.34,32.34,0,0,0,6,25.09c3.43,4.51,8,8,11.64,12.34,10.7,12.66,5,94.39,3.12,102-6.07,24.57,46.56,30,69.29,44,23.61,14.57,66.6,22.42,66.6,22.42,19.39-29.15,10.6-108.58,9.63-133.43C721,290.4,700.45,227,692.05,220.77,679.65,211.54,635.3,183.7,616.36,173.57Z"/><path class="cls-48" d="M647.24,165.73c-8.21,8.11-31.13,8-38.93,23.26-4.44,8.71-3.1,15.24,2.83,26.7l.79,10.74,9.11-8.06c25-.27,41.79-17.43,35.16-20.48C649.84,195,645.69,185.42,647.24,165.73Z"/><path class="cls-48" d="M571.15,132.83s.42,7.89,5.67,20.92c0,0-3.77,5.88,4.85,23.55,3.78,7.68,15.76,26.72,26.71,21.14,0,0,46-16.92,36.79-31.43,0,0,21.89-10.82,14.53-25.33-7.36-14.28-29-47.65-41.24-50.37S568.41,98.35,571.15,132.83Z"/><path class="cls-49" d="M577.11,116.76s28.52,35.53,56.91,31.62c3.15-.42,6.73-14.73,13.8-5.81,7.41,9.37,3.24,22.23-2.65,24.44,0,0,1.09,25.94,6.69,28.33,29.08,12.39,49.56,43,49.56,43,6.4-33.09-3.52-53-33.75-58-3.25-.55-1.46-7.48-.85-11.58,2.18-14.57,3.29-39.39,2.95-47.94-.89-22.36-31.69-51.18-72.27-36.69-11,3.79-29.92,17-26.56,39.54Z"/><path class="cls-41" d="M666.82,168.78l-20.77,6.55L647.81,187s14.39-1.06,19.86-6.62Z"/><path class="cls-48" d="M523.8,396.79c3.38-7.23,26.08,3,23.1,9-1.24,2.49-7.09,7.66-.53,16.24,2.16,2.82,7.93,6.36,4,7.12-11.61,2.29-11.48-10.1-16.41-8.79-2,.54-8.73,10.34-9.11,14.07-.3,2.78,1.34,10.61,1,13.4-.49,4.67-10.37,12.94-11.71,9.75-1.22,4.81-7.95,4.89-8.23-.05-2.3,1.4-5.53.17-5.82-4.23-.18-3,.05-22.23,0-26.8C500.07,418.85,519.5,406,523.8,396.79Z"/><polygon class="cls-50" points="559.3 248.85 576.19 263.39 577.66 242.18 561.8 227.49 559.3 248.85"/><polygon class="cls-44" points="567.96 231.39 572.62 235.32 572.17 238.39 567.55 234.4 567.96 231.39"/><path class="cls-51" d="M641.48,151.59c-4-15.37-4.67-29.39-6.83-42.44-1.13-6.41-2.35-12.52-4.84-17.46-2.31-5-6.88-9-14.6-12a20.09,20.09,0,0,1,12.23-2.26,23,23,0,0,1,12.29,6.08c6.79,6.56,9.65,15.09,11,23a67.73,67.73,0,0,1-.59,23.46C648.55,137.56,646.09,144.93,641.48,151.59Z"/><path class="cls-52" d="M656.3,158.83c0,12-6.36,21.76-14.2,21.76s-14.2-9.75-14.2-21.76,6.36-21.75,14.2-21.75S656.3,146.82,656.3,158.83Z"/><path class="cls-53" d="M659.86,158.83c0,9.82-5.34,17.77-11.93,17.77S636,168.65,636,158.83s5.35-17.76,11.94-17.76S659.86,149,659.86,158.83Z"/><path class="cls-44" d="M623.61,199.71H607.76a3,3,0,0,1,0-5.94h15.85a2.42,2.42,0,0,0,2-1.08l20.73-31.21a3,3,0,1,1,4.95,3.28L630.58,196A8.36,8.36,0,0,1,623.61,199.71Z"/><path class="cls-54" d="M614.72,202.68h-8.44a5.94,5.94,0,1,1,0-11.87h8.44a5.94,5.94,0,1,1,0,11.87Z"/></g><path class="cls-55" d="M629.63,443.58C638.1,420.81,672,354.1,672,354.1s-10.8-53.25-14.78-77.58c-1.51-9.28-5.75-28.4-1.57-36.82,8.95-18.07,35.87-17.44,46.25,0,19.55,32.75,17.23,115.44,14.94,121.23-7.52,19.18-47,86.07-55.54,98.89C652.39,473.14,625.42,454.89,629.63,443.58Z"/><path class="cls-48" d="M604.55,473.21c1.61-11,23.75-12,28.46-25.14,3.56-9.92,25.22,4.94,22.08,10.85-1,2.23-.36,5.13-2,7S641,476.72,639.48,481.07c-.38,1.1,1,15-2,19.1-2.24,3.08-3.59,1.44-6.72,2.06-2.56.51-9.53,4.74-11.71,4.24-1.09-.27-1.83-1.28-2.85-1.75-4.37-2-6.67-1.56-9.16-6.48C605.1,494.44,604,477,604.55,473.21Z"/></g><path class="cls-56" d="M736.72,29.42,854.83,94.89c4.39,2.44,7.95,8.63,7.95,13.83v77.22c0,5.2-3.56,7.44-7.95,5l-55.24-30.68c-1.43-.79-2.79-.78-3.69,0l-28.77,9.59c-1.51,1.36-4.34-.21-5.85-3.24l-.17-25.72a9.63,9.63,0,0,0-3.69-4.13l-20.7-11.33c-4.4-2.43-8-8.62-8-13.82V34.43C728.76,29.23,732.32,27,736.72,29.42Z"/><path class="cls-56" d="M859.37,191.77l-7.61,3.68-1.64-6.34,5.76-3.56a33.8,33.8,0,0,1,3.49,1.15C859.44,186.86,859.37,191.77,859.37,191.77Z"/><polygon class="cls-56" points="731.15 29.03 722.83 32.98 728.1 45.61 741.14 42.22 731.15 29.03"/><path class="cls-57" d="M728.45,33.34,846.57,98.81c4.39,2.43,7.95,8.62,7.95,13.82v77.22c0,5.2-3.56,7.45-7.95,5l-55.24-30.67c-1.43-.8-2.79-.79-3.69,0l-28.77,9.59c-1.51,1.36-4.34-.21-5.84-3.24l-.18-25.73a9.75,9.75,0,0,0-3.69-4.13l-20.71-11.32c-4.39-2.43-8-8.62-8-13.82V38.35C720.5,33.15,724.06,30.9,728.45,33.34Z"/><polygon class="cls-4" points="739.84 102.76 778.34 124.94 778.34 120.94 739.84 98.76 739.84 102.76"/><polygon class="cls-4" points="783.08 127.68 835.18 157.69 835.18 153.69 783.08 123.68 783.08 127.68"/><polygon class="cls-4" points="739.84 111.78 766.55 127.12 766.55 123.11 739.84 107.78 739.84 111.78"/><polygon class="cls-4" points="786.48 138.67 835.18 166.71 835.18 162.71 786.48 134.68 786.48 138.67"/><polygon class="cls-4" points="768.54 128.27 783.32 136.85 783.32 132.84 768.54 124.27 768.54 128.27"/><polygon class="cls-4" points="739.84 93.81 766.55 109.14 766.55 105.15 739.84 89.81 739.84 93.81"/><polygon class="cls-4" points="786.48 120.71 835.18 148.74 835.18 144.74 786.48 116.7 786.48 120.71"/><polygon class="cls-4" points="768.54 110.3 783.32 118.87 783.32 114.87 768.54 106.3 768.54 110.3"/><polygon class="cls-4" points="739.84 66.8 835.18 121.72 835.18 117.72 739.84 62.79 739.84 66.8"/><polygon class="cls-4" points="739.84 75.82 769.87 93.07 769.87 89.07 739.84 71.81 739.84 75.82"/><polygon class="cls-4" points="776.35 96.83 835.18 130.74 835.18 126.74 776.35 92.83 776.35 96.83"/><polygon class="cls-4" points="739.84 84.84 835.18 139.76 835.18 135.76 739.84 80.83 739.84 84.84"/><path class="cls-3" d="M707.08,352.37c-36.51,19.84-95.7,19.84-132.21,0-16.94-9.21-26-21.07-27.22-33.12-1.41,13.92,7.66,28.1,27.22,38.73,36.51,19.84,95.7,19.84,132.21,0,19.57-10.63,28.63-24.81,27.22-38.73C733.08,331.3,724,343.16,707.08,352.37Z"/><path class="cls-48" d="M462,308.68c-1,1.94-2.33,3.5-1.4,3.86s3.85-1.17,4.14-.87c1.41,1.41-3.63,3.37-5.81,3.37C456.15,315,450,333,450,333l-6.86-2.81s8.79-14.06,9.67-18a8.81,8.81,0,0,1,3.81-5.35c.61-.41,3.79,1.53,4.49-1.3.6-2.43,1.63-4.17,2-4.05C463.9,301.75,463,306.73,462,308.68Z"/><path class="cls-58" d="M415.62,338.58c.19,5.27,5.52,5.85,12.91,5.05,6.23-.69,14.81-2.32,21.81-8.65,2.75-2.49-4.8-8.42-6.95-7.82a84.2,84.2,0,0,1-14.49,3.31C420.08,331.62,415.45,333.91,415.62,338.58Z"/><path class="cls-59" d="M419,466.5c-.91.89-2.06,5.81-1.25,6.71a4.58,4.58,0,0,0,1.79,1.09c5.45,2.08,13.83-5.18,15.22-6.38s2.57-3.55,1.87-5.08C436.08,461.59,420.22,465.34,419,466.5Z"/><path class="cls-60" d="M426.94,462.15a46.85,46.85,0,0,0-8.25,4.61c-1,.94-1.72,4.1-.91,5a7.09,7.09,0,0,0,2.38,1.23c2.65.88,10-2.51,13.58-5.7,1.27-1.11,3.4-3.7,2.69-5.22C435.86,460.81,430.79,460.65,426.94,462.15Z"/><path class="cls-61" d="M425.15,468.89a.91.91,0,0,0-.76,1,.79.79,0,1,0,1.53,0A.91.91,0,0,0,425.15,468.89Z"/><path class="cls-62" d="M419,467.1s-1.42,1.35-1,4.87a3,3,0,0,0,2.37,1.15s-.12-3.57.64-4.65l.39-.73-1.53-2Z"/><path class="cls-48" d="M419.53,464.37a24.91,24.91,0,0,1-.56,2.73,1.47,1.47,0,0,1,1.5-.08,1.31,1.31,0,0,1,.54,1.45,7.5,7.5,0,0,0,3.94-.67c3.37-1.43,4-3.37,3.65-4.07C427.61,461.55,420.48,464.54,419.53,464.37Z"/><path class="cls-63" d="M416.37,421.83c-.56,1.25-1.66,7-1.05,13.7S417.73,464,417.73,464c6.71,2.59,10.25-.7,10.25-.7s2.38-30.6,2.61-40S417.87,418.44,416.37,421.83Z"/><path class="cls-63" d="M430.14,375.26c-5-4.33-9.92-3.62-11.53-2.4-6.65,5-6.6,17-6.27,21,.31,3.62,2.74,23.62,3.75,29.39,1.49,8.58,14.39,9.19,14.39,2.79C430.48,419.82,439.1,383.05,430.14,375.26Z"/><path class="cls-64" d="M433.75,473.72c-.91.89-2.06,5.81-1.25,6.71a4.7,4.7,0,0,0,1.79,1.09c5.45,2.08,13.83-5.18,15.22-6.39s2.57-3.54,1.87-5.07C450.8,468.81,434.94,472.56,433.75,473.72Z"/><path class="cls-60" d="M441.66,469.37a47.22,47.22,0,0,0-8.25,4.61c-1,.94-1.72,4.1-.91,5a7.09,7.09,0,0,0,2.38,1.23c2.65.88,9.95-2.51,13.58-5.7,1.27-1.11,3.4-3.7,2.69-5.23C450.58,468,445.51,467.87,441.66,469.37Z"/><path class="cls-65" d="M439.87,476.11a1,1,0,1,0,.77,1A.9.9,0,0,0,439.87,476.11Z"/><path class="cls-66" d="M433.69,474.32s-1.42,1.35-1,4.87a3,3,0,0,0,2.37,1.15s-.12-3.56.63-4.66l.39-.71-1.52-2Z"/><path class="cls-48" d="M434.25,471.59a24.91,24.91,0,0,1-.56,2.73,1.45,1.45,0,0,1,1.49-.08,1.27,1.27,0,0,1,.54,1.44,7.41,7.41,0,0,0,3.95-.66c3.37-1.43,4-3.37,3.65-4.07C442.33,468.77,435.2,471.76,434.25,471.59Z"/><path class="cls-63" d="M430,428.57c-.55,1.25-.94,8.07-.34,14.74s2.5,29.6,2.5,29.6c6.72,2.59,10.22-2.45,10.22-2.45s2.32-30,2.55-39.44S431.5,425.18,430,428.57Z"/><path class="cls-63" d="M443.41,380.54c-5.09-4.19-11.21-.71-12.82.51-6.66,5-5.62,11.68-5.29,15.63.31,3.62,4.12,28.57,5.12,34.34,1.49,8.59,14.4,9.2,14.4,2.79C444.82,427.61,450.29,386.2,443.41,380.54Z"/><path class="cls-67" d="M446.29,346.75c0-11.08-17.15-15.4-22.36-15.4-10.55,0-11,13.43-9.56,23.24s-2.72,32.27-2.72,32.27c7.75,9,35.68,2.88,35.68,2.88C444.62,378.11,446.29,356.47,446.29,346.75Z"/><path class="cls-48" d="M441.1,315.66c-.11-1.29-1.62-.35-2.59-1.22a6.52,6.52,0,0,0-3.8-1.35,4.44,4.44,0,0,0-5.23,2.59c-3.06,5.47-1.62,9.85-2.51,15.63a43.32,43.32,0,0,0,8.66,2.93c.32.05-2.07-2.93-1.44-5.52,2.46.72,4-2.48,6.29-6.26.68-1.12.29-2.93,0-3.77C440,317.48,441.21,317,441.1,315.66Z"/><path class="cls-49" d="M436,308.83c.11-3.37-6.91-3.49-6.18.4-3.25-.48-7.73,2.3-5.93,6.69-1.75,3.43,1.62,6.86,2.52,8.92.2.46.89,2.21.89,2.21s4.43,1.18,6.17,0c2-1.35,2.74-3.73,3.21-6,.76-3.7,3-1.88,3-5.12,1.4-.65,2,1.33,2,1.33C444.9,311.06,439.54,306.8,436,308.83Z"/><path class="cls-68" d="M435.39,331.31c-4.19-2.14-5.93-2.48-7.9-2.59a1.75,1.75,0,0,0-1.55.79l-1.18,1.8,12.87,4.11A4.94,4.94,0,0,0,435.39,331.31Z"/><path class="cls-48" d="M463.57,381.34c-1.86-1.13-2.72-1-2.11-1.85s2.63-2.21,2.61-2.63c0-.85-2.32,0-3.91,1.2-.74.56-2.8.33-3.37.12-4.4-1.65-16.17-11.23-16.17-11.23l-4.37,6s16.82,8.87,19.63,11.73c1.07,1.1,3.22,4.13,3.86,3.77s3.76-1.42,4.25-2-1.32-4.45.49-2c1.47,2,4,3.29,3.63,2.53C467.46,385.8,465.43,382.47,463.57,381.34Z"/><path class="cls-69" d="M440.21,338.6c-5.13-1.26-7.14,3.71-8.39,11-1.05,6.18-1.83,14.88,2.34,23.34,1.65,3.34,9.42-2.31,9.43-4.54a83.23,83.23,0,0,1,.78-14.84C445.68,344.8,444.74,339.72,440.21,338.6Z"/><path class="cls-70" d="M471.42,5.3l6.77-3.08A22.1,22.1,0,0,1,482.33.7c20.07-6,60.63,26.61,58.6,74.05a25.05,25.05,0,0,1-4.64,13.36l1.22,8.9,2.6,18.88L518.58,96.07c-40.67-7.78-61.73-57.23-49.11-83.82Z"/><path class="cls-71" d="M474.34,4.48c20.07-6,60.63,26.6,58.6,74a25.09,25.09,0,0,1-4.65,13.37l1.23,8.9,2.6,18.88L510.58,99.84C466.87,91.48,445.79,35,464.86,10.45A16.51,16.51,0,0,1,474.34,4.48Z"/><polygon class="cls-70" points="540.11 115.89 532.12 119.67 528.29 91.89 536.29 88.11 540.11 115.89"/><path class="cls-4" d="M477.85,22.18l-1.27,3.33a16.6,16.6,0,0,0-1.05,4.83l-.38,5.52a22.12,22.12,0,0,0,3.75,13.72l3.29,4.9,4.17,6.19,3.29,4.89a20.27,20.27,0,0,0,11.06,8.3l5.07,1.47a14.74,14.74,0,0,0,4.68.58l3.42-.15c3.11-.13,4.57-3.92,2.63-6.8L511.86,62c-1.58-2.34-4.59-2.75-6.27-.85l-1.44,1.64a2.36,2.36,0,0,1-2.55.66l-2.06-.67a6.35,6.35,0,0,1-3.2-2.43l-5.29-7.85-5.27-7.86a6.93,6.93,0,0,1-1.12-4l.09-2.26a2.59,2.59,0,0,1,1.44-2.31l2-.88c2.27-1,2.9-4.15,1.33-6.49l-4.66-6.92C482.89,19,479,19.14,477.85,22.18Z"/><polygon class="cls-40" points="621.7 519.76 631.07 514.59 656.19 603.64 644.97 609.55 621.7 519.76"/><path class="cls-40" d="M620.47,564.42c-6.2-26.66,1.87-48.12,13-50.71s27.85,13.11,34,39.76-1.87,48.12-13,50.71S626.67,591.07,620.47,564.42Z"/><polygon class="cls-72" points="660.87 535.11 650.52 542.21 716.26 601.17 755.04 636.05 766.46 627.68 741.61 581.27 660.87 535.11"/><path class="cls-3" d="M739,627.36l-80.31-37.12,2.19-55.13L739,569.06c18.57,8.57,33.63,28.56,33.63,44.65h0C772.62,629.81,757.56,635.93,739,627.36Z"/><path class="cls-5" d="M727.25,636l-80.31-37.12V540.55l80.31,37.13c18.58,8.56,33.63,28.55,33.63,44.65h0C760.88,638.43,745.83,644.54,727.25,636Z"/><path class="cls-41" d="M609.48,570.24c-6.2-26.66,1.87-48.12,13-50.71s27.84,13.1,34,39.76-1.86,48.12-13,50.71S615.68,596.89,609.48,570.24Z"/><path class="cls-4" d="M637.1,544.57l1.84,1.87a11.68,11.68,0,0,1,2.08,2.89l1.79,3.5a13.78,13.78,0,0,1,1,9.81l-1.05,4-1.33,5-1.05,4a13.84,13.84,0,0,1-5.77,8l-3.29,2.15a12,12,0,0,1-3.24,1.48l-2.52.71a3.08,3.08,0,0,1-3.78-3.8l1.48-5.6a3.11,3.11,0,0,1,4.33-2l1.5.73a2,2,0,0,0,2-.17l1.32-.92a4.26,4.26,0,0,0,1.65-2.34l1.7-6.35,1.68-6.36a4.33,4.33,0,0,0-.28-2.86l-.68-1.45a2,2,0,0,0-1.69-1.15l-1.66-.12a3.09,3.09,0,0,1-2.74-3.91l1.48-5.6A3.08,3.08,0,0,1,637.1,544.57Z"/><path class="cls-49" d="M681.31,588.92l5.66,4.23a6.12,6.12,0,0,1-1.79,3.18,4.58,4.58,0,0,1-3,1.06,12,12,0,0,1-4.62-1.25,21,21,0,0,1-5.57-3.47,17.09,17.09,0,0,1-3.73-5.14,15.92,15.92,0,0,1-1.56-7.08c0-3.46.91-5.71,2.75-6.74s4.44-.81,7.81.68a17.56,17.56,0,0,1,6.21,4.36,16.89,16.89,0,0,1,3.36,6.41l-5.71-1.28a7.87,7.87,0,0,0-.63-1.68,7,7,0,0,0-1.32-1.72,6.24,6.24,0,0,0-1.75-1.19c-1.47-.64-2.59-.55-3.37.28-.59.6-.88,1.84-.88,3.71a10.37,10.37,0,0,0,1,5.23,6.4,6.4,0,0,0,3,2.62c1.24.55,2.18.62,2.81.2A3.78,3.78,0,0,0,681.31,588.92Z"/><path class="cls-49" d="M703,603.66l-7.34-3.26-1,3-6.6-2.93,7.86-17.4,7,3.14,7.85,24.39-6.76-3Zm-1.34-5.11L699.31,590,697,596.5Z"/><path class="cls-49" d="M712.81,590.6l6.47,2.88v15.75l10.07,4.49v5.14l-16.54-7.36Z"/><path class="cls-49" d="M732.29,599.27l6.46,2.88V617.9l10.07,4.49v5.14l-16.53-7.36Z"/><path class="cls-73" d="M268.34,559.09c18.36-9.68,48.23-9.66,66.51,0,10.79,5.73,15.18,13.57,13.15,21-1.36-5.11-5.75-10.05-13.15-14-18.28-9.67-48.15-9.7-66.51,0a26.51,26.51,0,0,0-13.09,16.1C253.18,574.72,257.4,564.84,268.34,559.09Z"/><path class="cls-74" d="M262.18,594.45c13.48,11.86,42.08,15.75,63.76,8.67s28.35-22.48,14.87-34.34-42.08-15.75-63.76-8.67S248.7,582.6,262.18,594.45Z"/><path class="cls-3" d="M302.44,607.29c-15.94,0-31.65-4.42-40.68-12.36h0c-5.63-4.95-8.08-10.86-6.89-16.63,1.63-7.91,9.64-14.76,22-18.79,21.88-7.14,50.75-3.19,64.38,8.8,5.63,5,8.08,10.85,6.89,16.62-1.63,7.92-9.64,14.77-22,18.8A77.2,77.2,0,0,1,302.44,607.29Zm-1.83-50.09a76.3,76.3,0,0,0-23.36,3.51c-11.9,3.89-19.6,10.39-21.14,17.85-1.1,5.38,1.14,10.71,6.49,15.42h0c13.33,11.73,41.66,15.56,63.15,8.54,11.89-3.88,19.59-10.39,21.13-17.84,1.11-5.38-1.14-10.72-6.48-15.42C331.58,561.51,316.22,557.2,300.61,557.2Z"/><path class="cls-3" d="M352.93,579.41l0,7.34c0,4.18-1.37,9-2.74,11.2-1.56,2.52-3.52,4.75-8.34,8.38l-1.09-7.79S351.68,585.78,352.93,579.41Z"/><path class="cls-3" d="M264.9,597.68a64.05,64.05,0,0,0,21.94,7.84,85.13,85.13,0,0,0,23.64.74,77,77,0,0,0,13.26-2.6c2.23-.65,4.41-1.37,10.5-3.76l.28,3.37L361.11,618l0,7-26.88-14.91c-10.49,5.16-25.91,6.53-33.91,6.53a77.94,77.94,0,0,1-23.4-3.68,57,57,0,0,1-12-5.38c-10-6-15-13.94-15-21.86l0-5.53S254.93,591.65,264.9,597.68Z"/><path class="cls-5" d="M341.54,599a21.78,21.78,0,0,0,11.38-19.45V579a15,15,0,0,0-.14-2,4.63,4.63,0,0,0-.09-.7c-.07-.44-.19-.91-.28-1.37-.05-.14-.33-1.17-.47-1.54-.05-.19-.12-.35-.19-.54s-.25-.65-.39-1-.19-.42-.28-.6-.23-.49-.38-.75-.81-1.45-.93-1.63-.35-.54-.53-.8c0,0-2.08-2.63-2.24-2.84-.38-.37-.75-.77-1.15-1.17a17.05,17.05,0,0,0-1.3-1.23,38.49,38.49,0,0,0-4.06-3.08c-.49-.35-1-.68-1.56-1-.3-.18-.61-.34-.91-.53-20-11.64-52.75-11.64-72.92,0l-1,.56c-.61.37-1.19.74-1.75,1.12l-.86.58c-.56.4-1.08.82-1.61,1.21a33,33,0,0,0-2.82,2.47c-.45.45-.87.87-1.26,1.31s-.75.86-1.12,1.31a24.44,24.44,0,0,0-1.89,2.7,18.93,18.93,0,0,0-2.92,10.47c.21,7.44,5.18,14.83,15,20.5,17.68,10.26,42.58,13,69.37,2.72l32.51,18L374,617Zm-5.71-36.24a5.82,5.82,0,0,0,.51.3c.47.31.91.59,1.38.91a29.58,29.58,0,0,1,3.54,2.71,14.4,14.4,0,0,1,1.1,1c.3.3.58.6.86.9s1.63,2,2,2.48a3.82,3.82,0,0,1,.33.49c.11.21.58,1,.74,1.3s.19.37.28.52.14.34.21.48.21.52.31.77.09.26.14.38c.09.28.3,1,.32,1.14a5.55,5.55,0,0,1,.21,1,2.86,2.86,0,0,1,.07.28.69.69,0,0,0,0,.26c0,.42.07.84.07,1.3v.45c-.07,4.45-2.55,8.88-7.16,12.8-1,.88-7.95,5.57-12.43,7.13a83.27,83.27,0,0,1-27.1,4.78c-12.89,0-24.92-2.84-33.83-8-7.86-4.55-12.29-10.35-12.45-16.32a13.81,13.81,0,0,1,2.24-7.79,18.94,18.94,0,0,1,1.44-2.05c.3-.38.63-.75,1-1.12s.7-.75,1-1.07A31.63,31.63,0,0,1,263,565.6c.44-.35.91-.7,1.4-1.05,0,0,.56-.37.7-.49.53-.35,1.09-.69,1.61-1l.86-.51c9-5.2,21.08-8.07,34-8.07s24.93,2.87,33.81,8Z"/><path class="cls-5" d="M359.72,612.68c2-2.27,5.63-5.38,8.86-3.73l55.64,30.5A3.93,3.93,0,0,0,423,639a6.74,6.74,0,0,0-4.81,1.32,15.56,15.56,0,0,0-3.75,3.67,16.73,16.73,0,0,0-3.5,10c.07,2.51,1,4.26,2.44,5.05l-55.49-30.42c-1.45-.8-2.38-2.54-2.45-5.05a11.73,11.73,0,0,1,.1-1.78A17.8,17.8,0,0,1,359.72,612.68Z"/><path class="cls-3" d="M418.57,640.14c4.33-2.64,8-.68,8.09,4.35s-3.27,11.29-7.59,13.93-7.95.69-8.09-4.36S414.23,642.79,418.57,640.14Z"/><path class="cls-40" d="M318.12,543.43l0,0-6.28,3.87-2.08-3.18a20.16,20.16,0,0,1-4.57-1.95c-9.58-5.5-17.27-18.31-17.2-28.6a17.5,17.5,0,0,1,.21-2.48L286,507.76l5.8-3.54a8.05,8.05,0,0,1,1.59-1l.05,0h0c3.14-1.42,7.37-1,12,1.69,9.57,5.5,17.28,18.31,17.21,28.6C322.68,538.33,320.93,541.72,318.12,543.43Z"/><path class="cls-40" d="M281.71,565.59a22.33,22.33,0,0,1,2.16-9.71l-.8-2.27,6.13-3.79.75-.44c4.08-2.16,9.36-2.09,15.14,1.24C318,558,328.35,578.5,328.24,592.31l-6.73,4.18-15-13.91,3-1Z"/><path class="cls-41" d="M298.78,509.09c9.57,5.51,17.27,18.32,17.2,28.61s-7.91,14.18-17.5,8.67-17.28-18.31-17.21-28.6S289.19,503.6,298.78,509.09Z"/><path class="cls-41" d="M298.35,554.79c12.87,7.37,23.26,27.89,23.16,41.7L275,569.77C275.08,556,285.51,547.4,298.35,554.79Z"/></g></g></g></svg>