<svg xmlns="http://www.w3.org/2000/svg" xmlns:xlink="http://www.w3.org/1999/xlink" viewBox="0 0 1462.16 1344.19"><defs><style>.cls-1{fill:#efeff4;}.cls-2{fill:#c4c6d0;}.cls-3{fill:#62699d;}.cls-11,.cls-12,.cls-13,.cls-4{fill:#fff;}.cls-5{fill:none;}.cls-6{fill:url(#_ÂÁ_Ï_ÌÌ_È_ËÂÌÚ_725);}.cls-7{fill:#e4e4e8;}.cls-8{fill:#f6f6fe;}.cls-9{fill:url(#_ÂÁ_Ï_ÌÌ_È_ËÂÌÚ_164);}.cls-10{fill:#ffd55d;}.cls-11{opacity:0.6;}.cls-12{opacity:0.4;}.cls-13{opacity:0.2;}.cls-14{fill:url(#_ÂÁ_Ï_ÌÌ_È_ËÂÌÚ_200);}.cls-15{fill:url(#_ÂÁ_Ï_ÌÌ_È_ËÂÌÚ_200-2);}.cls-16{fill:url(#_ÂÁ_Ï_ÌÌ_È_ËÂÌÚ_200-3);}.cls-17{fill:url(#_ÂÁ_Ï_ÌÌ_È_ËÂÌÚ_200-4);}.cls-18{fill:url(#_ÂÁ_Ï_ÌÌ_È_ËÂÌÚ_200-5);}.cls-19{fill:url(#_ÂÁ_Ï_ÌÌ_È_ËÂÌÚ_200-6);}.cls-20{fill:#ff7343;}.cls-21{opacity:0.28;}.cls-22{fill:url(#_ÂÁ_Ï_ÌÌ_È_ËÂÌÚ_200-7);}.cls-23{fill:url(#_ÂÁ_Ï_ÌÌ_È_ËÂÌÚ_200-8);}.cls-24{fill:url(#_ÂÁ_Ï_ÌÌ_È_ËÂÌÚ_200-9);}.cls-25{fill:url(#_ÂÁ_Ï_ÌÌ_È_ËÂÌÚ_200-10);}.cls-26{fill:#0a339a;}.cls-27{opacity:0.43;}.cls-28{fill:url(#_ÂÁ_Ï_ÌÌ_È_ËÂÌÚ_200-11);}.cls-29{fill:url(#_ÂÁ_Ï_ÌÌ_È_ËÂÌÚ_38);}.cls-30{fill:url(#_ÂÁ_Ï_ÌÌ_È_ËÂÌÚ_38-2);}.cls-31{fill:#ffb06d;}.cls-32{fill:url(#_ÂÁ_Ï_ÌÌ_È_ËÂÌÚ_200-12);}.cls-33{fill:url(#_ÂÁ_Ï_ÌÌ_È_ËÂÌÚ_200-13);}.cls-34{fill:#5469fa;}.cls-35{fill:url(#_ÂÁ_Ï_ÌÌ_È_ËÂÌÚ_200-14);}.cls-36{fill:url(#_ÂÁ_Ï_ÌÌ_È_ËÂÌÚ_200-15);}.cls-37{fill:url(#_ÂÁ_Ï_ÌÌ_È_ËÂÌÚ_725-2);}.cls-38{fill:url(#_ÂÁ_Ï_ÌÌ_È_ËÂÌÚ_725-3);}.cls-39{fill:url(#_ÂÁ_Ï_ÌÌ_È_ËÂÌÚ_725-4);}.cls-40{opacity:0.39;}.cls-41{fill:#5ae86b;}.cls-42{fill:#313445;}.cls-43{fill:#ffc2c1;}.cls-44{fill:url(#linear-gradient);}.cls-45{fill:#0c1540;}.cls-46{fill:#1d2035;}.cls-47{fill:url(#linear-gradient-2);}.cls-48{fill:#f4b8b8;}.cls-49{fill:#fed6d6;}.cls-50{fill:url(#linear-gradient-3);}.cls-51{fill:url(#_ÂÁ_Ï_ÌÌ_È_ËÂÌÚ_725-5);}.cls-52{fill:url(#_ÂÁ_Ï_ÌÌ_È_ËÂÌÚ_725-6);}.cls-53{fill:url(#_ÂÁ_Ï_ÌÌ_È_ËÂÌÚ_200-16);}.cls-54{fill:url(#_ÂÁ_Ï_ÌÌ_È_ËÂÌÚ_200-17);}.cls-55{fill:url(#_ÂÁ_Ï_ÌÌ_È_ËÂÌÚ_200-18);}.cls-56{fill:url(#_ÂÁ_Ï_ÌÌ_È_ËÂÌÚ_200-19);}.cls-57{fill:url(#linear-gradient-4);}.cls-58{fill:#282b43;}.cls-59{fill:#12225b;}.cls-60{fill:url(#linear-gradient-5);}.cls-61{fill:url(#linear-gradient-6);}</style><linearGradient id="_ÂÁ_Ï_ÌÌ_È_ËÂÌÚ_725" x1="463.77" y1="741.39" x2="742.94" y2="741.39" gradientUnits="userSpaceOnUse"><stop offset="0" stop-color="#fff"/><stop offset="0.26" stop-color="#f1f2fb"/><stop offset="0.74" stop-color="#cccff0"/><stop offset="1" stop-color="#b6bae9"/></linearGradient><linearGradient id="_ÂÁ_Ï_ÌÌ_È_ËÂÌÚ_164" x1="433.37" y1="750.04" x2="730.17" y2="111.24" gradientUnits="userSpaceOnUse"><stop offset="0" stop-color="#5469fa"/><stop offset="0.12" stop-color="#4959e3"/><stop offset="0.41" stop-color="#3238b4"/><stop offset="0.66" stop-color="#211f92"/><stop offset="0.86" stop-color="#17107d"/><stop offset="1" stop-color="#130b75"/></linearGradient><linearGradient id="_ÂÁ_Ï_ÌÌ_È_ËÂÌÚ_200" x1="342.18" y1="371.47" x2="530.7" y2="371.47" gradientUnits="userSpaceOnUse"><stop offset="0" stop-color="#cfd3f9"/><stop offset="1" stop-color="#b6bae9"/></linearGradient><linearGradient id="_ÂÁ_Ï_ÌÌ_È_ËÂÌÚ_200-2" x1="540.1" y1="308.03" x2="546.48" y2="308.03" xlink:href="#_ÂÁ_Ï_ÌÌ_È_ËÂÌÚ_200"/><linearGradient id="_ÂÁ_Ï_ÌÌ_È_ËÂÌÚ_200-3" x1="567.3" y1="505.62" x2="599.91" y2="505.62" xlink:href="#_ÂÁ_Ï_ÌÌ_È_ËÂÌÚ_200"/><linearGradient id="_ÂÁ_Ï_ÌÌ_È_ËÂÌÚ_200-4" x1="567.3" y1="509.64" x2="625.04" y2="509.64" xlink:href="#_ÂÁ_Ï_ÌÌ_È_ËÂÌÚ_200"/><linearGradient id="_ÂÁ_Ï_ÌÌ_È_ËÂÌÚ_200-5" x1="567.3" y1="525.17" x2="611.39" y2="525.17" xlink:href="#_ÂÁ_Ï_ÌÌ_È_ËÂÌÚ_200"/><linearGradient id="_ÂÁ_Ï_ÌÌ_È_ËÂÌÚ_200-6" x1="567.3" y1="542.98" x2="590.09" y2="542.98" xlink:href="#_ÂÁ_Ï_ÌÌ_È_ËÂÌÚ_200"/><linearGradient id="_ÂÁ_Ï_ÌÌ_È_ËÂÌÚ_200-7" x1="411.19" y1="514.28" x2="447.52" y2="514.28" xlink:href="#_ÂÁ_Ï_ÌÌ_È_ËÂÌÚ_200"/><linearGradient id="_ÂÁ_Ï_ÌÌ_È_ËÂÌÚ_200-8" x1="366.07" y1="590.63" x2="397.25" y2="590.63" xlink:href="#_ÂÁ_Ï_ÌÌ_È_ËÂÌÚ_200"/><linearGradient id="_ÂÁ_Ï_ÌÌ_È_ËÂÌÚ_200-9" x1="454.91" y1="537.87" x2="486.09" y2="537.87" xlink:href="#_ÂÁ_Ï_ÌÌ_È_ËÂÌÚ_200"/><linearGradient id="_ÂÁ_Ï_ÌÌ_È_ËÂÌÚ_200-10" x1="413.15" y1="561.77" x2="444.33" y2="561.77" xlink:href="#_ÂÁ_Ï_ÌÌ_È_ËÂÌÚ_200"/><linearGradient id="_ÂÁ_Ï_ÌÌ_È_ËÂÌÚ_200-11" x1="617.34" y1="558.98" x2="657.72" y2="558.98" xlink:href="#_ÂÁ_Ï_ÌÌ_È_ËÂÌÚ_200"/><linearGradient id="_ÂÁ_Ï_ÌÌ_È_ËÂÌÚ_38" x1="983.68" y1="290.86" x2="983.68" y2="272.89" gradientUnits="userSpaceOnUse"><stop offset="0" stop-color="#5469fa"/><stop offset="1" stop-color="#130b75"/></linearGradient><linearGradient id="_ÂÁ_Ï_ÌÌ_È_ËÂÌÚ_38-2" x1="749.91" y1="570.7" x2="749.91" y2="383.62" xlink:href="#_ÂÁ_Ï_ÌÌ_È_ËÂÌÚ_38"/><linearGradient id="_ÂÁ_Ï_ÌÌ_È_ËÂÌÚ_200-12" x1="696.93" y1="486.9" x2="802.9" y2="486.9" xlink:href="#_ÂÁ_Ï_ÌÌ_È_ËÂÌÚ_200"/><linearGradient id="_ÂÁ_Ï_ÌÌ_È_ËÂÌÚ_200-13" x1="697.95" y1="527.62" x2="724.31" y2="527.62" xlink:href="#_ÂÁ_Ï_ÌÌ_È_ËÂÌÚ_200"/><linearGradient id="_ÂÁ_Ï_ÌÌ_È_ËÂÌÚ_200-14" x1="697.95" y1="537.61" x2="724.31" y2="537.61" xlink:href="#_ÂÁ_Ï_ÌÌ_È_ËÂÌÚ_200"/><linearGradient id="_ÂÁ_Ï_ÌÌ_È_ËÂÌÚ_200-15" x1="697.95" y1="547.59" x2="724.31" y2="547.59" xlink:href="#_ÂÁ_Ï_ÌÌ_È_ËÂÌÚ_200"/><linearGradient id="_ÂÁ_Ï_ÌÌ_È_ËÂÌÚ_725-2" x1="604.06" y1="457.73" x2="609.59" y2="457.73" xlink:href="#_ÂÁ_Ï_ÌÌ_È_ËÂÌÚ_725"/><linearGradient id="_ÂÁ_Ï_ÌÌ_È_ËÂÌÚ_725-3" x1="620.48" y1="448.07" x2="626.3" y2="448.07" xlink:href="#_ÂÁ_Ï_ÌÌ_È_ËÂÌÚ_725"/><linearGradient id="_ÂÁ_Ï_ÌÌ_È_ËÂÌÚ_725-4" x1="612.08" y1="452.63" x2="618.78" y2="452.63" xlink:href="#_ÂÁ_Ï_ÌÌ_È_ËÂÌÚ_725"/><linearGradient id="linear-gradient" x1="1356.36" y1="513.49" x2="1396.8" y2="513.49" gradientUnits="userSpaceOnUse"><stop offset="0" stop-color="#144188"/><stop offset="1" stop-color="#1a7cde"/></linearGradient><linearGradient id="linear-gradient-2" x1="1400.68" y1="480.7" x2="1400.68" y2="615.94" xlink:href="#linear-gradient"/><linearGradient id="linear-gradient-3" x1="1408.46" y1="556.35" x2="1452.44" y2="556.35" xlink:href="#linear-gradient"/><linearGradient id="_ÂÁ_Ï_ÌÌ_È_ËÂÌÚ_725-5" x1="1278.4" y1="604.39" x2="1318.53" y2="604.39" xlink:href="#_ÂÁ_Ï_ÌÌ_È_ËÂÌÚ_725"/><linearGradient id="_ÂÁ_Ï_ÌÌ_È_ËÂÌÚ_725-6" x1="1228.81" y1="588.93" x2="1418.47" y2="588.93" xlink:href="#_ÂÁ_Ï_ÌÌ_È_ËÂÌÚ_725"/><linearGradient id="_ÂÁ_Ï_ÌÌ_È_ËÂÌÚ_200-16" x1="1228.63" y1="616.05" x2="1418.47" y2="616.05" xlink:href="#_ÂÁ_Ï_ÌÌ_È_ËÂÌÚ_200"/><linearGradient id="_ÂÁ_Ï_ÌÌ_È_ËÂÌÚ_200-17" x1="1240.12" y1="593.84" x2="1384.08" y2="593.84" xlink:href="#_ÂÁ_Ï_ÌÌ_È_ËÂÌÚ_200"/><linearGradient id="_ÂÁ_Ï_ÌÌ_È_ËÂÌÚ_200-18" x1="1243.64" y1="594.72" x2="1381.23" y2="594.72" xlink:href="#_ÂÁ_Ï_ÌÌ_È_ËÂÌÚ_200"/><linearGradient id="_ÂÁ_Ï_ÌÌ_È_ËÂÌÚ_200-19" x1="1231.52" y1="564.07" x2="1347.65" y2="564.07" xlink:href="#_ÂÁ_Ï_ÌÌ_È_ËÂÌÚ_200"/><linearGradient id="linear-gradient-4" x1="1022.83" y1="831.45" x2="1099.83" y2="831.45" xlink:href="#linear-gradient"/><linearGradient id="linear-gradient-5" x1="949.95" y1="826.65" x2="1076.29" y2="826.65" xlink:href="#linear-gradient"/><linearGradient id="linear-gradient-6" x1="815.74" y1="732.92" x2="985.83" y2="732.92" xlink:href="#linear-gradient"/></defs><g id="Layer_2" data-name="Layer 2"><g id="Layer_1-2" data-name="Layer 1"><path class="cls-1" d="M994.44,614.61,779.66,495.41c-19.41-11.2-49-12.43-65.87-2.72l-523,302c-16.81,9.71-14.69,26.82,4.73,38L410.25,951.89c19.41,11.21,49.05,12.43,65.86,2.73l523.06-302C1016,642.93,1013.85,625.82,994.44,614.61Z"/><path class="cls-2" d="M999.14,652.65l-523,302c-16.84,9.71-46.46,8.48-65.87-2.7L195.44,832.69c-10.57-6.08-16-14-16-21.51,0,0,.06,381.75.06,381.87-.37,7.68,5,15.92,16,22.25l214.74,119.63c19.41,11.19,49,12.42,65.87,2.71l523-302c7.5-4.31,11.19-10.08,11.37-16.16V636.86C1010.2,642.76,1006.45,648.41,999.14,652.65Z"/><path class="cls-3" d="M999.14,823.29l-523,302c-16.84,9.7-46.46,8.48-65.87-2.77L179.46,994.05v11.09l230.78,128.49c19.41,11.18,49,12.41,65.87,2.7l523-301.95c7.62-4.36,11.31-10.26,11.37-16.4V807.44C1010.27,813.4,1006.52,819.06,999.14,823.29Z"/><path class="cls-4" d="M999.14,819.76l-523,302c-16.84,9.71-46.46,8.48-65.87-2.77L179.46,990.52v11.09l230.78,128.48c19.41,11.19,49,12.42,65.87,2.71l523-301.95c7.62-4.36,11.31-10.26,11.37-16.41V803.91C1010.27,809.87,1006.52,815.52,999.14,819.76Z"/><path class="cls-3" d="M999.14,782.59l-523,302c-16.84,9.71-46.46,8.49-65.87-2.76L179.46,953.34v11.09l230.78,128.49c19.41,11.18,49,12.41,65.87,2.7l523-301.95c7.62-4.36,11.31-10.26,11.37-16.4V766.73C1010.27,772.69,1006.52,778.35,999.14,782.59Z"/><path class="cls-4" d="M999.14,779.05l-523,302c-16.84,9.71-46.46,8.48-65.87-2.77L179.46,949.81V960.9l230.78,128.48c19.41,11.19,49,12.42,65.87,2.71l523-301.95c7.62-4.37,11.31-10.26,11.37-16.41V763.2C1010.27,769.16,1006.52,774.81,999.14,779.05Z"/><path class="cls-5" d="M17.14,886.4l396.85,227a64.66,64.66,0,0,0,65-.46l694.18-410.22c22.47-13.28,22.24-45.87-.41-58.84L943.8,91C923.62,79.49,116.6,371.92,96.58,383.75L16.72,827.56C-5.76,840.85-5.53,873.44,17.14,886.4Z"/><polygon class="cls-6" points="463.77 722.43 607.01 806.58 742.94 728.25 544.55 676.19 463.77 722.43"/><path class="cls-7" d="M674.33,628.22V611.78L539,690.82v16.51A80.77,80.77,0,0,0,575.7,775L607,795.19l136-78.35-31.56-20.36A81.36,81.36,0,0,1,674.33,628.22Z"/><polygon class="cls-8" points="606.88 795.06 607.03 806.58 742.94 728.25 742.78 716.72 606.88 795.06"/><path class="cls-7" d="M820.45,46.59,301.52,343c-9.54,5.45-17.34,18.71-17.31,29.64L285,798.06c0,5.44,2,9.27,5.1,11.06l17.26,9.93c-3.13-1.81-5.08-5.63-5.1-11.07l-.8-425.47c0-10.93,7.76-24.19,17.3-29.64L837.71,56.51c4.86-2.77,9.27-3,12.44-1.21l-17.26-9.92C829.72,43.56,825.31,43.82,820.45,46.59Z"/><path class="cls-8" d="M837.71,56.51,318.78,352.87c-9.54,5.45-17.33,18.71-17.3,29.64l.8,425.47c0,10.92,7.88,15.35,17.42,9.9L838.63,521.52C848.25,516,856,502.68,856,491.75l-.8-425.46C855.18,55.36,847.33,51,837.71,56.51Z"/><path class="cls-9" d="M328.4,369.73c-3.52,2-7.53,8.79-7.52,12.74l.78,411.95L829,504.67c3.57-2,7.62-8.88,7.6-12.88l-.78-411.86Z"/><path class="cls-2" d="M905.75,107.74l83.14-49.37V0L905.75,49.37Zm4-56.74L984.88,6.39V56.74l-75.12,44.61Z"/><polygon class="cls-2" points="961.13 30.76 974.66 36.25 977.5 31.73 963.97 26.24 961.13 30.76"/><polygon class="cls-2" points="961.13 41.45 963.97 42.6 977.5 21.04 974.66 19.89 961.13 41.45"/><polygon class="cls-8" points="883.9 250.62 750.17 330.03 750.17 332.32 886.2 251.54 886.2 83.7 947.96 47.02 947.96 44.73 883.9 82.77 883.9 250.62"/><polygon class="cls-10" points="679.1 375.12 652.09 391.15 652.09 459.33 730.18 412.96 730.18 361.2 688.57 385.91 679.1 375.12"/><path class="cls-4" d="M724.61,326.72c-6.55,3.88-11.87,12.37-11.87,18.92s5.32,8.72,11.87,4.83,11.88-12.38,11.88-18.93S731.16,322.83,724.61,326.72Zm0,21.58c-5.35,3.18-9.71,1.41-9.71-3.94s4.36-12.3,9.71-15.48,9.71-1.41,9.71,3.94S730,345.12,724.61,348.3Z"/><polygon class="cls-4" points="719.19 345.7 720.72 346.32 730.03 331.48 728.5 330.86 719.19 345.7"/><polygon class="cls-4" points="719.19 337.92 728.5 341.7 730.03 339.26 720.72 335.48 719.19 337.92"/><path class="cls-4" d="M545.35,409.87c-7.67,4.55-13.92,14.51-13.92,22.18s6.25,10.21,13.92,5.65,13.92-14.51,13.92-22.18S553,405.31,545.35,409.87Zm0,25.54c-6.41,3.81-11.63,1.69-11.63-4.72s5.22-14.73,11.63-18.53S557,410.47,557,416.88,551.76,431.61,545.35,435.41Z"/><path class="cls-11" d="M545.35,396.69c-14.94,8.87-27.1,28.24-27.1,43.19s12.16,19.88,27.1,11,27.1-28.24,27.1-43.18S560.29,387.81,545.35,396.69Zm0,51.9c-13.68,8.13-24.81,3.61-24.81-10.07S531.67,407.1,545.35,399s24.81-3.6,24.81,10.07S559,440.47,545.35,448.59Z"/><path class="cls-12" d="M545.35,381.05c-23.56,14-42.73,44.55-42.73,68.11s19.17,31.35,42.73,17.36,42.73-44.55,42.73-68.11S568.91,367.06,545.35,381.05Zm0,83.18c-22.3,13.24-40.44,5.87-40.44-16.43s18.14-51.22,40.44-64.45,40.44-5.88,40.44,16.42S567.65,451,545.35,464.23Z"/><path class="cls-13" d="M545.35,355.79c-37.49,22.27-68,70.88-68,108.37s30.5,49.88,68,27.62,68-70.88,68-108.37S582.84,333.53,545.35,355.79Zm0,132.34C509.87,509.2,481,497.48,481,462s28.87-81.49,64.35-102.56,64.35-9.35,64.35,26.14S580.83,467.06,545.35,488.13Z"/><polygon class="cls-14" points="342.18 430.5 530.7 318.55 530.7 312.45 342.18 424.4 342.18 430.5"/><polygon class="cls-15" points="540.1 312.97 546.48 309.18 546.48 303.09 540.1 306.87 540.1 312.97"/><polygon class="cls-16" points="567.3 518.61 599.91 499.24 599.91 492.63 567.3 511.99 567.3 518.61"/><polygon class="cls-17" points="567.3 530.09 625.04 495.8 625.04 489.19 567.3 523.48 567.3 530.09"/><polygon class="cls-18" points="567.3 541.58 611.39 515.39 611.39 508.77 567.3 534.96 567.3 541.58"/><polygon class="cls-19" points="567.3 553.06 590.09 539.52 590.09 532.9 567.3 546.44 567.3 553.06"/><polygon class="cls-4" points="395.51 445.66 417.08 443.96 417.08 440.75 398.9 442.44 398.9 442.34 417.08 422.44 417.08 419.23 395.51 443.15 395.51 445.66"/><polygon class="cls-4" points="420.1 447.02 423.22 445.17 436.23 403.74 433.07 405.62 420.1 447.02"/><polygon class="cls-4" points="439.17 409.32 457.48 407.56 457.48 407.65 439.17 427.64 439.17 430.85 460.74 406.97 460.74 404.37 439.17 406.12 439.17 409.32"/><polygon class="cls-2" points="197.11 458.84 216.6 447.26 216.6 438.55 197.11 450.13 197.11 458.84"/><polygon class="cls-2" points="197.11 474.2 247.41 444.33 247.41 435.62 197.11 465.49 197.11 474.2"/><polygon class="cls-2" points="197.11 489.57 247.41 459.7 247.41 450.98 197.11 480.85 197.11 489.57"/><polygon class="cls-2" points="253.48 456.09 264.27 449.69 264.27 440.98 253.48 447.38 253.48 456.09"/><polygon class="cls-2" points="197.11 504.93 240.15 479.37 240.15 470.66 197.11 496.22 197.11 504.93"/><polygon class="cls-2" points="970.78 398.38 1000.33 380.83 1000.33 372.12 970.78 389.67 970.78 398.38"/><polygon class="cls-2" points="970.78 413.75 1021.08 383.88 1021.08 375.16 970.78 405.03 970.78 413.75"/><polygon class="cls-2" points="970.78 429.11 992.27 416.35 992.27 407.64 970.78 420.4 970.78 429.11"/><polygon class="cls-2" points="998.34 412.74 1009.12 406.34 1009.12 397.63 998.34 404.03 998.34 412.74"/><polygon class="cls-2" points="970.78 444.47 1013.82 418.91 1013.82 410.2 970.78 435.76 970.78 444.47"/><polygon class="cls-2" points="1021.08 414.6 1038.59 404.2 1038.59 395.49 1021.08 405.89 1021.08 414.6"/><path class="cls-4" d="M642.52,308.35c-11.23,6.67-22.59,16.1-22.59,21.24,0,3.09,4.32,3.05,11.86-.11A87,87,0,0,0,642.52,324a109,109,0,0,0,10.72-7.25c7.55-5.79,11.87-10.89,11.87-14C665.11,297.62,653.75,301.68,642.52,308.35Zm10.33,6.37a104,104,0,0,1-10.33,7A84.8,84.8,0,0,1,632.19,327c-6.55,2.74-10,2.7-10,1.24,0-2.31,7.72-10.12,20.3-17.59s20.3-8.84,20.3-6.53C662.82,305.57,659.4,309.69,652.85,314.72Z"/><path class="cls-4" d="M652.85,314.72a104,104,0,0,1-10.33,7A84.8,84.8,0,0,1,632.19,327c-6.55,2.74-10,2.7-10,1.24l-2.29,1.36v11.63c0,3.08,4.32,3,11.86-.11a87,87,0,0,0,10.73-5.49,109,109,0,0,0,10.72-7.25c7.55-5.8,11.87-10.9,11.87-14V302.75l-2.29,1.36C662.82,305.57,659.4,309.69,652.85,314.72Zm10,1c0,1.46-3.42,5.57-10,10.61a105.22,105.22,0,0,1-10.33,7,84.8,84.8,0,0,1-10.33,5.29c-6.55,2.74-10,2.69-10,1.24v-8c2,.23,5.26-.55,9.57-2.36A87,87,0,0,0,642.52,324a109,109,0,0,0,10.72-7.25,52.79,52.79,0,0,0,9.58-9Z"/><path class="cls-4" d="M652.85,326.35a105.22,105.22,0,0,1-10.33,7,84.8,84.8,0,0,1-10.33,5.29c-6.55,2.74-10,2.69-10,1.24l-2.29,1.36v11.62c0,3.09,4.32,3.05,11.87-.11l.1,0a88.35,88.35,0,0,0,10.62-5.45,109.28,109.28,0,0,0,10.62-7.16l.1-.08c7.55-5.8,11.87-10.9,11.87-14V314.38l-2.29,1.36C662.82,317.2,659.4,321.31,652.85,326.35Zm10,1c0,1.45-3.39,5.53-9.88,10.53l-.1.08a106.2,106.2,0,0,1-10.32,7,86,86,0,0,1-10.32,5.28l-.1.05c-6.49,2.7-9.88,2.64-9.88,1.19v-8c2,.24,5.26-.55,9.57-2.35a87,87,0,0,0,10.73-5.49,109,109,0,0,0,10.72-7.25,53.14,53.14,0,0,0,9.58-9Z"/><path class="cls-4" d="M652.94,337.9l-.1.08a106.2,106.2,0,0,1-10.32,7,86,86,0,0,1-10.32,5.28l-.1.05c-6.49,2.7-9.88,2.64-9.88,1.19l-2.29,1.36v11.63c0,5.13,11.36,1.07,22.59-5.6s22.59-16.1,22.59-21.23V326l-2.29,1.36C662.82,328.82,659.43,332.9,652.94,337.9Zm9.88,1.1c0,2.31-7.72,10.11-20.3,17.58s-20.3,8.84-20.3,6.53v-8c2,.24,5.26-.55,9.58-2.36l.1,0a88.35,88.35,0,0,0,10.62-5.45,109.28,109.28,0,0,0,10.62-7.16l.1-.08a53.14,53.14,0,0,0,9.58-9Z"/><path class="cls-8" d="M635.59,243.83l-3.17,1.88c-.53-5-4-7.36-8.78-6.43h0c.05-.63.08-1.26.08-1.88,0-11.39-9.23-15.15-20.63-8.38-10.38,6.16-19,18.93-20.41,29.77h0c-8.35,6.51-14.93,17-16.49,26.25l-4,2.4c-3.54,2.1-6.42,6.69-6.42,10.24s2.88,4.74,6.42,2.63l73.43-43.6c3.55-2.11,6.42-6.69,6.42-10.25S639.14,241.73,635.59,243.83Z"/><path class="cls-4" d="M642,296.43a7.18,7.18,0,0,0-3.39,5.4c0,1.87,1.52,2.49,3.39,1.38a7.18,7.18,0,0,0,3.39-5.4C645.4,295.94,643.88,295.32,642,296.43Z"/><path class="cls-4" d="M598,285a7.18,7.18,0,0,0-3.39,5.4c0,1.87,1.52,2.49,3.39,1.38a7.2,7.2,0,0,0,3.39-5.4C601.42,284.46,599.9,283.85,598,285Z"/><polygon class="cls-4" points="598.61 288.01 597.46 288.69 597.46 308.42 641.44 282.3 641.44 300.16 642.58 299.48 642.58 280.48 598.61 306.59 598.61 288.01"/><polygon class="cls-20" points="363.67 833.57 487.48 760.04 487.48 608.05 363.67 681.57 363.67 833.57"/><g class="cls-21"><polygon class="cls-8" points="377.43 704.18 447.43 662.61 447.43 650.62 377.43 692.19 377.43 704.18"/><polygon class="cls-8" points="377.43 729.79 442.9 690.91 442.9 678.92 377.43 717.8 377.43 729.79"/><polygon class="cls-8" points="377.43 755.39 430.9 723.64 430.9 711.64 377.43 743.4 377.43 755.39"/><polygon class="cls-8" points="377.43 781 411.46 760.79 411.46 748.8 377.43 769 377.43 781"/><polygon class="cls-8" points="377.43 806.6 447.43 765.03 447.43 753.04 377.43 794.61 377.43 806.6"/></g><polygon class="cls-4" points="428.12 602.57 430.59 601.11 430.59 470.28 428.12 471.74 428.12 602.57"/><polygon class="cls-10" points="411.19 622.75 447.52 601.18 447.52 585.86 411.19 607.44 411.19 622.75"/><polygon class="cls-10" points="411.19 486.5 447.52 464.93 447.52 449.61 411.19 471.19 411.19 486.5"/><polygon class="cls-22" points="411.19 532.72 447.52 511.15 447.52 495.83 411.19 517.4 411.19 532.72"/><polygon class="cls-4" points="382.89 516.24 429.98 488.28 429.98 485.81 380.43 515.24 380.43 592.59 462.11 544.09 462.11 541.62 382.89 588.66 382.89 516.24"/><polygon class="cls-23" points="366.07 606.45 397.25 587.94 397.25 574.8 366.07 593.31 366.07 606.45"/><polygon class="cls-24" points="454.91 553.7 486.09 535.19 486.09 522.04 454.91 540.55 454.91 553.7"/><polygon class="cls-25" points="413.15 577.6 444.33 559.09 444.33 545.95 413.15 564.46 413.15 577.6"/><polygon class="cls-26" points="237.31 703.67 351.9 635.63 351.9 481.51 237.31 549.55 237.31 703.67"/><g class="cls-27"><polygon class="cls-8" points="247.09 565.03 275.06 548.42 275.06 541.78 247.09 558.39 247.09 565.03"/><polygon class="cls-8" points="247.09 578.54 306.61 543.2 306.61 536.56 247.09 571.9 247.09 578.54"/><polygon class="cls-8" points="313.76 538.96 337.22 525.03 337.22 518.39 313.76 532.32 313.76 538.96"/><polygon class="cls-8" points="247.09 592.06 264.27 581.87 264.27 575.22 247.09 585.42 247.09 592.06"/><polygon class="cls-8" points="271.74 577.43 291.19 565.88 291.19 559.23 271.74 570.79 271.74 577.43"/><polygon class="cls-8" points="294.6 563.85 331.23 542.1 331.23 535.46 294.6 557.21 294.6 563.85"/><polygon class="cls-8" points="247.09 605.58 275.06 588.98 275.06 582.33 247.09 598.94 247.09 605.58"/><polygon class="cls-8" points="262.87 609.73 278.38 600.52 278.38 593.88 262.87 603.09 262.87 609.73"/><polygon class="cls-8" points="283.08 597.73 318 576.99 318 570.35 283.08 591.08 283.08 597.73"/><polygon class="cls-8" points="324.13 573.36 339.83 564.03 339.83 557.39 324.13 566.71 324.13 573.36"/><polygon class="cls-8" points="262.87 623.25 286.15 609.42 286.15 602.78 262.87 616.6 262.87 623.25"/><polygon class="cls-8" points="289.26 607.58 298.43 602.13 298.43 595.49 289.26 600.93 289.26 607.58"/><polygon class="cls-8" points="303.24 599.27 321.32 588.54 321.32 581.89 303.24 592.63 303.24 599.27"/><polygon class="cls-8" points="326.2 585.64 337.75 578.78 337.75 572.14 326.2 579 326.2 585.64"/><polygon class="cls-8" points="262.87 636.76 278.38 627.55 278.38 620.91 262.87 630.12 262.87 636.76"/><polygon class="cls-8" points="283.44 624.55 298.95 615.34 298.95 608.7 283.44 617.91 283.44 624.55"/><polygon class="cls-8" points="247.09 659.65 275.06 643.04 275.06 636.4 247.09 653 247.09 659.65"/></g><polygon class="cls-4" points="343.32 407.6 352.05 406.92 352.05 405.62 344.69 406.3 344.69 406.26 352.05 398.2 352.05 396.9 343.32 406.59 343.32 407.6"/><path class="cls-4" d="M359.24,393.33a7.12,7.12,0,0,0-1.69,1.47,7.52,7.52,0,0,0-1.19,1.87l0,0V391l-1.66,1v13.36l1.66-1v-5.5a2.45,2.45,0,0,1,.11-.86,5.37,5.37,0,0,1,2.22-3c1.56-.93,2.11,0,2.11,1.46v5.23l1.65-1v-5.43C362.42,392.19,360.47,392.6,359.24,393.33Z"/><path class="cls-4" d="M367,386.29l-1.62,1.39v2.19l-1.42.84V392l1.42-.84v5c0,1.07.17,1.78.64,2s1,.09,1.79-.36a7.74,7.74,0,0,0,1.47-1.1l-.08-1.2a6.47,6.47,0,0,1-1,.68c-.92.55-1.24.1-1.24-1v-4.91l2.37-1.41V387.5L367,388.91Z"/><path class="cls-4" d="M381.29,380.24a6.35,6.35,0,0,0-2,1.83,8.54,8.54,0,0,0-1,1.79l0,0c-.39-.84-1.33-1-2.58-.3a7.09,7.09,0,0,0-2.86,3.37l-.06,0-.07-1.42-1.45.86c.05.72.07,1.47.07,2.42v6.64l1.62-1V389a3.14,3.14,0,0,1,.13-.89,5.16,5.16,0,0,1,2.05-2.87c1.27-.75,1.91-.08,1.91,1.38v5.45l1.62-1v-5.63a3.32,3.32,0,0,1,.13-.9,4.83,4.83,0,0,1,2-2.67c1.33-.8,2-.12,2,1.63v5.16l1.62-1v-5.37C384.28,379.25,382.49,379.52,381.29,380.24Z"/><polygon class="cls-4" points="386.98 386.18 388.63 385.19 388.63 371.83 386.98 372.81 386.98 386.18"/><polygon class="cls-4" points="391.29 374.9 398.7 374.19 398.7 374.22 391.29 382.32 391.29 383.62 400.02 373.95 400.02 372.9 391.29 373.6 391.29 374.9"/><path class="cls-8" d="M600.11,583.24a12.17,12.17,0,0,0-1-2l2-8.82L593.67,570l-7.44,7a24.5,24.5,0,0,0-5.21,1.9l-5.57-2.26-9.8,8.85-1.46,8.6a51.59,51.59,0,0,0-3.63,6.08L553,606.74l-2.28,11.35,6,1.59a13.61,13.61,0,0,0,.63,2.23,12.06,12.06,0,0,0,1,1.94l-2,8.82,7.52,2.5,7.44-7a25,25,0,0,0,5.22-1.91l5.57,2.26,9.8-8.85,1.45-8.6a51.59,51.59,0,0,0,3.63-6.08l7.62-6.57,2.28-11.35-6-1.59A15.41,15.41,0,0,0,600.11,583.24Zm-17.32,30.15c-7.31,6.6-15.09,7.12-17.35,1.15s1.85-16.19,9.16-22.79,15.09-7.12,17.35-1.15S590.1,606.79,582.79,613.39Z"/><path class="cls-28" d="M654.22,546.42l3-6.91-4.12-4.1-5.93,4a10.88,10.88,0,0,0-1.72,0,13.14,13.14,0,0,0-1.84.26l-3-3.38-7.74,4.89L630.3,548a40.84,40.84,0,0,0-3.41,4.18L621,555.7l-3.61,9,3.35,2.91a15.81,15.81,0,0,0,.16,3.94l-3,6.91,4.11,4.1,5.93-4a9.8,9.8,0,0,0,1.72,0,13.49,13.49,0,0,0,1.85-.26l3,3.38,7.73-4.89,2.57-6.89a40.91,40.91,0,0,0,3.42-4.16l5.94-3.53,3.6-9-3.35-2.91A15.83,15.83,0,0,0,654.22,546.42Zm-7.43,12c-2.7,6.7-9,12.43-14.14,12.76s-7.06-4.84-4.37-11.54,9-12.42,14.13-12.76S649.48,551.67,646.79,558.37Z"/><path class="cls-4" d="M774.94,163.13l-3-9.54-8.79,3.22a11.25,11.25,0,0,0-2-1.09,12.45,12.45,0,0,0-2.3-.67l-2-7.6-11.34,3.7-6.14,10.26a53,53,0,0,0-5.92,5.09L724.77,169l-8.3,13.24,2.66,7a39.5,39.5,0,0,0-1.58,6.85l-6.62,10.07,3,9.54,8.8-3.22a10.92,10.92,0,0,0,2,1.09,12.58,12.58,0,0,0,2.29.67l2,7.6,11.34-3.7,6.14-10.26a52.93,52.93,0,0,0,5.91-5.09l8.61-2.45,8.31-13.24-2.66-7a38.54,38.54,0,0,0,1.57-6.85ZM754.17,189.2c-6.19,9.87-16.27,15.85-22.46,13.34s-6.2-12.6,0-22.47,16.27-15.85,22.46-13.34S760.36,179.33,754.17,189.2Z"/><polygon class="cls-29" points="976.4 290.86 990.95 282.22 990.95 272.89 976.4 281.53 976.4 290.86"/><polygon class="cls-26" points="981.67 325.15 910.89 367.19 910.89 421.95 753.37 515.48 753.37 519.49 914.89 423.57 914.89 368.81 985.68 326.78 985.68 280.68 981.67 283.06 981.67 325.15"/><polygon class="cls-30" points="690.35 570.7 809.47 503.61 809.47 383.62 690.35 450.71 690.35 570.7"/><path class="cls-31" d="M794.72,426.33c-3.62,3.51-6.21,8-8.72,12.3-3,5.1-5.78,9.93-10,12.93-4.51,3.2-8.76,2.69-11.23,1.16a19.13,19.13,0,0,1-4.68-4.73c-.69-.88-1.4-1.79-2.18-2.62-3-3.22-6.34-4.27-10.25-3.22-6.88,1.84-14,10-18.09,17.25A105.62,105.62,0,0,0,723,474.64c-.84,2.27-1.7,4.61-2.64,6.9-3.68,9-8.22,15.79-13.47,20.12a1.14,1.14,0,0,0-.48,1.07c.08.24.36.27.66.1a.94.94,0,0,0,.18-.12c5.65-4.66,10.47-11.81,14.33-21.27,1-2.34,1.83-4.7,2.67-7a102.32,102.32,0,0,1,6.41-14.87c3.75-6.74,10.35-14.3,16.61-16,3.56-.95,6.66.05,9.47,3.07.76.81,1.47,1.72,2.15,2.59a19.61,19.61,0,0,0,4.83,4.87c2.71,1.68,7.42,2.18,12.5-1.42,4.75-3.36,7.85-8.7,10.85-13.87,2.41-4.14,4.9-8.42,8.2-11.64.35-.33.51-.81.36-1S795.06,426,794.72,426.33Z"/><polygon class="cls-32" points="698.98 453.12 696.93 454.27 696.93 520.69 802.9 461 802.9 459.06 698.98 517.59 698.98 453.12"/><polygon class="cls-33" points="697.95 538.63 724.31 523.79 724.31 516.6 697.95 531.45 697.95 538.63"/><polygon class="cls-34" points="729.65 520.78 756.01 505.93 756.01 498.75 729.65 513.6 729.65 520.78"/><polygon class="cls-34" points="761.77 502.69 774.95 495.27 774.95 488.08 761.77 495.51 761.77 502.69"/><polygon class="cls-35" points="697.95 548.62 724.31 533.77 724.31 526.59 697.95 541.44 697.95 548.62"/><polygon class="cls-34" points="729.65 530.76 756.01 515.92 756.01 508.74 729.65 523.58 729.65 530.76"/><polygon class="cls-34" points="761.77 512.67 774.95 505.25 774.95 498.07 761.77 505.49 761.77 512.67"/><polygon class="cls-36" points="697.95 558.61 724.31 543.76 724.31 536.58 697.95 551.42 697.95 558.61"/><polygon class="cls-34" points="729.65 540.75 756.01 525.91 756.01 518.72 729.65 533.57 729.65 540.75"/><polygon class="cls-34" points="761.77 522.66 774.95 515.24 774.95 508.06 761.77 515.48 761.77 522.66"/><path class="cls-34" d="M713.73,321.74l83.14-49.36V214l-83.14,49.36Zm4-56.74,75.12-44.6v50.35l-75.12,44.61Z"/><polygon class="cls-34" points="769.12 244.76 782.65 250.26 785.48 245.74 771.95 240.25 769.12 244.76"/><polygon class="cls-34" points="769.12 255.46 771.95 256.61 785.48 235.05 782.65 233.9 769.12 255.46"/><path class="cls-34" d="M648.46,490.37a5.55,5.55,0,0,0-1,1.48,6.4,6.4,0,0,0-.55,1.88,22.58,22.58,0,0,0-.15,3.09,24.73,24.73,0,0,1-.14,3.25A5.57,5.57,0,0,1,646,502a2.33,2.33,0,0,1-1.14,1.08v2.76a2,2,0,0,1,.68-.13h0a1.11,1.11,0,0,1,.74.61,4,4,0,0,1,.34,1.29,21.52,21.52,0,0,1,.07,2.19,24.91,24.91,0,0,0,.15,3.41,2.06,2.06,0,0,0,.48,1.14,1,1,0,0,0,.71.23l.27,0a5,5,0,0,0,1.56-.7l.33-.05v-2.69a2.18,2.18,0,0,1-1,.37h0a.7.7,0,0,1-.63-.42,3.11,3.11,0,0,1-.15-1.17c0-.55,0-1.58-.08-3.08a9.17,9.17,0,0,0-.22-1.93,2.74,2.74,0,0,0-.4-.95,1.83,1.83,0,0,0-.76-.51l-.29-.12.18-.26a8.27,8.27,0,0,0,.8-1.48,8,8,0,0,0,.48-1.69,17,17,0,0,0,.22-2.39c0-1.48.07-2.42.07-2.81a4.63,4.63,0,0,1,.15-1.36,2.61,2.61,0,0,1,.46-.85,2.5,2.5,0,0,1,1.15-.72V489l-.07,0A8.26,8.26,0,0,0,648.46,490.37Z"/><path class="cls-34" d="M663.32,492.09a1,1,0,0,1-.73-.61,3.26,3.26,0,0,1-.35-1.3,17.6,17.6,0,0,1-.08-2.17,25.4,25.4,0,0,0-.15-3.42,2,2,0,0,0-.47-1.15,1,1,0,0,0-.7-.22l-.29,0a4.9,4.9,0,0,0-1.56.7l-.33.05v2.72a2.16,2.16,0,0,1,1-.37.74.74,0,0,1,.63.41,2.83,2.83,0,0,1,.16,1.18c0,.54,0,1.53.08,3a9.13,9.13,0,0,0,.23,2,2.6,2.6,0,0,0,.45,1,1.2,1.2,0,0,0,.67.44l.34.09-.19.3a10.51,10.51,0,0,0-.91,1.72,10.7,10.7,0,0,0-.53,2.46c-.06.65-.11,2-.14,4.11a6.55,6.55,0,0,1-.13,1.44,2.16,2.16,0,0,1-.44.83,2.63,2.63,0,0,1-1.19.75v2.68l.07-.05a8.34,8.34,0,0,0,1.73-1.28,5.53,5.53,0,0,0,1-1.47,7.22,7.22,0,0,0,.55-1.9,22.91,22.91,0,0,0,.14-3.08,24.41,24.41,0,0,1,.14-3.25,5.78,5.78,0,0,1,.61-1.92,2.48,2.48,0,0,1,1.14-1.09V492a1.89,1.89,0,0,1-.67.12Z"/><polygon class="cls-34" points="651.22 505.9 657.71 502.24 657.71 499.85 651.22 503.51 651.22 505.9"/><polygon class="cls-34" points="651.22 501.92 657.71 498.26 657.71 495.88 651.22 499.53 651.22 501.92"/><polygon class="cls-34" points="651.22 497.95 654.76 496.01 654.76 493.61 651.22 495.56 651.22 497.95"/><path class="cls-37" d="M609.32,450.75l-1.41-1.31-3.6,9.87a2.84,2.84,0,0,0,.1,2.62l4.38,4.09.8-2.35-3.77-3.53Z"/><path class="cls-38" d="M621.48,439.5l-1,2.73,3.85,3.61-3.45,9.48,1.41,1.31,3.77-10.33a4.14,4.14,0,0,0,.24-1.58,1.62,1.62,0,0,0-.34-1Z"/><polygon class="cls-39" points="612.08 467.52 613.79 467.62 618.78 437.74 617.07 437.65 612.08 467.52"/><polygon class="cls-20" points="916.46 318.07 1015.07 259.51 1015.07 151.6 916.46 210.16 916.46 318.07"/><g class="cls-40"><polygon class="cls-8" points="924.88 223.48 948.95 209.19 948.95 203.47 924.88 217.76 924.88 223.48"/><polygon class="cls-8" points="924.88 235.11 976.1 204.7 976.1 198.98 924.88 229.39 924.88 235.11"/><polygon class="cls-8" points="982.25 201.04 1002.44 189.06 1002.44 183.34 982.25 195.32 982.25 201.04"/><polygon class="cls-8" points="924.88 246.74 939.66 237.97 939.66 232.25 924.88 241.03 924.88 246.74"/><polygon class="cls-8" points="946.09 234.15 962.83 224.21 962.83 218.49 946.09 228.43 946.09 234.15"/><polygon class="cls-8" points="965.77 222.46 997.28 203.75 997.28 198.03 965.77 216.75 965.77 222.46"/><polygon class="cls-8" points="924.88 258.37 948.95 244.08 948.95 238.37 924.88 252.66 924.88 258.37"/><polygon class="cls-8" points="938.46 261.94 951.8 254.02 951.8 248.3 938.46 256.23 938.46 261.94"/><polygon class="cls-8" points="955.85 251.62 985.9 233.77 985.9 228.06 955.85 245.9 955.85 251.62"/><polygon class="cls-8" points="991.17 230.64 1004.68 222.62 1004.68 216.9 991.17 224.93 991.17 230.64"/><polygon class="cls-8" points="938.46 273.58 958.49 261.68 958.49 255.96 938.46 267.86 938.46 273.58"/><polygon class="cls-8" points="961.17 260.09 969.06 255.4 969.06 249.69 961.17 254.37 961.17 260.09"/><polygon class="cls-8" points="973.2 252.94 988.76 243.71 988.76 237.99 973.2 247.23 973.2 252.94"/><polygon class="cls-8" points="992.96 241.21 1002.9 235.31 1002.9 229.59 992.96 235.5 992.96 241.21"/><polygon class="cls-8" points="938.46 285.21 951.8 277.28 951.8 271.56 938.46 279.49 938.46 285.21"/><polygon class="cls-8" points="956.16 274.7 969.5 266.77 969.5 261.05 956.16 268.98 956.16 274.7"/><polygon class="cls-8" points="924.88 304.9 948.95 290.61 948.95 284.89 924.88 299.18 924.88 304.9"/></g><polygon class="cls-4" points="544.51 632.02 469.83 675.13 469.83 676.91 546.29 632.74 546.29 423.2 544.51 424.26 544.51 632.02"/><path class="cls-4" d="M545.4,418.47c-2.91,1.72-5.26,5.48-5.26,8.38s2.35,3.87,5.26,2.14,5.26-5.48,5.26-8.39S548.31,416.74,545.4,418.47Z"/><path class="cls-4" d="M470.57,670.32c-2.91,1.72-5.26,5.48-5.26,8.39s2.35,3.86,5.26,2.13,5.26-5.48,5.26-8.39S473.48,668.59,470.57,670.32Z"/><path class="cls-41" d="M1278.58,793.2A22.22,22.22,0,0,1,1246,812.83l-167-88.58a27.14,27.14,0,0,0-39.85,24v12.4l4.92-3v-9.42a22.21,22.21,0,0,1,32.62-19.63l167,88.57a27.13,27.13,0,0,0,39.84-24V600h-4.91Z"/><path class="cls-42" d="M1393.09,404c-5.26.13-13.93,3.39-20.3,12.81-12.91,19.06,2.11,22.41-8.54,45.82-5.68,12.48-15.74,34.94,12.51,74.8,3.5,4.93,27.33-76.26,26.3-80C1400.89,449.62,1402.15,403.77,1393.09,404Z"/><path class="cls-43" d="M1382.68,493.17l-.24,0a12.44,12.44,0,0,0-14.28,9.35s-9.58,46.28-13.49,59.32c-2,6.62,19.3,17.85,21.53,12.59,6.57-15.48,16.51-65.94,16.51-65.94A12.54,12.54,0,0,0,1382.68,493.17Z"/><path class="cls-43" d="M1356.67,556.21c-7.14,2.63-57.74,32.8-76,36-3.12.55,7.73,10.63,7.73,10.63,6.15-3.46,60.78-15,74.91-21.35,6.86-3.08,13.37-7,11.67-14.71C1372.44,555.06,1363.74,553.61,1356.67,556.21Z"/><path class="cls-43" d="M1287.34,592a17.17,17.17,0,0,0-6.51-.17,25.38,25.38,0,0,0-5,.76c-3,1-5.4,3.61-8.42,4.4s-4.26,1.53-7.25,2.53c-2.64.88-7.47,1.87-7.4,3.54.1,2.18,4.68,6.4,5.94,7.12a7,7,0,0,0,1.89.85,6.68,6.68,0,0,0,2.48,0l7.71-1.14a29.41,29.41,0,0,0,5.57-1.2c4-1.41,7.45-5,11.43-6.25C1292.89,600.83,1291.06,592.94,1287.34,592Z"/><path class="cls-43" d="M1269.11,588.3a54.33,54.33,0,0,1-8.84.13,2.41,2.41,0,0,0,.59,3.23,5.33,5.33,0,0,0,3.47.85c6.34-.16,8.47,2.21,11,3.15s5.05.79,7.61.68c1.55-.07,2-3.88,2.67-5.3-4.53-1.36-10.86-3.08-12.23-3.14A24.59,24.59,0,0,0,1269.11,588.3Z"/><path class="cls-44" d="M1386.41,485.58a16,16,0,0,0-2.08-.59,15.8,15.8,0,0,0-12.14,2.12c-3.55,2.28-8.57,9.51-9.46,13.63l-6.37,35.35s18.21,9.55,31.49,5.12c0,0,6.5-28.05,8.58-37.42A15.81,15.81,0,0,0,1386.41,485.58Z"/><path class="cls-43" d="M1396.62,648.9H1346.5c-3.28,42.09,3.62,67.94,8.77,122.28.58,6.1,12,87.26,8.56,116.8-1.28,11.16-14.09,29.11-14.18,33.31s10.8,6.14,11.76,5.83,24.15-42.92,24.15-42.92c-9-22.11,12.36-92.9,1.89-119.54C1394.33,710.87,1397.66,648.85,1396.62,648.9Z"/><path class="cls-45" d="M1383.38,878.35s3.48,4.2-.45,7.63c-10.18,8.87-14.89,30.65-24.52,33.46-6.73,2-7.87-2.39-7.87-2.39s-5.23,7.46-9.94,8.49c-1.91.42-4.87,3.72-1.44,5.22,6.18,2.68,17,2.08,24.14-1.1,8.19-3.66,12.88-23.67,20.64-29.41C1388.88,896.59,1392.3,884.58,1383.38,878.35Z"/><path class="cls-43" d="M1431.36,792.13c3.09-54.14,2.07-116.25,1-116.12l-50,3.51c-.32,42.22,8.36,67.52,17.31,121.36,1,6,18,86.21,16.72,115.92-.51,11.22-11.57,29.78-11.37,34s11.21,5.36,12.14,5,20.64-44.26,20.64-44.26C1427.32,890.08,1443.66,818,1431.36,792.13Z"/><path class="cls-45" d="M1435.25,905.82s3.77,3.95.09,7.65c-9.54,9.56-12.26,31.37-21.67,34.85-6.58,2.43-8-1.84-8-1.84s-4.7,7.81-9.32,9.17c-1.87.55-4.6,4.05-1.07,5.3,6.35,2.25,17.1.89,24-2.78,7.91-4.22,10.73-24.26,18.08-30.54C1442,923.63,1444.59,911.42,1435.25,905.82Z"/><path class="cls-45" d="M1438.93,950.23c.94.46,1.2-.35,1.2-.35s.12-18.59,1-29.11l-5.06,3Z"/><path class="cls-42" d="M1460.18,509.87c-10.21-28.07-1.47-36.86-7.74-49.08-7.86-15.29-28.31-11.31-30.46,14-3.12,36.75-1.91,62.72-3.12,67.62-12,48.26,41.54,77.82,36.85,71.27-8.43-11.79,10.21-25.56,2.19-50C1450.77,541.94,1467.72,530.62,1460.18,509.87Z"/><path class="cls-45" d="M1383.94,922.91c.91.52,1.22-.27,1.22-.27s1.43-18.54,3-29l-5.26,2.63Z"/><path class="cls-46" d="M1398.11,648.25l-1.37-1.61-2.32-.13-51.13,19.59s18.84,179.7,19.69,209.29c3.45-.37,20,3.59,26.12,5.92-.69-10-2.65-30.19-.69-49.15,2.56-24.79,6.31-50.11.75-65.2C1392.45,736.26,1399.46,649.83,1398.11,648.25Z"/><path class="cls-46" d="M1384.56,875a26.25,26.25,0,0,0-4.47-2.23c-.67-.27-1.36-.52-2.07-.74l-.56-.19a36.11,36.11,0,0,0-3.92-1c-3.68-.7-3.6.58-6.36,1.25a8.61,8.61,0,0,0-2.37.93l-.31.19a3.71,3.71,0,0,0-1.14,1.17A2.64,2.64,0,0,0,1363,876a3.24,3.24,0,0,0,.22,1,4.91,4.91,0,0,0,.5,1,12,12,0,0,0,3.82,3.48,21.46,21.46,0,0,0,17.39,2.87c2.87-.71,4.25-2.1,4.19-3.78S1387.52,876.91,1384.56,875Z"/><path class="cls-46" d="M1437.35,857.89c1.3-24.89,2.63-50.61-3.69-65.39,1.72-30.83,4.37-117,2.94-118.56l-3.77-1.55-54.7,3.84S1408.44,872.5,1410.8,902c3.43-.54,7.69,2,11.31,2a56.83,56.83,0,0,1,18.37,2.73C1439,894.22,1436.37,876.92,1437.35,857.89Z"/><path class="cls-46" d="M1436.2,903a35.35,35.35,0,0,0-4.4-1.64c-.66-.2-1.35-.4-2-.58l-.55-.14c-1.29-.32-2.61-.59-3.92-.82a40.34,40.34,0,0,0-10.18-.6,11.6,11.6,0,0,0-2.44.45l-.33.1a3.55,3.55,0,0,0-1.22.67,1.27,1.27,0,0,0-.46.92,1.41,1.41,0,0,0,.15.67,3.05,3.05,0,0,0,.46.66,11.3,11.3,0,0,0,3.67,2.38c5.77,2.66,15.23,4.36,21.1,3.78,2.93-.28,4.42-1.08,4.45-2.14S1439.09,904.31,1436.2,903Z"/><path class="cls-46" d="M1363.11,596.37c-19.41,23.68-22.68,49.07-19.82,69.73l92.45,28.14c14.43-47.51-4.47-58.69-5.52-82.3C1429.47,595.1,1373.79,583.34,1363.11,596.37Z"/><path class="cls-47" d="M1398.83,484.39c-25.4-2.89-26.41,4-31.21,21.9-4.62,17.24-23.09,33.11-4.64,48.83,9,7.72-9.56,37.57-14.47,65.77,7.51,10.8,64.42,24.49,85.27,7.87,0,0-7.83-38.14,6.55-64.65,5.86-10.78,13.69-21.77,12.37-34.72C1450.46,507.6,1420.22,486.84,1398.83,484.39Z"/><path class="cls-48" d="M1418.2,488.06a19.27,19.27,0,0,0-4.78-1.87,22.36,22.36,0,0,0-2.22-.46l-.61-.1a28.35,28.35,0,0,0-4.23-.25,23.31,23.31,0,0,0-11,2.68,11.92,11.92,0,0,0-2.61,1.95l-.36.37a7.05,7.05,0,0,0-1.28,1.95,5.39,5.39,0,0,0-.47,2.21,5,5,0,0,0,.19,1.42,5.55,5.55,0,0,0,.51,1.26,9.91,9.91,0,0,0,4,3.8c6.29,3.58,16.51,3.58,22.8,0,3.15-1.79,4.72-4.14,4.72-6.48S1421.35,489.85,1418.2,488.06Z"/><path class="cls-48" d="M1393.82,444.31c8.73,18.19-3,48.83-3,48.83l32.05,1.4v-16c0-12.34,7.67-26.35,7.67-33.47C1430.59,437.81,1390.33,437,1393.82,444.31Z"/><path class="cls-43" d="M1403.37,412.84c-14.74-7.51-27.64,3.93-28.79,11.49-.33,2.17-2.19,11.24-2.2,14.6,0,15.54,5.32,42.54,14.58,45.25,6.52,1.9,24-4.09,29.49-20.6C1423,443.85,1424.21,423.46,1403.37,412.84Z"/><path class="cls-42" d="M1390.37,404.29c-9.35,5.1-14.3,16-14.3,16,1.49,8.39,12.61,22.81,32.39,29.44,11.51,3.86-6.67,9.05,2.27,34.82,2.49,7.18-19.58,7.74-17.66,37.29,1.46,22.49-16.87,43.09-2.62,56.11,2.22,2-4.31,17.84,7.83,28.1,1.74,1.47-.93-77.79,35.59-102.39,19.66-13.24,16.7-32.82,18.57-42.91,3.54-19.17-12.19-31.19-14.78-38.31C1428.79,398.19,1400.35,398.86,1390.37,404.29Z"/><path class="cls-49" d="M1438.31,525.44l-.24,0a12.44,12.44,0,0,0-14.28,9.35s-9.58,46.27-13.49,59.32c-2,6.62,19.3,17.84,21.53,12.59,6.57-15.48,16.51-65.94,16.51-65.94A12.53,12.53,0,0,0,1438.31,525.44Z"/><path class="cls-43" d="M1414,590.62c-7.19,2.53-58.19,32-76.48,35-3.12.5,7.58,10.73,7.58,10.73,6.2-3.38,61-14.16,75.2-20.33,6.9-3,13.46-6.77,11.87-14.56C1429.73,589.68,1421.06,588.12,1414,590.62Z"/><path class="cls-43" d="M1343.05,625.38a16.81,16.81,0,0,0-6.3,1.68,24.8,24.8,0,0,0-4.58,2.14c-2.58,1.79-4.15,5-6.83,6.6s-3.65,2.67-6.24,4.47c-2.28,1.59-6.64,3.91-6.09,5.49.71,2.07,6.3,4.82,7.7,5.15a5.19,5.19,0,0,0,4.42-.47l7.08-3.27a29.87,29.87,0,0,0,5-2.72c3.44-2.48,5.72-7,9.19-9.23C1350.87,632.3,1346.89,625.25,1343.05,625.38Z"/><path class="cls-43" d="M1328.5,625.41a25.6,25.6,0,0,0-4,1.59,54.64,54.64,0,0,1-8.44,2.62,2.39,2.39,0,0,0,1.48,2.93,5.3,5.3,0,0,0,3.57-.16c6-1.95,8.74-.27,11.44-.09s5.07-.66,7.49-1.5c1.46-.51.86-4.3,1.07-5.83C1336.39,625,1329.84,625.09,1328.5,625.41Z"/><path class="cls-50" d="M1442,517.85a17.23,17.23,0,0,0-2.08-.6,15.85,15.85,0,0,0-12.14,2.12c-3.54,2.29-8.57,9.51-9.46,13.64l-9.72,49.13a9.3,9.3,0,0,0,6.09,10.58,49.7,49.7,0,0,0,16.46,3.11,9.23,9.23,0,0,0,8.86-7.21c3.09-13.44,10.38-45.22,12-52.56A15.82,15.82,0,0,0,1442,517.85Z"/><path class="cls-51" d="M1317.55,603.46l-18.22-10.39a5.49,5.49,0,0,0-5.07.19l-14.75,9.06c-1.44.87-1.49,2.22-.12,3l18.21,10.38a5.49,5.49,0,0,0,5.07-.18l14.74-9C1318.85,605.58,1318.91,604.24,1317.55,603.46Z"/><path class="cls-52" d="M1417.38,594.27,1311.2,533.7a6.06,6.06,0,0,0-5.61.21l-75.54,46.36c-1.59,1-1.66,2.48-.15,3.33l106.19,60.56a6.06,6.06,0,0,0,5.61-.19l75.53-46.38C1418.82,596.61,1418.89,595.13,1417.38,594.27Z"/><path class="cls-53" d="M1417.23,597.59,1341.7,644c-.19.11-.4.21-.62.31l-.1,0a5.14,5.14,0,0,1-.55.2l-.12,0c-.21.05-.42.1-.64.13h-.1c-.22,0-.44.06-.66.07h-.11a5,5,0,0,1-.67,0H1338a4,4,0,0,1-.48-.07c-.13,0-.27,0-.39-.09a1.67,1.67,0,0,1-.3-.08,2.87,2.87,0,0,1-.76-.33L1229.9,583.6a1.37,1.37,0,0,1-.24-.18,1.65,1.65,0,0,1-.27-.19,2.36,2.36,0,0,1-.3-.34l0-.08a1.33,1.33,0,0,1-.17-.36.06.06,0,0,1,0,0,1.52,1.52,0,0,1-.06-.42l-.18,5.36v0a.92.92,0,0,0,0,.23s0,.09,0,.14,0,0,0,0a.1.1,0,0,0,0,0,2.29,2.29,0,0,0,.1.23.61.61,0,0,0,.07.1,47036367246.86,47036367246.86,0,0,1,.08.14,2.53,2.53,0,0,0,.23.26l0,0,.27.19c.07,0,.12.11.18.15s0,0,.06,0l106.18,60.57a4.15,4.15,0,0,0,.77.33s0,0,.08,0l.21,0,.39.08.15,0,.33,0h1l.39,0,.15,0h.1l.15,0,.39-.09.1,0,.12,0,.2-.05c.12,0,.24-.09.36-.15l.09,0,0,0a4,4,0,0,0,.58-.3L1417.05,603a2.25,2.25,0,0,0,1.23-1.73l.19-5.35A2.21,2.21,0,0,1,1417.23,597.59Z"/><polygon class="cls-54" points="1240.12 577.15 1342.92 635.79 1384.08 610.53 1281.27 551.88 1240.12 577.15"/><path class="cls-55" d="M1377.2,611.36a1.43,1.43,0,0,1-.33.15h0l-.36.06h0a1.29,1.29,0,0,1-.35,0h0a1.25,1.25,0,0,1-.31-.1l-4.63-2.63-.17-.16,3.25-2a.57.57,0,0,0,.3-.42l0-1.33a.56.56,0,0,1-.31.42l-3.73,2.3a1.93,1.93,0,0,1-.32.13h0a2,2,0,0,1-.35,0h0a1.9,1.9,0,0,1-.35,0h0a.82.82,0,0,1-.3-.12l-4.63-2.64a.56.56,0,0,1-.18-.16l3.25-2a.54.54,0,0,0,.31-.41l0-1.34a.52.52,0,0,1-.3.43l-3.73,2.3a1.75,1.75,0,0,1-.32.12h0a1.59,1.59,0,0,1-.37.06h0a1.72,1.72,0,0,1-.33,0l-.05,0a.83.83,0,0,1-.29-.1l-4.65-2.65a.61.61,0,0,1-.17-.15l3.25-2a.56.56,0,0,0,.31-.43l0-1.33a.59.59,0,0,1-.3.42L1357.3,600a1.1,1.1,0,0,1-.33.14h0a1.55,1.55,0,0,1-.37,0h0a2,2,0,0,1-.35,0l0,0a1.32,1.32,0,0,1-.3-.1l-4.64-2.65a.65.65,0,0,1-.17-.16l3.24-2a.52.52,0,0,0,.3-.42l0-1.34a.34.34,0,0,1-.08.23.7.7,0,0,1-.22.19l-3.73,2.3a1.13,1.13,0,0,1-.32.13h0a1.42,1.42,0,0,1-.36,0h0a1.31,1.31,0,0,1-.34,0h0a1.33,1.33,0,0,1-.3-.11l-4.63-2.65a.47.47,0,0,1-.17-.14l3.25-2a.57.57,0,0,0,.3-.42l0-1.35a.37.37,0,0,1-.07.23,1.2,1.2,0,0,1-.23.21l-3.72,2.29-.34.14h0a2,2,0,0,1-.36,0h0a1.83,1.83,0,0,1-.33,0h-.06l-.28-.11-4.64-2.64a.75.75,0,0,1-.18-.17l3.23-2a.53.53,0,0,0,.31-.42l0-1.34a.57.57,0,0,1-.29.43l-3.75,2.29a1,1,0,0,1-.32.14h0a1.57,1.57,0,0,1-.37.05h0a1.17,1.17,0,0,1-.33,0h0a.82.82,0,0,1-.31-.11l-4.63-2.65a.35.35,0,0,1-.17-.15l3.25-2a.56.56,0,0,0,.3-.43l0-1.33a.51.51,0,0,1-.3.41l-3.74,2.3a1.07,1.07,0,0,1-.31.13h0a1,1,0,0,1-.34.06h0a.94.94,0,0,1-.34,0h0a.88.88,0,0,1-.3-.1l-4.63-2.64a.57.57,0,0,1-.18-.16l3.25-2a.56.56,0,0,0,.29-.42l.06-1.35a.57.57,0,0,1-.31.43l-3.73,2.28a1.37,1.37,0,0,1-.32.16h0l-.36,0h-.36l0,0a1.32,1.32,0,0,1-.3-.1l-4.62-2.65a1.57,1.57,0,0,1-.19-.15l3.25-2a.56.56,0,0,0,.31-.43l0-1.34a.59.59,0,0,1-.3.42l-3.74,2.3a3.09,3.09,0,0,1-.32.14h0a1.8,1.8,0,0,1-.36.06h0a1.87,1.87,0,0,1-.34,0h0a1.32,1.32,0,0,1-.3-.1l-4.63-2.65a.57.57,0,0,1-.18-.16l3.25-2a.51.51,0,0,0,.3-.41l.05-1.34a.58.58,0,0,1-.3.42l-3.73,2.3a3.24,3.24,0,0,1-.33.13h0a2.2,2.2,0,0,1-.36,0h0a1.35,1.35,0,0,1-.35,0h0a1.26,1.26,0,0,1-.29-.12l-4.62-2.64a.39.39,0,0,1-.18-.15l3.25-2a.55.55,0,0,0,.3-.41l0-1.34a.54.54,0,0,1-.31.41l-3.74,2.3a.79.79,0,0,1-.31.13h0a2.08,2.08,0,0,1-.36,0h0a2.06,2.06,0,0,1-.35,0h-.05a1.33,1.33,0,0,1-.28-.1l-4.64-2.66a.56.56,0,0,1-.2-.17h0l3.21-2a.59.59,0,0,0,.31-.43l0-1.31a.54.54,0,0,1-.29.4l-3.74,2.29a1.42,1.42,0,0,1-.33.13h0a1.19,1.19,0,0,1-.37.06h0a1,1,0,0,1-.34,0h0a1,1,0,0,1-.29-.1l-4.63-2.64a.53.53,0,0,1-.17-.16l3.25-2a.64.64,0,0,0,.3-.41l0-1.35a.53.53,0,0,1-.3.42l-3.74,2.3a1.44,1.44,0,0,1-.31.13h0a1.64,1.64,0,0,1-.37,0h0a1.2,1.2,0,0,1-.33,0h0a1.1,1.1,0,0,1-.29-.1l-4.64-2.65s0,0-.07-.06l3.27-2a.53.53,0,0,0,.31-.4l.05-1.35a.61.61,0,0,1-.31.43l-3.73,2.29a1.2,1.2,0,0,1-.33.13h0a2.11,2.11,0,0,1-.35.05h0a1.94,1.94,0,0,1-.34,0h0a1.11,1.11,0,0,1-.3-.12l-4.63-2.64a.49.49,0,0,1-.2-.17h0a.34.34,0,0,1-.07-.22l0,1.36h0v0a.32.32,0,0,1,0,.08l0,.06v0l0,0,.06.07.11.08h0l4.64,2.65a.56.56,0,0,0,.2.08.15.15,0,0,0,.09,0h.1l.12,0s.08,0,.1,0h.11l.09,0h.1l.1,0h0l.06,0,.13,0,.14-.08.24-.15,0,.88h0v.11l0,0s0,0,0,0h0v0l.06.07a.29.29,0,0,0,.12.07l0,0,4.63,2.64a.52.52,0,0,0,.2.09l.1,0h0l0,0a.31.31,0,0,1,.13,0h.3l.09,0,.1,0h0l.06,0,.12,0a.71.71,0,0,0,.15-.08l.38-.23,0,1h0s0,0,0,.05l0,.06a.14.14,0,0,0,0,.06l0,0h0s0,0,.06.07l.13.08h0l2,1.16s0,.07-.1.1l-3.73,2.28a1.68,1.68,0,0,1-.33.16h0a2.09,2.09,0,0,1-.35,0h0a1.83,1.83,0,0,1-.33,0h0a.92.92,0,0,1-.29-.11l-15.62-8.91a.65.65,0,0,1-.21-.18h0a.31.31,0,0,1-.07-.21l0,1.34h0v.1a.14.14,0,0,0,0,.07l0,0h0v0l0,.07.14.09h0l4.54,2.59a.86.86,0,0,1-.14.13l-3.73,2.29a1.3,1.3,0,0,1-.32.14h0a1,1,0,0,1-.35,0h0a1.83,1.83,0,0,1-.34,0h0a.89.89,0,0,1-.3-.11l-5-2.85a.43.43,0,0,1-.19-.19h0a.39.39,0,0,1-.06-.21l0,1.34v.07l0,.05s0,0,0,0l0,0v0h0l.07.06a.35.35,0,0,0,.11.1h0l3,1.73a.32.32,0,0,1-.12.11l-9.43,5.78a1,1,0,0,1-.32.14v0l-.36,0h0a1.77,1.77,0,0,1-.33,0,0,0,0,0,1,0,0,1.17,1.17,0,0,1-.33-.1l-3.5-2a.76.76,0,0,1-.21-.18h0a.34.34,0,0,1-.06-.21l0,1.34V571l0,0v0h0l.06.06a.27.27,0,0,0,.12.09h0l3,1.75s-.07.08-.13.1l-9.46,5.82a1.18,1.18,0,0,1-.33.12h0a1,1,0,0,1-.36.06h0a2,2,0,0,1-.34,0h0a.83.83,0,0,1-.29-.11l-3.51-2a.45.45,0,0,1-.2-.18h0a.54.54,0,0,1,0-.21l0,1.34V578s0,0,0,0l0,.06,0,0v0h0l.07.07a.48.48,0,0,0,.11.09h0l3.51,2a1,1,0,0,0,.21.09.15.15,0,0,0,.09,0l0,0h0a.29.29,0,0,0,.13,0,.16.16,0,0,0,.1,0h.19l.11,0,.09,0h.1l.13-.06.14-.07,6-3.66,0,.87h0a.13.13,0,0,0,0,0,.1.1,0,0,0,0,.06s0,0,0,.05l0,0h0v0s0,0,.05.07a.91.91,0,0,0,.13.08h0l5.29,3a.54.54,0,0,0,.22.09l.09,0h0s0,0,.06,0l.12,0h.31l.1,0,.09,0h0l.07,0,.12,0,.14-.08.41-.25,0,1.07h0l0,0a.26.26,0,0,0,0,.07l0,0,0,0v0l.07.07.11.09h0l2.63,1.49a.67.67,0,0,0,.21.09h.08l0,0h.48a.18.18,0,0,0,.1,0l.1,0h.09l.13,0c.06,0,.09-.06.14-.08l.61-.37,0,1.29v0s0,0,0,0a.56.56,0,0,1,0,.07l0,0,0,0h0l.06.09a.62.62,0,0,0,.12.08h0l.81.46a.57.57,0,0,1-.11.11l-3.73,2.29a1.27,1.27,0,0,1-.32.13h0l-.36.06h0a1.22,1.22,0,0,1-.34,0h0a.9.9,0,0,1-.3-.12l-4.63-2.65a.51.51,0,0,1-.18-.14l3.25-2a.52.52,0,0,0,.3-.41l.06-1.35a.61.61,0,0,1-.31.43l-3.73,2.29a1.31,1.31,0,0,1-.33.12v0a1.12,1.12,0,0,1-.36,0h0a1.23,1.23,0,0,1-.33,0h0a2,2,0,0,1-.29-.12l-4.64-2.64a.65.65,0,0,1-.19-.17v0a.4.4,0,0,1-.06-.22l0,1.35v.07l0,0s0,0,0,.05,0,0,0,0a0,0,0,0,1,0,0l0,0,0,.06.12.09h0l4.62,2.64.22.11h.08l0,0h.58l.11,0h0a.07.07,0,0,1,.06,0s.08,0,.12-.06l.14-.06.39-.23,0,1h0V586a.15.15,0,0,0,0,.06.08.08,0,0,1,0,0l0,0h0v0l.07.06a.27.27,0,0,0,.12.09h0l4.63,2.65.21.08h.09l0,0h.38l.1,0a.13.13,0,0,0,.09,0h.1l0,0h0l.07,0,.12,0a.29.29,0,0,0,.14-.08l.45-.28,0,1.14v0a.17.17,0,0,0,0,.08l0,.05,0,0h0v0l.06.07.11.09h0l4.62,2.65.21.09h.18a.32.32,0,0,0,.13,0h.39l.11,0h0l0,0a.43.43,0,0,0,.12,0,.39.39,0,0,0,.14-.08l.39-.22,0,1h0a.13.13,0,0,0,0,0,.12.12,0,0,0,0,.05s0,0,0,.06l0,0h0v0l.06.06a.63.63,0,0,0,.12.1h0l4.64,2.63a.72.72,0,0,0,.2.09.15.15,0,0,0,.09,0l0,0h0l.14,0h.31a.15.15,0,0,0,.09,0l.11,0h0l.06,0,.12,0a.61.61,0,0,0,.14-.07l.39-.23,0,1h0v0l0,0s0,.07,0,.08l0,0h0v0l.05.07.13.07h0l31.18,17.8a1,1,0,0,0,.21.09h.09l0,0h.47l.1,0,.1,0h0l.06,0a.65.65,0,0,0,.13,0l.14-.08.39-.23,0,1a.18.18,0,0,0,0,.06.12.12,0,0,1,0,0,.41.41,0,0,0,0,.07l0,0h0v0l.06.06a.38.38,0,0,0,.12.09h0l4.63,2.64a1.45,1.45,0,0,0,.22.09l.08,0h.54l.09,0,.09,0h0l.06,0,.11,0,.15-.08.39-.24,0,1h0s0,0,0,0a.56.56,0,0,1,0,.07.15.15,0,0,0,0,0v0h0s0,0,.06.07l.12.09h0l4.63,2.64a.83.83,0,0,0,.22.08l.08,0h.43l.09,0h.1l.1,0h0v0h.06l.13,0,.14-.08.38-.24,0,1h0v0l0,.06s0,0,0,.06l0,0h0l0,0a.23.23,0,0,0,0,.07l.13.09h0l4.64,2.64a.66.66,0,0,0,.21.08.19.19,0,0,0,.08,0h0s0,0,.06,0l.12,0h.41a.15.15,0,0,1,.09,0h.11l.12,0a.6.6,0,0,0,.13-.09l.4-.23,0,1s0,0,0,0a.31.31,0,0,0,0,.07s0,0,0,.06l0,0h0a0,0,0,0,1,0,0l.06.06.11.09h0l4.64,2.63a.53.53,0,0,0,.2.09l.08,0h.09a.36.36,0,0,0,.14,0,.14.14,0,0,0,.11,0h.2l.09,0,.11,0h.09l.12,0a.71.71,0,0,0,.15-.08l.37-.22,0,1v.07s0,0,0,0a.11.11,0,0,0,0,.06l0,0h0s0,0,0,0,0,.05.06.07a.25.25,0,0,0,.12.08h0l3.6,2.06a.51.51,0,0,0,.21.08l.08,0h.07l.14,0h.31a.38.38,0,0,0,.1,0h.14l.06,0,.13,0,.14-.07,3.73-2.3a.51.51,0,0,0,.3-.42l0-1.27h.06l.1,0h0l.07,0a.25.25,0,0,0,.11,0l.14-.08,3.73-2.28a.59.59,0,0,0,.31-.43l0-1,1.45.83a.66.66,0,0,0,.21.08.08.08,0,0,0,.08,0h0a.06.06,0,0,0,0,0h.43a.18.18,0,0,0,.1,0l.09,0h0l.06,0,.12,0,.13-.07,3.74-2.29a.55.55,0,0,0,.3-.43l0-.89.26.16.21.07a.15.15,0,0,0,.09,0,0,0,0,0,1,0,0h0l.14,0h.3l.11,0,.09,0a0,0,0,0,0,0,0h0l0,0,.14,0,.14-.07,3.73-2.29a.54.54,0,0,0,.3-.43l0-.9.28.15a.4.4,0,0,0,.21.09l.08,0h0l0,0a.29.29,0,0,1,.13,0h.41a.13.13,0,0,1,.09,0h.1l.13,0,.12-.09,3.74-2.29a.56.56,0,0,0,.32-.42l0-1.34a.58.58,0,0,1-.3.43l-3.74,2.29a1.34,1.34,0,0,1-.32.14h0a1.49,1.49,0,0,1-.36.05h0l-.34,0h0l-.29-.11-10.14-5.78a.66.66,0,0,1-.19-.18h0l0-.06,3.2-2a.54.54,0,0,0,.29-.43l0-.91,3.71,2.11.21.1.09,0h0l.05,0a.17.17,0,0,1,.12,0h.3l.1,0,.09,0h.11l.12-.05a.5.5,0,0,0,.14-.08l.39-.23,0,1v.06a.08.08,0,0,0,0,.05s0,0,0,.07h0v0l.06,0a.52.52,0,0,0,.11.1h0l4.63,2.64.21.09.09,0h0l.06,0a.28.28,0,0,1,.13,0h.3l.1,0,.1,0h0a.12.12,0,0,1,.08,0s.08,0,.11-.06l.14-.07.1-.06,3.64-2.23a.57.57,0,0,0,.3-.42l0-.91,2.44,1.4a.84.84,0,0,0,.21.08l.08,0h.52l.11,0a.16.16,0,0,0,.09,0h0s0,0,.07,0l.11,0a.53.53,0,0,0,.15-.08l3.73-2.28a.58.58,0,0,0,.31-.43l0-1.32a.54.54,0,0,1-.3.4Zm-86.37-40.12-5,3.08,0,1.34,1.74-1.07,0,1.12a.26.26,0,0,0,0,.07.2.2,0,0,1,0,.05.15.15,0,0,1,0,.07h0v0a.2.2,0,0,0,.07.06l.1.1h0l2,1.14s0,.08-.09.1l-3.74,2.3-.32.13h0a1.18,1.18,0,0,1-.37.05h0a1.93,1.93,0,0,1-.34,0h0a1.25,1.25,0,0,1-.31-.12l-9.16-5.23a.63.63,0,0,1-.21-.18h0a.3.3,0,0,1-.06-.2l0,1.34h0v.07s0,0,0,0a.3.3,0,0,0,0,.09s0,0,0,0h0v0l.06.06.12.08h0l4.17,2.4-.09.08-3.73,2.3a2.15,2.15,0,0,1-.32.13h0a1.59,1.59,0,0,1-.37.06h0l-.33,0h0a1.51,1.51,0,0,1-.3-.1l-6.1-3.5a.6.6,0,0,1-.21-.17h0a.25.25,0,0,1,0-.13l3.1-1.9a.58.58,0,0,0,.3-.43l0-.86.25.14.2.08.08,0h.06l0,0h.12a.2.2,0,0,1,.11,0h.1l.1,0h.09l.11,0h.1l.11-.06a.37.37,0,0,0,.14-.07l3.74-2.28a.6.6,0,0,0,.3-.43l0-.93,1.68,1a1.33,1.33,0,0,0,.21.09.16.16,0,0,0,.09,0h.61l.11,0h0l.06,0,.12-.05.14-.06,3.74-2.3a.61.61,0,0,0,.31-.43l0-1,4,2.3a.91.91,0,0,0,.22.09l.08,0h0l.06,0h.12a.12.12,0,0,0,.1,0h.2a.16.16,0,0,1,.1,0,.16.16,0,0,0,.09,0h0l.06,0,.12,0a1.19,1.19,0,0,0,.15-.09l.42-.25,0,1.07h0a.23.23,0,0,0,0,.07v.06s0,0,0,0a.07.07,0,0,1,0,0h0l0,.06.13.1h0l.69.38Z"/><path class="cls-4" d="M1266.58,570.88l-.12-.08-.06-.08h0l0,0,0,0a.15.15,0,0,0,0-.08v0h0l0-1-5.58,3.43a.48.48,0,0,0,.18.16l5,2.86a1.33,1.33,0,0,0,.3.11h0a1.94,1.94,0,0,0,.34,0h0a2.23,2.23,0,0,0,.36,0h0a1,1,0,0,0,.32-.13l3.74-2.3a.13.13,0,0,0,.07-.06l-4.56-2.6Z"/><path class="cls-4" d="M1273.72,568.14s-.09,0-.11-.08a.19.19,0,0,1-.06-.07l0,0h0s0,0,0,0l0,0a.22.22,0,0,0,0-.06v-.06h0l0-.92-.29.18-.14.08-.13,0,0,0h-.05l-.09,0-.1,0h-.52l-.08,0a.58.58,0,0,1-.21-.1l-1.8-1,0,.92a.56.56,0,0,1-.31.43l-3.24,2a.56.56,0,0,0,.18.16l5,2.85a1.25,1.25,0,0,0,.29.11l0,0a1.87,1.87,0,0,0,.34,0h0a1.93,1.93,0,0,0,.36-.06h0a1.66,1.66,0,0,0,.32-.13l3.73-2.29.12-.11-3.16-1.81Z"/><path class="cls-4" d="M1277.25,564.31a.55.55,0,0,1-.3.42l-3.27,2,.1.07,5,2.86a1.54,1.54,0,0,0,.3.11h.05a1.27,1.27,0,0,0,.34,0h0a1,1,0,0,0,.35-.06h0a1.13,1.13,0,0,0,.32-.13l3.73-2.29a.87.87,0,0,0,.14-.12l-6.75-3.86Z"/><path class="cls-4" d="M1286.24,580.74l-.38.22a.39.39,0,0,1-.14.08l-.13.05h-.1l-.1,0h-.62l-.09,0a.72.72,0,0,1-.2-.09l-4.8-2.73,0,.88a.58.58,0,0,1-.31.44l-3.21,2v0h0a.55.55,0,0,0,.19.18l4.64,2.64a.68.68,0,0,0,.29.11l0,0a1.77,1.77,0,0,0,.33,0h0a1.36,1.36,0,0,0,.36-.06h0a1.3,1.3,0,0,0,.32-.14l3.73-2.29a.67.67,0,0,0,.15-.13.35.35,0,0,0,0-.06l0-.06v-.06h0Z"/><path class="cls-4" d="M1289.55,590.68a.27.27,0,0,1-.12-.09.1.1,0,0,1,0-.06l0,0h0l0,0a.11.11,0,0,1,0-.05l0-.06v-.06h0l0-1-.39.24-.14.07-.12,0h-.1l-.1,0h-.4a.51.51,0,0,1-.13,0h-.07l0,0a.13.13,0,0,1-.09,0,.43.43,0,0,1-.21-.09l-2.49-1.41,0,1a.49.49,0,0,1-.3.41l-3.24,2a.66.66,0,0,0,.17.16l4.63,2.64a2.65,2.65,0,0,0,.3.11h.05a.93.93,0,0,0,.33,0h0a1.34,1.34,0,0,0,.35-.05h0l.32-.14,3.73-2.29a.69.69,0,0,0,.15-.14l-2-1.15Z"/><path class="cls-4" d="M1296.19,594.46a.57.57,0,0,1-.13-.08l-.06-.06a0,0,0,0,0,0,0h0s0,0,0,0a.08.08,0,0,1,0-.06.15.15,0,0,1,0-.07v0h0l0-1-.38.23-.14.08-.12,0-.06,0h0l-.1,0a.16.16,0,0,1-.1,0h-.43s0,0-.07,0h0l-.08,0-.22-.08-2.49-1.43,0,1a.6.6,0,0,1-.3.43l-3.25,2a.56.56,0,0,0,.18.16l4.63,2.64a1,1,0,0,0,.29.11h0a1.83,1.83,0,0,0,.33,0h0a2.23,2.23,0,0,0,.36-.05h0a1,1,0,0,0,.32-.14l3.73-2.3a.38.38,0,0,0,.15-.13l-2-1.14Z"/><path class="cls-4" d="M1302.82,598.26a.63.63,0,0,1-.12-.1l0,0,0,0h0s0,0,0,0a.06.06,0,0,0,0,0s0,0,0-.08v0h0l0-1-.39.23-.14.09-.12,0-.07,0h0l-.09,0h-.63a.11.11,0,0,0-.08,0,.81.81,0,0,1-.21-.1l-2.49-1.42,0,1a.56.56,0,0,1-.3.42l-3.25,2a1,1,0,0,0,.18.16l4.63,2.64a1.32,1.32,0,0,0,.3.1l0,0,.35,0h0a1.43,1.43,0,0,0,.35-.06h0a1.13,1.13,0,0,0,.32-.13l3.73-2.29a.69.69,0,0,0,.15-.14l-2-1.14Z"/><path class="cls-4" d="M1309.45,602l-.12-.09,0-.07h0l0,0a.25.25,0,0,1,0-.07l0-.06v-.05h0l0-1-.38.24-.14.07a.5.5,0,0,1-.13.05l-.06,0h0l-.09,0h-.1l-.1,0H1308l-.14,0h-.08l-.08,0c-.08,0-.15-.06-.21-.08l-2.49-1.43,0,1a.57.57,0,0,1-.3.44l-3.25,2a.66.66,0,0,0,.18.14l4.63,2.65a1,1,0,0,0,.3.11h0a.93.93,0,0,0,.33,0h0a2.25,2.25,0,0,0,.36-.06h0a1.13,1.13,0,0,0,.32-.13l3.73-2.3a.49.49,0,0,0,.15-.13l-2-1.14Z"/><path class="cls-4" d="M1316.11,605.83a.38.38,0,0,1-.12-.09.17.17,0,0,1-.06-.06l0,0h0l0,0,0-.06v-.11h0l0-1.06-.4.25-.14.08-.13,0h-.07l0,0-.09,0h-.53l-.06,0h-.12a1,1,0,0,1-.21-.1l-2.5-1.42,0,1a.56.56,0,0,1-.3.43l-3.24,2a.52.52,0,0,0,.19.16l4.63,2.64a1,1,0,0,0,.3.12h0a1.87,1.87,0,0,0,.34,0h0a2.08,2.08,0,0,0,.36-.05h0a.84.84,0,0,0,.32-.14l3.74-2.28a.71.71,0,0,0,.15-.15l-2-1.13Z"/><path class="cls-4" d="M1322.74,609.6l-.12-.07-.07-.07v0h0v0a.11.11,0,0,1,0-.06.26.26,0,0,1,0-.07s0,0,0,0h0l0-1-.39.24-.14.07-.12,0h-.11l-.09,0-.1,0h-.52a.32.32,0,0,1-.09,0,.76.76,0,0,1-.21-.08l-2.49-1.42,0,1c0,.15-.1.29-.31.42l-3.23,2a.65.65,0,0,0,.17.15l4.63,2.64a1,1,0,0,0,.3.1l0,0a1.88,1.88,0,0,0,.34,0h0l.35,0,0,0a1.53,1.53,0,0,0,.32-.13l3.73-2.3a.51.51,0,0,0,.16-.13l-2-1.14Z"/><path class="cls-4" d="M1329.37,613.4a.53.53,0,0,1-.12-.1l-.06,0v0h0l0-.05,0,0s0,0,0-.06V613h0l0-1-.39.24-.14.07-.12,0-.06,0h0l-.09,0-.1,0h-.53l-.08,0a.54.54,0,0,1-.22-.09l-2.49-1.42,0,1a.55.55,0,0,1-.3.43l-3.24,2a.4.4,0,0,0,.18.16l4.63,2.64a.79.79,0,0,0,.29.11l0,0,.34,0h0a1.53,1.53,0,0,0,.36-.07h0a.75.75,0,0,0,.32-.13l3.73-2.28a.53.53,0,0,0,.15-.15l-2-1.14Z"/><path class="cls-4" d="M1336,617.18a.36.36,0,0,1-.12-.08l-.06-.07,0,0h0l0,0s0,0,0-.05a.41.41,0,0,1,0-.07v-.05h0l0-1-.39.24a.52.52,0,0,1-.15.07.33.33,0,0,1-.12,0l-.05,0h-.15l-.09,0-.1,0h-.42l-.09,0a1,1,0,0,1-.21-.09l-2.49-1.43,0,1a.54.54,0,0,1-.3.42l-3.25,2a1.33,1.33,0,0,0,.17.16l4.64,2.64a1.1,1.1,0,0,0,.29.11h0a2,2,0,0,0,.34,0h0a1.36,1.36,0,0,0,.36-.05h0a1.44,1.44,0,0,0,.32-.13l3.72-2.29a1.22,1.22,0,0,0,.16-.14l-2-1.15Z"/><path class="cls-4" d="M1342.74,621a.57.57,0,0,1-.13-.08l0-.07v0h0l0,0s0,0,0-.06a.26.26,0,0,1,0-.07v0h0l0-1.16-.49.3-.15.08-.1,0-.07,0h0l-.1,0-.1,0h-.3l-.13,0H1341l-.09,0-.21-.08-2.49-1.43,0,1a.53.53,0,0,1-.3.43l-3.24,2a.38.38,0,0,0,.18.15l4.63,2.65a1.25,1.25,0,0,0,.29.11h0a1.83,1.83,0,0,0,.33,0h0a1.5,1.5,0,0,0,.37-.05h0a1.55,1.55,0,0,0,.32-.14l3.73-2.29a.41.41,0,0,0,.15-.14l-1.9-1.08Z"/><path class="cls-4" d="M1350,604.81l-.12-.08-.07-.07v0h0s0,0,0,0a.11.11,0,0,1,0-.06.17.17,0,0,1,0,0v-.06h0l0-1-.39.23a.37.37,0,0,1-.14.07.25.25,0,0,1-.12,0,.08.08,0,0,1-.07,0h0l-.09,0h-.4a.78.78,0,0,1-.14,0h0s0,0,0,0h-.09a.72.72,0,0,1-.2-.09l-3.72-2.12,0,.92a.62.62,0,0,1-.31.43l-3.24,2a.71.71,0,0,0,.18.16l4.63,2.64a.76.76,0,0,0,.3.1l0,0a1.94,1.94,0,0,0,.34,0h0a1.35,1.35,0,0,0,.35-.06h0a.84.84,0,0,0,.32-.14l3.74-2.29a.87.87,0,0,0,.11-.09l-.75-.43Z"/><path class="cls-4" d="M1343.34,601a1,1,0,0,1-.13-.09l0-.07h0v0a.09.09,0,0,1,0-.07.17.17,0,0,1,0,0v-.05h0l0-1-.39.25-.15.07-.11,0-.06,0h-.05l-.09,0-.09,0h-.48l-.06,0-.08,0-.21-.09-3.7-2.11,0,.91a.57.57,0,0,1-.31.43l-3.24,2a.51.51,0,0,0,.17.15l4.63,2.65.3.11h0a1.79,1.79,0,0,0,.34,0h0l.36,0h0a1.61,1.61,0,0,0,.32-.14l3.74-2.3a1.35,1.35,0,0,0,.11-.09l-.74-.44Z"/><path class="cls-4" d="M1336.7,597.25a.63.63,0,0,1-.12-.1s0,0-.06-.07h0v0l0,0s0,0,0,0a.13.13,0,0,1,0-.05.26.26,0,0,1,0-.07h0l0-1-.38.23a1,1,0,0,1-.15.07l-.12,0-.06,0h-.14l-.09,0h-.3l-.13,0,0,0h-.14a1.33,1.33,0,0,1-.21-.09L1331,594l0,.91a.6.6,0,0,1-.31.43l-3.24,2a.46.46,0,0,0,.19.17l4.63,2.64a1,1,0,0,0,.3.11h0a1.19,1.19,0,0,0,.33,0h0a1.41,1.41,0,0,0,.35,0h0a1.34,1.34,0,0,0,.32-.14l3.74-2.29a.57.57,0,0,0,.11-.11l-.75-.42Z"/><path class="cls-4" d="M1330.07,593.46l-.12-.08-.06-.08h0s0,0,0,0,0,0,0-.06v-.12l0-1.06-.41.26-.14.07-.12,0h-.1l-.1,0h-.53l0,0h0l-.09,0a.76.76,0,0,1-.21-.08l-3.71-2.12,0,.92a.59.59,0,0,1-.31.42l-3.25,2a.71.71,0,0,0,.18.16l4.63,2.64a1,1,0,0,0,.3.1h0a.87.87,0,0,0,.32,0h0a1.09,1.09,0,0,0,.36-.06h0a1,1,0,0,0,.32-.13l3.73-2.3.12-.09-.73-.42Z"/><path class="cls-4" d="M1323.42,589.66a.36.36,0,0,1-.12-.08l-.06-.07a0,0,0,0,1,0,0h0l0,0s0,0,0-.05a.45.45,0,0,1,0-.08v0l0-1-.39.23-.14.08-.13,0-.06,0h0l-.1,0h-.62a.13.13,0,0,1-.08,0,1.89,1.89,0,0,1-.21-.09l-3.71-2.11,0,.9a.56.56,0,0,1-.31.43l-3.24,2a.44.44,0,0,0,.17.16l4.64,2.65a1.42,1.42,0,0,0,.29.1l0,0,.34,0h0l.36-.06h0a1.15,1.15,0,0,0,.32-.14l3.74-2.29s.07-.07.11-.1l-.75-.42Z"/><path class="cls-4" d="M1316.79,585.88a.38.38,0,0,1-.13-.09s-.05,0-.05-.06l0,0h0s0,0,0,0l0,0a.39.39,0,0,1,0-.06v-.06h0l0-1-.38.25-.15.07-.12.05h-.1l-.1,0-.09,0h-.31a.37.37,0,0,0-.14,0h-.08l-.08,0-.22-.08-3.7-2.12,0,.92a.53.53,0,0,1-.3.42l-3.24,2a.42.42,0,0,0,.17.15l4.63,2.65a1,1,0,0,0,.3.1s0,0,.05,0a1.76,1.76,0,0,0,.33,0h0a2.08,2.08,0,0,0,.36,0h0a1.62,1.62,0,0,0,.33-.13l3.72-2.3a.58.58,0,0,0,.12-.1l-.74-.42Z"/><path class="cls-4" d="M1310.15,582.09a.36.36,0,0,1-.12-.08l-.06-.07h0v0l0,0s0,0,0,0a.18.18,0,0,1,0-.06v-.06l0-1-.39.23-.14.08-.12,0-.06,0h-.15l-.09,0h-.3l-.12,0h-.1l-.08,0a.85.85,0,0,1-.22-.09l-3.71-2.12,0,.92a.55.55,0,0,1-.3.42l-3.25,2a.57.57,0,0,0,.18.16l4.63,2.64a1.34,1.34,0,0,0,.3.12h0a2,2,0,0,0,.34,0h0a2.11,2.11,0,0,0,.35,0h0a1,1,0,0,0,.32-.14l3.74-2.28s.07-.08.11-.11l-.75-.43Z"/><path class="cls-4" d="M1303.52,578.31a.6.6,0,0,1-.13-.09.22.22,0,0,1-.06-.07h0a.07.07,0,0,1,0,0l0,0,0-.06v-.06h0l0-1-.39.24-.15.08-.11,0h-.2a.2.2,0,0,1-.1,0h-.43l-.05,0h0l-.08,0a.67.67,0,0,1-.21-.09l-3.71-2.11,0,.9a.57.57,0,0,1-.31.43l-3.25,2a.54.54,0,0,0,.18.15l4.63,2.65a1.06,1.06,0,0,0,.3.1l.05,0a1.79,1.79,0,0,0,.33,0h0a2.09,2.09,0,0,0,.36,0h0a1.44,1.44,0,0,0,.31-.13l3.74-2.3a.27.27,0,0,0,.11-.1l-.74-.41Z"/><path class="cls-4" d="M1296.88,574.53l-.12-.09-.07-.07v0h0s0,0,0,0a.14.14,0,0,1,0-.06l0,0v-.06h0l0-1-.38.24-.15.06-.13.06h-.09l-.1,0h-.4l-.12,0h-.1l-.09,0-.2-.08-3.78-2.16,0,.91a.58.58,0,0,1-.31.43l-3.22,2,0,0h0a.72.72,0,0,0,.2.18l4.63,2.64a1,1,0,0,0,.3.1l0,0a1.88,1.88,0,0,0,.34,0h0a1.51,1.51,0,0,0,.36-.06h0a1.15,1.15,0,0,0,.32-.14l3.73-2.29a.32.32,0,0,0,.12-.11l-.75-.42Z"/><path class="cls-4" d="M1294.35,579.88l-.12-.09a.81.81,0,0,1-.06-.08h0v0s0,0,0,0,0,0,0-.06a.41.41,0,0,1,0-.07v0h0l0-1-.38.23-.15.08-.12.05h-.1l-.1,0h-.62l-.09,0-.2-.08-2.44-1.4,0,.91a.55.55,0,0,1-.3.41l-3.25,2a.53.53,0,0,0,.17.16l4.63,2.64a1,1,0,0,0,.3.1h0a2,2,0,0,0,.34,0h0a1.36,1.36,0,0,0,.35-.07h0a1.93,1.93,0,0,0,.32-.13l3.74-2.3.1-.09-2-1.15Z"/><path class="cls-4" d="M1299.48,589.39v0h0l0-1-.37.22-.15.09-.13,0-.06,0h0l-.1,0h-.53l-.06,0h0l-.09,0a.4.4,0,0,1-.2-.09l-4.64-2.63h0l-.09-.06,0,.9a.5.5,0,0,1-.31.42l-3.24,2a.46.46,0,0,0,.18.16l4.63,2.64a1,1,0,0,0,.3.12h0a1.75,1.75,0,0,0,.33,0h0a1.36,1.36,0,0,0,.35-.07h0a1.3,1.3,0,0,0,.32-.14l3.73-2.28a.58.58,0,0,0,.16-.15l0,0A.2.2,0,0,0,1299.48,589.39Z"/><path class="cls-4" d="M1305.76,592.32l-.14.07-.12.05-.06,0h0l-.09,0h-.54l0,0h-.12l-.22-.09-4.63-2.65h0l-.08-.07,0,.9a.56.56,0,0,1-.31.43l-3.24,2a1.58,1.58,0,0,0,.18.15l4.63,2.64a1.1,1.1,0,0,0,.29.11h0a1.77,1.77,0,0,0,.33,0h0a2.39,2.39,0,0,0,.36,0h0l.32-.14,3.73-2.3a.54.54,0,0,0,.16-.14l0,0s0,0,0-.06v0l0-1Z"/><path class="cls-4" d="M1312.75,597v-.05l0-1-.38.23-.14.09-.12,0H1312l-.1,0-.09,0h-.19a.23.23,0,0,1-.12,0h-.12l-.07,0h0a.15.15,0,0,1-.09,0,.56.56,0,0,1-.21-.09l-4.63-2.64h0l-.09-.06,0,.9a.58.58,0,0,1-.31.43l-3.24,2a.71.71,0,0,0,.18.16l4.64,2.64a.83.83,0,0,0,.29.1l0,0a1.23,1.23,0,0,0,.33,0h0a1.43,1.43,0,0,0,.36-.06h0a1.2,1.2,0,0,0,.33-.13l3.73-2.3a1.12,1.12,0,0,0,.16-.13l0-.07A.35.35,0,0,1,1312.75,597Z"/><path class="cls-4" d="M1319.4,600.69l0-1.05-.41.25-.14.07-.12.06h-.11l-.1,0H1318l-.09,0-.21-.08L1313,597.3h0l-.08-.07,0,.91a.56.56,0,0,1-.31.42l-3.24,2a.85.85,0,0,0,.17.14l4.64,2.65a1.1,1.1,0,0,0,.29.1l0,0a2,2,0,0,0,.35,0h0a2.27,2.27,0,0,0,.35,0h0a1.46,1.46,0,0,0,.31-.14l3.74-2.29a1.29,1.29,0,0,0,.17-.15s0,0,0,0a.32.32,0,0,0,0-.08v0Z"/><path class="cls-4" d="M1326,604.55v-.06l0-1-.38.24-.14.07-.12,0-.07,0h0l0,0h-.1l-.1,0h-.31l-.12,0h-.19a1.21,1.21,0,0,1-.2-.09l-4.63-2.64h0l-.1-.09,0,.91a.59.59,0,0,1-.31.42l-3.23,2a.62.62,0,0,0,.18.18l4.64,2.63a.92.92,0,0,0,.29.11h.05l.33,0h0a2,2,0,0,0,.35,0l0,0a.85.85,0,0,0,.31-.13l3.74-2.28.16-.15a.11.11,0,0,1,0-.06Z"/><path class="cls-4" d="M1332.67,608.33v-.06l0-1-.39.23a.29.29,0,0,1-.14.08l-.12.05-.06,0h-.15a.15.15,0,0,1-.09,0h-.48l0,0h-.08a1,1,0,0,1-.21-.09l-4.63-2.64h0s0,0-.08-.06l0,.9a.59.59,0,0,1-.3.43l-3.25,2a.83.83,0,0,0,.17.15l4.64,2.64a.59.59,0,0,0,.29.1l0,0a2,2,0,0,0,.34,0h0l.36-.05h0a.92.92,0,0,0,.32-.14l3.73-2.28a.59.59,0,0,0,.16-.15s0,0,0-.05S1332.67,608.36,1332.67,608.33Z"/><path class="cls-4" d="M1339.3,612.12v-.06h0l0-1-.38.24-.14.08-.13,0-.06,0h0l-.1,0h-.4a.25.25,0,0,1-.12,0h-.1l-.08,0a1,1,0,0,1-.21-.08l-4.64-2.65h0l-.09-.07,0,.91a.52.52,0,0,1-.3.42l-3.25,2a.66.66,0,0,0,.18.14l4.63,2.65a1.33,1.33,0,0,0,.3.11.07.07,0,0,1,0,0l.34,0h0l.35-.06h0a1.27,1.27,0,0,0,.32-.13l3.73-2.29a.53.53,0,0,0,.15-.15l0-.06A.1.1,0,0,0,1339.3,612.12Z"/><path class="cls-4" d="M1340.81,606.37a.36.36,0,0,1-.12-.08.22.22,0,0,1-.06-.07v0h0a0,0,0,0,0,0,0s0,0,0,0,0,0,0-.06V606h0l0-1-.39.24-.14.06-.12,0-.06,0h0l0,0h-.1l-.1,0h-.31l-.13,0H1339l-.21-.1-2.44-1.39,0,.9a.6.6,0,0,1-.3.43l-3.25,2a.68.68,0,0,0,.18.15l4.63,2.66a1.32,1.32,0,0,0,.3.09h0a1.19,1.19,0,0,0,.33,0h0a1.09,1.09,0,0,0,.36-.06h0a1,1,0,0,0,.32-.13l3.75-2.3.09-.09-2-1.14Z"/><path class="cls-4" d="M1334.17,602.59l-.12-.09,0-.06s0,0,0,0h0s0,0,0,0a.14.14,0,0,1,0-.06s0,0,0-.07v0h0l0-1-.38.24-.15.07a.25.25,0,0,1-.12,0l0,0h0l-.1,0h-.4a1.15,1.15,0,0,1-.14,0h0l0,0h-.08a.78.78,0,0,1-.21-.09l-2.44-1.39,0,.9a.57.57,0,0,1-.3.42l-3.25,2a.52.52,0,0,0,.17.16l4.64,2.64a1.1,1.1,0,0,0,.29.11h0l.34,0h0a2,2,0,0,0,.35-.06h0a1.13,1.13,0,0,0,.32-.13l3.73-2.3c.05,0,.07-.06.1-.09l-2-1.14Z"/><path class="cls-4" d="M1327.54,598.8a.31.31,0,0,1-.11-.08l-.07-.07v0h0l0,0s0,0,0-.05,0,0,0-.07v-.05h0l0-1.07-.41.25-.14.08-.12,0-.06,0h0a.18.18,0,0,0-.1,0h-.57l-.05,0s-.06,0-.08,0a.48.48,0,0,1-.21-.07l-2.44-1.39,0,.89a.57.57,0,0,1-.31.43l-3.23,2a.51.51,0,0,0,.18.18l4.63,2.65a1.32,1.32,0,0,0,.3.09h0a1.75,1.75,0,0,0,.33,0h0c.13,0,.24,0,.36-.06h0a1.33,1.33,0,0,0,.32-.15l3.74-2.29.1-.09-2-1.15Z"/><path class="cls-4" d="M1320.89,595l-.12-.09-.06-.07h0v0a0,0,0,0,1,0,0l0,0s0,0,0-.08v0l0-1-.39.23-.14.08-.11,0-.07,0h-.14a.13.13,0,0,1-.09,0h-.62a.75.75,0,0,1-.2-.1l-2.44-1.39,0,.91a.53.53,0,0,1-.29.42l-3.25,2a.65.65,0,0,0,.17.15l4.63,2.65a1.32,1.32,0,0,0,.3.1l0,0a1.72,1.72,0,0,0,.33,0h0a2.08,2.08,0,0,0,.36,0h0a1.64,1.64,0,0,0,.33-.14l3.73-2.29.1-.09-2-1.14Z"/><path class="cls-4" d="M1314.26,591.23l-.12-.08-.06-.07s0,0,0,0h0l0,0s0,0,0-.06,0-.05,0-.05a.18.18,0,0,1,0-.06h0l0-1-.39.24a1.09,1.09,0,0,1-.15.08l-.12,0-.06,0h0l0,0-.1,0-.1,0h-.44l0,0h0l-.08,0a1,1,0,0,1-.21-.08l-2.44-1.39,0,.9a.56.56,0,0,1-.31.42l-3.24,2a.49.49,0,0,0,.17.15l4.63,2.65a1.08,1.08,0,0,0,.3.11h.05a1.27,1.27,0,0,0,.34,0h0a1.09,1.09,0,0,0,.36-.06h0a.8.8,0,0,0,.32-.13l3.73-2.29a.43.43,0,0,0,.1-.09l-2-1.15Z"/><path class="cls-4" d="M1307.62,587.45a.74.74,0,0,0-.12-.09s0,0-.06-.07v0h0l0,0s0,0,0-.05a.2.2,0,0,0,0-.06v-.06h0l0-1-.38.23-.15.08-.12,0,0,0h0l-.1,0-.1,0h-.53s-.06,0-.08,0a1.45,1.45,0,0,1-.22-.09l-2.44-1.39,0,.9a.55.55,0,0,1-.3.43l-3.24,2a.58.58,0,0,0,.18.16l4.62,2.64a1.32,1.32,0,0,0,.3.1h0a1.34,1.34,0,0,0,.34,0h0a2.08,2.08,0,0,0,.36-.06h0l.32-.13,3.73-2.3a.32.32,0,0,0,.1-.1l-2-1.13Z"/><path class="cls-4" d="M1301,583.67l-.11-.09-.06-.07a0,0,0,0,1,0,0h0v0l0-.05,0-.06v-.06h0l0-1-.4.26-.13.06-.12.05h-.1s-.07,0-.1,0h-.41a.27.27,0,0,1-.12,0h-.1l-.08,0-.21-.08-2.44-1.39,0,.9a.53.53,0,0,1-.3.42l-3.25,2a1,1,0,0,0,.18.15l4.63,2.64a.72.72,0,0,0,.3.11h0a1.94,1.94,0,0,0,.34,0h0a1.49,1.49,0,0,0,.36,0h0a1.24,1.24,0,0,0,.33-.15l3.73-2.29a.7.7,0,0,0,.1-.08l-2-1.15Z"/><path class="cls-4" d="M1347.44,610.16a.24.24,0,0,1-.11-.09l-.06-.06,0,0h0l0,0a.1.1,0,0,0,0-.06.15.15,0,0,0,0-.07v-.06l0-1-.38.24-.15.08-.12,0-.06,0h0a.2.2,0,0,1-.1,0l-.1,0-.1,0h-.2a.32.32,0,0,0-.14,0l0,0h0l-.08,0a.49.49,0,0,1-.21-.08l-2.45-1.39,0,.9a.54.54,0,0,1-.31.42l-3.25,2a.52.52,0,0,0,.18.15l4.63,2.65a1.33,1.33,0,0,0,.3.11h0a1.27,1.27,0,0,0,.34,0h0a1.34,1.34,0,0,0,.35,0h0a1.3,1.3,0,0,0,.32-.14l3.73-2.29c.05,0,.07-.06.1-.1l-2-1.14Z"/><path class="cls-4" d="M1345.93,615.9v-.06h0l0-1-.39.23-.14.07-.12,0h-.1l-.1,0-.1,0h-.3l-.14,0h0l0,0h-.08a.85.85,0,0,1-.22-.09l-4.62-2.65h0l-.08-.06,0,.9a.55.55,0,0,1-.3.43l-3.24,2a.61.61,0,0,0,.17.15l4.64,2.64a.83.83,0,0,0,.29.11h0a1.2,1.2,0,0,0,.33,0h0a1.34,1.34,0,0,0,.35,0h0a1,1,0,0,0,.32-.14l3.73-2.29a.73.73,0,0,0,.16-.14l0,0Z"/><path class="cls-4" d="M1292.88,584.51l-.38.25-.15.06-.12.06h-.07l0,0h-.1l-.1,0h-.43l0,0h0l-.09,0-.21-.08-4.63-2.65h0l-.08,0,0,.9a.56.56,0,0,1-.31.42l-3.24,2a.71.71,0,0,0,.18.16l4.63,2.64a1.25,1.25,0,0,0,.29.11h0a1.27,1.27,0,0,0,.34,0h0a1.49,1.49,0,0,0,.36-.05h0a1.83,1.83,0,0,0,.32-.14l3.73-2.29a.78.78,0,0,0,.16-.15l0,0a.29.29,0,0,0,0-.08v0h0Z"/><path class="cls-4" d="M1298.13,568.47l-.12-.08-.06-.08v0h0l0,0a.11.11,0,0,1,0-.06s0,0,0-.07v0l.05-1.12-.46.28a.37.37,0,0,1-.14.07.45.45,0,0,1-.12.06l-.07,0h0l-.1,0h-.1l-.11,0h-.42l-.08,0a1.45,1.45,0,0,1-.22-.09l-2.4-1.38,0,.9a.56.56,0,0,1-.31.43l-3.23,2h0a1,1,0,0,0,.21.19l4.63,2.64a1.32,1.32,0,0,0,.3.1h0a1.24,1.24,0,0,0,.33,0h0a1.35,1.35,0,0,0,.35-.06h0a1.75,1.75,0,0,0,.33-.13l3.73-2.3s.07-.06.1-.09l-2-1.14Z"/><path class="cls-4" d="M1304.76,572.25a.2.2,0,0,1-.11-.09.11.11,0,0,1-.06-.07h0s0,0,0,0,0,0,0-.06v-.11h0l0-1-.39.24-.14.07-.12.05h-.11l-.09,0-.1,0h-.3a.28.28,0,0,1-.13,0l-.05,0H1303l-.21-.08-2.44-1.39,0,.9a.54.54,0,0,1-.31.41l-3.23,2a.66.66,0,0,0,.17.16l4.63,2.64a1,1,0,0,0,.3.1l.05,0a1.72,1.72,0,0,0,.34,0h0a1.42,1.42,0,0,0,.36-.05h0a1,1,0,0,0,.32-.14l3.74-2.29s.06-.06.1-.09l-2-1.16Z"/><path class="cls-4" d="M1311.4,576l-.12-.09-.07-.07v0h0l0,0,0-.05a.11.11,0,0,0,0-.06v-.06h0l0-1-.38.23-.15.08-.12,0-.06,0h0l-.1,0h-.63l-.08,0a.85.85,0,0,1-.22-.09l-2.42-1.38,0,.9a.52.52,0,0,1-.3.42l-3.24,2a1,1,0,0,0,.18.14l4.63,2.65a1,1,0,0,0,.29.1l.06,0a1.67,1.67,0,0,0,.33,0h0a2.27,2.27,0,0,0,.35,0h0a3.09,3.09,0,0,0,.32-.14l3.73-2.3a.45.45,0,0,0,.1-.09l-2-1.14Z"/><path class="cls-4" d="M1318,579.82l-.13-.08-.05-.07,0,0h0l0,0,0-.06a.35.35,0,0,0,0-.06v0h0l0-1-.38.23a.53.53,0,0,1-.15.08l-.12,0h-.06v0h0l-.1,0-.1,0h-.48l0,0s-.06,0-.08,0a1,1,0,0,1-.21-.08l-2.44-1.39,0,.9a.56.56,0,0,1-.31.42l-3.24,2a.43.43,0,0,0,.17.16l4.64,2.65a.83.83,0,0,0,.29.1h0a1.84,1.84,0,0,0,.33,0h0a1.35,1.35,0,0,0,.35-.06h0a.9.9,0,0,0,.32-.13l3.74-2.3a.34.34,0,0,0,.09-.08l-2-1.15Z"/><path class="cls-4" d="M1324.66,583.61a.48.48,0,0,1-.11-.09l-.06-.06v0h0a.11.11,0,0,0,0-.05s0,0,0,0a.2.2,0,0,0,0-.05v-.06h0l0-1-.38.23-.15.08-.12,0-.06,0h0l-.1,0h-.53l0,0h0l-.08,0a.5.5,0,0,1-.21-.09l-2.44-1.39,0,.91a.51.51,0,0,1-.3.41l-3.24,2a.36.36,0,0,0,.18.16l4.62,2.64.3.12h0a1.38,1.38,0,0,0,.35,0h0a1.13,1.13,0,0,0,.36-.06h0a1.22,1.22,0,0,0,.33-.14l3.73-2.28c.05,0,.06-.07.1-.1l-2-1.14Z"/><path class="cls-4" d="M1331.3,587.39a.31.31,0,0,1-.11-.09s0,0-.07-.07h0s0,0,0,0,0,0,0,0v-.06a.13.13,0,0,1,0-.05h0l0-1-.38.23-.15.07-.11.05h-.11l-.1,0-.08,0h-.54l-.09,0a.52.52,0,0,1-.2-.08l-2.45-1.39,0,.89a.57.57,0,0,1-.31.43l-3.24,2a.54.54,0,0,0,.18.15l4.63,2.64a.73.73,0,0,0,.29.11h0a.92.92,0,0,0,.33,0h0a1.34,1.34,0,0,0,.35,0h0a1.27,1.27,0,0,0,.32-.13l3.74-2.3.09-.08-2-1.15Z"/><path class="cls-4" d="M1338,591.19s-.1-.05-.12-.1,0,0-.06-.06l0,0h0l0,0,0-.06s0,0,0-.07v-.05h0l0-1.06-.4.24-.14.08-.13.05h-.1l-.1,0h-.4l-.14,0h-.08l-.08,0a1,1,0,0,1-.21-.09l-2.44-1.39,0,.9a.54.54,0,0,1-.3.42l-3.25,2a.79.79,0,0,0,.19.17l4.64,2.64a1.17,1.17,0,0,0,.3.11h0a1.35,1.35,0,0,0,.35,0h0a1.34,1.34,0,0,0,.35,0h0a1.34,1.34,0,0,0,.32-.13l3.74-2.3a.41.41,0,0,0,.1-.09l-2-1.15Z"/><path class="cls-4" d="M1344.58,595l-.12-.09a.18.18,0,0,1,0-.07h0v0l0,0a.23.23,0,0,1,0-.07v0h0l0-1-.37.23-.15.07a.31.31,0,0,1-.12,0l-.07,0h0l-.1,0h-.41l-.14,0h-.08l-.08,0-.21-.08-2.44-1.39,0,.9a.57.57,0,0,1-.3.42l-3.24,2a.34.34,0,0,0,.17.14l4.63,2.65a1,1,0,0,0,.3.11h0a1,1,0,0,0,.34,0h0a1,1,0,0,0,.35-.06h0a1.53,1.53,0,0,0,.32-.13l3.73-2.3s.07-.06.11-.09l-2-1.15Z"/><path class="cls-4" d="M1351.22,598.76l-.12-.09-.06-.07h0s0,0,0,0l0-.07v-.05l0,0h0l0-1-.38.24-.16.07-.11,0-.06,0h0l0,0h-.1l-.09,0-.1,0h-.21l-.14,0h-.08l-.09,0a1.21,1.21,0,0,1-.2-.09l-2.44-1.39,0,.9a.52.52,0,0,1-.3.42l-3.25,2a.77.77,0,0,0,.19.16l4.64,2.64a.86.86,0,0,0,.28.11h0a1.25,1.25,0,0,0,.34,0h0a1.41,1.41,0,0,0,.35-.05h0a1.3,1.3,0,0,0,.32-.14l3.73-2.29a.32.32,0,0,0,.1-.1l-2-1.14Z"/><path class="cls-4" d="M1357.85,602.53l-.12-.08,0-.06,0,0h0l0,0a.11.11,0,0,1,0-.06.21.21,0,0,1,0-.06v-.05h0l0-1-.39.23a1.48,1.48,0,0,1-.13.08l-.12.05h-.11l-.1,0h-.62l-.08,0-.22-.08-2.43-1.4,0,.91a.54.54,0,0,1-.3.41l-3.25,2a.83.83,0,0,0,.17.15l4.64,2.65a2,2,0,0,0,.29.1h0a2,2,0,0,0,.34,0h0l.37,0h0c.11-.05.23-.09.32-.14l3.73-2.29a.73.73,0,0,1,.11-.09l-2-1.16Z"/><path class="cls-4" d="M1371.12,610.11,1371,610l-.06-.06s0,0,0,0v0l0,0,0,0a.35.35,0,0,0,0-.06v-.06h0l0-1-.38.23-.15.08-.12,0h-.1l-.1,0-.1,0h-.47l0,0-.09,0a.54.54,0,0,1-.2-.1l-2.44-1.38,0,.9a.56.56,0,0,1-.3.43l-3.25,2a1.36,1.36,0,0,0,.17.16l4.64,2.64a1.6,1.6,0,0,0,.29.11h0a1.87,1.87,0,0,0,.34,0h0a2,2,0,0,0,.35-.06h0a2.37,2.37,0,0,0,.32-.13l3.73-2.3.11-.09-2-1.14Z"/><path class="cls-4" d="M1364.49,606.32a.38.38,0,0,1-.12-.09l-.06-.06v0h0l0,0a.06.06,0,0,1,0-.05.35.35,0,0,0,0-.06v-.06l0-1-.39.24-.14.07-.13,0,0,0h0l-.1,0h-.4a.41.41,0,0,1-.15,0h-.08l-.08,0-.22-.07-2.43-1.39,0,.89a.59.59,0,0,1-.3.43l-3.24,2a.48.48,0,0,0,.18.16l4.62,2.64a1,1,0,0,0,.31.1l0,0a1.88,1.88,0,0,0,.34,0h0a1.63,1.63,0,0,0,.36,0h0a1,1,0,0,0,.32-.14l3.73-2.28a.45.45,0,0,0,.1-.09l-2-1.16Z"/><path class="cls-4" d="M1356.6,608.59l-.12-.08a.13.13,0,0,1,0-.07l0,0h0l0,0s0,0,0,0a.35.35,0,0,0,0-.07v0h0l0-1-.38.24-.14.06-.12.06h-.21l-.09,0h-.31l-.14,0h-.16l-.22-.1-3.7-2.11,0,.91a.56.56,0,0,1-.3.43l-3.24,2a.86.86,0,0,0,.17.15l4.63,2.64a1,1,0,0,0,.3.11h0a1.3,1.3,0,0,0,.34,0h0a1.36,1.36,0,0,0,.36-.05h0l.32-.13,3.73-2.3c.06,0,.08-.07.12-.1l-.74-.43Z"/><path class="cls-4" d="M1354.17,614l-.12-.1,0-.06,0,0h0l0,0a.06.06,0,0,0,0,0,.35.35,0,0,0,0-.06v-.06h0l0-1.15-.48.3-.14.07-.12.06h-.1l-.1,0h-.4a.41.41,0,0,1-.15,0h-.08l-.09,0-.2-.08-2.44-1.4,0,.91a.59.59,0,0,1-.3.41l-3.25,2a.73.73,0,0,0,.18.16l4.63,2.64a1.24,1.24,0,0,0,.29.1l0,0a1.88,1.88,0,0,0,.34,0h0a1.51,1.51,0,0,0,.36-.06h0a1.13,1.13,0,0,0,.32-.13l3.74-2.29.1-.09-1.91-1.1Z"/><path class="cls-4" d="M1356.26,616.11a.6.6,0,0,1-.31.43l-3.25,2a.56.56,0,0,0,.18.16l5.76,3.28a1,1,0,0,0,.29.11h0a2,2,0,0,0,.35,0h0c.12,0,.24,0,.36-.06h0a1.15,1.15,0,0,0,.32-.14l3.74-2.29.1-.09-7.57-4.32Z"/><path class="cls-4" d="M1352.82,620l-.12-.09,0-.06,0,0v0a0,0,0,0,1,0,0l0,0a.22.22,0,0,0,0-.06v-.06h0l0-1-.38.24-.15.07-.13,0,0,0h-.05l-.09,0h-.53l0,0h0l-.09,0a.61.61,0,0,1-.2-.09l-4.64-2.63v0l-.09-.06,0,.9a.49.49,0,0,1-.31.42l-3.19,2a0,0,0,0,0,0,0h0a.71.71,0,0,0,.2.18l10.13,5.78a1.33,1.33,0,0,0,.3.11h0a1,1,0,0,0,.35,0h0a1.07,1.07,0,0,0,.35-.06h0a1,1,0,0,0,.32-.13l3.74-2.29.1-.09-5.31-3Z"/><path class="cls-4" d="M1344.76,623.17a.53.53,0,0,1-.31.41l-3.24,2a1,1,0,0,0,.18.16l4.63,2.63a1,1,0,0,0,.3.11h0a1.27,1.27,0,0,0,.34,0h0a2.23,2.23,0,0,0,.36,0h0a1,1,0,0,0,.32-.14l3.74-2.28a.47.47,0,0,0,.14-.14l-6.48-3.7Z"/><path class="cls-4" d="M1346.7,629.86h-.34l-.07,0h-.11a1,1,0,0,1-.21-.1l-4.63-2.64h0l-.11-.07,0,.93a.53.53,0,0,1-.3.43l-3.25,2a.46.46,0,0,0,.18.16l3.59,2a.83.83,0,0,0,.29.1l0,0,.33,0h0a2.08,2.08,0,0,0,.36-.06h0a.9.9,0,0,0,.32-.13l3.74-2.29a.56.56,0,0,0,.27-.34h-.1Z"/><path class="cls-4" d="M1341.08,626.75v-.07h0l0-1-.38.25-.14.06-.12,0h-.07l0,0h-.09l-.1,0h-.3a.61.61,0,0,1-.13,0h-.18l-.22-.09-4.62-2.64h0l-.11-.08,0,.94a.56.56,0,0,1-.31.41l-3.24,2a.71.71,0,0,0,.18.16l4.62,2.64a1.41,1.41,0,0,0,.31.1l0,0a1.27,1.27,0,0,0,.34,0h0a1.47,1.47,0,0,0,.36,0s0,0,0,0a1.22,1.22,0,0,0,.33-.14l3.73-2.29a.9.9,0,0,0,.18-.15.11.11,0,0,1,0-.06Z"/><path class="cls-4" d="M1334.44,622.89l0-1-.39.24-.14.07-.13.05-.06,0h0l-.11,0-.1,0h-.3a.28.28,0,0,1-.13,0H1333l0,0a.15.15,0,0,1-.09,0,1.33,1.33,0,0,1-.21-.09l-4.64-2.64h0a.31.31,0,0,1-.11-.09l0,.94a.56.56,0,0,1-.31.42l-3.25,2a1,1,0,0,0,.18.15l4.63,2.64a1.45,1.45,0,0,0,.29.11h0a1.3,1.3,0,0,0,.34,0h0a1.48,1.48,0,0,0,.35-.05h0a1.22,1.22,0,0,0,.33-.14l3.73-2.29a1,1,0,0,0,.18-.16l0,0v-.11Z"/><path class="cls-4" d="M1327.8,619.17v-.06h0l0-1-.39.23a.5.5,0,0,1-.14.08l-.12,0-.06,0h-.05l-.09,0h-.1l-.09,0h-.1a.23.23,0,0,0-.11,0h-.22l-.08,0a.85.85,0,0,1-.22-.09l-4.63-2.64h0l-.11-.07,0,.92a.6.6,0,0,1-.3.43l-3.25,2a.87.87,0,0,0,.17.16l4.64,2.64a1,1,0,0,0,.3.1h0a1.27,1.27,0,0,0,.34,0h0a1.13,1.13,0,0,0,.36-.06h0a1.2,1.2,0,0,0,.33-.13l3.73-2.3a.66.66,0,0,0,.17-.16s0,0,0,0S1327.8,619.2,1327.8,619.17Z"/><path class="cls-4" d="M1321.21,614.29l-.4.24-.13.07-.13,0-.06,0h0l-.09,0h-.4l-.15,0h-.07l-.09,0a.72.72,0,0,1-.2-.09l-4.65-2.64h0l-.1-.08,0,.93a.53.53,0,0,1-.29.42l-3.25,2a.63.63,0,0,0,.17.15l4.63,2.64a1.34,1.34,0,0,0,.3.12h0l.33,0h0a1.35,1.35,0,0,0,.35-.06h0a1.83,1.83,0,0,0,.32-.14l3.73-2.29a.56.56,0,0,0,.18-.16.05.05,0,0,1,0,0,.25.25,0,0,1,0-.07v0h0Z"/><path class="cls-4" d="M1314.54,611.61a.23.23,0,0,1,0-.07h0l0-1-.38.23a1.09,1.09,0,0,1-.15.08l-.11,0-.07,0h0l-.1,0-.1,0h-.52l-.09,0a.72.72,0,0,1-.2-.09l-4.64-2.64h0l-.11-.09L1308,608v0h0l0,0s0,0,0-.06v-.11h0l0-1.06-.41.25-.14.07-.12.05h-.11l-.09,0h-.62l-.09,0a.6.6,0,0,1-.2-.08l-4.64-2.64h0l-.12-.1-.06-.06s0,0,0,0h0l0,0,0-.06s0-.05,0-.05V604h0l0-1-.38.24-.14.08-.12,0h-.1l-.1,0-.09,0h-.44l-.05,0h0l-.08,0a.66.66,0,0,1-.21-.08l-4.64-2.65h0l-.12-.09a.34.34,0,0,0-.06-.06h0v0h0l0-.06v-.11h0l0-1-.39.24-.14.07-.11,0-.07,0h0a.29.29,0,0,1-.1,0,.2.2,0,0,0-.1,0h-.3l-.13,0h-.09a.15.15,0,0,0-.09,0,1,1,0,0,1-.21-.09l-4.63-2.63v0a.36.36,0,0,1-.12-.08.22.22,0,0,1-.06-.07v0h0s0,0,0,0l0,0,0-.07v-.06h0l0-1-.39.24a.84.84,0,0,1-.14.06.34.34,0,0,1-.12.06h-.07l0,0-.1,0h-.52l-.06,0h-.13a1,1,0,0,1-.21-.09l-4.64-2.65h0l-.1-.09,0,.94a.56.56,0,0,1-.31.42l-3.24,2a.66.66,0,0,0,.17.16l31.19,17.8a1.32,1.32,0,0,0,.3.09h0a2,2,0,0,0,.34,0h0l.35-.06h0a1,1,0,0,0,.32-.14l3.73-2.29a.5.5,0,0,0,.17-.15l0-.05Z"/><path class="cls-4" d="M1281.39,591.57l-.39.25-.14.07-.12,0h-.11l-.09,0a.18.18,0,0,0-.1,0h-.2a.23.23,0,0,1-.11,0H1280l0,0a.11.11,0,0,1-.08,0,.83.83,0,0,1-.22-.08l-4.74-2.71,0,.92a.53.53,0,0,1-.3.41l-3.25,2a.53.53,0,0,0,.17.16l4.64,2.64a1,1,0,0,0,.3.11h0l.35,0h0a1.18,1.18,0,0,0,.36-.06h0a1.79,1.79,0,0,0,.32-.13l3.73-2.3a.56.56,0,0,0,.18-.16s0,0,0,0l0-.06v0h0Z"/><path class="cls-4" d="M1272,587.52a.62.62,0,0,1-.12-.08l-.06-.08h0l0,0s0,0,0,0a.15.15,0,0,1,0-.07v-.05h0l0-1.14-.48.29a1,1,0,0,1-.14.08l-.12,0-.07,0h0l-.1,0-.1,0h-.43l-.06,0h0l-.09,0a.61.61,0,0,1-.2-.09l-1.76-1,0,.92a.58.58,0,0,1-.3.42l-3.22,2h0a.51.51,0,0,0,.2.18l4.63,2.65a1.42,1.42,0,0,0,.29.1h0a1.27,1.27,0,0,0,.34,0h0a1.49,1.49,0,0,0,.36,0h0a1.3,1.3,0,0,0,.32-.14l3.73-2.29a.57.57,0,0,0,.11-.11l-2.68-1.52Z"/><path class="cls-4" d="M1282.92,586.9l-.12-.09-.06-.06v0h0s0,0,0,0l0,0a.14.14,0,0,1,0-.07v0h0l0-1-.38.24-.15.07-.11,0-.06,0h0l-.1,0a.16.16,0,0,0-.09,0h-.19l-.11,0h-.14l-.06,0h-.11l-.21-.09-4.63-2.65h0l-.11-.08s-.05,0-.06-.07v0h0s0,0,0,0a.08.08,0,0,1,0,0,.14.14,0,0,1,0-.06v0h0l0-1.11-.46.28a.84.84,0,0,1-.14.06l-.12,0h-.06v0h0l-.1,0h-.41l-.12,0h-.06l0,0h-.09a1,1,0,0,1-.21-.08l-3.82-2.18,0,1a.57.57,0,0,1-.31.42l-3.1,1.91a.3.3,0,0,0,0,.17h0a.51.51,0,0,0,.2.18L1270,585a.92.92,0,0,0,.29.11h0a1.27,1.27,0,0,0,.34,0h0a1.43,1.43,0,0,0,.36-.06h0a.92.92,0,0,0,.32-.14l3.74-2.29a.53.53,0,0,0,.3-.42l0,1.34a.56.56,0,0,1-.31.42l-3.2,2s0,0,0,0h0a.72.72,0,0,0,.21.16l7.59,4.33a.73.73,0,0,0,.3.12h0a1.88,1.88,0,0,0,.34,0h0a1.36,1.36,0,0,0,.36,0h0a1.13,1.13,0,0,0,.32-.13l3.73-2.29a.54.54,0,0,0,.16-.14l-2-1.14Z"/><path class="cls-4" d="M1268.11,578.45l-.12-.08a.21.21,0,0,1-.06-.08h0s0,0,0,0,0,0,0-.06a.21.21,0,0,1,0-.06v-.06l0-1.24-.6.36-.14.09-.12,0s0,0-.06,0h-.13l-.1,0h-.43l0,0h0s-.06,0-.09,0a1,1,0,0,1-.21-.1l-.15-.08,0,.93a.55.55,0,0,1-.3.43l-3.23,2a.83.83,0,0,0,.19.18l2.63,1.49a.83.83,0,0,0,.29.11h0a1.3,1.3,0,0,0,.34,0h0a1.06,1.06,0,0,0,.35,0h0a1.27,1.27,0,0,0,.32-.13l3.73-2.29a.41.41,0,0,0,.15-.14l-2.15-1.23Z"/><path class="cls-4" d="M1260.9,574.38l-.12-.1-.06-.06h0v0s0,0,0,0l0,0a.35.35,0,0,0,0-.06V574h0l0-1-.39.24-.14.08-.13,0,0,0h0l-.09,0h-.62l-.09,0a.68.68,0,0,1-.21-.1l-.29-.17,0,.94a.53.53,0,0,1-.3.42l-3.27,2a.22.22,0,0,0,.07.06l5.28,3a1.17,1.17,0,0,0,.3.1.06.06,0,0,0,0,0,1.77,1.77,0,0,0,.33,0h0a1.42,1.42,0,0,0,.36,0h0a1,1,0,0,0,.32-.13l3.74-2.29a1.54,1.54,0,0,0,.13-.12l-4.7-2.67Z"/><path class="cls-4" d="M1283.51,552.67a1.42,1.42,0,0,0-1.37.05L1278.4,555c-.39.24-.41.62,0,.83l4.63,2.63a1.5,1.5,0,0,0,1.38,0l3.74-2.3c.39-.24.41-.61,0-.81Z"/><path class="cls-4" d="M1290,556.38a1.49,1.49,0,0,0-1.39,0l-3.72,2.29c-.4.24-.42.62-.05.82l4.64,2.65a1.47,1.47,0,0,0,1.38-.06l3.73-2.29c.39-.23.41-.61,0-.81Z"/><path class="cls-4" d="M1296.64,560.14a1.56,1.56,0,0,0-1.38.06l-3.73,2.3c-.4.24-.41.6,0,.82l4.64,2.64a1.55,1.55,0,0,0,1.39-.05l3.73-2.29c.39-.24.4-.61,0-.82Z"/><path class="cls-4" d="M1303.34,564a1.48,1.48,0,0,0-1.37,0l-3.74,2.28c-.39.25-.41.62,0,.82l4.63,2.66a1.47,1.47,0,0,0,1.39-.07l3.73-2.29c.39-.23.41-.6,0-.81Z"/><path class="cls-4" d="M1310,567.76a1.47,1.47,0,0,0-1.38,0l-3.73,2.29c-.39.24-.41.62,0,.82l4.63,2.64a1.54,1.54,0,0,0,1.4,0l3.73-2.3c.38-.24.4-.61,0-.81Z"/><path class="cls-4" d="M1316.61,571.54a1.51,1.51,0,0,0-1.37.05l-3.74,2.29c-.39.25-.41.61,0,.83l4.63,2.64a1.5,1.5,0,0,0,1.38-.05l3.75-2.29c.37-.24.4-.61,0-.83Z"/><path class="cls-4" d="M1323.24,575.33a1.47,1.47,0,0,0-1.38,0l-3.73,2.29c-.4.24-.41.61,0,.82l4.63,2.65a1.49,1.49,0,0,0,1.39-.06l3.73-2.3c.39-.23.41-.6,0-.81Z"/><path class="cls-4" d="M1329.88,579.11a1.5,1.5,0,0,0-1.38,0l-3.74,2.3c-.39.24-.4.6,0,.82l4.63,2.64a1.52,1.52,0,0,0,1.39,0l3.73-2.3c.39-.24.41-.6,0-.82Z"/><path class="cls-4" d="M1336.51,582.9a1.5,1.5,0,0,0-1.38.05l-3.73,2.29c-.39.25-.41.61,0,.82l4.63,2.64a1.44,1.44,0,0,0,1.38-.05l3.74-2.29c.38-.24.41-.6,0-.82Z"/><path class="cls-4" d="M1343.16,586.69a1.53,1.53,0,0,0-1.38,0l-3.73,2.31c-.39.24-.41.6,0,.82l4.64,2.64a1.5,1.5,0,0,0,1.38-.06l3.73-2.28c.39-.24.4-.61,0-.82Z"/><path class="cls-4" d="M1349.8,590.47a1.58,1.58,0,0,0-1.39,0l-3.73,2.3c-.39.24-.41.6,0,.82l4.63,2.64a1.49,1.49,0,0,0,1.39-.06l3.73-2.29c.39-.23.41-.6,0-.82Z"/><path class="cls-4" d="M1356.43,594.27a1.44,1.44,0,0,0-1.38.05l-3.73,2.29c-.39.24-.41.6,0,.81l4.63,2.64a1.49,1.49,0,0,0,1.39,0l3.74-2.29c.38-.24.4-.61,0-.81Z"/><path class="cls-4" d="M1363.06,598a1.51,1.51,0,0,0-1.37.05l-3.74,2.28c-.39.26-.41.63,0,.83l4.63,2.65a1.58,1.58,0,0,0,1.39,0l3.73-2.31c.39-.23.41-.6,0-.82Z"/><path class="cls-4" d="M1369.7,601.83a1.47,1.47,0,0,0-1.38,0l-3.73,2.29c-.39.24-.41.61,0,.82l4.63,2.64a1.56,1.56,0,0,0,1.38,0l3.74-2.3c.39-.24.41-.61,0-.82Z"/><path class="cls-4" d="M1376.34,605.61a1.52,1.52,0,0,0-1.39,0l-3.73,2.29c-.4.25-.41.61,0,.82l4.63,2.65a1.52,1.52,0,0,0,1.39,0l3.73-2.3c.39-.23.41-.6,0-.82Z"/><path class="cls-4" d="M1277.79,556.18a1.5,1.5,0,0,0-1.38.05l-3.73,2.29c-.4.24-.41.61,0,.82l15.62,8.91a1.5,1.5,0,0,0,1.38,0l3.73-2.29c.39-.25.41-.61,0-.82Z"/><path class="cls-4" d="M1295.46,566.25a1.52,1.52,0,0,0-1.39,0l-3.74,2.3c-.39.24-.4.61,0,.82l4.63,2.64a1.53,1.53,0,0,0,1.38,0l3.73-2.3c.4-.23.41-.6,0-.81Z"/><path class="cls-4" d="M1302.09,570a1.56,1.56,0,0,0-1.38.05l-3.74,2.3c-.39.25-.41.6,0,.82l4.63,2.64a1.47,1.47,0,0,0,1.38-.05l3.74-2.29c.39-.24.4-.61,0-.82Z"/><path class="cls-4" d="M1308.73,573.82a1.55,1.55,0,0,0-1.39,0l-3.73,2.3c-.39.23-.41.59,0,.81l4.63,2.65a1.5,1.5,0,0,0,1.38,0l3.73-2.3c.4-.24.41-.6,0-.81Z"/><path class="cls-4" d="M1315.35,577.6a1.56,1.56,0,0,0-1.38,0l-3.73,2.3c-.39.25-.4.61,0,.81l4.64,2.65a1.5,1.5,0,0,0,1.38,0l3.74-2.29c.39-.24.4-.61,0-.82Z"/><path class="cls-4" d="M1322,581.4a1.44,1.44,0,0,0-1.38,0l-3.73,2.29c-.4.24-.41.6,0,.82l4.62,2.64a1.49,1.49,0,0,0,1.39-.05l3.73-2.28c.39-.25.4-.61,0-.82Z"/><path class="cls-4" d="M1328.62,585.18a1.5,1.5,0,0,0-1.38,0l-3.73,2.29c-.39.25-.4.61,0,.82l4.63,2.64a1.47,1.47,0,0,0,1.38,0l3.74-2.3c.39-.23.4-.6,0-.81Z"/><path class="cls-4" d="M1335.28,589a1.52,1.52,0,0,0-1.39,0l-3.73,2.29c-.39.24-.41.61,0,.82l4.64,2.64a1.53,1.53,0,0,0,1.38,0l3.74-2.3c.39-.25.4-.61,0-.82Z"/><path class="cls-4" d="M1341.91,592.75a1.47,1.47,0,0,0-1.38.06l-3.73,2.29c-.4.23-.42.6,0,.8l4.63,2.65a1.47,1.47,0,0,0,1.38,0l3.73-2.3c.39-.24.41-.61,0-.82Z"/><path class="cls-4" d="M1348.55,596.54a1.49,1.49,0,0,0-1.39.05l-3.73,2.28c-.39.25-.41.62,0,.83l4.64,2.64a1.45,1.45,0,0,0,1.37-.05l3.73-2.29c.4-.23.41-.61,0-.81Z"/><path class="cls-4" d="M1355.17,600.32a1.51,1.51,0,0,0-1.37,0l-3.74,2.31c-.4.23-.41.6,0,.81l4.64,2.65a1.53,1.53,0,0,0,1.38,0l3.73-2.29c.4-.25.41-.61,0-.82Z"/><path class="cls-4" d="M1361.81,604.11a1.5,1.5,0,0,0-1.38,0l-3.73,2.29c-.39.25-.41.6,0,.82l4.62,2.64a1.44,1.44,0,0,0,1.39-.06l3.73-2.28c.39-.24.4-.61,0-.83Z"/><path class="cls-4" d="M1368.44,607.88a1.56,1.56,0,0,0-1.38,0l-3.73,2.3c-.4.24-.4.6,0,.83l4.64,2.64a1.56,1.56,0,0,0,1.38-.05l3.73-2.3c.39-.24.41-.6,0-.81Z"/><path class="cls-4" d="M1272,559.71a1.47,1.47,0,0,0-1.38.06l-3.73,2.3c-.39.23-.41.59,0,.8l5,2.86a1.44,1.44,0,0,0,1.38-.05l3.74-2.29c.39-.25.41-.61,0-.81Z"/><path class="cls-4" d="M1278.93,563.65a1.56,1.56,0,0,0-1.38.05l-3.74,2.3c-.39.24-.4.6,0,.81l5,2.86a1.52,1.52,0,0,0,1.39,0l3.73-2.29c.39-.24.41-.6,0-.82Z"/><path class="cls-4" d="M1266.28,563.25a1.47,1.47,0,0,0-1.38,0l-9.43,5.78c-.39.24-.4.61,0,.82l3.51,2a1.5,1.5,0,0,0,1.38,0l9.42-5.78c.39-.24.41-.6,0-.81Z"/><path class="cls-4" d="M1271.79,566.39a1.53,1.53,0,0,0-1.38,0l-3.73,2.3c-.4.24-.41.61,0,.82l5,2.85a1.55,1.55,0,0,0,1.39,0l3.73-2.29c.39-.25.4-.62,0-.82Z"/><path class="cls-4" d="M1292.93,571.61a1.46,1.46,0,0,0-1.39,0l-3.73,2.28c-.39.24-.41.61,0,.83l4.63,2.64a1.5,1.5,0,0,0,1.38-.06l3.73-2.29c.4-.24.42-.6,0-.82Z"/><path class="cls-4" d="M1286.24,567.78a1.48,1.48,0,0,0-1.4.05l-5.72,3.51-1.37.85-2.36,1.44c-.39.25-.41.61,0,.82l9.16,5.23a1.49,1.49,0,0,0,1.39,0l3.73-2.29c.39-.23.41-.61,0-.81l-3.86-2.21,5-3.08c.39-.24.41-.61,0-.81Z"/><path class="cls-4" d="M1299.56,575.38a1.56,1.56,0,0,0-1.38,0l-3.74,2.3c-.38.24-.4.61,0,.81l4.63,2.65a1.5,1.5,0,0,0,1.38-.05l3.74-2.3c.39-.23.41-.6,0-.81Z"/><path class="cls-4" d="M1306.2,579.17a1.47,1.47,0,0,0-1.38.05l-3.73,2.29c-.4.24-.41.61,0,.82l4.63,2.64a1.47,1.47,0,0,0,1.38-.05l3.74-2.28c.39-.25.41-.62,0-.83Z"/><path class="cls-4" d="M1312.83,583a1.49,1.49,0,0,0-1.39,0l-3.73,2.29c-.38.25-.4.62,0,.82l4.63,2.65a1.52,1.52,0,0,0,1.39,0l3.72-2.3c.39-.23.42-.6,0-.82Z"/><path class="cls-4" d="M1319.46,586.73a1.47,1.47,0,0,0-1.38.06l-3.73,2.3c-.39.23-.4.6,0,.81l4.64,2.65a1.56,1.56,0,0,0,1.38-.06l3.74-2.29c.38-.24.4-.61,0-.82Z"/><path class="cls-4" d="M1326.1,590.52a1.52,1.52,0,0,0-1.39.05l-3.73,2.29c-.39.25-.4.61,0,.83l4.63,2.64a1.53,1.53,0,0,0,1.38-.05l3.73-2.3c.39-.24.42-.6,0-.82Z"/><path class="cls-4" d="M1332.75,594.32a1.49,1.49,0,0,0-1.39,0l-3.73,2.29c-.39.23-.4.61,0,.82l4.63,2.64a1.5,1.5,0,0,0,1.38,0l3.74-2.29c.39-.23.41-.61,0-.82Z"/><path class="cls-4" d="M1339.38,598.1a1.5,1.5,0,0,0-1.38,0l-3.73,2.3c-.39.23-.41.6,0,.81l4.63,2.65a1.56,1.56,0,0,0,1.38,0l3.74-2.3c.39-.24.41-.61,0-.81Z"/><path class="cls-4" d="M1346,601.88a1.5,1.5,0,0,0-1.38.06l-3.74,2.29c-.39.24-.4.6,0,.82l4.63,2.64a1.44,1.44,0,0,0,1.38-.06l3.74-2.29c.39-.23.41-.6,0-.82Z"/><path class="cls-4" d="M1352.65,605.67a1.47,1.47,0,0,0-1.38.05l-3.74,2.29c-.38.24-.4.61,0,.82l4.63,2.64a1.53,1.53,0,0,0,1.38,0l3.73-2.3c.4-.24.41-.61,0-.82Z"/><path class="cls-4" d="M1359.38,609.5a1.5,1.5,0,0,0-1.38.06l-3.73,2.3c-.39.23-.41.6,0,.81l10.13,5.78a1.5,1.5,0,0,0,1.38-.05l3.74-2.29c.39-.24.4-.62,0-.83Z"/><path class="cls-4" d="M1291.67,577.66a1.48,1.48,0,0,0-1.37.05l-3.74,2.28c-.39.25-.4.61,0,.84l4.63,2.64a1.58,1.58,0,0,0,1.39-.05l3.74-2.3c.38-.24.4-.61,0-.82Z"/><path class="cls-4" d="M1298.31,581.45a1.5,1.5,0,0,0-1.38,0l-3.73,2.29c-.4.24-.41.61,0,.82l4.63,2.64a1.46,1.46,0,0,0,1.39-.06l3.73-2.29c.39-.23.41-.6,0-.81Z"/><path class="cls-4" d="M1305,585.22a1.58,1.58,0,0,0-1.39,0l-3.73,2.31c-.4.24-.42.6,0,.82l4.63,2.64a1.58,1.58,0,0,0,1.39,0l3.73-2.3c.39-.24.4-.6,0-.81Z"/><path class="cls-4" d="M1311.58,589a1.5,1.5,0,0,0-1.38.05l-3.73,2.28c-.39.25-.41.62,0,.82l4.63,2.65a1.48,1.48,0,0,0,1.4-.05l3.73-2.29c.39-.24.41-.61,0-.83Z"/><path class="cls-4" d="M1318.21,592.81a1.45,1.45,0,0,0-1.37.05l-3.74,2.28c-.39.24-.42.61,0,.82l4.63,2.65a1.52,1.52,0,0,0,1.39-.06l3.73-2.29c.39-.24.41-.61,0-.81Z"/><path class="cls-4" d="M1324.86,596.6a1.53,1.53,0,0,0-1.38,0l-3.73,2.29c-.39.25-.41.61,0,.83l4.63,2.65a1.52,1.52,0,0,0,1.39-.07l3.74-2.29c.38-.24.39-.6,0-.81Z"/><path class="cls-4" d="M1331.49,600.37a1.47,1.47,0,0,0-1.38.06l-3.72,2.3c-.4.23-.42.6-.05.81l4.64,2.64a1.53,1.53,0,0,0,1.38,0l3.73-2.3c.39-.23.42-.6,0-.81Z"/><path class="cls-4" d="M1338.13,604.16a1.56,1.56,0,0,0-1.38.05l-3.73,2.28c-.4.25-.41.63,0,.83l4.63,2.66a1.56,1.56,0,0,0,1.38-.06l3.75-2.3c.37-.23.4-.6,0-.82Z"/><path class="cls-4" d="M1344.76,608a1.5,1.5,0,0,0-1.38,0l-3.73,2.28c-.4.24-.41.62,0,.82l4.63,2.65a1.49,1.49,0,0,0,1.39,0l3.73-2.29c.39-.24.41-.62,0-.82Z"/><path class="cls-4" d="M1351.4,611.73a1.47,1.47,0,0,0-1.38,0l-3.73,2.3c-.4.24-.42.6,0,.82l4.63,2.64a1.5,1.5,0,0,0,1.38-.06l3.74-2.29c.38-.24.4-.6,0-.82Z"/><path class="cls-4" d="M1358,615.51a1.56,1.56,0,0,0-1.38,0l-3.73,2.29c-.39.26-.41.62,0,.83l5.76,3.28a1.5,1.5,0,0,0,1.38-.05l3.74-2.29c.38-.24.4-.61,0-.82Z"/><path class="cls-4" d="M1266.1,569.88a1.5,1.5,0,0,0-1.38,0l-3.73,2.31c-.39.23-.41.59,0,.8l5,2.86a1.5,1.5,0,0,0,1.38,0l3.74-2.3c.38-.23.4-.6,0-.81Z"/><path class="cls-4" d="M1273.31,574a1.44,1.44,0,0,0-1.38,0l-3.73,2.29c-.39.24-.41.61,0,.81l6.11,3.5a1.56,1.56,0,0,0,1.38-.05l3.73-2.3c.39-.23.41-.6,0-.82Z"/><path class="cls-4" d="M1281.5,578.62a1.52,1.52,0,0,0-1.39.06l-3.73,2.28c-.39.24-.41.61,0,.82l4.64,2.64a1.44,1.44,0,0,0,1.38,0l3.73-2.29c.39-.24.41-.61,0-.82Z"/><path class="cls-4" d="M1288.13,582.41a1.49,1.49,0,0,0-1.39.05l-3.74,2.28c-.38.24-.39.61,0,.83l4.63,2.64a1.5,1.5,0,0,0,1.38-.05l3.73-2.29c.4-.24.41-.62,0-.82Z"/><path class="cls-4" d="M1294.77,586.19a1.52,1.52,0,0,0-1.39,0l-3.73,2.29c-.39.24-.41.61,0,.82l4.63,2.64a1.49,1.49,0,0,0,1.39,0l3.73-2.28c.39-.25.41-.61,0-.83Z"/><path class="cls-4" d="M1301.4,590a1.51,1.51,0,0,0-1.4.06l-3.72,2.29c-.4.23-.4.6,0,.82l4.63,2.64a1.53,1.53,0,0,0,1.38,0l3.73-2.3c.39-.24.42-.6,0-.81Z"/><path class="cls-4" d="M1308,593.75a1.53,1.53,0,0,0-1.38.06l-3.74,2.29c-.38.25-.4.61,0,.82l4.64,2.64a1.53,1.53,0,0,0,1.38,0l3.73-2.3c.39-.24.41-.61,0-.82Z"/><path class="cls-4" d="M1314.67,597.54a1.49,1.49,0,0,0-1.39.06l-3.74,2.28c-.38.23-.41.61,0,.82l4.64,2.65a1.54,1.54,0,0,0,1.37-.05l3.74-2.29c.39-.26.41-.62,0-.82Z"/><path class="cls-4" d="M1321.32,601.34a1.49,1.49,0,0,0-1.39,0l-3.73,2.29c-.39.23-.41.61,0,.83l4.64,2.63a1.45,1.45,0,0,0,1.37,0l3.74-2.28c.4-.25.42-.61,0-.82Z"/><path class="cls-4" d="M1327.94,605.13a1.47,1.47,0,0,0-1.38,0l-3.73,2.29c-.39.25-.41.62,0,.82l4.64,2.64a1.44,1.44,0,0,0,1.38,0l3.73-2.28c.39-.24.41-.62,0-.83Z"/><path class="cls-4" d="M1334.58,608.9a1.47,1.47,0,0,0-1.38.07l-3.73,2.29c-.39.23-.41.59,0,.8l4.63,2.65a1.55,1.55,0,0,0,1.39-.05l3.73-2.29c.39-.24.41-.61,0-.82Z"/><path class="cls-4" d="M1341.22,612.69a1.52,1.52,0,0,0-1.39,0L1336.1,615c-.39.25-.4.62,0,.83l4.64,2.64a1.44,1.44,0,0,0,1.38,0l3.73-2.29c.39-.24.41-.61,0-.82Z"/><path class="cls-4" d="M1348,616.53a1.55,1.55,0,0,0-1.39.05l-3.73,2.29c-.39.24-.41.61,0,.82l10.13,5.78a1.5,1.5,0,0,0,1.38-.05l3.74-2.29c.39-.25.4-.61,0-.83Z"/><path class="cls-4" d="M1254.84,570.26a1.5,1.5,0,0,0-1.38.06l-9.47,5.81c-.39.24-.41.6,0,.82l3.51,2a1.5,1.5,0,0,0,1.38-.05l9.47-5.82c.38-.23.4-.6,0-.82Z"/><path class="cls-4" d="M1260.22,573.33a1.47,1.47,0,0,0-1.38,0l-3.74,2.29c-.38.24-.41.61,0,.82l5.29,3a1.5,1.5,0,0,0,1.38,0l3.74-2.29c.39-.24.41-.61,0-.83Z"/><path class="cls-4" d="M1267.54,577.5a1.52,1.52,0,0,0-1.39,0l-3.74,2.29c-.38.25-.4.61,0,.83l2.63,1.49a1.5,1.5,0,0,0,1.38,0l3.73-2.29c.39-.25.41-.62,0-.82Z"/><path class="cls-4" d="M1272.38,580.27a1.5,1.5,0,0,0-1.38.05l-3.74,2.29c-.39.24-.41.61,0,.82L1270,585a1.44,1.44,0,0,0,1.38,0l3.74-2.29c.39-.24.41-.61,0-.82Z"/><path class="cls-4" d="M1277.22,583a1.55,1.55,0,0,0-1.39.06l-3.73,2.29c-.39.24-.41.61,0,.81l7.59,4.33a1.44,1.44,0,0,0,1.38,0l3.73-2.29c.39-.24.41-.6,0-.83Z"/><path class="cls-4" d="M1286.82,588.51a1.49,1.49,0,0,0-1.39,0l-3.73,2.29c-.39.23-.41.6,0,.82l4.63,2.64a1.55,1.55,0,0,0,1.39,0l3.73-2.29c.39-.25.41-.62,0-.82Z"/><path class="cls-4" d="M1293.45,592.29a1.46,1.46,0,0,0-1.39.05l-3.73,2.29c-.39.24-.4.6,0,.82l4.63,2.64a1.5,1.5,0,0,0,1.38-.05l3.73-2.3c.4-.23.41-.6,0-.81Z"/><path class="cls-4" d="M1300.08,596.07a1.47,1.47,0,0,0-1.38.06l-3.73,2.29c-.39.24-.41.61,0,.82l4.63,2.64a1.55,1.55,0,0,0,1.39,0l3.73-2.29c.39-.24.4-.61,0-.83Z"/><path class="cls-4" d="M1306.72,599.85a1.55,1.55,0,0,0-1.39.06l-3.73,2.28c-.39.25-.41.61,0,.82l4.63,2.65a1.47,1.47,0,0,0,1.38,0l3.73-2.3c.39-.24.42-.6,0-.82Z"/><path class="cls-4" d="M1313.37,603.65a1.49,1.49,0,0,0-1.39.05l-3.73,2.29c-.39.24-.4.61,0,.82l4.63,2.64a1.44,1.44,0,0,0,1.38-.05l3.74-2.28c.39-.24.4-.62,0-.83Z"/><path class="cls-4" d="M1320,607.44a1.47,1.47,0,0,0-1.38,0l-3.74,2.3c-.38.24-.41.6,0,.82l4.63,2.64a1.5,1.5,0,0,0,1.38,0l3.73-2.3c.39-.24.41-.6,0-.82Z"/><path class="cls-4" d="M1326.64,611.22a1.52,1.52,0,0,0-1.39,0l-3.73,2.3c-.39.24-.41.6,0,.81l4.63,2.64a1.47,1.47,0,0,0,1.38,0l3.73-2.28c.4-.25.42-.62,0-.83Z"/><path class="cls-4" d="M1333.27,615a1.5,1.5,0,0,0-1.38,0l-3.74,2.29c-.39.24-.4.61,0,.83l4.64,2.64a1.55,1.55,0,0,0,1.39,0l3.72-2.29c.4-.25.41-.61,0-.83Z"/><path class="cls-4" d="M1339.91,618.79a1.52,1.52,0,0,0-1.39.05l-3.73,2.29c-.39.24-.41.61,0,.81l4.63,2.65a1.47,1.47,0,0,0,1.38-.05l3.73-2.29c.39-.24.41-.61,0-.82Z"/><path class="cls-4" d="M1346.54,622.57a1.48,1.48,0,0,0-1.4.06l-3.72,2.29c-.39.23-.4.6,0,.82l4.63,2.63a1.5,1.5,0,0,0,1.38,0l3.74-2.28c.39-.25.4-.62,0-.82Z"/><path class="cls-4" d="M1256.65,578.08a1.5,1.5,0,0,0-1.38,0l-3.73,2.3c-.39.24-.41.61,0,.82l4.64,2.64a1.5,1.5,0,0,0,1.38,0l3.73-2.29c.39-.24.41-.61,0-.82Z"/><path class="cls-4" d="M1263.28,581.87a1.5,1.5,0,0,0-1.38,0l-3.73,2.29c-.4.24-.41.61,0,.82l4.63,2.64a1.49,1.49,0,0,0,1.39,0l3.73-2.29c.39-.24.4-.62,0-.82Z"/><path class="cls-4" d="M1270,585.69a1.47,1.47,0,0,0-1.38,0l-3.73,2.29c-.4.24-.42.62,0,.82l4.63,2.65a1.55,1.55,0,0,0,1.39-.06l3.73-2.29c.38-.23.4-.6,0-.82Z"/><path class="cls-4" d="M1276.61,589.47a1.53,1.53,0,0,0-1.38,0l-3.73,2.29c-.4.25-.41.61,0,.83l4.64,2.64a1.5,1.5,0,0,0,1.38,0l3.73-2.3c.39-.24.4-.61,0-.82Z"/><path class="cls-4" d="M1283.25,593.26a1.44,1.44,0,0,0-1.38,0l-3.73,2.29c-.4.24-.42.61-.05.82l31.19,17.8a1.52,1.52,0,0,0,1.39-.07l3.73-2.29c.39-.23.41-.6,0-.81Z"/><path class="cls-4" d="M1316.43,612.18a1.47,1.47,0,0,0-1.38.06l-3.73,2.29c-.39.24-.41.61,0,.82l4.63,2.64a1.52,1.52,0,0,0,1.39,0l3.73-2.29c.39-.24.41-.61,0-.81Z"/><path class="cls-4" d="M1323.07,616a1.51,1.51,0,0,0-1.37,0l-3.74,2.29c-.39.25-.42.61,0,.83l4.64,2.64a1.52,1.52,0,0,0,1.39,0l3.73-2.3c.38-.23.41-.6,0-.82Z"/><path class="cls-4" d="M1329.7,619.76a1.5,1.5,0,0,0-1.38,0l-3.73,2.28c-.4.25-.41.62,0,.83l4.63,2.64a1.46,1.46,0,0,0,1.39,0l3.73-2.29c.39-.24.41-.61,0-.82Z"/><path class="cls-4" d="M1336.34,623.54a1.5,1.5,0,0,0-1.38.06l-3.74,2.29c-.39.24-.41.61,0,.82l4.62,2.64a1.48,1.48,0,0,0,1.4-.06l3.73-2.29c.39-.23.4-.6,0-.82Z"/><path class="cls-4" d="M1343,627.33a1.5,1.5,0,0,0-1.38,0l-3.73,2.29c-.4.24-.42.62,0,.83l3.59,2a1.47,1.47,0,0,0,1.38-.06l3.74-2.29c.38-.24.4-.6,0-.82Z"/><path class="cls-8" d="M1340.41,549.13l-106.9-60.54c-1.52-.87-2.82-.08-2.89,1.75l-3.49,86.88a5.83,5.83,0,0,0,2.63,4.88l106.88,60.54c1.52.86,2.82.08,2.89-1.75L1343,554A5.87,5.87,0,0,0,1340.41,549.13Z"/><path class="cls-56" d="M1347.58,550.19a3.2,3.2,0,0,0-.07-.33.3.3,0,0,0,0-.1l0-.06a4.09,4.09,0,0,0-.12-.41,2.44,2.44,0,0,0-.1-.24v0l-.09-.24c0-.07-.18-.36-.21-.44h0v0l-.3-.48a.35.35,0,0,0-.07-.09.25.25,0,0,0,0-.07l-.06-.09c-.07-.1-.29-.35-.32-.4l-.1-.09-.1-.12-.24-.21-.16-.14a3.64,3.64,0,0,0-.52-.35l-106.88-60.54a4.15,4.15,0,0,0-.51-.24l-.66-.12a2.09,2.09,0,0,0-.36,0h0l-.11,0-.15.07-.14.07h0l-4.62,2.86a1.15,1.15,0,0,1,.41-.17h0a2.06,2.06,0,0,1,.44,0h0a3.88,3.88,0,0,1,.45.08,4.85,4.85,0,0,1,.61.27l106.9,60.54a4,4,0,0,1,.51.36,1,1,0,0,1,.15.14,3.49,3.49,0,0,1,.35.32l.09.1c.14.16.27.33.39.49s0,0,0,.05c.13.19.25.4.37.61h0c.11.22.22.44.31.66v0c.08.22.16.44.22.67a.14.14,0,0,0,0,.06,6.37,6.37,0,0,1,.11.63.29.29,0,0,0,0,.09q0,.35,0,.66l-3.5,86.89a2.23,2.23,0,0,1-.89,1.88l4.63-2.85a2.25,2.25,0,0,0,.89-1.89l3.49-86.88c0-.18,0-.63,0-.63S1347.59,550.25,1347.58,550.19Z"/><path class="cls-43" d="M1074.3,919.18c1,8-.54,27.66-.64,31.38s-2.84,19.47-3.5,23.13.61,6.75,2.78,5.79c2.46-1.07,7.6-22.61,8.39-23.49,3.19-3.62,15.77-3.36,18-5.86,7.35-8.32-5.69-30.07-7.3-33.63S1073.34,911.13,1074.3,919.18Z"/><path class="cls-57" d="M1098.52,917.76c-.37,3.6-20.31,9.06-28,2.69,0,0-8.9-62.37-9.39-79.75-8.57-18.78-28.59-54.38-37.22-72.35-4.3-8.94,4.57-17.14,12.57-22.33a19.75,19.75,0,0,1,3.19-1.69c10.25-4.28,25.47-8.91,29.43,1.52,8.36,22,25.24,66.4,27.69,90.06a2.35,2.35,0,0,1,0,.53h0C1101.43,860.32,1099.67,906.41,1098.52,917.76Z"/><path class="cls-43" d="M831.32,678.18c-6.56-4.64-20.16-18.94-22.85-21.51s-12.54-15.16-14.82-18.1-5.41-4.08-6.16-1.83c-.85,2.55,11.68,20.81,11.81,22,.54,4.8-8.09,14-7.72,17.27,1.25,11,26.13,15.94,29.85,17.13S837.93,682.87,831.32,678.18Z"/><path class="cls-58" d="M1073.68,892.76l-65.63,32.51s19.15,94.85,45.69,137l46.1-21-18.74-83.6C1093.63,928.76,1076.29,905.35,1073.68,892.76Z"/><path class="cls-45" d="M943.41,1200.61l-36.11-20.3c-5.54-4.4-25.55-11.64-33.3-10.61-7,.94-7.76,8.93-1.81,12.76,10.69,6.88,36.9,20.71,47.5,27.74,5.9,3.91,15.36,5.81,21.91,3.16S949,1205,943.41,1200.61Z"/><path class="cls-45" d="M916.74,1168.61c-9.78,14.13-32.33-8.67-47.77,4.24,0,0,73.5,48.68,78.14,34.3,4.34-13.45,8.23-37.92,8.23-37.92l-35.63-12.08S918.06,1166.71,916.74,1168.61Z"/><path class="cls-46" d="M976.63,902c-16.92,23.21-34.47,113.53-34.47,113.53l49.77,21.68s67.64-98,51.86-135.21C1040.46,894.14,986.52,888.43,976.63,902Z"/><path class="cls-46" d="M986.62,1015.86c-5-6.52-11.22-13-19.3-14.17a23.83,23.83,0,0,0-24.35,12c-4.75,8.71-29.21,144.33-29.36,150.21s47,18.6,47,18.6c13.21-37.92,33.42-142.71,32.54-147.79C992.2,1028.92,990.15,1020.48,986.62,1015.86Z"/><path class="cls-58" d="M1159.17,1150.81a15.26,15.26,0,0,0-6.72,1.32c-.92.36-1.84.73-2.75,1.14a61.48,61.48,0,0,0-19.43,13.6,37.9,37.9,0,0,0-2.5,2.86c-2.08,2.6-4.67,5.56-4.13,8.91.61,3.86,6.76,3.2,11.42,1.89a42.38,42.38,0,0,0,5.65-2.06,62.39,62.39,0,0,0,20-14.29,22.82,22.82,0,0,0,2.53-3.1,12.15,12.15,0,0,0,1-1.84,6.58,6.58,0,0,0,.36-4.65A6.24,6.24,0,0,0,1159.17,1150.81Z"/><path class="cls-45" d="M1145.88,1146.08c-8.18,3.6-17.76,14.53-24,21-1,1,11.06,9,10.6,15.06-.17,2.13-.92,20.64-2.35,30-1.09,7-2.71,14,2.87,16.82l36.91-62.16C1166.47,1155.52,1155.06,1159.32,1145.88,1146.08Z"/><path class="cls-59" d="M1149,1180.12c-2.89,11.35-9.67,35.23-15.53,44.63-6.08,9.76,17.83,3,28.18-20.92,1.48-3.42,13.74-28.91,7.52-38.86C1166.33,1160.45,1153,1164.46,1149,1180.12Z"/><path class="cls-58" d="M1053.6,1062c3.23,9.39,67.77,116.76,70.65,118-2.57-9,33.43-38.15,40-25.6-19-35.34-60.86-110.25-65.83-115.94C1094.58,1034,1050.37,1052.55,1053.6,1062Z"/><path class="cls-60" d="M1045.77,727.64c-12.58-1.85-114.4,2.9-92.83,40,9.06,15.58,5.19,119.1,10.92,153.16,1.79,10.64,112.43,6.28,112.43-25.86,0-8.85-2.52-125.58-3.14-134.81C1072.23,745.81,1062.19,730.06,1045.77,727.64Z"/><path class="cls-43" d="M1018.4,656a18.26,18.26,0,0,0-5.07-3c-6.59-2.92-13.85-4.92-21-3.84s-14,5.82-16.08,12.76a29.29,29.29,0,0,0-.92,7.28c-.61,16.52.54,33.29,5.52,49,.22.69.45,1.37.7,2.05v0c1.13,3.07,2.67,6,5.29,7.83a14.13,14.13,0,0,0,5.7,2.13,23.62,23.62,0,0,0,6.11.25,25.63,25.63,0,0,0,17.08-8.56c3.82-4.4,6-10,7.19-15.76a102,102,0,0,0,1.49-17.47c.24-8.79-.75-26.65-2.34-28.35C1020.81,658.91,1019.8,657.27,1018.4,656Z"/><path class="cls-49" d="M987.07,731.8a2.18,2.18,0,0,1,0-.25Z"/><path class="cls-43" d="M993.33,698.09s6.62,19.91,1.33,38.57c-2.77,9.76,40.56,1.63,40.56,1.63l-1.36-52.89Z"/><path class="cls-43" d="M1029.17,732c-8-2.88-20.88-2.54-28.73.75s-7.73,8.31.28,11.19,20.88,2.55,28.74-.75S1037.18,734.86,1029.17,732Z"/><path class="cls-42" d="M1025.87,634.44c-28-12.33-63.13,17.24-52.92,36.33,1.12,2.09,7.77.49,10,3.77,2.06,3-2.53,20.43,1.41,23.11,2.48,1.69,6.86-15.34,11-14.41,7.79,1.77,7,11.74,7,14.1,0,24.16,3.82,29.51,4.36,29.85,8.88,5.65,25.27,4.34,29.25-5.3C1038.76,715.19,1081.49,659,1025.87,634.44Z"/><path class="cls-43" d="M1000.66,680.41c-6.66-4.26-11.16,4.41-11.62,8.35-.41,3.52.93,16.63,5,18,5.12,1.7,7.48-4.62,7.76-7.47C1002.3,693.83,1007.81,685,1000.66,680.41Z"/><path class="cls-61" d="M985.12,766.27a20.43,20.43,0,0,1-.89,3.5c-3.71,10.48-10.48,24.87-20.87,20.81C941.42,782,897.18,764.79,878,750.73a1.78,1.78,0,0,1-.34-.33l-.06,0c-20.8-12.59-53.82-44.8-61.46-53.26-2.43-2.69,6.9-21.15,16.76-22.55,0,0,52.27,35.25,65.47,46.51C918,727.31,957.86,736.33,977,742,986.48,744.78,986.63,756.86,985.12,766.27Z"/></g></g></svg>